<?xml version="1.0" encoding="utf-8" standalone="no"?>
<!DOCTYPE svg PUBLIC "-//W3C//DTD SVG 1.1//EN"
  "http://www.w3.org/Graphics/SVG/1.1/DTD/svg11.dtd">
<!-- Created with matplotlib (http://matplotlib.org/) -->
<svg height="345pt" version="1.1" viewBox="0 0 460 345" width="460pt" xmlns="http://www.w3.org/2000/svg" xmlns:xlink="http://www.w3.org/1999/xlink">
 <defs>
  <style type="text/css">
*{stroke-linecap:butt;stroke-linejoin:round;}
  </style>
 </defs>
 <g id="figure_1">
  <g id="patch_1">
   <path d="M 0 345.6 
L 460.8 345.6 
L 460.8 0 
L 0 0 
z
" style="fill:#ffffff;"/>
  </g>
  <g id="axes_1">
   <g id="patch_2">
    <path d="M 57.6 307.584 
L 414.72 307.584 
L 414.72 41.472 
L 57.6 41.472 
z
" style="fill:#e5e5e5;"/>
   </g>
   <g id="matplotlib.axis_1">
    <g id="xtick_1">
     <g id="line2d_1">
      <path clip-path="url(#pc5a352094c)" d="M 108.534293 307.584 
L 108.534293 41.472 
" style="fill:none;stroke:#ffffff;stroke-linecap:square;stroke-width:0.8;"/>
     </g>
     <g id="line2d_2">
      <defs>
       <path d="M 0 0 
L 0 3.5 
" id="m253b2c05eb" style="stroke:#555555;stroke-width:0.8;"/>
      </defs>
      <g>
       <use style="fill:#555555;stroke:#555555;stroke-width:0.8;" x="108.534293" xlink:href="#m253b2c05eb" y="307.584"/>
      </g>
     </g>
     <g id="text_1">
      <!-- 0 -->
      <defs>
       <path d="M 31.78125 66.40625 
Q 24.171875 66.40625 20.328125 58.90625 
Q 16.5 51.421875 16.5 36.375 
Q 16.5 21.390625 20.328125 13.890625 
Q 24.171875 6.390625 31.78125 6.390625 
Q 39.453125 6.390625 43.28125 13.890625 
Q 47.125 21.390625 47.125 36.375 
Q 47.125 51.421875 43.28125 58.90625 
Q 39.453125 66.40625 31.78125 66.40625 
z
M 31.78125 74.21875 
Q 44.046875 74.21875 50.515625 64.515625 
Q 56.984375 54.828125 56.984375 36.375 
Q 56.984375 17.96875 50.515625 8.265625 
Q 44.046875 -1.421875 31.78125 -1.421875 
Q 19.53125 -1.421875 13.0625 8.265625 
Q 6.59375 17.96875 6.59375 36.375 
Q 6.59375 54.828125 13.0625 64.515625 
Q 19.53125 74.21875 31.78125 74.21875 
z
" id="DejaVuSans-30"/>
      </defs>
      <g style="fill:#555555;" transform="translate(105.353043 322.182437)scale(0.1 -0.1)">
       <use xlink:href="#DejaVuSans-30"/>
      </g>
     </g>
    </g>
    <g id="xtick_2">
     <g id="line2d_3">
      <path clip-path="url(#pc5a352094c)" d="M 167.994646 307.584 
L 167.994646 41.472 
" style="fill:none;stroke:#ffffff;stroke-linecap:square;stroke-width:0.8;"/>
     </g>
     <g id="line2d_4">
      <g>
       <use style="fill:#555555;stroke:#555555;stroke-width:0.8;" x="167.994646" xlink:href="#m253b2c05eb" y="307.584"/>
      </g>
     </g>
     <g id="text_2">
      <!-- 2000 -->
      <defs>
       <path d="M 19.1875 8.296875 
L 53.609375 8.296875 
L 53.609375 0 
L 7.328125 0 
L 7.328125 8.296875 
Q 12.9375 14.109375 22.625 23.890625 
Q 32.328125 33.6875 34.8125 36.53125 
Q 39.546875 41.84375 41.421875 45.53125 
Q 43.3125 49.21875 43.3125 52.78125 
Q 43.3125 58.59375 39.234375 62.25 
Q 35.15625 65.921875 28.609375 65.921875 
Q 23.96875 65.921875 18.8125 64.3125 
Q 13.671875 62.703125 7.8125 59.421875 
L 7.8125 69.390625 
Q 13.765625 71.78125 18.9375 73 
Q 24.125 74.21875 28.421875 74.21875 
Q 39.75 74.21875 46.484375 68.546875 
Q 53.21875 62.890625 53.21875 53.421875 
Q 53.21875 48.921875 51.53125 44.890625 
Q 49.859375 40.875 45.40625 35.40625 
Q 44.1875 33.984375 37.640625 27.21875 
Q 31.109375 20.453125 19.1875 8.296875 
z
" id="DejaVuSans-32"/>
      </defs>
      <g style="fill:#555555;" transform="translate(155.269646 322.182437)scale(0.1 -0.1)">
       <use xlink:href="#DejaVuSans-32"/>
       <use x="63.623047" xlink:href="#DejaVuSans-30"/>
       <use x="127.246094" xlink:href="#DejaVuSans-30"/>
       <use x="190.869141" xlink:href="#DejaVuSans-30"/>
      </g>
     </g>
    </g>
    <g id="xtick_3">
     <g id="line2d_5">
      <path clip-path="url(#pc5a352094c)" d="M 227.454999 307.584 
L 227.454999 41.472 
" style="fill:none;stroke:#ffffff;stroke-linecap:square;stroke-width:0.8;"/>
     </g>
     <g id="line2d_6">
      <g>
       <use style="fill:#555555;stroke:#555555;stroke-width:0.8;" x="227.454999" xlink:href="#m253b2c05eb" y="307.584"/>
      </g>
     </g>
     <g id="text_3">
      <!-- 4000 -->
      <defs>
       <path d="M 37.796875 64.3125 
L 12.890625 25.390625 
L 37.796875 25.390625 
z
M 35.203125 72.90625 
L 47.609375 72.90625 
L 47.609375 25.390625 
L 58.015625 25.390625 
L 58.015625 17.1875 
L 47.609375 17.1875 
L 47.609375 0 
L 37.796875 0 
L 37.796875 17.1875 
L 4.890625 17.1875 
L 4.890625 26.703125 
z
" id="DejaVuSans-34"/>
      </defs>
      <g style="fill:#555555;" transform="translate(214.729999 322.182437)scale(0.1 -0.1)">
       <use xlink:href="#DejaVuSans-34"/>
       <use x="63.623047" xlink:href="#DejaVuSans-30"/>
       <use x="127.246094" xlink:href="#DejaVuSans-30"/>
       <use x="190.869141" xlink:href="#DejaVuSans-30"/>
      </g>
     </g>
    </g>
    <g id="xtick_4">
     <g id="line2d_7">
      <path clip-path="url(#pc5a352094c)" d="M 286.915351 307.584 
L 286.915351 41.472 
" style="fill:none;stroke:#ffffff;stroke-linecap:square;stroke-width:0.8;"/>
     </g>
     <g id="line2d_8">
      <g>
       <use style="fill:#555555;stroke:#555555;stroke-width:0.8;" x="286.915351" xlink:href="#m253b2c05eb" y="307.584"/>
      </g>
     </g>
     <g id="text_4">
      <!-- 6000 -->
      <defs>
       <path d="M 33.015625 40.375 
Q 26.375 40.375 22.484375 35.828125 
Q 18.609375 31.296875 18.609375 23.390625 
Q 18.609375 15.53125 22.484375 10.953125 
Q 26.375 6.390625 33.015625 6.390625 
Q 39.65625 6.390625 43.53125 10.953125 
Q 47.40625 15.53125 47.40625 23.390625 
Q 47.40625 31.296875 43.53125 35.828125 
Q 39.65625 40.375 33.015625 40.375 
z
M 52.59375 71.296875 
L 52.59375 62.3125 
Q 48.875 64.0625 45.09375 64.984375 
Q 41.3125 65.921875 37.59375 65.921875 
Q 27.828125 65.921875 22.671875 59.328125 
Q 17.53125 52.734375 16.796875 39.40625 
Q 19.671875 43.65625 24.015625 45.921875 
Q 28.375 48.1875 33.59375 48.1875 
Q 44.578125 48.1875 50.953125 41.515625 
Q 57.328125 34.859375 57.328125 23.390625 
Q 57.328125 12.15625 50.6875 5.359375 
Q 44.046875 -1.421875 33.015625 -1.421875 
Q 20.359375 -1.421875 13.671875 8.265625 
Q 6.984375 17.96875 6.984375 36.375 
Q 6.984375 53.65625 15.1875 63.9375 
Q 23.390625 74.21875 37.203125 74.21875 
Q 40.921875 74.21875 44.703125 73.484375 
Q 48.484375 72.75 52.59375 71.296875 
z
" id="DejaVuSans-36"/>
      </defs>
      <g style="fill:#555555;" transform="translate(274.190351 322.182437)scale(0.1 -0.1)">
       <use xlink:href="#DejaVuSans-36"/>
       <use x="63.623047" xlink:href="#DejaVuSans-30"/>
       <use x="127.246094" xlink:href="#DejaVuSans-30"/>
       <use x="190.869141" xlink:href="#DejaVuSans-30"/>
      </g>
     </g>
    </g>
    <g id="xtick_5">
     <g id="line2d_9">
      <path clip-path="url(#pc5a352094c)" d="M 346.375704 307.584 
L 346.375704 41.472 
" style="fill:none;stroke:#ffffff;stroke-linecap:square;stroke-width:0.8;"/>
     </g>
     <g id="line2d_10">
      <g>
       <use style="fill:#555555;stroke:#555555;stroke-width:0.8;" x="346.375704" xlink:href="#m253b2c05eb" y="307.584"/>
      </g>
     </g>
     <g id="text_5">
      <!-- 8000 -->
      <defs>
       <path d="M 31.78125 34.625 
Q 24.75 34.625 20.71875 30.859375 
Q 16.703125 27.09375 16.703125 20.515625 
Q 16.703125 13.921875 20.71875 10.15625 
Q 24.75 6.390625 31.78125 6.390625 
Q 38.8125 6.390625 42.859375 10.171875 
Q 46.921875 13.96875 46.921875 20.515625 
Q 46.921875 27.09375 42.890625 30.859375 
Q 38.875 34.625 31.78125 34.625 
z
M 21.921875 38.8125 
Q 15.578125 40.375 12.03125 44.71875 
Q 8.5 49.078125 8.5 55.328125 
Q 8.5 64.0625 14.71875 69.140625 
Q 20.953125 74.21875 31.78125 74.21875 
Q 42.671875 74.21875 48.875 69.140625 
Q 55.078125 64.0625 55.078125 55.328125 
Q 55.078125 49.078125 51.53125 44.71875 
Q 48 40.375 41.703125 38.8125 
Q 48.828125 37.15625 52.796875 32.3125 
Q 56.78125 27.484375 56.78125 20.515625 
Q 56.78125 9.90625 50.3125 4.234375 
Q 43.84375 -1.421875 31.78125 -1.421875 
Q 19.734375 -1.421875 13.25 4.234375 
Q 6.78125 9.90625 6.78125 20.515625 
Q 6.78125 27.484375 10.78125 32.3125 
Q 14.796875 37.15625 21.921875 38.8125 
z
M 18.3125 54.390625 
Q 18.3125 48.734375 21.84375 45.5625 
Q 25.390625 42.390625 31.78125 42.390625 
Q 38.140625 42.390625 41.71875 45.5625 
Q 45.3125 48.734375 45.3125 54.390625 
Q 45.3125 60.0625 41.71875 63.234375 
Q 38.140625 66.40625 31.78125 66.40625 
Q 25.390625 66.40625 21.84375 63.234375 
Q 18.3125 60.0625 18.3125 54.390625 
z
" id="DejaVuSans-38"/>
      </defs>
      <g style="fill:#555555;" transform="translate(333.650704 322.182437)scale(0.1 -0.1)">
       <use xlink:href="#DejaVuSans-38"/>
       <use x="63.623047" xlink:href="#DejaVuSans-30"/>
       <use x="127.246094" xlink:href="#DejaVuSans-30"/>
       <use x="190.869141" xlink:href="#DejaVuSans-30"/>
      </g>
     </g>
    </g>
    <g id="xtick_6">
     <g id="line2d_11">
      <path clip-path="url(#pc5a352094c)" d="M 405.836057 307.584 
L 405.836057 41.472 
" style="fill:none;stroke:#ffffff;stroke-linecap:square;stroke-width:0.8;"/>
     </g>
     <g id="line2d_12">
      <g>
       <use style="fill:#555555;stroke:#555555;stroke-width:0.8;" x="405.836057" xlink:href="#m253b2c05eb" y="307.584"/>
      </g>
     </g>
     <g id="text_6">
      <!-- 10000 -->
      <defs>
       <path d="M 12.40625 8.296875 
L 28.515625 8.296875 
L 28.515625 63.921875 
L 10.984375 60.40625 
L 10.984375 69.390625 
L 28.421875 72.90625 
L 38.28125 72.90625 
L 38.28125 8.296875 
L 54.390625 8.296875 
L 54.390625 0 
L 12.40625 0 
z
" id="DejaVuSans-31"/>
      </defs>
      <g style="fill:#555555;" transform="translate(389.929807 322.182437)scale(0.1 -0.1)">
       <use xlink:href="#DejaVuSans-31"/>
       <use x="63.623047" xlink:href="#DejaVuSans-30"/>
       <use x="127.246094" xlink:href="#DejaVuSans-30"/>
       <use x="190.869141" xlink:href="#DejaVuSans-30"/>
       <use x="254.492188" xlink:href="#DejaVuSans-30"/>
      </g>
     </g>
    </g>
    <g id="text_7">
     <!-- count -->
     <defs>
      <path d="M 48.78125 52.59375 
L 48.78125 44.1875 
Q 44.96875 46.296875 41.140625 47.34375 
Q 37.3125 48.390625 33.40625 48.390625 
Q 24.65625 48.390625 19.8125 42.84375 
Q 14.984375 37.3125 14.984375 27.296875 
Q 14.984375 17.28125 19.8125 11.734375 
Q 24.65625 6.203125 33.40625 6.203125 
Q 37.3125 6.203125 41.140625 7.25 
Q 44.96875 8.296875 48.78125 10.40625 
L 48.78125 2.09375 
Q 45.015625 0.34375 40.984375 -0.53125 
Q 36.96875 -1.421875 32.421875 -1.421875 
Q 20.0625 -1.421875 12.78125 6.34375 
Q 5.515625 14.109375 5.515625 27.296875 
Q 5.515625 40.671875 12.859375 48.328125 
Q 20.21875 56 33.015625 56 
Q 37.15625 56 41.109375 55.140625 
Q 45.0625 54.296875 48.78125 52.59375 
z
" id="DejaVuSans-63"/>
      <path d="M 30.609375 48.390625 
Q 23.390625 48.390625 19.1875 42.75 
Q 14.984375 37.109375 14.984375 27.296875 
Q 14.984375 17.484375 19.15625 11.84375 
Q 23.34375 6.203125 30.609375 6.203125 
Q 37.796875 6.203125 41.984375 11.859375 
Q 46.1875 17.53125 46.1875 27.296875 
Q 46.1875 37.015625 41.984375 42.703125 
Q 37.796875 48.390625 30.609375 48.390625 
z
M 30.609375 56 
Q 42.328125 56 49.015625 48.375 
Q 55.71875 40.765625 55.71875 27.296875 
Q 55.71875 13.875 49.015625 6.21875 
Q 42.328125 -1.421875 30.609375 -1.421875 
Q 18.84375 -1.421875 12.171875 6.21875 
Q 5.515625 13.875 5.515625 27.296875 
Q 5.515625 40.765625 12.171875 48.375 
Q 18.84375 56 30.609375 56 
z
" id="DejaVuSans-6f"/>
      <path d="M 8.5 21.578125 
L 8.5 54.6875 
L 17.484375 54.6875 
L 17.484375 21.921875 
Q 17.484375 14.15625 20.5 10.265625 
Q 23.53125 6.390625 29.59375 6.390625 
Q 36.859375 6.390625 41.078125 11.03125 
Q 45.3125 15.671875 45.3125 23.6875 
L 45.3125 54.6875 
L 54.296875 54.6875 
L 54.296875 0 
L 45.3125 0 
L 45.3125 8.40625 
Q 42.046875 3.421875 37.71875 1 
Q 33.40625 -1.421875 27.6875 -1.421875 
Q 18.265625 -1.421875 13.375 4.4375 
Q 8.5 10.296875 8.5 21.578125 
z
M 31.109375 56 
z
" id="DejaVuSans-75"/>
      <path d="M 54.890625 33.015625 
L 54.890625 0 
L 45.90625 0 
L 45.90625 32.71875 
Q 45.90625 40.484375 42.875 44.328125 
Q 39.84375 48.1875 33.796875 48.1875 
Q 26.515625 48.1875 22.3125 43.546875 
Q 18.109375 38.921875 18.109375 30.90625 
L 18.109375 0 
L 9.078125 0 
L 9.078125 54.6875 
L 18.109375 54.6875 
L 18.109375 46.1875 
Q 21.34375 51.125 25.703125 53.5625 
Q 30.078125 56 35.796875 56 
Q 45.21875 56 50.046875 50.171875 
Q 54.890625 44.34375 54.890625 33.015625 
z
" id="DejaVuSans-6e"/>
      <path d="M 18.3125 70.21875 
L 18.3125 54.6875 
L 36.8125 54.6875 
L 36.8125 47.703125 
L 18.3125 47.703125 
L 18.3125 18.015625 
Q 18.3125 11.328125 20.140625 9.421875 
Q 21.96875 7.515625 27.59375 7.515625 
L 36.8125 7.515625 
L 36.8125 0 
L 27.59375 0 
Q 17.1875 0 13.234375 3.875 
Q 9.28125 7.765625 9.28125 18.015625 
L 9.28125 47.703125 
L 2.6875 47.703125 
L 2.6875 54.6875 
L 9.28125 54.6875 
L 9.28125 70.21875 
z
" id="DejaVuSans-74"/>
     </defs>
     <g style="fill:#555555;" transform="translate(219.2325 337.38025)scale(0.12 -0.12)">
      <use xlink:href="#DejaVuSans-63"/>
      <use x="54.980469" xlink:href="#DejaVuSans-6f"/>
      <use x="116.162109" xlink:href="#DejaVuSans-75"/>
      <use x="179.541016" xlink:href="#DejaVuSans-6e"/>
      <use x="242.919922" xlink:href="#DejaVuSans-74"/>
     </g>
    </g>
   </g>
   <g id="matplotlib.axis_2">
    <g id="ytick_1">
     <g id="line2d_13">
      <path clip-path="url(#pc5a352094c)" d="M 57.6 307.584 
L 414.72 307.584 
" style="fill:none;stroke:#ffffff;stroke-linecap:square;stroke-width:0.8;"/>
     </g>
     <g id="line2d_14">
      <defs>
       <path d="M 0 0 
L -3.5 0 
" id="ma8314a3deb" style="stroke:#555555;stroke-width:0.8;"/>
      </defs>
      <g>
       <use style="fill:#555555;stroke:#555555;stroke-width:0.8;" x="57.6" xlink:href="#ma8314a3deb" y="307.584"/>
      </g>
     </g>
     <g id="text_8">
      <!-- 0.0000 -->
      <defs>
       <path d="M 10.6875 12.40625 
L 21 12.40625 
L 21 0 
L 10.6875 0 
z
" id="DejaVuSans-2e"/>
      </defs>
      <g style="fill:#555555;" transform="translate(15.609375 311.383219)scale(0.1 -0.1)">
       <use xlink:href="#DejaVuSans-30"/>
       <use x="63.623047" xlink:href="#DejaVuSans-2e"/>
       <use x="95.410156" xlink:href="#DejaVuSans-30"/>
       <use x="159.033203" xlink:href="#DejaVuSans-30"/>
       <use x="222.65625" xlink:href="#DejaVuSans-30"/>
       <use x="286.279297" xlink:href="#DejaVuSans-30"/>
      </g>
     </g>
    </g>
    <g id="ytick_2">
     <g id="line2d_15">
      <path clip-path="url(#pc5a352094c)" d="M 57.6 269.771231 
L 414.72 269.771231 
" style="fill:none;stroke:#ffffff;stroke-linecap:square;stroke-width:0.8;"/>
     </g>
     <g id="line2d_16">
      <g>
       <use style="fill:#555555;stroke:#555555;stroke-width:0.8;" x="57.6" xlink:href="#ma8314a3deb" y="269.771231"/>
      </g>
     </g>
     <g id="text_9">
      <!-- 0.0002 -->
      <g style="fill:#555555;" transform="translate(15.609375 273.57045)scale(0.1 -0.1)">
       <use xlink:href="#DejaVuSans-30"/>
       <use x="63.623047" xlink:href="#DejaVuSans-2e"/>
       <use x="95.410156" xlink:href="#DejaVuSans-30"/>
       <use x="159.033203" xlink:href="#DejaVuSans-30"/>
       <use x="222.65625" xlink:href="#DejaVuSans-30"/>
       <use x="286.279297" xlink:href="#DejaVuSans-32"/>
      </g>
     </g>
    </g>
    <g id="ytick_3">
     <g id="line2d_17">
      <path clip-path="url(#pc5a352094c)" d="M 57.6 231.958463 
L 414.72 231.958463 
" style="fill:none;stroke:#ffffff;stroke-linecap:square;stroke-width:0.8;"/>
     </g>
     <g id="line2d_18">
      <g>
       <use style="fill:#555555;stroke:#555555;stroke-width:0.8;" x="57.6" xlink:href="#ma8314a3deb" y="231.958463"/>
      </g>
     </g>
     <g id="text_10">
      <!-- 0.0004 -->
      <g style="fill:#555555;" transform="translate(15.609375 235.757682)scale(0.1 -0.1)">
       <use xlink:href="#DejaVuSans-30"/>
       <use x="63.623047" xlink:href="#DejaVuSans-2e"/>
       <use x="95.410156" xlink:href="#DejaVuSans-30"/>
       <use x="159.033203" xlink:href="#DejaVuSans-30"/>
       <use x="222.65625" xlink:href="#DejaVuSans-30"/>
       <use x="286.279297" xlink:href="#DejaVuSans-34"/>
      </g>
     </g>
    </g>
    <g id="ytick_4">
     <g id="line2d_19">
      <path clip-path="url(#pc5a352094c)" d="M 57.6 194.145694 
L 414.72 194.145694 
" style="fill:none;stroke:#ffffff;stroke-linecap:square;stroke-width:0.8;"/>
     </g>
     <g id="line2d_20">
      <g>
       <use style="fill:#555555;stroke:#555555;stroke-width:0.8;" x="57.6" xlink:href="#ma8314a3deb" y="194.145694"/>
      </g>
     </g>
     <g id="text_11">
      <!-- 0.0006 -->
      <g style="fill:#555555;" transform="translate(15.609375 197.944913)scale(0.1 -0.1)">
       <use xlink:href="#DejaVuSans-30"/>
       <use x="63.623047" xlink:href="#DejaVuSans-2e"/>
       <use x="95.410156" xlink:href="#DejaVuSans-30"/>
       <use x="159.033203" xlink:href="#DejaVuSans-30"/>
       <use x="222.65625" xlink:href="#DejaVuSans-30"/>
       <use x="286.279297" xlink:href="#DejaVuSans-36"/>
      </g>
     </g>
    </g>
    <g id="ytick_5">
     <g id="line2d_21">
      <path clip-path="url(#pc5a352094c)" d="M 57.6 156.332926 
L 414.72 156.332926 
" style="fill:none;stroke:#ffffff;stroke-linecap:square;stroke-width:0.8;"/>
     </g>
     <g id="line2d_22">
      <g>
       <use style="fill:#555555;stroke:#555555;stroke-width:0.8;" x="57.6" xlink:href="#ma8314a3deb" y="156.332926"/>
      </g>
     </g>
     <g id="text_12">
      <!-- 0.0008 -->
      <g style="fill:#555555;" transform="translate(15.609375 160.132144)scale(0.1 -0.1)">
       <use xlink:href="#DejaVuSans-30"/>
       <use x="63.623047" xlink:href="#DejaVuSans-2e"/>
       <use x="95.410156" xlink:href="#DejaVuSans-30"/>
       <use x="159.033203" xlink:href="#DejaVuSans-30"/>
       <use x="222.65625" xlink:href="#DejaVuSans-30"/>
       <use x="286.279297" xlink:href="#DejaVuSans-38"/>
      </g>
     </g>
    </g>
    <g id="ytick_6">
     <g id="line2d_23">
      <path clip-path="url(#pc5a352094c)" d="M 57.6 118.520157 
L 414.72 118.520157 
" style="fill:none;stroke:#ffffff;stroke-linecap:square;stroke-width:0.8;"/>
     </g>
     <g id="line2d_24">
      <g>
       <use style="fill:#555555;stroke:#555555;stroke-width:0.8;" x="57.6" xlink:href="#ma8314a3deb" y="118.520157"/>
      </g>
     </g>
     <g id="text_13">
      <!-- 0.0010 -->
      <g style="fill:#555555;" transform="translate(15.609375 122.319376)scale(0.1 -0.1)">
       <use xlink:href="#DejaVuSans-30"/>
       <use x="63.623047" xlink:href="#DejaVuSans-2e"/>
       <use x="95.410156" xlink:href="#DejaVuSans-30"/>
       <use x="159.033203" xlink:href="#DejaVuSans-30"/>
       <use x="222.65625" xlink:href="#DejaVuSans-31"/>
       <use x="286.279297" xlink:href="#DejaVuSans-30"/>
      </g>
     </g>
    </g>
    <g id="ytick_7">
     <g id="line2d_25">
      <path clip-path="url(#pc5a352094c)" d="M 57.6 80.707389 
L 414.72 80.707389 
" style="fill:none;stroke:#ffffff;stroke-linecap:square;stroke-width:0.8;"/>
     </g>
     <g id="line2d_26">
      <g>
       <use style="fill:#555555;stroke:#555555;stroke-width:0.8;" x="57.6" xlink:href="#ma8314a3deb" y="80.707389"/>
      </g>
     </g>
     <g id="text_14">
      <!-- 0.0012 -->
      <g style="fill:#555555;" transform="translate(15.609375 84.506607)scale(0.1 -0.1)">
       <use xlink:href="#DejaVuSans-30"/>
       <use x="63.623047" xlink:href="#DejaVuSans-2e"/>
       <use x="95.410156" xlink:href="#DejaVuSans-30"/>
       <use x="159.033203" xlink:href="#DejaVuSans-30"/>
       <use x="222.65625" xlink:href="#DejaVuSans-31"/>
       <use x="286.279297" xlink:href="#DejaVuSans-32"/>
      </g>
     </g>
    </g>
    <g id="ytick_8">
     <g id="line2d_27">
      <path clip-path="url(#pc5a352094c)" d="M 57.6 42.89462 
L 414.72 42.89462 
" style="fill:none;stroke:#ffffff;stroke-linecap:square;stroke-width:0.8;"/>
     </g>
     <g id="line2d_28">
      <g>
       <use style="fill:#555555;stroke:#555555;stroke-width:0.8;" x="57.6" xlink:href="#ma8314a3deb" y="42.89462"/>
      </g>
     </g>
     <g id="text_15">
      <!-- 0.0014 -->
      <g style="fill:#555555;" transform="translate(15.609375 46.693839)scale(0.1 -0.1)">
       <use xlink:href="#DejaVuSans-30"/>
       <use x="63.623047" xlink:href="#DejaVuSans-2e"/>
       <use x="95.410156" xlink:href="#DejaVuSans-30"/>
       <use x="159.033203" xlink:href="#DejaVuSans-30"/>
       <use x="222.65625" xlink:href="#DejaVuSans-31"/>
       <use x="286.279297" xlink:href="#DejaVuSans-34"/>
      </g>
     </g>
    </g>
    <g id="text_16">
     <!-- f(count) -->
     <defs>
      <path d="M 37.109375 75.984375 
L 37.109375 68.5 
L 28.515625 68.5 
Q 23.6875 68.5 21.796875 66.546875 
Q 19.921875 64.59375 19.921875 59.515625 
L 19.921875 54.6875 
L 34.71875 54.6875 
L 34.71875 47.703125 
L 19.921875 47.703125 
L 19.921875 0 
L 10.890625 0 
L 10.890625 47.703125 
L 2.296875 47.703125 
L 2.296875 54.6875 
L 10.890625 54.6875 
L 10.890625 58.5 
Q 10.890625 67.625 15.140625 71.796875 
Q 19.390625 75.984375 28.609375 75.984375 
z
" id="DejaVuSans-66"/>
      <path d="M 31 75.875 
Q 24.46875 64.65625 21.28125 53.65625 
Q 18.109375 42.671875 18.109375 31.390625 
Q 18.109375 20.125 21.3125 9.0625 
Q 24.515625 -2 31 -13.1875 
L 23.1875 -13.1875 
Q 15.875 -1.703125 12.234375 9.375 
Q 8.59375 20.453125 8.59375 31.390625 
Q 8.59375 42.28125 12.203125 53.3125 
Q 15.828125 64.359375 23.1875 75.875 
z
" id="DejaVuSans-28"/>
      <path d="M 8.015625 75.875 
L 15.828125 75.875 
Q 23.140625 64.359375 26.78125 53.3125 
Q 30.421875 42.28125 30.421875 31.390625 
Q 30.421875 20.453125 26.78125 9.375 
Q 23.140625 -1.703125 15.828125 -13.1875 
L 8.015625 -13.1875 
Q 14.5 -2 17.703125 9.0625 
Q 20.90625 20.125 20.90625 31.390625 
Q 20.90625 42.671875 17.703125 53.65625 
Q 14.5 64.65625 8.015625 75.875 
z
" id="DejaVuSans-29"/>
     </defs>
     <g style="fill:#555555;" transform="translate(9.11375 198.249562)rotate(-90)scale(0.12 -0.12)">
      <use xlink:href="#DejaVuSans-66"/>
      <use x="35.205078" xlink:href="#DejaVuSans-28"/>
      <use x="74.21875" xlink:href="#DejaVuSans-63"/>
      <use x="129.199219" xlink:href="#DejaVuSans-6f"/>
      <use x="190.380859" xlink:href="#DejaVuSans-75"/>
      <use x="253.759766" xlink:href="#DejaVuSans-6e"/>
      <use x="317.138672" xlink:href="#DejaVuSans-74"/>
      <use x="356.347656" xlink:href="#DejaVuSans-29"/>
     </g>
    </g>
   </g>
   <g id="line2d_29">
    <path clip-path="url(#pc5a352094c)" d="M 90.017482 307.488438 
L 92.643845 307.408525 
L 95.270208 307.274539 
L 97.896571 307.059711 
L 100.522934 306.730416 
L 103.149297 306.247994 
L 105.77566 305.572685 
L 108.402023 304.669634 
L 111.028386 303.516224 
L 113.654749 302.109219 
L 116.281112 300.469713 
L 118.907476 298.643966 
L 121.533839 296.699031 
L 124.160202 294.713512 
L 126.786565 292.76535 
L 129.412928 290.91963 
L 132.039291 289.219478 
L 134.665654 287.682148 
L 137.292017 286.30068 
L 139.91838 285.049832 
L 142.544743 283.894093 
L 145.171106 282.795655 
L 147.79747 281.721206 
L 150.423833 280.647471 
L 153.050196 279.565936 
L 155.676559 278.486821 
L 158.302922 277.4414 
L 160.929285 276.480825 
L 163.555648 275.669683 
L 166.182011 275.073794 
L 168.808374 274.744 
L 171.434737 274.699978 
L 174.0611 274.919228 
L 176.687464 275.335555 
L 179.313827 275.848699 
L 181.94019 276.343042 
L 184.566553 276.710068 
L 187.192916 276.867776 
L 189.819279 276.771171 
L 192.445642 276.411022 
L 195.072005 275.802081 
L 197.698368 274.965384 
L 200.324731 273.910985 
L 202.951094 272.626913 
L 205.577458 271.077862 
L 208.203821 269.214017 
L 210.830184 266.987656 
L 213.456547 264.373527 
L 216.08291 261.388623 
L 218.709273 258.107498 
L 221.335636 254.670221 
L 223.961999 251.280925 
L 226.588362 248.195841 
L 229.214725 245.700814 
L 231.841088 244.079936 
L 234.467451 243.578935 
L 237.093815 244.368915 
L 239.720178 246.517122 
L 242.346541 249.970963 
L 244.972904 254.559346 
L 247.599267 260.011942 
L 250.22563 265.993129 
L 252.851993 272.144228 
L 255.478356 278.126163 
L 258.104719 283.655053 
L 260.731082 288.525418 
L 263.357445 292.618767 
L 265.983809 295.8986 
L 268.610172 298.395283 
L 271.236535 300.185587 
L 273.862898 301.371582 
L 276.489261 302.062587 
L 279.115624 302.362255 
L 281.741987 302.361364 
L 284.36835 302.135673 
L 286.994713 301.747558 
L 289.621076 301.249936 
L 292.247439 300.691029 
L 294.873803 300.118662 
L 297.500166 299.582947 
L 300.126529 299.13647 
L 302.752892 298.831531 
L 305.379255 298.714708 
L 308.005618 298.819854 
L 310.631981 299.161351 
L 313.258344 299.729684 
L 315.884707 300.490982 
L 318.51107 301.391153 
L 321.137433 302.363898 
L 323.763797 303.340788 
L 326.39016 304.261035 
L 329.016523 305.078834 
L 331.642886 305.766998 
L 334.269249 306.316749 
L 336.895612 306.734465 
L 339.521975 307.036772 
L 342.148338 307.245382 
L 344.774701 307.382761 
L 347.401064 307.469157 
L 350.027427 307.521075 
" style="fill:none;stroke:#e24a33;stroke-linecap:square;stroke-width:0.3;"/>
   </g>
   <g id="line2d_30">
    <path clip-path="url(#pc5a352094c)" d="M 98.709536 307.514549 
L 100.58702 307.442768 
L 102.464504 307.309811 
L 104.341988 307.07546 
L 106.219472 306.682214 
L 108.096956 306.053662 
L 109.974441 305.096072 
L 111.851925 303.70441 
L 113.729409 301.773199 
L 115.606893 299.211164 
L 117.484377 295.957139 
L 119.361861 291.993671 
L 121.239345 287.35475 
L 123.11683 282.125359 
L 124.994314 276.432661 
L 126.871798 270.430877 
L 128.749282 264.283431 
L 130.626766 258.146119 
L 132.50425 252.154042 
L 134.381735 246.413413 
L 136.259219 240.99801 
L 138.136703 235.94963 
L 140.014187 231.282423 
L 141.891671 226.991778 
L 143.769155 223.06855 
L 145.646639 219.518156 
L 147.524124 216.38164 
L 149.401608 213.753203 
L 151.279092 211.787374 
L 153.156576 210.690117 
L 155.03406 210.691691 
L 156.911544 212.004236 
L 158.789028 214.772037 
L 160.666513 219.025648 
L 162.543997 224.65141 
L 164.421481 231.385091 
L 166.298965 238.832957 
L 168.176449 246.517166 
L 170.053933 253.936571 
L 171.931418 260.630856 
L 173.808902 266.236111 
L 175.686386 270.523248 
L 177.56387 273.415433 
L 179.441354 274.984996 
L 181.318838 275.432889 
L 183.196322 275.05455 
L 185.073807 274.196301 
L 186.951291 273.207156 
L 188.828775 272.392529 
L 190.706259 271.977622 
L 192.583743 272.087646 
L 194.461227 272.748529 
L 196.338711 273.906073 
L 198.216196 275.456063 
L 200.09368 277.275181 
L 201.971164 279.244142 
L 203.848648 281.259412 
L 205.726132 283.235577 
L 207.603616 285.103969 
L 209.481101 286.812957 
L 211.358585 288.331928 
L 213.236069 289.656728 
L 215.113553 290.811728 
L 216.991037 291.844299 
L 218.868521 292.810898 
L 220.746005 293.758306 
L 222.62349 294.706509 
L 224.500974 295.639737 
L 226.378458 296.509204 
L 228.255942 297.246592 
L 230.133426 297.783299 
L 232.01091 298.06871 
L 233.888394 298.08177 
L 235.765879 297.833422 
L 237.643363 297.361276 
L 239.520847 296.720671 
L 241.398331 295.976788 
L 243.275815 295.200644 
L 245.153299 294.468727 
L 247.030784 293.863277 
L 248.908268 293.469407 
L 250.785752 293.366696 
L 252.663236 293.616022 
L 254.54072 294.245403 
L 256.418204 295.240029 
L 258.295688 296.540713 
L 260.173173 298.05212 
L 262.050657 299.658808 
L 263.928141 301.244648 
L 265.805625 302.710526 
L 267.683109 303.986374 
L 269.560593 305.035721 
L 271.438077 305.85327 
L 273.315562 306.457642 
L 275.193046 306.882041 
L 277.07053 307.165335 
L 278.948014 307.345175 
L 280.825498 307.453774 
L 282.702982 307.516161 
L 284.580467 307.550256 
" style="fill:none;stroke:#348abd;stroke-linecap:square;stroke-width:0.3;"/>
   </g>
   <g id="line2d_31">
    <path clip-path="url(#pc5a352094c)" d="M 87.325081 307.513167 
L 90.368004 307.446044 
L 93.410927 307.325635 
L 96.453849 307.118414 
L 99.496772 306.776089 
L 102.539695 306.232864 
L 105.582617 305.404124 
L 108.62554 304.187465 
L 111.668462 302.466824 
L 114.711385 300.120091 
L 117.754308 297.030111 
L 120.79723 293.09858 
L 123.840153 288.262049 
L 126.883075 282.509086 
L 129.925998 275.897243 
L 132.968921 268.567719 
L 136.011843 260.754436 
L 139.054766 252.783153 
L 142.097689 245.056187 
L 145.140611 238.020176 
L 148.183534 232.11835 
L 151.226456 227.734116 
L 154.269379 225.137378 
L 157.312302 224.446661 
L 160.355224 225.617311 
L 163.398147 228.45923 
L 166.441069 232.678978 
L 169.483992 237.934016 
L 172.526915 243.884067 
L 175.569837 250.227148 
L 178.61276 256.714335 
L 181.655683 263.14517 
L 184.698605 269.351553 
L 187.741528 275.180175 
L 190.78445 280.48183 
L 193.827373 285.111649 
L 196.870296 288.939545 
L 199.913218 291.866668 
L 202.956141 293.842308 
L 205.999063 294.876294 
L 209.041986 295.043695 
L 212.084909 294.480681 
L 215.127831 293.372163 
L 218.170754 291.933081 
L 221.213677 290.386068 
L 224.256599 288.938688 
L 227.299522 287.763505 
L 230.342444 286.983825 
L 233.385367 286.66696 
L 236.42829 286.825478 
L 239.471212 287.425469 
L 242.514135 288.399566 
L 245.557057 289.661873 
L 248.59998 291.121881 
L 251.642903 292.695164 
L 254.685825 294.309672 
L 257.728748 295.907716 
L 260.77167 297.444738 
L 263.814593 298.886557 
L 266.857516 300.20671 
L 269.900438 301.384923 
L 272.943361 302.406928 
L 275.986284 303.265042 
L 279.029206 303.958648 
L 282.072129 304.493827 
L 285.115051 304.881943 
L 288.157974 305.137543 
L 291.200897 305.27628 
L 294.243819 305.313538 
L 297.286742 305.264037 
L 300.329664 305.14218 
L 303.372587 304.962591 
L 306.41551 304.740198 
L 309.458432 304.489613 
L 312.501355 304.224012 
L 315.544278 303.954158 
L 318.5872 303.688301 
L 321.630123 303.433359 
L 324.673045 303.197171 
L 327.715968 302.99096 
L 330.758891 302.830815 
L 333.801813 302.737168 
L 336.844736 302.731885 
L 339.887658 302.833542 
L 342.930581 303.052221 
L 345.973504 303.385517 
L 349.016426 303.81715 
L 352.059349 304.318763 
L 355.102272 304.854464 
L 358.145194 305.38686 
L 361.188117 305.882947 
L 364.231039 306.318462 
L 367.273962 306.679887 
L 370.316885 306.964105 
L 373.359807 307.17627 
L 376.40273 307.326822 
L 379.445652 307.428483 
L 382.488575 307.493861 
L 385.531498 307.533933 
L 388.57442 307.557354 
" style="fill:none;stroke:#988ed5;stroke-linecap:square;stroke-width:0.3;"/>
   </g>
   <g id="line2d_32">
    <path clip-path="url(#pc5a352094c)" d="M 90.859478 307.517421 
L 92.605755 307.432814 
L 94.352032 307.258542 
L 96.098309 306.91912 
L 97.844586 306.293502 
L 99.590863 305.201295 
L 101.33714 303.393738 
L 103.083417 300.555801 
L 104.829694 296.326218 
L 106.575971 290.340429 
L 108.322248 282.29695 
L 110.068525 272.040709 
L 111.814802 259.648858 
L 113.561079 245.497613 
L 115.307357 230.285806 
L 117.053634 214.994858 
L 118.799911 200.777185 
L 120.546188 188.784251 
L 122.292465 179.966501 
L 124.038742 174.892686 
L 125.785019 173.638229 
L 127.531296 175.778001 
L 129.277573 180.490916 
L 131.02385 186.750874 
L 132.770127 193.552328 
L 134.516404 200.108451 
L 136.262681 205.969816 
L 138.008958 211.038369 
L 139.755235 215.486159 
L 141.501512 219.618382 
L 143.247789 223.734556 
L 144.994066 228.03472 
L 146.740343 232.592795 
L 148.48662 237.388221 
L 150.232897 242.364148 
L 151.979174 247.475804 
L 153.725451 252.706158 
L 155.471728 258.048391 
L 157.218005 263.472785 
L 158.964282 268.900965 
L 160.710559 274.202462 
L 162.456836 279.214418 
L 164.203113 283.773647 
L 165.94939 287.746735 
L 167.695667 291.048269 
L 169.441944 293.645284 
L 171.188221 295.552543 
L 172.934498 296.825158 
L 174.680775 297.552585 
L 176.427052 297.853746 
L 178.173329 297.870088 
L 179.919607 297.753446 
L 181.665884 297.648299 
L 183.412161 297.671551 
L 185.158438 297.895204 
L 186.904715 298.337131 
L 188.650992 298.962763 
L 190.397269 299.697012 
L 192.143546 300.442594 
L 193.889823 301.099378 
L 195.6361 301.579821 
L 197.382377 301.817848 
L 199.128654 301.771504 
L 200.874931 301.422086 
L 202.621208 300.77308 
L 204.367485 299.85091 
L 206.113762 298.706956 
L 207.860039 297.418003 
L 209.606316 296.081782 
L 211.352593 294.806007 
L 213.09887 293.692551 
L 214.845147 292.82126 
L 216.591424 292.238538 
L 218.337701 291.953798 
L 220.083978 291.943438 
L 221.830255 292.159296 
L 223.576532 292.538177 
L 225.322809 293.010829 
L 227.069086 293.51093 
L 228.815363 293.985312 
L 230.56164 294.405159 
L 232.307917 294.775268 
L 234.054194 295.136767 
L 235.800471 295.559459 
L 237.546748 296.123498 
L 239.293025 296.894771 
L 241.039302 297.901969 
L 242.785579 299.123666 
L 244.531856 300.490444 
L 246.278134 301.901362 
L 248.024411 303.248695 
L 249.770688 304.44219 
L 251.516965 305.4253 
L 253.263242 306.179863 
L 255.009519 306.72037 
L 256.755796 307.082177 
L 258.502073 307.308727 
L 260.24835 307.441533 
L 261.994627 307.514466 
L 263.740904 307.552008 
" style="fill:none;stroke:#777777;stroke-linecap:square;stroke-width:0.3;"/>
   </g>
   <g id="line2d_33">
    <path clip-path="url(#pc5a352094c)" d="M 100.012947 307.502538 
L 101.311238 307.394281 
L 102.609529 307.172296 
L 103.907821 306.750244 
L 105.206112 306.005088 
L 106.504404 304.780265 
L 107.802695 302.898385 
L 109.100987 300.179172 
L 110.399278 296.452211 
L 111.69757 291.553687 
L 112.995861 285.306714 
L 114.294153 277.504227 
L 115.592444 267.929633 
L 116.890736 256.4466 
L 118.189027 243.156375 
L 119.487318 228.569226 
L 120.78561 213.696078 
L 122.083901 199.970753 
L 123.382193 188.975153 
L 124.680484 182.036068 
L 125.978776 179.840489 
L 127.277067 182.226302 
L 128.575359 188.233977 
L 129.87365 196.390609 
L 131.171942 205.105716 
L 132.470233 213.035723 
L 133.768524 219.318046 
L 135.066816 223.643096 
L 136.365107 226.180334 
L 137.663399 227.393764 
L 138.96169 227.793127 
L 140.259982 227.687082 
L 141.558273 227.023849 
L 142.856565 225.394769 
L 144.154856 222.221467 
L 145.453148 217.065954 
L 146.751439 209.937919 
L 148.04973 201.462897 
L 149.348022 192.827863 
L 150.646313 185.513164 
L 151.944605 180.908484 
L 153.242896 179.955464 
L 154.541188 182.94142 
L 155.839479 189.498592 
L 157.137771 198.778096 
L 158.436062 209.709075 
L 159.734354 221.244364 
L 161.032645 232.527468 
L 162.330937 242.963944 
L 163.629228 252.216604 
L 164.927519 260.157559 
L 166.225811 266.806712 
L 167.524102 272.276352 
L 168.822394 276.731428 
L 170.120685 280.365832 
L 171.418977 283.387298 
L 172.717268 286.000108 
L 174.01556 288.378441 
L 175.313851 290.632635 
L 176.612143 292.780153 
L 177.910434 294.736331 
L 179.208725 296.334823 
L 180.507017 297.376702 
L 181.805308 297.695711 
L 183.1036 297.219945 
L 184.401891 296.010052 
L 185.700183 294.261252 
L 186.998474 292.268866 
L 188.296766 290.369402 
L 189.595057 288.875861 
L 190.893349 288.02404 
L 192.19164 287.93903 
L 193.489931 288.623695 
L 194.788223 289.96753 
L 196.086514 291.773763 
L 197.384806 293.800777 
L 198.683097 295.809662 
L 199.981389 297.606088 
L 201.27968 299.066027 
L 202.577972 300.141684 
L 203.876263 300.851782 
L 205.174555 301.264154 
L 206.472846 301.476885 
L 207.771137 301.600255 
L 209.069429 301.739281 
L 210.36772 301.977275 
L 211.666012 302.362877 
L 212.964303 302.903986 
L 214.262595 303.570665 
L 215.560886 304.306317 
L 216.859178 305.043739 
L 218.157469 305.721343 
L 219.455761 306.295232 
L 220.754052 306.74463 
L 222.052344 307.070536 
L 223.350635 307.289576 
L 224.648926 307.426033 
L 225.947218 307.504822 
L 227.245509 307.546975 
L 228.543801 307.567866 
" style="fill:none;stroke:#fbc15e;stroke-linecap:square;stroke-width:0.3;"/>
   </g>
   <g id="line2d_34">
    <path clip-path="url(#pc5a352094c)" d="M 92.906539 307.436111 
L 94.884138 307.24451 
L 96.861737 306.850724 
L 98.839336 306.092701 
L 100.816935 304.725795 
L 102.794534 302.416242 
L 104.772133 298.758734 
L 106.749732 293.327721 
L 108.727331 285.762655 
L 110.70493 275.872813 
L 112.682529 263.733727 
L 114.660128 249.742289 
L 116.637728 234.606228 
L 118.615327 219.263652 
L 120.592926 204.750769 
L 122.570525 192.050634 
L 124.548124 181.957574 
L 126.525723 174.982969 
L 128.503322 171.314921 
L 130.480921 170.832454 
L 132.45852 173.166106 
L 134.436119 177.790302 
L 136.413718 184.128142 
L 138.391317 191.64706 
L 140.368916 199.925664 
L 142.346515 208.678706 
L 144.324114 217.737815 
L 146.301713 226.998291 
L 148.279312 236.353051 
L 150.256911 245.639541 
L 152.23451 254.62063 
L 154.212109 263.007021 
L 156.189708 270.511594 
L 158.167307 276.913035 
L 160.144906 282.103025 
L 162.122505 286.099094 
L 164.100104 289.019715 
L 166.077703 291.032971 
L 168.055302 292.299497 
L 170.032901 292.931822 
L 172.0105 292.985797 
L 173.988099 292.487564 
L 175.965698 291.485074 
L 177.943297 290.101352 
L 179.920896 288.562809 
L 181.898495 287.183433 
L 183.876094 286.303389 
L 185.853693 286.201487 
L 187.831293 287.014973 
L 189.808892 288.699114 
L 191.786491 291.042774 
L 193.76409 293.732485 
L 195.741689 296.43857 
L 197.719288 298.891419 
L 199.696887 300.924984 
L 201.674486 302.481279 
L 203.652085 303.584867 
L 205.629684 304.303832 
L 207.607283 304.712831 
L 209.584882 304.867886 
L 211.562481 304.796239 
L 213.54008 304.500289 
L 215.517679 303.972548 
L 217.495278 303.217226 
L 219.472877 302.272284 
L 221.450476 301.224063 
L 223.428075 300.206624 
L 225.405674 299.381713 
L 227.383273 298.902512 
L 229.360872 298.87223 
L 231.338471 299.312722 
L 233.31607 300.155637 
L 235.293669 301.259617 
L 237.271268 302.446401 
L 239.248867 303.541651 
L 241.226466 304.406415 
L 243.204065 304.951526 
L 245.181664 305.135942 
L 247.159263 304.956454 
L 249.136862 304.437802 
L 251.114461 303.629047 
L 253.09206 302.606432 
L 255.069659 301.477765 
L 257.047259 300.380951 
L 259.024858 299.470893 
L 261.002457 298.894083 
L 262.980056 298.756731 
L 264.957655 299.097184 
L 266.935254 299.873696 
L 268.912853 300.973637 
L 270.890452 302.241872 
L 272.868051 303.518452 
L 274.84565 304.672738 
L 276.823249 305.623824 
L 278.800848 306.34378 
L 280.778447 306.846997 
L 282.756046 307.172834 
L 284.733645 307.368731 
L 286.711244 307.478264 
L 288.688843 307.535289 
" style="fill:none;stroke:#8eba42;stroke-linecap:square;stroke-width:0.3;"/>
   </g>
   <g id="line2d_35">
    <path clip-path="url(#pc5a352094c)" d="M 101.281156 307.35814 
L 102.398869 306.971253 
L 103.516583 306.079532 
L 104.634297 304.233188 
L 105.752011 300.791489 
L 106.869724 294.99235 
L 107.987438 286.098446 
L 109.105152 273.548271 
L 110.222866 257.012736 
L 111.34058 236.341164 
L 112.458293 211.538111 
L 113.576007 182.970539 
L 114.693721 151.814641 
L 115.811435 120.418014 
L 116.929149 92.119877 
L 118.046862 70.373449 
L 119.164576 57.555369 
L 120.28229 54.144 
L 121.400004 58.727282 
L 122.517718 68.770686 
L 123.635431 81.674963 
L 124.753145 95.608798 
L 125.870859 109.813466 
L 126.988573 124.347922 
L 128.106286 139.474227 
L 129.224 155.037351 
L 130.341714 170.202198 
L 131.459428 183.718578 
L 132.577142 194.561287 
L 133.694855 202.534015 
L 134.812569 208.422253 
L 135.930283 213.563082 
L 137.047997 219.095523 
L 138.165711 225.385417 
L 139.283424 231.998329 
L 140.401138 238.194892 
L 141.518852 243.548163 
L 142.636566 248.227713 
L 143.75428 252.791912 
L 144.871993 257.716192 
L 145.989707 263.045063 
L 147.107421 268.396486 
L 148.225135 273.250455 
L 149.342849 277.273791 
L 150.460562 280.471353 
L 151.578276 283.118093 
L 152.69599 285.566145 
L 153.813704 288.060857 
L 154.931417 290.656129 
L 156.049131 293.244156 
L 157.166845 295.651617 
L 158.284559 297.731955 
L 159.402273 299.408354 
L 160.519986 300.669659 
L 161.6377 301.550983 
L 162.755414 302.122689 
L 163.873128 302.485015 
L 164.990842 302.753342 
L 166.108555 303.030581 
L 167.226269 303.380108 
L 168.343983 303.815088 
L 169.461697 304.306632 
L 170.579411 304.798914 
L 171.697124 305.217486 
L 172.814838 305.468605 
L 173.932552 305.442307 
L 175.050266 305.037224 
L 176.16798 304.213148 
L 177.285693 303.051499 
L 178.403407 301.780983 
L 179.521121 300.729138 
L 180.638835 300.200953 
L 181.756548 300.341743 
L 182.874262 301.066974 
L 183.991976 302.106507 
L 185.10969 303.136311 
L 186.227404 303.915913 
L 187.345117 304.356922 
L 188.462831 304.503926 
L 189.580545 304.464503 
L 190.698259 304.34185 
L 191.815973 304.202255 
L 192.933686 304.077349 
L 194.0514 303.982499 
L 195.169114 303.933062 
L 196.286828 303.950416 
L 197.404542 304.058613 
L 198.522255 304.2761 
L 199.639969 304.606894 
L 200.757683 305.034786 
L 201.875397 305.523329 
L 202.993111 306.022875 
L 204.110824 306.482956 
L 205.228538 306.865312 
L 206.346252 307.152072 
L 207.463966 307.346033 
L 208.581679 307.464252 
L 209.699393 307.529129 
L 210.817107 307.561161 
L 211.934821 307.575383 
" style="fill:none;stroke:#ffb5b8;stroke-linecap:square;stroke-width:0.3;"/>
   </g>
   <g id="line2d_36">
    <path clip-path="url(#pc5a352094c)" d="M 97.2854 307.344848 
L 98.70426 307.022781 
L 100.12312 306.350358 
L 101.54198 305.042388 
L 102.96084 302.672471 
L 104.3797 298.673438 
L 105.798559 292.390617 
L 107.217419 283.203103 
L 108.636279 270.703059 
L 110.055139 254.888398 
L 111.473999 236.297082 
L 112.892859 216.011984 
L 114.311718 195.503506 
L 115.730578 176.341177 
L 117.149438 159.865483 
L 118.568298 146.935172 
L 119.987158 137.838458 
L 121.406018 132.38984 
L 122.824878 130.157662 
L 124.243737 130.715149 
L 125.662597 133.802875 
L 127.081457 139.336572 
L 128.500317 147.270886 
L 129.919177 157.400472 
L 131.338037 169.208924 
L 132.756897 181.849133 
L 134.175756 194.273011 
L 135.594616 205.460894 
L 137.013476 214.663967 
L 138.432336 221.576483 
L 139.851196 226.386778 
L 141.270056 229.698197 
L 142.688916 232.349483 
L 144.107775 235.191329 
L 145.526635 238.885508 
L 146.945495 243.7808 
L 148.364355 249.888553 
L 149.783215 256.943594 
L 151.202075 264.51119 
L 152.620934 272.097965 
L 154.039794 279.240116 
L 155.458654 285.561943 
L 156.877514 290.809434 
L 158.296374 294.864626 
L 159.715234 297.742383 
L 161.134094 299.569246 
L 162.552953 300.546643 
L 163.971813 300.905616 
L 165.390673 300.863437 
L 166.809533 300.592058 
L 168.228393 300.204709 
L 169.647253 299.761797 
L 171.066113 299.291956 
L 172.484972 298.819695 
L 173.903832 298.388818 
L 175.322692 298.071912 
L 176.741552 297.961252 
L 178.160412 298.144032 
L 179.579272 298.671896 
L 180.998132 299.537781 
L 182.416991 300.670207 
L 183.835851 301.947551 
L 185.254711 303.225975 
L 186.673571 304.369095 
L 188.092431 305.267749 
L 189.511291 305.843994 
L 190.93015 306.041753 
L 192.34901 305.813312 
L 193.76787 305.113167 
L 195.18673 303.907376 
L 196.60559 302.198587 
L 198.02445 300.057209 
L 199.44331 297.642189 
L 200.862169 295.195232 
L 202.281029 293.00201 
L 203.699889 291.329582 
L 205.118749 290.36281 
L 206.537609 290.165128 
L 207.956469 290.678044 
L 209.375329 291.755146 
L 210.794188 293.211695 
L 212.213048 294.868363 
L 213.631908 296.576884 
L 215.050768 298.228118 
L 216.469628 299.750384 
L 217.888488 301.10517 
L 219.307348 302.282258 
L 220.726207 303.292762 
L 222.145067 304.159189 
L 223.563927 304.904645 
L 224.982787 305.545075 
L 226.401647 306.087293 
L 227.820507 306.532379 
L 229.239366 306.881404 
L 230.658226 307.139979 
L 232.077086 307.319618 
L 233.495946 307.436117 
L 234.914806 307.506459 
L 236.333666 307.545945 
L 237.752526 307.566539 
" style="fill:none;stroke:#e24a33;stroke-linecap:square;stroke-width:0.3;"/>
   </g>
   <g id="line2d_37">
    <path clip-path="url(#pc5a352094c)" d="M 88.561752 307.439298 
L 90.52322 307.270598 
L 92.484687 306.939049 
L 94.446154 306.322215 
L 96.407621 305.235842 
L 98.369088 303.424712 
L 100.330555 300.567147 
L 102.292022 296.301795 
L 104.253489 290.282404 
L 106.214956 282.258938 
L 108.176423 272.172493 
L 110.13789 260.240258 
L 112.099357 247.000425 
L 114.060824 233.290347 
L 116.022291 220.146459 
L 117.983758 208.638488 
L 119.945225 199.675127 
L 121.906692 193.833059 
L 123.868159 191.2582 
L 125.829626 191.666663 
L 127.791093 194.441031 
L 129.75256 198.788427 
L 131.714027 203.912114 
L 133.675494 209.152382 
L 135.636961 214.07057 
L 137.598428 218.471778 
L 139.559895 222.37785 
L 141.521362 225.968474 
L 143.482829 229.507132 
L 145.444296 233.265241 
L 147.405763 237.455597 
L 149.36723 242.185212 
L 151.328697 247.435283 
L 153.290165 253.070639 
L 155.251632 258.8734 
L 157.213099 264.589249 
L 159.174566 269.972812 
L 161.136033 274.822074 
L 163.0975 278.998163 
L 165.058967 282.432644 
L 167.020434 285.126857 
L 168.981901 287.1467 
L 170.943368 288.61348 
L 172.904835 289.689523 
L 174.866302 290.557587 
L 176.827769 291.395336 
L 178.789236 292.348891 
L 180.750703 293.510977 
L 182.71217 294.908829 
L 184.673637 296.504655 
L 186.635104 298.208108 
L 188.596571 299.896962 
L 190.558038 301.440156 
L 192.519505 302.717394 
L 194.480972 303.631517 
L 196.442439 304.113171 
L 198.403906 304.120507 
L 200.365373 303.638229 
L 202.32684 302.679594 
L 204.288307 301.292186 
L 206.249774 299.564785 
L 208.211241 297.630186 
L 210.172708 295.65874 
L 212.134175 293.839986 
L 214.095642 292.354133 
L 216.05711 291.339558 
L 218.018577 290.865069 
L 219.980044 290.915304 
L 221.941511 291.394355 
L 223.902978 292.147578 
L 225.864445 292.996433 
L 227.825912 293.77759 
L 229.787379 294.376599 
L 231.748846 294.748228 
L 233.710313 294.919425 
L 235.67178 294.975484 
L 237.633247 295.034066 
L 239.594714 295.214255 
L 241.556181 295.608347 
L 243.517648 296.262731 
L 245.479115 297.17147 
L 247.440582 298.282747 
L 249.402049 299.515047 
L 251.363516 300.777657 
L 253.324983 301.989505 
L 255.28645 303.091674 
L 257.247917 304.051641 
L 259.209384 304.86025 
L 261.170851 305.524482 
L 263.132318 306.059566 
L 265.093785 306.482991 
L 267.055252 306.811363 
L 269.016719 307.059595 
L 270.978186 307.241281 
L 272.939653 307.369175 
L 274.90112 307.455271 
L 276.862588 307.510451 
L 278.824055 307.544015 
L 280.785522 307.563348 
L 282.746989 307.573878 
" style="fill:none;stroke:#348abd;stroke-linecap:square;stroke-width:0.3;"/>
   </g>
   <g id="line2d_38">
    <path clip-path="url(#pc5a352094c)" d="M 105.486494 307.50794 
L 106.552585 307.419498 
L 107.618677 307.248739 
L 108.684768 306.939589 
L 109.750859 306.414541 
L 110.81695 305.577493 
L 111.883042 304.323548 
L 112.949133 302.555492 
L 114.015224 300.203035 
L 115.081316 297.237577 
L 116.147407 293.674188 
L 117.213498 289.555423 
L 118.27959 284.918094 
L 119.345681 279.751966 
L 120.411772 273.964832 
L 121.477863 267.368904 
L 122.543955 259.698201 
L 123.610046 250.65773 
L 124.676137 239.995796 
L 125.742229 227.584153 
L 126.80832 213.488581 
L 127.874411 198.014727 
L 128.940502 181.718998 
L 130.006594 165.379836 
L 131.072685 149.929647 
L 132.138776 136.352293 
L 133.204868 125.556626 
L 134.270959 118.243656 
L 135.33705 114.792368 
L 136.403141 115.19323 
L 137.469233 119.054303 
L 138.535324 125.689305 
L 139.601415 134.271846 
L 140.667507 144.01367 
L 141.733598 154.310111 
L 142.799689 164.80367 
L 143.865781 175.347129 
L 144.931872 185.888764 
L 145.997963 196.334306 
L 147.064054 206.447548 
L 148.130146 215.831207 
L 149.196237 223.993339 
L 150.262328 230.47036 
L 151.32842 234.959879 
L 152.394511 237.419056 
L 153.460602 238.101364 
L 154.526693 237.526261 
L 155.592785 236.393745 
L 156.658876 235.465216 
L 157.724967 235.434414 
L 158.791059 236.810835 
L 159.85715 239.835525 
L 160.923241 244.445612 
L 161.989332 250.297039 
L 163.055424 256.843188 
L 164.121515 263.452431 
L 165.187606 269.535774 
L 166.253698 274.652935 
L 167.319789 278.573415 
L 168.38588 281.284738 
L 169.451972 282.955608 
L 170.518063 283.871061 
L 171.584154 284.358011 
L 172.650245 284.715592 
L 173.716337 285.159829 
L 174.782428 285.789105 
L 175.848519 286.57551 
L 176.914611 287.384817 
L 177.980702 288.022916 
L 179.046793 288.29917 
L 180.112884 288.090621 
L 181.178976 287.388753 
L 182.245067 286.314522 
L 183.311158 285.096319 
L 184.37725 284.016458 
L 185.443341 283.341067 
L 186.509432 283.253645 
L 187.575523 283.812272 
L 188.641615 284.944026 
L 189.707706 286.478272 
L 190.773797 288.206793 
L 191.839889 289.948675 
L 192.90598 291.596543 
L 193.972071 293.129355 
L 195.038163 294.591519 
L 196.104254 296.051598 
L 197.170345 297.560113 
L 198.236436 299.12304 
L 199.302528 300.698235 
L 200.368619 302.211527 
L 201.43471 303.58233 
L 202.500802 304.747376 
L 203.566893 305.674732 
L 204.632984 306.365843 
L 205.699075 306.848212 
L 206.765167 307.163682 
L 207.831258 307.357104 
L 208.897349 307.468334 
L 209.963441 307.52835 
L 211.029532 307.558742 
" style="fill:none;stroke:#988ed5;stroke-linecap:square;stroke-width:0.3;"/>
   </g>
   <g id="line2d_39">
    <path clip-path="url(#pc5a352094c)" d="M 73.832727 307.440422 
L 76.995668 307.284413 
L 80.158608 306.988366 
L 83.321549 306.454897 
L 86.48449 305.541796 
L 89.64743 304.056858 
L 92.810371 301.761849 
L 95.973311 298.390393 
L 99.136252 293.682771 
L 102.299193 287.43683 
L 105.462133 279.569133 
L 108.625074 270.175401 
L 111.788014 259.575744 
L 114.950955 248.32962 
L 118.113895 237.208515 
L 121.276836 227.121315 
L 124.439777 218.997489 
L 127.602717 213.644981 
L 130.765658 211.610232 
L 133.928598 213.072884 
L 137.091539 217.803942 
L 140.254479 225.202284 
L 143.41742 234.403537 
L 146.580361 244.434453 
L 149.743301 254.373177 
L 152.906242 263.476488 
L 156.069182 271.24883 
L 159.232123 277.448761 
L 162.395064 282.047673 
L 165.558004 285.166097 
L 168.720945 287.012145 
L 171.883885 287.83722 
L 175.046826 287.911757 
L 178.209766 287.514143 
L 181.372707 286.922328 
L 184.535648 286.39997 
L 187.698588 286.174851 
L 190.861529 286.413382 
L 194.024469 287.198865 
L 197.18741 288.521402 
L 200.350351 290.284387 
L 203.513291 292.327541 
L 206.676232 294.46147 
L 209.839172 296.50536 
L 213.002113 298.318815 
L 216.165053 299.821015 
L 219.327994 300.994384 
L 222.490935 301.874322 
L 225.653875 302.529871 
L 228.816816 303.041535 
L 231.979756 303.481965 
L 235.142697 303.903208 
L 238.305638 304.331746 
L 241.468578 304.770294 
L 244.631519 305.203926 
L 247.794459 305.607664 
L 250.9574 305.953214 
L 254.12034 306.213548 
L 257.283281 306.365226 
L 260.446222 306.389246 
L 263.609162 306.271606 
L 266.772103 306.0046 
L 269.935043 305.589278 
L 273.097984 305.038602 
L 276.260924 304.380116 
L 279.423865 303.656483 
L 282.586806 302.922564 
L 285.749746 302.238645 
L 288.912687 301.66081 
L 292.075627 301.230756 
L 295.238568 300.967889 
L 298.401509 300.866083 
L 301.564449 300.895992 
L 304.72739 301.012041 
L 307.89033 301.161793 
L 311.053271 301.295012 
L 314.216211 301.370485 
L 317.379152 301.360094 
L 320.542093 301.250962 
L 323.705033 301.046967 
L 326.867974 300.770302 
L 330.030914 300.462317 
L 333.193855 300.181697 
L 336.356796 299.997909 
L 339.519736 299.979424 
L 342.682677 300.178716 
L 345.845617 300.618376 
L 349.008558 301.283289 
L 352.171498 302.122139 
L 355.334439 303.058242 
L 358.49738 304.006275 
L 361.66032 304.889538 
L 364.823261 305.652767 
L 367.986201 306.267674 
L 371.149142 306.731261 
L 374.312083 307.059176 
L 377.475023 307.277221 
L 380.637964 307.413724 
L 383.800904 307.494272 
L 386.963845 307.539116 
" style="fill:none;stroke:#777777;stroke-linecap:square;stroke-width:0.3;"/>
   </g>
   <g id="line2d_40">
    <path clip-path="url(#pc5a352094c)" d="M 97.508534 307.522328 
L 99.88296 307.447547 
L 102.257387 307.298467 
L 104.631814 307.01821 
L 107.00624 306.520891 
L 109.380667 305.686951 
L 111.755093 304.364051 
L 114.12952 302.37686 
L 116.503947 299.548196 
L 118.878373 295.731899 
L 121.2528 290.854836 
L 123.627226 284.961966 
L 126.001653 278.254765 
L 128.37608 271.110467 
L 130.750506 264.068752 
L 133.124933 257.775924 
L 135.499359 252.885836 
L 137.873786 249.931204 
L 140.248212 249.194393 
L 142.622639 250.616029 
L 144.997066 253.776203 
L 147.371492 257.964629 
L 149.745919 262.328062 
L 152.120345 266.056678 
L 154.494772 268.557158 
L 156.869199 269.564875 
L 159.243625 269.168223 
L 161.618052 267.745888 
L 163.992478 265.842343 
L 166.366905 264.020574 
L 168.741332 262.73165 
L 171.115758 262.230251 
L 173.490185 262.548239 
L 175.864611 263.520819 
L 178.239038 264.847247 
L 180.613464 266.164176 
L 182.987891 267.114437 
L 185.362318 267.40323 
L 187.736744 266.84133 
L 190.111171 265.376539 
L 192.485597 263.110627 
L 194.860024 260.2943 
L 197.234451 257.293078 
L 199.608877 254.52456 
L 201.983304 252.378879 
L 204.35773 251.14247 
L 206.732157 250.945722 
L 209.106583 251.747515 
L 211.48101 253.358552 
L 213.855437 255.495603 
L 216.229863 257.852781 
L 218.60429 260.173509 
L 220.978716 262.306996 
L 223.353143 264.235952 
L 225.72757 266.068674 
L 228.101996 267.997806 
L 230.476423 270.237584 
L 232.850849 272.95756 
L 235.225276 276.231174 
L 237.599703 280.01219 
L 239.974129 284.143131 
L 242.348556 288.390673 
L 244.722982 292.496213 
L 247.097409 296.227131 
L 249.471835 299.415882 
L 251.846262 301.979103 
L 254.220689 303.915599 
L 256.595115 305.288046 
L 258.969542 306.196699 
L 261.343968 306.753565 
L 263.718395 307.062871 
L 266.092822 307.209994 
L 268.467248 307.257823 
L 270.841675 307.247888 
L 273.216101 307.203599 
L 275.590528 307.133924 
L 277.964954 307.036988 
L 280.339381 306.90382 
L 282.713808 306.722635 
L 285.088234 306.483734 
L 287.462661 306.184671 
L 289.837087 305.834824 
L 292.211514 305.458116 
L 294.585941 305.092493 
L 296.960367 304.785168 
L 299.334794 304.583768 
L 301.70922 304.525221 
L 304.083647 304.625709 
L 306.458074 304.875336 
L 308.8325 305.239821 
L 311.206927 305.668932 
L 313.581353 306.108697 
L 315.95578 306.513185 
L 318.330206 306.852211 
L 320.704633 307.113398 
L 323.07906 307.299343 
L 325.453486 307.422107 
L 327.827913 307.497456 
L 330.202339 307.540525 
L 332.576766 307.563481 
" style="fill:none;stroke:#fbc15e;stroke-linecap:square;stroke-width:0.3;"/>
   </g>
   <g id="line2d_41">
    <path clip-path="url(#pc5a352094c)" d="M 74.974355 307.557109 
L 78.242162 307.534561 
L 81.509969 307.495976 
L 84.777776 307.432157 
L 88.045584 307.330095 
L 91.313391 307.172198 
L 94.581198 306.935748 
L 97.849005 306.592746 
L 101.116813 306.110302 
L 104.38462 305.451622 
L 107.652427 304.577535 
L 110.920234 303.448418 
L 114.188042 302.026277 
L 117.455849 300.276801 
L 120.723656 298.17134 
L 123.991463 295.688973 
L 127.259271 292.818994 
L 130.527078 289.564202 
L 133.794885 285.945148 
L 137.062692 282.005027 
L 140.3305 277.814289 
L 143.598307 273.47346 
L 146.866114 269.112501 
L 150.133921 264.885359 
L 153.401729 260.959314 
L 156.669536 257.500073 
L 159.937343 254.654862 
L 163.20515 252.536648 
L 166.472958 251.212593 
L 169.740765 250.698955 
L 173.008572 250.96309 
L 176.276379 251.931484 
L 179.544187 253.501482 
L 182.811994 255.553885 
L 186.079801 257.964078 
L 189.347608 260.61037 
L 192.615416 263.379513 
L 195.883223 266.170237 
L 199.15103 268.895992 
L 202.418837 271.487742 
L 205.686645 273.897011 
L 208.954452 276.098622 
L 212.222259 278.092132 
L 215.490066 279.900909 
L 218.757874 281.568213 
L 222.025681 283.150285 
L 225.293488 284.707242 
L 228.561296 286.293189 
L 231.829103 287.947285 
L 235.09691 289.687425 
L 238.364717 291.507702 
L 241.632525 293.380039 
L 244.900332 295.259477 
L 248.168139 297.091889 
L 251.435946 298.82246 
L 254.703754 300.40328 
L 257.971561 301.798828 
L 261.239368 302.988712 
L 264.507175 303.967689 
L 267.774983 304.74352 
L 271.04279 305.333424 
L 274.310597 305.759962 
L 277.578404 306.046983 
L 280.846212 306.21606 
L 284.114019 306.283595 
L 287.381826 306.258623 
L 290.649633 306.141302 
L 293.917441 305.922073 
L 297.185248 305.581598 
L 300.453055 305.09173 
L 303.720862 304.417878 
L 306.98867 303.523168 
L 310.256477 302.374666 
L 313.524284 300.951525 
L 316.792091 299.254299 
L 320.059899 297.313948 
L 323.327706 295.198396 
L 326.595513 293.014287 
L 329.86332 290.901999 
L 333.131128 289.023148 
L 336.398935 287.54153 
L 339.666742 286.600361 
L 342.934549 286.300092 
L 346.202357 286.681509 
L 349.470164 287.718021 
L 352.737971 289.319067 
L 356.005778 291.344002 
L 359.273586 293.623443 
L 362.541393 295.983474 
L 365.8092 298.267859 
L 369.077007 300.354374 
L 372.344815 302.163177 
L 375.612622 303.657184 
L 378.880429 304.836075 
L 382.148236 305.72651 
L 385.416044 306.371231 
L 388.683851 306.81922 
L 391.951658 307.118221 
L 395.219465 307.310037 
L 398.487273 307.428384 
" style="fill:none;stroke:#8eba42;stroke-linecap:square;stroke-width:0.3;"/>
   </g>
   <g id="line2d_42">
    <path clip-path="url(#pc5a352094c)" d="M 76.339897 307.527287 
L 79.462699 307.457544 
L 82.5855 307.316262 
L 85.708301 307.045647 
L 88.831103 306.555805 
L 91.953904 305.718454 
L 95.076705 304.367826 
L 98.199507 302.314437 
L 101.322308 299.37593 
L 104.445109 295.424438 
L 107.567911 290.442103 
L 110.690712 284.568097 
L 113.813513 278.116063 
L 116.936315 271.544693 
L 120.059116 265.377671 
L 123.181917 260.088866 
L 126.304719 255.98609 
L 129.42752 253.132718 
L 132.550322 251.336016 
L 135.673123 250.207482 
L 138.795924 249.274419 
L 141.918726 248.105468 
L 145.041527 246.412953 
L 148.164328 244.109212 
L 151.28713 241.31349 
L 154.409931 238.320191 
L 157.532732 235.543624 
L 160.655534 233.450886 
L 163.778335 232.489682 
L 166.901136 233.016666 
L 170.023938 235.234992 
L 173.146739 239.153414 
L 176.26954 244.578892 
L 179.392342 251.147951 
L 182.515143 258.39104 
L 185.637945 265.813621 
L 188.760746 272.972696 
L 191.883547 279.530466 
L 195.006349 285.276192 
L 198.12915 290.118759 
L 201.251951 294.060767 
L 204.374753 297.167357 
L 207.497554 299.539552 
L 210.620355 301.295828 
L 213.743157 302.560398 
L 216.865958 303.454603 
L 219.988759 304.088768 
L 223.111561 304.554329 
L 226.234362 304.917906 
L 229.357163 305.219306 
L 232.479965 305.47427 
L 235.602766 305.681072 
L 238.725568 305.828997 
L 241.848369 305.906516 
L 244.97117 305.907696 
L 248.093972 305.836183 
L 251.216773 305.706647 
L 254.339574 305.543742 
L 257.462376 305.37867 
L 260.585177 305.2438 
L 263.707978 305.166375 
L 266.83078 305.16296 
L 269.953581 305.236365 
L 273.076382 305.376109 
L 276.199184 305.562276 
L 279.321985 305.77138 
L 282.444786 305.982197 
L 285.567588 306.179745 
L 288.690389 306.356427 
L 291.813191 306.510479 
L 294.935992 306.642657 
L 298.058793 306.752334 
L 301.181595 306.833891 
L 304.304396 306.873773 
L 307.427197 306.848266 
L 310.549999 306.722246 
L 313.6728 306.449784 
L 316.795601 305.978227 
L 319.918403 305.257478 
L 323.041204 304.255016 
L 326.164005 302.974651 
L 329.286807 301.473746 
L 332.409608 299.871419 
L 335.532409 298.340731 
L 338.655211 297.082127 
L 341.778012 296.282418 
L 344.900814 296.070467 
L 348.023615 296.484048 
L 351.146416 297.459618 
L 354.269218 298.848871 
L 357.392019 300.456153 
L 360.51482 302.083764 
L 363.637622 303.570797 
L 366.760423 304.815491 
L 369.883224 305.778454 
L 373.006026 306.470874 
L 376.128827 306.935331 
L 379.251628 307.226715 
L 382.37443 307.398008 
L 385.497231 307.492497 
" style="fill:none;stroke:#ffb5b8;stroke-linecap:square;stroke-width:0.3;"/>
   </g>
   <g id="line2d_43">
    <path clip-path="url(#pc5a352094c)" d="M 89.401833 307.532023 
L 92.450849 307.482352 
L 95.499866 307.392397 
L 98.548883 307.235787 
L 101.5979 306.973691 
L 104.646917 306.55206 
L 107.695934 305.900129 
L 110.74495 304.931369 
L 113.793967 303.54811 
L 116.842984 301.650669 
L 119.892001 299.151011 
L 122.941018 295.989683 
L 125.990034 292.153427 
L 129.039051 287.689785 
L 132.088068 282.714712 
L 135.137085 277.410042 
L 138.186102 272.009567 
L 141.235119 266.775133 
L 144.284135 261.966798 
L 147.333152 257.812804 
L 150.382169 254.485435 
L 153.431186 252.087359 
L 156.480203 250.650408 
L 159.529219 250.145583 
L 162.578236 250.50042 
L 165.627253 251.618425 
L 168.67627 253.395449 
L 171.725287 255.729431 
L 174.774303 258.522358 
L 177.82332 261.675868 
L 180.872337 265.083885 
L 183.921354 268.626542 
L 186.970371 272.169184 
L 190.019388 275.568578 
L 193.068404 278.686054 
L 196.117421 281.404875 
L 199.166438 283.647476 
L 202.215455 285.387747 
L 205.264472 286.65463 
L 208.313488 287.525402 
L 211.362505 288.109691 
L 214.411522 288.527602 
L 217.460539 288.886712 
L 220.509556 289.262824 
L 223.558573 289.688322 
L 226.607589 290.150119 
L 229.656606 290.597037 
L 232.705623 290.954599 
L 235.75464 291.143886 
L 238.803657 291.10062 
L 241.852673 290.790895 
L 244.90169 290.220832 
L 247.950707 289.4387 
L 250.999724 288.529426 
L 254.048741 287.602719 
L 257.097757 286.777106 
L 260.146774 286.162837 
L 263.195791 285.846775 
L 266.244808 285.881988 
L 269.293825 286.283696 
L 272.342842 287.031814 
L 275.391858 288.078784 
L 278.440875 289.360147 
L 281.489892 290.804897 
L 284.538909 292.343077 
L 287.587926 293.909362 
L 290.636942 295.442917 
L 293.685959 296.885172 
L 296.734976 298.177768 
L 299.783993 299.262638 
L 302.83301 300.085227 
L 305.882027 300.600565 
L 308.931043 300.780822 
L 311.98006 300.622404 
L 315.029077 300.150675 
L 318.078094 299.420965 
L 321.127111 298.515321 
L 324.176127 297.53534 
L 327.225144 296.592071 
L 330.274161 295.794413 
L 333.323178 295.237537 
L 336.372195 294.992806 
L 339.421211 295.100418 
L 342.470228 295.565679 
L 345.519245 296.359448 
L 348.568262 297.422784 
L 351.617279 298.675223 
L 354.666296 300.025545 
L 357.715312 301.383311 
L 360.764329 302.669321 
L 363.813346 303.823307 
L 366.862363 304.807833 
L 369.91138 305.608221 
L 372.960396 306.22918 
L 376.009413 306.689384 
L 379.05843 307.015421 
L 382.107447 307.236339 
L 385.156464 307.379558 
L 388.205481 307.468419 
L 391.254497 307.521196 
" style="fill:none;stroke:#e24a33;stroke-linecap:square;stroke-width:0.3;"/>
   </g>
   <g id="line2d_44">
    <path clip-path="url(#pc5a352094c)" d="M 82.327873 307.548351 
L 85.469046 307.514062 
L 88.61022 307.451883 
L 91.751393 307.343633 
L 94.892567 307.162731 
L 98.033741 306.872545 
L 101.174914 306.42576 
L 104.316088 305.765522 
L 107.457261 304.829055 
L 110.598435 303.554066 
L 113.739609 301.887579 
L 116.880782 299.796 
L 120.021956 297.274507 
L 123.163129 294.353531 
L 126.304303 291.100443 
L 129.445476 287.615538 
L 132.58665 284.022843 
L 135.727824 280.457594 
L 138.868997 277.053004 
L 142.010171 273.928851 
L 145.151344 271.183543 
L 148.292518 268.889967 
L 151.433692 267.094284 
L 154.574865 265.816221 
L 157.716039 265.049573 
L 160.857212 264.762392 
L 163.998386 264.897249 
L 167.139559 265.372715 
L 170.280733 266.087325 
L 173.421907 266.926952 
L 176.56308 267.775591 
L 179.704254 268.528569 
L 182.845427 269.106256 
L 185.986601 269.465848 
L 189.127775 269.608851 
L 192.268948 269.582478 
L 195.410122 269.47421 
L 198.551295 269.399991 
L 201.692469 269.487691 
L 204.833642 269.858344 
L 207.974816 270.608088 
L 211.11599 271.793633 
L 214.257163 273.423532 
L 217.398337 275.456556 
L 220.53951 277.807304 
L 223.680684 280.357981 
L 226.821858 282.974256 
L 229.963031 285.522449 
L 233.104205 287.885164 
L 236.245378 289.972806 
L 239.386552 291.729327 
L 242.527725 293.131713 
L 245.668899 294.184053 
L 248.810073 294.90819 
L 251.951246 295.333687 
L 255.09242 295.48989 
L 258.233593 295.402202 
L 261.374767 295.093384 
L 264.515941 294.58911 
L 267.657114 293.925545 
L 270.798288 293.15589 
L 273.939461 292.352871 
L 277.080635 291.605252 
L 280.221808 291.008142 
L 283.362982 290.648861 
L 286.504156 290.591635 
L 289.645329 290.864928 
L 292.786503 291.454676 
L 295.927676 292.30508 
L 299.06885 293.326679 
L 302.210024 294.409654 
L 305.351197 295.439412 
L 308.492371 296.311559 
L 311.633544 296.944251 
L 314.774718 297.287029 
L 317.915891 297.326083 
L 321.057065 297.086152 
L 324.198239 296.628972 
L 327.339412 296.04779 
L 330.480586 295.457459 
L 333.621759 294.980275 
L 336.762933 294.728975 
L 339.904107 294.789638 
L 343.04528 295.208019 
L 346.186454 295.98253 
L 349.327627 297.065735 
L 352.468801 298.37406 
L 355.609974 299.803366 
L 358.751148 301.246652 
L 361.892322 302.609945 
L 365.033495 303.823365 
L 368.174669 304.845965 
L 371.315842 305.664651 
L 374.457016 306.288798 
L 377.59819 306.74273 
L 380.739363 307.058099 
L 383.880537 307.26762 
L 387.02171 307.400846 
L 390.162884 307.481976 
L 393.304057 307.529318 
" style="fill:none;stroke:#348abd;stroke-linecap:square;stroke-width:0.3;"/>
   </g>
   <g id="patch_3">
    <path d="M 57.6 307.584 
L 57.6 41.472 
" style="fill:none;stroke:#ffffff;stroke-linecap:square;stroke-linejoin:miter;"/>
   </g>
   <g id="patch_4">
    <path d="M 414.72 307.584 
L 414.72 41.472 
" style="fill:none;stroke:#ffffff;stroke-linecap:square;stroke-linejoin:miter;"/>
   </g>
   <g id="patch_5">
    <path d="M 57.6 307.584 
L 414.72 307.584 
" style="fill:none;stroke:#ffffff;stroke-linecap:square;stroke-linejoin:miter;"/>
   </g>
   <g id="patch_6">
    <path d="M 57.6 41.472 
L 414.72 41.472 
" style="fill:none;stroke:#ffffff;stroke-linecap:square;stroke-linejoin:miter;"/>
   </g>
   <g id="text_17">
    <!-- kernel density estimation(Gaussian):b0081;b0082;b0083;b0084;b0085;b0086;b0087;b0088;b0089;b0090;b0091;b0092;b0093;b0094;b0095;b0096 -->
    <defs>
     <path d="M 9.078125 75.984375 
L 18.109375 75.984375 
L 18.109375 31.109375 
L 44.921875 54.6875 
L 56.390625 54.6875 
L 27.390625 29.109375 
L 57.625 0 
L 45.90625 0 
L 18.109375 26.703125 
L 18.109375 0 
L 9.078125 0 
z
" id="DejaVuSans-6b"/>
     <path d="M 56.203125 29.59375 
L 56.203125 25.203125 
L 14.890625 25.203125 
Q 15.484375 15.921875 20.484375 11.0625 
Q 25.484375 6.203125 34.421875 6.203125 
Q 39.59375 6.203125 44.453125 7.46875 
Q 49.3125 8.734375 54.109375 11.28125 
L 54.109375 2.78125 
Q 49.265625 0.734375 44.1875 -0.34375 
Q 39.109375 -1.421875 33.890625 -1.421875 
Q 20.796875 -1.421875 13.15625 6.1875 
Q 5.515625 13.8125 5.515625 26.8125 
Q 5.515625 40.234375 12.765625 48.109375 
Q 20.015625 56 32.328125 56 
Q 43.359375 56 49.78125 48.890625 
Q 56.203125 41.796875 56.203125 29.59375 
z
M 47.21875 32.234375 
Q 47.125 39.59375 43.09375 43.984375 
Q 39.0625 48.390625 32.421875 48.390625 
Q 24.90625 48.390625 20.390625 44.140625 
Q 15.875 39.890625 15.1875 32.171875 
z
" id="DejaVuSans-65"/>
     <path d="M 41.109375 46.296875 
Q 39.59375 47.171875 37.8125 47.578125 
Q 36.03125 48 33.890625 48 
Q 26.265625 48 22.1875 43.046875 
Q 18.109375 38.09375 18.109375 28.8125 
L 18.109375 0 
L 9.078125 0 
L 9.078125 54.6875 
L 18.109375 54.6875 
L 18.109375 46.1875 
Q 20.953125 51.171875 25.484375 53.578125 
Q 30.03125 56 36.53125 56 
Q 37.453125 56 38.578125 55.875 
Q 39.703125 55.765625 41.0625 55.515625 
z
" id="DejaVuSans-72"/>
     <path d="M 9.421875 75.984375 
L 18.40625 75.984375 
L 18.40625 0 
L 9.421875 0 
z
" id="DejaVuSans-6c"/>
     <path id="DejaVuSans-20"/>
     <path d="M 45.40625 46.390625 
L 45.40625 75.984375 
L 54.390625 75.984375 
L 54.390625 0 
L 45.40625 0 
L 45.40625 8.203125 
Q 42.578125 3.328125 38.25 0.953125 
Q 33.9375 -1.421875 27.875 -1.421875 
Q 17.96875 -1.421875 11.734375 6.484375 
Q 5.515625 14.40625 5.515625 27.296875 
Q 5.515625 40.1875 11.734375 48.09375 
Q 17.96875 56 27.875 56 
Q 33.9375 56 38.25 53.625 
Q 42.578125 51.265625 45.40625 46.390625 
z
M 14.796875 27.296875 
Q 14.796875 17.390625 18.875 11.75 
Q 22.953125 6.109375 30.078125 6.109375 
Q 37.203125 6.109375 41.296875 11.75 
Q 45.40625 17.390625 45.40625 27.296875 
Q 45.40625 37.203125 41.296875 42.84375 
Q 37.203125 48.484375 30.078125 48.484375 
Q 22.953125 48.484375 18.875 42.84375 
Q 14.796875 37.203125 14.796875 27.296875 
z
" id="DejaVuSans-64"/>
     <path d="M 44.28125 53.078125 
L 44.28125 44.578125 
Q 40.484375 46.53125 36.375 47.5 
Q 32.28125 48.484375 27.875 48.484375 
Q 21.1875 48.484375 17.84375 46.4375 
Q 14.5 44.390625 14.5 40.28125 
Q 14.5 37.15625 16.890625 35.375 
Q 19.28125 33.59375 26.515625 31.984375 
L 29.59375 31.296875 
Q 39.15625 29.25 43.1875 25.515625 
Q 47.21875 21.78125 47.21875 15.09375 
Q 47.21875 7.46875 41.1875 3.015625 
Q 35.15625 -1.421875 24.609375 -1.421875 
Q 20.21875 -1.421875 15.453125 -0.5625 
Q 10.6875 0.296875 5.421875 2 
L 5.421875 11.28125 
Q 10.40625 8.6875 15.234375 7.390625 
Q 20.0625 6.109375 24.8125 6.109375 
Q 31.15625 6.109375 34.5625 8.28125 
Q 37.984375 10.453125 37.984375 14.40625 
Q 37.984375 18.0625 35.515625 20.015625 
Q 33.0625 21.96875 24.703125 23.78125 
L 21.578125 24.515625 
Q 13.234375 26.265625 9.515625 29.90625 
Q 5.8125 33.546875 5.8125 39.890625 
Q 5.8125 47.609375 11.28125 51.796875 
Q 16.75 56 26.8125 56 
Q 31.78125 56 36.171875 55.265625 
Q 40.578125 54.546875 44.28125 53.078125 
z
" id="DejaVuSans-73"/>
     <path d="M 9.421875 54.6875 
L 18.40625 54.6875 
L 18.40625 0 
L 9.421875 0 
z
M 9.421875 75.984375 
L 18.40625 75.984375 
L 18.40625 64.59375 
L 9.421875 64.59375 
z
" id="DejaVuSans-69"/>
     <path d="M 32.171875 -5.078125 
Q 28.375 -14.84375 24.75 -17.8125 
Q 21.140625 -20.796875 15.09375 -20.796875 
L 7.90625 -20.796875 
L 7.90625 -13.28125 
L 13.1875 -13.28125 
Q 16.890625 -13.28125 18.9375 -11.515625 
Q 21 -9.765625 23.484375 -3.21875 
L 25.09375 0.875 
L 2.984375 54.6875 
L 12.5 54.6875 
L 29.59375 11.921875 
L 46.6875 54.6875 
L 56.203125 54.6875 
z
" id="DejaVuSans-79"/>
     <path d="M 52 44.1875 
Q 55.375 50.25 60.0625 53.125 
Q 64.75 56 71.09375 56 
Q 79.640625 56 84.28125 50.015625 
Q 88.921875 44.046875 88.921875 33.015625 
L 88.921875 0 
L 79.890625 0 
L 79.890625 32.71875 
Q 79.890625 40.578125 77.09375 44.375 
Q 74.3125 48.1875 68.609375 48.1875 
Q 61.625 48.1875 57.5625 43.546875 
Q 53.515625 38.921875 53.515625 30.90625 
L 53.515625 0 
L 44.484375 0 
L 44.484375 32.71875 
Q 44.484375 40.625 41.703125 44.40625 
Q 38.921875 48.1875 33.109375 48.1875 
Q 26.21875 48.1875 22.15625 43.53125 
Q 18.109375 38.875 18.109375 30.90625 
L 18.109375 0 
L 9.078125 0 
L 9.078125 54.6875 
L 18.109375 54.6875 
L 18.109375 46.1875 
Q 21.1875 51.21875 25.484375 53.609375 
Q 29.78125 56 35.6875 56 
Q 41.65625 56 45.828125 52.96875 
Q 50 49.953125 52 44.1875 
z
" id="DejaVuSans-6d"/>
     <path d="M 34.28125 27.484375 
Q 23.390625 27.484375 19.1875 25 
Q 14.984375 22.515625 14.984375 16.5 
Q 14.984375 11.71875 18.140625 8.90625 
Q 21.296875 6.109375 26.703125 6.109375 
Q 34.1875 6.109375 38.703125 11.40625 
Q 43.21875 16.703125 43.21875 25.484375 
L 43.21875 27.484375 
z
M 52.203125 31.203125 
L 52.203125 0 
L 43.21875 0 
L 43.21875 8.296875 
Q 40.140625 3.328125 35.546875 0.953125 
Q 30.953125 -1.421875 24.3125 -1.421875 
Q 15.921875 -1.421875 10.953125 3.296875 
Q 6 8.015625 6 15.921875 
Q 6 25.140625 12.171875 29.828125 
Q 18.359375 34.515625 30.609375 34.515625 
L 43.21875 34.515625 
L 43.21875 35.40625 
Q 43.21875 41.609375 39.140625 45 
Q 35.0625 48.390625 27.6875 48.390625 
Q 23 48.390625 18.546875 47.265625 
Q 14.109375 46.140625 10.015625 43.890625 
L 10.015625 52.203125 
Q 14.9375 54.109375 19.578125 55.046875 
Q 24.21875 56 28.609375 56 
Q 40.484375 56 46.34375 49.84375 
Q 52.203125 43.703125 52.203125 31.203125 
z
" id="DejaVuSans-61"/>
     <path d="M 59.515625 10.40625 
L 59.515625 29.984375 
L 43.40625 29.984375 
L 43.40625 38.09375 
L 69.28125 38.09375 
L 69.28125 6.78125 
Q 63.578125 2.734375 56.6875 0.65625 
Q 49.8125 -1.421875 42 -1.421875 
Q 24.90625 -1.421875 15.25 8.5625 
Q 5.609375 18.5625 5.609375 36.375 
Q 5.609375 54.25 15.25 64.234375 
Q 24.90625 74.21875 42 74.21875 
Q 49.125 74.21875 55.546875 72.453125 
Q 61.96875 70.703125 67.390625 67.28125 
L 67.390625 56.78125 
Q 61.921875 61.421875 55.765625 63.765625 
Q 49.609375 66.109375 42.828125 66.109375 
Q 29.4375 66.109375 22.71875 58.640625 
Q 16.015625 51.171875 16.015625 36.375 
Q 16.015625 21.625 22.71875 14.15625 
Q 29.4375 6.6875 42.828125 6.6875 
Q 48.046875 6.6875 52.140625 7.59375 
Q 56.25 8.5 59.515625 10.40625 
z
" id="DejaVuSans-47"/>
     <path d="M 11.71875 12.40625 
L 22.015625 12.40625 
L 22.015625 0 
L 11.71875 0 
z
M 11.71875 51.703125 
L 22.015625 51.703125 
L 22.015625 39.3125 
L 11.71875 39.3125 
z
" id="DejaVuSans-3a"/>
     <path d="M 48.6875 27.296875 
Q 48.6875 37.203125 44.609375 42.84375 
Q 40.53125 48.484375 33.40625 48.484375 
Q 26.265625 48.484375 22.1875 42.84375 
Q 18.109375 37.203125 18.109375 27.296875 
Q 18.109375 17.390625 22.1875 11.75 
Q 26.265625 6.109375 33.40625 6.109375 
Q 40.53125 6.109375 44.609375 11.75 
Q 48.6875 17.390625 48.6875 27.296875 
z
M 18.109375 46.390625 
Q 20.953125 51.265625 25.265625 53.625 
Q 29.59375 56 35.59375 56 
Q 45.5625 56 51.78125 48.09375 
Q 58.015625 40.1875 58.015625 27.296875 
Q 58.015625 14.40625 51.78125 6.484375 
Q 45.5625 -1.421875 35.59375 -1.421875 
Q 29.59375 -1.421875 25.265625 0.953125 
Q 20.953125 3.328125 18.109375 8.203125 
L 18.109375 0 
L 9.078125 0 
L 9.078125 75.984375 
L 18.109375 75.984375 
z
" id="DejaVuSans-62"/>
     <path d="M 11.71875 51.703125 
L 22.015625 51.703125 
L 22.015625 39.3125 
L 11.71875 39.3125 
z
M 11.71875 12.40625 
L 22.015625 12.40625 
L 22.015625 4 
L 14.015625 -11.625 
L 7.71875 -11.625 
L 11.71875 4 
z
" id="DejaVuSans-3b"/>
     <path d="M 40.578125 39.3125 
Q 47.65625 37.796875 51.625 33 
Q 55.609375 28.21875 55.609375 21.1875 
Q 55.609375 10.40625 48.1875 4.484375 
Q 40.765625 -1.421875 27.09375 -1.421875 
Q 22.515625 -1.421875 17.65625 -0.515625 
Q 12.796875 0.390625 7.625 2.203125 
L 7.625 11.71875 
Q 11.71875 9.328125 16.59375 8.109375 
Q 21.484375 6.890625 26.8125 6.890625 
Q 36.078125 6.890625 40.9375 10.546875 
Q 45.796875 14.203125 45.796875 21.1875 
Q 45.796875 27.640625 41.28125 31.265625 
Q 36.765625 34.90625 28.71875 34.90625 
L 20.21875 34.90625 
L 20.21875 43.015625 
L 29.109375 43.015625 
Q 36.375 43.015625 40.234375 45.921875 
Q 44.09375 48.828125 44.09375 54.296875 
Q 44.09375 59.90625 40.109375 62.90625 
Q 36.140625 65.921875 28.71875 65.921875 
Q 24.65625 65.921875 20.015625 65.03125 
Q 15.375 64.15625 9.8125 62.3125 
L 9.8125 71.09375 
Q 15.4375 72.65625 20.34375 73.4375 
Q 25.25 74.21875 29.59375 74.21875 
Q 40.828125 74.21875 47.359375 69.109375 
Q 53.90625 64.015625 53.90625 55.328125 
Q 53.90625 49.265625 50.4375 45.09375 
Q 46.96875 40.921875 40.578125 39.3125 
z
" id="DejaVuSans-33"/>
     <path d="M 10.796875 72.90625 
L 49.515625 72.90625 
L 49.515625 64.59375 
L 19.828125 64.59375 
L 19.828125 46.734375 
Q 21.96875 47.46875 24.109375 47.828125 
Q 26.265625 48.1875 28.421875 48.1875 
Q 40.625 48.1875 47.75 41.5 
Q 54.890625 34.8125 54.890625 23.390625 
Q 54.890625 11.625 47.5625 5.09375 
Q 40.234375 -1.421875 26.90625 -1.421875 
Q 22.3125 -1.421875 17.546875 -0.640625 
Q 12.796875 0.140625 7.71875 1.703125 
L 7.71875 11.625 
Q 12.109375 9.234375 16.796875 8.0625 
Q 21.484375 6.890625 26.703125 6.890625 
Q 35.15625 6.890625 40.078125 11.328125 
Q 45.015625 15.765625 45.015625 23.390625 
Q 45.015625 31 40.078125 35.4375 
Q 35.15625 39.890625 26.703125 39.890625 
Q 22.75 39.890625 18.8125 39.015625 
Q 14.890625 38.140625 10.796875 36.28125 
z
" id="DejaVuSans-35"/>
     <path d="M 8.203125 72.90625 
L 55.078125 72.90625 
L 55.078125 68.703125 
L 28.609375 0 
L 18.3125 0 
L 43.21875 64.59375 
L 8.203125 64.59375 
z
" id="DejaVuSans-37"/>
     <path d="M 10.984375 1.515625 
L 10.984375 10.5 
Q 14.703125 8.734375 18.5 7.8125 
Q 22.3125 6.890625 25.984375 6.890625 
Q 35.75 6.890625 40.890625 13.453125 
Q 46.046875 20.015625 46.78125 33.40625 
Q 43.953125 29.203125 39.59375 26.953125 
Q 35.25 24.703125 29.984375 24.703125 
Q 19.046875 24.703125 12.671875 31.3125 
Q 6.296875 37.9375 6.296875 49.421875 
Q 6.296875 60.640625 12.9375 67.421875 
Q 19.578125 74.21875 30.609375 74.21875 
Q 43.265625 74.21875 49.921875 64.515625 
Q 56.59375 54.828125 56.59375 36.375 
Q 56.59375 19.140625 48.40625 8.859375 
Q 40.234375 -1.421875 26.421875 -1.421875 
Q 22.703125 -1.421875 18.890625 -0.6875 
Q 15.09375 0.046875 10.984375 1.515625 
z
M 30.609375 32.421875 
Q 37.25 32.421875 41.125 36.953125 
Q 45.015625 41.5 45.015625 49.421875 
Q 45.015625 57.28125 41.125 61.84375 
Q 37.25 66.40625 30.609375 66.40625 
Q 23.96875 66.40625 20.09375 61.84375 
Q 16.21875 57.28125 16.21875 49.421875 
Q 16.21875 41.5 20.09375 36.953125 
Q 23.96875 32.421875 30.609375 32.421875 
z
" id="DejaVuSans-39"/>
    </defs>
    <g transform="translate(-299.36025 35.472)scale(0.144 -0.144)">
     <use xlink:href="#DejaVuSans-6b"/>
     <use x="57.863281" xlink:href="#DejaVuSans-65"/>
     <use x="119.386719" xlink:href="#DejaVuSans-72"/>
     <use x="160.484375" xlink:href="#DejaVuSans-6e"/>
     <use x="223.863281" xlink:href="#DejaVuSans-65"/>
     <use x="285.386719" xlink:href="#DejaVuSans-6c"/>
     <use x="313.169922" xlink:href="#DejaVuSans-20"/>
     <use x="344.957031" xlink:href="#DejaVuSans-64"/>
     <use x="408.433594" xlink:href="#DejaVuSans-65"/>
     <use x="469.957031" xlink:href="#DejaVuSans-6e"/>
     <use x="533.335938" xlink:href="#DejaVuSans-73"/>
     <use x="585.435547" xlink:href="#DejaVuSans-69"/>
     <use x="613.21875" xlink:href="#DejaVuSans-74"/>
     <use x="652.427734" xlink:href="#DejaVuSans-79"/>
     <use x="711.607422" xlink:href="#DejaVuSans-20"/>
     <use x="743.394531" xlink:href="#DejaVuSans-65"/>
     <use x="804.917969" xlink:href="#DejaVuSans-73"/>
     <use x="857.017578" xlink:href="#DejaVuSans-74"/>
     <use x="896.226562" xlink:href="#DejaVuSans-69"/>
     <use x="924.009766" xlink:href="#DejaVuSans-6d"/>
     <use x="1021.421875" xlink:href="#DejaVuSans-61"/>
     <use x="1082.701172" xlink:href="#DejaVuSans-74"/>
     <use x="1121.910156" xlink:href="#DejaVuSans-69"/>
     <use x="1149.693359" xlink:href="#DejaVuSans-6f"/>
     <use x="1210.875" xlink:href="#DejaVuSans-6e"/>
     <use x="1274.253906" xlink:href="#DejaVuSans-28"/>
     <use x="1313.267578" xlink:href="#DejaVuSans-47"/>
     <use x="1390.757812" xlink:href="#DejaVuSans-61"/>
     <use x="1452.037109" xlink:href="#DejaVuSans-75"/>
     <use x="1515.416016" xlink:href="#DejaVuSans-73"/>
     <use x="1567.515625" xlink:href="#DejaVuSans-73"/>
     <use x="1619.615234" xlink:href="#DejaVuSans-69"/>
     <use x="1647.398438" xlink:href="#DejaVuSans-61"/>
     <use x="1708.677734" xlink:href="#DejaVuSans-6e"/>
     <use x="1772.056641" xlink:href="#DejaVuSans-29"/>
     <use x="1811.070312" xlink:href="#DejaVuSans-3a"/>
     <use x="1844.761719" xlink:href="#DejaVuSans-62"/>
     <use x="1908.238281" xlink:href="#DejaVuSans-30"/>
     <use x="1971.861328" xlink:href="#DejaVuSans-30"/>
     <use x="2035.484375" xlink:href="#DejaVuSans-38"/>
     <use x="2099.107422" xlink:href="#DejaVuSans-31"/>
     <use x="2162.730469" xlink:href="#DejaVuSans-3b"/>
     <use x="2196.421875" xlink:href="#DejaVuSans-62"/>
     <use x="2259.898438" xlink:href="#DejaVuSans-30"/>
     <use x="2323.521484" xlink:href="#DejaVuSans-30"/>
     <use x="2387.144531" xlink:href="#DejaVuSans-38"/>
     <use x="2450.767578" xlink:href="#DejaVuSans-32"/>
     <use x="2514.390625" xlink:href="#DejaVuSans-3b"/>
     <use x="2548.082031" xlink:href="#DejaVuSans-62"/>
     <use x="2611.558594" xlink:href="#DejaVuSans-30"/>
     <use x="2675.181641" xlink:href="#DejaVuSans-30"/>
     <use x="2738.804688" xlink:href="#DejaVuSans-38"/>
     <use x="2802.427734" xlink:href="#DejaVuSans-33"/>
     <use x="2866.050781" xlink:href="#DejaVuSans-3b"/>
     <use x="2899.742188" xlink:href="#DejaVuSans-62"/>
     <use x="2963.21875" xlink:href="#DejaVuSans-30"/>
     <use x="3026.841797" xlink:href="#DejaVuSans-30"/>
     <use x="3090.464844" xlink:href="#DejaVuSans-38"/>
     <use x="3154.087891" xlink:href="#DejaVuSans-34"/>
     <use x="3217.710938" xlink:href="#DejaVuSans-3b"/>
     <use x="3251.402344" xlink:href="#DejaVuSans-62"/>
     <use x="3314.878906" xlink:href="#DejaVuSans-30"/>
     <use x="3378.501953" xlink:href="#DejaVuSans-30"/>
     <use x="3442.125" xlink:href="#DejaVuSans-38"/>
     <use x="3505.748047" xlink:href="#DejaVuSans-35"/>
     <use x="3569.371094" xlink:href="#DejaVuSans-3b"/>
     <use x="3603.0625" xlink:href="#DejaVuSans-62"/>
     <use x="3666.539062" xlink:href="#DejaVuSans-30"/>
     <use x="3730.162109" xlink:href="#DejaVuSans-30"/>
     <use x="3793.785156" xlink:href="#DejaVuSans-38"/>
     <use x="3857.408203" xlink:href="#DejaVuSans-36"/>
     <use x="3921.03125" xlink:href="#DejaVuSans-3b"/>
     <use x="3954.722656" xlink:href="#DejaVuSans-62"/>
     <use x="4018.199219" xlink:href="#DejaVuSans-30"/>
     <use x="4081.822266" xlink:href="#DejaVuSans-30"/>
     <use x="4145.445312" xlink:href="#DejaVuSans-38"/>
     <use x="4209.068359" xlink:href="#DejaVuSans-37"/>
     <use x="4272.691406" xlink:href="#DejaVuSans-3b"/>
     <use x="4306.382812" xlink:href="#DejaVuSans-62"/>
     <use x="4369.859375" xlink:href="#DejaVuSans-30"/>
     <use x="4433.482422" xlink:href="#DejaVuSans-30"/>
     <use x="4497.105469" xlink:href="#DejaVuSans-38"/>
     <use x="4560.728516" xlink:href="#DejaVuSans-38"/>
     <use x="4624.351562" xlink:href="#DejaVuSans-3b"/>
     <use x="4658.042969" xlink:href="#DejaVuSans-62"/>
     <use x="4721.519531" xlink:href="#DejaVuSans-30"/>
     <use x="4785.142578" xlink:href="#DejaVuSans-30"/>
     <use x="4848.765625" xlink:href="#DejaVuSans-38"/>
     <use x="4912.388672" xlink:href="#DejaVuSans-39"/>
     <use x="4976.011719" xlink:href="#DejaVuSans-3b"/>
     <use x="5009.703125" xlink:href="#DejaVuSans-62"/>
     <use x="5073.179688" xlink:href="#DejaVuSans-30"/>
     <use x="5136.802734" xlink:href="#DejaVuSans-30"/>
     <use x="5200.425781" xlink:href="#DejaVuSans-39"/>
     <use x="5264.048828" xlink:href="#DejaVuSans-30"/>
     <use x="5327.671875" xlink:href="#DejaVuSans-3b"/>
     <use x="5361.363281" xlink:href="#DejaVuSans-62"/>
     <use x="5424.839844" xlink:href="#DejaVuSans-30"/>
     <use x="5488.462891" xlink:href="#DejaVuSans-30"/>
     <use x="5552.085938" xlink:href="#DejaVuSans-39"/>
     <use x="5615.708984" xlink:href="#DejaVuSans-31"/>
     <use x="5679.332031" xlink:href="#DejaVuSans-3b"/>
     <use x="5713.023438" xlink:href="#DejaVuSans-62"/>
     <use x="5776.5" xlink:href="#DejaVuSans-30"/>
     <use x="5840.123047" xlink:href="#DejaVuSans-30"/>
     <use x="5903.746094" xlink:href="#DejaVuSans-39"/>
     <use x="5967.369141" xlink:href="#DejaVuSans-32"/>
     <use x="6030.992188" xlink:href="#DejaVuSans-3b"/>
     <use x="6064.683594" xlink:href="#DejaVuSans-62"/>
     <use x="6128.160156" xlink:href="#DejaVuSans-30"/>
     <use x="6191.783203" xlink:href="#DejaVuSans-30"/>
     <use x="6255.40625" xlink:href="#DejaVuSans-39"/>
     <use x="6319.029297" xlink:href="#DejaVuSans-33"/>
     <use x="6382.652344" xlink:href="#DejaVuSans-3b"/>
     <use x="6416.34375" xlink:href="#DejaVuSans-62"/>
     <use x="6479.820312" xlink:href="#DejaVuSans-30"/>
     <use x="6543.443359" xlink:href="#DejaVuSans-30"/>
     <use x="6607.066406" xlink:href="#DejaVuSans-39"/>
     <use x="6670.689453" xlink:href="#DejaVuSans-34"/>
     <use x="6734.3125" xlink:href="#DejaVuSans-3b"/>
     <use x="6768.003906" xlink:href="#DejaVuSans-62"/>
     <use x="6831.480469" xlink:href="#DejaVuSans-30"/>
     <use x="6895.103516" xlink:href="#DejaVuSans-30"/>
     <use x="6958.726562" xlink:href="#DejaVuSans-39"/>
     <use x="7022.349609" xlink:href="#DejaVuSans-35"/>
     <use x="7085.972656" xlink:href="#DejaVuSans-3b"/>
     <use x="7119.664062" xlink:href="#DejaVuSans-62"/>
     <use x="7183.140625" xlink:href="#DejaVuSans-30"/>
     <use x="7246.763672" xlink:href="#DejaVuSans-30"/>
     <use x="7310.386719" xlink:href="#DejaVuSans-39"/>
     <use x="7374.009766" xlink:href="#DejaVuSans-36"/>
    </g>
   </g>
   <g id="legend_1">
    <g id="patch_7">
     <path d="M 343.921563 284.322 
L 407.72 284.322 
Q 409.72 284.322 409.72 282.322 
L 409.72 48.472 
Q 409.72 46.472 407.72 46.472 
L 343.921563 46.472 
Q 341.921563 46.472 341.921563 48.472 
L 341.921563 282.322 
Q 341.921563 284.322 343.921563 284.322 
z
" style="fill:#e5e5e5;opacity:0.8;stroke:#cccccc;stroke-linejoin:miter;stroke-width:0.5;"/>
    </g>
    <g id="line2d_45">
     <path d="M 345.921563 54.570437 
L 365.921563 54.570437 
" style="fill:none;stroke:#e24a33;stroke-linecap:square;stroke-width:0.3;"/>
    </g>
    <g id="line2d_46"/>
    <g id="text_18">
     <!-- b0081 -->
     <g transform="translate(373.921563 58.070437)scale(0.1 -0.1)">
      <use xlink:href="#DejaVuSans-62"/>
      <use x="63.476562" xlink:href="#DejaVuSans-30"/>
      <use x="127.099609" xlink:href="#DejaVuSans-30"/>
      <use x="190.722656" xlink:href="#DejaVuSans-38"/>
      <use x="254.345703" xlink:href="#DejaVuSans-31"/>
     </g>
    </g>
    <g id="line2d_47">
     <path d="M 345.921563 69.248562 
L 365.921563 69.248562 
" style="fill:none;stroke:#348abd;stroke-linecap:square;stroke-width:0.3;"/>
    </g>
    <g id="line2d_48"/>
    <g id="text_19">
     <!-- b0082 -->
     <g transform="translate(373.921563 72.748562)scale(0.1 -0.1)">
      <use xlink:href="#DejaVuSans-62"/>
      <use x="63.476562" xlink:href="#DejaVuSans-30"/>
      <use x="127.099609" xlink:href="#DejaVuSans-30"/>
      <use x="190.722656" xlink:href="#DejaVuSans-38"/>
      <use x="254.345703" xlink:href="#DejaVuSans-32"/>
     </g>
    </g>
    <g id="line2d_49">
     <path d="M 345.921563 83.926688 
L 365.921563 83.926688 
" style="fill:none;stroke:#988ed5;stroke-linecap:square;stroke-width:0.3;"/>
    </g>
    <g id="line2d_50"/>
    <g id="text_20">
     <!-- b0083 -->
     <g transform="translate(373.921563 87.426688)scale(0.1 -0.1)">
      <use xlink:href="#DejaVuSans-62"/>
      <use x="63.476562" xlink:href="#DejaVuSans-30"/>
      <use x="127.099609" xlink:href="#DejaVuSans-30"/>
      <use x="190.722656" xlink:href="#DejaVuSans-38"/>
      <use x="254.345703" xlink:href="#DejaVuSans-33"/>
     </g>
    </g>
    <g id="line2d_51">
     <path d="M 345.921563 98.604812 
L 365.921563 98.604812 
" style="fill:none;stroke:#777777;stroke-linecap:square;stroke-width:0.3;"/>
    </g>
    <g id="line2d_52"/>
    <g id="text_21">
     <!-- b0084 -->
     <g transform="translate(373.921563 102.104812)scale(0.1 -0.1)">
      <use xlink:href="#DejaVuSans-62"/>
      <use x="63.476562" xlink:href="#DejaVuSans-30"/>
      <use x="127.099609" xlink:href="#DejaVuSans-30"/>
      <use x="190.722656" xlink:href="#DejaVuSans-38"/>
      <use x="254.345703" xlink:href="#DejaVuSans-34"/>
     </g>
    </g>
    <g id="line2d_53">
     <path d="M 345.921563 113.282937 
L 365.921563 113.282937 
" style="fill:none;stroke:#fbc15e;stroke-linecap:square;stroke-width:0.3;"/>
    </g>
    <g id="line2d_54"/>
    <g id="text_22">
     <!-- b0085 -->
     <g transform="translate(373.921563 116.782937)scale(0.1 -0.1)">
      <use xlink:href="#DejaVuSans-62"/>
      <use x="63.476562" xlink:href="#DejaVuSans-30"/>
      <use x="127.099609" xlink:href="#DejaVuSans-30"/>
      <use x="190.722656" xlink:href="#DejaVuSans-38"/>
      <use x="254.345703" xlink:href="#DejaVuSans-35"/>
     </g>
    </g>
    <g id="line2d_55">
     <path d="M 345.921563 127.961062 
L 365.921563 127.961062 
" style="fill:none;stroke:#8eba42;stroke-linecap:square;stroke-width:0.3;"/>
    </g>
    <g id="line2d_56"/>
    <g id="text_23">
     <!-- b0086 -->
     <g transform="translate(373.921563 131.461062)scale(0.1 -0.1)">
      <use xlink:href="#DejaVuSans-62"/>
      <use x="63.476562" xlink:href="#DejaVuSans-30"/>
      <use x="127.099609" xlink:href="#DejaVuSans-30"/>
      <use x="190.722656" xlink:href="#DejaVuSans-38"/>
      <use x="254.345703" xlink:href="#DejaVuSans-36"/>
     </g>
    </g>
    <g id="line2d_57">
     <path d="M 345.921563 142.639187 
L 365.921563 142.639187 
" style="fill:none;stroke:#ffb5b8;stroke-linecap:square;stroke-width:0.3;"/>
    </g>
    <g id="line2d_58"/>
    <g id="text_24">
     <!-- b0087 -->
     <g transform="translate(373.921563 146.139187)scale(0.1 -0.1)">
      <use xlink:href="#DejaVuSans-62"/>
      <use x="63.476562" xlink:href="#DejaVuSans-30"/>
      <use x="127.099609" xlink:href="#DejaVuSans-30"/>
      <use x="190.722656" xlink:href="#DejaVuSans-38"/>
      <use x="254.345703" xlink:href="#DejaVuSans-37"/>
     </g>
    </g>
    <g id="line2d_59">
     <path d="M 345.921563 157.317312 
L 365.921563 157.317312 
" style="fill:none;stroke:#e24a33;stroke-linecap:square;stroke-width:0.3;"/>
    </g>
    <g id="line2d_60"/>
    <g id="text_25">
     <!-- b0088 -->
     <g transform="translate(373.921563 160.817312)scale(0.1 -0.1)">
      <use xlink:href="#DejaVuSans-62"/>
      <use x="63.476562" xlink:href="#DejaVuSans-30"/>
      <use x="127.099609" xlink:href="#DejaVuSans-30"/>
      <use x="190.722656" xlink:href="#DejaVuSans-38"/>
      <use x="254.345703" xlink:href="#DejaVuSans-38"/>
     </g>
    </g>
    <g id="line2d_61">
     <path d="M 345.921563 171.995437 
L 365.921563 171.995437 
" style="fill:none;stroke:#348abd;stroke-linecap:square;stroke-width:0.3;"/>
    </g>
    <g id="line2d_62"/>
    <g id="text_26">
     <!-- b0089 -->
     <g transform="translate(373.921563 175.495437)scale(0.1 -0.1)">
      <use xlink:href="#DejaVuSans-62"/>
      <use x="63.476562" xlink:href="#DejaVuSans-30"/>
      <use x="127.099609" xlink:href="#DejaVuSans-30"/>
      <use x="190.722656" xlink:href="#DejaVuSans-38"/>
      <use x="254.345703" xlink:href="#DejaVuSans-39"/>
     </g>
    </g>
    <g id="line2d_63">
     <path d="M 345.921563 186.673562 
L 365.921563 186.673562 
" style="fill:none;stroke:#988ed5;stroke-linecap:square;stroke-width:0.3;"/>
    </g>
    <g id="line2d_64"/>
    <g id="text_27">
     <!-- b0090 -->
     <g transform="translate(373.921563 190.173562)scale(0.1 -0.1)">
      <use xlink:href="#DejaVuSans-62"/>
      <use x="63.476562" xlink:href="#DejaVuSans-30"/>
      <use x="127.099609" xlink:href="#DejaVuSans-30"/>
      <use x="190.722656" xlink:href="#DejaVuSans-39"/>
      <use x="254.345703" xlink:href="#DejaVuSans-30"/>
     </g>
    </g>
    <g id="line2d_65">
     <path d="M 345.921563 201.351687 
L 365.921563 201.351687 
" style="fill:none;stroke:#777777;stroke-linecap:square;stroke-width:0.3;"/>
    </g>
    <g id="line2d_66"/>
    <g id="text_28">
     <!-- b0091 -->
     <g transform="translate(373.921563 204.851687)scale(0.1 -0.1)">
      <use xlink:href="#DejaVuSans-62"/>
      <use x="63.476562" xlink:href="#DejaVuSans-30"/>
      <use x="127.099609" xlink:href="#DejaVuSans-30"/>
      <use x="190.722656" xlink:href="#DejaVuSans-39"/>
      <use x="254.345703" xlink:href="#DejaVuSans-31"/>
     </g>
    </g>
    <g id="line2d_67">
     <path d="M 345.921563 216.029812 
L 365.921563 216.029812 
" style="fill:none;stroke:#fbc15e;stroke-linecap:square;stroke-width:0.3;"/>
    </g>
    <g id="line2d_68"/>
    <g id="text_29">
     <!-- b0092 -->
     <g transform="translate(373.921563 219.529812)scale(0.1 -0.1)">
      <use xlink:href="#DejaVuSans-62"/>
      <use x="63.476562" xlink:href="#DejaVuSans-30"/>
      <use x="127.099609" xlink:href="#DejaVuSans-30"/>
      <use x="190.722656" xlink:href="#DejaVuSans-39"/>
      <use x="254.345703" xlink:href="#DejaVuSans-32"/>
     </g>
    </g>
    <g id="line2d_69">
     <path d="M 345.921563 230.707937 
L 365.921563 230.707937 
" style="fill:none;stroke:#8eba42;stroke-linecap:square;stroke-width:0.3;"/>
    </g>
    <g id="line2d_70"/>
    <g id="text_30">
     <!-- b0093 -->
     <g transform="translate(373.921563 234.207937)scale(0.1 -0.1)">
      <use xlink:href="#DejaVuSans-62"/>
      <use x="63.476562" xlink:href="#DejaVuSans-30"/>
      <use x="127.099609" xlink:href="#DejaVuSans-30"/>
      <use x="190.722656" xlink:href="#DejaVuSans-39"/>
      <use x="254.345703" xlink:href="#DejaVuSans-33"/>
     </g>
    </g>
    <g id="line2d_71">
     <path d="M 345.921563 245.386062 
L 365.921563 245.386062 
" style="fill:none;stroke:#ffb5b8;stroke-linecap:square;stroke-width:0.3;"/>
    </g>
    <g id="line2d_72"/>
    <g id="text_31">
     <!-- b0094 -->
     <g transform="translate(373.921563 248.886062)scale(0.1 -0.1)">
      <use xlink:href="#DejaVuSans-62"/>
      <use x="63.476562" xlink:href="#DejaVuSans-30"/>
      <use x="127.099609" xlink:href="#DejaVuSans-30"/>
      <use x="190.722656" xlink:href="#DejaVuSans-39"/>
      <use x="254.345703" xlink:href="#DejaVuSans-34"/>
     </g>
    </g>
    <g id="line2d_73">
     <path d="M 345.921563 260.064187 
L 365.921563 260.064187 
" style="fill:none;stroke:#e24a33;stroke-linecap:square;stroke-width:0.3;"/>
    </g>
    <g id="line2d_74"/>
    <g id="text_32">
     <!-- b0095 -->
     <g transform="translate(373.921563 263.564187)scale(0.1 -0.1)">
      <use xlink:href="#DejaVuSans-62"/>
      <use x="63.476562" xlink:href="#DejaVuSans-30"/>
      <use x="127.099609" xlink:href="#DejaVuSans-30"/>
      <use x="190.722656" xlink:href="#DejaVuSans-39"/>
      <use x="254.345703" xlink:href="#DejaVuSans-35"/>
     </g>
    </g>
    <g id="line2d_75">
     <path d="M 345.921563 274.742312 
L 365.921563 274.742312 
" style="fill:none;stroke:#348abd;stroke-linecap:square;stroke-width:0.3;"/>
    </g>
    <g id="line2d_76"/>
    <g id="text_33">
     <!-- b0096 -->
     <g transform="translate(373.921563 278.242312)scale(0.1 -0.1)">
      <use xlink:href="#DejaVuSans-62"/>
      <use x="63.476562" xlink:href="#DejaVuSans-30"/>
      <use x="127.099609" xlink:href="#DejaVuSans-30"/>
      <use x="190.722656" xlink:href="#DejaVuSans-39"/>
      <use x="254.345703" xlink:href="#DejaVuSans-36"/>
     </g>
    </g>
   </g>
  </g>
 </g>
 <defs>
  <clipPath id="pc5a352094c">
   <rect height="266.112" width="357.12" x="57.6" y="41.472"/>
  </clipPath>
 </defs>
</svg>
