<?xml version="1.0" encoding="utf-8" standalone="no"?>
<!DOCTYPE svg PUBLIC "-//W3C//DTD SVG 1.1//EN"
  "http://www.w3.org/Graphics/SVG/1.1/DTD/svg11.dtd">
<!-- Created with matplotlib (http://matplotlib.org/) -->
<svg height="345pt" version="1.1" viewBox="0 0 460 345" width="460pt" xmlns="http://www.w3.org/2000/svg" xmlns:xlink="http://www.w3.org/1999/xlink">
 <defs>
  <style type="text/css">
*{stroke-linecap:butt;stroke-linejoin:round;}
  </style>
 </defs>
 <g id="figure_1">
  <g id="patch_1">
   <path d="M 0 345.6 
L 460.8 345.6 
L 460.8 0 
L 0 0 
z
" style="fill:#ffffff;"/>
  </g>
  <g id="axes_1">
   <g id="patch_2">
    <path d="M 57.6 307.584 
L 414.72 307.584 
L 414.72 41.472 
L 57.6 41.472 
z
" style="fill:#e5e5e5;"/>
   </g>
   <g id="matplotlib.axis_1">
    <g id="xtick_1">
     <g id="line2d_1">
      <path clip-path="url(#p43b38661ca)" d="M 74.731498 307.584 
L 74.731498 41.472 
" style="fill:none;stroke:#ffffff;stroke-linecap:square;stroke-width:0.8;"/>
     </g>
     <g id="line2d_2">
      <defs>
       <path d="M 0 0 
L 0 3.5 
" id="m68967118dc" style="stroke:#555555;stroke-width:0.8;"/>
      </defs>
      <g>
       <use style="fill:#555555;stroke:#555555;stroke-width:0.8;" x="74.731498" xlink:href="#m68967118dc" y="307.584"/>
      </g>
     </g>
     <g id="text_1">
      <!-- −25 -->
      <defs>
       <path d="M 10.59375 35.5 
L 73.1875 35.5 
L 73.1875 27.203125 
L 10.59375 27.203125 
z
" id="DejaVuSans-2212"/>
       <path d="M 19.1875 8.296875 
L 53.609375 8.296875 
L 53.609375 0 
L 7.328125 0 
L 7.328125 8.296875 
Q 12.9375 14.109375 22.625 23.890625 
Q 32.328125 33.6875 34.8125 36.53125 
Q 39.546875 41.84375 41.421875 45.53125 
Q 43.3125 49.21875 43.3125 52.78125 
Q 43.3125 58.59375 39.234375 62.25 
Q 35.15625 65.921875 28.609375 65.921875 
Q 23.96875 65.921875 18.8125 64.3125 
Q 13.671875 62.703125 7.8125 59.421875 
L 7.8125 69.390625 
Q 13.765625 71.78125 18.9375 73 
Q 24.125 74.21875 28.421875 74.21875 
Q 39.75 74.21875 46.484375 68.546875 
Q 53.21875 62.890625 53.21875 53.421875 
Q 53.21875 48.921875 51.53125 44.890625 
Q 49.859375 40.875 45.40625 35.40625 
Q 44.1875 33.984375 37.640625 27.21875 
Q 31.109375 20.453125 19.1875 8.296875 
z
" id="DejaVuSans-32"/>
       <path d="M 10.796875 72.90625 
L 49.515625 72.90625 
L 49.515625 64.59375 
L 19.828125 64.59375 
L 19.828125 46.734375 
Q 21.96875 47.46875 24.109375 47.828125 
Q 26.265625 48.1875 28.421875 48.1875 
Q 40.625 48.1875 47.75 41.5 
Q 54.890625 34.8125 54.890625 23.390625 
Q 54.890625 11.625 47.5625 5.09375 
Q 40.234375 -1.421875 26.90625 -1.421875 
Q 22.3125 -1.421875 17.546875 -0.640625 
Q 12.796875 0.140625 7.71875 1.703125 
L 7.71875 11.625 
Q 12.109375 9.234375 16.796875 8.0625 
Q 21.484375 6.890625 26.703125 6.890625 
Q 35.15625 6.890625 40.078125 11.328125 
Q 45.015625 15.765625 45.015625 23.390625 
Q 45.015625 31 40.078125 35.4375 
Q 35.15625 39.890625 26.703125 39.890625 
Q 22.75 39.890625 18.8125 39.015625 
Q 14.890625 38.140625 10.796875 36.28125 
z
" id="DejaVuSans-35"/>
      </defs>
      <g style="fill:#555555;" transform="translate(64.179154 322.182437)scale(0.1 -0.1)">
       <use xlink:href="#DejaVuSans-2212"/>
       <use x="83.789062" xlink:href="#DejaVuSans-32"/>
       <use x="147.412109" xlink:href="#DejaVuSans-35"/>
      </g>
     </g>
    </g>
    <g id="xtick_2">
     <g id="line2d_3">
      <path clip-path="url(#p43b38661ca)" d="M 114.984062 307.584 
L 114.984062 41.472 
" style="fill:none;stroke:#ffffff;stroke-linecap:square;stroke-width:0.8;"/>
     </g>
     <g id="line2d_4">
      <g>
       <use style="fill:#555555;stroke:#555555;stroke-width:0.8;" x="114.984062" xlink:href="#m68967118dc" y="307.584"/>
      </g>
     </g>
     <g id="text_2">
      <!-- 0 -->
      <defs>
       <path d="M 31.78125 66.40625 
Q 24.171875 66.40625 20.328125 58.90625 
Q 16.5 51.421875 16.5 36.375 
Q 16.5 21.390625 20.328125 13.890625 
Q 24.171875 6.390625 31.78125 6.390625 
Q 39.453125 6.390625 43.28125 13.890625 
Q 47.125 21.390625 47.125 36.375 
Q 47.125 51.421875 43.28125 58.90625 
Q 39.453125 66.40625 31.78125 66.40625 
z
M 31.78125 74.21875 
Q 44.046875 74.21875 50.515625 64.515625 
Q 56.984375 54.828125 56.984375 36.375 
Q 56.984375 17.96875 50.515625 8.265625 
Q 44.046875 -1.421875 31.78125 -1.421875 
Q 19.53125 -1.421875 13.0625 8.265625 
Q 6.59375 17.96875 6.59375 36.375 
Q 6.59375 54.828125 13.0625 64.515625 
Q 19.53125 74.21875 31.78125 74.21875 
z
" id="DejaVuSans-30"/>
      </defs>
      <g style="fill:#555555;" transform="translate(111.802812 322.182437)scale(0.1 -0.1)">
       <use xlink:href="#DejaVuSans-30"/>
      </g>
     </g>
    </g>
    <g id="xtick_3">
     <g id="line2d_5">
      <path clip-path="url(#p43b38661ca)" d="M 155.236625 307.584 
L 155.236625 41.472 
" style="fill:none;stroke:#ffffff;stroke-linecap:square;stroke-width:0.8;"/>
     </g>
     <g id="line2d_6">
      <g>
       <use style="fill:#555555;stroke:#555555;stroke-width:0.8;" x="155.236625" xlink:href="#m68967118dc" y="307.584"/>
      </g>
     </g>
     <g id="text_3">
      <!-- 25 -->
      <g style="fill:#555555;" transform="translate(148.874125 322.182437)scale(0.1 -0.1)">
       <use xlink:href="#DejaVuSans-32"/>
       <use x="63.623047" xlink:href="#DejaVuSans-35"/>
      </g>
     </g>
    </g>
    <g id="xtick_4">
     <g id="line2d_7">
      <path clip-path="url(#p43b38661ca)" d="M 195.489189 307.584 
L 195.489189 41.472 
" style="fill:none;stroke:#ffffff;stroke-linecap:square;stroke-width:0.8;"/>
     </g>
     <g id="line2d_8">
      <g>
       <use style="fill:#555555;stroke:#555555;stroke-width:0.8;" x="195.489189" xlink:href="#m68967118dc" y="307.584"/>
      </g>
     </g>
     <g id="text_4">
      <!-- 50 -->
      <g style="fill:#555555;" transform="translate(189.126689 322.182437)scale(0.1 -0.1)">
       <use xlink:href="#DejaVuSans-35"/>
       <use x="63.623047" xlink:href="#DejaVuSans-30"/>
      </g>
     </g>
    </g>
    <g id="xtick_5">
     <g id="line2d_9">
      <path clip-path="url(#p43b38661ca)" d="M 235.741753 307.584 
L 235.741753 41.472 
" style="fill:none;stroke:#ffffff;stroke-linecap:square;stroke-width:0.8;"/>
     </g>
     <g id="line2d_10">
      <g>
       <use style="fill:#555555;stroke:#555555;stroke-width:0.8;" x="235.741753" xlink:href="#m68967118dc" y="307.584"/>
      </g>
     </g>
     <g id="text_5">
      <!-- 75 -->
      <defs>
       <path d="M 8.203125 72.90625 
L 55.078125 72.90625 
L 55.078125 68.703125 
L 28.609375 0 
L 18.3125 0 
L 43.21875 64.59375 
L 8.203125 64.59375 
z
" id="DejaVuSans-37"/>
      </defs>
      <g style="fill:#555555;" transform="translate(229.379253 322.182437)scale(0.1 -0.1)">
       <use xlink:href="#DejaVuSans-37"/>
       <use x="63.623047" xlink:href="#DejaVuSans-35"/>
      </g>
     </g>
    </g>
    <g id="xtick_6">
     <g id="line2d_11">
      <path clip-path="url(#p43b38661ca)" d="M 275.994317 307.584 
L 275.994317 41.472 
" style="fill:none;stroke:#ffffff;stroke-linecap:square;stroke-width:0.8;"/>
     </g>
     <g id="line2d_12">
      <g>
       <use style="fill:#555555;stroke:#555555;stroke-width:0.8;" x="275.994317" xlink:href="#m68967118dc" y="307.584"/>
      </g>
     </g>
     <g id="text_6">
      <!-- 100 -->
      <defs>
       <path d="M 12.40625 8.296875 
L 28.515625 8.296875 
L 28.515625 63.921875 
L 10.984375 60.40625 
L 10.984375 69.390625 
L 28.421875 72.90625 
L 38.28125 72.90625 
L 38.28125 8.296875 
L 54.390625 8.296875 
L 54.390625 0 
L 12.40625 0 
z
" id="DejaVuSans-31"/>
      </defs>
      <g style="fill:#555555;" transform="translate(266.450567 322.182437)scale(0.1 -0.1)">
       <use xlink:href="#DejaVuSans-31"/>
       <use x="63.623047" xlink:href="#DejaVuSans-30"/>
       <use x="127.246094" xlink:href="#DejaVuSans-30"/>
      </g>
     </g>
    </g>
    <g id="xtick_7">
     <g id="line2d_13">
      <path clip-path="url(#p43b38661ca)" d="M 316.246881 307.584 
L 316.246881 41.472 
" style="fill:none;stroke:#ffffff;stroke-linecap:square;stroke-width:0.8;"/>
     </g>
     <g id="line2d_14">
      <g>
       <use style="fill:#555555;stroke:#555555;stroke-width:0.8;" x="316.246881" xlink:href="#m68967118dc" y="307.584"/>
      </g>
     </g>
     <g id="text_7">
      <!-- 125 -->
      <g style="fill:#555555;" transform="translate(306.703131 322.182437)scale(0.1 -0.1)">
       <use xlink:href="#DejaVuSans-31"/>
       <use x="63.623047" xlink:href="#DejaVuSans-32"/>
       <use x="127.246094" xlink:href="#DejaVuSans-35"/>
      </g>
     </g>
    </g>
    <g id="xtick_8">
     <g id="line2d_15">
      <path clip-path="url(#p43b38661ca)" d="M 356.499445 307.584 
L 356.499445 41.472 
" style="fill:none;stroke:#ffffff;stroke-linecap:square;stroke-width:0.8;"/>
     </g>
     <g id="line2d_16">
      <g>
       <use style="fill:#555555;stroke:#555555;stroke-width:0.8;" x="356.499445" xlink:href="#m68967118dc" y="307.584"/>
      </g>
     </g>
     <g id="text_8">
      <!-- 150 -->
      <g style="fill:#555555;" transform="translate(346.955695 322.182437)scale(0.1 -0.1)">
       <use xlink:href="#DejaVuSans-31"/>
       <use x="63.623047" xlink:href="#DejaVuSans-35"/>
       <use x="127.246094" xlink:href="#DejaVuSans-30"/>
      </g>
     </g>
    </g>
    <g id="xtick_9">
     <g id="line2d_17">
      <path clip-path="url(#p43b38661ca)" d="M 396.752009 307.584 
L 396.752009 41.472 
" style="fill:none;stroke:#ffffff;stroke-linecap:square;stroke-width:0.8;"/>
     </g>
     <g id="line2d_18">
      <g>
       <use style="fill:#555555;stroke:#555555;stroke-width:0.8;" x="396.752009" xlink:href="#m68967118dc" y="307.584"/>
      </g>
     </g>
     <g id="text_9">
      <!-- 175 -->
      <g style="fill:#555555;" transform="translate(387.208259 322.182437)scale(0.1 -0.1)">
       <use xlink:href="#DejaVuSans-31"/>
       <use x="63.623047" xlink:href="#DejaVuSans-37"/>
       <use x="127.246094" xlink:href="#DejaVuSans-35"/>
      </g>
     </g>
    </g>
    <g id="text_10">
     <!-- count -->
     <defs>
      <path d="M 48.78125 52.59375 
L 48.78125 44.1875 
Q 44.96875 46.296875 41.140625 47.34375 
Q 37.3125 48.390625 33.40625 48.390625 
Q 24.65625 48.390625 19.8125 42.84375 
Q 14.984375 37.3125 14.984375 27.296875 
Q 14.984375 17.28125 19.8125 11.734375 
Q 24.65625 6.203125 33.40625 6.203125 
Q 37.3125 6.203125 41.140625 7.25 
Q 44.96875 8.296875 48.78125 10.40625 
L 48.78125 2.09375 
Q 45.015625 0.34375 40.984375 -0.53125 
Q 36.96875 -1.421875 32.421875 -1.421875 
Q 20.0625 -1.421875 12.78125 6.34375 
Q 5.515625 14.109375 5.515625 27.296875 
Q 5.515625 40.671875 12.859375 48.328125 
Q 20.21875 56 33.015625 56 
Q 37.15625 56 41.109375 55.140625 
Q 45.0625 54.296875 48.78125 52.59375 
z
" id="DejaVuSans-63"/>
      <path d="M 30.609375 48.390625 
Q 23.390625 48.390625 19.1875 42.75 
Q 14.984375 37.109375 14.984375 27.296875 
Q 14.984375 17.484375 19.15625 11.84375 
Q 23.34375 6.203125 30.609375 6.203125 
Q 37.796875 6.203125 41.984375 11.859375 
Q 46.1875 17.53125 46.1875 27.296875 
Q 46.1875 37.015625 41.984375 42.703125 
Q 37.796875 48.390625 30.609375 48.390625 
z
M 30.609375 56 
Q 42.328125 56 49.015625 48.375 
Q 55.71875 40.765625 55.71875 27.296875 
Q 55.71875 13.875 49.015625 6.21875 
Q 42.328125 -1.421875 30.609375 -1.421875 
Q 18.84375 -1.421875 12.171875 6.21875 
Q 5.515625 13.875 5.515625 27.296875 
Q 5.515625 40.765625 12.171875 48.375 
Q 18.84375 56 30.609375 56 
z
" id="DejaVuSans-6f"/>
      <path d="M 8.5 21.578125 
L 8.5 54.6875 
L 17.484375 54.6875 
L 17.484375 21.921875 
Q 17.484375 14.15625 20.5 10.265625 
Q 23.53125 6.390625 29.59375 6.390625 
Q 36.859375 6.390625 41.078125 11.03125 
Q 45.3125 15.671875 45.3125 23.6875 
L 45.3125 54.6875 
L 54.296875 54.6875 
L 54.296875 0 
L 45.3125 0 
L 45.3125 8.40625 
Q 42.046875 3.421875 37.71875 1 
Q 33.40625 -1.421875 27.6875 -1.421875 
Q 18.265625 -1.421875 13.375 4.4375 
Q 8.5 10.296875 8.5 21.578125 
z
M 31.109375 56 
z
" id="DejaVuSans-75"/>
      <path d="M 54.890625 33.015625 
L 54.890625 0 
L 45.90625 0 
L 45.90625 32.71875 
Q 45.90625 40.484375 42.875 44.328125 
Q 39.84375 48.1875 33.796875 48.1875 
Q 26.515625 48.1875 22.3125 43.546875 
Q 18.109375 38.921875 18.109375 30.90625 
L 18.109375 0 
L 9.078125 0 
L 9.078125 54.6875 
L 18.109375 54.6875 
L 18.109375 46.1875 
Q 21.34375 51.125 25.703125 53.5625 
Q 30.078125 56 35.796875 56 
Q 45.21875 56 50.046875 50.171875 
Q 54.890625 44.34375 54.890625 33.015625 
z
" id="DejaVuSans-6e"/>
      <path d="M 18.3125 70.21875 
L 18.3125 54.6875 
L 36.8125 54.6875 
L 36.8125 47.703125 
L 18.3125 47.703125 
L 18.3125 18.015625 
Q 18.3125 11.328125 20.140625 9.421875 
Q 21.96875 7.515625 27.59375 7.515625 
L 36.8125 7.515625 
L 36.8125 0 
L 27.59375 0 
Q 17.1875 0 13.234375 3.875 
Q 9.28125 7.765625 9.28125 18.015625 
L 9.28125 47.703125 
L 2.6875 47.703125 
L 2.6875 54.6875 
L 9.28125 54.6875 
L 9.28125 70.21875 
z
" id="DejaVuSans-74"/>
     </defs>
     <g style="fill:#555555;" transform="translate(219.2325 337.38025)scale(0.12 -0.12)">
      <use xlink:href="#DejaVuSans-63"/>
      <use x="54.980469" xlink:href="#DejaVuSans-6f"/>
      <use x="116.162109" xlink:href="#DejaVuSans-75"/>
      <use x="179.541016" xlink:href="#DejaVuSans-6e"/>
      <use x="242.919922" xlink:href="#DejaVuSans-74"/>
     </g>
    </g>
   </g>
   <g id="matplotlib.axis_2">
    <g id="ytick_1">
     <g id="line2d_19">
      <path clip-path="url(#p43b38661ca)" d="M 57.6 307.584 
L 414.72 307.584 
" style="fill:none;stroke:#ffffff;stroke-linecap:square;stroke-width:0.8;"/>
     </g>
     <g id="line2d_20">
      <defs>
       <path d="M 0 0 
L -3.5 0 
" id="mb0fb0d7dd9" style="stroke:#555555;stroke-width:0.8;"/>
      </defs>
      <g>
       <use style="fill:#555555;stroke:#555555;stroke-width:0.8;" x="57.6" xlink:href="#mb0fb0d7dd9" y="307.584"/>
      </g>
     </g>
     <g id="text_11">
      <!-- 0.00 -->
      <defs>
       <path d="M 10.6875 12.40625 
L 21 12.40625 
L 21 0 
L 10.6875 0 
z
" id="DejaVuSans-2e"/>
      </defs>
      <g style="fill:#555555;" transform="translate(28.334375 311.383219)scale(0.1 -0.1)">
       <use xlink:href="#DejaVuSans-30"/>
       <use x="63.623047" xlink:href="#DejaVuSans-2e"/>
       <use x="95.410156" xlink:href="#DejaVuSans-30"/>
       <use x="159.033203" xlink:href="#DejaVuSans-30"/>
      </g>
     </g>
    </g>
    <g id="ytick_2">
     <g id="line2d_21">
      <path clip-path="url(#p43b38661ca)" d="M 57.6 250.900141 
L 414.72 250.900141 
" style="fill:none;stroke:#ffffff;stroke-linecap:square;stroke-width:0.8;"/>
     </g>
     <g id="line2d_22">
      <g>
       <use style="fill:#555555;stroke:#555555;stroke-width:0.8;" x="57.6" xlink:href="#mb0fb0d7dd9" y="250.900141"/>
      </g>
     </g>
     <g id="text_12">
      <!-- 0.01 -->
      <g style="fill:#555555;" transform="translate(28.334375 254.69936)scale(0.1 -0.1)">
       <use xlink:href="#DejaVuSans-30"/>
       <use x="63.623047" xlink:href="#DejaVuSans-2e"/>
       <use x="95.410156" xlink:href="#DejaVuSans-30"/>
       <use x="159.033203" xlink:href="#DejaVuSans-31"/>
      </g>
     </g>
    </g>
    <g id="ytick_3">
     <g id="line2d_23">
      <path clip-path="url(#p43b38661ca)" d="M 57.6 194.216282 
L 414.72 194.216282 
" style="fill:none;stroke:#ffffff;stroke-linecap:square;stroke-width:0.8;"/>
     </g>
     <g id="line2d_24">
      <g>
       <use style="fill:#555555;stroke:#555555;stroke-width:0.8;" x="57.6" xlink:href="#mb0fb0d7dd9" y="194.216282"/>
      </g>
     </g>
     <g id="text_13">
      <!-- 0.02 -->
      <g style="fill:#555555;" transform="translate(28.334375 198.015501)scale(0.1 -0.1)">
       <use xlink:href="#DejaVuSans-30"/>
       <use x="63.623047" xlink:href="#DejaVuSans-2e"/>
       <use x="95.410156" xlink:href="#DejaVuSans-30"/>
       <use x="159.033203" xlink:href="#DejaVuSans-32"/>
      </g>
     </g>
    </g>
    <g id="ytick_4">
     <g id="line2d_25">
      <path clip-path="url(#p43b38661ca)" d="M 57.6 137.532423 
L 414.72 137.532423 
" style="fill:none;stroke:#ffffff;stroke-linecap:square;stroke-width:0.8;"/>
     </g>
     <g id="line2d_26">
      <g>
       <use style="fill:#555555;stroke:#555555;stroke-width:0.8;" x="57.6" xlink:href="#mb0fb0d7dd9" y="137.532423"/>
      </g>
     </g>
     <g id="text_14">
      <!-- 0.03 -->
      <defs>
       <path d="M 40.578125 39.3125 
Q 47.65625 37.796875 51.625 33 
Q 55.609375 28.21875 55.609375 21.1875 
Q 55.609375 10.40625 48.1875 4.484375 
Q 40.765625 -1.421875 27.09375 -1.421875 
Q 22.515625 -1.421875 17.65625 -0.515625 
Q 12.796875 0.390625 7.625 2.203125 
L 7.625 11.71875 
Q 11.71875 9.328125 16.59375 8.109375 
Q 21.484375 6.890625 26.8125 6.890625 
Q 36.078125 6.890625 40.9375 10.546875 
Q 45.796875 14.203125 45.796875 21.1875 
Q 45.796875 27.640625 41.28125 31.265625 
Q 36.765625 34.90625 28.71875 34.90625 
L 20.21875 34.90625 
L 20.21875 43.015625 
L 29.109375 43.015625 
Q 36.375 43.015625 40.234375 45.921875 
Q 44.09375 48.828125 44.09375 54.296875 
Q 44.09375 59.90625 40.109375 62.90625 
Q 36.140625 65.921875 28.71875 65.921875 
Q 24.65625 65.921875 20.015625 65.03125 
Q 15.375 64.15625 9.8125 62.3125 
L 9.8125 71.09375 
Q 15.4375 72.65625 20.34375 73.4375 
Q 25.25 74.21875 29.59375 74.21875 
Q 40.828125 74.21875 47.359375 69.109375 
Q 53.90625 64.015625 53.90625 55.328125 
Q 53.90625 49.265625 50.4375 45.09375 
Q 46.96875 40.921875 40.578125 39.3125 
z
" id="DejaVuSans-33"/>
      </defs>
      <g style="fill:#555555;" transform="translate(28.334375 141.331642)scale(0.1 -0.1)">
       <use xlink:href="#DejaVuSans-30"/>
       <use x="63.623047" xlink:href="#DejaVuSans-2e"/>
       <use x="95.410156" xlink:href="#DejaVuSans-30"/>
       <use x="159.033203" xlink:href="#DejaVuSans-33"/>
      </g>
     </g>
    </g>
    <g id="ytick_5">
     <g id="line2d_27">
      <path clip-path="url(#p43b38661ca)" d="M 57.6 80.848564 
L 414.72 80.848564 
" style="fill:none;stroke:#ffffff;stroke-linecap:square;stroke-width:0.8;"/>
     </g>
     <g id="line2d_28">
      <g>
       <use style="fill:#555555;stroke:#555555;stroke-width:0.8;" x="57.6" xlink:href="#mb0fb0d7dd9" y="80.848564"/>
      </g>
     </g>
     <g id="text_15">
      <!-- 0.04 -->
      <defs>
       <path d="M 37.796875 64.3125 
L 12.890625 25.390625 
L 37.796875 25.390625 
z
M 35.203125 72.90625 
L 47.609375 72.90625 
L 47.609375 25.390625 
L 58.015625 25.390625 
L 58.015625 17.1875 
L 47.609375 17.1875 
L 47.609375 0 
L 37.796875 0 
L 37.796875 17.1875 
L 4.890625 17.1875 
L 4.890625 26.703125 
z
" id="DejaVuSans-34"/>
      </defs>
      <g style="fill:#555555;" transform="translate(28.334375 84.647783)scale(0.1 -0.1)">
       <use xlink:href="#DejaVuSans-30"/>
       <use x="63.623047" xlink:href="#DejaVuSans-2e"/>
       <use x="95.410156" xlink:href="#DejaVuSans-30"/>
       <use x="159.033203" xlink:href="#DejaVuSans-34"/>
      </g>
     </g>
    </g>
    <g id="text_16">
     <!-- f(count) -->
     <defs>
      <path d="M 37.109375 75.984375 
L 37.109375 68.5 
L 28.515625 68.5 
Q 23.6875 68.5 21.796875 66.546875 
Q 19.921875 64.59375 19.921875 59.515625 
L 19.921875 54.6875 
L 34.71875 54.6875 
L 34.71875 47.703125 
L 19.921875 47.703125 
L 19.921875 0 
L 10.890625 0 
L 10.890625 47.703125 
L 2.296875 47.703125 
L 2.296875 54.6875 
L 10.890625 54.6875 
L 10.890625 58.5 
Q 10.890625 67.625 15.140625 71.796875 
Q 19.390625 75.984375 28.609375 75.984375 
z
" id="DejaVuSans-66"/>
      <path d="M 31 75.875 
Q 24.46875 64.65625 21.28125 53.65625 
Q 18.109375 42.671875 18.109375 31.390625 
Q 18.109375 20.125 21.3125 9.0625 
Q 24.515625 -2 31 -13.1875 
L 23.1875 -13.1875 
Q 15.875 -1.703125 12.234375 9.375 
Q 8.59375 20.453125 8.59375 31.390625 
Q 8.59375 42.28125 12.203125 53.3125 
Q 15.828125 64.359375 23.1875 75.875 
z
" id="DejaVuSans-28"/>
      <path d="M 8.015625 75.875 
L 15.828125 75.875 
Q 23.140625 64.359375 26.78125 53.3125 
Q 30.421875 42.28125 30.421875 31.390625 
Q 30.421875 20.453125 26.78125 9.375 
Q 23.140625 -1.703125 15.828125 -13.1875 
L 8.015625 -13.1875 
Q 14.5 -2 17.703125 9.0625 
Q 20.90625 20.125 20.90625 31.390625 
Q 20.90625 42.671875 17.703125 53.65625 
Q 14.5 64.65625 8.015625 75.875 
z
" id="DejaVuSans-29"/>
     </defs>
     <g style="fill:#555555;" transform="translate(21.83875 198.249562)rotate(-90)scale(0.12 -0.12)">
      <use xlink:href="#DejaVuSans-66"/>
      <use x="35.205078" xlink:href="#DejaVuSans-28"/>
      <use x="74.21875" xlink:href="#DejaVuSans-63"/>
      <use x="129.199219" xlink:href="#DejaVuSans-6f"/>
      <use x="190.380859" xlink:href="#DejaVuSans-75"/>
      <use x="253.759766" xlink:href="#DejaVuSans-6e"/>
      <use x="317.138672" xlink:href="#DejaVuSans-74"/>
      <use x="356.347656" xlink:href="#DejaVuSans-29"/>
     </g>
    </g>
   </g>
   <g id="line2d_29">
    <path clip-path="url(#p43b38661ca)" d="M 130.079372 307.482886 
L 132.132648 307.401728 
L 134.185923 307.266872 
L 136.239198 307.05135 
L 138.292473 306.720156 
L 140.345749 306.230943 
L 142.399024 305.536664 
L 144.452299 304.590578 
L 146.505574 303.353674 
L 148.55885 301.803857 
L 150.612125 299.945525 
L 152.6654 297.817474 
L 154.718675 295.496839 
L 156.77195 293.097041 
L 158.825226 290.75874 
L 160.878501 288.63424 
L 162.931776 286.867514 
L 164.985051 285.573361 
L 167.038327 284.819818 
L 169.091602 284.617502 
L 171.144877 284.918137 
L 173.198152 285.622391 
L 175.251428 286.595007 
L 177.304703 287.683499 
L 179.357978 288.736042 
L 181.411253 289.614562 
L 183.464529 290.200478 
L 185.517804 290.392573 
L 187.571079 290.098545 
L 189.624354 289.223582 
L 191.67763 287.660267 
L 193.730905 285.28419 
L 195.78418 281.958674 
L 197.837455 277.550143 
L 199.890731 271.953199 
L 201.944006 265.121822 
L 203.997281 257.100842 
L 206.050556 248.050618 
L 208.103831 238.258017 
L 210.157107 228.128632 
L 212.210382 218.158298 
L 214.263657 208.88592 
L 216.316932 200.833393 
L 218.370208 194.44124 
L 220.423483 190.009872 
L 222.476758 187.655897 
L 224.530033 187.290879 
L 226.583309 188.626796 
L 228.636584 191.208797 
L 230.689859 194.472089 
L 232.743134 197.816379 
L 234.79641 200.688537 
L 236.849685 202.662302 
L 238.90296 203.503301 
L 240.956235 203.208649 
L 243.009511 202.013128 
L 245.062786 200.358429 
L 247.116061 198.827721 
L 249.169336 198.054157 
L 251.222611 198.617531 
L 253.275887 200.946776 
L 255.329162 205.246098 
L 257.382437 211.458666 
L 259.435712 219.274506 
L 261.488988 228.180151 
L 263.542263 237.538981 
L 265.595538 246.685456 
L 267.648813 255.014889 
L 269.702089 262.053424 
L 271.755364 267.499066 
L 273.808639 271.232095 
L 275.861914 273.299777 
L 277.91519 273.884296 
L 279.968465 273.263812 
L 282.02174 271.774706 
L 284.075015 269.779602 
L 286.128291 267.642085 
L 288.181566 265.706275 
L 290.234841 264.278457 
L 292.288116 263.608812 
L 294.341392 263.873359 
L 296.394667 265.158505 
L 298.447942 267.452124 
L 300.501217 270.644971 
L 302.554492 274.544487 
L 304.607768 278.900171 
L 306.661043 283.436687 
L 308.714318 287.888774 
L 310.767593 292.031604 
L 312.820869 295.701548 
L 314.874144 298.804817 
L 316.927419 301.314375 
L 318.980694 303.257895 
L 321.03397 304.700807 
L 323.087245 305.728566 
L 325.14052 306.431333 
L 327.193795 306.892876 
L 329.247071 307.184128 
L 331.300346 307.360781 
L 333.353621 307.463794 
" style="fill:none;stroke:#e24a33;stroke-linecap:square;stroke-width:0.3;"/>
   </g>
   <g id="line2d_30">
    <path clip-path="url(#p43b38661ca)" d="M 120.526421 307.155699 
L 121.764338 306.759006 
L 123.002255 306.063954 
L 124.240172 304.903582 
L 125.478089 303.057412 
L 126.716006 300.25743 
L 127.953923 296.207807 
L 129.19184 290.619508 
L 130.429758 283.25645 
L 131.667675 273.985022 
L 132.905592 262.815636 
L 134.143509 249.925552 
L 135.381426 235.657163 
L 136.619343 220.493696 
L 137.85726 205.021358 
L 139.095177 189.889715 
L 140.333094 175.778449 
L 141.571011 163.370317 
L 142.808929 153.321516 
L 144.046846 146.217175 
L 145.284763 142.50432 
L 146.52268 142.406242 
L 147.760597 145.835349 
L 148.998514 152.329996 
L 150.236431 161.039901 
L 151.474348 170.774825 
L 152.712265 180.116462 
L 153.950183 187.57976 
L 155.1881 191.801458 
L 156.426017 191.730866 
L 157.663934 186.798511 
L 158.901851 177.039012 
L 160.139768 163.145069 
L 161.377685 146.432049 
L 162.615602 128.701693 
L 163.853519 112.011056 
L 165.091437 98.37648 
L 166.329354 89.464704 
L 167.567271 86.334566 
L 168.805188 89.286409 
L 170.043105 97.85196 
L 171.281022 110.922411 
L 172.518939 126.97826 
L 173.756856 144.362433 
L 174.994773 161.534501 
L 176.232691 177.257522 
L 177.470608 190.693689 
L 178.708525 201.411341 
L 179.946442 209.326183 
L 181.184359 214.609415 
L 182.422276 217.594454 
L 183.660193 218.704871 
L 184.89811 218.412939 
L 186.136027 217.225015 
L 187.373945 215.680146 
L 188.611862 214.344105 
L 189.849779 213.783763 
L 191.087696 214.515515 
L 192.325613 216.933962 
L 193.56353 221.238789 
L 194.801447 227.383919 
L 196.039364 235.070189 
L 197.277281 243.791002 
L 198.515198 252.923592 
L 199.753116 261.84325 
L 200.991033 270.030163 
L 202.22895 277.141656 
L 203.466867 283.03482 
L 204.704784 287.740844 
L 205.942701 291.406303 
L 207.180618 294.22369 
L 208.418535 296.372242 
L 209.656452 297.982569 
L 210.89437 299.128606 
L 212.132287 299.841728 
L 213.370204 300.136874 
L 214.608121 300.039757 
L 215.846038 299.606562 
L 217.083955 298.931541 
L 218.321872 298.141873 
L 219.559789 297.382338 
L 220.797706 296.79426 
L 222.035624 296.493884 
L 223.273541 296.554983 
L 224.511458 296.99926 
L 225.749375 297.796212 
L 226.987292 298.872045 
L 228.225209 300.125223 
L 229.463126 301.445023 
L 230.701043 302.729076 
L 231.93896 303.896626 
L 233.176878 304.895612 
L 234.414795 305.703391 
L 235.652712 306.322378 
L 236.890629 306.772702 
L 238.128546 307.084135 
L 239.366463 307.289044 
L 240.60438 307.417385 
L 241.842297 307.493936 
L 243.080214 307.537429 
" style="fill:none;stroke:#348abd;stroke-linecap:square;stroke-width:0.3;"/>
   </g>
   <g id="line2d_31">
    <path clip-path="url(#p43b38661ca)" d="M 79.436644 307.533881 
L 82.659377 307.473059 
L 85.882111 307.350521 
L 89.104845 307.116699 
L 92.327578 306.694201 
L 95.550312 305.971415 
L 98.773045 304.800887 
L 101.995779 303.006483 
L 105.218513 300.40229 
L 108.441246 296.822959 
L 111.66398 292.160256 
L 114.886714 286.395803 
L 118.109447 279.618316 
L 121.332181 272.017258 
L 124.554914 263.853543 
L 127.777648 255.418175 
L 131.000382 246.995654 
L 134.223115 238.846206 
L 137.445849 231.209675 
L 140.668583 224.32017 
L 143.891316 218.413 
L 147.11405 213.709639 
L 150.336783 210.380718 
L 153.559517 208.502732 
L 156.782251 208.031272 
L 160.004984 208.8073 
L 163.227718 210.597167 
L 166.450452 213.151295 
L 169.673185 216.259337 
L 172.895919 219.783835 
L 176.118652 223.665327 
L 179.341386 227.902512 
L 182.56412 232.516872 
L 185.786853 237.512287 
L 189.009587 242.83952 
L 192.232321 248.374974 
L 195.455054 253.921821 
L 198.677788 259.236944 
L 201.900522 264.078725 
L 205.123255 268.261387 
L 208.345989 271.696907 
L 211.568722 274.409025 
L 214.791456 276.514863 
L 218.01419 278.182693 
L 221.236923 279.582935 
L 224.459657 280.849608 
L 227.682391 282.062057 
L 230.905124 283.24688 
L 234.127858 284.392665 
L 237.350591 285.468538 
L 240.573325 286.440466 
L 243.796059 287.283468 
L 247.018792 287.99018 
L 250.241526 288.575712 
L 253.46426 289.077042 
L 256.686993 289.544873 
L 259.909727 290.028127 
L 263.13246 290.555159 
L 266.355194 291.118987 
L 269.577928 291.673878 
L 272.800661 292.147007 
L 276.023395 292.462957 
L 279.246129 292.573179 
L 282.468862 292.479778 
L 285.691596 292.24436 
L 288.914329 291.977758 
L 292.137063 291.813247 
L 295.359797 291.871739 
L 298.58253 292.230154 
L 301.805264 292.902724 
L 305.027998 293.840214 
L 308.250731 294.945913 
L 311.473465 296.102182 
L 314.696198 297.199015 
L 317.918932 298.156754 
L 321.141666 298.938069 
L 324.364399 299.548117 
L 327.587133 300.02508 
L 330.809867 300.425249 
L 334.0326 300.807259 
L 337.255334 301.219238 
L 340.478067 301.691057 
L 343.700801 302.232101 
L 346.923535 302.833632 
L 350.146268 303.473983 
L 353.369002 304.124749 
L 356.591736 304.756521 
L 359.814469 305.343295 
L 363.037203 305.865306 
L 366.259936 306.31035 
L 369.48267 306.67388 
L 372.705404 306.958143 
L 375.928137 307.170661 
L 379.150871 307.322333 
L 382.373605 307.425509 
L 385.596338 307.492305 
L 388.819072 307.533404 
L 392.041805 307.557409 
L 395.264539 307.570704 
L 398.487273 307.577682 
" style="fill:none;stroke:#988ed5;stroke-linecap:square;stroke-width:0.3;"/>
   </g>
   <g id="line2d_32">
    <path clip-path="url(#p43b38661ca)" d="M 110.383165 307.355688 
L 111.516987 307.108116 
L 112.650808 306.64481 
L 113.78463 305.828826 
L 114.918452 304.477699 
L 116.052274 302.377106 
L 117.186096 299.31598 
L 118.319917 295.144092 
L 119.453739 289.843057 
L 120.587561 283.590094 
L 121.721383 276.78617 
L 122.855205 270.02291 
L 123.989026 263.978675 
L 125.122848 259.259782 
L 126.25667 256.227683 
L 127.390492 254.864641 
L 128.524313 254.721891 
L 129.658135 254.968261 
L 130.791957 254.525496 
L 131.925779 252.253222 
L 133.059601 247.139933 
L 134.193422 238.465102 
L 135.327244 225.912769 
L 136.461066 209.629105 
L 137.594888 190.221372 
L 138.72871 168.695883 
L 139.862531 146.334893 
L 140.996353 124.522111 
L 142.130175 104.543489 
L 143.263997 87.406739 
L 144.397818 73.728466 
L 145.53164 63.723188 
L 146.665462 57.294618 
L 147.799284 54.189123 
L 148.933106 54.144 
L 150.066927 56.96526 
L 151.200749 62.502956 
L 152.334571 70.541998 
L 153.468393 80.668539 
L 154.602215 92.186046 
L 155.736036 104.135465 
L 156.869858 115.431257 
L 158.00368 125.079586 
L 159.137502 132.41423 
L 160.271323 137.278152 
L 161.405145 140.092526 
L 162.538967 141.783873 
L 163.672789 143.576793 
L 164.806611 146.6979 
L 165.940432 152.066975 
L 167.074254 160.063045 
L 168.208076 170.437128 
L 169.341898 182.400032 
L 170.475719 194.856323 
L 171.609541 206.706649 
L 172.743363 217.120633 
L 173.877185 225.699652 
L 175.011007 232.494028 
L 176.144828 237.891981 
L 177.27865 242.436384 
L 178.412472 246.637588 
L 179.546294 250.837117 
L 180.680116 255.148944 
L 181.813937 259.476125 
L 182.947759 263.58087 
L 184.081581 267.178601 
L 185.215403 270.028835 
L 186.349224 272.003046 
L 187.483046 273.118246 
L 188.616868 273.533067 
L 189.75069 273.510358 
L 190.884512 273.356721 
L 192.018333 273.354062 
L 193.152155 273.699816 
L 194.285977 274.469985 
L 195.419799 275.612958 
L 196.553621 276.974213 
L 197.687442 278.344933 
L 198.821264 279.522849 
L 199.955086 280.371457 
L 201.088908 280.863674 
L 202.222729 281.098109 
L 203.356551 281.281215 
L 204.490373 281.67712 
L 205.624195 282.5373 
L 206.758017 284.030453 
L 207.891838 286.194672 
L 209.02566 288.927107 
L 210.159482 292.01315 
L 211.293304 295.183302 
L 212.427126 298.177473 
L 213.560947 300.79666 
L 214.694769 302.929589 
L 215.828591 304.552573 
L 216.962413 305.709671 
L 218.096234 306.484208 
L 219.230056 306.971756 
L 220.363878 307.26071 
L 221.4977 307.422106 
L 222.631522 307.507128 
" style="fill:none;stroke:#777777;stroke-linecap:square;stroke-width:0.3;"/>
   </g>
   <g id="line2d_33">
    <path clip-path="url(#p43b38661ca)" d="M 93.567001 307.480529 
L 95.886253 307.402108 
L 98.205506 307.273419 
L 100.524759 307.06884 
L 102.844012 306.753851 
L 105.163264 306.284243 
L 107.482517 305.606514 
L 109.80177 304.660043 
L 112.121022 303.381484 
L 114.440275 301.711533 
L 116.759528 299.603689 
L 119.07878 297.033968 
L 121.398033 294.009945 
L 123.717286 290.577051 
L 126.036539 286.82011 
L 128.355791 282.858723 
L 130.675044 278.836256 
L 132.994297 274.903732 
L 135.313549 271.201426 
L 137.632802 267.841926 
L 139.952055 264.898485 
L 142.271308 262.40147 
L 144.59056 260.343722 
L 146.909813 258.693254 
L 149.229066 257.409624 
L 151.548318 256.459158 
L 153.867571 255.824493 
L 156.186824 255.505603 
L 158.506076 255.512041 
L 160.825329 255.848888 
L 163.144582 256.500869 
L 165.463835 257.419747 
L 167.783087 258.5192 
L 170.10234 259.679263 
L 172.421593 260.75976 
L 174.740845 261.61979 
L 177.060098 262.13891 
L 179.379351 262.235515 
L 181.698604 261.87891 
L 184.017856 261.09326 
L 186.337109 259.953452 
L 188.656362 258.574304 
L 190.975614 257.095373 
L 193.294867 255.663724 
L 195.61412 254.416748 
L 197.933372 253.466696 
L 200.252625 252.888237 
L 202.571878 252.710158 
L 204.891131 252.912126 
L 207.210383 253.427163 
L 209.529636 254.149889 
L 211.848889 254.949781 
L 214.168141 255.687749 
L 216.487394 256.233525 
L 218.806647 256.480998 
L 221.1259 256.358864 
L 223.445152 255.83478 
L 225.764405 254.912557 
L 228.083658 253.623353 
L 230.40291 252.013181 
L 232.722163 250.129802 
L 235.041416 248.012298 
L 237.360669 245.686043 
L 239.679921 243.164615 
L 241.999174 240.458676 
L 244.318427 237.590111 
L 246.637679 234.608307 
L 248.956932 231.604539 
L 251.276185 228.720342 
L 253.595437 226.146554 
L 255.91469 224.111437 
L 258.233943 222.858506 
L 260.553196 222.617032 
L 262.872448 223.570088 
L 265.191701 225.82592 
L 267.510954 229.398097 
L 269.830206 234.198352 
L 272.149459 240.043546 
L 274.468712 246.675468 
L 276.787965 253.789778 
L 279.107217 261.068942 
L 281.42647 268.213749 
L 283.745723 274.968859 
L 286.064975 281.139525 
L 288.384228 286.598599 
L 290.703481 291.284711 
L 293.022733 295.193754 
L 295.341986 298.36635 
L 297.661239 300.873892 
L 299.980492 302.805252 
L 302.299744 304.255528 
L 304.618997 305.317483 
L 306.93825 306.075784 
L 309.257502 306.60374 
L 311.576755 306.962046 
L 313.896008 307.198992 
L 316.215261 307.351604 
L 318.534513 307.447293 
L 320.853766 307.505671 
L 323.173019 307.540309 
" style="fill:none;stroke:#fbc15e;stroke-linecap:square;stroke-width:0.3;"/>
   </g>
   <g id="line2d_34">
    <path clip-path="url(#p43b38661ca)" d="M 73.832727 307.058967 
L 76.209115 306.695754 
L 78.585503 306.124392 
L 80.961891 305.254198 
L 83.338279 303.97148 
L 85.714667 302.142206 
L 88.091055 299.619618 
L 90.467443 296.257792 
L 92.843831 291.931212 
L 95.220219 286.559022 
L 97.596607 280.130975 
L 99.972995 272.730647 
L 102.349383 264.550584 
L 104.725771 255.894342 
L 107.102159 247.161959 
L 109.478547 238.818246 
L 111.854935 231.346823 
L 114.231323 225.196293 
L 116.607711 220.72721 
L 118.984099 218.169034 
L 121.360487 217.594576 
L 123.736875 218.915981 
L 126.113263 221.901899 
L 128.489651 226.21135 
L 130.866039 231.43696 
L 133.242427 237.149405 
L 135.618815 242.936073 
L 137.995203 248.429636 
L 140.371591 253.325373 
L 142.747979 257.388857 
L 145.124367 260.457162 
L 147.500755 262.436939 
L 149.877143 263.301691 
L 152.253531 263.088947 
L 154.629919 261.896538 
L 157.006307 259.876262 
L 159.382695 257.223326 
L 161.759083 254.160847 
L 164.135471 250.920219 
L 166.511859 247.719629 
L 168.888247 244.744058 
L 171.264635 242.130339 
L 173.641023 239.960078 
L 176.017411 238.26177 
L 178.393799 237.02148 
L 180.770187 236.199622 
L 183.146575 235.750063 
L 185.522963 235.637378 
L 187.899351 235.848663 
L 190.275739 236.397717 
L 192.652127 237.321248 
L 195.028515 238.66861 
L 197.404903 240.487851 
L 199.781291 242.81147 
L 202.157679 245.644949 
L 204.534067 248.960187 
L 206.910455 252.694651 
L 209.286843 256.755767 
L 211.663231 261.029103 
L 214.039619 265.388445 
L 216.416007 269.705841 
L 218.792395 273.860127 
L 221.168783 277.743012 
L 223.545171 281.262463 
L 225.921559 284.34369 
L 228.297947 286.928473 
L 230.674335 288.973819 
L 233.050723 290.450998 
L 235.427111 291.345825 
L 237.803499 291.660695 
L 240.179887 291.41826 
L 242.556275 290.666022 
L 244.932663 289.48049 
L 247.309051 287.969258 
L 249.685439 286.269385 
L 252.061827 284.540998 
L 254.438215 282.955974 
L 256.814603 281.682628 
L 259.190991 280.868472 
L 261.567379 280.623752 
L 263.943767 281.00866 
L 266.320155 282.026597 
L 268.696543 283.624807 
L 271.072931 285.702333 
L 273.449319 288.123877 
L 275.825707 290.737121 
L 278.202095 293.390594 
L 280.578483 295.949314 
L 282.954871 298.306152 
L 285.331259 300.387858 
L 287.707647 302.155801 
L 290.084034 303.602329 
L 292.460422 304.744229 
L 294.83681 305.614898 
L 297.213198 306.256661 
L 299.589586 306.714262 
L 301.965974 307.030071 
L 304.342362 307.241115 
L 306.71875 307.377727 
L 309.095138 307.463412 
" style="fill:none;stroke:#8eba42;stroke-linecap:square;stroke-width:0.3;"/>
   </g>
   <g id="patch_3">
    <path d="M 57.6 307.584 
L 57.6 41.472 
" style="fill:none;stroke:#ffffff;stroke-linecap:square;stroke-linejoin:miter;"/>
   </g>
   <g id="patch_4">
    <path d="M 414.72 307.584 
L 414.72 41.472 
" style="fill:none;stroke:#ffffff;stroke-linecap:square;stroke-linejoin:miter;"/>
   </g>
   <g id="patch_5">
    <path d="M 57.6 307.584 
L 414.72 307.584 
" style="fill:none;stroke:#ffffff;stroke-linecap:square;stroke-linejoin:miter;"/>
   </g>
   <g id="patch_6">
    <path d="M 57.6 41.472 
L 414.72 41.472 
" style="fill:none;stroke:#ffffff;stroke-linecap:square;stroke-linejoin:miter;"/>
   </g>
   <g id="text_17">
    <!-- kernel density estimation(Gaussian):b1357;b1358;b1359;b1360;b1361;b1362 -->
    <defs>
     <path d="M 9.078125 75.984375 
L 18.109375 75.984375 
L 18.109375 31.109375 
L 44.921875 54.6875 
L 56.390625 54.6875 
L 27.390625 29.109375 
L 57.625 0 
L 45.90625 0 
L 18.109375 26.703125 
L 18.109375 0 
L 9.078125 0 
z
" id="DejaVuSans-6b"/>
     <path d="M 56.203125 29.59375 
L 56.203125 25.203125 
L 14.890625 25.203125 
Q 15.484375 15.921875 20.484375 11.0625 
Q 25.484375 6.203125 34.421875 6.203125 
Q 39.59375 6.203125 44.453125 7.46875 
Q 49.3125 8.734375 54.109375 11.28125 
L 54.109375 2.78125 
Q 49.265625 0.734375 44.1875 -0.34375 
Q 39.109375 -1.421875 33.890625 -1.421875 
Q 20.796875 -1.421875 13.15625 6.1875 
Q 5.515625 13.8125 5.515625 26.8125 
Q 5.515625 40.234375 12.765625 48.109375 
Q 20.015625 56 32.328125 56 
Q 43.359375 56 49.78125 48.890625 
Q 56.203125 41.796875 56.203125 29.59375 
z
M 47.21875 32.234375 
Q 47.125 39.59375 43.09375 43.984375 
Q 39.0625 48.390625 32.421875 48.390625 
Q 24.90625 48.390625 20.390625 44.140625 
Q 15.875 39.890625 15.1875 32.171875 
z
" id="DejaVuSans-65"/>
     <path d="M 41.109375 46.296875 
Q 39.59375 47.171875 37.8125 47.578125 
Q 36.03125 48 33.890625 48 
Q 26.265625 48 22.1875 43.046875 
Q 18.109375 38.09375 18.109375 28.8125 
L 18.109375 0 
L 9.078125 0 
L 9.078125 54.6875 
L 18.109375 54.6875 
L 18.109375 46.1875 
Q 20.953125 51.171875 25.484375 53.578125 
Q 30.03125 56 36.53125 56 
Q 37.453125 56 38.578125 55.875 
Q 39.703125 55.765625 41.0625 55.515625 
z
" id="DejaVuSans-72"/>
     <path d="M 9.421875 75.984375 
L 18.40625 75.984375 
L 18.40625 0 
L 9.421875 0 
z
" id="DejaVuSans-6c"/>
     <path id="DejaVuSans-20"/>
     <path d="M 45.40625 46.390625 
L 45.40625 75.984375 
L 54.390625 75.984375 
L 54.390625 0 
L 45.40625 0 
L 45.40625 8.203125 
Q 42.578125 3.328125 38.25 0.953125 
Q 33.9375 -1.421875 27.875 -1.421875 
Q 17.96875 -1.421875 11.734375 6.484375 
Q 5.515625 14.40625 5.515625 27.296875 
Q 5.515625 40.1875 11.734375 48.09375 
Q 17.96875 56 27.875 56 
Q 33.9375 56 38.25 53.625 
Q 42.578125 51.265625 45.40625 46.390625 
z
M 14.796875 27.296875 
Q 14.796875 17.390625 18.875 11.75 
Q 22.953125 6.109375 30.078125 6.109375 
Q 37.203125 6.109375 41.296875 11.75 
Q 45.40625 17.390625 45.40625 27.296875 
Q 45.40625 37.203125 41.296875 42.84375 
Q 37.203125 48.484375 30.078125 48.484375 
Q 22.953125 48.484375 18.875 42.84375 
Q 14.796875 37.203125 14.796875 27.296875 
z
" id="DejaVuSans-64"/>
     <path d="M 44.28125 53.078125 
L 44.28125 44.578125 
Q 40.484375 46.53125 36.375 47.5 
Q 32.28125 48.484375 27.875 48.484375 
Q 21.1875 48.484375 17.84375 46.4375 
Q 14.5 44.390625 14.5 40.28125 
Q 14.5 37.15625 16.890625 35.375 
Q 19.28125 33.59375 26.515625 31.984375 
L 29.59375 31.296875 
Q 39.15625 29.25 43.1875 25.515625 
Q 47.21875 21.78125 47.21875 15.09375 
Q 47.21875 7.46875 41.1875 3.015625 
Q 35.15625 -1.421875 24.609375 -1.421875 
Q 20.21875 -1.421875 15.453125 -0.5625 
Q 10.6875 0.296875 5.421875 2 
L 5.421875 11.28125 
Q 10.40625 8.6875 15.234375 7.390625 
Q 20.0625 6.109375 24.8125 6.109375 
Q 31.15625 6.109375 34.5625 8.28125 
Q 37.984375 10.453125 37.984375 14.40625 
Q 37.984375 18.0625 35.515625 20.015625 
Q 33.0625 21.96875 24.703125 23.78125 
L 21.578125 24.515625 
Q 13.234375 26.265625 9.515625 29.90625 
Q 5.8125 33.546875 5.8125 39.890625 
Q 5.8125 47.609375 11.28125 51.796875 
Q 16.75 56 26.8125 56 
Q 31.78125 56 36.171875 55.265625 
Q 40.578125 54.546875 44.28125 53.078125 
z
" id="DejaVuSans-73"/>
     <path d="M 9.421875 54.6875 
L 18.40625 54.6875 
L 18.40625 0 
L 9.421875 0 
z
M 9.421875 75.984375 
L 18.40625 75.984375 
L 18.40625 64.59375 
L 9.421875 64.59375 
z
" id="DejaVuSans-69"/>
     <path d="M 32.171875 -5.078125 
Q 28.375 -14.84375 24.75 -17.8125 
Q 21.140625 -20.796875 15.09375 -20.796875 
L 7.90625 -20.796875 
L 7.90625 -13.28125 
L 13.1875 -13.28125 
Q 16.890625 -13.28125 18.9375 -11.515625 
Q 21 -9.765625 23.484375 -3.21875 
L 25.09375 0.875 
L 2.984375 54.6875 
L 12.5 54.6875 
L 29.59375 11.921875 
L 46.6875 54.6875 
L 56.203125 54.6875 
z
" id="DejaVuSans-79"/>
     <path d="M 52 44.1875 
Q 55.375 50.25 60.0625 53.125 
Q 64.75 56 71.09375 56 
Q 79.640625 56 84.28125 50.015625 
Q 88.921875 44.046875 88.921875 33.015625 
L 88.921875 0 
L 79.890625 0 
L 79.890625 32.71875 
Q 79.890625 40.578125 77.09375 44.375 
Q 74.3125 48.1875 68.609375 48.1875 
Q 61.625 48.1875 57.5625 43.546875 
Q 53.515625 38.921875 53.515625 30.90625 
L 53.515625 0 
L 44.484375 0 
L 44.484375 32.71875 
Q 44.484375 40.625 41.703125 44.40625 
Q 38.921875 48.1875 33.109375 48.1875 
Q 26.21875 48.1875 22.15625 43.53125 
Q 18.109375 38.875 18.109375 30.90625 
L 18.109375 0 
L 9.078125 0 
L 9.078125 54.6875 
L 18.109375 54.6875 
L 18.109375 46.1875 
Q 21.1875 51.21875 25.484375 53.609375 
Q 29.78125 56 35.6875 56 
Q 41.65625 56 45.828125 52.96875 
Q 50 49.953125 52 44.1875 
z
" id="DejaVuSans-6d"/>
     <path d="M 34.28125 27.484375 
Q 23.390625 27.484375 19.1875 25 
Q 14.984375 22.515625 14.984375 16.5 
Q 14.984375 11.71875 18.140625 8.90625 
Q 21.296875 6.109375 26.703125 6.109375 
Q 34.1875 6.109375 38.703125 11.40625 
Q 43.21875 16.703125 43.21875 25.484375 
L 43.21875 27.484375 
z
M 52.203125 31.203125 
L 52.203125 0 
L 43.21875 0 
L 43.21875 8.296875 
Q 40.140625 3.328125 35.546875 0.953125 
Q 30.953125 -1.421875 24.3125 -1.421875 
Q 15.921875 -1.421875 10.953125 3.296875 
Q 6 8.015625 6 15.921875 
Q 6 25.140625 12.171875 29.828125 
Q 18.359375 34.515625 30.609375 34.515625 
L 43.21875 34.515625 
L 43.21875 35.40625 
Q 43.21875 41.609375 39.140625 45 
Q 35.0625 48.390625 27.6875 48.390625 
Q 23 48.390625 18.546875 47.265625 
Q 14.109375 46.140625 10.015625 43.890625 
L 10.015625 52.203125 
Q 14.9375 54.109375 19.578125 55.046875 
Q 24.21875 56 28.609375 56 
Q 40.484375 56 46.34375 49.84375 
Q 52.203125 43.703125 52.203125 31.203125 
z
" id="DejaVuSans-61"/>
     <path d="M 59.515625 10.40625 
L 59.515625 29.984375 
L 43.40625 29.984375 
L 43.40625 38.09375 
L 69.28125 38.09375 
L 69.28125 6.78125 
Q 63.578125 2.734375 56.6875 0.65625 
Q 49.8125 -1.421875 42 -1.421875 
Q 24.90625 -1.421875 15.25 8.5625 
Q 5.609375 18.5625 5.609375 36.375 
Q 5.609375 54.25 15.25 64.234375 
Q 24.90625 74.21875 42 74.21875 
Q 49.125 74.21875 55.546875 72.453125 
Q 61.96875 70.703125 67.390625 67.28125 
L 67.390625 56.78125 
Q 61.921875 61.421875 55.765625 63.765625 
Q 49.609375 66.109375 42.828125 66.109375 
Q 29.4375 66.109375 22.71875 58.640625 
Q 16.015625 51.171875 16.015625 36.375 
Q 16.015625 21.625 22.71875 14.15625 
Q 29.4375 6.6875 42.828125 6.6875 
Q 48.046875 6.6875 52.140625 7.59375 
Q 56.25 8.5 59.515625 10.40625 
z
" id="DejaVuSans-47"/>
     <path d="M 11.71875 12.40625 
L 22.015625 12.40625 
L 22.015625 0 
L 11.71875 0 
z
M 11.71875 51.703125 
L 22.015625 51.703125 
L 22.015625 39.3125 
L 11.71875 39.3125 
z
" id="DejaVuSans-3a"/>
     <path d="M 48.6875 27.296875 
Q 48.6875 37.203125 44.609375 42.84375 
Q 40.53125 48.484375 33.40625 48.484375 
Q 26.265625 48.484375 22.1875 42.84375 
Q 18.109375 37.203125 18.109375 27.296875 
Q 18.109375 17.390625 22.1875 11.75 
Q 26.265625 6.109375 33.40625 6.109375 
Q 40.53125 6.109375 44.609375 11.75 
Q 48.6875 17.390625 48.6875 27.296875 
z
M 18.109375 46.390625 
Q 20.953125 51.265625 25.265625 53.625 
Q 29.59375 56 35.59375 56 
Q 45.5625 56 51.78125 48.09375 
Q 58.015625 40.1875 58.015625 27.296875 
Q 58.015625 14.40625 51.78125 6.484375 
Q 45.5625 -1.421875 35.59375 -1.421875 
Q 29.59375 -1.421875 25.265625 0.953125 
Q 20.953125 3.328125 18.109375 8.203125 
L 18.109375 0 
L 9.078125 0 
L 9.078125 75.984375 
L 18.109375 75.984375 
z
" id="DejaVuSans-62"/>
     <path d="M 11.71875 51.703125 
L 22.015625 51.703125 
L 22.015625 39.3125 
L 11.71875 39.3125 
z
M 11.71875 12.40625 
L 22.015625 12.40625 
L 22.015625 4 
L 14.015625 -11.625 
L 7.71875 -11.625 
L 11.71875 4 
z
" id="DejaVuSans-3b"/>
     <path d="M 31.78125 34.625 
Q 24.75 34.625 20.71875 30.859375 
Q 16.703125 27.09375 16.703125 20.515625 
Q 16.703125 13.921875 20.71875 10.15625 
Q 24.75 6.390625 31.78125 6.390625 
Q 38.8125 6.390625 42.859375 10.171875 
Q 46.921875 13.96875 46.921875 20.515625 
Q 46.921875 27.09375 42.890625 30.859375 
Q 38.875 34.625 31.78125 34.625 
z
M 21.921875 38.8125 
Q 15.578125 40.375 12.03125 44.71875 
Q 8.5 49.078125 8.5 55.328125 
Q 8.5 64.0625 14.71875 69.140625 
Q 20.953125 74.21875 31.78125 74.21875 
Q 42.671875 74.21875 48.875 69.140625 
Q 55.078125 64.0625 55.078125 55.328125 
Q 55.078125 49.078125 51.53125 44.71875 
Q 48 40.375 41.703125 38.8125 
Q 48.828125 37.15625 52.796875 32.3125 
Q 56.78125 27.484375 56.78125 20.515625 
Q 56.78125 9.90625 50.3125 4.234375 
Q 43.84375 -1.421875 31.78125 -1.421875 
Q 19.734375 -1.421875 13.25 4.234375 
Q 6.78125 9.90625 6.78125 20.515625 
Q 6.78125 27.484375 10.78125 32.3125 
Q 14.796875 37.15625 21.921875 38.8125 
z
M 18.3125 54.390625 
Q 18.3125 48.734375 21.84375 45.5625 
Q 25.390625 42.390625 31.78125 42.390625 
Q 38.140625 42.390625 41.71875 45.5625 
Q 45.3125 48.734375 45.3125 54.390625 
Q 45.3125 60.0625 41.71875 63.234375 
Q 38.140625 66.40625 31.78125 66.40625 
Q 25.390625 66.40625 21.84375 63.234375 
Q 18.3125 60.0625 18.3125 54.390625 
z
" id="DejaVuSans-38"/>
     <path d="M 10.984375 1.515625 
L 10.984375 10.5 
Q 14.703125 8.734375 18.5 7.8125 
Q 22.3125 6.890625 25.984375 6.890625 
Q 35.75 6.890625 40.890625 13.453125 
Q 46.046875 20.015625 46.78125 33.40625 
Q 43.953125 29.203125 39.59375 26.953125 
Q 35.25 24.703125 29.984375 24.703125 
Q 19.046875 24.703125 12.671875 31.3125 
Q 6.296875 37.9375 6.296875 49.421875 
Q 6.296875 60.640625 12.9375 67.421875 
Q 19.578125 74.21875 30.609375 74.21875 
Q 43.265625 74.21875 49.921875 64.515625 
Q 56.59375 54.828125 56.59375 36.375 
Q 56.59375 19.140625 48.40625 8.859375 
Q 40.234375 -1.421875 26.421875 -1.421875 
Q 22.703125 -1.421875 18.890625 -0.6875 
Q 15.09375 0.046875 10.984375 1.515625 
z
M 30.609375 32.421875 
Q 37.25 32.421875 41.125 36.953125 
Q 45.015625 41.5 45.015625 49.421875 
Q 45.015625 57.28125 41.125 61.84375 
Q 37.25 66.40625 30.609375 66.40625 
Q 23.96875 66.40625 20.09375 61.84375 
Q 16.21875 57.28125 16.21875 49.421875 
Q 16.21875 41.5 20.09375 36.953125 
Q 23.96875 32.421875 30.609375 32.421875 
z
" id="DejaVuSans-39"/>
     <path d="M 33.015625 40.375 
Q 26.375 40.375 22.484375 35.828125 
Q 18.609375 31.296875 18.609375 23.390625 
Q 18.609375 15.53125 22.484375 10.953125 
Q 26.375 6.390625 33.015625 6.390625 
Q 39.65625 6.390625 43.53125 10.953125 
Q 47.40625 15.53125 47.40625 23.390625 
Q 47.40625 31.296875 43.53125 35.828125 
Q 39.65625 40.375 33.015625 40.375 
z
M 52.59375 71.296875 
L 52.59375 62.3125 
Q 48.875 64.0625 45.09375 64.984375 
Q 41.3125 65.921875 37.59375 65.921875 
Q 27.828125 65.921875 22.671875 59.328125 
Q 17.53125 52.734375 16.796875 39.40625 
Q 19.671875 43.65625 24.015625 45.921875 
Q 28.375 48.1875 33.59375 48.1875 
Q 44.578125 48.1875 50.953125 41.515625 
Q 57.328125 34.859375 57.328125 23.390625 
Q 57.328125 12.15625 50.6875 5.359375 
Q 44.046875 -1.421875 33.015625 -1.421875 
Q 20.359375 -1.421875 13.671875 8.265625 
Q 6.984375 17.96875 6.984375 36.375 
Q 6.984375 53.65625 15.1875 63.9375 
Q 23.390625 74.21875 37.203125 74.21875 
Q 40.921875 74.21875 44.703125 73.484375 
Q 48.484375 72.75 52.59375 71.296875 
z
" id="DejaVuSans-36"/>
    </defs>
    <g transform="translate(-46.1565 35.472)scale(0.144 -0.144)">
     <use xlink:href="#DejaVuSans-6b"/>
     <use x="57.863281" xlink:href="#DejaVuSans-65"/>
     <use x="119.386719" xlink:href="#DejaVuSans-72"/>
     <use x="160.484375" xlink:href="#DejaVuSans-6e"/>
     <use x="223.863281" xlink:href="#DejaVuSans-65"/>
     <use x="285.386719" xlink:href="#DejaVuSans-6c"/>
     <use x="313.169922" xlink:href="#DejaVuSans-20"/>
     <use x="344.957031" xlink:href="#DejaVuSans-64"/>
     <use x="408.433594" xlink:href="#DejaVuSans-65"/>
     <use x="469.957031" xlink:href="#DejaVuSans-6e"/>
     <use x="533.335938" xlink:href="#DejaVuSans-73"/>
     <use x="585.435547" xlink:href="#DejaVuSans-69"/>
     <use x="613.21875" xlink:href="#DejaVuSans-74"/>
     <use x="652.427734" xlink:href="#DejaVuSans-79"/>
     <use x="711.607422" xlink:href="#DejaVuSans-20"/>
     <use x="743.394531" xlink:href="#DejaVuSans-65"/>
     <use x="804.917969" xlink:href="#DejaVuSans-73"/>
     <use x="857.017578" xlink:href="#DejaVuSans-74"/>
     <use x="896.226562" xlink:href="#DejaVuSans-69"/>
     <use x="924.009766" xlink:href="#DejaVuSans-6d"/>
     <use x="1021.421875" xlink:href="#DejaVuSans-61"/>
     <use x="1082.701172" xlink:href="#DejaVuSans-74"/>
     <use x="1121.910156" xlink:href="#DejaVuSans-69"/>
     <use x="1149.693359" xlink:href="#DejaVuSans-6f"/>
     <use x="1210.875" xlink:href="#DejaVuSans-6e"/>
     <use x="1274.253906" xlink:href="#DejaVuSans-28"/>
     <use x="1313.267578" xlink:href="#DejaVuSans-47"/>
     <use x="1390.757812" xlink:href="#DejaVuSans-61"/>
     <use x="1452.037109" xlink:href="#DejaVuSans-75"/>
     <use x="1515.416016" xlink:href="#DejaVuSans-73"/>
     <use x="1567.515625" xlink:href="#DejaVuSans-73"/>
     <use x="1619.615234" xlink:href="#DejaVuSans-69"/>
     <use x="1647.398438" xlink:href="#DejaVuSans-61"/>
     <use x="1708.677734" xlink:href="#DejaVuSans-6e"/>
     <use x="1772.056641" xlink:href="#DejaVuSans-29"/>
     <use x="1811.070312" xlink:href="#DejaVuSans-3a"/>
     <use x="1844.761719" xlink:href="#DejaVuSans-62"/>
     <use x="1908.238281" xlink:href="#DejaVuSans-31"/>
     <use x="1971.861328" xlink:href="#DejaVuSans-33"/>
     <use x="2035.484375" xlink:href="#DejaVuSans-35"/>
     <use x="2099.107422" xlink:href="#DejaVuSans-37"/>
     <use x="2162.730469" xlink:href="#DejaVuSans-3b"/>
     <use x="2196.421875" xlink:href="#DejaVuSans-62"/>
     <use x="2259.898438" xlink:href="#DejaVuSans-31"/>
     <use x="2323.521484" xlink:href="#DejaVuSans-33"/>
     <use x="2387.144531" xlink:href="#DejaVuSans-35"/>
     <use x="2450.767578" xlink:href="#DejaVuSans-38"/>
     <use x="2514.390625" xlink:href="#DejaVuSans-3b"/>
     <use x="2548.082031" xlink:href="#DejaVuSans-62"/>
     <use x="2611.558594" xlink:href="#DejaVuSans-31"/>
     <use x="2675.181641" xlink:href="#DejaVuSans-33"/>
     <use x="2738.804688" xlink:href="#DejaVuSans-35"/>
     <use x="2802.427734" xlink:href="#DejaVuSans-39"/>
     <use x="2866.050781" xlink:href="#DejaVuSans-3b"/>
     <use x="2899.742188" xlink:href="#DejaVuSans-62"/>
     <use x="2963.21875" xlink:href="#DejaVuSans-31"/>
     <use x="3026.841797" xlink:href="#DejaVuSans-33"/>
     <use x="3090.464844" xlink:href="#DejaVuSans-36"/>
     <use x="3154.087891" xlink:href="#DejaVuSans-30"/>
     <use x="3217.710938" xlink:href="#DejaVuSans-3b"/>
     <use x="3251.402344" xlink:href="#DejaVuSans-62"/>
     <use x="3314.878906" xlink:href="#DejaVuSans-31"/>
     <use x="3378.501953" xlink:href="#DejaVuSans-33"/>
     <use x="3442.125" xlink:href="#DejaVuSans-36"/>
     <use x="3505.748047" xlink:href="#DejaVuSans-31"/>
     <use x="3569.371094" xlink:href="#DejaVuSans-3b"/>
     <use x="3603.0625" xlink:href="#DejaVuSans-62"/>
     <use x="3666.539062" xlink:href="#DejaVuSans-31"/>
     <use x="3730.162109" xlink:href="#DejaVuSans-33"/>
     <use x="3793.785156" xlink:href="#DejaVuSans-36"/>
     <use x="3857.408203" xlink:href="#DejaVuSans-32"/>
    </g>
   </g>
   <g id="legend_1">
    <g id="patch_7">
     <path d="M 343.921563 137.54075 
L 407.72 137.54075 
Q 409.72 137.54075 409.72 135.54075 
L 409.72 48.472 
Q 409.72 46.472 407.72 46.472 
L 343.921563 46.472 
Q 341.921563 46.472 341.921563 48.472 
L 341.921563 135.54075 
Q 341.921563 137.54075 343.921563 137.54075 
z
" style="fill:#e5e5e5;opacity:0.8;stroke:#cccccc;stroke-linejoin:miter;stroke-width:0.5;"/>
    </g>
    <g id="line2d_35">
     <path d="M 345.921563 54.570438 
L 365.921563 54.570438 
" style="fill:none;stroke:#e24a33;stroke-linecap:square;stroke-width:0.3;"/>
    </g>
    <g id="line2d_36"/>
    <g id="text_18">
     <!-- b1357 -->
     <g transform="translate(373.921563 58.070438)scale(0.1 -0.1)">
      <use xlink:href="#DejaVuSans-62"/>
      <use x="63.476562" xlink:href="#DejaVuSans-31"/>
      <use x="127.099609" xlink:href="#DejaVuSans-33"/>
      <use x="190.722656" xlink:href="#DejaVuSans-35"/>
      <use x="254.345703" xlink:href="#DejaVuSans-37"/>
     </g>
    </g>
    <g id="line2d_37">
     <path d="M 345.921563 69.248563 
L 365.921563 69.248563 
" style="fill:none;stroke:#348abd;stroke-linecap:square;stroke-width:0.3;"/>
    </g>
    <g id="line2d_38"/>
    <g id="text_19">
     <!-- b1358 -->
     <g transform="translate(373.921563 72.748563)scale(0.1 -0.1)">
      <use xlink:href="#DejaVuSans-62"/>
      <use x="63.476562" xlink:href="#DejaVuSans-31"/>
      <use x="127.099609" xlink:href="#DejaVuSans-33"/>
      <use x="190.722656" xlink:href="#DejaVuSans-35"/>
      <use x="254.345703" xlink:href="#DejaVuSans-38"/>
     </g>
    </g>
    <g id="line2d_39">
     <path d="M 345.921563 83.926688 
L 365.921563 83.926688 
" style="fill:none;stroke:#988ed5;stroke-linecap:square;stroke-width:0.3;"/>
    </g>
    <g id="line2d_40"/>
    <g id="text_20">
     <!-- b1359 -->
     <g transform="translate(373.921563 87.426688)scale(0.1 -0.1)">
      <use xlink:href="#DejaVuSans-62"/>
      <use x="63.476562" xlink:href="#DejaVuSans-31"/>
      <use x="127.099609" xlink:href="#DejaVuSans-33"/>
      <use x="190.722656" xlink:href="#DejaVuSans-35"/>
      <use x="254.345703" xlink:href="#DejaVuSans-39"/>
     </g>
    </g>
    <g id="line2d_41">
     <path d="M 345.921563 98.604813 
L 365.921563 98.604813 
" style="fill:none;stroke:#777777;stroke-linecap:square;stroke-width:0.3;"/>
    </g>
    <g id="line2d_42"/>
    <g id="text_21">
     <!-- b1360 -->
     <g transform="translate(373.921563 102.104813)scale(0.1 -0.1)">
      <use xlink:href="#DejaVuSans-62"/>
      <use x="63.476562" xlink:href="#DejaVuSans-31"/>
      <use x="127.099609" xlink:href="#DejaVuSans-33"/>
      <use x="190.722656" xlink:href="#DejaVuSans-36"/>
      <use x="254.345703" xlink:href="#DejaVuSans-30"/>
     </g>
    </g>
    <g id="line2d_43">
     <path d="M 345.921563 113.282938 
L 365.921563 113.282938 
" style="fill:none;stroke:#fbc15e;stroke-linecap:square;stroke-width:0.3;"/>
    </g>
    <g id="line2d_44"/>
    <g id="text_22">
     <!-- b1361 -->
     <g transform="translate(373.921563 116.782938)scale(0.1 -0.1)">
      <use xlink:href="#DejaVuSans-62"/>
      <use x="63.476562" xlink:href="#DejaVuSans-31"/>
      <use x="127.099609" xlink:href="#DejaVuSans-33"/>
      <use x="190.722656" xlink:href="#DejaVuSans-36"/>
      <use x="254.345703" xlink:href="#DejaVuSans-31"/>
     </g>
    </g>
    <g id="line2d_45">
     <path d="M 345.921563 127.961063 
L 365.921563 127.961063 
" style="fill:none;stroke:#8eba42;stroke-linecap:square;stroke-width:0.3;"/>
    </g>
    <g id="line2d_46"/>
    <g id="text_23">
     <!-- b1362 -->
     <g transform="translate(373.921563 131.461063)scale(0.1 -0.1)">
      <use xlink:href="#DejaVuSans-62"/>
      <use x="63.476562" xlink:href="#DejaVuSans-31"/>
      <use x="127.099609" xlink:href="#DejaVuSans-33"/>
      <use x="190.722656" xlink:href="#DejaVuSans-36"/>
      <use x="254.345703" xlink:href="#DejaVuSans-32"/>
     </g>
    </g>
   </g>
  </g>
 </g>
 <defs>
  <clipPath id="p43b38661ca">
   <rect height="266.112" width="357.12" x="57.6" y="41.472"/>
  </clipPath>
 </defs>
</svg>
