<?xml version="1.0" encoding="utf-8" standalone="no"?>
<!DOCTYPE svg PUBLIC "-//W3C//DTD SVG 1.1//EN"
  "http://www.w3.org/Graphics/SVG/1.1/DTD/svg11.dtd">
<!-- Created with matplotlib (http://matplotlib.org/) -->
<svg height="345pt" version="1.1" viewBox="0 0 460 345" width="460pt" xmlns="http://www.w3.org/2000/svg" xmlns:xlink="http://www.w3.org/1999/xlink">
 <defs>
  <style type="text/css">
*{stroke-linecap:butt;stroke-linejoin:round;}
  </style>
 </defs>
 <g id="figure_1">
  <g id="patch_1">
   <path d="M 0 345.6 
L 460.8 345.6 
L 460.8 0 
L 0 0 
z
" style="fill:#ffffff;"/>
  </g>
  <g id="axes_1">
   <g id="patch_2">
    <path d="M 57.6 307.584 
L 414.72 307.584 
L 414.72 41.472 
L 57.6 41.472 
z
" style="fill:#e5e5e5;"/>
   </g>
   <g id="matplotlib.axis_1">
    <g id="xtick_1">
     <g id="line2d_1">
      <path clip-path="url(#pf77ea5d875)" d="M 115.031354 307.584 
L 115.031354 41.472 
" style="fill:none;stroke:#ffffff;stroke-linecap:square;stroke-width:0.8;"/>
     </g>
     <g id="line2d_2">
      <defs>
       <path d="M 0 0 
L 0 3.5 
" id="m4c70350f93" style="stroke:#555555;stroke-width:0.8;"/>
      </defs>
      <g>
       <use style="fill:#555555;stroke:#555555;stroke-width:0.8;" x="115.031354" xlink:href="#m4c70350f93" y="307.584"/>
      </g>
     </g>
     <g id="text_1">
      <!-- 0 -->
      <defs>
       <path d="M 31.78125 66.40625 
Q 24.171875 66.40625 20.328125 58.90625 
Q 16.5 51.421875 16.5 36.375 
Q 16.5 21.390625 20.328125 13.890625 
Q 24.171875 6.390625 31.78125 6.390625 
Q 39.453125 6.390625 43.28125 13.890625 
Q 47.125 21.390625 47.125 36.375 
Q 47.125 51.421875 43.28125 58.90625 
Q 39.453125 66.40625 31.78125 66.40625 
z
M 31.78125 74.21875 
Q 44.046875 74.21875 50.515625 64.515625 
Q 56.984375 54.828125 56.984375 36.375 
Q 56.984375 17.96875 50.515625 8.265625 
Q 44.046875 -1.421875 31.78125 -1.421875 
Q 19.53125 -1.421875 13.0625 8.265625 
Q 6.59375 17.96875 6.59375 36.375 
Q 6.59375 54.828125 13.0625 64.515625 
Q 19.53125 74.21875 31.78125 74.21875 
z
" id="DejaVuSans-30"/>
      </defs>
      <g style="fill:#555555;" transform="translate(111.850104 322.182437)scale(0.1 -0.1)">
       <use xlink:href="#DejaVuSans-30"/>
      </g>
     </g>
    </g>
    <g id="xtick_2">
     <g id="line2d_3">
      <path clip-path="url(#pf77ea5d875)" d="M 183.458626 307.584 
L 183.458626 41.472 
" style="fill:none;stroke:#ffffff;stroke-linecap:square;stroke-width:0.8;"/>
     </g>
     <g id="line2d_4">
      <g>
       <use style="fill:#555555;stroke:#555555;stroke-width:0.8;" x="183.458626" xlink:href="#m4c70350f93" y="307.584"/>
      </g>
     </g>
     <g id="text_2">
      <!-- 200 -->
      <defs>
       <path d="M 19.1875 8.296875 
L 53.609375 8.296875 
L 53.609375 0 
L 7.328125 0 
L 7.328125 8.296875 
Q 12.9375 14.109375 22.625 23.890625 
Q 32.328125 33.6875 34.8125 36.53125 
Q 39.546875 41.84375 41.421875 45.53125 
Q 43.3125 49.21875 43.3125 52.78125 
Q 43.3125 58.59375 39.234375 62.25 
Q 35.15625 65.921875 28.609375 65.921875 
Q 23.96875 65.921875 18.8125 64.3125 
Q 13.671875 62.703125 7.8125 59.421875 
L 7.8125 69.390625 
Q 13.765625 71.78125 18.9375 73 
Q 24.125 74.21875 28.421875 74.21875 
Q 39.75 74.21875 46.484375 68.546875 
Q 53.21875 62.890625 53.21875 53.421875 
Q 53.21875 48.921875 51.53125 44.890625 
Q 49.859375 40.875 45.40625 35.40625 
Q 44.1875 33.984375 37.640625 27.21875 
Q 31.109375 20.453125 19.1875 8.296875 
z
" id="DejaVuSans-32"/>
      </defs>
      <g style="fill:#555555;" transform="translate(173.914876 322.182437)scale(0.1 -0.1)">
       <use xlink:href="#DejaVuSans-32"/>
       <use x="63.623047" xlink:href="#DejaVuSans-30"/>
       <use x="127.246094" xlink:href="#DejaVuSans-30"/>
      </g>
     </g>
    </g>
    <g id="xtick_3">
     <g id="line2d_5">
      <path clip-path="url(#pf77ea5d875)" d="M 251.885898 307.584 
L 251.885898 41.472 
" style="fill:none;stroke:#ffffff;stroke-linecap:square;stroke-width:0.8;"/>
     </g>
     <g id="line2d_6">
      <g>
       <use style="fill:#555555;stroke:#555555;stroke-width:0.8;" x="251.885898" xlink:href="#m4c70350f93" y="307.584"/>
      </g>
     </g>
     <g id="text_3">
      <!-- 400 -->
      <defs>
       <path d="M 37.796875 64.3125 
L 12.890625 25.390625 
L 37.796875 25.390625 
z
M 35.203125 72.90625 
L 47.609375 72.90625 
L 47.609375 25.390625 
L 58.015625 25.390625 
L 58.015625 17.1875 
L 47.609375 17.1875 
L 47.609375 0 
L 37.796875 0 
L 37.796875 17.1875 
L 4.890625 17.1875 
L 4.890625 26.703125 
z
" id="DejaVuSans-34"/>
      </defs>
      <g style="fill:#555555;" transform="translate(242.342148 322.182437)scale(0.1 -0.1)">
       <use xlink:href="#DejaVuSans-34"/>
       <use x="63.623047" xlink:href="#DejaVuSans-30"/>
       <use x="127.246094" xlink:href="#DejaVuSans-30"/>
      </g>
     </g>
    </g>
    <g id="xtick_4">
     <g id="line2d_7">
      <path clip-path="url(#pf77ea5d875)" d="M 320.31317 307.584 
L 320.31317 41.472 
" style="fill:none;stroke:#ffffff;stroke-linecap:square;stroke-width:0.8;"/>
     </g>
     <g id="line2d_8">
      <g>
       <use style="fill:#555555;stroke:#555555;stroke-width:0.8;" x="320.31317" xlink:href="#m4c70350f93" y="307.584"/>
      </g>
     </g>
     <g id="text_4">
      <!-- 600 -->
      <defs>
       <path d="M 33.015625 40.375 
Q 26.375 40.375 22.484375 35.828125 
Q 18.609375 31.296875 18.609375 23.390625 
Q 18.609375 15.53125 22.484375 10.953125 
Q 26.375 6.390625 33.015625 6.390625 
Q 39.65625 6.390625 43.53125 10.953125 
Q 47.40625 15.53125 47.40625 23.390625 
Q 47.40625 31.296875 43.53125 35.828125 
Q 39.65625 40.375 33.015625 40.375 
z
M 52.59375 71.296875 
L 52.59375 62.3125 
Q 48.875 64.0625 45.09375 64.984375 
Q 41.3125 65.921875 37.59375 65.921875 
Q 27.828125 65.921875 22.671875 59.328125 
Q 17.53125 52.734375 16.796875 39.40625 
Q 19.671875 43.65625 24.015625 45.921875 
Q 28.375 48.1875 33.59375 48.1875 
Q 44.578125 48.1875 50.953125 41.515625 
Q 57.328125 34.859375 57.328125 23.390625 
Q 57.328125 12.15625 50.6875 5.359375 
Q 44.046875 -1.421875 33.015625 -1.421875 
Q 20.359375 -1.421875 13.671875 8.265625 
Q 6.984375 17.96875 6.984375 36.375 
Q 6.984375 53.65625 15.1875 63.9375 
Q 23.390625 74.21875 37.203125 74.21875 
Q 40.921875 74.21875 44.703125 73.484375 
Q 48.484375 72.75 52.59375 71.296875 
z
" id="DejaVuSans-36"/>
      </defs>
      <g style="fill:#555555;" transform="translate(310.76942 322.182437)scale(0.1 -0.1)">
       <use xlink:href="#DejaVuSans-36"/>
       <use x="63.623047" xlink:href="#DejaVuSans-30"/>
       <use x="127.246094" xlink:href="#DejaVuSans-30"/>
      </g>
     </g>
    </g>
    <g id="xtick_5">
     <g id="line2d_9">
      <path clip-path="url(#pf77ea5d875)" d="M 388.740442 307.584 
L 388.740442 41.472 
" style="fill:none;stroke:#ffffff;stroke-linecap:square;stroke-width:0.8;"/>
     </g>
     <g id="line2d_10">
      <g>
       <use style="fill:#555555;stroke:#555555;stroke-width:0.8;" x="388.740442" xlink:href="#m4c70350f93" y="307.584"/>
      </g>
     </g>
     <g id="text_5">
      <!-- 800 -->
      <defs>
       <path d="M 31.78125 34.625 
Q 24.75 34.625 20.71875 30.859375 
Q 16.703125 27.09375 16.703125 20.515625 
Q 16.703125 13.921875 20.71875 10.15625 
Q 24.75 6.390625 31.78125 6.390625 
Q 38.8125 6.390625 42.859375 10.171875 
Q 46.921875 13.96875 46.921875 20.515625 
Q 46.921875 27.09375 42.890625 30.859375 
Q 38.875 34.625 31.78125 34.625 
z
M 21.921875 38.8125 
Q 15.578125 40.375 12.03125 44.71875 
Q 8.5 49.078125 8.5 55.328125 
Q 8.5 64.0625 14.71875 69.140625 
Q 20.953125 74.21875 31.78125 74.21875 
Q 42.671875 74.21875 48.875 69.140625 
Q 55.078125 64.0625 55.078125 55.328125 
Q 55.078125 49.078125 51.53125 44.71875 
Q 48 40.375 41.703125 38.8125 
Q 48.828125 37.15625 52.796875 32.3125 
Q 56.78125 27.484375 56.78125 20.515625 
Q 56.78125 9.90625 50.3125 4.234375 
Q 43.84375 -1.421875 31.78125 -1.421875 
Q 19.734375 -1.421875 13.25 4.234375 
Q 6.78125 9.90625 6.78125 20.515625 
Q 6.78125 27.484375 10.78125 32.3125 
Q 14.796875 37.15625 21.921875 38.8125 
z
M 18.3125 54.390625 
Q 18.3125 48.734375 21.84375 45.5625 
Q 25.390625 42.390625 31.78125 42.390625 
Q 38.140625 42.390625 41.71875 45.5625 
Q 45.3125 48.734375 45.3125 54.390625 
Q 45.3125 60.0625 41.71875 63.234375 
Q 38.140625 66.40625 31.78125 66.40625 
Q 25.390625 66.40625 21.84375 63.234375 
Q 18.3125 60.0625 18.3125 54.390625 
z
" id="DejaVuSans-38"/>
      </defs>
      <g style="fill:#555555;" transform="translate(379.196692 322.182437)scale(0.1 -0.1)">
       <use xlink:href="#DejaVuSans-38"/>
       <use x="63.623047" xlink:href="#DejaVuSans-30"/>
       <use x="127.246094" xlink:href="#DejaVuSans-30"/>
      </g>
     </g>
    </g>
    <g id="text_6">
     <!-- count -->
     <defs>
      <path d="M 48.78125 52.59375 
L 48.78125 44.1875 
Q 44.96875 46.296875 41.140625 47.34375 
Q 37.3125 48.390625 33.40625 48.390625 
Q 24.65625 48.390625 19.8125 42.84375 
Q 14.984375 37.3125 14.984375 27.296875 
Q 14.984375 17.28125 19.8125 11.734375 
Q 24.65625 6.203125 33.40625 6.203125 
Q 37.3125 6.203125 41.140625 7.25 
Q 44.96875 8.296875 48.78125 10.40625 
L 48.78125 2.09375 
Q 45.015625 0.34375 40.984375 -0.53125 
Q 36.96875 -1.421875 32.421875 -1.421875 
Q 20.0625 -1.421875 12.78125 6.34375 
Q 5.515625 14.109375 5.515625 27.296875 
Q 5.515625 40.671875 12.859375 48.328125 
Q 20.21875 56 33.015625 56 
Q 37.15625 56 41.109375 55.140625 
Q 45.0625 54.296875 48.78125 52.59375 
z
" id="DejaVuSans-63"/>
      <path d="M 30.609375 48.390625 
Q 23.390625 48.390625 19.1875 42.75 
Q 14.984375 37.109375 14.984375 27.296875 
Q 14.984375 17.484375 19.15625 11.84375 
Q 23.34375 6.203125 30.609375 6.203125 
Q 37.796875 6.203125 41.984375 11.859375 
Q 46.1875 17.53125 46.1875 27.296875 
Q 46.1875 37.015625 41.984375 42.703125 
Q 37.796875 48.390625 30.609375 48.390625 
z
M 30.609375 56 
Q 42.328125 56 49.015625 48.375 
Q 55.71875 40.765625 55.71875 27.296875 
Q 55.71875 13.875 49.015625 6.21875 
Q 42.328125 -1.421875 30.609375 -1.421875 
Q 18.84375 -1.421875 12.171875 6.21875 
Q 5.515625 13.875 5.515625 27.296875 
Q 5.515625 40.765625 12.171875 48.375 
Q 18.84375 56 30.609375 56 
z
" id="DejaVuSans-6f"/>
      <path d="M 8.5 21.578125 
L 8.5 54.6875 
L 17.484375 54.6875 
L 17.484375 21.921875 
Q 17.484375 14.15625 20.5 10.265625 
Q 23.53125 6.390625 29.59375 6.390625 
Q 36.859375 6.390625 41.078125 11.03125 
Q 45.3125 15.671875 45.3125 23.6875 
L 45.3125 54.6875 
L 54.296875 54.6875 
L 54.296875 0 
L 45.3125 0 
L 45.3125 8.40625 
Q 42.046875 3.421875 37.71875 1 
Q 33.40625 -1.421875 27.6875 -1.421875 
Q 18.265625 -1.421875 13.375 4.4375 
Q 8.5 10.296875 8.5 21.578125 
z
M 31.109375 56 
z
" id="DejaVuSans-75"/>
      <path d="M 54.890625 33.015625 
L 54.890625 0 
L 45.90625 0 
L 45.90625 32.71875 
Q 45.90625 40.484375 42.875 44.328125 
Q 39.84375 48.1875 33.796875 48.1875 
Q 26.515625 48.1875 22.3125 43.546875 
Q 18.109375 38.921875 18.109375 30.90625 
L 18.109375 0 
L 9.078125 0 
L 9.078125 54.6875 
L 18.109375 54.6875 
L 18.109375 46.1875 
Q 21.34375 51.125 25.703125 53.5625 
Q 30.078125 56 35.796875 56 
Q 45.21875 56 50.046875 50.171875 
Q 54.890625 44.34375 54.890625 33.015625 
z
" id="DejaVuSans-6e"/>
      <path d="M 18.3125 70.21875 
L 18.3125 54.6875 
L 36.8125 54.6875 
L 36.8125 47.703125 
L 18.3125 47.703125 
L 18.3125 18.015625 
Q 18.3125 11.328125 20.140625 9.421875 
Q 21.96875 7.515625 27.59375 7.515625 
L 36.8125 7.515625 
L 36.8125 0 
L 27.59375 0 
Q 17.1875 0 13.234375 3.875 
Q 9.28125 7.765625 9.28125 18.015625 
L 9.28125 47.703125 
L 2.6875 47.703125 
L 2.6875 54.6875 
L 9.28125 54.6875 
L 9.28125 70.21875 
z
" id="DejaVuSans-74"/>
     </defs>
     <g style="fill:#555555;" transform="translate(219.2325 337.38025)scale(0.12 -0.12)">
      <use xlink:href="#DejaVuSans-63"/>
      <use x="54.980469" xlink:href="#DejaVuSans-6f"/>
      <use x="116.162109" xlink:href="#DejaVuSans-75"/>
      <use x="179.541016" xlink:href="#DejaVuSans-6e"/>
      <use x="242.919922" xlink:href="#DejaVuSans-74"/>
     </g>
    </g>
   </g>
   <g id="matplotlib.axis_2">
    <g id="ytick_1">
     <g id="line2d_11">
      <path clip-path="url(#pf77ea5d875)" d="M 57.6 307.584 
L 414.72 307.584 
" style="fill:none;stroke:#ffffff;stroke-linecap:square;stroke-width:0.8;"/>
     </g>
     <g id="line2d_12">
      <defs>
       <path d="M 0 0 
L -3.5 0 
" id="m10588ab9eb" style="stroke:#555555;stroke-width:0.8;"/>
      </defs>
      <g>
       <use style="fill:#555555;stroke:#555555;stroke-width:0.8;" x="57.6" xlink:href="#m10588ab9eb" y="307.584"/>
      </g>
     </g>
     <g id="text_7">
      <!-- 0.00 -->
      <defs>
       <path d="M 10.6875 12.40625 
L 21 12.40625 
L 21 0 
L 10.6875 0 
z
" id="DejaVuSans-2e"/>
      </defs>
      <g style="fill:#555555;" transform="translate(28.334375 311.383219)scale(0.1 -0.1)">
       <use xlink:href="#DejaVuSans-30"/>
       <use x="63.623047" xlink:href="#DejaVuSans-2e"/>
       <use x="95.410156" xlink:href="#DejaVuSans-30"/>
       <use x="159.033203" xlink:href="#DejaVuSans-30"/>
      </g>
     </g>
    </g>
    <g id="ytick_2">
     <g id="line2d_13">
      <path clip-path="url(#pf77ea5d875)" d="M 57.6 266.324202 
L 414.72 266.324202 
" style="fill:none;stroke:#ffffff;stroke-linecap:square;stroke-width:0.8;"/>
     </g>
     <g id="line2d_14">
      <g>
       <use style="fill:#555555;stroke:#555555;stroke-width:0.8;" x="57.6" xlink:href="#m10588ab9eb" y="266.324202"/>
      </g>
     </g>
     <g id="text_8">
      <!-- 0.01 -->
      <defs>
       <path d="M 12.40625 8.296875 
L 28.515625 8.296875 
L 28.515625 63.921875 
L 10.984375 60.40625 
L 10.984375 69.390625 
L 28.421875 72.90625 
L 38.28125 72.90625 
L 38.28125 8.296875 
L 54.390625 8.296875 
L 54.390625 0 
L 12.40625 0 
z
" id="DejaVuSans-31"/>
      </defs>
      <g style="fill:#555555;" transform="translate(28.334375 270.12342)scale(0.1 -0.1)">
       <use xlink:href="#DejaVuSans-30"/>
       <use x="63.623047" xlink:href="#DejaVuSans-2e"/>
       <use x="95.410156" xlink:href="#DejaVuSans-30"/>
       <use x="159.033203" xlink:href="#DejaVuSans-31"/>
      </g>
     </g>
    </g>
    <g id="ytick_3">
     <g id="line2d_15">
      <path clip-path="url(#pf77ea5d875)" d="M 57.6 225.064403 
L 414.72 225.064403 
" style="fill:none;stroke:#ffffff;stroke-linecap:square;stroke-width:0.8;"/>
     </g>
     <g id="line2d_16">
      <g>
       <use style="fill:#555555;stroke:#555555;stroke-width:0.8;" x="57.6" xlink:href="#m10588ab9eb" y="225.064403"/>
      </g>
     </g>
     <g id="text_9">
      <!-- 0.02 -->
      <g style="fill:#555555;" transform="translate(28.334375 228.863622)scale(0.1 -0.1)">
       <use xlink:href="#DejaVuSans-30"/>
       <use x="63.623047" xlink:href="#DejaVuSans-2e"/>
       <use x="95.410156" xlink:href="#DejaVuSans-30"/>
       <use x="159.033203" xlink:href="#DejaVuSans-32"/>
      </g>
     </g>
    </g>
    <g id="ytick_4">
     <g id="line2d_17">
      <path clip-path="url(#pf77ea5d875)" d="M 57.6 183.804605 
L 414.72 183.804605 
" style="fill:none;stroke:#ffffff;stroke-linecap:square;stroke-width:0.8;"/>
     </g>
     <g id="line2d_18">
      <g>
       <use style="fill:#555555;stroke:#555555;stroke-width:0.8;" x="57.6" xlink:href="#m10588ab9eb" y="183.804605"/>
      </g>
     </g>
     <g id="text_10">
      <!-- 0.03 -->
      <defs>
       <path d="M 40.578125 39.3125 
Q 47.65625 37.796875 51.625 33 
Q 55.609375 28.21875 55.609375 21.1875 
Q 55.609375 10.40625 48.1875 4.484375 
Q 40.765625 -1.421875 27.09375 -1.421875 
Q 22.515625 -1.421875 17.65625 -0.515625 
Q 12.796875 0.390625 7.625 2.203125 
L 7.625 11.71875 
Q 11.71875 9.328125 16.59375 8.109375 
Q 21.484375 6.890625 26.8125 6.890625 
Q 36.078125 6.890625 40.9375 10.546875 
Q 45.796875 14.203125 45.796875 21.1875 
Q 45.796875 27.640625 41.28125 31.265625 
Q 36.765625 34.90625 28.71875 34.90625 
L 20.21875 34.90625 
L 20.21875 43.015625 
L 29.109375 43.015625 
Q 36.375 43.015625 40.234375 45.921875 
Q 44.09375 48.828125 44.09375 54.296875 
Q 44.09375 59.90625 40.109375 62.90625 
Q 36.140625 65.921875 28.71875 65.921875 
Q 24.65625 65.921875 20.015625 65.03125 
Q 15.375 64.15625 9.8125 62.3125 
L 9.8125 71.09375 
Q 15.4375 72.65625 20.34375 73.4375 
Q 25.25 74.21875 29.59375 74.21875 
Q 40.828125 74.21875 47.359375 69.109375 
Q 53.90625 64.015625 53.90625 55.328125 
Q 53.90625 49.265625 50.4375 45.09375 
Q 46.96875 40.921875 40.578125 39.3125 
z
" id="DejaVuSans-33"/>
      </defs>
      <g style="fill:#555555;" transform="translate(28.334375 187.603823)scale(0.1 -0.1)">
       <use xlink:href="#DejaVuSans-30"/>
       <use x="63.623047" xlink:href="#DejaVuSans-2e"/>
       <use x="95.410156" xlink:href="#DejaVuSans-30"/>
       <use x="159.033203" xlink:href="#DejaVuSans-33"/>
      </g>
     </g>
    </g>
    <g id="ytick_5">
     <g id="line2d_19">
      <path clip-path="url(#pf77ea5d875)" d="M 57.6 142.544806 
L 414.72 142.544806 
" style="fill:none;stroke:#ffffff;stroke-linecap:square;stroke-width:0.8;"/>
     </g>
     <g id="line2d_20">
      <g>
       <use style="fill:#555555;stroke:#555555;stroke-width:0.8;" x="57.6" xlink:href="#m10588ab9eb" y="142.544806"/>
      </g>
     </g>
     <g id="text_11">
      <!-- 0.04 -->
      <g style="fill:#555555;" transform="translate(28.334375 146.344025)scale(0.1 -0.1)">
       <use xlink:href="#DejaVuSans-30"/>
       <use x="63.623047" xlink:href="#DejaVuSans-2e"/>
       <use x="95.410156" xlink:href="#DejaVuSans-30"/>
       <use x="159.033203" xlink:href="#DejaVuSans-34"/>
      </g>
     </g>
    </g>
    <g id="ytick_6">
     <g id="line2d_21">
      <path clip-path="url(#pf77ea5d875)" d="M 57.6 101.285008 
L 414.72 101.285008 
" style="fill:none;stroke:#ffffff;stroke-linecap:square;stroke-width:0.8;"/>
     </g>
     <g id="line2d_22">
      <g>
       <use style="fill:#555555;stroke:#555555;stroke-width:0.8;" x="57.6" xlink:href="#m10588ab9eb" y="101.285008"/>
      </g>
     </g>
     <g id="text_12">
      <!-- 0.05 -->
      <defs>
       <path d="M 10.796875 72.90625 
L 49.515625 72.90625 
L 49.515625 64.59375 
L 19.828125 64.59375 
L 19.828125 46.734375 
Q 21.96875 47.46875 24.109375 47.828125 
Q 26.265625 48.1875 28.421875 48.1875 
Q 40.625 48.1875 47.75 41.5 
Q 54.890625 34.8125 54.890625 23.390625 
Q 54.890625 11.625 47.5625 5.09375 
Q 40.234375 -1.421875 26.90625 -1.421875 
Q 22.3125 -1.421875 17.546875 -0.640625 
Q 12.796875 0.140625 7.71875 1.703125 
L 7.71875 11.625 
Q 12.109375 9.234375 16.796875 8.0625 
Q 21.484375 6.890625 26.703125 6.890625 
Q 35.15625 6.890625 40.078125 11.328125 
Q 45.015625 15.765625 45.015625 23.390625 
Q 45.015625 31 40.078125 35.4375 
Q 35.15625 39.890625 26.703125 39.890625 
Q 22.75 39.890625 18.8125 39.015625 
Q 14.890625 38.140625 10.796875 36.28125 
z
" id="DejaVuSans-35"/>
      </defs>
      <g style="fill:#555555;" transform="translate(28.334375 105.084226)scale(0.1 -0.1)">
       <use xlink:href="#DejaVuSans-30"/>
       <use x="63.623047" xlink:href="#DejaVuSans-2e"/>
       <use x="95.410156" xlink:href="#DejaVuSans-30"/>
       <use x="159.033203" xlink:href="#DejaVuSans-35"/>
      </g>
     </g>
    </g>
    <g id="ytick_7">
     <g id="line2d_23">
      <path clip-path="url(#pf77ea5d875)" d="M 57.6 60.025209 
L 414.72 60.025209 
" style="fill:none;stroke:#ffffff;stroke-linecap:square;stroke-width:0.8;"/>
     </g>
     <g id="line2d_24">
      <g>
       <use style="fill:#555555;stroke:#555555;stroke-width:0.8;" x="57.6" xlink:href="#m10588ab9eb" y="60.025209"/>
      </g>
     </g>
     <g id="text_13">
      <!-- 0.06 -->
      <g style="fill:#555555;" transform="translate(28.334375 63.824428)scale(0.1 -0.1)">
       <use xlink:href="#DejaVuSans-30"/>
       <use x="63.623047" xlink:href="#DejaVuSans-2e"/>
       <use x="95.410156" xlink:href="#DejaVuSans-30"/>
       <use x="159.033203" xlink:href="#DejaVuSans-36"/>
      </g>
     </g>
    </g>
    <g id="text_14">
     <!-- f(count) -->
     <defs>
      <path d="M 37.109375 75.984375 
L 37.109375 68.5 
L 28.515625 68.5 
Q 23.6875 68.5 21.796875 66.546875 
Q 19.921875 64.59375 19.921875 59.515625 
L 19.921875 54.6875 
L 34.71875 54.6875 
L 34.71875 47.703125 
L 19.921875 47.703125 
L 19.921875 0 
L 10.890625 0 
L 10.890625 47.703125 
L 2.296875 47.703125 
L 2.296875 54.6875 
L 10.890625 54.6875 
L 10.890625 58.5 
Q 10.890625 67.625 15.140625 71.796875 
Q 19.390625 75.984375 28.609375 75.984375 
z
" id="DejaVuSans-66"/>
      <path d="M 31 75.875 
Q 24.46875 64.65625 21.28125 53.65625 
Q 18.109375 42.671875 18.109375 31.390625 
Q 18.109375 20.125 21.3125 9.0625 
Q 24.515625 -2 31 -13.1875 
L 23.1875 -13.1875 
Q 15.875 -1.703125 12.234375 9.375 
Q 8.59375 20.453125 8.59375 31.390625 
Q 8.59375 42.28125 12.203125 53.3125 
Q 15.828125 64.359375 23.1875 75.875 
z
" id="DejaVuSans-28"/>
      <path d="M 8.015625 75.875 
L 15.828125 75.875 
Q 23.140625 64.359375 26.78125 53.3125 
Q 30.421875 42.28125 30.421875 31.390625 
Q 30.421875 20.453125 26.78125 9.375 
Q 23.140625 -1.703125 15.828125 -13.1875 
L 8.015625 -13.1875 
Q 14.5 -2 17.703125 9.0625 
Q 20.90625 20.125 20.90625 31.390625 
Q 20.90625 42.671875 17.703125 53.65625 
Q 14.5 64.65625 8.015625 75.875 
z
" id="DejaVuSans-29"/>
     </defs>
     <g style="fill:#555555;" transform="translate(21.83875 198.249562)rotate(-90)scale(0.12 -0.12)">
      <use xlink:href="#DejaVuSans-66"/>
      <use x="35.205078" xlink:href="#DejaVuSans-28"/>
      <use x="74.21875" xlink:href="#DejaVuSans-63"/>
      <use x="129.199219" xlink:href="#DejaVuSans-6f"/>
      <use x="190.380859" xlink:href="#DejaVuSans-75"/>
      <use x="253.759766" xlink:href="#DejaVuSans-6e"/>
      <use x="317.138672" xlink:href="#DejaVuSans-74"/>
      <use x="356.347656" xlink:href="#DejaVuSans-29"/>
     </g>
    </g>
   </g>
   <g id="line2d_25">
    <path clip-path="url(#pf77ea5d875)" d="M 94.205849 307.574693 
L 96.568794 307.560566 
L 98.93174 307.528648 
L 101.294686 307.461306 
L 103.657632 307.328653 
L 106.020578 307.084717 
L 108.383524 306.66595 
L 110.74647 305.994662 
L 113.109416 304.989302 
L 115.472362 303.58118 
L 117.835308 301.733712 
L 120.198254 299.457443 
L 122.561199 296.814009 
L 124.924145 293.906154 
L 127.287091 290.857405 
L 129.650037 287.790511 
L 132.012983 284.814661 
L 134.375929 282.026651 
L 136.738875 279.523274 
L 139.101821 277.415518 
L 141.464767 275.833529 
L 143.827713 274.915265 
L 146.190659 274.77934 
L 148.553605 275.490355 
L 150.91655 277.029761 
L 153.279496 279.284917 
L 155.642442 282.063153 
L 158.005388 285.128056 
L 160.368334 288.245995 
L 162.73128 291.226551 
L 165.094226 293.943745 
L 167.457172 296.334374 
L 169.820118 298.380145 
L 172.183064 300.086081 
L 174.54601 301.465976 
L 176.908956 302.538691 
L 179.271901 303.331781 
L 181.634847 303.885625 
L 183.997793 304.252818 
L 186.360739 304.491885 
L 188.723685 304.658144 
L 191.086631 304.795824 
L 193.449577 304.934346 
L 195.812523 305.089287 
L 198.175469 305.266411 
L 200.538415 305.466234 
L 202.901361 305.687028 
L 205.264307 305.925537 
L 207.627252 306.17615 
L 209.990198 306.430039 
L 212.353144 306.675549 
L 214.71609 306.900123 
L 217.079036 307.093 
L 219.441982 307.247486 
L 221.804928 307.361861 
L 224.167874 307.438735 
L 226.53082 307.483285 
L 228.893766 307.501097 
L 231.256712 307.496195 
L 233.619657 307.469616 
L 235.982603 307.41879 
L 238.345549 307.33797 
L 240.708495 307.219989 
L 243.071441 307.059249 
L 245.434387 306.855205 
L 247.797333 306.614929 
L 250.160279 306.353269 
L 252.523225 306.089973 
L 254.886171 305.844789 
L 257.249117 305.632897 
L 259.612063 305.463045 
L 261.975008 305.339179 
L 264.337954 305.263977 
L 266.7009 305.241343 
L 269.063846 305.275569 
L 271.426792 305.367317 
L 273.789738 305.509031 
L 276.152684 305.683168 
L 278.51563 305.865124 
L 280.878576 306.030014 
L 283.241522 306.160324 
L 285.604468 306.251006 
L 287.967414 306.310013 
L 290.330359 306.354377 
L 292.693305 306.403775 
L 295.056251 306.474116 
L 297.419197 306.573284 
L 299.782143 306.699974 
L 302.145089 306.845368 
L 304.508035 306.996578 
L 306.870981 307.140456 
L 309.233927 307.266641 
L 311.596873 307.369169 
L 313.959819 307.44661 
L 316.322764 307.501102 
L 318.68571 307.536867 
L 321.048656 307.558778 
L 323.411602 307.571311 
L 325.774548 307.578004 
L 328.137494 307.581342 
" style="fill:none;stroke:#e24a33;stroke-linecap:square;stroke-width:0.3;"/>
   </g>
   <g id="line2d_26">
    <path clip-path="url(#pf77ea5d875)" d="M 109.331913 307.465278 
L 109.937794 307.365941 
L 110.543675 307.197493 
L 111.149557 306.922828 
L 111.755438 306.49236 
L 112.361319 305.844226 
L 112.9672 304.907286 
L 113.573082 303.607854 
L 114.178963 301.880503 
L 114.784844 299.682321 
L 115.390725 297.008627 
L 115.996607 293.906939 
L 116.602488 290.485257 
L 117.208369 286.910936 
L 117.814251 283.397947 
L 118.420132 280.182811 
L 119.026013 277.492536 
L 119.631894 275.510474 
L 120.237776 274.347273 
L 120.843657 274.023534 
L 121.449538 274.468302 
L 122.055419 275.533887 
L 122.661301 277.023651 
L 123.267182 278.726512 
L 123.873063 280.450663 
L 124.478945 282.04966 
L 125.084826 283.436248 
L 125.690707 284.58236 
L 126.296588 285.506825 
L 126.90247 286.254818 
L 127.508351 286.874467 
L 128.114232 287.396166 
L 128.720113 287.819136 
L 129.325995 288.107871 
L 129.931876 288.198709 
L 130.537757 288.014438 
L 131.143638 287.483098 
L 131.74952 286.556271 
L 132.355401 285.222529 
L 132.961282 283.513028 
L 133.567164 281.498311 
L 134.173045 279.277463 
L 134.778926 276.962476 
L 135.384807 274.661471 
L 135.990689 272.464265 
L 136.59657 270.432796 
L 137.202451 268.59746 
L 137.808332 266.959047 
L 138.414214 265.494882 
L 139.020095 264.167341 
L 139.625976 262.932999 
L 140.231858 261.75106 
L 140.837739 260.590341 
L 141.44362 259.434477 
L 142.049501 258.28528 
L 142.655383 257.164227 
L 143.261264 256.111971 
L 143.867145 255.185762 
L 144.473026 254.454769 
L 145.078908 253.993551 
L 145.684789 253.874274 
L 146.29067 254.158556 
L 146.896551 254.889974 
L 147.502433 256.088248 
L 148.108314 257.745898 
L 148.714195 259.827895 
L 149.320077 262.274443 
L 149.925958 265.006681 
L 150.531839 267.93464 
L 151.13772 270.966413 
L 151.743602 274.017147 
L 152.349483 277.016374 
L 152.955364 279.912457 
L 153.561245 282.673481 
L 154.167127 285.284744 
L 154.773008 287.743813 
L 155.378889 290.0546 
L 155.984771 292.221997 
L 156.590652 294.248252 
L 157.196533 296.131553 
L 157.802414 297.866631 
L 158.408296 299.446666 
L 159.014177 300.865599 
L 159.620058 302.120102 
L 160.225939 303.210763 
L 160.831821 304.142414 
L 161.437702 304.923761 
L 162.043583 305.566612 
L 162.649464 306.08495 
L 163.255346 306.494031 
L 163.861227 306.809582 
L 164.467108 307.047102 
L 165.07299 307.221279 
L 165.678871 307.345514 
L 166.284752 307.431579 
L 166.890633 307.489407 
L 167.496515 307.52705 
L 168.102396 307.550766 
L 168.708277 307.565215 
L 169.314158 307.573722 
" style="fill:none;stroke:#348abd;stroke-linecap:square;stroke-width:0.3;"/>
   </g>
   <g id="line2d_27">
    <path clip-path="url(#pf77ea5d875)" d="M 111.301753 307.575582 
L 111.878207 307.563991 
L 112.454662 307.53938 
L 113.031116 307.490567 
L 113.60757 307.400067 
L 114.184025 307.243083 
L 114.760479 306.987895 
L 115.336933 306.598194 
L 115.913387 306.036982 
L 116.489842 305.270532 
L 117.066296 304.270044 
L 117.64275 303.009032 
L 118.219205 301.456379 
L 118.795659 299.567804 
L 119.372113 297.280551 
L 119.948567 294.516118 
L 120.525022 291.193377 
L 121.101476 287.250511 
L 121.67793 282.670603 
L 122.254385 277.503658 
L 122.830839 271.878032 
L 123.407293 265.99646 
L 123.983747 260.115745 
L 124.560202 254.513528 
L 125.136656 249.448936 
L 125.71311 245.125014 
L 126.289565 241.659796 
L 126.866019 239.070914 
L 127.442473 237.277124 
L 128.018927 236.118664 
L 128.595382 235.395559 
L 129.171836 234.917749 
L 129.74829 234.555147 
L 130.324745 234.272941 
L 130.901199 234.140792 
L 131.477653 234.31334 
L 132.054107 234.98936 
L 132.630562 236.363075 
L 133.207016 238.581115 
L 133.78347 241.713725 
L 134.359924 245.742431 
L 134.936379 250.561429 
L 135.512833 255.98783 
L 136.089287 261.776384 
L 136.665742 267.636525 
L 137.242196 273.252183 
L 137.81865 278.306569 
L 138.395104 282.514002 
L 138.971559 285.658215 
L 139.548013 287.631988 
L 140.124467 288.467842 
L 140.700922 288.346855 
L 141.277376 287.575276 
L 141.85383 286.527725 
L 142.430284 285.568686 
L 143.006739 284.974786 
L 143.583193 284.882472 
L 144.159647 285.277052 
L 144.736102 286.023357 
L 145.312556 286.923568 
L 145.88901 287.780801 
L 146.465464 288.449543 
L 147.041919 288.862504 
L 147.618373 289.032451 
L 148.194827 289.033961 
L 148.771282 288.973311 
L 149.347736 288.955993 
L 149.92419 289.060663 
L 150.500644 289.325364 
L 151.077099 289.746909 
L 151.653553 290.289699 
L 152.230007 290.898489 
L 152.806462 291.511453 
L 153.382916 292.073001 
L 153.95937 292.546958 
L 154.535824 292.928585 
L 155.112279 293.250723 
L 155.688733 293.57869 
L 156.265187 293.992495 
L 156.841641 294.561622 
L 157.418096 295.322612 
L 157.99455 296.269136 
L 158.571004 297.358207 
L 159.147459 298.528142 
L 159.723913 299.71871 
L 160.300367 300.884378 
L 160.876821 301.996718 
L 161.453276 303.038389 
L 162.02973 303.994922 
L 162.606184 304.850043 
L 163.182639 305.586722 
L 163.759093 306.192171 
L 164.335547 306.663005 
L 164.912001 307.007423 
L 165.488456 307.243484 
L 166.06491 307.394707 
L 166.641364 307.485119 
L 167.217819 307.535527 
L 167.794273 307.561723 
L 168.370727 307.574409 
" style="fill:none;stroke:#988ed5;stroke-linecap:square;stroke-width:0.3;"/>
   </g>
   <g id="line2d_28">
    <path clip-path="url(#pf77ea5d875)" d="M 103.003677 307.564082 
L 104.366379 307.545711 
L 105.729081 307.51313 
L 107.091784 307.457678 
L 108.454486 307.367146 
L 109.817189 307.225409 
L 111.179891 307.012725 
L 112.542593 306.707019 
L 113.905296 306.286417 
L 115.267998 305.733031 
L 116.6307 305.03759 
L 117.993403 304.204101 
L 119.356105 303.25333 
L 120.718808 302.223801 
L 122.08151 301.169303 
L 123.444212 300.152566 
L 124.806915 299.235765 
L 126.169617 298.469503 
L 127.532319 297.882598 
L 128.895022 297.475144 
L 130.257724 297.2167 
L 131.620427 297.05037 
L 132.983129 296.90213 
L 134.345831 296.693566 
L 135.708534 296.355488 
L 137.071236 295.839846 
L 138.433939 295.127947 
L 139.796641 294.233888 
L 141.159343 293.202986 
L 142.522046 292.105699 
L 143.884748 291.027855 
L 145.24745 290.058263 
L 146.610153 289.275021 
L 147.972855 288.732246 
L 149.335558 288.449449 
L 150.69826 288.40598 
L 152.060962 288.542662 
L 153.423665 288.771535 
L 154.786367 288.992781 
L 156.149069 289.115826 
L 157.511772 289.079948 
L 158.874474 288.869231 
L 160.237177 288.517636 
L 161.599879 288.10228 
L 162.962581 287.726024 
L 164.325284 287.493405 
L 165.687986 287.485799 
L 167.050688 287.741984 
L 168.413391 288.248811 
L 169.776093 288.944018 
L 171.138796 289.730015 
L 172.501498 290.494736 
L 173.8642 291.134133 
L 175.226903 291.570858 
L 176.589605 291.765186 
L 177.952307 291.716625 
L 179.31501 291.457236 
L 180.677712 291.039778 
L 182.040415 290.524653 
L 183.403117 289.969353 
L 184.765819 289.422677 
L 186.128522 288.9241 
L 187.491224 288.506947 
L 188.853927 288.202909 
L 190.216629 288.045372 
L 191.579331 288.069767 
L 192.942034 288.310468 
L 194.304736 288.795062 
L 195.667438 289.537776 
L 197.030141 290.534092 
L 198.392843 291.758211 
L 199.755546 293.164188 
L 201.118248 294.690589 
L 202.48095 296.267692 
L 203.843653 297.82575 
L 205.206355 299.302778 
L 206.569057 300.650574 
L 207.93176 301.838166 
L 209.294462 302.852453 
L 210.657165 303.69634 
L 212.019867 304.385038 
L 213.382569 304.941421 
L 214.745272 305.391343 
L 216.107974 305.759653 
L 217.470676 306.067411 
L 218.833379 306.330462 
L 220.196081 306.559291 
L 221.558784 306.759811 
L 222.921486 306.934709 
L 224.284188 307.084908 
L 225.646891 307.210826 
L 227.009593 307.313251 
L 228.372296 307.393757 
L 229.734998 307.454735 
L 231.0977 307.499168 
L 232.460403 307.530281 
L 233.823105 307.551202 
L 235.185807 307.564705 
L 236.54851 307.573068 
L 237.911212 307.578038 
" style="fill:none;stroke:#777777;stroke-linecap:square;stroke-width:0.3;"/>
   </g>
   <g id="line2d_29">
    <path clip-path="url(#pf77ea5d875)" d="M 113.125053 307.486754 
L 113.668129 307.42532 
L 114.211205 307.330142 
L 114.75428 307.185804 
L 115.297356 306.971564 
L 115.840432 306.660353 
L 116.383508 306.217974 
L 116.926584 305.602704 
L 117.46966 304.765543 
L 118.012736 303.651361 
L 118.555812 302.201155 
L 119.098887 300.355538 
L 119.641963 298.059446 
L 120.185039 295.267845 
L 120.728115 291.952017 
L 121.271191 288.105793 
L 121.814267 283.750945 
L 122.357343 278.940918 
L 122.900418 273.762141 
L 123.443494 268.332385 
L 123.98657 262.795988 
L 124.529646 257.316179 
L 125.072722 252.065164 
L 125.615798 247.213014 
L 126.158874 242.916562 
L 126.70195 239.30959 
L 127.245025 236.495324 
L 127.788101 234.541976 
L 128.331177 233.481527 
L 128.874253 233.311532 
L 129.417329 233.999297 
L 129.960405 235.487545 
L 130.503481 237.700616 
L 131.046557 240.55037 
L 131.589632 243.941193 
L 132.132708 247.77382 
L 132.675784 251.947983 
L 133.21886 256.364127 
L 133.761936 260.924536 
L 134.305012 265.534257 
L 134.848088 270.102081 
L 135.391163 274.541736 
L 135.934239 278.773276 
L 136.477315 282.724539 
L 137.020391 286.332484 
L 137.563467 289.544203 
L 138.106543 292.317478 
L 138.649619 294.62084 
L 139.192695 296.433183 
L 139.73577 297.743072 
L 140.278846 298.547951 
L 140.821922 298.853433 
L 141.364998 298.672813 
L 141.908074 298.026877 
L 142.45115 296.943963 
L 142.994226 295.46015 
L 143.537302 293.61941 
L 144.080377 291.473512 
L 144.623453 289.081529 
L 145.166529 286.508872 
L 145.709605 283.825849 
L 146.252681 281.105867 
L 146.795757 278.423423 
L 147.338833 275.852086 
L 147.881908 273.462608 
L 148.424984 271.321257 
L 148.96806 269.488376 
L 149.511136 268.017106 
L 150.054212 266.952145 
L 150.597288 266.328482 
L 151.140364 266.170033 
L 151.68344 266.488252 
L 152.226515 267.280865 
L 152.769591 268.530947 
L 153.312667 270.2066 
L 153.855743 272.261468 
L 154.398819 274.636226 
L 154.941895 277.261065 
L 155.484971 280.059038 
L 156.028047 282.950026 
L 156.571122 285.854959 
L 157.114198 288.699908 
L 157.657274 291.419673 
L 158.20035 293.960551 
L 158.743426 296.282099 
L 159.286502 298.357803 
L 159.829578 300.174703 
L 160.372653 301.732129 
L 160.915729 303.039771 
L 161.458805 304.115342 
L 162.001881 304.982101 
L 162.544957 305.666467 
L 163.088033 306.195909 
L 163.631109 306.597222 
L 164.174185 306.89526 
L 164.71726 307.112113 
L 165.260336 307.26669 
L 165.803412 307.374631 
L 166.346488 307.448465 
L 166.889564 307.497934 
" style="fill:none;stroke:#fbc15e;stroke-linecap:square;stroke-width:0.3;"/>
   </g>
   <g id="line2d_30">
    <path clip-path="url(#pf77ea5d875)" d="M 110.951008 307.549532 
L 111.534548 307.515912 
L 112.118088 307.455189 
L 112.701628 307.350566 
L 113.285169 307.178652 
L 113.868709 306.909325 
L 114.452249 306.507171 
L 115.035789 305.93502 
L 115.619329 305.159699 
L 116.202869 304.159329 
L 116.786409 302.9307 
L 117.369949 301.494622 
L 117.953489 299.897163 
L 118.537029 298.205485 
L 119.120569 296.498528 
L 119.704109 294.854503 
L 120.287649 293.338428 
L 120.871189 291.993017 
L 121.454729 290.835144 
L 122.038269 289.858101 
L 122.621809 289.037891 
L 123.205349 288.340793 
L 123.788889 287.729683 
L 124.372429 287.168015 
L 124.955969 286.622052 
L 125.539509 286.062921 
L 126.123049 285.469855 
L 126.706589 284.834607 
L 127.290129 284.165295 
L 127.873669 283.486891 
L 128.457209 282.835939 
L 129.04075 282.249019 
L 129.62429 281.747243 
L 130.20783 281.32151 
L 130.79137 280.924237 
L 131.37491 280.472088 
L 131.95845 279.861114 
L 132.54199 278.991682 
L 133.12553 277.796999 
L 133.70907 276.267341 
L 134.29261 274.462861 
L 134.87615 272.510822 
L 135.45969 270.587302 
L 136.04323 268.887365 
L 136.62677 267.590264 
L 137.21031 266.826954 
L 137.79385 266.656065 
L 138.37739 267.052368 
L 138.96093 267.909212 
L 139.54447 269.054014 
L 140.12801 270.273842 
L 140.71155 271.346482 
L 141.29509 272.071311 
L 141.87863 272.294235 
L 142.46217 271.922084 
L 143.04571 270.924528 
L 143.62925 269.325027 
L 144.21279 267.185652 
L 144.79633 264.592339 
L 145.379871 261.64632 
L 145.963411 258.464183 
L 146.546951 255.18444 
L 147.130491 251.974648 
L 147.714031 249.031959 
L 148.297571 246.572164 
L 148.881111 244.807052 
L 149.464651 243.915133 
L 150.048191 244.014026 
L 150.631731 245.142731 
L 151.215271 247.258602 
L 151.798811 250.248881 
L 152.382351 253.952174 
L 152.965891 258.183094 
L 153.549431 262.753901 
L 154.132971 267.489497 
L 154.716511 272.235322 
L 155.300051 276.859991 
L 155.883591 281.255364 
L 156.467131 285.336247 
L 157.050671 289.040669 
L 157.634211 292.330443 
L 158.217751 295.191089 
L 158.801291 297.630177 
L 159.384831 299.673675 
L 159.968371 301.360627 
L 160.551911 302.737036 
L 161.135451 303.850097 
L 161.718992 304.743755 
L 162.302532 305.456133 
L 162.886072 306.018819 
L 163.469612 306.457545 
L 164.053152 306.793545 
L 164.636692 307.044961 
L 165.220232 307.227831 
L 165.803772 307.356559 
L 166.387312 307.443937 
L 166.970852 307.500968 
L 167.554392 307.536684 
L 168.137932 307.558112 
L 168.721472 307.570413 
" style="fill:none;stroke:#8eba42;stroke-linecap:square;stroke-width:0.3;"/>
   </g>
   <g id="line2d_31">
    <path clip-path="url(#pf77ea5d875)" d="M 107.192098 307.468715 
L 107.789369 307.361619 
L 108.38664 307.171126 
L 108.983911 306.846169 
L 109.581182 306.314767 
L 110.178453 305.482168 
L 110.775724 304.233148 
L 111.372995 302.440658 
L 111.970266 299.982377 
L 112.567537 296.765053 
L 113.164808 292.753974 
L 113.762079 288.001939 
L 114.35935 282.669818 
L 114.956621 277.030259 
L 115.553892 271.448304 
L 116.151163 266.33766 
L 116.748434 262.098182 
L 117.345705 259.046615 
L 117.942976 257.356618 
L 118.540247 257.023518 
L 119.137518 257.86395 
L 119.734789 259.5518 
L 120.33206 261.682322 
L 120.929331 263.849145 
L 121.526602 265.716096 
L 122.123873 267.068092 
L 122.721144 267.831577 
L 123.318415 268.062959 
L 123.915686 267.910929 
L 124.512957 267.56354 
L 125.110228 267.192969 
L 125.707499 266.909989 
L 126.30477 266.737124 
L 126.902041 266.605128 
L 127.499312 266.372652 
L 128.096583 265.864361 
L 128.693854 264.919176 
L 129.291125 263.438123 
L 129.888396 261.421201 
L 130.485667 258.984696 
L 131.082938 256.354426 
L 131.680209 253.835587 
L 132.27748 251.765147 
L 132.874751 250.456712 
L 133.472022 250.149424 
L 134.069293 250.971219 
L 134.666564 252.923066 
L 135.263835 255.885656 
L 135.861106 259.644949 
L 136.458377 263.929435 
L 137.055648 268.450693 
L 137.652919 272.939752 
L 138.25019 277.174231 
L 138.847461 280.994017 
L 139.444732 284.305663 
L 140.042003 287.077152 
L 140.639274 289.325504 
L 141.236545 291.100066 
L 141.833817 292.464629 
L 142.431088 293.481684 
L 143.028359 294.201844 
L 143.62563 294.66049 
L 144.222901 294.881898 
L 144.820172 294.888915 
L 145.417443 294.714302 
L 146.014714 294.409082 
L 146.611985 294.043939 
L 147.209256 293.701975 
L 147.806527 293.464215 
L 148.403798 293.392003 
L 149.001069 293.511946 
L 149.59834 293.80862 
L 150.195611 294.228016 
L 150.792882 294.691455 
L 151.390153 295.11644 
L 151.987424 295.438808 
L 152.584695 295.630176 
L 153.181966 295.70603 
L 153.779237 295.722496 
L 154.376508 295.762909 
L 154.973779 295.91796 
L 155.57105 296.264661 
L 156.168321 296.849345 
L 156.765592 297.678521 
L 157.362863 298.719068 
L 157.960134 299.90676 
L 158.557405 301.160181 
L 159.154676 302.396147 
L 159.751947 303.54303 
L 160.349218 304.549511 
L 160.946489 305.387899 
L 161.54376 306.052578 
L 162.141031 306.555155 
L 162.738302 306.918157 
L 163.335573 307.168926 
L 163.932844 307.334781 
L 164.530115 307.439884 
L 165.127386 307.503741 
L 165.724657 307.540958 
L 166.321928 307.561773 
" style="fill:none;stroke:#ffb5b8;stroke-linecap:square;stroke-width:0.3;"/>
   </g>
   <g id="line2d_32">
    <path clip-path="url(#pf77ea5d875)" d="M 75.176524 307.555909 
L 78.442289 307.529022 
L 81.708054 307.480224 
L 84.973819 307.395019 
L 88.239584 307.251912 
L 91.50535 307.020748 
L 94.771115 306.661723 
L 98.03688 306.125804 
L 101.302645 305.357399 
L 104.56841 304.299972 
L 107.834175 302.904888 
L 111.09994 301.142978 
L 114.365706 299.017322 
L 117.631471 296.574734 
L 120.897236 293.912778 
L 124.163001 291.179219 
L 127.428766 288.561812 
L 130.694531 286.268342 
L 133.960296 284.499271 
L 137.226062 283.41776 
L 140.491827 283.123207 
L 143.757592 283.63432 
L 147.023357 284.885846 
L 150.289122 286.73994 
L 153.554887 289.009574 
L 156.820652 291.48856 
L 160.086418 293.981481 
L 163.352183 296.327432 
L 166.617948 298.413726 
L 169.883713 300.178659 
L 173.149478 301.605243 
L 176.415243 302.709544 
L 179.681008 303.527692 
L 182.946774 304.104819 
L 186.212539 304.487634 
L 189.478304 304.72076 
L 192.744069 304.845748 
L 196.009834 304.901226 
L 199.275599 304.922847 
L 202.541364 304.942313 
L 205.807129 304.985572 
L 209.072895 305.070764 
L 212.33866 305.206778 
L 215.604425 305.393038 
L 218.87019 305.620771 
L 222.135955 305.87551 
L 225.40172 306.140235 
L 228.667485 306.398442 
L 231.933251 306.636511 
L 235.199016 306.845032 
L 238.464781 307.019037 
L 241.730546 307.157365 
L 244.996311 307.261515 
L 248.262076 307.334342 
L 251.527841 307.378896 
L 254.793607 307.397567 
L 258.059372 307.391567 
L 261.325137 307.360745 
L 264.590902 307.303672 
L 267.856667 307.21797 
L 271.122432 307.100874 
L 274.388197 306.950026 
L 277.653963 306.764454 
L 280.919728 306.545638 
L 284.185493 306.298429 
L 287.451258 306.03157 
L 290.717023 305.75754 
L 293.982788 305.49158 
L 297.248553 305.24998 
L 300.514319 305.0479 
L 303.780084 304.897231 
L 307.045849 304.804975 
L 310.311614 304.772563 
L 313.577379 304.796207 
L 316.843144 304.868151 
L 320.108909 304.978439 
L 323.374675 305.116734 
L 326.64044 305.273795 
L 329.906205 305.442364 
L 333.17197 305.617405 
L 336.437735 305.795804 
L 339.7035 305.975718 
L 342.969265 306.155809 
L 346.23503 306.334576 
L 349.500796 306.509918 
L 352.766561 306.679029 
L 356.032326 306.83859 
L 359.298091 306.985197 
L 362.563856 307.115872 
L 365.829621 307.228523 
L 369.095386 307.322236 
L 372.361152 307.397342 
L 375.626917 307.455263 
L 378.892682 307.498208 
L 382.158447 307.528804 
L 385.424212 307.54974 
L 388.689977 307.563497 
L 391.955742 307.572176 
L 395.221508 307.577431 
L 398.487273 307.580486 
" style="fill:none;stroke:#e24a33;stroke-linecap:square;stroke-width:0.3;"/>
   </g>
   <g id="line2d_33">
    <path clip-path="url(#pf77ea5d875)" d="M 73.832727 307.51141 
L 76.268571 307.458584 
L 78.704415 307.373356 
L 81.140258 307.240035 
L 83.576102 307.037859 
L 86.011946 306.740698 
L 88.447789 306.317484 
L 90.883633 305.733643 
L 93.319477 304.953812 
L 95.75532 303.94588 
L 98.191164 302.686201 
L 100.627008 301.165465 
L 103.062851 299.394432 
L 105.498695 297.408467 
L 107.934539 295.26976 
L 110.370383 293.066298 
L 112.806226 290.907041 
L 115.24207 288.913401 
L 117.677914 287.207815 
L 120.113757 285.900868 
L 122.549601 285.078824 
L 124.985445 284.793552 
L 127.421288 285.056476 
L 129.857132 285.837562 
L 132.292976 287.069479 
L 134.728819 288.656147 
L 137.164663 290.484209 
L 139.600507 292.4355 
L 142.03635 294.398634 
L 144.472194 296.278161 
L 146.908038 298.000375 
L 149.343881 299.515576 
L 151.779725 300.797225 
L 154.215569 301.838834 
L 156.651413 302.649627 
L 159.087256 303.249907 
L 161.5231 303.666799 
L 163.958944 303.930736 
L 166.394787 304.072758 
L 168.830631 304.122504 
L 171.266475 304.106714 
L 173.702318 304.048083 
L 176.138162 303.964397 
L 178.574006 303.86799 
L 181.009849 303.76561 
L 183.445693 303.658805 
L 185.881537 303.544912 
L 188.31738 303.418614 
L 190.753224 303.273948 
L 193.189068 303.106519 
L 195.624911 302.915586 
L 198.060755 302.705655 
L 200.496599 302.48723 
L 202.932443 302.27649 
L 205.368286 302.093808 
L 207.80413 301.961276 
L 210.239974 301.89958 
L 212.675817 301.924745 
L 215.111661 302.045333 
L 217.547505 302.260621 
L 219.983348 302.560097 
L 222.419192 302.924363 
L 224.855036 303.327281 
L 227.290879 303.738933 
L 229.726723 304.128898 
L 232.162567 304.469306 
L 234.59841 304.7373 
L 237.034254 304.916671 
L 239.470098 304.998684 
L 241.905941 304.982219 
L 244.341785 304.873435 
L 246.777629 304.685145 
L 249.213473 304.43598 
L 251.649316 304.14934 
L 254.08516 303.852035 
L 256.521004 303.572534 
L 258.956847 303.338807 
L 261.392691 303.175878 
L 263.828535 303.103368 
L 266.264378 303.133398 
L 268.700222 303.269225 
L 271.136066 303.504927 
L 273.571909 303.82624 
L 276.007753 304.212447 
L 278.443597 304.639009 
L 280.87944 305.080496 
L 283.315284 305.513338 
L 285.751128 305.918002 
L 288.186971 306.280323 
L 290.622815 306.591949 
L 293.058659 306.849966 
L 295.494503 307.055951 
L 297.930346 307.214706 
L 300.36619 307.332939 
L 302.802034 307.418092 
L 305.237877 307.477435 
L 307.673721 307.517473 
L 310.109565 307.543636 
L 312.545408 307.560199 
L 314.981252 307.570361 
" style="fill:none;stroke:#348abd;stroke-linecap:square;stroke-width:0.3;"/>
   </g>
   <g id="line2d_34">
    <path clip-path="url(#pf77ea5d875)" d="M 113.283481 307.389265 
L 113.581441 307.230386 
L 113.879402 306.96223 
L 114.177363 306.525264 
L 114.475323 305.837961 
L 114.773284 304.794753 
L 115.071245 303.267257 
L 115.369206 301.110406 
L 115.667166 298.174746 
L 115.965127 294.325118 
L 116.263088 289.464413 
L 116.561048 283.559195 
L 116.859009 276.662319 
L 117.15697 268.926794 
L 117.454931 260.605624 
L 117.752891 252.034533 
L 118.050852 243.597938 
L 118.348813 235.68271 
L 118.646773 228.627782 
L 118.944734 222.679546 
L 119.242695 217.962297 
L 119.540656 214.469818 
L 119.838616 212.079217 
L 120.136577 210.582805 
L 120.434538 209.729678 
L 120.732498 209.266975 
L 121.030459 208.971987 
L 121.32842 208.669962 
L 121.62638 208.237332 
L 121.924341 207.594582 
L 122.222302 206.695642 
L 122.520263 205.52072 
L 122.818223 204.076967 
L 123.116184 202.407224 
L 123.414145 200.602877 
L 123.712105 198.814125 
L 124.010066 197.250678 
L 124.308027 196.16837 
L 124.605988 195.841433 
L 124.903948 196.524877 
L 125.201909 198.414812 
L 125.49987 201.615591 
L 125.79783 206.120946 
L 126.095791 211.812578 
L 126.393752 218.475251 
L 126.691713 225.82378 
L 126.989673 233.535412 
L 127.287634 241.281317 
L 127.585595 248.752641 
L 127.883555 255.679121 
L 128.181516 261.84041 
L 128.479477 267.071659 
L 128.777438 271.265191 
L 129.075398 274.369724 
L 129.373359 276.387852 
L 129.67132 277.371964 
L 129.96928 277.418511 
L 130.267241 276.660604 
L 130.565202 275.259161 
L 130.863162 273.393061 
L 131.161123 271.24883 
L 131.459084 269.0104 
L 131.757045 266.849363 
L 132.055005 264.916109 
L 132.352966 263.332208 
L 132.650927 262.184518 
L 132.948887 261.52157 
L 133.246848 261.352878 
L 133.544809 261.651696 
L 133.84277 262.361454 
L 134.14073 263.40555 
L 134.438691 264.699494 
L 134.736652 266.163747 
L 135.034612 267.735158 
L 135.332573 269.374918 
L 135.630534 271.071474 
L 135.928495 272.837783 
L 136.226455 274.70352 
L 136.524416 276.703917 
L 136.822377 278.86767 
L 137.120337 281.206463 
L 137.418298 283.708234 
L 137.716259 286.335383 
L 138.014219 289.027988 
L 138.31218 291.711085 
L 138.610141 294.30431 
L 138.908102 296.731926 
L 139.206062 298.931429 
L 139.504023 300.859411 
L 139.801984 302.494102 
L 140.099944 303.834669 
L 140.397905 304.897946 
L 140.695866 305.713593 
L 140.993827 306.318717 
L 141.291787 306.752886 
L 141.589748 307.054135 
L 141.887709 307.256261 
L 142.185669 307.387396 
L 142.48363 307.469656 
L 142.781591 307.519544 
" style="fill:none;stroke:#988ed5;stroke-linecap:square;stroke-width:0.3;"/>
   </g>
   <g id="line2d_35">
    <path clip-path="url(#pf77ea5d875)" d="M 100.648783 307.487017 
L 101.74457 307.381276 
L 102.840357 307.179299 
L 103.936144 306.812227 
L 105.031931 306.177681 
L 106.127718 305.134696 
L 107.223505 303.505449 
L 108.319292 301.088251 
L 109.415079 297.68506 
L 110.510866 293.143436 
L 111.606653 287.407513 
L 112.70244 280.566809 
L 113.798227 272.887763 
L 114.894014 264.813423 
L 115.989801 256.922943 
L 117.085588 249.853607 
L 118.181375 244.200494 
L 119.277162 240.41779 
L 120.372949 238.747143 
L 121.468736 239.19105 
L 122.564523 241.535579 
L 123.66031 245.412026 
L 124.756097 250.376966 
L 125.851884 255.988059 
L 126.947671 261.858598 
L 128.043458 267.683923 
L 129.139245 273.24284 
L 130.235032 278.383513 
L 131.330819 283.004716 
L 132.426606 287.040688 
L 133.522393 290.453354 
L 134.61818 293.231324 
L 135.713967 295.392358 
L 136.809754 296.98516 
L 137.905541 298.087195 
L 139.001328 298.797168 
L 140.097115 299.222941 
L 141.192902 299.467423 
L 142.288689 299.615823 
L 143.384476 299.72734 
L 144.480263 299.833194 
L 145.57605 299.94119 
L 146.671837 300.045289 
L 147.767624 300.137355 
L 148.863411 300.217713 
L 149.959198 300.301432 
L 151.054986 300.418459 
L 152.150773 300.607571 
L 153.24656 300.906016 
L 154.342347 301.338238 
L 155.438134 301.907387 
L 156.533921 302.592413 
L 157.629708 303.351621 
L 158.725495 304.131388 
L 159.821282 304.877165 
L 160.917069 305.54347 
L 162.012856 306.100329 
L 163.108643 306.535041 
L 164.20443 306.849706 
L 165.300217 307.055912 
L 166.396004 307.16837 
L 167.491791 307.19901 
L 168.587578 307.152609 
L 169.683365 307.024613 
L 170.779152 306.80148 
L 171.874939 306.463715 
L 172.970726 305.99143 
L 174.066513 305.371796 
L 175.1623 304.60708 
L 176.258087 303.721307 
L 177.353874 302.763379 
L 178.449661 301.804823 
L 179.545448 300.931552 
L 180.641235 300.230664 
L 181.737022 299.774991 
L 182.832809 299.609207 
L 183.928596 299.741191 
L 185.024383 300.14115 
L 186.12017 300.748795 
L 187.215957 301.486584 
L 188.311744 302.275357 
L 189.407531 303.048189 
L 190.503318 303.759187 
L 191.599105 304.385757 
L 192.694892 304.925005 
L 193.790679 305.386548 
L 194.886466 305.784618 
L 195.982253 306.131912 
L 197.07804 306.436457 
L 198.173827 306.701451 
L 199.269614 306.927048 
L 200.365401 307.112757 
L 201.461188 307.259352 
L 202.556975 307.369727 
L 203.652762 307.44875 
L 204.748549 307.502458 
L 205.844336 307.537085 
L 206.940123 307.558256 
L 208.03591 307.570532 
L 209.131697 307.577285 
" style="fill:none;stroke:#777777;stroke-linecap:square;stroke-width:0.3;"/>
   </g>
   <g id="line2d_36">
    <path clip-path="url(#pf77ea5d875)" d="M 114.089469 307.489321 
L 114.257101 307.3552 
L 114.424734 307.061862 
L 114.592367 306.458365 
L 114.759999 305.290674 
L 114.927632 303.166539 
L 115.095265 299.53561 
L 115.262897 293.707965 
L 115.43053 284.936207 
L 115.598163 272.576554 
L 115.765795 256.319367 
L 115.933428 236.442779 
L 116.101061 214.007256 
L 116.268693 190.893431 
L 116.436326 169.608109 
L 116.603959 152.84852 
L 116.771591 142.905984 
L 116.939224 141.070842 
L 117.106857 147.23019 
L 117.274489 159.805271 
L 117.442122 176.067315 
L 117.609755 192.742764 
L 117.777387 206.72593 
L 117.94502 215.695589 
L 118.112653 218.481922 
L 118.280285 215.12042 
L 118.447918 206.620473 
L 118.615551 194.542775 
L 118.783183 180.515235 
L 118.950816 165.824192 
L 119.118449 151.194935 
L 119.286081 136.817854 
L 119.453714 122.589524 
L 119.621347 108.449889 
L 119.788979 94.651535 
L 119.956612 81.827925 
L 120.124245 70.828755 
L 120.291877 62.412311 
L 120.45951 56.960016 
L 120.627143 54.364049 
L 120.794775 54.144 
L 120.962408 55.727258 
L 121.130041 58.746952 
L 121.297673 63.210541 
L 121.465306 69.465592 
L 121.632939 77.992726 
L 121.800571 89.134302 
L 121.968204 102.885321 
L 122.135837 118.828952 
L 122.303469 136.222954 
L 122.471102 154.176733 
L 122.638735 171.832298 
L 122.806367 188.481513 
L 122.974 203.598334 
L 123.141633 216.809711 
L 123.309265 227.850755 
L 123.476898 236.543907 
L 123.644531 242.818316 
L 123.812163 246.759864 
L 123.979796 248.665019 
L 124.147429 249.066156 
L 124.315061 248.701504 
L 124.482694 248.418341 
L 124.650327 249.021731 
L 124.81796 251.106528 
L 124.985592 254.925964 
L 125.153225 260.344754 
L 125.320858 266.896388 
L 125.48849 273.924684 
L 125.656123 280.758262 
L 125.823756 286.859055 
L 125.991388 291.9042 
L 126.159021 295.792721 
L 126.326654 298.596821 
L 126.494286 300.490209 
L 126.661919 301.681686 
L 126.829552 302.368748 
L 126.997184 302.712994 
L 127.164817 302.832345 
L 127.33245 302.804476 
L 127.500082 302.67778 
L 127.667715 302.486978 
L 127.835348 302.269144 
L 128.00298 302.074283 
L 128.170613 301.965266 
L 128.338246 302.006054 
L 128.505878 302.242931 
L 128.673511 302.68752 
L 128.841144 303.309941 
L 129.008776 304.045683 
L 129.176409 304.813277 
L 129.344042 305.535387 
L 129.511674 306.155448 
L 129.679307 306.645189 
L 129.84694 307.00284 
L 130.014572 307.245229 
L 130.182205 307.398088 
L 130.349838 307.487968 
L 130.51747 307.537317 
L 130.685103 307.562647 
" style="fill:none;stroke:#fbc15e;stroke-linecap:square;stroke-width:0.3;"/>
   </g>
   <g id="line2d_37">
    <path clip-path="url(#pf77ea5d875)" d="M 103.927365 307.558523 
L 105.281775 307.511054 
L 106.636185 307.391571 
L 107.990594 307.115796 
L 109.345004 306.532089 
L 110.699414 305.399264 
L 112.053824 303.384441 
L 113.408234 300.103673 
L 114.762643 295.221544 
L 116.117053 288.601221 
L 117.471463 280.458926 
L 118.825873 271.446633 
L 120.180282 262.591026 
L 121.534692 255.069149 
L 122.889102 249.883664 
L 124.243512 247.566675 
L 125.597921 248.043815 
L 126.952331 250.719013 
L 128.306741 254.733171 
L 129.661151 259.27015 
L 131.015561 263.775777 
L 132.36997 268.017704 
L 133.72438 272.002244 
L 135.07879 275.826782 
L 136.4332 279.555075 
L 137.787609 283.165415 
L 139.142019 286.569727 
L 140.496429 289.666621 
L 141.850839 292.387119 
L 143.205249 294.710885 
L 144.559658 296.655303 
L 145.914068 298.253902 
L 147.268478 299.539911 
L 148.622888 300.540912 
L 149.977297 301.281231 
L 151.331707 301.785864 
L 152.686117 302.082408 
L 154.040527 302.201135 
L 155.394937 302.174595 
L 156.749346 302.037366 
L 158.103756 301.825803 
L 159.458166 301.57774 
L 160.812576 301.332156 
L 162.166985 301.128192 
L 163.521395 301.002245 
L 164.875805 300.982456 
L 166.230215 301.081939 
L 167.584625 301.294011 
L 168.939034 301.592612 
L 170.293444 301.93849 
L 171.647854 302.288336 
L 173.002264 302.602712 
L 174.356673 302.850507 
L 175.711083 303.011245 
L 177.065493 303.078343 
L 178.419903 303.064435 
L 179.774312 303.00562 
L 181.128722 302.959002 
L 182.483132 302.990263 
L 183.837542 303.154024 
L 185.191952 303.475095 
L 186.546361 303.939372 
L 187.900771 304.498588 
L 189.255181 305.086332 
L 190.609591 305.637702 
L 191.964 306.104246 
L 193.31841 306.459397 
L 194.67282 306.695065 
L 196.02723 306.814155 
L 197.38164 306.824347 
L 198.736049 306.735931 
L 200.090459 306.562976 
L 201.444869 306.325328 
L 202.799279 306.049238 
L 204.153688 305.766034 
L 205.508098 305.509257 
L 206.862508 305.310907 
L 208.216918 305.197215 
L 209.571328 305.184462 
L 210.925737 305.275683 
L 212.280147 305.459277 
L 213.634557 305.710315 
L 214.988967 305.994797 
L 216.343376 306.276422 
L 217.697786 306.524478 
L 219.052196 306.72064 
L 220.406606 306.862249 
L 221.761016 306.960578 
L 223.115425 307.034592 
L 224.469835 307.102759 
L 225.824245 307.176429 
L 227.178655 307.25737 
L 228.533064 307.339842 
L 229.887474 307.415271 
L 231.241884 307.476779 
L 232.596294 307.521551 
L 233.950703 307.550732 
L 235.305113 307.567811 
L 236.659523 307.576811 
L 238.013933 307.581089 
" style="fill:none;stroke:#8eba42;stroke-linecap:square;stroke-width:0.3;"/>
   </g>
   <g id="line2d_38">
    <path clip-path="url(#pf77ea5d875)" d="M 116.102635 307.549981 
L 116.796369 307.526506 
L 117.490103 307.48911 
L 118.183837 307.431038 
L 118.877571 307.343117 
L 119.571305 307.213324 
L 120.265039 307.026462 
L 120.958773 306.764049 
L 121.652507 306.404493 
L 122.346241 305.923643 
L 123.039975 305.295744 
L 123.733709 304.494757 
L 124.427443 303.495979 
L 125.121177 302.277778 
L 125.814911 300.823289 
L 126.508645 299.121857 
L 127.202379 297.170104 
L 127.896113 294.972541 
L 128.589847 292.541785 
L 129.283581 289.898468 
L 129.977315 287.071029 
L 130.671049 284.095503 
L 131.364783 281.015386 
L 132.058517 277.881488 
L 132.752251 274.751574 
L 133.445985 271.68948 
L 134.139719 268.763368 
L 134.833453 266.04288 
L 135.527187 263.595129 
L 136.220921 261.479747 
L 136.914655 259.74353 
L 137.608389 258.415461 
L 138.302123 257.50307 
L 138.995857 256.991053 
L 139.689591 256.842833 
L 140.383325 257.005294 
L 141.077059 257.416349 
L 141.770793 258.014351 
L 142.464527 258.747861 
L 143.158261 259.584012 
L 143.851995 260.513788 
L 144.545729 261.553004 
L 145.239462 262.73853 
L 145.933196 264.120231 
L 146.62693 265.749967 
L 147.320664 267.66962 
L 148.014398 269.900334 
L 148.708132 272.434924 
L 149.401866 275.23476 
L 150.0956 278.231575 
L 150.789334 281.333711 
L 151.483068 284.435533 
L 152.176802 287.428313 
L 152.870536 290.210745 
L 153.56427 292.697539 
L 154.258004 294.82501 
L 154.951738 296.553206 
L 155.645472 297.864749 
L 156.339206 298.761018 
L 157.03294 299.25668 
L 157.726674 299.373697 
L 158.420408 299.135922 
L 159.114142 298.565226 
L 159.807876 297.67981 
L 160.50161 296.49501 
L 161.195344 295.026462 
L 161.889078 293.295066 
L 162.582812 291.332827 
L 163.276546 289.188337 
L 163.97028 286.930607 
L 164.664014 284.650071 
L 165.357748 282.455991 
L 166.051482 280.470063 
L 166.745216 278.816738 
L 167.43895 277.611425 
L 168.132684 276.948271 
L 168.826418 276.889374 
L 169.520152 277.457195 
L 170.213886 278.631391 
L 170.90762 280.350623 
L 171.601354 282.519033 
L 172.295088 285.016362 
L 172.988822 287.710173 
L 173.682556 290.468386 
L 174.37629 293.170494 
L 175.070024 295.716164 
L 175.763758 298.030511 
L 176.457492 300.065903 
L 177.151226 301.800675 
L 177.84496 303.235496 
L 178.538693 304.388322 
L 179.232427 305.288834 
L 179.926161 305.973135 
L 180.619895 306.479253 
L 181.313629 306.843733 
L 182.007363 307.099385 
L 182.701097 307.27408 
L 183.394831 307.3904 
L 184.088565 307.465879 
L 184.782299 307.513617 
" style="fill:none;stroke:#ffb5b8;stroke-linecap:square;stroke-width:0.3;"/>
   </g>
   <g id="line2d_39">
    <path clip-path="url(#pf77ea5d875)" d="M 106.414959 307.416005 
L 107.107416 307.277026 
L 107.799873 307.043108 
L 108.49233 306.664883 
L 109.184787 306.077609 
L 109.877244 305.202357 
L 110.569701 303.951018 
L 111.262158 302.236041 
L 111.954615 299.984929 
L 112.647072 297.158063 
L 113.339529 293.766805 
L 114.031986 289.887469 
L 114.724443 285.666331 
L 115.4169 281.311797 
L 116.109357 277.072315 
L 116.801814 273.202123 
L 117.494271 269.920573 
L 118.186728 267.373319 
L 118.879185 265.604225 
L 119.571642 264.544994 
L 120.264099 264.025716 
L 120.956556 263.804773 
L 121.649013 263.612306 
L 122.34147 263.198658 
L 123.033927 262.378668 
L 123.726384 261.063968 
L 124.418841 259.278243 
L 125.111298 257.153647 
L 125.803755 254.909811 
L 126.496212 252.819499 
L 127.188669 251.16684 
L 127.881126 250.205014 
L 128.573583 250.120162 
L 129.26604 251.007063 
L 129.958498 252.859875 
L 130.650955 255.57835 
L 131.343412 258.987011 
L 132.035869 262.862555 
L 132.728326 266.963814 
L 133.420783 271.059038 
L 134.11324 274.946898 
L 134.805697 278.469723 
L 135.498154 281.519391 
L 136.190611 284.03748 
L 136.883068 286.011606 
L 137.575525 287.469406 
L 138.267982 288.471014 
L 138.960439 289.100219 
L 139.652896 289.454394 
L 140.345353 289.633514 
L 141.03781 289.729059 
L 141.730267 289.814138 
L 142.422724 289.936344 
L 143.115181 290.114661 
L 143.807638 290.341122 
L 144.500095 290.587058 
L 145.192552 290.812828 
L 145.885009 290.97922 
L 146.577466 291.058299 
L 147.269923 291.041575 
L 147.96238 290.9438 
L 148.654837 290.801558 
L 149.347294 290.666802 
L 150.039751 290.596576 
L 150.732208 290.641031 
L 151.424665 290.832438 
L 152.117122 291.177836 
L 152.809579 291.657354 
L 153.502036 292.228949 
L 154.194493 292.838707 
L 154.88695 293.434288 
L 155.579407 293.978121 
L 156.271864 294.456824 
L 156.964321 294.884292 
L 157.656778 295.297626 
L 158.349235 295.747085 
L 159.041692 296.282907 
L 159.734149 296.942593 
L 160.426606 297.741917 
L 161.119063 298.671633 
L 161.81152 299.700111 
L 162.503977 300.780518 
L 163.196434 301.8602 
L 163.888891 302.889726 
L 164.581348 303.829678 
L 165.273805 304.654221 
L 165.966262 305.351525 
L 166.658719 305.921816 
L 167.351176 306.374146 
L 168.043633 306.722904 
L 168.73609 306.984769 
L 169.428547 307.176463 
L 170.121004 307.313333 
L 170.813461 307.408632 
L 171.505918 307.47329 
L 172.198375 307.515988 
L 172.890832 307.543396 
L 173.583289 307.560472 
L 174.275746 307.570782 
L 174.968203 307.576808 
" style="fill:none;stroke:#e24a33;stroke-linecap:square;stroke-width:0.3;"/>
   </g>
   <g id="patch_3">
    <path d="M 57.6 307.584 
L 57.6 41.472 
" style="fill:none;stroke:#ffffff;stroke-linecap:square;stroke-linejoin:miter;"/>
   </g>
   <g id="patch_4">
    <path d="M 414.72 307.584 
L 414.72 41.472 
" style="fill:none;stroke:#ffffff;stroke-linecap:square;stroke-linejoin:miter;"/>
   </g>
   <g id="patch_5">
    <path d="M 57.6 307.584 
L 414.72 307.584 
" style="fill:none;stroke:#ffffff;stroke-linecap:square;stroke-linejoin:miter;"/>
   </g>
   <g id="patch_6">
    <path d="M 57.6 41.472 
L 414.72 41.472 
" style="fill:none;stroke:#ffffff;stroke-linecap:square;stroke-linejoin:miter;"/>
   </g>
   <g id="text_15">
    <!-- kernel density estimation(Gaussian):b2194;b2195;b2196;b2197;b2198;b2199;b2200;b2201;b2202;b2203;b2204;b2205;b2206;b2207;b2208 -->
    <defs>
     <path d="M 9.078125 75.984375 
L 18.109375 75.984375 
L 18.109375 31.109375 
L 44.921875 54.6875 
L 56.390625 54.6875 
L 27.390625 29.109375 
L 57.625 0 
L 45.90625 0 
L 18.109375 26.703125 
L 18.109375 0 
L 9.078125 0 
z
" id="DejaVuSans-6b"/>
     <path d="M 56.203125 29.59375 
L 56.203125 25.203125 
L 14.890625 25.203125 
Q 15.484375 15.921875 20.484375 11.0625 
Q 25.484375 6.203125 34.421875 6.203125 
Q 39.59375 6.203125 44.453125 7.46875 
Q 49.3125 8.734375 54.109375 11.28125 
L 54.109375 2.78125 
Q 49.265625 0.734375 44.1875 -0.34375 
Q 39.109375 -1.421875 33.890625 -1.421875 
Q 20.796875 -1.421875 13.15625 6.1875 
Q 5.515625 13.8125 5.515625 26.8125 
Q 5.515625 40.234375 12.765625 48.109375 
Q 20.015625 56 32.328125 56 
Q 43.359375 56 49.78125 48.890625 
Q 56.203125 41.796875 56.203125 29.59375 
z
M 47.21875 32.234375 
Q 47.125 39.59375 43.09375 43.984375 
Q 39.0625 48.390625 32.421875 48.390625 
Q 24.90625 48.390625 20.390625 44.140625 
Q 15.875 39.890625 15.1875 32.171875 
z
" id="DejaVuSans-65"/>
     <path d="M 41.109375 46.296875 
Q 39.59375 47.171875 37.8125 47.578125 
Q 36.03125 48 33.890625 48 
Q 26.265625 48 22.1875 43.046875 
Q 18.109375 38.09375 18.109375 28.8125 
L 18.109375 0 
L 9.078125 0 
L 9.078125 54.6875 
L 18.109375 54.6875 
L 18.109375 46.1875 
Q 20.953125 51.171875 25.484375 53.578125 
Q 30.03125 56 36.53125 56 
Q 37.453125 56 38.578125 55.875 
Q 39.703125 55.765625 41.0625 55.515625 
z
" id="DejaVuSans-72"/>
     <path d="M 9.421875 75.984375 
L 18.40625 75.984375 
L 18.40625 0 
L 9.421875 0 
z
" id="DejaVuSans-6c"/>
     <path id="DejaVuSans-20"/>
     <path d="M 45.40625 46.390625 
L 45.40625 75.984375 
L 54.390625 75.984375 
L 54.390625 0 
L 45.40625 0 
L 45.40625 8.203125 
Q 42.578125 3.328125 38.25 0.953125 
Q 33.9375 -1.421875 27.875 -1.421875 
Q 17.96875 -1.421875 11.734375 6.484375 
Q 5.515625 14.40625 5.515625 27.296875 
Q 5.515625 40.1875 11.734375 48.09375 
Q 17.96875 56 27.875 56 
Q 33.9375 56 38.25 53.625 
Q 42.578125 51.265625 45.40625 46.390625 
z
M 14.796875 27.296875 
Q 14.796875 17.390625 18.875 11.75 
Q 22.953125 6.109375 30.078125 6.109375 
Q 37.203125 6.109375 41.296875 11.75 
Q 45.40625 17.390625 45.40625 27.296875 
Q 45.40625 37.203125 41.296875 42.84375 
Q 37.203125 48.484375 30.078125 48.484375 
Q 22.953125 48.484375 18.875 42.84375 
Q 14.796875 37.203125 14.796875 27.296875 
z
" id="DejaVuSans-64"/>
     <path d="M 44.28125 53.078125 
L 44.28125 44.578125 
Q 40.484375 46.53125 36.375 47.5 
Q 32.28125 48.484375 27.875 48.484375 
Q 21.1875 48.484375 17.84375 46.4375 
Q 14.5 44.390625 14.5 40.28125 
Q 14.5 37.15625 16.890625 35.375 
Q 19.28125 33.59375 26.515625 31.984375 
L 29.59375 31.296875 
Q 39.15625 29.25 43.1875 25.515625 
Q 47.21875 21.78125 47.21875 15.09375 
Q 47.21875 7.46875 41.1875 3.015625 
Q 35.15625 -1.421875 24.609375 -1.421875 
Q 20.21875 -1.421875 15.453125 -0.5625 
Q 10.6875 0.296875 5.421875 2 
L 5.421875 11.28125 
Q 10.40625 8.6875 15.234375 7.390625 
Q 20.0625 6.109375 24.8125 6.109375 
Q 31.15625 6.109375 34.5625 8.28125 
Q 37.984375 10.453125 37.984375 14.40625 
Q 37.984375 18.0625 35.515625 20.015625 
Q 33.0625 21.96875 24.703125 23.78125 
L 21.578125 24.515625 
Q 13.234375 26.265625 9.515625 29.90625 
Q 5.8125 33.546875 5.8125 39.890625 
Q 5.8125 47.609375 11.28125 51.796875 
Q 16.75 56 26.8125 56 
Q 31.78125 56 36.171875 55.265625 
Q 40.578125 54.546875 44.28125 53.078125 
z
" id="DejaVuSans-73"/>
     <path d="M 9.421875 54.6875 
L 18.40625 54.6875 
L 18.40625 0 
L 9.421875 0 
z
M 9.421875 75.984375 
L 18.40625 75.984375 
L 18.40625 64.59375 
L 9.421875 64.59375 
z
" id="DejaVuSans-69"/>
     <path d="M 32.171875 -5.078125 
Q 28.375 -14.84375 24.75 -17.8125 
Q 21.140625 -20.796875 15.09375 -20.796875 
L 7.90625 -20.796875 
L 7.90625 -13.28125 
L 13.1875 -13.28125 
Q 16.890625 -13.28125 18.9375 -11.515625 
Q 21 -9.765625 23.484375 -3.21875 
L 25.09375 0.875 
L 2.984375 54.6875 
L 12.5 54.6875 
L 29.59375 11.921875 
L 46.6875 54.6875 
L 56.203125 54.6875 
z
" id="DejaVuSans-79"/>
     <path d="M 52 44.1875 
Q 55.375 50.25 60.0625 53.125 
Q 64.75 56 71.09375 56 
Q 79.640625 56 84.28125 50.015625 
Q 88.921875 44.046875 88.921875 33.015625 
L 88.921875 0 
L 79.890625 0 
L 79.890625 32.71875 
Q 79.890625 40.578125 77.09375 44.375 
Q 74.3125 48.1875 68.609375 48.1875 
Q 61.625 48.1875 57.5625 43.546875 
Q 53.515625 38.921875 53.515625 30.90625 
L 53.515625 0 
L 44.484375 0 
L 44.484375 32.71875 
Q 44.484375 40.625 41.703125 44.40625 
Q 38.921875 48.1875 33.109375 48.1875 
Q 26.21875 48.1875 22.15625 43.53125 
Q 18.109375 38.875 18.109375 30.90625 
L 18.109375 0 
L 9.078125 0 
L 9.078125 54.6875 
L 18.109375 54.6875 
L 18.109375 46.1875 
Q 21.1875 51.21875 25.484375 53.609375 
Q 29.78125 56 35.6875 56 
Q 41.65625 56 45.828125 52.96875 
Q 50 49.953125 52 44.1875 
z
" id="DejaVuSans-6d"/>
     <path d="M 34.28125 27.484375 
Q 23.390625 27.484375 19.1875 25 
Q 14.984375 22.515625 14.984375 16.5 
Q 14.984375 11.71875 18.140625 8.90625 
Q 21.296875 6.109375 26.703125 6.109375 
Q 34.1875 6.109375 38.703125 11.40625 
Q 43.21875 16.703125 43.21875 25.484375 
L 43.21875 27.484375 
z
M 52.203125 31.203125 
L 52.203125 0 
L 43.21875 0 
L 43.21875 8.296875 
Q 40.140625 3.328125 35.546875 0.953125 
Q 30.953125 -1.421875 24.3125 -1.421875 
Q 15.921875 -1.421875 10.953125 3.296875 
Q 6 8.015625 6 15.921875 
Q 6 25.140625 12.171875 29.828125 
Q 18.359375 34.515625 30.609375 34.515625 
L 43.21875 34.515625 
L 43.21875 35.40625 
Q 43.21875 41.609375 39.140625 45 
Q 35.0625 48.390625 27.6875 48.390625 
Q 23 48.390625 18.546875 47.265625 
Q 14.109375 46.140625 10.015625 43.890625 
L 10.015625 52.203125 
Q 14.9375 54.109375 19.578125 55.046875 
Q 24.21875 56 28.609375 56 
Q 40.484375 56 46.34375 49.84375 
Q 52.203125 43.703125 52.203125 31.203125 
z
" id="DejaVuSans-61"/>
     <path d="M 59.515625 10.40625 
L 59.515625 29.984375 
L 43.40625 29.984375 
L 43.40625 38.09375 
L 69.28125 38.09375 
L 69.28125 6.78125 
Q 63.578125 2.734375 56.6875 0.65625 
Q 49.8125 -1.421875 42 -1.421875 
Q 24.90625 -1.421875 15.25 8.5625 
Q 5.609375 18.5625 5.609375 36.375 
Q 5.609375 54.25 15.25 64.234375 
Q 24.90625 74.21875 42 74.21875 
Q 49.125 74.21875 55.546875 72.453125 
Q 61.96875 70.703125 67.390625 67.28125 
L 67.390625 56.78125 
Q 61.921875 61.421875 55.765625 63.765625 
Q 49.609375 66.109375 42.828125 66.109375 
Q 29.4375 66.109375 22.71875 58.640625 
Q 16.015625 51.171875 16.015625 36.375 
Q 16.015625 21.625 22.71875 14.15625 
Q 29.4375 6.6875 42.828125 6.6875 
Q 48.046875 6.6875 52.140625 7.59375 
Q 56.25 8.5 59.515625 10.40625 
z
" id="DejaVuSans-47"/>
     <path d="M 11.71875 12.40625 
L 22.015625 12.40625 
L 22.015625 0 
L 11.71875 0 
z
M 11.71875 51.703125 
L 22.015625 51.703125 
L 22.015625 39.3125 
L 11.71875 39.3125 
z
" id="DejaVuSans-3a"/>
     <path d="M 48.6875 27.296875 
Q 48.6875 37.203125 44.609375 42.84375 
Q 40.53125 48.484375 33.40625 48.484375 
Q 26.265625 48.484375 22.1875 42.84375 
Q 18.109375 37.203125 18.109375 27.296875 
Q 18.109375 17.390625 22.1875 11.75 
Q 26.265625 6.109375 33.40625 6.109375 
Q 40.53125 6.109375 44.609375 11.75 
Q 48.6875 17.390625 48.6875 27.296875 
z
M 18.109375 46.390625 
Q 20.953125 51.265625 25.265625 53.625 
Q 29.59375 56 35.59375 56 
Q 45.5625 56 51.78125 48.09375 
Q 58.015625 40.1875 58.015625 27.296875 
Q 58.015625 14.40625 51.78125 6.484375 
Q 45.5625 -1.421875 35.59375 -1.421875 
Q 29.59375 -1.421875 25.265625 0.953125 
Q 20.953125 3.328125 18.109375 8.203125 
L 18.109375 0 
L 9.078125 0 
L 9.078125 75.984375 
L 18.109375 75.984375 
z
" id="DejaVuSans-62"/>
     <path d="M 10.984375 1.515625 
L 10.984375 10.5 
Q 14.703125 8.734375 18.5 7.8125 
Q 22.3125 6.890625 25.984375 6.890625 
Q 35.75 6.890625 40.890625 13.453125 
Q 46.046875 20.015625 46.78125 33.40625 
Q 43.953125 29.203125 39.59375 26.953125 
Q 35.25 24.703125 29.984375 24.703125 
Q 19.046875 24.703125 12.671875 31.3125 
Q 6.296875 37.9375 6.296875 49.421875 
Q 6.296875 60.640625 12.9375 67.421875 
Q 19.578125 74.21875 30.609375 74.21875 
Q 43.265625 74.21875 49.921875 64.515625 
Q 56.59375 54.828125 56.59375 36.375 
Q 56.59375 19.140625 48.40625 8.859375 
Q 40.234375 -1.421875 26.421875 -1.421875 
Q 22.703125 -1.421875 18.890625 -0.6875 
Q 15.09375 0.046875 10.984375 1.515625 
z
M 30.609375 32.421875 
Q 37.25 32.421875 41.125 36.953125 
Q 45.015625 41.5 45.015625 49.421875 
Q 45.015625 57.28125 41.125 61.84375 
Q 37.25 66.40625 30.609375 66.40625 
Q 23.96875 66.40625 20.09375 61.84375 
Q 16.21875 57.28125 16.21875 49.421875 
Q 16.21875 41.5 20.09375 36.953125 
Q 23.96875 32.421875 30.609375 32.421875 
z
" id="DejaVuSans-39"/>
     <path d="M 11.71875 51.703125 
L 22.015625 51.703125 
L 22.015625 39.3125 
L 11.71875 39.3125 
z
M 11.71875 12.40625 
L 22.015625 12.40625 
L 22.015625 4 
L 14.015625 -11.625 
L 7.71875 -11.625 
L 11.71875 4 
z
" id="DejaVuSans-3b"/>
     <path d="M 8.203125 72.90625 
L 55.078125 72.90625 
L 55.078125 68.703125 
L 28.609375 0 
L 18.3125 0 
L 43.21875 64.59375 
L 8.203125 64.59375 
z
" id="DejaVuSans-37"/>
    </defs>
    <g transform="translate(-274.039875 35.472)scale(0.144 -0.144)">
     <use xlink:href="#DejaVuSans-6b"/>
     <use x="57.863281" xlink:href="#DejaVuSans-65"/>
     <use x="119.386719" xlink:href="#DejaVuSans-72"/>
     <use x="160.484375" xlink:href="#DejaVuSans-6e"/>
     <use x="223.863281" xlink:href="#DejaVuSans-65"/>
     <use x="285.386719" xlink:href="#DejaVuSans-6c"/>
     <use x="313.169922" xlink:href="#DejaVuSans-20"/>
     <use x="344.957031" xlink:href="#DejaVuSans-64"/>
     <use x="408.433594" xlink:href="#DejaVuSans-65"/>
     <use x="469.957031" xlink:href="#DejaVuSans-6e"/>
     <use x="533.335938" xlink:href="#DejaVuSans-73"/>
     <use x="585.435547" xlink:href="#DejaVuSans-69"/>
     <use x="613.21875" xlink:href="#DejaVuSans-74"/>
     <use x="652.427734" xlink:href="#DejaVuSans-79"/>
     <use x="711.607422" xlink:href="#DejaVuSans-20"/>
     <use x="743.394531" xlink:href="#DejaVuSans-65"/>
     <use x="804.917969" xlink:href="#DejaVuSans-73"/>
     <use x="857.017578" xlink:href="#DejaVuSans-74"/>
     <use x="896.226562" xlink:href="#DejaVuSans-69"/>
     <use x="924.009766" xlink:href="#DejaVuSans-6d"/>
     <use x="1021.421875" xlink:href="#DejaVuSans-61"/>
     <use x="1082.701172" xlink:href="#DejaVuSans-74"/>
     <use x="1121.910156" xlink:href="#DejaVuSans-69"/>
     <use x="1149.693359" xlink:href="#DejaVuSans-6f"/>
     <use x="1210.875" xlink:href="#DejaVuSans-6e"/>
     <use x="1274.253906" xlink:href="#DejaVuSans-28"/>
     <use x="1313.267578" xlink:href="#DejaVuSans-47"/>
     <use x="1390.757812" xlink:href="#DejaVuSans-61"/>
     <use x="1452.037109" xlink:href="#DejaVuSans-75"/>
     <use x="1515.416016" xlink:href="#DejaVuSans-73"/>
     <use x="1567.515625" xlink:href="#DejaVuSans-73"/>
     <use x="1619.615234" xlink:href="#DejaVuSans-69"/>
     <use x="1647.398438" xlink:href="#DejaVuSans-61"/>
     <use x="1708.677734" xlink:href="#DejaVuSans-6e"/>
     <use x="1772.056641" xlink:href="#DejaVuSans-29"/>
     <use x="1811.070312" xlink:href="#DejaVuSans-3a"/>
     <use x="1844.761719" xlink:href="#DejaVuSans-62"/>
     <use x="1908.238281" xlink:href="#DejaVuSans-32"/>
     <use x="1971.861328" xlink:href="#DejaVuSans-31"/>
     <use x="2035.484375" xlink:href="#DejaVuSans-39"/>
     <use x="2099.107422" xlink:href="#DejaVuSans-34"/>
     <use x="2162.730469" xlink:href="#DejaVuSans-3b"/>
     <use x="2196.421875" xlink:href="#DejaVuSans-62"/>
     <use x="2259.898438" xlink:href="#DejaVuSans-32"/>
     <use x="2323.521484" xlink:href="#DejaVuSans-31"/>
     <use x="2387.144531" xlink:href="#DejaVuSans-39"/>
     <use x="2450.767578" xlink:href="#DejaVuSans-35"/>
     <use x="2514.390625" xlink:href="#DejaVuSans-3b"/>
     <use x="2548.082031" xlink:href="#DejaVuSans-62"/>
     <use x="2611.558594" xlink:href="#DejaVuSans-32"/>
     <use x="2675.181641" xlink:href="#DejaVuSans-31"/>
     <use x="2738.804688" xlink:href="#DejaVuSans-39"/>
     <use x="2802.427734" xlink:href="#DejaVuSans-36"/>
     <use x="2866.050781" xlink:href="#DejaVuSans-3b"/>
     <use x="2899.742188" xlink:href="#DejaVuSans-62"/>
     <use x="2963.21875" xlink:href="#DejaVuSans-32"/>
     <use x="3026.841797" xlink:href="#DejaVuSans-31"/>
     <use x="3090.464844" xlink:href="#DejaVuSans-39"/>
     <use x="3154.087891" xlink:href="#DejaVuSans-37"/>
     <use x="3217.710938" xlink:href="#DejaVuSans-3b"/>
     <use x="3251.402344" xlink:href="#DejaVuSans-62"/>
     <use x="3314.878906" xlink:href="#DejaVuSans-32"/>
     <use x="3378.501953" xlink:href="#DejaVuSans-31"/>
     <use x="3442.125" xlink:href="#DejaVuSans-39"/>
     <use x="3505.748047" xlink:href="#DejaVuSans-38"/>
     <use x="3569.371094" xlink:href="#DejaVuSans-3b"/>
     <use x="3603.0625" xlink:href="#DejaVuSans-62"/>
     <use x="3666.539062" xlink:href="#DejaVuSans-32"/>
     <use x="3730.162109" xlink:href="#DejaVuSans-31"/>
     <use x="3793.785156" xlink:href="#DejaVuSans-39"/>
     <use x="3857.408203" xlink:href="#DejaVuSans-39"/>
     <use x="3921.03125" xlink:href="#DejaVuSans-3b"/>
     <use x="3954.722656" xlink:href="#DejaVuSans-62"/>
     <use x="4018.199219" xlink:href="#DejaVuSans-32"/>
     <use x="4081.822266" xlink:href="#DejaVuSans-32"/>
     <use x="4145.445312" xlink:href="#DejaVuSans-30"/>
     <use x="4209.068359" xlink:href="#DejaVuSans-30"/>
     <use x="4272.691406" xlink:href="#DejaVuSans-3b"/>
     <use x="4306.382812" xlink:href="#DejaVuSans-62"/>
     <use x="4369.859375" xlink:href="#DejaVuSans-32"/>
     <use x="4433.482422" xlink:href="#DejaVuSans-32"/>
     <use x="4497.105469" xlink:href="#DejaVuSans-30"/>
     <use x="4560.728516" xlink:href="#DejaVuSans-31"/>
     <use x="4624.351562" xlink:href="#DejaVuSans-3b"/>
     <use x="4658.042969" xlink:href="#DejaVuSans-62"/>
     <use x="4721.519531" xlink:href="#DejaVuSans-32"/>
     <use x="4785.142578" xlink:href="#DejaVuSans-32"/>
     <use x="4848.765625" xlink:href="#DejaVuSans-30"/>
     <use x="4912.388672" xlink:href="#DejaVuSans-32"/>
     <use x="4976.011719" xlink:href="#DejaVuSans-3b"/>
     <use x="5009.703125" xlink:href="#DejaVuSans-62"/>
     <use x="5073.179688" xlink:href="#DejaVuSans-32"/>
     <use x="5136.802734" xlink:href="#DejaVuSans-32"/>
     <use x="5200.425781" xlink:href="#DejaVuSans-30"/>
     <use x="5264.048828" xlink:href="#DejaVuSans-33"/>
     <use x="5327.671875" xlink:href="#DejaVuSans-3b"/>
     <use x="5361.363281" xlink:href="#DejaVuSans-62"/>
     <use x="5424.839844" xlink:href="#DejaVuSans-32"/>
     <use x="5488.462891" xlink:href="#DejaVuSans-32"/>
     <use x="5552.085938" xlink:href="#DejaVuSans-30"/>
     <use x="5615.708984" xlink:href="#DejaVuSans-34"/>
     <use x="5679.332031" xlink:href="#DejaVuSans-3b"/>
     <use x="5713.023438" xlink:href="#DejaVuSans-62"/>
     <use x="5776.5" xlink:href="#DejaVuSans-32"/>
     <use x="5840.123047" xlink:href="#DejaVuSans-32"/>
     <use x="5903.746094" xlink:href="#DejaVuSans-30"/>
     <use x="5967.369141" xlink:href="#DejaVuSans-35"/>
     <use x="6030.992188" xlink:href="#DejaVuSans-3b"/>
     <use x="6064.683594" xlink:href="#DejaVuSans-62"/>
     <use x="6128.160156" xlink:href="#DejaVuSans-32"/>
     <use x="6191.783203" xlink:href="#DejaVuSans-32"/>
     <use x="6255.40625" xlink:href="#DejaVuSans-30"/>
     <use x="6319.029297" xlink:href="#DejaVuSans-36"/>
     <use x="6382.652344" xlink:href="#DejaVuSans-3b"/>
     <use x="6416.34375" xlink:href="#DejaVuSans-62"/>
     <use x="6479.820312" xlink:href="#DejaVuSans-32"/>
     <use x="6543.443359" xlink:href="#DejaVuSans-32"/>
     <use x="6607.066406" xlink:href="#DejaVuSans-30"/>
     <use x="6670.689453" xlink:href="#DejaVuSans-37"/>
     <use x="6734.3125" xlink:href="#DejaVuSans-3b"/>
     <use x="6768.003906" xlink:href="#DejaVuSans-62"/>
     <use x="6831.480469" xlink:href="#DejaVuSans-32"/>
     <use x="6895.103516" xlink:href="#DejaVuSans-32"/>
     <use x="6958.726562" xlink:href="#DejaVuSans-30"/>
     <use x="7022.349609" xlink:href="#DejaVuSans-38"/>
    </g>
   </g>
   <g id="legend_1">
    <g id="patch_7">
     <path d="M 343.921563 269.643875 
L 407.72 269.643875 
Q 409.72 269.643875 409.72 267.643875 
L 409.72 48.472 
Q 409.72 46.472 407.72 46.472 
L 343.921563 46.472 
Q 341.921563 46.472 341.921563 48.472 
L 341.921563 267.643875 
Q 341.921563 269.643875 343.921563 269.643875 
z
" style="fill:#e5e5e5;opacity:0.8;stroke:#cccccc;stroke-linejoin:miter;stroke-width:0.5;"/>
    </g>
    <g id="line2d_40">
     <path d="M 345.921563 54.570437 
L 365.921563 54.570437 
" style="fill:none;stroke:#e24a33;stroke-linecap:square;stroke-width:0.3;"/>
    </g>
    <g id="line2d_41"/>
    <g id="text_16">
     <!-- b2194 -->
     <g transform="translate(373.921563 58.070437)scale(0.1 -0.1)">
      <use xlink:href="#DejaVuSans-62"/>
      <use x="63.476562" xlink:href="#DejaVuSans-32"/>
      <use x="127.099609" xlink:href="#DejaVuSans-31"/>
      <use x="190.722656" xlink:href="#DejaVuSans-39"/>
      <use x="254.345703" xlink:href="#DejaVuSans-34"/>
     </g>
    </g>
    <g id="line2d_42">
     <path d="M 345.921563 69.248562 
L 365.921563 69.248562 
" style="fill:none;stroke:#348abd;stroke-linecap:square;stroke-width:0.3;"/>
    </g>
    <g id="line2d_43"/>
    <g id="text_17">
     <!-- b2195 -->
     <g transform="translate(373.921563 72.748562)scale(0.1 -0.1)">
      <use xlink:href="#DejaVuSans-62"/>
      <use x="63.476562" xlink:href="#DejaVuSans-32"/>
      <use x="127.099609" xlink:href="#DejaVuSans-31"/>
      <use x="190.722656" xlink:href="#DejaVuSans-39"/>
      <use x="254.345703" xlink:href="#DejaVuSans-35"/>
     </g>
    </g>
    <g id="line2d_44">
     <path d="M 345.921563 83.926688 
L 365.921563 83.926688 
" style="fill:none;stroke:#988ed5;stroke-linecap:square;stroke-width:0.3;"/>
    </g>
    <g id="line2d_45"/>
    <g id="text_18">
     <!-- b2196 -->
     <g transform="translate(373.921563 87.426688)scale(0.1 -0.1)">
      <use xlink:href="#DejaVuSans-62"/>
      <use x="63.476562" xlink:href="#DejaVuSans-32"/>
      <use x="127.099609" xlink:href="#DejaVuSans-31"/>
      <use x="190.722656" xlink:href="#DejaVuSans-39"/>
      <use x="254.345703" xlink:href="#DejaVuSans-36"/>
     </g>
    </g>
    <g id="line2d_46">
     <path d="M 345.921563 98.604812 
L 365.921563 98.604812 
" style="fill:none;stroke:#777777;stroke-linecap:square;stroke-width:0.3;"/>
    </g>
    <g id="line2d_47"/>
    <g id="text_19">
     <!-- b2197 -->
     <g transform="translate(373.921563 102.104812)scale(0.1 -0.1)">
      <use xlink:href="#DejaVuSans-62"/>
      <use x="63.476562" xlink:href="#DejaVuSans-32"/>
      <use x="127.099609" xlink:href="#DejaVuSans-31"/>
      <use x="190.722656" xlink:href="#DejaVuSans-39"/>
      <use x="254.345703" xlink:href="#DejaVuSans-37"/>
     </g>
    </g>
    <g id="line2d_48">
     <path d="M 345.921563 113.282938 
L 365.921563 113.282938 
" style="fill:none;stroke:#fbc15e;stroke-linecap:square;stroke-width:0.3;"/>
    </g>
    <g id="line2d_49"/>
    <g id="text_20">
     <!-- b2198 -->
     <g transform="translate(373.921563 116.782938)scale(0.1 -0.1)">
      <use xlink:href="#DejaVuSans-62"/>
      <use x="63.476562" xlink:href="#DejaVuSans-32"/>
      <use x="127.099609" xlink:href="#DejaVuSans-31"/>
      <use x="190.722656" xlink:href="#DejaVuSans-39"/>
      <use x="254.345703" xlink:href="#DejaVuSans-38"/>
     </g>
    </g>
    <g id="line2d_50">
     <path d="M 345.921563 127.961062 
L 365.921563 127.961062 
" style="fill:none;stroke:#8eba42;stroke-linecap:square;stroke-width:0.3;"/>
    </g>
    <g id="line2d_51"/>
    <g id="text_21">
     <!-- b2199 -->
     <g transform="translate(373.921563 131.461062)scale(0.1 -0.1)">
      <use xlink:href="#DejaVuSans-62"/>
      <use x="63.476562" xlink:href="#DejaVuSans-32"/>
      <use x="127.099609" xlink:href="#DejaVuSans-31"/>
      <use x="190.722656" xlink:href="#DejaVuSans-39"/>
      <use x="254.345703" xlink:href="#DejaVuSans-39"/>
     </g>
    </g>
    <g id="line2d_52">
     <path d="M 345.921563 142.639187 
L 365.921563 142.639187 
" style="fill:none;stroke:#ffb5b8;stroke-linecap:square;stroke-width:0.3;"/>
    </g>
    <g id="line2d_53"/>
    <g id="text_22">
     <!-- b2200 -->
     <g transform="translate(373.921563 146.139187)scale(0.1 -0.1)">
      <use xlink:href="#DejaVuSans-62"/>
      <use x="63.476562" xlink:href="#DejaVuSans-32"/>
      <use x="127.099609" xlink:href="#DejaVuSans-32"/>
      <use x="190.722656" xlink:href="#DejaVuSans-30"/>
      <use x="254.345703" xlink:href="#DejaVuSans-30"/>
     </g>
    </g>
    <g id="line2d_54">
     <path d="M 345.921563 157.317312 
L 365.921563 157.317312 
" style="fill:none;stroke:#e24a33;stroke-linecap:square;stroke-width:0.3;"/>
    </g>
    <g id="line2d_55"/>
    <g id="text_23">
     <!-- b2201 -->
     <g transform="translate(373.921563 160.817312)scale(0.1 -0.1)">
      <use xlink:href="#DejaVuSans-62"/>
      <use x="63.476562" xlink:href="#DejaVuSans-32"/>
      <use x="127.099609" xlink:href="#DejaVuSans-32"/>
      <use x="190.722656" xlink:href="#DejaVuSans-30"/>
      <use x="254.345703" xlink:href="#DejaVuSans-31"/>
     </g>
    </g>
    <g id="line2d_56">
     <path d="M 345.921563 171.995437 
L 365.921563 171.995437 
" style="fill:none;stroke:#348abd;stroke-linecap:square;stroke-width:0.3;"/>
    </g>
    <g id="line2d_57"/>
    <g id="text_24">
     <!-- b2202 -->
     <g transform="translate(373.921563 175.495437)scale(0.1 -0.1)">
      <use xlink:href="#DejaVuSans-62"/>
      <use x="63.476562" xlink:href="#DejaVuSans-32"/>
      <use x="127.099609" xlink:href="#DejaVuSans-32"/>
      <use x="190.722656" xlink:href="#DejaVuSans-30"/>
      <use x="254.345703" xlink:href="#DejaVuSans-32"/>
     </g>
    </g>
    <g id="line2d_58">
     <path d="M 345.921563 186.673562 
L 365.921563 186.673562 
" style="fill:none;stroke:#988ed5;stroke-linecap:square;stroke-width:0.3;"/>
    </g>
    <g id="line2d_59"/>
    <g id="text_25">
     <!-- b2203 -->
     <g transform="translate(373.921563 190.173562)scale(0.1 -0.1)">
      <use xlink:href="#DejaVuSans-62"/>
      <use x="63.476562" xlink:href="#DejaVuSans-32"/>
      <use x="127.099609" xlink:href="#DejaVuSans-32"/>
      <use x="190.722656" xlink:href="#DejaVuSans-30"/>
      <use x="254.345703" xlink:href="#DejaVuSans-33"/>
     </g>
    </g>
    <g id="line2d_60">
     <path d="M 345.921563 201.351687 
L 365.921563 201.351687 
" style="fill:none;stroke:#777777;stroke-linecap:square;stroke-width:0.3;"/>
    </g>
    <g id="line2d_61"/>
    <g id="text_26">
     <!-- b2204 -->
     <g transform="translate(373.921563 204.851687)scale(0.1 -0.1)">
      <use xlink:href="#DejaVuSans-62"/>
      <use x="63.476562" xlink:href="#DejaVuSans-32"/>
      <use x="127.099609" xlink:href="#DejaVuSans-32"/>
      <use x="190.722656" xlink:href="#DejaVuSans-30"/>
      <use x="254.345703" xlink:href="#DejaVuSans-34"/>
     </g>
    </g>
    <g id="line2d_62">
     <path d="M 345.921563 216.029812 
L 365.921563 216.029812 
" style="fill:none;stroke:#fbc15e;stroke-linecap:square;stroke-width:0.3;"/>
    </g>
    <g id="line2d_63"/>
    <g id="text_27">
     <!-- b2205 -->
     <g transform="translate(373.921563 219.529812)scale(0.1 -0.1)">
      <use xlink:href="#DejaVuSans-62"/>
      <use x="63.476562" xlink:href="#DejaVuSans-32"/>
      <use x="127.099609" xlink:href="#DejaVuSans-32"/>
      <use x="190.722656" xlink:href="#DejaVuSans-30"/>
      <use x="254.345703" xlink:href="#DejaVuSans-35"/>
     </g>
    </g>
    <g id="line2d_64">
     <path d="M 345.921563 230.707937 
L 365.921563 230.707937 
" style="fill:none;stroke:#8eba42;stroke-linecap:square;stroke-width:0.3;"/>
    </g>
    <g id="line2d_65"/>
    <g id="text_28">
     <!-- b2206 -->
     <g transform="translate(373.921563 234.207937)scale(0.1 -0.1)">
      <use xlink:href="#DejaVuSans-62"/>
      <use x="63.476562" xlink:href="#DejaVuSans-32"/>
      <use x="127.099609" xlink:href="#DejaVuSans-32"/>
      <use x="190.722656" xlink:href="#DejaVuSans-30"/>
      <use x="254.345703" xlink:href="#DejaVuSans-36"/>
     </g>
    </g>
    <g id="line2d_66">
     <path d="M 345.921563 245.386062 
L 365.921563 245.386062 
" style="fill:none;stroke:#ffb5b8;stroke-linecap:square;stroke-width:0.3;"/>
    </g>
    <g id="line2d_67"/>
    <g id="text_29">
     <!-- b2207 -->
     <g transform="translate(373.921563 248.886062)scale(0.1 -0.1)">
      <use xlink:href="#DejaVuSans-62"/>
      <use x="63.476562" xlink:href="#DejaVuSans-32"/>
      <use x="127.099609" xlink:href="#DejaVuSans-32"/>
      <use x="190.722656" xlink:href="#DejaVuSans-30"/>
      <use x="254.345703" xlink:href="#DejaVuSans-37"/>
     </g>
    </g>
    <g id="line2d_68">
     <path d="M 345.921563 260.064187 
L 365.921563 260.064187 
" style="fill:none;stroke:#e24a33;stroke-linecap:square;stroke-width:0.3;"/>
    </g>
    <g id="line2d_69"/>
    <g id="text_30">
     <!-- b2208 -->
     <g transform="translate(373.921563 263.564187)scale(0.1 -0.1)">
      <use xlink:href="#DejaVuSans-62"/>
      <use x="63.476562" xlink:href="#DejaVuSans-32"/>
      <use x="127.099609" xlink:href="#DejaVuSans-32"/>
      <use x="190.722656" xlink:href="#DejaVuSans-30"/>
      <use x="254.345703" xlink:href="#DejaVuSans-38"/>
     </g>
    </g>
   </g>
  </g>
 </g>
 <defs>
  <clipPath id="pf77ea5d875">
   <rect height="266.112" width="357.12" x="57.6" y="41.472"/>
  </clipPath>
 </defs>
</svg>
