<?xml version="1.0" encoding="utf-8" standalone="no"?>
<!DOCTYPE svg PUBLIC "-//W3C//DTD SVG 1.1//EN"
  "http://www.w3.org/Graphics/SVG/1.1/DTD/svg11.dtd">
<!-- Created with matplotlib (http://matplotlib.org/) -->
<svg height="345pt" version="1.1" viewBox="0 0 460 345" width="460pt" xmlns="http://www.w3.org/2000/svg" xmlns:xlink="http://www.w3.org/1999/xlink">
 <defs>
  <style type="text/css">
*{stroke-linecap:butt;stroke-linejoin:round;}
  </style>
 </defs>
 <g id="figure_1">
  <g id="patch_1">
   <path d="M 0 345.6 
L 460.8 345.6 
L 460.8 0 
L 0 0 
z
" style="fill:#ffffff;"/>
  </g>
  <g id="axes_1">
   <g id="patch_2">
    <path d="M 57.6 307.584 
L 414.72 307.584 
L 414.72 41.472 
L 57.6 41.472 
z
" style="fill:#e5e5e5;"/>
   </g>
   <g id="matplotlib.axis_1">
    <g id="xtick_1">
     <g id="line2d_1">
      <path clip-path="url(#p9574b1fa54)" d="M 61.915353 307.584 
L 61.915353 41.472 
" style="fill:none;stroke:#ffffff;stroke-linecap:square;stroke-width:0.8;"/>
     </g>
     <g id="line2d_2">
      <defs>
       <path d="M 0 0 
L 0 3.5 
" id="m8ca4037a53" style="stroke:#555555;stroke-width:0.8;"/>
      </defs>
      <g>
       <use style="fill:#555555;stroke:#555555;stroke-width:0.8;" x="61.915353" xlink:href="#m8ca4037a53" y="307.584"/>
      </g>
     </g>
     <g id="text_1">
      <!-- −200 -->
      <defs>
       <path d="M 10.59375 35.5 
L 73.1875 35.5 
L 73.1875 27.203125 
L 10.59375 27.203125 
z
" id="DejaVuSans-2212"/>
       <path d="M 19.1875 8.296875 
L 53.609375 8.296875 
L 53.609375 0 
L 7.328125 0 
L 7.328125 8.296875 
Q 12.9375 14.109375 22.625 23.890625 
Q 32.328125 33.6875 34.8125 36.53125 
Q 39.546875 41.84375 41.421875 45.53125 
Q 43.3125 49.21875 43.3125 52.78125 
Q 43.3125 58.59375 39.234375 62.25 
Q 35.15625 65.921875 28.609375 65.921875 
Q 23.96875 65.921875 18.8125 64.3125 
Q 13.671875 62.703125 7.8125 59.421875 
L 7.8125 69.390625 
Q 13.765625 71.78125 18.9375 73 
Q 24.125 74.21875 28.421875 74.21875 
Q 39.75 74.21875 46.484375 68.546875 
Q 53.21875 62.890625 53.21875 53.421875 
Q 53.21875 48.921875 51.53125 44.890625 
Q 49.859375 40.875 45.40625 35.40625 
Q 44.1875 33.984375 37.640625 27.21875 
Q 31.109375 20.453125 19.1875 8.296875 
z
" id="DejaVuSans-32"/>
       <path d="M 31.78125 66.40625 
Q 24.171875 66.40625 20.328125 58.90625 
Q 16.5 51.421875 16.5 36.375 
Q 16.5 21.390625 20.328125 13.890625 
Q 24.171875 6.390625 31.78125 6.390625 
Q 39.453125 6.390625 43.28125 13.890625 
Q 47.125 21.390625 47.125 36.375 
Q 47.125 51.421875 43.28125 58.90625 
Q 39.453125 66.40625 31.78125 66.40625 
z
M 31.78125 74.21875 
Q 44.046875 74.21875 50.515625 64.515625 
Q 56.984375 54.828125 56.984375 36.375 
Q 56.984375 17.96875 50.515625 8.265625 
Q 44.046875 -1.421875 31.78125 -1.421875 
Q 19.53125 -1.421875 13.0625 8.265625 
Q 6.59375 17.96875 6.59375 36.375 
Q 6.59375 54.828125 13.0625 64.515625 
Q 19.53125 74.21875 31.78125 74.21875 
z
" id="DejaVuSans-30"/>
      </defs>
      <g style="fill:#555555;" transform="translate(48.181759 322.182437)scale(0.1 -0.1)">
       <use xlink:href="#DejaVuSans-2212"/>
       <use x="83.789062" xlink:href="#DejaVuSans-32"/>
       <use x="147.412109" xlink:href="#DejaVuSans-30"/>
       <use x="211.035156" xlink:href="#DejaVuSans-30"/>
      </g>
     </g>
    </g>
    <g id="xtick_2">
     <g id="line2d_3">
      <path clip-path="url(#p9574b1fa54)" d="M 103.85149 307.584 
L 103.85149 41.472 
" style="fill:none;stroke:#ffffff;stroke-linecap:square;stroke-width:0.8;"/>
     </g>
     <g id="line2d_4">
      <g>
       <use style="fill:#555555;stroke:#555555;stroke-width:0.8;" x="103.85149" xlink:href="#m8ca4037a53" y="307.584"/>
      </g>
     </g>
     <g id="text_2">
      <!-- 0 -->
      <g style="fill:#555555;" transform="translate(100.67024 322.182437)scale(0.1 -0.1)">
       <use xlink:href="#DejaVuSans-30"/>
      </g>
     </g>
    </g>
    <g id="xtick_3">
     <g id="line2d_5">
      <path clip-path="url(#p9574b1fa54)" d="M 145.787626 307.584 
L 145.787626 41.472 
" style="fill:none;stroke:#ffffff;stroke-linecap:square;stroke-width:0.8;"/>
     </g>
     <g id="line2d_6">
      <g>
       <use style="fill:#555555;stroke:#555555;stroke-width:0.8;" x="145.787626" xlink:href="#m8ca4037a53" y="307.584"/>
      </g>
     </g>
     <g id="text_3">
      <!-- 200 -->
      <g style="fill:#555555;" transform="translate(136.243876 322.182437)scale(0.1 -0.1)">
       <use xlink:href="#DejaVuSans-32"/>
       <use x="63.623047" xlink:href="#DejaVuSans-30"/>
       <use x="127.246094" xlink:href="#DejaVuSans-30"/>
      </g>
     </g>
    </g>
    <g id="xtick_4">
     <g id="line2d_7">
      <path clip-path="url(#p9574b1fa54)" d="M 187.723762 307.584 
L 187.723762 41.472 
" style="fill:none;stroke:#ffffff;stroke-linecap:square;stroke-width:0.8;"/>
     </g>
     <g id="line2d_8">
      <g>
       <use style="fill:#555555;stroke:#555555;stroke-width:0.8;" x="187.723762" xlink:href="#m8ca4037a53" y="307.584"/>
      </g>
     </g>
     <g id="text_4">
      <!-- 400 -->
      <defs>
       <path d="M 37.796875 64.3125 
L 12.890625 25.390625 
L 37.796875 25.390625 
z
M 35.203125 72.90625 
L 47.609375 72.90625 
L 47.609375 25.390625 
L 58.015625 25.390625 
L 58.015625 17.1875 
L 47.609375 17.1875 
L 47.609375 0 
L 37.796875 0 
L 37.796875 17.1875 
L 4.890625 17.1875 
L 4.890625 26.703125 
z
" id="DejaVuSans-34"/>
      </defs>
      <g style="fill:#555555;" transform="translate(178.180012 322.182437)scale(0.1 -0.1)">
       <use xlink:href="#DejaVuSans-34"/>
       <use x="63.623047" xlink:href="#DejaVuSans-30"/>
       <use x="127.246094" xlink:href="#DejaVuSans-30"/>
      </g>
     </g>
    </g>
    <g id="xtick_5">
     <g id="line2d_9">
      <path clip-path="url(#p9574b1fa54)" d="M 229.659899 307.584 
L 229.659899 41.472 
" style="fill:none;stroke:#ffffff;stroke-linecap:square;stroke-width:0.8;"/>
     </g>
     <g id="line2d_10">
      <g>
       <use style="fill:#555555;stroke:#555555;stroke-width:0.8;" x="229.659899" xlink:href="#m8ca4037a53" y="307.584"/>
      </g>
     </g>
     <g id="text_5">
      <!-- 600 -->
      <defs>
       <path d="M 33.015625 40.375 
Q 26.375 40.375 22.484375 35.828125 
Q 18.609375 31.296875 18.609375 23.390625 
Q 18.609375 15.53125 22.484375 10.953125 
Q 26.375 6.390625 33.015625 6.390625 
Q 39.65625 6.390625 43.53125 10.953125 
Q 47.40625 15.53125 47.40625 23.390625 
Q 47.40625 31.296875 43.53125 35.828125 
Q 39.65625 40.375 33.015625 40.375 
z
M 52.59375 71.296875 
L 52.59375 62.3125 
Q 48.875 64.0625 45.09375 64.984375 
Q 41.3125 65.921875 37.59375 65.921875 
Q 27.828125 65.921875 22.671875 59.328125 
Q 17.53125 52.734375 16.796875 39.40625 
Q 19.671875 43.65625 24.015625 45.921875 
Q 28.375 48.1875 33.59375 48.1875 
Q 44.578125 48.1875 50.953125 41.515625 
Q 57.328125 34.859375 57.328125 23.390625 
Q 57.328125 12.15625 50.6875 5.359375 
Q 44.046875 -1.421875 33.015625 -1.421875 
Q 20.359375 -1.421875 13.671875 8.265625 
Q 6.984375 17.96875 6.984375 36.375 
Q 6.984375 53.65625 15.1875 63.9375 
Q 23.390625 74.21875 37.203125 74.21875 
Q 40.921875 74.21875 44.703125 73.484375 
Q 48.484375 72.75 52.59375 71.296875 
z
" id="DejaVuSans-36"/>
      </defs>
      <g style="fill:#555555;" transform="translate(220.116149 322.182437)scale(0.1 -0.1)">
       <use xlink:href="#DejaVuSans-36"/>
       <use x="63.623047" xlink:href="#DejaVuSans-30"/>
       <use x="127.246094" xlink:href="#DejaVuSans-30"/>
      </g>
     </g>
    </g>
    <g id="xtick_6">
     <g id="line2d_11">
      <path clip-path="url(#p9574b1fa54)" d="M 271.596035 307.584 
L 271.596035 41.472 
" style="fill:none;stroke:#ffffff;stroke-linecap:square;stroke-width:0.8;"/>
     </g>
     <g id="line2d_12">
      <g>
       <use style="fill:#555555;stroke:#555555;stroke-width:0.8;" x="271.596035" xlink:href="#m8ca4037a53" y="307.584"/>
      </g>
     </g>
     <g id="text_6">
      <!-- 800 -->
      <defs>
       <path d="M 31.78125 34.625 
Q 24.75 34.625 20.71875 30.859375 
Q 16.703125 27.09375 16.703125 20.515625 
Q 16.703125 13.921875 20.71875 10.15625 
Q 24.75 6.390625 31.78125 6.390625 
Q 38.8125 6.390625 42.859375 10.171875 
Q 46.921875 13.96875 46.921875 20.515625 
Q 46.921875 27.09375 42.890625 30.859375 
Q 38.875 34.625 31.78125 34.625 
z
M 21.921875 38.8125 
Q 15.578125 40.375 12.03125 44.71875 
Q 8.5 49.078125 8.5 55.328125 
Q 8.5 64.0625 14.71875 69.140625 
Q 20.953125 74.21875 31.78125 74.21875 
Q 42.671875 74.21875 48.875 69.140625 
Q 55.078125 64.0625 55.078125 55.328125 
Q 55.078125 49.078125 51.53125 44.71875 
Q 48 40.375 41.703125 38.8125 
Q 48.828125 37.15625 52.796875 32.3125 
Q 56.78125 27.484375 56.78125 20.515625 
Q 56.78125 9.90625 50.3125 4.234375 
Q 43.84375 -1.421875 31.78125 -1.421875 
Q 19.734375 -1.421875 13.25 4.234375 
Q 6.78125 9.90625 6.78125 20.515625 
Q 6.78125 27.484375 10.78125 32.3125 
Q 14.796875 37.15625 21.921875 38.8125 
z
M 18.3125 54.390625 
Q 18.3125 48.734375 21.84375 45.5625 
Q 25.390625 42.390625 31.78125 42.390625 
Q 38.140625 42.390625 41.71875 45.5625 
Q 45.3125 48.734375 45.3125 54.390625 
Q 45.3125 60.0625 41.71875 63.234375 
Q 38.140625 66.40625 31.78125 66.40625 
Q 25.390625 66.40625 21.84375 63.234375 
Q 18.3125 60.0625 18.3125 54.390625 
z
" id="DejaVuSans-38"/>
      </defs>
      <g style="fill:#555555;" transform="translate(262.052285 322.182437)scale(0.1 -0.1)">
       <use xlink:href="#DejaVuSans-38"/>
       <use x="63.623047" xlink:href="#DejaVuSans-30"/>
       <use x="127.246094" xlink:href="#DejaVuSans-30"/>
      </g>
     </g>
    </g>
    <g id="xtick_7">
     <g id="line2d_13">
      <path clip-path="url(#p9574b1fa54)" d="M 313.532172 307.584 
L 313.532172 41.472 
" style="fill:none;stroke:#ffffff;stroke-linecap:square;stroke-width:0.8;"/>
     </g>
     <g id="line2d_14">
      <g>
       <use style="fill:#555555;stroke:#555555;stroke-width:0.8;" x="313.532172" xlink:href="#m8ca4037a53" y="307.584"/>
      </g>
     </g>
     <g id="text_7">
      <!-- 1000 -->
      <defs>
       <path d="M 12.40625 8.296875 
L 28.515625 8.296875 
L 28.515625 63.921875 
L 10.984375 60.40625 
L 10.984375 69.390625 
L 28.421875 72.90625 
L 38.28125 72.90625 
L 38.28125 8.296875 
L 54.390625 8.296875 
L 54.390625 0 
L 12.40625 0 
z
" id="DejaVuSans-31"/>
      </defs>
      <g style="fill:#555555;" transform="translate(300.807172 322.182437)scale(0.1 -0.1)">
       <use xlink:href="#DejaVuSans-31"/>
       <use x="63.623047" xlink:href="#DejaVuSans-30"/>
       <use x="127.246094" xlink:href="#DejaVuSans-30"/>
       <use x="190.869141" xlink:href="#DejaVuSans-30"/>
      </g>
     </g>
    </g>
    <g id="xtick_8">
     <g id="line2d_15">
      <path clip-path="url(#p9574b1fa54)" d="M 355.468308 307.584 
L 355.468308 41.472 
" style="fill:none;stroke:#ffffff;stroke-linecap:square;stroke-width:0.8;"/>
     </g>
     <g id="line2d_16">
      <g>
       <use style="fill:#555555;stroke:#555555;stroke-width:0.8;" x="355.468308" xlink:href="#m8ca4037a53" y="307.584"/>
      </g>
     </g>
     <g id="text_8">
      <!-- 1200 -->
      <g style="fill:#555555;" transform="translate(342.743308 322.182437)scale(0.1 -0.1)">
       <use xlink:href="#DejaVuSans-31"/>
       <use x="63.623047" xlink:href="#DejaVuSans-32"/>
       <use x="127.246094" xlink:href="#DejaVuSans-30"/>
       <use x="190.869141" xlink:href="#DejaVuSans-30"/>
      </g>
     </g>
    </g>
    <g id="xtick_9">
     <g id="line2d_17">
      <path clip-path="url(#p9574b1fa54)" d="M 397.404445 307.584 
L 397.404445 41.472 
" style="fill:none;stroke:#ffffff;stroke-linecap:square;stroke-width:0.8;"/>
     </g>
     <g id="line2d_18">
      <g>
       <use style="fill:#555555;stroke:#555555;stroke-width:0.8;" x="397.404445" xlink:href="#m8ca4037a53" y="307.584"/>
      </g>
     </g>
     <g id="text_9">
      <!-- 1400 -->
      <g style="fill:#555555;" transform="translate(384.679445 322.182437)scale(0.1 -0.1)">
       <use xlink:href="#DejaVuSans-31"/>
       <use x="63.623047" xlink:href="#DejaVuSans-34"/>
       <use x="127.246094" xlink:href="#DejaVuSans-30"/>
       <use x="190.869141" xlink:href="#DejaVuSans-30"/>
      </g>
     </g>
    </g>
    <g id="text_10">
     <!-- count -->
     <defs>
      <path d="M 48.78125 52.59375 
L 48.78125 44.1875 
Q 44.96875 46.296875 41.140625 47.34375 
Q 37.3125 48.390625 33.40625 48.390625 
Q 24.65625 48.390625 19.8125 42.84375 
Q 14.984375 37.3125 14.984375 27.296875 
Q 14.984375 17.28125 19.8125 11.734375 
Q 24.65625 6.203125 33.40625 6.203125 
Q 37.3125 6.203125 41.140625 7.25 
Q 44.96875 8.296875 48.78125 10.40625 
L 48.78125 2.09375 
Q 45.015625 0.34375 40.984375 -0.53125 
Q 36.96875 -1.421875 32.421875 -1.421875 
Q 20.0625 -1.421875 12.78125 6.34375 
Q 5.515625 14.109375 5.515625 27.296875 
Q 5.515625 40.671875 12.859375 48.328125 
Q 20.21875 56 33.015625 56 
Q 37.15625 56 41.109375 55.140625 
Q 45.0625 54.296875 48.78125 52.59375 
z
" id="DejaVuSans-63"/>
      <path d="M 30.609375 48.390625 
Q 23.390625 48.390625 19.1875 42.75 
Q 14.984375 37.109375 14.984375 27.296875 
Q 14.984375 17.484375 19.15625 11.84375 
Q 23.34375 6.203125 30.609375 6.203125 
Q 37.796875 6.203125 41.984375 11.859375 
Q 46.1875 17.53125 46.1875 27.296875 
Q 46.1875 37.015625 41.984375 42.703125 
Q 37.796875 48.390625 30.609375 48.390625 
z
M 30.609375 56 
Q 42.328125 56 49.015625 48.375 
Q 55.71875 40.765625 55.71875 27.296875 
Q 55.71875 13.875 49.015625 6.21875 
Q 42.328125 -1.421875 30.609375 -1.421875 
Q 18.84375 -1.421875 12.171875 6.21875 
Q 5.515625 13.875 5.515625 27.296875 
Q 5.515625 40.765625 12.171875 48.375 
Q 18.84375 56 30.609375 56 
z
" id="DejaVuSans-6f"/>
      <path d="M 8.5 21.578125 
L 8.5 54.6875 
L 17.484375 54.6875 
L 17.484375 21.921875 
Q 17.484375 14.15625 20.5 10.265625 
Q 23.53125 6.390625 29.59375 6.390625 
Q 36.859375 6.390625 41.078125 11.03125 
Q 45.3125 15.671875 45.3125 23.6875 
L 45.3125 54.6875 
L 54.296875 54.6875 
L 54.296875 0 
L 45.3125 0 
L 45.3125 8.40625 
Q 42.046875 3.421875 37.71875 1 
Q 33.40625 -1.421875 27.6875 -1.421875 
Q 18.265625 -1.421875 13.375 4.4375 
Q 8.5 10.296875 8.5 21.578125 
z
M 31.109375 56 
z
" id="DejaVuSans-75"/>
      <path d="M 54.890625 33.015625 
L 54.890625 0 
L 45.90625 0 
L 45.90625 32.71875 
Q 45.90625 40.484375 42.875 44.328125 
Q 39.84375 48.1875 33.796875 48.1875 
Q 26.515625 48.1875 22.3125 43.546875 
Q 18.109375 38.921875 18.109375 30.90625 
L 18.109375 0 
L 9.078125 0 
L 9.078125 54.6875 
L 18.109375 54.6875 
L 18.109375 46.1875 
Q 21.34375 51.125 25.703125 53.5625 
Q 30.078125 56 35.796875 56 
Q 45.21875 56 50.046875 50.171875 
Q 54.890625 44.34375 54.890625 33.015625 
z
" id="DejaVuSans-6e"/>
      <path d="M 18.3125 70.21875 
L 18.3125 54.6875 
L 36.8125 54.6875 
L 36.8125 47.703125 
L 18.3125 47.703125 
L 18.3125 18.015625 
Q 18.3125 11.328125 20.140625 9.421875 
Q 21.96875 7.515625 27.59375 7.515625 
L 36.8125 7.515625 
L 36.8125 0 
L 27.59375 0 
Q 17.1875 0 13.234375 3.875 
Q 9.28125 7.765625 9.28125 18.015625 
L 9.28125 47.703125 
L 2.6875 47.703125 
L 2.6875 54.6875 
L 9.28125 54.6875 
L 9.28125 70.21875 
z
" id="DejaVuSans-74"/>
     </defs>
     <g style="fill:#555555;" transform="translate(219.2325 337.38025)scale(0.12 -0.12)">
      <use xlink:href="#DejaVuSans-63"/>
      <use x="54.980469" xlink:href="#DejaVuSans-6f"/>
      <use x="116.162109" xlink:href="#DejaVuSans-75"/>
      <use x="179.541016" xlink:href="#DejaVuSans-6e"/>
      <use x="242.919922" xlink:href="#DejaVuSans-74"/>
     </g>
    </g>
   </g>
   <g id="matplotlib.axis_2">
    <g id="ytick_1">
     <g id="line2d_19">
      <path clip-path="url(#p9574b1fa54)" d="M 57.6 307.584 
L 414.72 307.584 
" style="fill:none;stroke:#ffffff;stroke-linecap:square;stroke-width:0.8;"/>
     </g>
     <g id="line2d_20">
      <defs>
       <path d="M 0 0 
L -3.5 0 
" id="m00f872d9aa" style="stroke:#555555;stroke-width:0.8;"/>
      </defs>
      <g>
       <use style="fill:#555555;stroke:#555555;stroke-width:0.8;" x="57.6" xlink:href="#m00f872d9aa" y="307.584"/>
      </g>
     </g>
     <g id="text_11">
      <!-- 0.00 -->
      <defs>
       <path d="M 10.6875 12.40625 
L 21 12.40625 
L 21 0 
L 10.6875 0 
z
" id="DejaVuSans-2e"/>
      </defs>
      <g style="fill:#555555;" transform="translate(28.334375 311.383219)scale(0.1 -0.1)">
       <use xlink:href="#DejaVuSans-30"/>
       <use x="63.623047" xlink:href="#DejaVuSans-2e"/>
       <use x="95.410156" xlink:href="#DejaVuSans-30"/>
       <use x="159.033203" xlink:href="#DejaVuSans-30"/>
      </g>
     </g>
    </g>
    <g id="ytick_2">
     <g id="line2d_21">
      <path clip-path="url(#p9574b1fa54)" d="M 57.6 249.899996 
L 414.72 249.899996 
" style="fill:none;stroke:#ffffff;stroke-linecap:square;stroke-width:0.8;"/>
     </g>
     <g id="line2d_22">
      <g>
       <use style="fill:#555555;stroke:#555555;stroke-width:0.8;" x="57.6" xlink:href="#m00f872d9aa" y="249.899996"/>
      </g>
     </g>
     <g id="text_12">
      <!-- 0.01 -->
      <g style="fill:#555555;" transform="translate(28.334375 253.699215)scale(0.1 -0.1)">
       <use xlink:href="#DejaVuSans-30"/>
       <use x="63.623047" xlink:href="#DejaVuSans-2e"/>
       <use x="95.410156" xlink:href="#DejaVuSans-30"/>
       <use x="159.033203" xlink:href="#DejaVuSans-31"/>
      </g>
     </g>
    </g>
    <g id="ytick_3">
     <g id="line2d_23">
      <path clip-path="url(#p9574b1fa54)" d="M 57.6 192.215992 
L 414.72 192.215992 
" style="fill:none;stroke:#ffffff;stroke-linecap:square;stroke-width:0.8;"/>
     </g>
     <g id="line2d_24">
      <g>
       <use style="fill:#555555;stroke:#555555;stroke-width:0.8;" x="57.6" xlink:href="#m00f872d9aa" y="192.215992"/>
      </g>
     </g>
     <g id="text_13">
      <!-- 0.02 -->
      <g style="fill:#555555;" transform="translate(28.334375 196.015211)scale(0.1 -0.1)">
       <use xlink:href="#DejaVuSans-30"/>
       <use x="63.623047" xlink:href="#DejaVuSans-2e"/>
       <use x="95.410156" xlink:href="#DejaVuSans-30"/>
       <use x="159.033203" xlink:href="#DejaVuSans-32"/>
      </g>
     </g>
    </g>
    <g id="ytick_4">
     <g id="line2d_25">
      <path clip-path="url(#p9574b1fa54)" d="M 57.6 134.531988 
L 414.72 134.531988 
" style="fill:none;stroke:#ffffff;stroke-linecap:square;stroke-width:0.8;"/>
     </g>
     <g id="line2d_26">
      <g>
       <use style="fill:#555555;stroke:#555555;stroke-width:0.8;" x="57.6" xlink:href="#m00f872d9aa" y="134.531988"/>
      </g>
     </g>
     <g id="text_14">
      <!-- 0.03 -->
      <defs>
       <path d="M 40.578125 39.3125 
Q 47.65625 37.796875 51.625 33 
Q 55.609375 28.21875 55.609375 21.1875 
Q 55.609375 10.40625 48.1875 4.484375 
Q 40.765625 -1.421875 27.09375 -1.421875 
Q 22.515625 -1.421875 17.65625 -0.515625 
Q 12.796875 0.390625 7.625 2.203125 
L 7.625 11.71875 
Q 11.71875 9.328125 16.59375 8.109375 
Q 21.484375 6.890625 26.8125 6.890625 
Q 36.078125 6.890625 40.9375 10.546875 
Q 45.796875 14.203125 45.796875 21.1875 
Q 45.796875 27.640625 41.28125 31.265625 
Q 36.765625 34.90625 28.71875 34.90625 
L 20.21875 34.90625 
L 20.21875 43.015625 
L 29.109375 43.015625 
Q 36.375 43.015625 40.234375 45.921875 
Q 44.09375 48.828125 44.09375 54.296875 
Q 44.09375 59.90625 40.109375 62.90625 
Q 36.140625 65.921875 28.71875 65.921875 
Q 24.65625 65.921875 20.015625 65.03125 
Q 15.375 64.15625 9.8125 62.3125 
L 9.8125 71.09375 
Q 15.4375 72.65625 20.34375 73.4375 
Q 25.25 74.21875 29.59375 74.21875 
Q 40.828125 74.21875 47.359375 69.109375 
Q 53.90625 64.015625 53.90625 55.328125 
Q 53.90625 49.265625 50.4375 45.09375 
Q 46.96875 40.921875 40.578125 39.3125 
z
" id="DejaVuSans-33"/>
      </defs>
      <g style="fill:#555555;" transform="translate(28.334375 138.331207)scale(0.1 -0.1)">
       <use xlink:href="#DejaVuSans-30"/>
       <use x="63.623047" xlink:href="#DejaVuSans-2e"/>
       <use x="95.410156" xlink:href="#DejaVuSans-30"/>
       <use x="159.033203" xlink:href="#DejaVuSans-33"/>
      </g>
     </g>
    </g>
    <g id="ytick_5">
     <g id="line2d_27">
      <path clip-path="url(#p9574b1fa54)" d="M 57.6 76.847984 
L 414.72 76.847984 
" style="fill:none;stroke:#ffffff;stroke-linecap:square;stroke-width:0.8;"/>
     </g>
     <g id="line2d_28">
      <g>
       <use style="fill:#555555;stroke:#555555;stroke-width:0.8;" x="57.6" xlink:href="#m00f872d9aa" y="76.847984"/>
      </g>
     </g>
     <g id="text_15">
      <!-- 0.04 -->
      <g style="fill:#555555;" transform="translate(28.334375 80.647203)scale(0.1 -0.1)">
       <use xlink:href="#DejaVuSans-30"/>
       <use x="63.623047" xlink:href="#DejaVuSans-2e"/>
       <use x="95.410156" xlink:href="#DejaVuSans-30"/>
       <use x="159.033203" xlink:href="#DejaVuSans-34"/>
      </g>
     </g>
    </g>
    <g id="text_16">
     <!-- f(count) -->
     <defs>
      <path d="M 37.109375 75.984375 
L 37.109375 68.5 
L 28.515625 68.5 
Q 23.6875 68.5 21.796875 66.546875 
Q 19.921875 64.59375 19.921875 59.515625 
L 19.921875 54.6875 
L 34.71875 54.6875 
L 34.71875 47.703125 
L 19.921875 47.703125 
L 19.921875 0 
L 10.890625 0 
L 10.890625 47.703125 
L 2.296875 47.703125 
L 2.296875 54.6875 
L 10.890625 54.6875 
L 10.890625 58.5 
Q 10.890625 67.625 15.140625 71.796875 
Q 19.390625 75.984375 28.609375 75.984375 
z
" id="DejaVuSans-66"/>
      <path d="M 31 75.875 
Q 24.46875 64.65625 21.28125 53.65625 
Q 18.109375 42.671875 18.109375 31.390625 
Q 18.109375 20.125 21.3125 9.0625 
Q 24.515625 -2 31 -13.1875 
L 23.1875 -13.1875 
Q 15.875 -1.703125 12.234375 9.375 
Q 8.59375 20.453125 8.59375 31.390625 
Q 8.59375 42.28125 12.203125 53.3125 
Q 15.828125 64.359375 23.1875 75.875 
z
" id="DejaVuSans-28"/>
      <path d="M 8.015625 75.875 
L 15.828125 75.875 
Q 23.140625 64.359375 26.78125 53.3125 
Q 30.421875 42.28125 30.421875 31.390625 
Q 30.421875 20.453125 26.78125 9.375 
Q 23.140625 -1.703125 15.828125 -13.1875 
L 8.015625 -13.1875 
Q 14.5 -2 17.703125 9.0625 
Q 20.90625 20.125 20.90625 31.390625 
Q 20.90625 42.671875 17.703125 53.65625 
Q 14.5 64.65625 8.015625 75.875 
z
" id="DejaVuSans-29"/>
     </defs>
     <g style="fill:#555555;" transform="translate(21.83875 198.249562)rotate(-90)scale(0.12 -0.12)">
      <use xlink:href="#DejaVuSans-66"/>
      <use x="35.205078" xlink:href="#DejaVuSans-28"/>
      <use x="74.21875" xlink:href="#DejaVuSans-63"/>
      <use x="129.199219" xlink:href="#DejaVuSans-6f"/>
      <use x="190.380859" xlink:href="#DejaVuSans-75"/>
      <use x="253.759766" xlink:href="#DejaVuSans-6e"/>
      <use x="317.138672" xlink:href="#DejaVuSans-74"/>
      <use x="356.347656" xlink:href="#DejaVuSans-29"/>
     </g>
    </g>
   </g>
   <g id="line2d_29">
    <path clip-path="url(#p9574b1fa54)" d="M 102.80661 307.398073 
L 102.954798 307.237373 
L 103.102986 306.95911 
L 103.251174 306.494146 
L 103.399362 305.744127 
L 103.547549 304.57567 
L 103.695737 302.816678 
L 103.843925 300.256449 
L 103.992113 296.651266 
L 104.140301 291.73669 
L 104.288489 285.247075 
L 104.436677 276.941844 
L 104.584865 266.637013 
L 104.733052 254.239437 
L 104.88124 239.780218 
L 105.029428 223.442756 
L 105.177616 205.580069 
L 105.325804 186.715704 
L 105.473992 167.523397 
L 105.62218 148.783276 
L 105.770368 131.316908 
L 105.918555 115.909118 
L 106.066743 103.22947 
L 106.214931 93.768441 
L 106.363119 87.80097 
L 106.511307 85.383233 
L 106.659495 86.37916 
L 106.807683 90.504713 
L 106.955871 97.373881 
L 107.104058 106.532456 
L 107.252246 117.473291 
L 107.400434 129.636656 
L 107.548622 142.407227 
L 107.69681 155.121833 
L 107.844998 167.098112 
L 107.993186 177.685591 
L 108.141374 186.33096 
L 108.289562 192.642477 
L 108.437749 196.437155 
L 108.585937 197.758795 
L 108.734125 196.863192 
L 108.882313 194.175605 
L 109.030501 190.231837 
L 109.178689 185.616255 
L 109.326877 180.9077 
L 109.475065 176.639137 
L 109.623252 173.271284 
L 109.77144 171.176384 
L 109.919628 170.626964 
L 110.067816 171.785777 
L 110.216004 174.696218 
L 110.364192 179.275772 
L 110.51238 185.317117 
L 110.660568 192.501434 
L 110.808755 200.42619 
L 110.956943 208.645893 
L 111.105131 216.72026 
L 111.253319 224.261346 
L 111.401507 230.970484 
L 111.549695 236.657841 
L 111.697883 241.241529 
L 111.846071 244.728447 
L 111.994258 247.1838 
L 112.142446 248.699052 
L 112.290634 249.368008 
L 112.438822 249.277705 
L 112.58701 248.51556 
L 112.735198 247.188448 
L 112.883386 245.444827 
L 113.031574 243.489373 
L 113.179761 241.581502 
L 113.327949 240.014239 
L 113.476137 239.076609 
L 113.624325 239.008675 
L 113.772513 239.961502 
L 113.920701 241.973418 
L 114.068889 244.969161 
L 114.217077 248.781661 
L 114.365264 253.18954 
L 114.513452 257.959429 
L 114.66164 262.881934 
L 114.809828 267.793448 
L 114.958016 272.581343 
L 115.106204 277.175463 
L 115.254392 281.53229 
L 115.40258 285.618925 
L 115.550767 289.402345 
L 115.698955 292.846204 
L 115.847143 295.914343 
L 115.995331 298.578009 
L 116.143519 300.82319 
L 116.291707 302.655232 
L 116.439895 304.099378 
L 116.588083 305.197466 
L 116.736271 306.002073 
L 116.884458 306.56985 
L 117.032646 306.955556 
L 117.180834 307.207745 
L 117.329022 307.366436 
L 117.47721 307.462534 
" style="fill:none;stroke:#e24a33;stroke-linecap:square;stroke-width:0.3;"/>
   </g>
   <g id="line2d_30">
    <path clip-path="url(#p9574b1fa54)" d="M 102.433382 307.516331 
L 102.627233 307.441961 
L 102.821085 307.304789 
L 103.014937 307.069877 
L 103.208788 306.6969 
L 103.40264 306.148909 
L 103.596491 305.405581 
L 103.790343 304.477245 
L 103.984195 303.412936 
L 104.178046 302.29511 
L 104.371898 301.216977 
L 104.565749 300.245336 
L 104.759601 299.379117 
L 104.953453 298.517429 
L 105.147304 297.447775 
L 105.341156 295.856764 
L 105.535007 293.357073 
L 105.728859 289.521758 
L 105.922711 283.922457 
L 106.116562 276.177259 
L 106.310414 266.017875 
L 106.504265 253.376381 
L 106.698117 238.470232 
L 106.891969 221.843476 
L 107.08582 204.320812 
L 107.279672 186.860152 
L 107.473523 170.339914 
L 107.667375 155.361611 
L 107.861227 142.155956 
L 108.055078 130.639645 
L 108.24893 120.598236 
L 108.442781 111.906715 
L 108.636633 104.679681 
L 108.830485 99.278892 
L 109.024336 96.177469 
L 109.218188 95.749139 
L 109.412039 98.083041 
L 109.605891 102.907028 
L 109.799743 109.648107 
L 109.993594 117.596803 
L 110.187446 126.101305 
L 110.381297 134.712572 
L 110.575149 143.230441 
L 110.769001 151.647275 
L 110.962852 160.029001 
L 111.156704 168.396156 
L 111.350556 176.661537 
L 111.544407 184.649787 
L 111.738259 192.182044 
L 111.93211 199.175895 
L 112.125962 205.704218 
L 112.319814 211.979996 
L 112.513665 218.274984 
L 112.707517 224.814486 
L 112.901368 231.698691 
L 113.09522 238.880329 
L 113.289072 246.194736 
L 113.482923 253.414493 
L 113.676775 260.299496 
L 113.870626 266.629629 
L 114.064478 272.224681 
L 114.25833 276.96093 
L 114.452181 280.785468 
L 114.646033 283.718692 
L 114.839884 285.834546 
L 115.033736 287.219923 
L 115.227588 287.930654 
L 115.421439 287.969241 
L 115.615291 287.301442 
L 115.809142 285.908279 
L 116.002994 283.848853 
L 116.196846 281.300292 
L 116.390697 278.550228 
L 116.584549 275.939974 
L 116.7784 273.781048 
L 116.972252 272.280895 
L 117.166104 271.508967 
L 117.359955 271.41467 
L 117.553807 271.88443 
L 117.747658 272.808531 
L 117.94151 274.12701 
L 118.135362 275.837166 
L 118.329213 277.965423 
L 118.523065 280.522687 
L 118.716916 283.467328 
L 118.910768 286.692445 
L 119.10462 290.039976 
L 119.298471 293.331846 
L 119.492323 296.403628 
L 119.686174 299.129337 
L 119.880026 301.432986 
L 120.073878 303.288499 
L 120.267729 304.712054 
L 120.461581 305.750687 
L 120.655432 306.469732 
L 120.849284 306.940887 
L 121.043136 307.232373 
L 121.236987 307.402258 
L 121.430839 307.49536 
L 121.624691 307.543267 
" style="fill:none;stroke:#348abd;stroke-linecap:square;stroke-width:0.3;"/>
   </g>
   <g id="line2d_31">
    <path clip-path="url(#p9574b1fa54)" d="M 102.430798 307.442607 
L 102.586578 307.303098 
L 102.742358 307.052303 
L 102.898138 306.624775 
L 103.053918 305.933945 
L 103.209698 304.876383 
L 103.365478 303.343743 
L 103.521259 301.243284 
L 103.677039 298.52504 
L 103.832819 295.210107 
L 103.988599 291.411282 
L 104.144379 287.336158 
L 104.300159 283.264906 
L 104.455939 279.500743 
L 104.611719 276.299161 
L 104.767499 273.789994 
L 104.923279 271.911539 
L 105.079059 270.376237 
L 105.234839 268.682536 
L 105.390619 266.178659 
L 105.546399 262.17306 
L 105.702179 256.075378 
L 105.857959 247.542199 
L 106.013739 236.595665 
L 106.169519 223.682257 
L 106.325299 209.646606 
L 106.481079 195.612315 
L 106.636859 182.786071 
L 106.792639 172.226049 
L 106.948419 164.631138 
L 107.104199 160.20595 
L 107.259979 158.636309 
L 107.415759 159.177345 
L 107.571539 160.823331 
L 107.727319 162.507542 
L 107.883099 163.278446 
L 108.03888 162.414644 
L 108.19466 159.467036 
L 108.35044 154.241996 
L 108.50622 146.754745 
L 108.662 137.183819 
L 108.81778 125.847291 
L 108.97356 113.204989 
L 109.12934 99.87528 
L 109.28512 86.645244 
L 109.4409 74.452206 
L 109.59668 64.322304 
L 109.75246 57.26572 
L 109.90824 54.144 
L 110.06402 55.537279 
L 110.2198 61.643578 
L 110.37558 72.236622 
L 110.53136 86.69426 
L 110.68714 104.091395 
L 110.84292 123.335187 
L 110.9987 143.311338 
L 111.15448 163.010801 
L 111.31026 181.615369 
L 111.46604 198.534615 
L 111.62182 213.40041 
L 111.7776 226.034158 
L 111.93338 236.403797 
L 112.08916 244.58363 
L 112.24494 250.723644 
L 112.40072 255.029497 
L 112.556501 257.751466 
L 112.712281 259.179577 
L 112.868061 259.641336 
L 113.023841 259.497437 
L 113.179621 259.130172 
L 113.335401 258.920724 
L 113.491181 259.215226 
L 113.646961 260.28454 
L 113.802741 262.286678 
L 113.958521 265.242009 
L 114.114301 269.029129 
L 114.270081 273.404598 
L 114.425861 278.044071 
L 114.581641 282.597481 
L 114.737421 286.7477 
L 114.893201 290.261298 
L 115.048981 293.021447 
L 115.204761 295.036681 
L 115.360541 296.424378 
L 115.516321 297.37356 
L 115.672101 298.096513 
L 115.827881 298.781322 
L 115.983661 299.55671 
L 116.139441 300.476491 
L 116.295221 301.52483 
L 116.451001 302.637409 
L 116.606781 303.729782 
L 116.762561 304.72368 
L 116.918341 305.564688 
L 117.074122 306.228877 
L 117.229902 306.719938 
L 117.385682 307.060661 
L 117.541462 307.282962 
L 117.697242 307.419557 
L 117.853022 307.498702 
" style="fill:none;stroke:#988ed5;stroke-linecap:square;stroke-width:0.3;"/>
   </g>
   <g id="line2d_32">
    <path clip-path="url(#p9574b1fa54)" d="M 100.675115 307.504068 
L 100.946847 307.43215 
L 101.218579 307.306566 
L 101.490311 307.096407 
L 101.762042 306.759419 
L 102.033774 306.241747 
L 102.305506 305.480062 
L 102.577238 304.406868 
L 102.84897 302.95927 
L 103.120702 301.090483 
L 103.392434 298.782233 
L 103.664166 296.055169 
L 103.935897 292.973956 
L 104.207629 289.644202 
L 104.479361 286.19987 
L 104.751093 282.78203 
L 105.022825 279.512251 
L 105.294557 276.465843 
L 105.566289 273.650982 
L 105.838021 270.999265 
L 106.109753 268.371412 
L 106.381484 265.579016 
L 106.653216 262.419995 
L 106.924948 258.722296 
L 107.19668 254.38804 
L 107.468412 249.429345 
L 107.740144 243.987798 
L 108.011876 238.332052 
L 108.283608 232.831832 
L 108.555339 227.911133 
L 108.827071 223.987534 
L 109.098803 221.407701 
L 109.370535 220.390506 
L 109.642267 220.988547 
L 109.913999 223.075967 
L 110.185731 226.365771 
L 110.457463 230.453961 
L 110.729194 234.882138 
L 111.000926 239.206091 
L 111.272658 243.056752 
L 111.54439 246.182058 
L 111.816122 248.463301 
L 112.087854 249.905856 
L 112.359586 250.609908 
L 112.631318 250.730346 
L 112.903049 250.435634 
L 113.174781 249.873683 
L 113.446513 249.149506 
L 113.718245 248.316113 
L 113.989977 247.377642 
L 114.261709 246.302196 
L 114.533441 245.041195 
L 114.805173 243.551511 
L 115.076905 241.816191 
L 115.348636 239.859248 
L 115.620368 237.750497 
L 115.8921 235.598127 
L 116.163832 233.529831 
L 116.435564 231.666965 
L 116.707296 230.099248 
L 116.979028 228.868349 
L 117.25076 227.966746 
L 117.522491 227.353517 
L 117.794223 226.982816 
L 118.065955 226.835782 
L 118.337687 226.944421 
L 118.609419 227.397839 
L 118.881151 228.326586 
L 119.152883 229.868194 
L 119.424615 232.123693 
L 119.696346 235.118576 
L 119.968078 238.781023 
L 120.23981 242.945209 
L 120.511542 247.379913 
L 120.783274 251.834919 
L 121.055006 256.092342 
L 121.326738 260.008825 
L 121.59847 263.537639 
L 121.870201 266.725929 
L 122.141933 269.689616 
L 122.413665 272.574321 
L 122.685397 275.513629 
L 122.957129 278.595379 
L 123.228861 281.843213 
L 123.500593 285.215594 
L 123.772325 288.619827 
L 124.044057 291.935278 
L 124.315788 295.038931 
L 124.58752 297.827233 
L 124.859252 300.230349 
L 125.130984 302.217577 
L 125.402716 303.794893 
L 125.674448 304.997059 
L 125.94618 305.877171 
L 126.217912 306.496267 
L 126.489643 306.914776 
L 126.761375 307.186684 
L 127.033107 307.356477 
L 127.304839 307.45838 
L 127.576571 307.517156 
" style="fill:none;stroke:#777777;stroke-linecap:square;stroke-width:0.3;"/>
   </g>
   <g id="line2d_33">
    <path clip-path="url(#p9574b1fa54)" d="M 95.666099 307.496401 
L 96.449913 307.3999 
L 97.233726 307.215297 
L 98.01754 306.880098 
L 98.801354 306.30245 
L 99.585167 305.357831 
L 100.368981 303.892221 
L 101.152794 301.735052 
L 101.936608 298.723463 
L 102.720421 294.73594 
L 103.504235 289.728989 
L 104.288048 283.766873 
L 105.071862 277.033685 
L 105.855675 269.820388 
L 106.639489 262.486723 
L 107.423302 255.406543 
L 108.207116 248.911833 
L 108.990929 243.2522 
L 109.774743 238.581904 
L 110.558556 234.976962 
L 111.34237 232.473836 
L 112.126184 231.112929 
L 112.909997 230.967647 
L 113.693811 232.144441 
L 114.477624 234.749875 
L 115.261438 238.833762 
L 116.045251 244.328059 
L 116.829065 251.005041 
L 117.612878 258.473276 
L 118.396692 266.217695 
L 119.180505 273.675361 
L 119.964319 280.32718 
L 120.748132 285.781793 
L 121.531946 289.831921 
L 122.315759 292.472632 
L 123.099573 293.881432 
L 123.883386 294.368265 
L 124.6672 294.308228 
L 125.451014 294.07114 
L 126.234827 293.961082 
L 127.018641 294.175961 
L 127.802454 294.792511 
L 128.586268 295.776499 
L 129.370081 297.012414 
L 130.153895 298.343363 
L 130.937708 299.611126 
L 131.721522 300.688367 
L 132.505335 301.498559 
L 133.289149 302.02275 
L 134.072962 302.294799 
L 134.856776 302.387965 
L 135.640589 302.39628 
L 136.424403 302.414322 
L 137.208216 302.519124 
L 137.99203 302.757537 
L 138.775844 303.141246 
L 139.559657 303.649777 
L 140.343471 304.239815 
L 141.127284 304.857674 
L 141.911098 305.451364 
L 142.694911 305.979445 
L 143.478725 306.415355 
L 144.262538 306.747448 
L 145.046352 306.976085 
L 145.830165 307.109537 
L 146.613979 307.160164 
L 147.397792 307.141742 
L 148.181606 307.068087 
L 148.965419 306.952586 
L 149.749233 306.808058 
L 150.533046 306.646345 
L 151.31686 306.477385 
L 152.100674 306.307803 
L 152.884487 306.13943 
L 153.668301 305.968377 
L 154.452114 305.785337 
L 155.235928 305.577627 
L 156.019741 305.333076 
L 156.803555 305.045214 
L 157.587368 304.718526 
L 158.371182 304.372002 
L 159.154995 304.039223 
L 159.938809 303.763998 
L 160.722622 303.591968 
L 161.506436 303.560147 
L 162.290249 303.687487 
L 163.074063 303.969463 
L 163.857876 304.378512 
L 164.64169 304.870142 
L 165.425504 305.39269 
L 166.209317 305.897656 
L 166.993131 306.347752 
L 167.776944 306.720952 
L 168.560758 307.010373 
L 169.344571 307.221078 
L 170.128385 307.36546 
L 170.912198 307.458761 
L 171.696012 307.515702 
L 172.479825 307.548559 
L 173.263639 307.566502 
" style="fill:none;stroke:#fbc15e;stroke-linecap:square;stroke-width:0.3;"/>
   </g>
   <g id="line2d_34">
    <path clip-path="url(#p9574b1fa54)" d="M 73.832727 307.575858 
L 77.112066 307.568536 
L 80.391405 307.555614 
L 83.670744 307.533608 
L 86.950083 307.497444 
L 90.229421 307.440052 
L 93.50876 307.352053 
L 96.788099 307.221605 
L 100.067438 307.034531 
L 103.346777 306.77481 
L 106.626116 306.425524 
L 109.905455 305.970262 
L 113.184793 305.39496 
L 116.464132 304.690078 
L 119.743471 303.85292 
L 123.02281 302.889841 
L 126.302149 301.817969 
L 129.581488 300.666032 
L 132.860826 299.473887 
L 136.140165 298.290461 
L 139.419504 297.1701 
L 142.698843 296.16763 
L 145.978182 295.332833 
L 149.257521 294.705208 
L 152.53686 294.309962 
L 155.816198 294.155855 
L 159.095537 294.235176 
L 162.374876 294.525607 
L 165.654215 294.993459 
L 168.933554 295.597602 
L 172.212893 296.293552 
L 175.492231 297.037313 
L 178.77157 297.78882 
L 182.050909 298.514836 
L 185.330248 299.191149 
L 188.609587 299.803855 
L 191.888926 300.349466 
L 195.168264 300.833746 
L 198.447603 301.269369 
L 201.726942 301.672775 
L 205.006281 302.060774 
L 208.28562 302.447483 
L 211.564959 302.842063 
L 214.844298 303.247524 
L 218.123636 303.660613 
L 221.402975 304.07265 
L 224.682314 304.471077 
L 227.961653 304.841471 
L 231.240992 305.169761 
L 234.520331 305.444414 
L 237.799669 305.658286 
L 241.079008 305.809886 
L 244.358347 305.903801 
L 247.637686 305.950153 
L 250.917025 305.963133 
L 254.196364 305.958849 
L 257.475702 305.952876 
L 260.755041 305.957993 
L 264.03438 305.982543 
L 267.313719 306.029699 
L 270.593058 306.097715 
L 273.872397 306.18099 
L 277.151736 306.271632 
L 280.431074 306.361074 
L 283.710413 306.441393 
L 286.989752 306.506073 
L 290.269091 306.550129 
L 293.54843 306.56975 
L 296.827769 306.561673 
L 300.107107 306.522629 
L 303.386446 306.449125 
L 306.665785 306.337757 
L 309.945124 306.186083 
L 313.224463 305.993925 
L 316.503802 305.764823 
L 319.78314 305.507257 
L 323.062479 305.235234 
L 326.341818 304.967883 
L 329.621157 304.727916 
L 332.900496 304.539031 
L 336.179835 304.422634 
L 339.459174 304.394498 
L 342.738512 304.462056 
L 346.017851 304.622962 
L 349.29719 304.865289 
L 352.576529 305.169341 
L 355.855868 305.510697 
L 359.135207 305.863816 
L 362.414545 306.205454 
L 365.693884 306.517254 
L 368.973223 306.78715 
L 372.252562 307.009528 
L 375.531901 307.184374 
L 378.81124 307.3158 
L 382.090579 307.410371 
L 385.369917 307.475585 
L 388.649256 307.518715 
L 391.928595 307.54609 
L 395.207934 307.562774 
L 398.487273 307.572542 
" style="fill:none;stroke:#8eba42;stroke-linecap:square;stroke-width:0.3;"/>
   </g>
   <g id="line2d_35">
    <path clip-path="url(#p9574b1fa54)" d="M 104.26751 307.563571 
L 105.163486 307.540378 
L 106.059462 307.495695 
L 106.955438 307.414397 
L 107.851414 307.274661 
L 108.74739 307.047619 
L 109.643366 306.698611 
L 110.539341 306.190452 
L 111.435317 305.488545 
L 112.331293 304.566954 
L 113.227269 303.413933 
L 114.123245 302.035558 
L 115.019221 300.45677 
L 115.915196 298.72033 
L 116.811172 296.884883 
L 117.707148 295.023101 
L 118.603124 293.219577 
L 119.4991 291.566644 
L 120.395076 290.155719 
L 121.291052 289.062935 
L 122.187027 288.330587 
L 123.083003 287.948897 
L 123.978979 287.844388 
L 124.874955 287.880591 
L 125.770931 287.87404 
L 126.666907 287.624454 
L 127.562883 286.954002 
L 128.458858 285.747518 
L 129.354834 283.984322 
L 130.25081 281.753006 
L 131.146786 279.243517 
L 132.042762 276.71573 
L 132.938738 274.449744 
L 133.834714 272.688672 
L 134.730689 271.587857 
L 135.626665 271.183698 
L 136.522641 271.390362 
L 137.418617 272.02511 
L 138.314593 272.855161 
L 139.210569 273.653658 
L 140.106545 274.250732 
L 141.00252 274.568018 
L 141.898496 274.629967 
L 142.794472 274.551331 
L 143.690448 274.505636 
L 144.586424 274.683262 
L 145.4824 275.249237 
L 146.378376 276.30983 
L 147.274351 277.893973 
L 148.170327 279.951303 
L 149.066303 282.364556 
L 149.962279 284.971371 
L 150.858255 287.589895 
L 151.754231 290.043658 
L 152.650207 292.183006 
L 153.546182 293.901811 
L 154.442158 295.148657 
L 155.338134 295.93138 
L 156.23411 296.313649 
L 157.130086 296.402966 
L 158.026062 296.331264 
L 158.922037 296.231583 
L 159.818013 296.215892 
L 160.713989 296.359135 
L 161.609965 296.69269 
L 162.505941 297.207503 
L 163.401917 297.864369 
L 164.297893 298.607368 
L 165.193868 299.376649 
L 166.089844 300.118147 
L 166.98582 300.789455 
L 167.881796 301.362284 
L 168.777772 301.822389 
L 169.673748 302.167822 
L 170.569724 302.406295 
L 171.465699 302.552366 
L 172.361675 302.625108 
L 173.257651 302.64663 
L 174.153627 302.641348 
L 175.049603 302.635434 
L 175.945579 302.655746 
L 176.841555 302.727806 
L 177.73753 302.872903 
L 178.633506 303.104935 
L 179.529482 303.427775 
L 180.425458 303.833949 
L 181.321434 304.305104 
L 182.21741 304.814398 
L 183.113386 305.330491 
L 184.009361 305.822402 
L 184.905337 306.264182 
L 185.801313 306.638331 
L 186.697289 306.937239 
L 187.593265 307.162502 
L 188.489241 307.322629 
L 189.385217 307.429978 
L 190.281192 307.497839 
L 191.177168 307.538286 
L 192.073144 307.561014 
L 192.96912 307.573054 
" style="fill:none;stroke:#ffb5b8;stroke-linecap:square;stroke-width:0.3;"/>
   </g>
   <g id="patch_3">
    <path d="M 57.6 307.584 
L 57.6 41.472 
" style="fill:none;stroke:#ffffff;stroke-linecap:square;stroke-linejoin:miter;"/>
   </g>
   <g id="patch_4">
    <path d="M 414.72 307.584 
L 414.72 41.472 
" style="fill:none;stroke:#ffffff;stroke-linecap:square;stroke-linejoin:miter;"/>
   </g>
   <g id="patch_5">
    <path d="M 57.6 307.584 
L 414.72 307.584 
" style="fill:none;stroke:#ffffff;stroke-linecap:square;stroke-linejoin:miter;"/>
   </g>
   <g id="patch_6">
    <path d="M 57.6 41.472 
L 414.72 41.472 
" style="fill:none;stroke:#ffffff;stroke-linecap:square;stroke-linejoin:miter;"/>
   </g>
   <g id="text_17">
    <!-- kernel density estimation(Gaussian):b2702;b2703;b2704;b2705;b2706;b2707;b2708 -->
    <defs>
     <path d="M 9.078125 75.984375 
L 18.109375 75.984375 
L 18.109375 31.109375 
L 44.921875 54.6875 
L 56.390625 54.6875 
L 27.390625 29.109375 
L 57.625 0 
L 45.90625 0 
L 18.109375 26.703125 
L 18.109375 0 
L 9.078125 0 
z
" id="DejaVuSans-6b"/>
     <path d="M 56.203125 29.59375 
L 56.203125 25.203125 
L 14.890625 25.203125 
Q 15.484375 15.921875 20.484375 11.0625 
Q 25.484375 6.203125 34.421875 6.203125 
Q 39.59375 6.203125 44.453125 7.46875 
Q 49.3125 8.734375 54.109375 11.28125 
L 54.109375 2.78125 
Q 49.265625 0.734375 44.1875 -0.34375 
Q 39.109375 -1.421875 33.890625 -1.421875 
Q 20.796875 -1.421875 13.15625 6.1875 
Q 5.515625 13.8125 5.515625 26.8125 
Q 5.515625 40.234375 12.765625 48.109375 
Q 20.015625 56 32.328125 56 
Q 43.359375 56 49.78125 48.890625 
Q 56.203125 41.796875 56.203125 29.59375 
z
M 47.21875 32.234375 
Q 47.125 39.59375 43.09375 43.984375 
Q 39.0625 48.390625 32.421875 48.390625 
Q 24.90625 48.390625 20.390625 44.140625 
Q 15.875 39.890625 15.1875 32.171875 
z
" id="DejaVuSans-65"/>
     <path d="M 41.109375 46.296875 
Q 39.59375 47.171875 37.8125 47.578125 
Q 36.03125 48 33.890625 48 
Q 26.265625 48 22.1875 43.046875 
Q 18.109375 38.09375 18.109375 28.8125 
L 18.109375 0 
L 9.078125 0 
L 9.078125 54.6875 
L 18.109375 54.6875 
L 18.109375 46.1875 
Q 20.953125 51.171875 25.484375 53.578125 
Q 30.03125 56 36.53125 56 
Q 37.453125 56 38.578125 55.875 
Q 39.703125 55.765625 41.0625 55.515625 
z
" id="DejaVuSans-72"/>
     <path d="M 9.421875 75.984375 
L 18.40625 75.984375 
L 18.40625 0 
L 9.421875 0 
z
" id="DejaVuSans-6c"/>
     <path id="DejaVuSans-20"/>
     <path d="M 45.40625 46.390625 
L 45.40625 75.984375 
L 54.390625 75.984375 
L 54.390625 0 
L 45.40625 0 
L 45.40625 8.203125 
Q 42.578125 3.328125 38.25 0.953125 
Q 33.9375 -1.421875 27.875 -1.421875 
Q 17.96875 -1.421875 11.734375 6.484375 
Q 5.515625 14.40625 5.515625 27.296875 
Q 5.515625 40.1875 11.734375 48.09375 
Q 17.96875 56 27.875 56 
Q 33.9375 56 38.25 53.625 
Q 42.578125 51.265625 45.40625 46.390625 
z
M 14.796875 27.296875 
Q 14.796875 17.390625 18.875 11.75 
Q 22.953125 6.109375 30.078125 6.109375 
Q 37.203125 6.109375 41.296875 11.75 
Q 45.40625 17.390625 45.40625 27.296875 
Q 45.40625 37.203125 41.296875 42.84375 
Q 37.203125 48.484375 30.078125 48.484375 
Q 22.953125 48.484375 18.875 42.84375 
Q 14.796875 37.203125 14.796875 27.296875 
z
" id="DejaVuSans-64"/>
     <path d="M 44.28125 53.078125 
L 44.28125 44.578125 
Q 40.484375 46.53125 36.375 47.5 
Q 32.28125 48.484375 27.875 48.484375 
Q 21.1875 48.484375 17.84375 46.4375 
Q 14.5 44.390625 14.5 40.28125 
Q 14.5 37.15625 16.890625 35.375 
Q 19.28125 33.59375 26.515625 31.984375 
L 29.59375 31.296875 
Q 39.15625 29.25 43.1875 25.515625 
Q 47.21875 21.78125 47.21875 15.09375 
Q 47.21875 7.46875 41.1875 3.015625 
Q 35.15625 -1.421875 24.609375 -1.421875 
Q 20.21875 -1.421875 15.453125 -0.5625 
Q 10.6875 0.296875 5.421875 2 
L 5.421875 11.28125 
Q 10.40625 8.6875 15.234375 7.390625 
Q 20.0625 6.109375 24.8125 6.109375 
Q 31.15625 6.109375 34.5625 8.28125 
Q 37.984375 10.453125 37.984375 14.40625 
Q 37.984375 18.0625 35.515625 20.015625 
Q 33.0625 21.96875 24.703125 23.78125 
L 21.578125 24.515625 
Q 13.234375 26.265625 9.515625 29.90625 
Q 5.8125 33.546875 5.8125 39.890625 
Q 5.8125 47.609375 11.28125 51.796875 
Q 16.75 56 26.8125 56 
Q 31.78125 56 36.171875 55.265625 
Q 40.578125 54.546875 44.28125 53.078125 
z
" id="DejaVuSans-73"/>
     <path d="M 9.421875 54.6875 
L 18.40625 54.6875 
L 18.40625 0 
L 9.421875 0 
z
M 9.421875 75.984375 
L 18.40625 75.984375 
L 18.40625 64.59375 
L 9.421875 64.59375 
z
" id="DejaVuSans-69"/>
     <path d="M 32.171875 -5.078125 
Q 28.375 -14.84375 24.75 -17.8125 
Q 21.140625 -20.796875 15.09375 -20.796875 
L 7.90625 -20.796875 
L 7.90625 -13.28125 
L 13.1875 -13.28125 
Q 16.890625 -13.28125 18.9375 -11.515625 
Q 21 -9.765625 23.484375 -3.21875 
L 25.09375 0.875 
L 2.984375 54.6875 
L 12.5 54.6875 
L 29.59375 11.921875 
L 46.6875 54.6875 
L 56.203125 54.6875 
z
" id="DejaVuSans-79"/>
     <path d="M 52 44.1875 
Q 55.375 50.25 60.0625 53.125 
Q 64.75 56 71.09375 56 
Q 79.640625 56 84.28125 50.015625 
Q 88.921875 44.046875 88.921875 33.015625 
L 88.921875 0 
L 79.890625 0 
L 79.890625 32.71875 
Q 79.890625 40.578125 77.09375 44.375 
Q 74.3125 48.1875 68.609375 48.1875 
Q 61.625 48.1875 57.5625 43.546875 
Q 53.515625 38.921875 53.515625 30.90625 
L 53.515625 0 
L 44.484375 0 
L 44.484375 32.71875 
Q 44.484375 40.625 41.703125 44.40625 
Q 38.921875 48.1875 33.109375 48.1875 
Q 26.21875 48.1875 22.15625 43.53125 
Q 18.109375 38.875 18.109375 30.90625 
L 18.109375 0 
L 9.078125 0 
L 9.078125 54.6875 
L 18.109375 54.6875 
L 18.109375 46.1875 
Q 21.1875 51.21875 25.484375 53.609375 
Q 29.78125 56 35.6875 56 
Q 41.65625 56 45.828125 52.96875 
Q 50 49.953125 52 44.1875 
z
" id="DejaVuSans-6d"/>
     <path d="M 34.28125 27.484375 
Q 23.390625 27.484375 19.1875 25 
Q 14.984375 22.515625 14.984375 16.5 
Q 14.984375 11.71875 18.140625 8.90625 
Q 21.296875 6.109375 26.703125 6.109375 
Q 34.1875 6.109375 38.703125 11.40625 
Q 43.21875 16.703125 43.21875 25.484375 
L 43.21875 27.484375 
z
M 52.203125 31.203125 
L 52.203125 0 
L 43.21875 0 
L 43.21875 8.296875 
Q 40.140625 3.328125 35.546875 0.953125 
Q 30.953125 -1.421875 24.3125 -1.421875 
Q 15.921875 -1.421875 10.953125 3.296875 
Q 6 8.015625 6 15.921875 
Q 6 25.140625 12.171875 29.828125 
Q 18.359375 34.515625 30.609375 34.515625 
L 43.21875 34.515625 
L 43.21875 35.40625 
Q 43.21875 41.609375 39.140625 45 
Q 35.0625 48.390625 27.6875 48.390625 
Q 23 48.390625 18.546875 47.265625 
Q 14.109375 46.140625 10.015625 43.890625 
L 10.015625 52.203125 
Q 14.9375 54.109375 19.578125 55.046875 
Q 24.21875 56 28.609375 56 
Q 40.484375 56 46.34375 49.84375 
Q 52.203125 43.703125 52.203125 31.203125 
z
" id="DejaVuSans-61"/>
     <path d="M 59.515625 10.40625 
L 59.515625 29.984375 
L 43.40625 29.984375 
L 43.40625 38.09375 
L 69.28125 38.09375 
L 69.28125 6.78125 
Q 63.578125 2.734375 56.6875 0.65625 
Q 49.8125 -1.421875 42 -1.421875 
Q 24.90625 -1.421875 15.25 8.5625 
Q 5.609375 18.5625 5.609375 36.375 
Q 5.609375 54.25 15.25 64.234375 
Q 24.90625 74.21875 42 74.21875 
Q 49.125 74.21875 55.546875 72.453125 
Q 61.96875 70.703125 67.390625 67.28125 
L 67.390625 56.78125 
Q 61.921875 61.421875 55.765625 63.765625 
Q 49.609375 66.109375 42.828125 66.109375 
Q 29.4375 66.109375 22.71875 58.640625 
Q 16.015625 51.171875 16.015625 36.375 
Q 16.015625 21.625 22.71875 14.15625 
Q 29.4375 6.6875 42.828125 6.6875 
Q 48.046875 6.6875 52.140625 7.59375 
Q 56.25 8.5 59.515625 10.40625 
z
" id="DejaVuSans-47"/>
     <path d="M 11.71875 12.40625 
L 22.015625 12.40625 
L 22.015625 0 
L 11.71875 0 
z
M 11.71875 51.703125 
L 22.015625 51.703125 
L 22.015625 39.3125 
L 11.71875 39.3125 
z
" id="DejaVuSans-3a"/>
     <path d="M 48.6875 27.296875 
Q 48.6875 37.203125 44.609375 42.84375 
Q 40.53125 48.484375 33.40625 48.484375 
Q 26.265625 48.484375 22.1875 42.84375 
Q 18.109375 37.203125 18.109375 27.296875 
Q 18.109375 17.390625 22.1875 11.75 
Q 26.265625 6.109375 33.40625 6.109375 
Q 40.53125 6.109375 44.609375 11.75 
Q 48.6875 17.390625 48.6875 27.296875 
z
M 18.109375 46.390625 
Q 20.953125 51.265625 25.265625 53.625 
Q 29.59375 56 35.59375 56 
Q 45.5625 56 51.78125 48.09375 
Q 58.015625 40.1875 58.015625 27.296875 
Q 58.015625 14.40625 51.78125 6.484375 
Q 45.5625 -1.421875 35.59375 -1.421875 
Q 29.59375 -1.421875 25.265625 0.953125 
Q 20.953125 3.328125 18.109375 8.203125 
L 18.109375 0 
L 9.078125 0 
L 9.078125 75.984375 
L 18.109375 75.984375 
z
" id="DejaVuSans-62"/>
     <path d="M 8.203125 72.90625 
L 55.078125 72.90625 
L 55.078125 68.703125 
L 28.609375 0 
L 18.3125 0 
L 43.21875 64.59375 
L 8.203125 64.59375 
z
" id="DejaVuSans-37"/>
     <path d="M 11.71875 51.703125 
L 22.015625 51.703125 
L 22.015625 39.3125 
L 11.71875 39.3125 
z
M 11.71875 12.40625 
L 22.015625 12.40625 
L 22.015625 4 
L 14.015625 -11.625 
L 7.71875 -11.625 
L 11.71875 4 
z
" id="DejaVuSans-3b"/>
     <path d="M 10.796875 72.90625 
L 49.515625 72.90625 
L 49.515625 64.59375 
L 19.828125 64.59375 
L 19.828125 46.734375 
Q 21.96875 47.46875 24.109375 47.828125 
Q 26.265625 48.1875 28.421875 48.1875 
Q 40.625 48.1875 47.75 41.5 
Q 54.890625 34.8125 54.890625 23.390625 
Q 54.890625 11.625 47.5625 5.09375 
Q 40.234375 -1.421875 26.90625 -1.421875 
Q 22.3125 -1.421875 17.546875 -0.640625 
Q 12.796875 0.140625 7.71875 1.703125 
L 7.71875 11.625 
Q 12.109375 9.234375 16.796875 8.0625 
Q 21.484375 6.890625 26.703125 6.890625 
Q 35.15625 6.890625 40.078125 11.328125 
Q 45.015625 15.765625 45.015625 23.390625 
Q 45.015625 31 40.078125 35.4375 
Q 35.15625 39.890625 26.703125 39.890625 
Q 22.75 39.890625 18.8125 39.015625 
Q 14.890625 38.140625 10.796875 36.28125 
z
" id="DejaVuSans-35"/>
    </defs>
    <g transform="translate(-71.476875 35.472)scale(0.144 -0.144)">
     <use xlink:href="#DejaVuSans-6b"/>
     <use x="57.863281" xlink:href="#DejaVuSans-65"/>
     <use x="119.386719" xlink:href="#DejaVuSans-72"/>
     <use x="160.484375" xlink:href="#DejaVuSans-6e"/>
     <use x="223.863281" xlink:href="#DejaVuSans-65"/>
     <use x="285.386719" xlink:href="#DejaVuSans-6c"/>
     <use x="313.169922" xlink:href="#DejaVuSans-20"/>
     <use x="344.957031" xlink:href="#DejaVuSans-64"/>
     <use x="408.433594" xlink:href="#DejaVuSans-65"/>
     <use x="469.957031" xlink:href="#DejaVuSans-6e"/>
     <use x="533.335938" xlink:href="#DejaVuSans-73"/>
     <use x="585.435547" xlink:href="#DejaVuSans-69"/>
     <use x="613.21875" xlink:href="#DejaVuSans-74"/>
     <use x="652.427734" xlink:href="#DejaVuSans-79"/>
     <use x="711.607422" xlink:href="#DejaVuSans-20"/>
     <use x="743.394531" xlink:href="#DejaVuSans-65"/>
     <use x="804.917969" xlink:href="#DejaVuSans-73"/>
     <use x="857.017578" xlink:href="#DejaVuSans-74"/>
     <use x="896.226562" xlink:href="#DejaVuSans-69"/>
     <use x="924.009766" xlink:href="#DejaVuSans-6d"/>
     <use x="1021.421875" xlink:href="#DejaVuSans-61"/>
     <use x="1082.701172" xlink:href="#DejaVuSans-74"/>
     <use x="1121.910156" xlink:href="#DejaVuSans-69"/>
     <use x="1149.693359" xlink:href="#DejaVuSans-6f"/>
     <use x="1210.875" xlink:href="#DejaVuSans-6e"/>
     <use x="1274.253906" xlink:href="#DejaVuSans-28"/>
     <use x="1313.267578" xlink:href="#DejaVuSans-47"/>
     <use x="1390.757812" xlink:href="#DejaVuSans-61"/>
     <use x="1452.037109" xlink:href="#DejaVuSans-75"/>
     <use x="1515.416016" xlink:href="#DejaVuSans-73"/>
     <use x="1567.515625" xlink:href="#DejaVuSans-73"/>
     <use x="1619.615234" xlink:href="#DejaVuSans-69"/>
     <use x="1647.398438" xlink:href="#DejaVuSans-61"/>
     <use x="1708.677734" xlink:href="#DejaVuSans-6e"/>
     <use x="1772.056641" xlink:href="#DejaVuSans-29"/>
     <use x="1811.070312" xlink:href="#DejaVuSans-3a"/>
     <use x="1844.761719" xlink:href="#DejaVuSans-62"/>
     <use x="1908.238281" xlink:href="#DejaVuSans-32"/>
     <use x="1971.861328" xlink:href="#DejaVuSans-37"/>
     <use x="2035.484375" xlink:href="#DejaVuSans-30"/>
     <use x="2099.107422" xlink:href="#DejaVuSans-32"/>
     <use x="2162.730469" xlink:href="#DejaVuSans-3b"/>
     <use x="2196.421875" xlink:href="#DejaVuSans-62"/>
     <use x="2259.898438" xlink:href="#DejaVuSans-32"/>
     <use x="2323.521484" xlink:href="#DejaVuSans-37"/>
     <use x="2387.144531" xlink:href="#DejaVuSans-30"/>
     <use x="2450.767578" xlink:href="#DejaVuSans-33"/>
     <use x="2514.390625" xlink:href="#DejaVuSans-3b"/>
     <use x="2548.082031" xlink:href="#DejaVuSans-62"/>
     <use x="2611.558594" xlink:href="#DejaVuSans-32"/>
     <use x="2675.181641" xlink:href="#DejaVuSans-37"/>
     <use x="2738.804688" xlink:href="#DejaVuSans-30"/>
     <use x="2802.427734" xlink:href="#DejaVuSans-34"/>
     <use x="2866.050781" xlink:href="#DejaVuSans-3b"/>
     <use x="2899.742188" xlink:href="#DejaVuSans-62"/>
     <use x="2963.21875" xlink:href="#DejaVuSans-32"/>
     <use x="3026.841797" xlink:href="#DejaVuSans-37"/>
     <use x="3090.464844" xlink:href="#DejaVuSans-30"/>
     <use x="3154.087891" xlink:href="#DejaVuSans-35"/>
     <use x="3217.710938" xlink:href="#DejaVuSans-3b"/>
     <use x="3251.402344" xlink:href="#DejaVuSans-62"/>
     <use x="3314.878906" xlink:href="#DejaVuSans-32"/>
     <use x="3378.501953" xlink:href="#DejaVuSans-37"/>
     <use x="3442.125" xlink:href="#DejaVuSans-30"/>
     <use x="3505.748047" xlink:href="#DejaVuSans-36"/>
     <use x="3569.371094" xlink:href="#DejaVuSans-3b"/>
     <use x="3603.0625" xlink:href="#DejaVuSans-62"/>
     <use x="3666.539062" xlink:href="#DejaVuSans-32"/>
     <use x="3730.162109" xlink:href="#DejaVuSans-37"/>
     <use x="3793.785156" xlink:href="#DejaVuSans-30"/>
     <use x="3857.408203" xlink:href="#DejaVuSans-37"/>
     <use x="3921.03125" xlink:href="#DejaVuSans-3b"/>
     <use x="3954.722656" xlink:href="#DejaVuSans-62"/>
     <use x="4018.199219" xlink:href="#DejaVuSans-32"/>
     <use x="4081.822266" xlink:href="#DejaVuSans-37"/>
     <use x="4145.445312" xlink:href="#DejaVuSans-30"/>
     <use x="4209.068359" xlink:href="#DejaVuSans-38"/>
    </g>
   </g>
   <g id="legend_1">
    <g id="patch_7">
     <path d="M 343.921563 152.218875 
L 407.72 152.218875 
Q 409.72 152.218875 409.72 150.218875 
L 409.72 48.472 
Q 409.72 46.472 407.72 46.472 
L 343.921563 46.472 
Q 341.921563 46.472 341.921563 48.472 
L 341.921563 150.218875 
Q 341.921563 152.218875 343.921563 152.218875 
z
" style="fill:#e5e5e5;opacity:0.8;stroke:#cccccc;stroke-linejoin:miter;stroke-width:0.5;"/>
    </g>
    <g id="line2d_36">
     <path d="M 345.921563 54.570438 
L 365.921563 54.570438 
" style="fill:none;stroke:#e24a33;stroke-linecap:square;stroke-width:0.3;"/>
    </g>
    <g id="line2d_37"/>
    <g id="text_18">
     <!-- b2702 -->
     <g transform="translate(373.921563 58.070438)scale(0.1 -0.1)">
      <use xlink:href="#DejaVuSans-62"/>
      <use x="63.476562" xlink:href="#DejaVuSans-32"/>
      <use x="127.099609" xlink:href="#DejaVuSans-37"/>
      <use x="190.722656" xlink:href="#DejaVuSans-30"/>
      <use x="254.345703" xlink:href="#DejaVuSans-32"/>
     </g>
    </g>
    <g id="line2d_38">
     <path d="M 345.921563 69.248563 
L 365.921563 69.248563 
" style="fill:none;stroke:#348abd;stroke-linecap:square;stroke-width:0.3;"/>
    </g>
    <g id="line2d_39"/>
    <g id="text_19">
     <!-- b2703 -->
     <g transform="translate(373.921563 72.748563)scale(0.1 -0.1)">
      <use xlink:href="#DejaVuSans-62"/>
      <use x="63.476562" xlink:href="#DejaVuSans-32"/>
      <use x="127.099609" xlink:href="#DejaVuSans-37"/>
      <use x="190.722656" xlink:href="#DejaVuSans-30"/>
      <use x="254.345703" xlink:href="#DejaVuSans-33"/>
     </g>
    </g>
    <g id="line2d_40">
     <path d="M 345.921563 83.926688 
L 365.921563 83.926688 
" style="fill:none;stroke:#988ed5;stroke-linecap:square;stroke-width:0.3;"/>
    </g>
    <g id="line2d_41"/>
    <g id="text_20">
     <!-- b2704 -->
     <g transform="translate(373.921563 87.426688)scale(0.1 -0.1)">
      <use xlink:href="#DejaVuSans-62"/>
      <use x="63.476562" xlink:href="#DejaVuSans-32"/>
      <use x="127.099609" xlink:href="#DejaVuSans-37"/>
      <use x="190.722656" xlink:href="#DejaVuSans-30"/>
      <use x="254.345703" xlink:href="#DejaVuSans-34"/>
     </g>
    </g>
    <g id="line2d_42">
     <path d="M 345.921563 98.604813 
L 365.921563 98.604813 
" style="fill:none;stroke:#777777;stroke-linecap:square;stroke-width:0.3;"/>
    </g>
    <g id="line2d_43"/>
    <g id="text_21">
     <!-- b2705 -->
     <g transform="translate(373.921563 102.104813)scale(0.1 -0.1)">
      <use xlink:href="#DejaVuSans-62"/>
      <use x="63.476562" xlink:href="#DejaVuSans-32"/>
      <use x="127.099609" xlink:href="#DejaVuSans-37"/>
      <use x="190.722656" xlink:href="#DejaVuSans-30"/>
      <use x="254.345703" xlink:href="#DejaVuSans-35"/>
     </g>
    </g>
    <g id="line2d_44">
     <path d="M 345.921563 113.282938 
L 365.921563 113.282938 
" style="fill:none;stroke:#fbc15e;stroke-linecap:square;stroke-width:0.3;"/>
    </g>
    <g id="line2d_45"/>
    <g id="text_22">
     <!-- b2706 -->
     <g transform="translate(373.921563 116.782938)scale(0.1 -0.1)">
      <use xlink:href="#DejaVuSans-62"/>
      <use x="63.476562" xlink:href="#DejaVuSans-32"/>
      <use x="127.099609" xlink:href="#DejaVuSans-37"/>
      <use x="190.722656" xlink:href="#DejaVuSans-30"/>
      <use x="254.345703" xlink:href="#DejaVuSans-36"/>
     </g>
    </g>
    <g id="line2d_46">
     <path d="M 345.921563 127.961063 
L 365.921563 127.961063 
" style="fill:none;stroke:#8eba42;stroke-linecap:square;stroke-width:0.3;"/>
    </g>
    <g id="line2d_47"/>
    <g id="text_23">
     <!-- b2707 -->
     <g transform="translate(373.921563 131.461063)scale(0.1 -0.1)">
      <use xlink:href="#DejaVuSans-62"/>
      <use x="63.476562" xlink:href="#DejaVuSans-32"/>
      <use x="127.099609" xlink:href="#DejaVuSans-37"/>
      <use x="190.722656" xlink:href="#DejaVuSans-30"/>
      <use x="254.345703" xlink:href="#DejaVuSans-37"/>
     </g>
    </g>
    <g id="line2d_48">
     <path d="M 345.921563 142.639188 
L 365.921563 142.639188 
" style="fill:none;stroke:#ffb5b8;stroke-linecap:square;stroke-width:0.3;"/>
    </g>
    <g id="line2d_49"/>
    <g id="text_24">
     <!-- b2708 -->
     <g transform="translate(373.921563 146.139188)scale(0.1 -0.1)">
      <use xlink:href="#DejaVuSans-62"/>
      <use x="63.476562" xlink:href="#DejaVuSans-32"/>
      <use x="127.099609" xlink:href="#DejaVuSans-37"/>
      <use x="190.722656" xlink:href="#DejaVuSans-30"/>
      <use x="254.345703" xlink:href="#DejaVuSans-38"/>
     </g>
    </g>
   </g>
  </g>
 </g>
 <defs>
  <clipPath id="p9574b1fa54">
   <rect height="266.112" width="357.12" x="57.6" y="41.472"/>
  </clipPath>
 </defs>
</svg>
