<?xml version="1.0" encoding="utf-8" standalone="no"?>
<!DOCTYPE svg PUBLIC "-//W3C//DTD SVG 1.1//EN"
  "http://www.w3.org/Graphics/SVG/1.1/DTD/svg11.dtd">
<!-- Created with matplotlib (http://matplotlib.org/) -->
<svg height="345pt" version="1.1" viewBox="0 0 460 345" width="460pt" xmlns="http://www.w3.org/2000/svg" xmlns:xlink="http://www.w3.org/1999/xlink">
 <defs>
  <style type="text/css">
*{stroke-linecap:butt;stroke-linejoin:round;}
  </style>
 </defs>
 <g id="figure_1">
  <g id="patch_1">
   <path d="M 0 345.6 
L 460.8 345.6 
L 460.8 0 
L 0 0 
z
" style="fill:#ffffff;"/>
  </g>
  <g id="axes_1">
   <g id="patch_2">
    <path d="M 57.6 307.584 
L 414.72 307.584 
L 414.72 41.472 
L 57.6 41.472 
z
" style="fill:#e5e5e5;"/>
   </g>
   <g id="matplotlib.axis_1">
    <g id="xtick_1">
     <g id="line2d_1">
      <path clip-path="url(#pc9e42c213e)" d="M 117.734252 307.584 
L 117.734252 41.472 
" style="fill:none;stroke:#ffffff;stroke-linecap:square;stroke-width:0.8;"/>
     </g>
     <g id="line2d_2">
      <defs>
       <path d="M 0 0 
L 0 3.5 
" id="mf542846cab" style="stroke:#555555;stroke-width:0.8;"/>
      </defs>
      <g>
       <use style="fill:#555555;stroke:#555555;stroke-width:0.8;" x="117.734252" xlink:href="#mf542846cab" y="307.584"/>
      </g>
     </g>
     <g id="text_1">
      <!-- 0 -->
      <defs>
       <path d="M 31.78125 66.40625 
Q 24.171875 66.40625 20.328125 58.90625 
Q 16.5 51.421875 16.5 36.375 
Q 16.5 21.390625 20.328125 13.890625 
Q 24.171875 6.390625 31.78125 6.390625 
Q 39.453125 6.390625 43.28125 13.890625 
Q 47.125 21.390625 47.125 36.375 
Q 47.125 51.421875 43.28125 58.90625 
Q 39.453125 66.40625 31.78125 66.40625 
z
M 31.78125 74.21875 
Q 44.046875 74.21875 50.515625 64.515625 
Q 56.984375 54.828125 56.984375 36.375 
Q 56.984375 17.96875 50.515625 8.265625 
Q 44.046875 -1.421875 31.78125 -1.421875 
Q 19.53125 -1.421875 13.0625 8.265625 
Q 6.59375 17.96875 6.59375 36.375 
Q 6.59375 54.828125 13.0625 64.515625 
Q 19.53125 74.21875 31.78125 74.21875 
z
" id="DejaVuSans-30"/>
      </defs>
      <g style="fill:#555555;" transform="translate(114.553002 322.182437)scale(0.1 -0.1)">
       <use xlink:href="#DejaVuSans-30"/>
      </g>
     </g>
    </g>
    <g id="xtick_2">
     <g id="line2d_3">
      <path clip-path="url(#pc9e42c213e)" d="M 195.288769 307.584 
L 195.288769 41.472 
" style="fill:none;stroke:#ffffff;stroke-linecap:square;stroke-width:0.8;"/>
     </g>
     <g id="line2d_4">
      <g>
       <use style="fill:#555555;stroke:#555555;stroke-width:0.8;" x="195.288769" xlink:href="#mf542846cab" y="307.584"/>
      </g>
     </g>
     <g id="text_2">
      <!-- 500 -->
      <defs>
       <path d="M 10.796875 72.90625 
L 49.515625 72.90625 
L 49.515625 64.59375 
L 19.828125 64.59375 
L 19.828125 46.734375 
Q 21.96875 47.46875 24.109375 47.828125 
Q 26.265625 48.1875 28.421875 48.1875 
Q 40.625 48.1875 47.75 41.5 
Q 54.890625 34.8125 54.890625 23.390625 
Q 54.890625 11.625 47.5625 5.09375 
Q 40.234375 -1.421875 26.90625 -1.421875 
Q 22.3125 -1.421875 17.546875 -0.640625 
Q 12.796875 0.140625 7.71875 1.703125 
L 7.71875 11.625 
Q 12.109375 9.234375 16.796875 8.0625 
Q 21.484375 6.890625 26.703125 6.890625 
Q 35.15625 6.890625 40.078125 11.328125 
Q 45.015625 15.765625 45.015625 23.390625 
Q 45.015625 31 40.078125 35.4375 
Q 35.15625 39.890625 26.703125 39.890625 
Q 22.75 39.890625 18.8125 39.015625 
Q 14.890625 38.140625 10.796875 36.28125 
z
" id="DejaVuSans-35"/>
      </defs>
      <g style="fill:#555555;" transform="translate(185.745019 322.182437)scale(0.1 -0.1)">
       <use xlink:href="#DejaVuSans-35"/>
       <use x="63.623047" xlink:href="#DejaVuSans-30"/>
       <use x="127.246094" xlink:href="#DejaVuSans-30"/>
      </g>
     </g>
    </g>
    <g id="xtick_3">
     <g id="line2d_5">
      <path clip-path="url(#pc9e42c213e)" d="M 272.843287 307.584 
L 272.843287 41.472 
" style="fill:none;stroke:#ffffff;stroke-linecap:square;stroke-width:0.8;"/>
     </g>
     <g id="line2d_6">
      <g>
       <use style="fill:#555555;stroke:#555555;stroke-width:0.8;" x="272.843287" xlink:href="#mf542846cab" y="307.584"/>
      </g>
     </g>
     <g id="text_3">
      <!-- 1000 -->
      <defs>
       <path d="M 12.40625 8.296875 
L 28.515625 8.296875 
L 28.515625 63.921875 
L 10.984375 60.40625 
L 10.984375 69.390625 
L 28.421875 72.90625 
L 38.28125 72.90625 
L 38.28125 8.296875 
L 54.390625 8.296875 
L 54.390625 0 
L 12.40625 0 
z
" id="DejaVuSans-31"/>
      </defs>
      <g style="fill:#555555;" transform="translate(260.118287 322.182437)scale(0.1 -0.1)">
       <use xlink:href="#DejaVuSans-31"/>
       <use x="63.623047" xlink:href="#DejaVuSans-30"/>
       <use x="127.246094" xlink:href="#DejaVuSans-30"/>
       <use x="190.869141" xlink:href="#DejaVuSans-30"/>
      </g>
     </g>
    </g>
    <g id="xtick_4">
     <g id="line2d_7">
      <path clip-path="url(#pc9e42c213e)" d="M 350.397805 307.584 
L 350.397805 41.472 
" style="fill:none;stroke:#ffffff;stroke-linecap:square;stroke-width:0.8;"/>
     </g>
     <g id="line2d_8">
      <g>
       <use style="fill:#555555;stroke:#555555;stroke-width:0.8;" x="350.397805" xlink:href="#mf542846cab" y="307.584"/>
      </g>
     </g>
     <g id="text_4">
      <!-- 1500 -->
      <g style="fill:#555555;" transform="translate(337.672805 322.182437)scale(0.1 -0.1)">
       <use xlink:href="#DejaVuSans-31"/>
       <use x="63.623047" xlink:href="#DejaVuSans-35"/>
       <use x="127.246094" xlink:href="#DejaVuSans-30"/>
       <use x="190.869141" xlink:href="#DejaVuSans-30"/>
      </g>
     </g>
    </g>
    <g id="text_5">
     <!-- count -->
     <defs>
      <path d="M 48.78125 52.59375 
L 48.78125 44.1875 
Q 44.96875 46.296875 41.140625 47.34375 
Q 37.3125 48.390625 33.40625 48.390625 
Q 24.65625 48.390625 19.8125 42.84375 
Q 14.984375 37.3125 14.984375 27.296875 
Q 14.984375 17.28125 19.8125 11.734375 
Q 24.65625 6.203125 33.40625 6.203125 
Q 37.3125 6.203125 41.140625 7.25 
Q 44.96875 8.296875 48.78125 10.40625 
L 48.78125 2.09375 
Q 45.015625 0.34375 40.984375 -0.53125 
Q 36.96875 -1.421875 32.421875 -1.421875 
Q 20.0625 -1.421875 12.78125 6.34375 
Q 5.515625 14.109375 5.515625 27.296875 
Q 5.515625 40.671875 12.859375 48.328125 
Q 20.21875 56 33.015625 56 
Q 37.15625 56 41.109375 55.140625 
Q 45.0625 54.296875 48.78125 52.59375 
z
" id="DejaVuSans-63"/>
      <path d="M 30.609375 48.390625 
Q 23.390625 48.390625 19.1875 42.75 
Q 14.984375 37.109375 14.984375 27.296875 
Q 14.984375 17.484375 19.15625 11.84375 
Q 23.34375 6.203125 30.609375 6.203125 
Q 37.796875 6.203125 41.984375 11.859375 
Q 46.1875 17.53125 46.1875 27.296875 
Q 46.1875 37.015625 41.984375 42.703125 
Q 37.796875 48.390625 30.609375 48.390625 
z
M 30.609375 56 
Q 42.328125 56 49.015625 48.375 
Q 55.71875 40.765625 55.71875 27.296875 
Q 55.71875 13.875 49.015625 6.21875 
Q 42.328125 -1.421875 30.609375 -1.421875 
Q 18.84375 -1.421875 12.171875 6.21875 
Q 5.515625 13.875 5.515625 27.296875 
Q 5.515625 40.765625 12.171875 48.375 
Q 18.84375 56 30.609375 56 
z
" id="DejaVuSans-6f"/>
      <path d="M 8.5 21.578125 
L 8.5 54.6875 
L 17.484375 54.6875 
L 17.484375 21.921875 
Q 17.484375 14.15625 20.5 10.265625 
Q 23.53125 6.390625 29.59375 6.390625 
Q 36.859375 6.390625 41.078125 11.03125 
Q 45.3125 15.671875 45.3125 23.6875 
L 45.3125 54.6875 
L 54.296875 54.6875 
L 54.296875 0 
L 45.3125 0 
L 45.3125 8.40625 
Q 42.046875 3.421875 37.71875 1 
Q 33.40625 -1.421875 27.6875 -1.421875 
Q 18.265625 -1.421875 13.375 4.4375 
Q 8.5 10.296875 8.5 21.578125 
z
M 31.109375 56 
z
" id="DejaVuSans-75"/>
      <path d="M 54.890625 33.015625 
L 54.890625 0 
L 45.90625 0 
L 45.90625 32.71875 
Q 45.90625 40.484375 42.875 44.328125 
Q 39.84375 48.1875 33.796875 48.1875 
Q 26.515625 48.1875 22.3125 43.546875 
Q 18.109375 38.921875 18.109375 30.90625 
L 18.109375 0 
L 9.078125 0 
L 9.078125 54.6875 
L 18.109375 54.6875 
L 18.109375 46.1875 
Q 21.34375 51.125 25.703125 53.5625 
Q 30.078125 56 35.796875 56 
Q 45.21875 56 50.046875 50.171875 
Q 54.890625 44.34375 54.890625 33.015625 
z
" id="DejaVuSans-6e"/>
      <path d="M 18.3125 70.21875 
L 18.3125 54.6875 
L 36.8125 54.6875 
L 36.8125 47.703125 
L 18.3125 47.703125 
L 18.3125 18.015625 
Q 18.3125 11.328125 20.140625 9.421875 
Q 21.96875 7.515625 27.59375 7.515625 
L 36.8125 7.515625 
L 36.8125 0 
L 27.59375 0 
Q 17.1875 0 13.234375 3.875 
Q 9.28125 7.765625 9.28125 18.015625 
L 9.28125 47.703125 
L 2.6875 47.703125 
L 2.6875 54.6875 
L 9.28125 54.6875 
L 9.28125 70.21875 
z
" id="DejaVuSans-74"/>
     </defs>
     <g style="fill:#555555;" transform="translate(219.2325 337.38025)scale(0.12 -0.12)">
      <use xlink:href="#DejaVuSans-63"/>
      <use x="54.980469" xlink:href="#DejaVuSans-6f"/>
      <use x="116.162109" xlink:href="#DejaVuSans-75"/>
      <use x="179.541016" xlink:href="#DejaVuSans-6e"/>
      <use x="242.919922" xlink:href="#DejaVuSans-74"/>
     </g>
    </g>
   </g>
   <g id="matplotlib.axis_2">
    <g id="ytick_1">
     <g id="line2d_9">
      <path clip-path="url(#pc9e42c213e)" d="M 57.6 307.584 
L 414.72 307.584 
" style="fill:none;stroke:#ffffff;stroke-linecap:square;stroke-width:0.8;"/>
     </g>
     <g id="line2d_10">
      <defs>
       <path d="M 0 0 
L -3.5 0 
" id="m5ed3f65660" style="stroke:#555555;stroke-width:0.8;"/>
      </defs>
      <g>
       <use style="fill:#555555;stroke:#555555;stroke-width:0.8;" x="57.6" xlink:href="#m5ed3f65660" y="307.584"/>
      </g>
     </g>
     <g id="text_6">
      <!-- 0.000 -->
      <defs>
       <path d="M 10.6875 12.40625 
L 21 12.40625 
L 21 0 
L 10.6875 0 
z
" id="DejaVuSans-2e"/>
      </defs>
      <g style="fill:#555555;" transform="translate(21.971875 311.383219)scale(0.1 -0.1)">
       <use xlink:href="#DejaVuSans-30"/>
       <use x="63.623047" xlink:href="#DejaVuSans-2e"/>
       <use x="95.410156" xlink:href="#DejaVuSans-30"/>
       <use x="159.033203" xlink:href="#DejaVuSans-30"/>
       <use x="222.65625" xlink:href="#DejaVuSans-30"/>
      </g>
     </g>
    </g>
    <g id="ytick_2">
     <g id="line2d_11">
      <path clip-path="url(#pc9e42c213e)" d="M 57.6 272.771934 
L 414.72 272.771934 
" style="fill:none;stroke:#ffffff;stroke-linecap:square;stroke-width:0.8;"/>
     </g>
     <g id="line2d_12">
      <g>
       <use style="fill:#555555;stroke:#555555;stroke-width:0.8;" x="57.6" xlink:href="#m5ed3f65660" y="272.771934"/>
      </g>
     </g>
     <g id="text_7">
      <!-- 0.002 -->
      <defs>
       <path d="M 19.1875 8.296875 
L 53.609375 8.296875 
L 53.609375 0 
L 7.328125 0 
L 7.328125 8.296875 
Q 12.9375 14.109375 22.625 23.890625 
Q 32.328125 33.6875 34.8125 36.53125 
Q 39.546875 41.84375 41.421875 45.53125 
Q 43.3125 49.21875 43.3125 52.78125 
Q 43.3125 58.59375 39.234375 62.25 
Q 35.15625 65.921875 28.609375 65.921875 
Q 23.96875 65.921875 18.8125 64.3125 
Q 13.671875 62.703125 7.8125 59.421875 
L 7.8125 69.390625 
Q 13.765625 71.78125 18.9375 73 
Q 24.125 74.21875 28.421875 74.21875 
Q 39.75 74.21875 46.484375 68.546875 
Q 53.21875 62.890625 53.21875 53.421875 
Q 53.21875 48.921875 51.53125 44.890625 
Q 49.859375 40.875 45.40625 35.40625 
Q 44.1875 33.984375 37.640625 27.21875 
Q 31.109375 20.453125 19.1875 8.296875 
z
" id="DejaVuSans-32"/>
      </defs>
      <g style="fill:#555555;" transform="translate(21.971875 276.571152)scale(0.1 -0.1)">
       <use xlink:href="#DejaVuSans-30"/>
       <use x="63.623047" xlink:href="#DejaVuSans-2e"/>
       <use x="95.410156" xlink:href="#DejaVuSans-30"/>
       <use x="159.033203" xlink:href="#DejaVuSans-30"/>
       <use x="222.65625" xlink:href="#DejaVuSans-32"/>
      </g>
     </g>
    </g>
    <g id="ytick_3">
     <g id="line2d_13">
      <path clip-path="url(#pc9e42c213e)" d="M 57.6 237.959867 
L 414.72 237.959867 
" style="fill:none;stroke:#ffffff;stroke-linecap:square;stroke-width:0.8;"/>
     </g>
     <g id="line2d_14">
      <g>
       <use style="fill:#555555;stroke:#555555;stroke-width:0.8;" x="57.6" xlink:href="#m5ed3f65660" y="237.959867"/>
      </g>
     </g>
     <g id="text_8">
      <!-- 0.004 -->
      <defs>
       <path d="M 37.796875 64.3125 
L 12.890625 25.390625 
L 37.796875 25.390625 
z
M 35.203125 72.90625 
L 47.609375 72.90625 
L 47.609375 25.390625 
L 58.015625 25.390625 
L 58.015625 17.1875 
L 47.609375 17.1875 
L 47.609375 0 
L 37.796875 0 
L 37.796875 17.1875 
L 4.890625 17.1875 
L 4.890625 26.703125 
z
" id="DejaVuSans-34"/>
      </defs>
      <g style="fill:#555555;" transform="translate(21.971875 241.759086)scale(0.1 -0.1)">
       <use xlink:href="#DejaVuSans-30"/>
       <use x="63.623047" xlink:href="#DejaVuSans-2e"/>
       <use x="95.410156" xlink:href="#DejaVuSans-30"/>
       <use x="159.033203" xlink:href="#DejaVuSans-30"/>
       <use x="222.65625" xlink:href="#DejaVuSans-34"/>
      </g>
     </g>
    </g>
    <g id="ytick_4">
     <g id="line2d_15">
      <path clip-path="url(#pc9e42c213e)" d="M 57.6 203.147801 
L 414.72 203.147801 
" style="fill:none;stroke:#ffffff;stroke-linecap:square;stroke-width:0.8;"/>
     </g>
     <g id="line2d_16">
      <g>
       <use style="fill:#555555;stroke:#555555;stroke-width:0.8;" x="57.6" xlink:href="#m5ed3f65660" y="203.147801"/>
      </g>
     </g>
     <g id="text_9">
      <!-- 0.006 -->
      <defs>
       <path d="M 33.015625 40.375 
Q 26.375 40.375 22.484375 35.828125 
Q 18.609375 31.296875 18.609375 23.390625 
Q 18.609375 15.53125 22.484375 10.953125 
Q 26.375 6.390625 33.015625 6.390625 
Q 39.65625 6.390625 43.53125 10.953125 
Q 47.40625 15.53125 47.40625 23.390625 
Q 47.40625 31.296875 43.53125 35.828125 
Q 39.65625 40.375 33.015625 40.375 
z
M 52.59375 71.296875 
L 52.59375 62.3125 
Q 48.875 64.0625 45.09375 64.984375 
Q 41.3125 65.921875 37.59375 65.921875 
Q 27.828125 65.921875 22.671875 59.328125 
Q 17.53125 52.734375 16.796875 39.40625 
Q 19.671875 43.65625 24.015625 45.921875 
Q 28.375 48.1875 33.59375 48.1875 
Q 44.578125 48.1875 50.953125 41.515625 
Q 57.328125 34.859375 57.328125 23.390625 
Q 57.328125 12.15625 50.6875 5.359375 
Q 44.046875 -1.421875 33.015625 -1.421875 
Q 20.359375 -1.421875 13.671875 8.265625 
Q 6.984375 17.96875 6.984375 36.375 
Q 6.984375 53.65625 15.1875 63.9375 
Q 23.390625 74.21875 37.203125 74.21875 
Q 40.921875 74.21875 44.703125 73.484375 
Q 48.484375 72.75 52.59375 71.296875 
z
" id="DejaVuSans-36"/>
      </defs>
      <g style="fill:#555555;" transform="translate(21.971875 206.947019)scale(0.1 -0.1)">
       <use xlink:href="#DejaVuSans-30"/>
       <use x="63.623047" xlink:href="#DejaVuSans-2e"/>
       <use x="95.410156" xlink:href="#DejaVuSans-30"/>
       <use x="159.033203" xlink:href="#DejaVuSans-30"/>
       <use x="222.65625" xlink:href="#DejaVuSans-36"/>
      </g>
     </g>
    </g>
    <g id="ytick_5">
     <g id="line2d_17">
      <path clip-path="url(#pc9e42c213e)" d="M 57.6 168.335734 
L 414.72 168.335734 
" style="fill:none;stroke:#ffffff;stroke-linecap:square;stroke-width:0.8;"/>
     </g>
     <g id="line2d_18">
      <g>
       <use style="fill:#555555;stroke:#555555;stroke-width:0.8;" x="57.6" xlink:href="#m5ed3f65660" y="168.335734"/>
      </g>
     </g>
     <g id="text_10">
      <!-- 0.008 -->
      <defs>
       <path d="M 31.78125 34.625 
Q 24.75 34.625 20.71875 30.859375 
Q 16.703125 27.09375 16.703125 20.515625 
Q 16.703125 13.921875 20.71875 10.15625 
Q 24.75 6.390625 31.78125 6.390625 
Q 38.8125 6.390625 42.859375 10.171875 
Q 46.921875 13.96875 46.921875 20.515625 
Q 46.921875 27.09375 42.890625 30.859375 
Q 38.875 34.625 31.78125 34.625 
z
M 21.921875 38.8125 
Q 15.578125 40.375 12.03125 44.71875 
Q 8.5 49.078125 8.5 55.328125 
Q 8.5 64.0625 14.71875 69.140625 
Q 20.953125 74.21875 31.78125 74.21875 
Q 42.671875 74.21875 48.875 69.140625 
Q 55.078125 64.0625 55.078125 55.328125 
Q 55.078125 49.078125 51.53125 44.71875 
Q 48 40.375 41.703125 38.8125 
Q 48.828125 37.15625 52.796875 32.3125 
Q 56.78125 27.484375 56.78125 20.515625 
Q 56.78125 9.90625 50.3125 4.234375 
Q 43.84375 -1.421875 31.78125 -1.421875 
Q 19.734375 -1.421875 13.25 4.234375 
Q 6.78125 9.90625 6.78125 20.515625 
Q 6.78125 27.484375 10.78125 32.3125 
Q 14.796875 37.15625 21.921875 38.8125 
z
M 18.3125 54.390625 
Q 18.3125 48.734375 21.84375 45.5625 
Q 25.390625 42.390625 31.78125 42.390625 
Q 38.140625 42.390625 41.71875 45.5625 
Q 45.3125 48.734375 45.3125 54.390625 
Q 45.3125 60.0625 41.71875 63.234375 
Q 38.140625 66.40625 31.78125 66.40625 
Q 25.390625 66.40625 21.84375 63.234375 
Q 18.3125 60.0625 18.3125 54.390625 
z
" id="DejaVuSans-38"/>
      </defs>
      <g style="fill:#555555;" transform="translate(21.971875 172.134953)scale(0.1 -0.1)">
       <use xlink:href="#DejaVuSans-30"/>
       <use x="63.623047" xlink:href="#DejaVuSans-2e"/>
       <use x="95.410156" xlink:href="#DejaVuSans-30"/>
       <use x="159.033203" xlink:href="#DejaVuSans-30"/>
       <use x="222.65625" xlink:href="#DejaVuSans-38"/>
      </g>
     </g>
    </g>
    <g id="ytick_6">
     <g id="line2d_19">
      <path clip-path="url(#pc9e42c213e)" d="M 57.6 133.523668 
L 414.72 133.523668 
" style="fill:none;stroke:#ffffff;stroke-linecap:square;stroke-width:0.8;"/>
     </g>
     <g id="line2d_20">
      <g>
       <use style="fill:#555555;stroke:#555555;stroke-width:0.8;" x="57.6" xlink:href="#m5ed3f65660" y="133.523668"/>
      </g>
     </g>
     <g id="text_11">
      <!-- 0.010 -->
      <g style="fill:#555555;" transform="translate(21.971875 137.322886)scale(0.1 -0.1)">
       <use xlink:href="#DejaVuSans-30"/>
       <use x="63.623047" xlink:href="#DejaVuSans-2e"/>
       <use x="95.410156" xlink:href="#DejaVuSans-30"/>
       <use x="159.033203" xlink:href="#DejaVuSans-31"/>
       <use x="222.65625" xlink:href="#DejaVuSans-30"/>
      </g>
     </g>
    </g>
    <g id="ytick_7">
     <g id="line2d_21">
      <path clip-path="url(#pc9e42c213e)" d="M 57.6 98.711601 
L 414.72 98.711601 
" style="fill:none;stroke:#ffffff;stroke-linecap:square;stroke-width:0.8;"/>
     </g>
     <g id="line2d_22">
      <g>
       <use style="fill:#555555;stroke:#555555;stroke-width:0.8;" x="57.6" xlink:href="#m5ed3f65660" y="98.711601"/>
      </g>
     </g>
     <g id="text_12">
      <!-- 0.012 -->
      <g style="fill:#555555;" transform="translate(21.971875 102.51082)scale(0.1 -0.1)">
       <use xlink:href="#DejaVuSans-30"/>
       <use x="63.623047" xlink:href="#DejaVuSans-2e"/>
       <use x="95.410156" xlink:href="#DejaVuSans-30"/>
       <use x="159.033203" xlink:href="#DejaVuSans-31"/>
       <use x="222.65625" xlink:href="#DejaVuSans-32"/>
      </g>
     </g>
    </g>
    <g id="ytick_8">
     <g id="line2d_23">
      <path clip-path="url(#pc9e42c213e)" d="M 57.6 63.899535 
L 414.72 63.899535 
" style="fill:none;stroke:#ffffff;stroke-linecap:square;stroke-width:0.8;"/>
     </g>
     <g id="line2d_24">
      <g>
       <use style="fill:#555555;stroke:#555555;stroke-width:0.8;" x="57.6" xlink:href="#m5ed3f65660" y="63.899535"/>
      </g>
     </g>
     <g id="text_13">
      <!-- 0.014 -->
      <g style="fill:#555555;" transform="translate(21.971875 67.698753)scale(0.1 -0.1)">
       <use xlink:href="#DejaVuSans-30"/>
       <use x="63.623047" xlink:href="#DejaVuSans-2e"/>
       <use x="95.410156" xlink:href="#DejaVuSans-30"/>
       <use x="159.033203" xlink:href="#DejaVuSans-31"/>
       <use x="222.65625" xlink:href="#DejaVuSans-34"/>
      </g>
     </g>
    </g>
    <g id="text_14">
     <!-- f(count) -->
     <defs>
      <path d="M 37.109375 75.984375 
L 37.109375 68.5 
L 28.515625 68.5 
Q 23.6875 68.5 21.796875 66.546875 
Q 19.921875 64.59375 19.921875 59.515625 
L 19.921875 54.6875 
L 34.71875 54.6875 
L 34.71875 47.703125 
L 19.921875 47.703125 
L 19.921875 0 
L 10.890625 0 
L 10.890625 47.703125 
L 2.296875 47.703125 
L 2.296875 54.6875 
L 10.890625 54.6875 
L 10.890625 58.5 
Q 10.890625 67.625 15.140625 71.796875 
Q 19.390625 75.984375 28.609375 75.984375 
z
" id="DejaVuSans-66"/>
      <path d="M 31 75.875 
Q 24.46875 64.65625 21.28125 53.65625 
Q 18.109375 42.671875 18.109375 31.390625 
Q 18.109375 20.125 21.3125 9.0625 
Q 24.515625 -2 31 -13.1875 
L 23.1875 -13.1875 
Q 15.875 -1.703125 12.234375 9.375 
Q 8.59375 20.453125 8.59375 31.390625 
Q 8.59375 42.28125 12.203125 53.3125 
Q 15.828125 64.359375 23.1875 75.875 
z
" id="DejaVuSans-28"/>
      <path d="M 8.015625 75.875 
L 15.828125 75.875 
Q 23.140625 64.359375 26.78125 53.3125 
Q 30.421875 42.28125 30.421875 31.390625 
Q 30.421875 20.453125 26.78125 9.375 
Q 23.140625 -1.703125 15.828125 -13.1875 
L 8.015625 -13.1875 
Q 14.5 -2 17.703125 9.0625 
Q 20.90625 20.125 20.90625 31.390625 
Q 20.90625 42.671875 17.703125 53.65625 
Q 14.5 64.65625 8.015625 75.875 
z
" id="DejaVuSans-29"/>
     </defs>
     <g style="fill:#555555;" transform="translate(15.47625 198.249562)rotate(-90)scale(0.12 -0.12)">
      <use xlink:href="#DejaVuSans-66"/>
      <use x="35.205078" xlink:href="#DejaVuSans-28"/>
      <use x="74.21875" xlink:href="#DejaVuSans-63"/>
      <use x="129.199219" xlink:href="#DejaVuSans-6f"/>
      <use x="190.380859" xlink:href="#DejaVuSans-75"/>
      <use x="253.759766" xlink:href="#DejaVuSans-6e"/>
      <use x="317.138672" xlink:href="#DejaVuSans-74"/>
      <use x="356.347656" xlink:href="#DejaVuSans-29"/>
     </g>
    </g>
   </g>
   <g id="line2d_25">
    <path clip-path="url(#pc9e42c213e)" d="M 75.263594 307.443004 
L 77.921792 307.36858 
L 80.57999 307.260568 
L 83.238188 307.106785 
L 85.896386 306.892013 
L 88.554584 306.597824 
L 91.212782 306.202649 
L 93.87098 305.682181 
L 96.529178 305.010213 
L 99.187376 304.159962 
L 101.845574 303.105913 
L 104.503772 301.826139 
L 107.16197 300.304984 
L 109.820168 298.535915 
L 112.478366 296.524268 
L 115.136563 294.289571 
L 117.794761 291.867089 
L 120.452959 289.308272 
L 123.111157 286.67986 
L 125.769355 284.061516 
L 128.427553 281.542037 
L 131.085751 279.21434 
L 133.743949 277.169619 
L 136.402147 275.491186 
L 139.060345 274.248598 
L 141.718543 273.492651 
L 144.376741 273.25177 
L 147.034939 273.530171 
L 149.693137 274.307947 
L 152.351335 275.543052 
L 155.009533 277.174918 
L 157.66773 279.129278 
L 160.325928 281.323666 
L 162.984126 283.673043 
L 165.642324 286.095008 
L 168.300522 288.514183 
L 170.95872 290.865503 
L 173.616918 293.096267 
L 176.275116 295.16699 
L 178.933314 297.051197 
L 181.591512 298.734368 
L 184.24971 300.212324 
L 186.907908 301.489271 
L 189.566106 302.575766 
L 192.224304 303.48675 
L 194.882502 304.239768 
L 197.5407 304.853452 
L 200.198897 305.346261 
L 202.857095 305.735481 
L 205.515293 306.036452 
L 208.173491 306.261982 
L 210.831689 306.421919 
L 213.489887 306.522864 
L 216.148085 306.568014 
L 218.806283 306.557131 
L 221.464481 306.486659 
L 224.122679 306.35002 
L 226.780877 306.138103 
L 229.439075 305.839984 
L 232.097273 305.443909 
L 234.755471 304.938513 
L 237.413669 304.314279 
L 240.071867 303.565148 
L 242.730064 302.690177 
L 245.388262 301.695091 
L 248.04646 300.593549 
L 250.704658 299.407905 
L 253.362856 298.169306 
L 256.021054 296.916958 
L 258.679252 295.696517 
L 261.33745 294.55763 
L 263.995648 293.550794 
L 266.653846 292.723773 
L 269.312044 292.117937 
L 271.970242 291.764907 
L 274.62844 291.683878 
L 277.286638 291.879948 
L 279.944836 292.34365 
L 282.603034 293.051746 
L 285.261231 293.969204 
L 287.919429 295.052106 
L 290.577627 296.251164 
L 293.235825 297.51545 
L 295.894023 298.795941 
L 298.552221 300.048557 
L 301.210419 301.236434 
L 303.868617 302.33131 
L 306.526815 303.314015 
L 309.185013 304.174148 
L 311.843211 304.909122 
L 314.501409 305.522767 
L 317.159607 306.023728 
L 319.817805 306.423836 
L 322.476003 306.736616 
L 325.134201 306.976034 
L 327.792398 307.155538 
L 330.450596 307.287396 
L 333.108794 307.382318 
L 335.766992 307.449295 
L 338.42519 307.495627 
" style="fill:none;stroke:#e24a33;stroke-linecap:square;stroke-width:0.3;"/>
   </g>
   <g id="line2d_26">
    <path clip-path="url(#pc9e42c213e)" d="M 110.791086 307.414331 
L 111.672428 307.292327 
L 112.553771 307.095653 
L 113.435113 306.787615 
L 114.316456 306.318953 
L 115.197798 305.626457 
L 116.079141 304.632973 
L 116.960483 303.249532 
L 117.841826 301.38028 
L 118.723168 298.930591 
L 119.604511 295.818189 
L 120.485853 291.986395 
L 121.367196 287.417796 
L 122.248538 282.145916 
L 123.129881 276.26217 
L 124.011223 269.915569 
L 124.892566 263.303623 
L 125.773908 256.654407 
L 126.65525 250.20172 
L 127.536593 244.157145 
L 128.417935 238.684076 
L 129.299278 233.879072 
L 130.18062 229.764851 
L 131.061963 226.297033 
L 131.943305 223.383822 
L 132.824648 220.914829 
L 133.70599 218.793005 
L 134.587333 216.962812 
L 135.468675 215.42852 
L 136.350018 214.258752 
L 137.23136 213.576561 
L 138.112703 213.537481 
L 138.994045 214.300501 
L 139.875388 215.998029 
L 140.75673 218.710631 
L 141.638073 222.450757 
L 142.519415 227.157425 
L 143.400757 232.701534 
L 144.2821 238.899649 
L 145.163442 245.533091 
L 146.044785 252.36895 
L 146.926127 259.180092 
L 147.80747 265.762013 
L 148.688812 271.945222 
L 149.570155 277.602657 
L 150.451497 282.65215 
L 151.33284 287.054478 
L 152.214182 290.8078 
L 153.095525 293.939575 
L 153.976867 296.497148 
L 154.85821 298.538251 
L 155.739552 300.122477 
L 156.620895 301.304528 
L 157.502237 302.129635 
L 158.38358 302.631157 
L 159.264922 302.830039 
L 160.146264 302.735632 
L 161.027607 302.347391 
L 161.908949 301.65709 
L 162.790292 300.651458 
L 163.671634 299.315367 
L 164.552977 297.635836 
L 165.434319 295.607063 
L 166.315662 293.236457 
L 167.197004 290.551194 
L 168.078347 287.604369 
L 168.959689 284.479361 
L 169.841032 281.290964 
L 170.722374 278.182001 
L 171.603717 275.314851 
L 172.485059 272.858269 
L 173.366402 270.970929 
L 174.247744 269.784075 
L 175.129086 269.386068 
L 176.010429 269.811523 
L 176.891771 271.036967 
L 177.773114 272.983762 
L 178.654456 275.527707 
L 179.535799 278.513548 
L 180.417141 281.771898 
L 181.298484 285.135899 
L 182.179826 288.455319 
L 183.061169 291.606589 
L 183.942511 294.498155 
L 184.823854 297.07142 
L 185.705196 299.298148 
L 186.586539 301.175527 
L 187.467881 302.720092 
L 188.349224 303.961533 
L 189.230566 304.937101 
L 190.111909 305.687016 
L 190.993251 306.251027 
L 191.874593 306.666058 
L 192.755936 306.964807 
L 193.637278 307.1751 
L 194.518621 307.319792 
L 195.399963 307.417056 
L 196.281306 307.480901 
L 197.162648 307.521803 
L 198.043991 307.547364 
" style="fill:none;stroke:#348abd;stroke-linecap:square;stroke-width:0.3;"/>
   </g>
   <g id="line2d_27">
    <path clip-path="url(#pc9e42c213e)" d="M 113.642327 307.511365 
L 114.564774 307.440205 
L 115.487222 307.310498 
L 116.409669 307.084136 
L 117.332116 306.706014 
L 118.254564 306.101645 
L 119.177011 305.177716 
L 120.099459 303.827401 
L 121.021906 301.941853 
L 121.944353 299.428045 
L 122.866801 296.231184 
L 123.789248 292.357664 
L 124.711696 287.892688 
L 125.634143 283.006222 
L 126.55659 277.942468 
L 127.479038 272.991467 
L 128.401485 268.446142 
L 129.323933 264.552558 
L 130.24638 261.463961 
L 131.168827 259.209274 
L 132.091275 257.683954 
L 133.013722 256.666294 
L 133.93617 255.856653 
L 134.858617 254.932199 
L 135.781064 253.606586 
L 136.703512 251.683151 
L 137.625959 249.091619 
L 138.548407 245.901636 
L 139.470854 242.310885 
L 140.393301 238.610266 
L 141.315749 235.132814 
L 142.238196 232.195891 
L 143.160644 230.04738 
L 144.083091 228.825899 
L 145.005538 228.542599 
L 145.927986 229.088136 
L 146.850433 230.263583 
L 147.772881 231.828938 
L 148.695328 233.558762 
L 149.617775 235.292263 
L 150.540223 236.9658 
L 151.46267 238.619585 
L 152.385118 240.376513 
L 153.307565 242.398326 
L 154.230012 244.830518 
L 155.15246 247.750836 
L 156.074907 251.135698 
L 156.997355 254.854216 
L 157.919802 258.692103 
L 158.842249 262.399402 
L 159.764697 265.749279 
L 160.687144 268.591907 
L 161.609591 270.888794 
L 162.532039 272.718443 
L 163.454486 274.25231 
L 164.376934 275.708401 
L 165.299381 277.295841 
L 166.221828 279.165684 
L 167.144276 281.380519 
L 168.066723 283.909096 
L 168.989171 286.64444 
L 169.911618 289.437327 
L 170.834065 292.133678 
L 171.756513 294.605041 
L 172.67896 296.765284 
L 173.601408 298.571983 
L 174.523855 300.015838 
L 175.446302 301.104285 
L 176.36875 301.845823 
L 177.291197 302.239987 
L 178.213645 302.275388 
L 179.136092 301.935679 
L 180.058539 301.211437 
L 180.980987 300.114707 
L 181.903434 298.692417 
L 182.825882 297.034819 
L 183.748329 295.275733 
L 184.670776 293.582768 
L 185.593224 292.137902 
L 186.515671 291.111413 
L 187.438119 290.634405 
L 188.360566 290.77629 
L 189.283013 291.532822 
L 190.205461 292.82781 
L 191.127908 294.528088 
L 192.050356 296.467896 
L 192.972803 298.476669 
L 193.89525 300.403952 
L 194.817698 302.136679 
L 195.740145 303.606663 
L 196.662593 304.788889 
L 197.58504 305.693171 
L 198.507487 306.352583 
L 199.429935 306.811833 
L 200.352382 307.117746 
L 201.274829 307.312863 
L 202.197277 307.432137 
L 203.119724 307.50207 
L 204.042172 307.541422 
L 204.964619 307.562684 
" style="fill:none;stroke:#988ed5;stroke-linecap:square;stroke-width:0.3;"/>
   </g>
   <g id="line2d_28">
    <path clip-path="url(#pc9e42c213e)" d="M 73.832727 307.491336 
L 77.112066 307.419703 
L 80.391405 307.301795 
L 83.670744 307.114321 
L 86.950083 306.826394 
L 90.229421 306.399294 
L 93.50876 305.787453 
L 96.788099 304.941081 
L 100.067438 303.810662 
L 103.346777 302.353199 
L 106.626116 300.53963 
L 109.905455 298.362387 
L 113.184793 295.841775 
L 116.464132 293.029783 
L 119.743471 290.010258 
L 123.02281 286.894977 
L 126.302149 283.815893 
L 129.581488 280.91459 
L 132.860826 278.33042 
L 136.140165 276.18894 
L 139.419504 274.591996 
L 142.698843 273.610363 
L 145.978182 273.279359 
L 149.257521 273.597433 
L 152.53686 274.527597 
L 155.816198 276.00142 
L 159.095537 277.925291 
L 162.374876 280.188472 
L 165.654215 282.672249 
L 168.933554 285.259209 
L 172.212893 287.841564 
L 175.492231 290.327527 
L 178.77157 292.645113 
L 182.050909 294.743259 
L 185.330248 296.590695 
L 188.609587 298.173353 
L 191.888926 299.491227 
L 195.168264 300.555405 
L 198.447603 301.385671 
L 201.726942 302.00867 
L 205.006281 302.45638 
L 208.28562 302.764499 
L 211.564959 302.970485 
L 214.844298 303.111168 
L 218.123636 303.220124 
L 221.402975 303.325175 
L 224.682314 303.446453 
L 227.961653 303.59539 
L 231.240992 303.774822 
L 234.520331 303.98016 
L 237.799669 304.201376 
L 241.079008 304.425382 
L 244.358347 304.638328 
L 247.637686 304.827406 
L 250.917025 304.981842 
L 254.196364 305.093004 
L 257.475702 305.153767 
L 260.755041 305.157453 
L 264.03438 305.096866 
L 267.313719 304.963908 
L 270.593058 304.750192 
L 273.872397 304.448794 
L 277.151736 304.056972 
L 280.431074 303.57928 
L 283.710413 303.030289 
L 286.989752 302.435994 
L 290.269091 301.833181 
L 293.54843 301.266435 
L 296.827769 300.783019 
L 300.107107 300.426449 
L 303.386446 300.230008 
L 306.665785 300.211573 
L 309.945124 300.370916 
L 313.224463 300.690078 
L 316.503802 301.136763 
L 319.78314 301.669965 
L 323.062479 302.246592 
L 326.341818 302.827696 
L 329.621157 303.383115 
L 332.900496 303.893811 
L 336.179835 304.351782 
L 339.459174 304.757995 
L 342.738512 305.119135 
L 346.017851 305.444125 
L 349.29719 305.741197 
L 352.576529 306.01604 
L 355.855868 306.271149 
L 359.135207 306.506216 
L 362.414545 306.719165 
L 365.693884 306.907409 
L 368.973223 307.06894 
L 372.252562 307.203042 
L 375.531901 307.310537 
L 378.81124 307.393646 
L 382.090579 307.455589 
L 385.369917 307.500088 
L 388.649256 307.530901 
L 391.928595 307.55147 
L 395.207934 307.564709 
L 398.487273 307.572928 
" style="fill:none;stroke:#777777;stroke-linecap:square;stroke-width:0.3;"/>
   </g>
   <g id="line2d_29">
    <path clip-path="url(#pc9e42c213e)" d="M 104.395931 307.456736 
L 106.265052 307.153419 
L 108.134173 306.314281 
L 110.003294 304.312858 
L 111.872415 300.199352 
L 113.741536 292.919289 
L 115.610656 281.836645 
L 117.479777 267.347357 
L 119.348898 251.123476 
L 121.218019 235.660863 
L 123.08714 223.33572 
L 124.956261 215.592107 
L 126.825382 212.693007 
L 128.694503 213.914236 
L 130.563623 217.849514 
L 132.432744 222.787438 
L 134.301865 227.308557 
L 136.170986 230.928253 
L 138.040107 234.258078 
L 139.909228 238.43465 
L 141.778349 244.262777 
L 143.647469 251.777139 
L 145.51659 260.429366 
L 147.385711 269.502493 
L 149.254832 278.325603 
L 151.123953 286.271798 
L 152.993074 292.77368 
L 154.862195 297.461849 
L 156.731315 300.313142 
L 158.600436 301.667483 
L 160.469557 302.095374 
L 162.338678 302.19517 
L 164.207799 302.410042 
L 166.07692 302.929282 
L 167.946041 303.705789 
L 169.815162 304.568386 
L 171.684282 305.35332 
L 173.553403 305.97767 
L 175.422524 306.435775 
L 177.291645 306.757841 
L 179.160766 306.976793 
L 181.029887 307.118412 
L 182.899008 307.203764 
L 184.768128 307.250268 
L 186.637249 307.267881 
L 188.50637 307.255054 
L 190.375491 307.20016 
L 192.244612 307.089884 
L 194.113733 306.920507 
L 195.982854 306.705701 
L 197.851974 306.476613 
L 199.721095 306.273698 
L 201.590216 306.131751 
L 203.459337 306.062047 
L 205.328458 306.040988 
L 207.197579 306.017606 
L 209.0667 305.943392 
L 210.935821 305.809039 
L 212.804941 305.660774 
L 214.674062 305.579501 
L 216.543183 305.633669 
L 218.412304 305.837834 
L 220.281425 306.14422 
L 222.150546 306.469747 
L 224.019667 306.737584 
L 225.888787 306.90606 
L 227.757908 306.96912 
L 229.627029 306.933213 
L 231.49615 306.793578 
L 233.365271 306.53451 
L 235.234392 306.157322 
L 237.103513 305.710254 
L 238.972634 305.286347 
L 240.841754 304.983254 
L 242.710875 304.857809 
L 244.579996 304.913156 
L 246.449117 305.120023 
L 248.318238 305.441011 
L 250.187359 305.835728 
L 252.05648 306.255977 
L 253.9256 306.650046 
L 255.794721 306.977372 
L 257.663842 307.219622 
L 259.532963 307.379219 
L 261.402084 307.469214 
L 263.271205 307.503179 
L 265.140326 307.490556 
L 267.009446 307.43867 
L 268.878567 307.359312 
L 270.747688 307.274188 
L 272.616809 307.212338 
L 274.48593 307.198098 
L 276.355051 307.237596 
L 278.224172 307.315278 
L 280.093293 307.403891 
L 281.962413 307.479725 
L 283.831534 307.531865 
L 285.700655 307.561495 
L 287.569776 307.575615 
L 289.438897 307.581304 
" style="fill:none;stroke:#fbc15e;stroke-linecap:square;stroke-width:0.3;"/>
   </g>
   <g id="line2d_30">
    <path clip-path="url(#pc9e42c213e)" d="M 110.552554 307.242551 
L 111.269505 306.780351 
L 111.986457 305.811501 
L 112.703408 303.916704 
L 113.42036 300.457894 
L 114.137311 294.562756 
L 114.854263 285.179818 
L 115.571214 271.235183 
L 116.288165 251.89647 
L 117.005117 226.906033 
L 117.722068 196.897976 
L 118.43902 163.583772 
L 119.155971 129.700177 
L 119.872923 98.668364 
L 120.589874 74.003241 
L 121.306826 58.607121 
L 122.023777 54.144 
L 122.740728 60.687888 
L 123.45768 76.761442 
L 124.174631 99.752312 
L 124.891583 126.564783 
L 125.608534 154.290588 
L 126.325486 180.698424 
L 127.042437 204.435262 
L 127.759389 224.953852 
L 128.47634 242.271065 
L 129.193291 256.687412 
L 129.910243 268.565381 
L 130.627194 278.205982 
L 131.344146 285.813624 
L 132.061097 291.51645 
L 132.778049 295.410254 
L 133.495 297.606254 
L 134.211952 298.273603 
L 134.928903 297.67059 
L 135.645854 296.155829 
L 136.362806 294.169048 
L 137.079757 292.176871 
L 137.796709 290.592936 
L 138.51366 289.697162 
L 139.230612 289.585558 
L 139.947563 290.172739 
L 140.664515 291.247051 
L 141.381466 292.554555 
L 142.098418 293.87662 
L 142.815369 295.072811 
L 143.53232 296.081334 
L 144.249272 296.890607 
L 144.966223 297.50572 
L 145.683175 297.928594 
L 146.400126 298.156526 
L 147.117078 298.190744 
L 147.834029 298.042363 
L 148.550981 297.728275 
L 149.267932 297.258714 
L 149.984883 296.62507 
L 150.701835 295.797415 
L 151.418786 294.736807 
L 152.135738 293.420601 
L 152.852689 291.872697 
L 153.569641 290.187048 
L 154.286592 288.533221 
L 155.003544 287.137708 
L 155.720495 286.2429 
L 156.437446 286.05399 
L 157.154398 286.689152 
L 157.871349 288.147826 
L 158.588301 290.306522 
L 159.305252 292.943282 
L 160.022204 295.783832 
L 160.739155 298.556459 
L 161.456107 301.040738 
L 162.173058 303.097913 
L 162.890009 304.677412 
L 163.606961 305.801968 
L 164.323912 306.539866 
L 165.040864 306.974764 
L 165.757815 307.181499 
L 166.474767 307.21232 
L 167.191718 307.09432 
L 167.90867 306.836518 
L 168.625621 306.4437 
L 169.342573 305.932803 
L 170.059524 305.346196 
L 170.776475 304.755745 
L 171.493427 304.253662 
L 172.210378 303.93119 
L 172.92733 303.852306 
L 173.644281 304.033289 
L 174.361233 304.437338 
L 175.078184 304.986792 
L 175.795136 305.587442 
L 176.512087 306.154538 
L 177.229038 306.630819 
L 177.94599 306.992048 
L 178.662941 307.241625 
L 179.379893 307.399576 
L 180.096844 307.491482 
L 180.813796 307.540776 
L 181.530747 307.565193 
" style="fill:none;stroke:#8eba42;stroke-linecap:square;stroke-width:0.3;"/>
   </g>
   <g id="line2d_31">
    <path clip-path="url(#pc9e42c213e)" d="M 111.275561 307.302047 
L 111.746026 307.041302 
L 112.216492 306.575818 
L 112.686957 305.776121 
L 113.157422 304.454289 
L 113.627887 302.352778 
L 114.098352 299.140325 
L 114.568817 294.42078 
L 115.039282 287.760643 
L 115.509747 278.738995 
L 115.980212 267.01902 
L 116.450677 252.433817 
L 116.921142 235.072045 
L 117.391607 215.343474 
L 117.862072 194.003271 
L 118.332537 172.118626 
L 118.803002 150.97245 
L 119.273467 131.913924 
L 119.743932 116.180771 
L 120.214398 104.728154 
L 120.684863 98.100313 
L 121.155328 96.372236 
L 121.625793 99.171995 
L 122.096258 105.774898 
L 122.566723 115.244215 
L 123.037188 126.584756 
L 123.507653 138.876909 
L 123.978118 151.368432 
L 124.448583 163.515407 
L 124.919048 174.977486 
L 125.389513 185.582008 
L 125.859978 195.274872 
L 126.330443 204.073771 
L 126.800908 212.033432 
L 127.271373 219.225713 
L 127.741839 225.731936 
L 128.212304 231.641923 
L 128.682769 237.054106 
L 129.153234 242.072831 
L 129.623699 246.801632 
L 130.094164 251.333597 
L 130.564629 255.741276 
L 131.035094 260.068675 
L 131.505559 264.327001 
L 131.976024 268.494461 
L 132.446489 272.519262 
L 132.916954 276.324431 
L 133.387419 279.813304 
L 133.857884 282.87535 
L 134.328349 285.392863 
L 134.798814 287.249546 
L 135.269279 288.341766 
L 135.739745 288.592321 
L 136.21021 287.965221 
L 136.680675 286.478872 
L 137.15114 284.214457 
L 137.621605 281.316782 
L 138.09207 277.986062 
L 138.562535 274.460917 
L 139.033 270.994674 
L 139.503465 267.828327 
L 139.97393 265.16413 
L 140.444395 263.143553 
L 140.91486 261.832641 
L 141.385325 261.216744 
L 141.85579 261.205554 
L 142.326255 261.64817 
L 142.79672 262.356682 
L 143.267185 263.135338 
L 143.737651 263.811107 
L 144.208116 264.260685 
L 144.678581 264.429173 
L 145.149046 264.337043 
L 145.619511 264.074343 
L 146.089976 263.783723 
L 146.560441 263.636114 
L 147.030906 263.803897 
L 147.501371 264.436254 
L 147.971836 265.640038 
L 148.442301 267.467911 
L 148.912766 269.913932 
L 149.383231 272.915939 
L 149.853696 276.363606 
L 150.324161 280.110992 
L 150.794626 283.992215 
L 151.265091 287.838628 
L 151.735557 291.495485 
L 152.206022 294.83598 
L 152.676487 297.770782 
L 153.146952 300.251955 
L 153.617417 302.271187 
L 154.087882 303.853327 
L 154.558347 305.046968 
L 155.028812 305.914117 
L 155.499277 306.520733 
L 155.969742 306.92937 
L 156.440207 307.194442 
L 156.910672 307.360018 
L 157.381137 307.45961 
L 157.851602 307.517294 
" style="fill:none;stroke:#ffb5b8;stroke-linecap:square;stroke-width:0.3;"/>
   </g>
   <g id="line2d_32">
    <path clip-path="url(#pc9e42c213e)" d="M 112.513002 307.284847 
L 112.985103 306.952912 
L 113.457204 306.316116 
L 113.929305 305.157085 
L 114.401406 303.155705 
L 114.873508 299.877109 
L 115.345609 294.782131 
L 115.81771 287.272091 
L 116.289811 276.774258 
L 116.761912 262.863036 
L 117.234013 245.397166 
L 117.706114 224.640173 
L 118.178216 201.326204 
L 118.650317 176.640703 
L 119.122418 152.104679 
L 119.594519 129.377046 
L 120.06662 110.012817 
L 120.538721 95.227798 
L 121.010822 85.719267 
L 121.482924 81.57851 
L 121.955025 82.310408 
L 122.427126 86.953214 
L 122.899227 94.272548 
L 123.371328 102.990011 
L 123.843429 112.000416 
L 124.31553 120.534222 
L 124.787632 128.234234 
L 125.259733 135.136488 
L 125.731834 141.569386 
L 126.203935 148.005392 
L 126.676036 154.908838 
L 127.148137 162.618768 
L 127.620239 171.289537 
L 128.09234 180.89089 
L 128.564441 191.25138 
L 129.036542 202.120048 
L 129.508643 213.222661 
L 129.980744 224.297931 
L 130.452845 235.110937 
L 130.924947 245.4505 
L 131.397048 255.121342 
L 131.869149 263.940258 
L 132.34125 271.740364 
L 132.813351 278.381997 
L 133.285452 283.765831 
L 133.757553 287.843817 
L 134.229655 290.625793 
L 134.701756 292.181753 
L 135.173857 292.640521 
L 135.645958 292.18473 
L 136.118059 291.040844 
L 136.59016 289.462877 
L 137.062262 287.710094 
L 137.534363 286.021665 
L 138.006464 284.593573 
L 138.478565 283.563464 
L 138.950666 283.007156 
L 139.422767 282.94674 
L 139.894868 283.36624 
L 140.36697 284.228514 
L 140.839071 285.487352 
L 141.311172 287.091665 
L 141.783273 288.98256 
L 142.255374 291.087339 
L 142.727475 293.315331 
L 143.199576 295.558917 
L 143.671678 297.700032 
L 144.143779 299.619661 
L 144.61588 301.206755 
L 145.087981 302.36397 
L 145.560082 303.009982 
L 146.032183 303.080401 
L 146.504285 302.530303 
L 146.976386 301.340441 
L 147.448487 299.526931 
L 147.920588 297.151615 
L 148.392689 294.328912 
L 148.86479 291.225456 
L 149.336891 288.05101 
L 149.808993 285.041871 
L 150.281094 282.439703 
L 150.753195 280.468807 
L 151.225296 279.313715 
L 151.697397 279.098072 
L 152.169498 279.866291 
L 152.641599 281.571285 
L 153.113701 284.07309 
L 153.585802 287.152568 
L 154.057903 290.540736 
L 154.530004 293.958872 
L 155.002105 297.160123 
L 155.474206 299.962186 
L 155.946308 302.263601 
L 156.418409 304.041761 
L 156.89051 305.336405 
L 157.362611 306.225738 
L 157.834712 306.802656 
L 158.306813 307.156334 
L 158.778914 307.361353 
L 159.251016 307.473783 
" style="fill:none;stroke:#e24a33;stroke-linecap:square;stroke-width:0.3;"/>
   </g>
   <g id="patch_3">
    <path d="M 57.6 307.584 
L 57.6 41.472 
" style="fill:none;stroke:#ffffff;stroke-linecap:square;stroke-linejoin:miter;"/>
   </g>
   <g id="patch_4">
    <path d="M 414.72 307.584 
L 414.72 41.472 
" style="fill:none;stroke:#ffffff;stroke-linecap:square;stroke-linejoin:miter;"/>
   </g>
   <g id="patch_5">
    <path d="M 57.6 307.584 
L 414.72 307.584 
" style="fill:none;stroke:#ffffff;stroke-linecap:square;stroke-linejoin:miter;"/>
   </g>
   <g id="patch_6">
    <path d="M 57.6 41.472 
L 414.72 41.472 
" style="fill:none;stroke:#ffffff;stroke-linecap:square;stroke-linejoin:miter;"/>
   </g>
   <g id="text_15">
    <!-- kernel density estimation(Gaussian):b2990;b2991;b2992;b2993;b2994;b2995;b2996;b2997 -->
    <defs>
     <path d="M 9.078125 75.984375 
L 18.109375 75.984375 
L 18.109375 31.109375 
L 44.921875 54.6875 
L 56.390625 54.6875 
L 27.390625 29.109375 
L 57.625 0 
L 45.90625 0 
L 18.109375 26.703125 
L 18.109375 0 
L 9.078125 0 
z
" id="DejaVuSans-6b"/>
     <path d="M 56.203125 29.59375 
L 56.203125 25.203125 
L 14.890625 25.203125 
Q 15.484375 15.921875 20.484375 11.0625 
Q 25.484375 6.203125 34.421875 6.203125 
Q 39.59375 6.203125 44.453125 7.46875 
Q 49.3125 8.734375 54.109375 11.28125 
L 54.109375 2.78125 
Q 49.265625 0.734375 44.1875 -0.34375 
Q 39.109375 -1.421875 33.890625 -1.421875 
Q 20.796875 -1.421875 13.15625 6.1875 
Q 5.515625 13.8125 5.515625 26.8125 
Q 5.515625 40.234375 12.765625 48.109375 
Q 20.015625 56 32.328125 56 
Q 43.359375 56 49.78125 48.890625 
Q 56.203125 41.796875 56.203125 29.59375 
z
M 47.21875 32.234375 
Q 47.125 39.59375 43.09375 43.984375 
Q 39.0625 48.390625 32.421875 48.390625 
Q 24.90625 48.390625 20.390625 44.140625 
Q 15.875 39.890625 15.1875 32.171875 
z
" id="DejaVuSans-65"/>
     <path d="M 41.109375 46.296875 
Q 39.59375 47.171875 37.8125 47.578125 
Q 36.03125 48 33.890625 48 
Q 26.265625 48 22.1875 43.046875 
Q 18.109375 38.09375 18.109375 28.8125 
L 18.109375 0 
L 9.078125 0 
L 9.078125 54.6875 
L 18.109375 54.6875 
L 18.109375 46.1875 
Q 20.953125 51.171875 25.484375 53.578125 
Q 30.03125 56 36.53125 56 
Q 37.453125 56 38.578125 55.875 
Q 39.703125 55.765625 41.0625 55.515625 
z
" id="DejaVuSans-72"/>
     <path d="M 9.421875 75.984375 
L 18.40625 75.984375 
L 18.40625 0 
L 9.421875 0 
z
" id="DejaVuSans-6c"/>
     <path id="DejaVuSans-20"/>
     <path d="M 45.40625 46.390625 
L 45.40625 75.984375 
L 54.390625 75.984375 
L 54.390625 0 
L 45.40625 0 
L 45.40625 8.203125 
Q 42.578125 3.328125 38.25 0.953125 
Q 33.9375 -1.421875 27.875 -1.421875 
Q 17.96875 -1.421875 11.734375 6.484375 
Q 5.515625 14.40625 5.515625 27.296875 
Q 5.515625 40.1875 11.734375 48.09375 
Q 17.96875 56 27.875 56 
Q 33.9375 56 38.25 53.625 
Q 42.578125 51.265625 45.40625 46.390625 
z
M 14.796875 27.296875 
Q 14.796875 17.390625 18.875 11.75 
Q 22.953125 6.109375 30.078125 6.109375 
Q 37.203125 6.109375 41.296875 11.75 
Q 45.40625 17.390625 45.40625 27.296875 
Q 45.40625 37.203125 41.296875 42.84375 
Q 37.203125 48.484375 30.078125 48.484375 
Q 22.953125 48.484375 18.875 42.84375 
Q 14.796875 37.203125 14.796875 27.296875 
z
" id="DejaVuSans-64"/>
     <path d="M 44.28125 53.078125 
L 44.28125 44.578125 
Q 40.484375 46.53125 36.375 47.5 
Q 32.28125 48.484375 27.875 48.484375 
Q 21.1875 48.484375 17.84375 46.4375 
Q 14.5 44.390625 14.5 40.28125 
Q 14.5 37.15625 16.890625 35.375 
Q 19.28125 33.59375 26.515625 31.984375 
L 29.59375 31.296875 
Q 39.15625 29.25 43.1875 25.515625 
Q 47.21875 21.78125 47.21875 15.09375 
Q 47.21875 7.46875 41.1875 3.015625 
Q 35.15625 -1.421875 24.609375 -1.421875 
Q 20.21875 -1.421875 15.453125 -0.5625 
Q 10.6875 0.296875 5.421875 2 
L 5.421875 11.28125 
Q 10.40625 8.6875 15.234375 7.390625 
Q 20.0625 6.109375 24.8125 6.109375 
Q 31.15625 6.109375 34.5625 8.28125 
Q 37.984375 10.453125 37.984375 14.40625 
Q 37.984375 18.0625 35.515625 20.015625 
Q 33.0625 21.96875 24.703125 23.78125 
L 21.578125 24.515625 
Q 13.234375 26.265625 9.515625 29.90625 
Q 5.8125 33.546875 5.8125 39.890625 
Q 5.8125 47.609375 11.28125 51.796875 
Q 16.75 56 26.8125 56 
Q 31.78125 56 36.171875 55.265625 
Q 40.578125 54.546875 44.28125 53.078125 
z
" id="DejaVuSans-73"/>
     <path d="M 9.421875 54.6875 
L 18.40625 54.6875 
L 18.40625 0 
L 9.421875 0 
z
M 9.421875 75.984375 
L 18.40625 75.984375 
L 18.40625 64.59375 
L 9.421875 64.59375 
z
" id="DejaVuSans-69"/>
     <path d="M 32.171875 -5.078125 
Q 28.375 -14.84375 24.75 -17.8125 
Q 21.140625 -20.796875 15.09375 -20.796875 
L 7.90625 -20.796875 
L 7.90625 -13.28125 
L 13.1875 -13.28125 
Q 16.890625 -13.28125 18.9375 -11.515625 
Q 21 -9.765625 23.484375 -3.21875 
L 25.09375 0.875 
L 2.984375 54.6875 
L 12.5 54.6875 
L 29.59375 11.921875 
L 46.6875 54.6875 
L 56.203125 54.6875 
z
" id="DejaVuSans-79"/>
     <path d="M 52 44.1875 
Q 55.375 50.25 60.0625 53.125 
Q 64.75 56 71.09375 56 
Q 79.640625 56 84.28125 50.015625 
Q 88.921875 44.046875 88.921875 33.015625 
L 88.921875 0 
L 79.890625 0 
L 79.890625 32.71875 
Q 79.890625 40.578125 77.09375 44.375 
Q 74.3125 48.1875 68.609375 48.1875 
Q 61.625 48.1875 57.5625 43.546875 
Q 53.515625 38.921875 53.515625 30.90625 
L 53.515625 0 
L 44.484375 0 
L 44.484375 32.71875 
Q 44.484375 40.625 41.703125 44.40625 
Q 38.921875 48.1875 33.109375 48.1875 
Q 26.21875 48.1875 22.15625 43.53125 
Q 18.109375 38.875 18.109375 30.90625 
L 18.109375 0 
L 9.078125 0 
L 9.078125 54.6875 
L 18.109375 54.6875 
L 18.109375 46.1875 
Q 21.1875 51.21875 25.484375 53.609375 
Q 29.78125 56 35.6875 56 
Q 41.65625 56 45.828125 52.96875 
Q 50 49.953125 52 44.1875 
z
" id="DejaVuSans-6d"/>
     <path d="M 34.28125 27.484375 
Q 23.390625 27.484375 19.1875 25 
Q 14.984375 22.515625 14.984375 16.5 
Q 14.984375 11.71875 18.140625 8.90625 
Q 21.296875 6.109375 26.703125 6.109375 
Q 34.1875 6.109375 38.703125 11.40625 
Q 43.21875 16.703125 43.21875 25.484375 
L 43.21875 27.484375 
z
M 52.203125 31.203125 
L 52.203125 0 
L 43.21875 0 
L 43.21875 8.296875 
Q 40.140625 3.328125 35.546875 0.953125 
Q 30.953125 -1.421875 24.3125 -1.421875 
Q 15.921875 -1.421875 10.953125 3.296875 
Q 6 8.015625 6 15.921875 
Q 6 25.140625 12.171875 29.828125 
Q 18.359375 34.515625 30.609375 34.515625 
L 43.21875 34.515625 
L 43.21875 35.40625 
Q 43.21875 41.609375 39.140625 45 
Q 35.0625 48.390625 27.6875 48.390625 
Q 23 48.390625 18.546875 47.265625 
Q 14.109375 46.140625 10.015625 43.890625 
L 10.015625 52.203125 
Q 14.9375 54.109375 19.578125 55.046875 
Q 24.21875 56 28.609375 56 
Q 40.484375 56 46.34375 49.84375 
Q 52.203125 43.703125 52.203125 31.203125 
z
" id="DejaVuSans-61"/>
     <path d="M 59.515625 10.40625 
L 59.515625 29.984375 
L 43.40625 29.984375 
L 43.40625 38.09375 
L 69.28125 38.09375 
L 69.28125 6.78125 
Q 63.578125 2.734375 56.6875 0.65625 
Q 49.8125 -1.421875 42 -1.421875 
Q 24.90625 -1.421875 15.25 8.5625 
Q 5.609375 18.5625 5.609375 36.375 
Q 5.609375 54.25 15.25 64.234375 
Q 24.90625 74.21875 42 74.21875 
Q 49.125 74.21875 55.546875 72.453125 
Q 61.96875 70.703125 67.390625 67.28125 
L 67.390625 56.78125 
Q 61.921875 61.421875 55.765625 63.765625 
Q 49.609375 66.109375 42.828125 66.109375 
Q 29.4375 66.109375 22.71875 58.640625 
Q 16.015625 51.171875 16.015625 36.375 
Q 16.015625 21.625 22.71875 14.15625 
Q 29.4375 6.6875 42.828125 6.6875 
Q 48.046875 6.6875 52.140625 7.59375 
Q 56.25 8.5 59.515625 10.40625 
z
" id="DejaVuSans-47"/>
     <path d="M 11.71875 12.40625 
L 22.015625 12.40625 
L 22.015625 0 
L 11.71875 0 
z
M 11.71875 51.703125 
L 22.015625 51.703125 
L 22.015625 39.3125 
L 11.71875 39.3125 
z
" id="DejaVuSans-3a"/>
     <path d="M 48.6875 27.296875 
Q 48.6875 37.203125 44.609375 42.84375 
Q 40.53125 48.484375 33.40625 48.484375 
Q 26.265625 48.484375 22.1875 42.84375 
Q 18.109375 37.203125 18.109375 27.296875 
Q 18.109375 17.390625 22.1875 11.75 
Q 26.265625 6.109375 33.40625 6.109375 
Q 40.53125 6.109375 44.609375 11.75 
Q 48.6875 17.390625 48.6875 27.296875 
z
M 18.109375 46.390625 
Q 20.953125 51.265625 25.265625 53.625 
Q 29.59375 56 35.59375 56 
Q 45.5625 56 51.78125 48.09375 
Q 58.015625 40.1875 58.015625 27.296875 
Q 58.015625 14.40625 51.78125 6.484375 
Q 45.5625 -1.421875 35.59375 -1.421875 
Q 29.59375 -1.421875 25.265625 0.953125 
Q 20.953125 3.328125 18.109375 8.203125 
L 18.109375 0 
L 9.078125 0 
L 9.078125 75.984375 
L 18.109375 75.984375 
z
" id="DejaVuSans-62"/>
     <path d="M 10.984375 1.515625 
L 10.984375 10.5 
Q 14.703125 8.734375 18.5 7.8125 
Q 22.3125 6.890625 25.984375 6.890625 
Q 35.75 6.890625 40.890625 13.453125 
Q 46.046875 20.015625 46.78125 33.40625 
Q 43.953125 29.203125 39.59375 26.953125 
Q 35.25 24.703125 29.984375 24.703125 
Q 19.046875 24.703125 12.671875 31.3125 
Q 6.296875 37.9375 6.296875 49.421875 
Q 6.296875 60.640625 12.9375 67.421875 
Q 19.578125 74.21875 30.609375 74.21875 
Q 43.265625 74.21875 49.921875 64.515625 
Q 56.59375 54.828125 56.59375 36.375 
Q 56.59375 19.140625 48.40625 8.859375 
Q 40.234375 -1.421875 26.421875 -1.421875 
Q 22.703125 -1.421875 18.890625 -0.6875 
Q 15.09375 0.046875 10.984375 1.515625 
z
M 30.609375 32.421875 
Q 37.25 32.421875 41.125 36.953125 
Q 45.015625 41.5 45.015625 49.421875 
Q 45.015625 57.28125 41.125 61.84375 
Q 37.25 66.40625 30.609375 66.40625 
Q 23.96875 66.40625 20.09375 61.84375 
Q 16.21875 57.28125 16.21875 49.421875 
Q 16.21875 41.5 20.09375 36.953125 
Q 23.96875 32.421875 30.609375 32.421875 
z
" id="DejaVuSans-39"/>
     <path d="M 11.71875 51.703125 
L 22.015625 51.703125 
L 22.015625 39.3125 
L 11.71875 39.3125 
z
M 11.71875 12.40625 
L 22.015625 12.40625 
L 22.015625 4 
L 14.015625 -11.625 
L 7.71875 -11.625 
L 11.71875 4 
z
" id="DejaVuSans-3b"/>
     <path d="M 40.578125 39.3125 
Q 47.65625 37.796875 51.625 33 
Q 55.609375 28.21875 55.609375 21.1875 
Q 55.609375 10.40625 48.1875 4.484375 
Q 40.765625 -1.421875 27.09375 -1.421875 
Q 22.515625 -1.421875 17.65625 -0.515625 
Q 12.796875 0.390625 7.625 2.203125 
L 7.625 11.71875 
Q 11.71875 9.328125 16.59375 8.109375 
Q 21.484375 6.890625 26.8125 6.890625 
Q 36.078125 6.890625 40.9375 10.546875 
Q 45.796875 14.203125 45.796875 21.1875 
Q 45.796875 27.640625 41.28125 31.265625 
Q 36.765625 34.90625 28.71875 34.90625 
L 20.21875 34.90625 
L 20.21875 43.015625 
L 29.109375 43.015625 
Q 36.375 43.015625 40.234375 45.921875 
Q 44.09375 48.828125 44.09375 54.296875 
Q 44.09375 59.90625 40.109375 62.90625 
Q 36.140625 65.921875 28.71875 65.921875 
Q 24.65625 65.921875 20.015625 65.03125 
Q 15.375 64.15625 9.8125 62.3125 
L 9.8125 71.09375 
Q 15.4375 72.65625 20.34375 73.4375 
Q 25.25 74.21875 29.59375 74.21875 
Q 40.828125 74.21875 47.359375 69.109375 
Q 53.90625 64.015625 53.90625 55.328125 
Q 53.90625 49.265625 50.4375 45.09375 
Q 46.96875 40.921875 40.578125 39.3125 
z
" id="DejaVuSans-33"/>
     <path d="M 8.203125 72.90625 
L 55.078125 72.90625 
L 55.078125 68.703125 
L 28.609375 0 
L 18.3125 0 
L 43.21875 64.59375 
L 8.203125 64.59375 
z
" id="DejaVuSans-37"/>
    </defs>
    <g transform="translate(-96.79725 35.472)scale(0.144 -0.144)">
     <use xlink:href="#DejaVuSans-6b"/>
     <use x="57.863281" xlink:href="#DejaVuSans-65"/>
     <use x="119.386719" xlink:href="#DejaVuSans-72"/>
     <use x="160.484375" xlink:href="#DejaVuSans-6e"/>
     <use x="223.863281" xlink:href="#DejaVuSans-65"/>
     <use x="285.386719" xlink:href="#DejaVuSans-6c"/>
     <use x="313.169922" xlink:href="#DejaVuSans-20"/>
     <use x="344.957031" xlink:href="#DejaVuSans-64"/>
     <use x="408.433594" xlink:href="#DejaVuSans-65"/>
     <use x="469.957031" xlink:href="#DejaVuSans-6e"/>
     <use x="533.335938" xlink:href="#DejaVuSans-73"/>
     <use x="585.435547" xlink:href="#DejaVuSans-69"/>
     <use x="613.21875" xlink:href="#DejaVuSans-74"/>
     <use x="652.427734" xlink:href="#DejaVuSans-79"/>
     <use x="711.607422" xlink:href="#DejaVuSans-20"/>
     <use x="743.394531" xlink:href="#DejaVuSans-65"/>
     <use x="804.917969" xlink:href="#DejaVuSans-73"/>
     <use x="857.017578" xlink:href="#DejaVuSans-74"/>
     <use x="896.226562" xlink:href="#DejaVuSans-69"/>
     <use x="924.009766" xlink:href="#DejaVuSans-6d"/>
     <use x="1021.421875" xlink:href="#DejaVuSans-61"/>
     <use x="1082.701172" xlink:href="#DejaVuSans-74"/>
     <use x="1121.910156" xlink:href="#DejaVuSans-69"/>
     <use x="1149.693359" xlink:href="#DejaVuSans-6f"/>
     <use x="1210.875" xlink:href="#DejaVuSans-6e"/>
     <use x="1274.253906" xlink:href="#DejaVuSans-28"/>
     <use x="1313.267578" xlink:href="#DejaVuSans-47"/>
     <use x="1390.757812" xlink:href="#DejaVuSans-61"/>
     <use x="1452.037109" xlink:href="#DejaVuSans-75"/>
     <use x="1515.416016" xlink:href="#DejaVuSans-73"/>
     <use x="1567.515625" xlink:href="#DejaVuSans-73"/>
     <use x="1619.615234" xlink:href="#DejaVuSans-69"/>
     <use x="1647.398438" xlink:href="#DejaVuSans-61"/>
     <use x="1708.677734" xlink:href="#DejaVuSans-6e"/>
     <use x="1772.056641" xlink:href="#DejaVuSans-29"/>
     <use x="1811.070312" xlink:href="#DejaVuSans-3a"/>
     <use x="1844.761719" xlink:href="#DejaVuSans-62"/>
     <use x="1908.238281" xlink:href="#DejaVuSans-32"/>
     <use x="1971.861328" xlink:href="#DejaVuSans-39"/>
     <use x="2035.484375" xlink:href="#DejaVuSans-39"/>
     <use x="2099.107422" xlink:href="#DejaVuSans-30"/>
     <use x="2162.730469" xlink:href="#DejaVuSans-3b"/>
     <use x="2196.421875" xlink:href="#DejaVuSans-62"/>
     <use x="2259.898438" xlink:href="#DejaVuSans-32"/>
     <use x="2323.521484" xlink:href="#DejaVuSans-39"/>
     <use x="2387.144531" xlink:href="#DejaVuSans-39"/>
     <use x="2450.767578" xlink:href="#DejaVuSans-31"/>
     <use x="2514.390625" xlink:href="#DejaVuSans-3b"/>
     <use x="2548.082031" xlink:href="#DejaVuSans-62"/>
     <use x="2611.558594" xlink:href="#DejaVuSans-32"/>
     <use x="2675.181641" xlink:href="#DejaVuSans-39"/>
     <use x="2738.804688" xlink:href="#DejaVuSans-39"/>
     <use x="2802.427734" xlink:href="#DejaVuSans-32"/>
     <use x="2866.050781" xlink:href="#DejaVuSans-3b"/>
     <use x="2899.742188" xlink:href="#DejaVuSans-62"/>
     <use x="2963.21875" xlink:href="#DejaVuSans-32"/>
     <use x="3026.841797" xlink:href="#DejaVuSans-39"/>
     <use x="3090.464844" xlink:href="#DejaVuSans-39"/>
     <use x="3154.087891" xlink:href="#DejaVuSans-33"/>
     <use x="3217.710938" xlink:href="#DejaVuSans-3b"/>
     <use x="3251.402344" xlink:href="#DejaVuSans-62"/>
     <use x="3314.878906" xlink:href="#DejaVuSans-32"/>
     <use x="3378.501953" xlink:href="#DejaVuSans-39"/>
     <use x="3442.125" xlink:href="#DejaVuSans-39"/>
     <use x="3505.748047" xlink:href="#DejaVuSans-34"/>
     <use x="3569.371094" xlink:href="#DejaVuSans-3b"/>
     <use x="3603.0625" xlink:href="#DejaVuSans-62"/>
     <use x="3666.539062" xlink:href="#DejaVuSans-32"/>
     <use x="3730.162109" xlink:href="#DejaVuSans-39"/>
     <use x="3793.785156" xlink:href="#DejaVuSans-39"/>
     <use x="3857.408203" xlink:href="#DejaVuSans-35"/>
     <use x="3921.03125" xlink:href="#DejaVuSans-3b"/>
     <use x="3954.722656" xlink:href="#DejaVuSans-62"/>
     <use x="4018.199219" xlink:href="#DejaVuSans-32"/>
     <use x="4081.822266" xlink:href="#DejaVuSans-39"/>
     <use x="4145.445312" xlink:href="#DejaVuSans-39"/>
     <use x="4209.068359" xlink:href="#DejaVuSans-36"/>
     <use x="4272.691406" xlink:href="#DejaVuSans-3b"/>
     <use x="4306.382812" xlink:href="#DejaVuSans-62"/>
     <use x="4369.859375" xlink:href="#DejaVuSans-32"/>
     <use x="4433.482422" xlink:href="#DejaVuSans-39"/>
     <use x="4497.105469" xlink:href="#DejaVuSans-39"/>
     <use x="4560.728516" xlink:href="#DejaVuSans-37"/>
    </g>
   </g>
   <g id="legend_1">
    <g id="patch_7">
     <path d="M 343.921563 166.897 
L 407.72 166.897 
Q 409.72 166.897 409.72 164.897 
L 409.72 48.472 
Q 409.72 46.472 407.72 46.472 
L 343.921563 46.472 
Q 341.921563 46.472 341.921563 48.472 
L 341.921563 164.897 
Q 341.921563 166.897 343.921563 166.897 
z
" style="fill:#e5e5e5;opacity:0.8;stroke:#cccccc;stroke-linejoin:miter;stroke-width:0.5;"/>
    </g>
    <g id="line2d_33">
     <path d="M 345.921563 54.570438 
L 365.921563 54.570438 
" style="fill:none;stroke:#e24a33;stroke-linecap:square;stroke-width:0.3;"/>
    </g>
    <g id="line2d_34"/>
    <g id="text_16">
     <!-- b2990 -->
     <g transform="translate(373.921563 58.070438)scale(0.1 -0.1)">
      <use xlink:href="#DejaVuSans-62"/>
      <use x="63.476562" xlink:href="#DejaVuSans-32"/>
      <use x="127.099609" xlink:href="#DejaVuSans-39"/>
      <use x="190.722656" xlink:href="#DejaVuSans-39"/>
      <use x="254.345703" xlink:href="#DejaVuSans-30"/>
     </g>
    </g>
    <g id="line2d_35">
     <path d="M 345.921563 69.248563 
L 365.921563 69.248563 
" style="fill:none;stroke:#348abd;stroke-linecap:square;stroke-width:0.3;"/>
    </g>
    <g id="line2d_36"/>
    <g id="text_17">
     <!-- b2991 -->
     <g transform="translate(373.921563 72.748563)scale(0.1 -0.1)">
      <use xlink:href="#DejaVuSans-62"/>
      <use x="63.476562" xlink:href="#DejaVuSans-32"/>
      <use x="127.099609" xlink:href="#DejaVuSans-39"/>
      <use x="190.722656" xlink:href="#DejaVuSans-39"/>
      <use x="254.345703" xlink:href="#DejaVuSans-31"/>
     </g>
    </g>
    <g id="line2d_37">
     <path d="M 345.921563 83.926688 
L 365.921563 83.926688 
" style="fill:none;stroke:#988ed5;stroke-linecap:square;stroke-width:0.3;"/>
    </g>
    <g id="line2d_38"/>
    <g id="text_18">
     <!-- b2992 -->
     <g transform="translate(373.921563 87.426688)scale(0.1 -0.1)">
      <use xlink:href="#DejaVuSans-62"/>
      <use x="63.476562" xlink:href="#DejaVuSans-32"/>
      <use x="127.099609" xlink:href="#DejaVuSans-39"/>
      <use x="190.722656" xlink:href="#DejaVuSans-39"/>
      <use x="254.345703" xlink:href="#DejaVuSans-32"/>
     </g>
    </g>
    <g id="line2d_39">
     <path d="M 345.921563 98.604813 
L 365.921563 98.604813 
" style="fill:none;stroke:#777777;stroke-linecap:square;stroke-width:0.3;"/>
    </g>
    <g id="line2d_40"/>
    <g id="text_19">
     <!-- b2993 -->
     <g transform="translate(373.921563 102.104813)scale(0.1 -0.1)">
      <use xlink:href="#DejaVuSans-62"/>
      <use x="63.476562" xlink:href="#DejaVuSans-32"/>
      <use x="127.099609" xlink:href="#DejaVuSans-39"/>
      <use x="190.722656" xlink:href="#DejaVuSans-39"/>
      <use x="254.345703" xlink:href="#DejaVuSans-33"/>
     </g>
    </g>
    <g id="line2d_41">
     <path d="M 345.921563 113.282938 
L 365.921563 113.282938 
" style="fill:none;stroke:#fbc15e;stroke-linecap:square;stroke-width:0.3;"/>
    </g>
    <g id="line2d_42"/>
    <g id="text_20">
     <!-- b2994 -->
     <g transform="translate(373.921563 116.782938)scale(0.1 -0.1)">
      <use xlink:href="#DejaVuSans-62"/>
      <use x="63.476562" xlink:href="#DejaVuSans-32"/>
      <use x="127.099609" xlink:href="#DejaVuSans-39"/>
      <use x="190.722656" xlink:href="#DejaVuSans-39"/>
      <use x="254.345703" xlink:href="#DejaVuSans-34"/>
     </g>
    </g>
    <g id="line2d_43">
     <path d="M 345.921563 127.961063 
L 365.921563 127.961063 
" style="fill:none;stroke:#8eba42;stroke-linecap:square;stroke-width:0.3;"/>
    </g>
    <g id="line2d_44"/>
    <g id="text_21">
     <!-- b2995 -->
     <g transform="translate(373.921563 131.461063)scale(0.1 -0.1)">
      <use xlink:href="#DejaVuSans-62"/>
      <use x="63.476562" xlink:href="#DejaVuSans-32"/>
      <use x="127.099609" xlink:href="#DejaVuSans-39"/>
      <use x="190.722656" xlink:href="#DejaVuSans-39"/>
      <use x="254.345703" xlink:href="#DejaVuSans-35"/>
     </g>
    </g>
    <g id="line2d_45">
     <path d="M 345.921563 142.639188 
L 365.921563 142.639188 
" style="fill:none;stroke:#ffb5b8;stroke-linecap:square;stroke-width:0.3;"/>
    </g>
    <g id="line2d_46"/>
    <g id="text_22">
     <!-- b2996 -->
     <g transform="translate(373.921563 146.139188)scale(0.1 -0.1)">
      <use xlink:href="#DejaVuSans-62"/>
      <use x="63.476562" xlink:href="#DejaVuSans-32"/>
      <use x="127.099609" xlink:href="#DejaVuSans-39"/>
      <use x="190.722656" xlink:href="#DejaVuSans-39"/>
      <use x="254.345703" xlink:href="#DejaVuSans-36"/>
     </g>
    </g>
    <g id="line2d_47">
     <path d="M 345.921563 157.317313 
L 365.921563 157.317313 
" style="fill:none;stroke:#e24a33;stroke-linecap:square;stroke-width:0.3;"/>
    </g>
    <g id="line2d_48"/>
    <g id="text_23">
     <!-- b2997 -->
     <g transform="translate(373.921563 160.817313)scale(0.1 -0.1)">
      <use xlink:href="#DejaVuSans-62"/>
      <use x="63.476562" xlink:href="#DejaVuSans-32"/>
      <use x="127.099609" xlink:href="#DejaVuSans-39"/>
      <use x="190.722656" xlink:href="#DejaVuSans-39"/>
      <use x="254.345703" xlink:href="#DejaVuSans-37"/>
     </g>
    </g>
   </g>
  </g>
 </g>
 <defs>
  <clipPath id="pc9e42c213e">
   <rect height="266.112" width="357.12" x="57.6" y="41.472"/>
  </clipPath>
 </defs>
</svg>
