<?xml version="1.0" encoding="utf-8" standalone="no"?>
<!DOCTYPE svg PUBLIC "-//W3C//DTD SVG 1.1//EN"
  "http://www.w3.org/Graphics/SVG/1.1/DTD/svg11.dtd">
<!-- Created with matplotlib (http://matplotlib.org/) -->
<svg height="345pt" version="1.1" viewBox="0 0 460 345" width="460pt" xmlns="http://www.w3.org/2000/svg" xmlns:xlink="http://www.w3.org/1999/xlink">
 <defs>
  <style type="text/css">
*{stroke-linecap:butt;stroke-linejoin:round;}
  </style>
 </defs>
 <g id="figure_1">
  <g id="patch_1">
   <path d="M 0 345.6 
L 460.8 345.6 
L 460.8 0 
L 0 0 
z
" style="fill:#ffffff;"/>
  </g>
  <g id="axes_1">
   <g id="patch_2">
    <path d="M 57.6 307.584 
L 414.72 307.584 
L 414.72 41.472 
L 57.6 41.472 
z
" style="fill:#e5e5e5;"/>
   </g>
   <g id="matplotlib.axis_1">
    <g id="xtick_1">
     <g id="line2d_1">
      <path clip-path="url(#p58c9bc76cb)" d="M 72.619246 307.584 
L 72.619246 41.472 
" style="fill:none;stroke:#ffffff;stroke-linecap:square;stroke-width:0.8;"/>
     </g>
     <g id="line2d_2">
      <defs>
       <path d="M 0 0 
L 0 3.5 
" id="m4247bc7bf5" style="stroke:#555555;stroke-width:0.8;"/>
      </defs>
      <g>
       <use style="fill:#555555;stroke:#555555;stroke-width:0.8;" x="72.619246" xlink:href="#m4247bc7bf5" y="307.584"/>
      </g>
     </g>
     <g id="text_1">
      <!-- −200 -->
      <defs>
       <path d="M 10.59375 35.5 
L 73.1875 35.5 
L 73.1875 27.203125 
L 10.59375 27.203125 
z
" id="DejaVuSans-2212"/>
       <path d="M 19.1875 8.296875 
L 53.609375 8.296875 
L 53.609375 0 
L 7.328125 0 
L 7.328125 8.296875 
Q 12.9375 14.109375 22.625 23.890625 
Q 32.328125 33.6875 34.8125 36.53125 
Q 39.546875 41.84375 41.421875 45.53125 
Q 43.3125 49.21875 43.3125 52.78125 
Q 43.3125 58.59375 39.234375 62.25 
Q 35.15625 65.921875 28.609375 65.921875 
Q 23.96875 65.921875 18.8125 64.3125 
Q 13.671875 62.703125 7.8125 59.421875 
L 7.8125 69.390625 
Q 13.765625 71.78125 18.9375 73 
Q 24.125 74.21875 28.421875 74.21875 
Q 39.75 74.21875 46.484375 68.546875 
Q 53.21875 62.890625 53.21875 53.421875 
Q 53.21875 48.921875 51.53125 44.890625 
Q 49.859375 40.875 45.40625 35.40625 
Q 44.1875 33.984375 37.640625 27.21875 
Q 31.109375 20.453125 19.1875 8.296875 
z
" id="DejaVuSans-32"/>
       <path d="M 31.78125 66.40625 
Q 24.171875 66.40625 20.328125 58.90625 
Q 16.5 51.421875 16.5 36.375 
Q 16.5 21.390625 20.328125 13.890625 
Q 24.171875 6.390625 31.78125 6.390625 
Q 39.453125 6.390625 43.28125 13.890625 
Q 47.125 21.390625 47.125 36.375 
Q 47.125 51.421875 43.28125 58.90625 
Q 39.453125 66.40625 31.78125 66.40625 
z
M 31.78125 74.21875 
Q 44.046875 74.21875 50.515625 64.515625 
Q 56.984375 54.828125 56.984375 36.375 
Q 56.984375 17.96875 50.515625 8.265625 
Q 44.046875 -1.421875 31.78125 -1.421875 
Q 19.53125 -1.421875 13.0625 8.265625 
Q 6.59375 17.96875 6.59375 36.375 
Q 6.59375 54.828125 13.0625 64.515625 
Q 19.53125 74.21875 31.78125 74.21875 
z
" id="DejaVuSans-30"/>
      </defs>
      <g style="fill:#555555;" transform="translate(58.885653 322.182437)scale(0.1 -0.1)">
       <use xlink:href="#DejaVuSans-2212"/>
       <use x="83.789062" xlink:href="#DejaVuSans-32"/>
       <use x="147.412109" xlink:href="#DejaVuSans-30"/>
       <use x="211.035156" xlink:href="#DejaVuSans-30"/>
      </g>
     </g>
    </g>
    <g id="xtick_2">
     <g id="line2d_3">
      <path clip-path="url(#p58c9bc76cb)" d="M 115.627992 307.584 
L 115.627992 41.472 
" style="fill:none;stroke:#ffffff;stroke-linecap:square;stroke-width:0.8;"/>
     </g>
     <g id="line2d_4">
      <g>
       <use style="fill:#555555;stroke:#555555;stroke-width:0.8;" x="115.627992" xlink:href="#m4247bc7bf5" y="307.584"/>
      </g>
     </g>
     <g id="text_2">
      <!-- 0 -->
      <g style="fill:#555555;" transform="translate(112.446742 322.182437)scale(0.1 -0.1)">
       <use xlink:href="#DejaVuSans-30"/>
      </g>
     </g>
    </g>
    <g id="xtick_3">
     <g id="line2d_5">
      <path clip-path="url(#p58c9bc76cb)" d="M 158.636737 307.584 
L 158.636737 41.472 
" style="fill:none;stroke:#ffffff;stroke-linecap:square;stroke-width:0.8;"/>
     </g>
     <g id="line2d_6">
      <g>
       <use style="fill:#555555;stroke:#555555;stroke-width:0.8;" x="158.636737" xlink:href="#m4247bc7bf5" y="307.584"/>
      </g>
     </g>
     <g id="text_3">
      <!-- 200 -->
      <g style="fill:#555555;" transform="translate(149.092987 322.182437)scale(0.1 -0.1)">
       <use xlink:href="#DejaVuSans-32"/>
       <use x="63.623047" xlink:href="#DejaVuSans-30"/>
       <use x="127.246094" xlink:href="#DejaVuSans-30"/>
      </g>
     </g>
    </g>
    <g id="xtick_4">
     <g id="line2d_7">
      <path clip-path="url(#p58c9bc76cb)" d="M 201.645482 307.584 
L 201.645482 41.472 
" style="fill:none;stroke:#ffffff;stroke-linecap:square;stroke-width:0.8;"/>
     </g>
     <g id="line2d_8">
      <g>
       <use style="fill:#555555;stroke:#555555;stroke-width:0.8;" x="201.645482" xlink:href="#m4247bc7bf5" y="307.584"/>
      </g>
     </g>
     <g id="text_4">
      <!-- 400 -->
      <defs>
       <path d="M 37.796875 64.3125 
L 12.890625 25.390625 
L 37.796875 25.390625 
z
M 35.203125 72.90625 
L 47.609375 72.90625 
L 47.609375 25.390625 
L 58.015625 25.390625 
L 58.015625 17.1875 
L 47.609375 17.1875 
L 47.609375 0 
L 37.796875 0 
L 37.796875 17.1875 
L 4.890625 17.1875 
L 4.890625 26.703125 
z
" id="DejaVuSans-34"/>
      </defs>
      <g style="fill:#555555;" transform="translate(192.101732 322.182437)scale(0.1 -0.1)">
       <use xlink:href="#DejaVuSans-34"/>
       <use x="63.623047" xlink:href="#DejaVuSans-30"/>
       <use x="127.246094" xlink:href="#DejaVuSans-30"/>
      </g>
     </g>
    </g>
    <g id="xtick_5">
     <g id="line2d_9">
      <path clip-path="url(#p58c9bc76cb)" d="M 244.654227 307.584 
L 244.654227 41.472 
" style="fill:none;stroke:#ffffff;stroke-linecap:square;stroke-width:0.8;"/>
     </g>
     <g id="line2d_10">
      <g>
       <use style="fill:#555555;stroke:#555555;stroke-width:0.8;" x="244.654227" xlink:href="#m4247bc7bf5" y="307.584"/>
      </g>
     </g>
     <g id="text_5">
      <!-- 600 -->
      <defs>
       <path d="M 33.015625 40.375 
Q 26.375 40.375 22.484375 35.828125 
Q 18.609375 31.296875 18.609375 23.390625 
Q 18.609375 15.53125 22.484375 10.953125 
Q 26.375 6.390625 33.015625 6.390625 
Q 39.65625 6.390625 43.53125 10.953125 
Q 47.40625 15.53125 47.40625 23.390625 
Q 47.40625 31.296875 43.53125 35.828125 
Q 39.65625 40.375 33.015625 40.375 
z
M 52.59375 71.296875 
L 52.59375 62.3125 
Q 48.875 64.0625 45.09375 64.984375 
Q 41.3125 65.921875 37.59375 65.921875 
Q 27.828125 65.921875 22.671875 59.328125 
Q 17.53125 52.734375 16.796875 39.40625 
Q 19.671875 43.65625 24.015625 45.921875 
Q 28.375 48.1875 33.59375 48.1875 
Q 44.578125 48.1875 50.953125 41.515625 
Q 57.328125 34.859375 57.328125 23.390625 
Q 57.328125 12.15625 50.6875 5.359375 
Q 44.046875 -1.421875 33.015625 -1.421875 
Q 20.359375 -1.421875 13.671875 8.265625 
Q 6.984375 17.96875 6.984375 36.375 
Q 6.984375 53.65625 15.1875 63.9375 
Q 23.390625 74.21875 37.203125 74.21875 
Q 40.921875 74.21875 44.703125 73.484375 
Q 48.484375 72.75 52.59375 71.296875 
z
" id="DejaVuSans-36"/>
      </defs>
      <g style="fill:#555555;" transform="translate(235.110477 322.182437)scale(0.1 -0.1)">
       <use xlink:href="#DejaVuSans-36"/>
       <use x="63.623047" xlink:href="#DejaVuSans-30"/>
       <use x="127.246094" xlink:href="#DejaVuSans-30"/>
      </g>
     </g>
    </g>
    <g id="xtick_6">
     <g id="line2d_11">
      <path clip-path="url(#p58c9bc76cb)" d="M 287.662972 307.584 
L 287.662972 41.472 
" style="fill:none;stroke:#ffffff;stroke-linecap:square;stroke-width:0.8;"/>
     </g>
     <g id="line2d_12">
      <g>
       <use style="fill:#555555;stroke:#555555;stroke-width:0.8;" x="287.662972" xlink:href="#m4247bc7bf5" y="307.584"/>
      </g>
     </g>
     <g id="text_6">
      <!-- 800 -->
      <defs>
       <path d="M 31.78125 34.625 
Q 24.75 34.625 20.71875 30.859375 
Q 16.703125 27.09375 16.703125 20.515625 
Q 16.703125 13.921875 20.71875 10.15625 
Q 24.75 6.390625 31.78125 6.390625 
Q 38.8125 6.390625 42.859375 10.171875 
Q 46.921875 13.96875 46.921875 20.515625 
Q 46.921875 27.09375 42.890625 30.859375 
Q 38.875 34.625 31.78125 34.625 
z
M 21.921875 38.8125 
Q 15.578125 40.375 12.03125 44.71875 
Q 8.5 49.078125 8.5 55.328125 
Q 8.5 64.0625 14.71875 69.140625 
Q 20.953125 74.21875 31.78125 74.21875 
Q 42.671875 74.21875 48.875 69.140625 
Q 55.078125 64.0625 55.078125 55.328125 
Q 55.078125 49.078125 51.53125 44.71875 
Q 48 40.375 41.703125 38.8125 
Q 48.828125 37.15625 52.796875 32.3125 
Q 56.78125 27.484375 56.78125 20.515625 
Q 56.78125 9.90625 50.3125 4.234375 
Q 43.84375 -1.421875 31.78125 -1.421875 
Q 19.734375 -1.421875 13.25 4.234375 
Q 6.78125 9.90625 6.78125 20.515625 
Q 6.78125 27.484375 10.78125 32.3125 
Q 14.796875 37.15625 21.921875 38.8125 
z
M 18.3125 54.390625 
Q 18.3125 48.734375 21.84375 45.5625 
Q 25.390625 42.390625 31.78125 42.390625 
Q 38.140625 42.390625 41.71875 45.5625 
Q 45.3125 48.734375 45.3125 54.390625 
Q 45.3125 60.0625 41.71875 63.234375 
Q 38.140625 66.40625 31.78125 66.40625 
Q 25.390625 66.40625 21.84375 63.234375 
Q 18.3125 60.0625 18.3125 54.390625 
z
" id="DejaVuSans-38"/>
      </defs>
      <g style="fill:#555555;" transform="translate(278.119222 322.182437)scale(0.1 -0.1)">
       <use xlink:href="#DejaVuSans-38"/>
       <use x="63.623047" xlink:href="#DejaVuSans-30"/>
       <use x="127.246094" xlink:href="#DejaVuSans-30"/>
      </g>
     </g>
    </g>
    <g id="xtick_7">
     <g id="line2d_13">
      <path clip-path="url(#p58c9bc76cb)" d="M 330.671718 307.584 
L 330.671718 41.472 
" style="fill:none;stroke:#ffffff;stroke-linecap:square;stroke-width:0.8;"/>
     </g>
     <g id="line2d_14">
      <g>
       <use style="fill:#555555;stroke:#555555;stroke-width:0.8;" x="330.671718" xlink:href="#m4247bc7bf5" y="307.584"/>
      </g>
     </g>
     <g id="text_7">
      <!-- 1000 -->
      <defs>
       <path d="M 12.40625 8.296875 
L 28.515625 8.296875 
L 28.515625 63.921875 
L 10.984375 60.40625 
L 10.984375 69.390625 
L 28.421875 72.90625 
L 38.28125 72.90625 
L 38.28125 8.296875 
L 54.390625 8.296875 
L 54.390625 0 
L 12.40625 0 
z
" id="DejaVuSans-31"/>
      </defs>
      <g style="fill:#555555;" transform="translate(317.946718 322.182437)scale(0.1 -0.1)">
       <use xlink:href="#DejaVuSans-31"/>
       <use x="63.623047" xlink:href="#DejaVuSans-30"/>
       <use x="127.246094" xlink:href="#DejaVuSans-30"/>
       <use x="190.869141" xlink:href="#DejaVuSans-30"/>
      </g>
     </g>
    </g>
    <g id="xtick_8">
     <g id="line2d_15">
      <path clip-path="url(#p58c9bc76cb)" d="M 373.680463 307.584 
L 373.680463 41.472 
" style="fill:none;stroke:#ffffff;stroke-linecap:square;stroke-width:0.8;"/>
     </g>
     <g id="line2d_16">
      <g>
       <use style="fill:#555555;stroke:#555555;stroke-width:0.8;" x="373.680463" xlink:href="#m4247bc7bf5" y="307.584"/>
      </g>
     </g>
     <g id="text_8">
      <!-- 1200 -->
      <g style="fill:#555555;" transform="translate(360.955463 322.182437)scale(0.1 -0.1)">
       <use xlink:href="#DejaVuSans-31"/>
       <use x="63.623047" xlink:href="#DejaVuSans-32"/>
       <use x="127.246094" xlink:href="#DejaVuSans-30"/>
       <use x="190.869141" xlink:href="#DejaVuSans-30"/>
      </g>
     </g>
    </g>
    <g id="text_9">
     <!-- count -->
     <defs>
      <path d="M 48.78125 52.59375 
L 48.78125 44.1875 
Q 44.96875 46.296875 41.140625 47.34375 
Q 37.3125 48.390625 33.40625 48.390625 
Q 24.65625 48.390625 19.8125 42.84375 
Q 14.984375 37.3125 14.984375 27.296875 
Q 14.984375 17.28125 19.8125 11.734375 
Q 24.65625 6.203125 33.40625 6.203125 
Q 37.3125 6.203125 41.140625 7.25 
Q 44.96875 8.296875 48.78125 10.40625 
L 48.78125 2.09375 
Q 45.015625 0.34375 40.984375 -0.53125 
Q 36.96875 -1.421875 32.421875 -1.421875 
Q 20.0625 -1.421875 12.78125 6.34375 
Q 5.515625 14.109375 5.515625 27.296875 
Q 5.515625 40.671875 12.859375 48.328125 
Q 20.21875 56 33.015625 56 
Q 37.15625 56 41.109375 55.140625 
Q 45.0625 54.296875 48.78125 52.59375 
z
" id="DejaVuSans-63"/>
      <path d="M 30.609375 48.390625 
Q 23.390625 48.390625 19.1875 42.75 
Q 14.984375 37.109375 14.984375 27.296875 
Q 14.984375 17.484375 19.15625 11.84375 
Q 23.34375 6.203125 30.609375 6.203125 
Q 37.796875 6.203125 41.984375 11.859375 
Q 46.1875 17.53125 46.1875 27.296875 
Q 46.1875 37.015625 41.984375 42.703125 
Q 37.796875 48.390625 30.609375 48.390625 
z
M 30.609375 56 
Q 42.328125 56 49.015625 48.375 
Q 55.71875 40.765625 55.71875 27.296875 
Q 55.71875 13.875 49.015625 6.21875 
Q 42.328125 -1.421875 30.609375 -1.421875 
Q 18.84375 -1.421875 12.171875 6.21875 
Q 5.515625 13.875 5.515625 27.296875 
Q 5.515625 40.765625 12.171875 48.375 
Q 18.84375 56 30.609375 56 
z
" id="DejaVuSans-6f"/>
      <path d="M 8.5 21.578125 
L 8.5 54.6875 
L 17.484375 54.6875 
L 17.484375 21.921875 
Q 17.484375 14.15625 20.5 10.265625 
Q 23.53125 6.390625 29.59375 6.390625 
Q 36.859375 6.390625 41.078125 11.03125 
Q 45.3125 15.671875 45.3125 23.6875 
L 45.3125 54.6875 
L 54.296875 54.6875 
L 54.296875 0 
L 45.3125 0 
L 45.3125 8.40625 
Q 42.046875 3.421875 37.71875 1 
Q 33.40625 -1.421875 27.6875 -1.421875 
Q 18.265625 -1.421875 13.375 4.4375 
Q 8.5 10.296875 8.5 21.578125 
z
M 31.109375 56 
z
" id="DejaVuSans-75"/>
      <path d="M 54.890625 33.015625 
L 54.890625 0 
L 45.90625 0 
L 45.90625 32.71875 
Q 45.90625 40.484375 42.875 44.328125 
Q 39.84375 48.1875 33.796875 48.1875 
Q 26.515625 48.1875 22.3125 43.546875 
Q 18.109375 38.921875 18.109375 30.90625 
L 18.109375 0 
L 9.078125 0 
L 9.078125 54.6875 
L 18.109375 54.6875 
L 18.109375 46.1875 
Q 21.34375 51.125 25.703125 53.5625 
Q 30.078125 56 35.796875 56 
Q 45.21875 56 50.046875 50.171875 
Q 54.890625 44.34375 54.890625 33.015625 
z
" id="DejaVuSans-6e"/>
      <path d="M 18.3125 70.21875 
L 18.3125 54.6875 
L 36.8125 54.6875 
L 36.8125 47.703125 
L 18.3125 47.703125 
L 18.3125 18.015625 
Q 18.3125 11.328125 20.140625 9.421875 
Q 21.96875 7.515625 27.59375 7.515625 
L 36.8125 7.515625 
L 36.8125 0 
L 27.59375 0 
Q 17.1875 0 13.234375 3.875 
Q 9.28125 7.765625 9.28125 18.015625 
L 9.28125 47.703125 
L 2.6875 47.703125 
L 2.6875 54.6875 
L 9.28125 54.6875 
L 9.28125 70.21875 
z
" id="DejaVuSans-74"/>
     </defs>
     <g style="fill:#555555;" transform="translate(219.2325 337.38025)scale(0.12 -0.12)">
      <use xlink:href="#DejaVuSans-63"/>
      <use x="54.980469" xlink:href="#DejaVuSans-6f"/>
      <use x="116.162109" xlink:href="#DejaVuSans-75"/>
      <use x="179.541016" xlink:href="#DejaVuSans-6e"/>
      <use x="242.919922" xlink:href="#DejaVuSans-74"/>
     </g>
    </g>
   </g>
   <g id="matplotlib.axis_2">
    <g id="ytick_1">
     <g id="line2d_17">
      <path clip-path="url(#p58c9bc76cb)" d="M 57.6 307.584 
L 414.72 307.584 
" style="fill:none;stroke:#ffffff;stroke-linecap:square;stroke-width:0.8;"/>
     </g>
     <g id="line2d_18">
      <defs>
       <path d="M 0 0 
L -3.5 0 
" id="m1e7ac5e87f" style="stroke:#555555;stroke-width:0.8;"/>
      </defs>
      <g>
       <use style="fill:#555555;stroke:#555555;stroke-width:0.8;" x="57.6" xlink:href="#m1e7ac5e87f" y="307.584"/>
      </g>
     </g>
     <g id="text_10">
      <!-- 0.000 -->
      <defs>
       <path d="M 10.6875 12.40625 
L 21 12.40625 
L 21 0 
L 10.6875 0 
z
" id="DejaVuSans-2e"/>
      </defs>
      <g style="fill:#555555;" transform="translate(21.971875 311.383219)scale(0.1 -0.1)">
       <use xlink:href="#DejaVuSans-30"/>
       <use x="63.623047" xlink:href="#DejaVuSans-2e"/>
       <use x="95.410156" xlink:href="#DejaVuSans-30"/>
       <use x="159.033203" xlink:href="#DejaVuSans-30"/>
       <use x="222.65625" xlink:href="#DejaVuSans-30"/>
      </g>
     </g>
    </g>
    <g id="ytick_2">
     <g id="line2d_19">
      <path clip-path="url(#p58c9bc76cb)" d="M 57.6 262.501298 
L 414.72 262.501298 
" style="fill:none;stroke:#ffffff;stroke-linecap:square;stroke-width:0.8;"/>
     </g>
     <g id="line2d_20">
      <g>
       <use style="fill:#555555;stroke:#555555;stroke-width:0.8;" x="57.6" xlink:href="#m1e7ac5e87f" y="262.501298"/>
      </g>
     </g>
     <g id="text_11">
      <!-- 0.005 -->
      <defs>
       <path d="M 10.796875 72.90625 
L 49.515625 72.90625 
L 49.515625 64.59375 
L 19.828125 64.59375 
L 19.828125 46.734375 
Q 21.96875 47.46875 24.109375 47.828125 
Q 26.265625 48.1875 28.421875 48.1875 
Q 40.625 48.1875 47.75 41.5 
Q 54.890625 34.8125 54.890625 23.390625 
Q 54.890625 11.625 47.5625 5.09375 
Q 40.234375 -1.421875 26.90625 -1.421875 
Q 22.3125 -1.421875 17.546875 -0.640625 
Q 12.796875 0.140625 7.71875 1.703125 
L 7.71875 11.625 
Q 12.109375 9.234375 16.796875 8.0625 
Q 21.484375 6.890625 26.703125 6.890625 
Q 35.15625 6.890625 40.078125 11.328125 
Q 45.015625 15.765625 45.015625 23.390625 
Q 45.015625 31 40.078125 35.4375 
Q 35.15625 39.890625 26.703125 39.890625 
Q 22.75 39.890625 18.8125 39.015625 
Q 14.890625 38.140625 10.796875 36.28125 
z
" id="DejaVuSans-35"/>
      </defs>
      <g style="fill:#555555;" transform="translate(21.971875 266.300517)scale(0.1 -0.1)">
       <use xlink:href="#DejaVuSans-30"/>
       <use x="63.623047" xlink:href="#DejaVuSans-2e"/>
       <use x="95.410156" xlink:href="#DejaVuSans-30"/>
       <use x="159.033203" xlink:href="#DejaVuSans-30"/>
       <use x="222.65625" xlink:href="#DejaVuSans-35"/>
      </g>
     </g>
    </g>
    <g id="ytick_3">
     <g id="line2d_21">
      <path clip-path="url(#p58c9bc76cb)" d="M 57.6 217.418596 
L 414.72 217.418596 
" style="fill:none;stroke:#ffffff;stroke-linecap:square;stroke-width:0.8;"/>
     </g>
     <g id="line2d_22">
      <g>
       <use style="fill:#555555;stroke:#555555;stroke-width:0.8;" x="57.6" xlink:href="#m1e7ac5e87f" y="217.418596"/>
      </g>
     </g>
     <g id="text_12">
      <!-- 0.010 -->
      <g style="fill:#555555;" transform="translate(21.971875 221.217815)scale(0.1 -0.1)">
       <use xlink:href="#DejaVuSans-30"/>
       <use x="63.623047" xlink:href="#DejaVuSans-2e"/>
       <use x="95.410156" xlink:href="#DejaVuSans-30"/>
       <use x="159.033203" xlink:href="#DejaVuSans-31"/>
       <use x="222.65625" xlink:href="#DejaVuSans-30"/>
      </g>
     </g>
    </g>
    <g id="ytick_4">
     <g id="line2d_23">
      <path clip-path="url(#p58c9bc76cb)" d="M 57.6 172.335895 
L 414.72 172.335895 
" style="fill:none;stroke:#ffffff;stroke-linecap:square;stroke-width:0.8;"/>
     </g>
     <g id="line2d_24">
      <g>
       <use style="fill:#555555;stroke:#555555;stroke-width:0.8;" x="57.6" xlink:href="#m1e7ac5e87f" y="172.335895"/>
      </g>
     </g>
     <g id="text_13">
      <!-- 0.015 -->
      <g style="fill:#555555;" transform="translate(21.971875 176.135113)scale(0.1 -0.1)">
       <use xlink:href="#DejaVuSans-30"/>
       <use x="63.623047" xlink:href="#DejaVuSans-2e"/>
       <use x="95.410156" xlink:href="#DejaVuSans-30"/>
       <use x="159.033203" xlink:href="#DejaVuSans-31"/>
       <use x="222.65625" xlink:href="#DejaVuSans-35"/>
      </g>
     </g>
    </g>
    <g id="ytick_5">
     <g id="line2d_25">
      <path clip-path="url(#p58c9bc76cb)" d="M 57.6 127.253193 
L 414.72 127.253193 
" style="fill:none;stroke:#ffffff;stroke-linecap:square;stroke-width:0.8;"/>
     </g>
     <g id="line2d_26">
      <g>
       <use style="fill:#555555;stroke:#555555;stroke-width:0.8;" x="57.6" xlink:href="#m1e7ac5e87f" y="127.253193"/>
      </g>
     </g>
     <g id="text_14">
      <!-- 0.020 -->
      <g style="fill:#555555;" transform="translate(21.971875 131.052411)scale(0.1 -0.1)">
       <use xlink:href="#DejaVuSans-30"/>
       <use x="63.623047" xlink:href="#DejaVuSans-2e"/>
       <use x="95.410156" xlink:href="#DejaVuSans-30"/>
       <use x="159.033203" xlink:href="#DejaVuSans-32"/>
       <use x="222.65625" xlink:href="#DejaVuSans-30"/>
      </g>
     </g>
    </g>
    <g id="ytick_6">
     <g id="line2d_27">
      <path clip-path="url(#p58c9bc76cb)" d="M 57.6 82.170491 
L 414.72 82.170491 
" style="fill:none;stroke:#ffffff;stroke-linecap:square;stroke-width:0.8;"/>
     </g>
     <g id="line2d_28">
      <g>
       <use style="fill:#555555;stroke:#555555;stroke-width:0.8;" x="57.6" xlink:href="#m1e7ac5e87f" y="82.170491"/>
      </g>
     </g>
     <g id="text_15">
      <!-- 0.025 -->
      <g style="fill:#555555;" transform="translate(21.971875 85.96971)scale(0.1 -0.1)">
       <use xlink:href="#DejaVuSans-30"/>
       <use x="63.623047" xlink:href="#DejaVuSans-2e"/>
       <use x="95.410156" xlink:href="#DejaVuSans-30"/>
       <use x="159.033203" xlink:href="#DejaVuSans-32"/>
       <use x="222.65625" xlink:href="#DejaVuSans-35"/>
      </g>
     </g>
    </g>
    <g id="text_16">
     <!-- f(count) -->
     <defs>
      <path d="M 37.109375 75.984375 
L 37.109375 68.5 
L 28.515625 68.5 
Q 23.6875 68.5 21.796875 66.546875 
Q 19.921875 64.59375 19.921875 59.515625 
L 19.921875 54.6875 
L 34.71875 54.6875 
L 34.71875 47.703125 
L 19.921875 47.703125 
L 19.921875 0 
L 10.890625 0 
L 10.890625 47.703125 
L 2.296875 47.703125 
L 2.296875 54.6875 
L 10.890625 54.6875 
L 10.890625 58.5 
Q 10.890625 67.625 15.140625 71.796875 
Q 19.390625 75.984375 28.609375 75.984375 
z
" id="DejaVuSans-66"/>
      <path d="M 31 75.875 
Q 24.46875 64.65625 21.28125 53.65625 
Q 18.109375 42.671875 18.109375 31.390625 
Q 18.109375 20.125 21.3125 9.0625 
Q 24.515625 -2 31 -13.1875 
L 23.1875 -13.1875 
Q 15.875 -1.703125 12.234375 9.375 
Q 8.59375 20.453125 8.59375 31.390625 
Q 8.59375 42.28125 12.203125 53.3125 
Q 15.828125 64.359375 23.1875 75.875 
z
" id="DejaVuSans-28"/>
      <path d="M 8.015625 75.875 
L 15.828125 75.875 
Q 23.140625 64.359375 26.78125 53.3125 
Q 30.421875 42.28125 30.421875 31.390625 
Q 30.421875 20.453125 26.78125 9.375 
Q 23.140625 -1.703125 15.828125 -13.1875 
L 8.015625 -13.1875 
Q 14.5 -2 17.703125 9.0625 
Q 20.90625 20.125 20.90625 31.390625 
Q 20.90625 42.671875 17.703125 53.65625 
Q 14.5 64.65625 8.015625 75.875 
z
" id="DejaVuSans-29"/>
     </defs>
     <g style="fill:#555555;" transform="translate(15.47625 198.249562)rotate(-90)scale(0.12 -0.12)">
      <use xlink:href="#DejaVuSans-66"/>
      <use x="35.205078" xlink:href="#DejaVuSans-28"/>
      <use x="74.21875" xlink:href="#DejaVuSans-63"/>
      <use x="129.199219" xlink:href="#DejaVuSans-6f"/>
      <use x="190.380859" xlink:href="#DejaVuSans-75"/>
      <use x="253.759766" xlink:href="#DejaVuSans-6e"/>
      <use x="317.138672" xlink:href="#DejaVuSans-74"/>
      <use x="356.347656" xlink:href="#DejaVuSans-29"/>
     </g>
    </g>
   </g>
   <g id="line2d_29">
    <path clip-path="url(#p58c9bc76cb)" d="M 111.208254 307.493347 
L 111.616849 307.411192 
L 112.025444 307.265759 
L 112.434039 307.017526 
L 112.842634 306.608846 
L 113.251229 305.959601 
L 113.659824 304.963928 
L 114.068419 303.489277 
L 114.477014 301.379171 
L 114.885609 298.460942 
L 115.294203 294.559193 
L 115.702798 289.514967 
L 116.111393 283.209522 
L 116.519988 275.590423 
L 116.928583 266.696544 
L 117.337178 256.677714 
L 117.745773 245.804403 
L 118.154368 234.463296 
L 118.562963 223.13606 
L 118.971558 212.361179 
L 119.380153 202.682136 
L 119.788748 194.588772 
L 120.197343 188.461351 
L 120.605938 184.527609 
L 121.014533 182.841157 
L 121.423128 183.285364 
L 121.831723 185.601197 
L 122.240318 189.432298 
L 122.648913 194.377397 
L 123.057508 200.039879 
L 123.466103 206.066798 
L 123.874698 212.173516 
L 124.283293 218.154076 
L 124.691888 223.879957 
L 125.100483 229.290675 
L 125.509078 234.379103 
L 125.917673 239.173239 
L 126.326268 243.715343 
L 126.734863 248.039382 
L 127.143458 252.148609 
L 127.552053 255.996359 
L 127.960648 259.474299 
L 128.369243 262.412559 
L 128.777838 264.59509 
L 129.186433 265.790949 
L 129.595028 265.798415 
L 130.003623 264.494634 
L 130.412218 261.880249 
L 130.820813 258.107339 
L 131.229408 253.481056 
L 131.638003 248.430534 
L 132.046598 243.451924 
L 132.455193 239.033934 
L 132.863788 235.581573 
L 133.272383 233.355195 
L 133.680978 232.438558 
L 134.089573 232.74237 
L 134.498168 234.040678 
L 134.906763 236.029322 
L 135.315358 238.390906 
L 135.723953 240.850723 
L 136.132548 243.212369 
L 136.541143 245.368868 
L 136.949738 247.29233 
L 137.358333 249.010311 
L 137.766928 250.578792 
L 138.175523 252.059957 
L 138.584118 253.509138 
L 138.992713 254.970914 
L 139.401308 256.481278 
L 139.809903 258.071673 
L 140.218498 259.771587 
L 140.627093 261.608329 
L 141.035688 263.604616 
L 141.444283 265.775626 
L 141.852878 268.127109 
L 142.261473 270.655186 
L 142.670068 273.347347 
L 143.078663 276.183513 
L 143.487258 279.13617 
L 143.895853 282.169371 
L 144.304447 285.237384 
L 144.713042 288.284318 
L 145.121637 291.246007 
L 145.530232 294.054604 
L 145.938827 296.645353 
L 146.347422 298.964051 
L 146.756017 300.973408 
L 147.164612 302.656799 
L 147.573207 304.018656 
L 147.981802 305.0817 
L 148.390397 305.881927 
L 148.798992 306.462657 
L 149.207587 306.868868 
L 149.616182 307.142711 
L 150.024777 307.320623 
L 150.433372 307.432016 
L 150.841967 307.499229 
L 151.250562 307.538312 
L 151.659157 307.560214 
" style="fill:none;stroke:#e24a33;stroke-linecap:square;stroke-width:0.3;"/>
   </g>
   <g id="line2d_30">
    <path clip-path="url(#p58c9bc76cb)" d="M 116.486809 307.521206 
L 117.021188 307.430608 
L 117.555566 307.236587 
L 118.089945 306.853638 
L 118.624323 306.156882 
L 119.158702 304.987946 
L 119.69308 303.179043 
L 120.227459 300.596029 
L 120.761837 297.190958 
L 121.296216 293.04464 
L 121.830594 288.376881 
L 122.364973 283.510506 
L 122.899351 278.792782 
L 123.43373 274.496295 
L 123.968108 270.732486 
L 124.502487 267.410468 
L 125.036865 264.261652 
L 125.571244 260.929636 
L 126.105622 257.0998 
L 126.640001 252.62331 
L 127.174379 247.587571 
L 127.708758 242.305166 
L 128.243136 237.228248 
L 128.777515 232.825938 
L 129.311893 229.471829 
L 129.846272 227.374913 
L 130.38065 226.562192 
L 130.915029 226.900012 
L 131.449407 228.132016 
L 131.983786 229.915383 
L 132.518164 231.850275 
L 133.052543 233.513373 
L 133.586921 234.513551 
L 134.1213 234.575966 
L 134.655678 233.632684 
L 135.190057 231.873189 
L 135.724435 229.71059 
L 136.258814 227.655802 
L 136.793192 226.14223 
L 137.327571 225.374614 
L 137.861949 225.267153 
L 138.396328 225.494739 
L 138.930706 225.632778 
L 139.465085 225.330411 
L 139.999463 224.457213 
L 140.533842 223.178253 
L 141.06822 221.935915 
L 141.602599 221.342767 
L 142.136977 222.015094 
L 142.671356 224.396898 
L 143.205734 228.630728 
L 143.740113 234.517491 
L 144.274491 241.574476 
L 144.80887 249.163491 
L 145.343248 256.638466 
L 145.877627 263.465301 
L 146.412005 269.290554 
L 146.946384 273.961829 
L 147.480762 277.515248 
L 148.015141 280.141678 
L 148.549519 282.134171 
L 149.083898 283.816929 
L 149.618276 285.464564 
L 150.152655 287.232368 
L 150.687033 289.122452 
L 151.221411 291.001145 
L 151.75579 292.66318 
L 152.290168 293.918581 
L 152.824547 294.669124 
L 153.358925 294.946905 
L 153.893304 294.90385 
L 154.427682 294.759641 
L 154.962061 294.729227 
L 155.496439 294.956298 
L 156.030818 295.475466 
L 156.565196 296.214854 
L 157.099575 297.035639 
L 157.633953 297.791396 
L 158.168332 298.383582 
L 158.70271 298.793009 
L 159.237089 299.078445 
L 159.771467 299.346819 
L 160.305846 299.70931 
L 160.840224 300.241086 
L 161.374603 300.959108 
L 161.908981 301.823937 
L 162.44336 302.761045 
L 162.977738 303.689514 
L 163.512117 304.545032 
L 164.046495 305.289755 
L 164.580874 305.909888 
L 165.115252 306.407303 
L 165.649631 306.791695 
L 166.184009 307.076283 
L 166.718388 307.276393 
L 167.252766 307.408828 
L 167.787145 307.490692 
L 168.321523 307.537685 
L 168.855902 307.562639 
L 169.39028 307.574865 
" style="fill:none;stroke:#348abd;stroke-linecap:square;stroke-width:0.3;"/>
   </g>
   <g id="line2d_31">
    <path clip-path="url(#p58c9bc76cb)" d="M 115.076039 307.506221 
L 115.295717 307.39097 
L 115.515394 307.140552 
L 115.735072 306.639886 
L 115.95475 305.718481 
L 116.174428 304.156682 
L 116.394106 301.716385 
L 116.613783 298.197173 
L 116.833461 293.504473 
L 117.053139 287.702932 
L 117.272817 281.025651 
L 117.492495 273.823131 
L 117.712172 266.459571 
L 117.93185 259.185882 
L 118.151528 252.027669 
L 118.371206 244.721215 
L 118.590884 236.717147 
L 118.810562 227.256921 
L 119.030239 215.514968 
L 119.249917 200.790237 
L 119.469595 182.724305 
L 119.689273 161.514356 
L 119.908951 138.071519 
L 120.128628 114.050036 
L 120.348306 91.663192 
L 120.567984 73.243885 
L 120.787662 60.617331 
L 121.00734 54.49139 
L 121.227017 54.144 
L 121.446695 57.612253 
L 121.666373 62.365464 
L 121.886051 66.190491 
L 122.105729 67.8932 
L 122.325407 67.514588 
L 122.545084 66.01804 
L 122.764762 64.664386 
L 122.98444 64.406052 
L 123.204118 65.562431 
L 123.423796 67.859353 
L 123.643473 70.737385 
L 123.863151 73.733745 
L 124.082829 76.744219 
L 124.302507 80.05925 
L 124.522185 84.19875 
L 124.741862 89.676102 
L 124.96154 96.838545 
L 125.181218 105.846292 
L 125.400896 116.731318 
L 125.620574 129.419331 
L 125.840252 143.655503 
L 126.059929 158.895221 
L 126.279607 174.29347 
L 126.499285 188.877036 
L 126.718963 201.846756 
L 126.938641 212.845518 
L 127.158318 222.034843 
L 127.377996 229.943455 
L 127.597674 237.190685 
L 127.817352 244.244498 
L 128.03703 251.320167 
L 128.256707 258.417603 
L 128.476385 265.418182 
L 128.696063 272.160166 
L 128.915741 278.46493 
L 129.135419 284.139114 
L 129.355096 288.991176 
L 129.574774 292.875972 
L 129.794452 295.747859 
L 130.01413 297.689159 
L 130.233808 298.89306 
L 130.453486 299.605291 
L 130.673163 300.049335 
L 130.892841 300.365186 
L 131.112519 300.582172 
L 131.332197 300.63 
L 131.551875 300.377818 
L 131.771552 299.684018 
L 131.99123 298.439907 
L 132.210908 296.596237 
L 132.430586 294.171015 
L 132.650264 291.247768 
L 132.869941 287.979467 
L 133.089619 284.606457 
L 133.309297 281.47625 
L 133.528975 279.032769 
L 133.748653 277.744657 
L 133.968331 277.975685 
L 134.188008 279.846463 
L 134.407686 283.159259 
L 134.627364 287.433985 
L 134.847042 292.045696 
L 135.06672 296.401445 
L 135.286397 300.080834 
L 135.506075 302.893513 
L 135.725753 304.853483 
L 135.945431 306.10442 
L 136.165109 306.838055 
L 136.384786 307.234271 
L 136.604464 307.431609 
L 136.824142 307.522327 
" style="fill:none;stroke:#988ed5;stroke-linecap:square;stroke-width:0.3;"/>
   </g>
   <g id="line2d_32">
    <path clip-path="url(#p58c9bc76cb)" d="M 116.26176 307.547589 
L 116.631257 307.508239 
L 117.000753 307.432755 
L 117.37025 307.294113 
L 117.739747 307.05019 
L 118.109243 306.638917 
L 118.47874 305.974066 
L 118.848236 304.943093 
L 119.217733 303.408753 
L 119.587229 301.216045 
L 119.956726 298.20538 
L 120.326222 294.231739 
L 120.695719 289.188254 
L 121.065216 283.031527 
L 121.434712 275.805271 
L 121.804209 267.658665 
L 122.173705 258.855728 
L 122.543202 249.771931 
L 122.912698 240.874336 
L 123.282195 232.68249 
L 123.651691 225.710212 
L 124.021188 220.393428 
L 124.390684 217.015449 
L 124.760181 215.645934 
L 125.129678 216.110501 
L 125.499174 218.00302 
L 125.868671 220.742788 
L 126.238167 223.667164 
L 126.607664 226.140781 
L 126.97716 227.658119 
L 127.346657 227.918128 
L 127.716153 226.856696 
L 128.08565 224.632837 
L 128.455146 221.574986 
L 128.824643 218.102314 
L 129.19414 214.640525 
L 129.563636 211.551005 
L 129.933133 209.086609 
L 130.302629 207.378629 
L 130.672126 206.450587 
L 131.041622 206.248487 
L 131.411119 206.675565 
L 131.780615 207.621896 
L 132.150112 208.983473 
L 132.519608 210.669374 
L 132.889105 212.598483 
L 133.258602 214.689026 
L 133.628098 216.84577 
L 133.997595 218.951108 
L 134.367091 220.866532 
L 134.736588 222.44882 
L 135.106084 223.580343 
L 135.475581 224.206404 
L 135.845077 224.367339 
L 136.214574 224.21209 
L 136.58407 223.984418 
L 136.953567 223.981805 
L 137.323064 224.49678 
L 137.69256 225.757021 
L 138.062057 227.881026 
L 138.431553 230.860513 
L 138.80105 234.571292 
L 139.170546 238.805377 
L 139.540043 243.311917 
L 139.909539 247.834675 
L 140.279036 252.138173 
L 140.648532 256.020765 
L 141.018029 259.317984 
L 141.387526 261.902031 
L 141.757022 263.68308 
L 142.126519 264.616009 
L 142.496015 264.713115 
L 142.865512 264.060131 
L 143.235008 262.829742 
L 143.604505 261.284863 
L 143.974001 259.764234 
L 144.343498 258.646502 
L 144.712994 258.295595 
L 145.082491 258.997924 
L 145.451988 260.907274 
L 145.821484 264.013435 
L 146.190981 268.144553 
L 146.560477 273.003043 
L 146.929974 278.224682 
L 147.29947 283.444263 
L 147.668967 288.351224 
L 148.038463 292.724094 
L 148.40796 296.440677 
L 148.777457 299.468104 
L 149.146953 301.840902 
L 149.51645 303.635605 
L 149.885946 304.948148 
L 150.255443 305.877135 
L 150.624939 306.513394 
L 150.994436 306.934672 
L 151.363932 307.203906 
L 151.733429 307.369667 
L 152.102925 307.467782 
L 152.472422 307.523504 
L 152.841919 307.553814 
" style="fill:none;stroke:#777777;stroke-linecap:square;stroke-width:0.3;"/>
   </g>
   <g id="line2d_33">
    <path clip-path="url(#p58c9bc76cb)" d="M 114.543133 307.508924 
L 114.84743 307.404352 
L 115.151727 307.179899 
L 115.456024 306.728883 
L 115.760321 305.880234 
L 116.064618 304.384421 
L 116.368915 301.913755 
L 116.673212 298.087826 
L 116.977509 292.530792 
L 117.281806 284.957582 
L 117.586103 275.273705 
L 117.8904 263.663518 
L 118.194697 250.639708 
L 118.498994 237.03331 
L 118.803291 223.915502 
L 119.107588 212.454633 
L 119.411885 203.722938 
L 119.716182 198.479309 
L 120.020479 196.968983 
L 120.324776 198.793211 
L 120.629073 202.901555 
L 120.93337 207.738058 
L 121.237667 211.53262 
L 121.541964 212.683467 
L 121.846261 210.141218 
L 122.150558 203.689539 
L 122.454855 194.026669 
L 122.759152 182.590709 
L 123.063449 171.142557 
L 123.367746 161.212583 
L 123.672042 153.595475 
L 123.976339 148.092859 
L 124.280636 143.624986 
L 124.584933 138.681328 
L 124.88923 131.928016 
L 125.193527 122.722082 
L 125.497824 111.339116 
L 125.802121 98.86834 
L 126.106418 86.879891 
L 126.410715 77.040098 
L 126.715012 70.816123 
L 127.019309 69.31428 
L 127.323606 73.210116 
L 127.627903 82.704255 
L 127.9322 97.474759 
L 128.236497 116.651992 
L 128.540794 138.869667 
L 128.845091 162.427432 
L 129.149388 185.55112 
L 129.453685 206.68854 
L 129.757982 224.757433 
L 130.062279 239.276398 
L 130.366576 250.349663 
L 130.670873 258.524316 
L 130.97517 264.575383 
L 131.279467 269.288245 
L 131.583764 273.297237 
L 131.888061 277.010736 
L 132.192358 280.619431 
L 132.496655 284.158498 
L 132.800952 287.584691 
L 133.105249 290.836532 
L 133.409546 293.863571 
L 133.713843 296.629208 
L 134.01814 299.102026 
L 134.322437 301.250086 
L 134.626734 303.044359 
L 134.931031 304.468252 
L 135.235328 305.525734 
L 135.539625 306.2423 
L 135.843922 306.658265 
L 136.148219 306.818395 
L 136.452516 306.763224 
L 136.756813 306.525362 
L 137.06111 306.130792 
L 137.365407 305.602611 
L 137.669704 304.964254 
L 137.974001 304.240772 
L 138.278298 303.458878 
L 138.582595 302.647747 
L 138.886892 301.841865 
L 139.191189 301.085085 
L 139.495486 300.432912 
L 139.799783 299.949694 
L 140.10408 299.699307 
L 140.408377 299.731137 
L 140.712674 300.065843 
L 141.016971 300.686111 
L 141.321268 301.536062 
L 141.625565 302.530146 
L 141.929862 303.569238 
L 142.234159 304.559373 
L 142.538456 305.427887 
L 142.842753 306.132751 
L 143.14705 306.663449 
L 143.451347 307.034659 
L 143.755644 307.276056 
L 144.059941 307.422052 
L 144.364238 307.504187 
L 144.668535 307.547173 
" style="fill:none;stroke:#fbc15e;stroke-linecap:square;stroke-width:0.3;"/>
   </g>
   <g id="line2d_34">
    <path clip-path="url(#p58c9bc76cb)" d="M 111.062512 307.457263 
L 111.497945 307.358912 
L 111.933378 307.194906 
L 112.368811 306.929089 
L 112.804244 306.510189 
L 113.239677 305.868108 
L 113.67511 304.910535 
L 114.110543 303.520565 
L 114.545976 301.556205 
L 114.981409 298.852699 
L 115.416842 295.228635 
L 115.852275 290.496603 
L 116.287708 284.478814 
L 116.723141 277.027537 
L 117.158574 268.049384 
L 117.594007 257.531543 
L 118.02944 245.566993 
L 118.464873 232.374777 
L 118.900306 218.310837 
L 119.335739 203.864964 
L 119.771172 189.640461 
L 120.206605 176.315225 
L 120.642038 164.586036 
L 121.077471 155.101432 
L 121.512904 148.391862 
L 121.948337 144.807953 
L 122.38377 144.477809 
L 122.819203 147.291951 
L 123.254636 152.919898 
L 123.690069 160.856441 
L 124.125502 170.489735 
L 124.560935 181.178929 
L 124.996368 192.327396 
L 125.431801 203.439158 
L 125.867234 214.150372 
L 126.302667 224.233635 
L 126.7381 233.578728 
L 127.173533 242.157768 
L 127.608966 249.984728 
L 128.044399 257.078704 
L 128.479832 263.437734 
L 128.915265 269.026466 
L 129.350698 273.77754 
L 129.786131 277.604049 
L 130.221564 280.419067 
L 130.656997 282.158017 
L 131.09243 282.800039 
L 131.527863 282.385209 
L 131.963296 281.025106 
L 132.398729 278.904858 
L 132.834162 276.275469 
L 133.269595 273.436277 
L 133.705028 270.708699 
L 134.140461 268.40405 
L 134.575895 266.789644 
L 135.011328 266.058296 
L 135.446761 266.306225 
L 135.882194 267.523193 
L 136.317627 269.596531 
L 136.75306 272.328113 
L 137.188493 275.460964 
L 137.623926 278.710568 
L 138.059359 281.795632 
L 138.494792 284.463903 
L 138.930225 286.510467 
L 139.365658 287.78803 
L 139.801091 288.210558 
L 140.236524 287.752605 
L 140.671957 286.446741 
L 141.10739 284.380593 
L 141.542823 281.693725 
L 141.978256 278.573315 
L 142.413689 275.246858 
L 142.849122 271.970238 
L 143.284555 269.010415 
L 143.719988 266.623452 
L 144.155421 265.030209 
L 144.590854 264.393185 
L 145.026287 264.798428 
L 145.46172 266.245912 
L 145.897153 268.650387 
L 146.332586 271.852832 
L 146.768019 275.640689 
L 147.203452 279.773527 
L 147.638885 284.009963 
L 148.074318 288.131792 
L 148.509751 291.962135 
L 148.945184 295.375823 
L 149.380617 298.301785 
L 149.81605 300.718578 
L 150.251483 302.645079 
L 150.686916 304.128721 
L 151.122349 305.233505 
L 151.557782 306.029461 
L 151.993215 306.584567 
L 152.428648 306.959459 
L 152.864081 307.204711 
L 153.299514 307.360162 
L 153.734947 307.455649 
L 154.17038 307.512497 
" style="fill:none;stroke:#8eba42;stroke-linecap:square;stroke-width:0.3;"/>
   </g>
   <g id="line2d_35">
    <path clip-path="url(#p58c9bc76cb)" d="M 111.502935 307.12289 
L 111.790453 306.811416 
L 112.07797 306.320522 
L 112.365487 305.567105 
L 112.653005 304.441277 
L 112.940522 302.803725 
L 113.22804 300.485883 
L 113.515557 297.294368 
L 113.803074 293.021037 
L 114.090592 287.459526 
L 114.378109 280.428274 
L 114.665627 271.798735 
L 114.953144 261.526033 
L 115.240662 249.677927 
L 115.528179 236.456997 
L 115.815696 222.210846 
L 116.103214 207.426034 
L 116.390731 192.703508 
L 116.678249 178.716185 
L 116.965766 166.152596 
L 117.253283 155.653393 
L 117.540801 147.749414 
L 117.828318 142.810277 
L 118.115836 141.011029 
L 118.403353 142.321413 
L 118.69087 146.518452 
L 118.978388 153.219127 
L 119.265905 161.926792 
L 119.553423 172.083296 
L 119.84094 183.118785 
L 120.128457 194.492743 
L 120.415975 205.722492 
L 120.703492 216.398346 
L 120.99101 226.187358 
L 121.278527 234.829368 
L 121.566044 242.129755 
L 121.853562 247.952851 
L 122.141079 252.218641 
L 122.428597 254.903598 
L 122.716114 256.044684 
L 123.003631 255.744186 
L 123.291149 254.172257 
L 123.578666 251.564161 
L 123.866184 248.210016 
L 124.153701 244.436281 
L 124.441218 240.579957 
L 124.728736 236.958131 
L 125.016253 233.836794 
L 125.303771 231.403394 
L 125.591288 229.747394 
L 125.878805 228.852026 
L 126.166323 228.598796 
L 126.45384 228.784351 
L 126.741358 229.147454 
L 127.028875 229.402409 
L 127.316392 229.274504 
L 127.60391 228.533022 
L 127.891427 227.018039 
L 128.178945 224.658324 
L 128.466462 221.479013 
L 128.753979 217.599011 
L 129.041497 213.219199 
L 129.329014 208.603314 
L 129.616532 204.053862 
L 129.904049 199.885668 
L 130.191566 196.399628 
L 130.479084 193.859068 
L 130.766601 192.47072 
L 131.054119 192.37181 
L 131.341636 193.624066 
L 131.629153 196.214687 
L 131.916671 200.063535 
L 132.204188 205.035128 
L 132.491706 210.953582 
L 132.779223 217.618473 
L 133.06674 224.819768 
L 133.354258 232.350427 
L 133.641775 240.015904 
L 133.929293 247.640419 
L 134.21681 255.070421 
L 134.504327 262.176009 
L 134.791845 268.851132 
L 135.079362 275.013259 
L 135.36688 280.602926 
L 135.654397 285.583234 
L 135.941914 289.939139 
L 136.229432 293.676242 
L 136.516949 296.818821 
L 136.804467 299.407 
L 137.091984 301.493118 
L 137.379501 303.1376 
L 137.667019 304.404689 
L 137.954536 305.358474 
L 138.242054 306.059557 
L 138.529571 306.562601 
L 138.817088 306.914836 
L 139.104606 307.155461 
L 139.392123 307.315804 
L 139.679641 307.42001 
L 139.967158 307.486051 
" style="fill:none;stroke:#ffb5b8;stroke-linecap:square;stroke-width:0.3;"/>
   </g>
   <g id="line2d_36">
    <path clip-path="url(#p58c9bc76cb)" d="M 115.12351 307.318421 
L 115.350918 307.081514 
L 115.578325 306.670611 
L 115.805733 305.98833 
L 116.03314 304.903785 
L 116.260547 303.253318 
L 116.487955 300.848498 
L 116.715362 297.493064 
L 116.94277 293.008414 
L 117.170177 287.264477 
L 117.397585 280.209972 
L 117.624992 271.894571 
L 117.852399 262.476207 
L 118.079807 252.210108 
L 118.307214 241.421378 
L 118.534622 230.468058 
L 118.762029 219.704683 
L 118.989437 209.455695 
L 119.216844 200.003771 
L 119.444251 191.591793 
L 119.671659 184.431427 
L 119.899066 178.708637 
L 120.126474 174.577986 
L 120.353881 172.142832 
L 120.581289 171.42519 
L 120.808696 172.334686 
L 121.036103 174.648387 
L 121.263511 178.011486 
L 121.490918 181.963428 
L 121.718326 185.986693 
L 121.945733 189.56852 
L 122.173141 192.261605 
L 122.400548 193.729933 
L 122.627955 193.770475 
L 122.855363 192.309225 
L 123.08277 189.377991 
L 123.310178 185.083426 
L 123.537585 179.579847 
L 123.764992 173.052589 
L 123.9924 165.711489 
L 124.219807 157.788372 
L 124.447215 149.531139 
L 124.674622 141.190828 
L 124.90203 133.004509 
L 125.129437 125.182119 
L 125.356844 117.905819 
L 125.584252 111.345471 
L 125.811659 105.68551 
L 126.039067 101.151245 
L 126.266474 98.020318 
L 126.493882 96.609179 
L 126.721289 97.233334 
L 126.948696 100.14991 
L 127.176104 105.49773 
L 127.403511 113.251103 
L 127.630919 123.199262 
L 127.858326 134.956013 
L 128.085734 147.996734 
L 128.313141 161.714712 
L 128.540548 175.486688 
L 128.767956 188.737693 
L 128.995363 200.996684 
L 129.222771 211.936095 
L 129.450178 221.39017 
L 129.677586 229.349378 
L 129.904993 235.931831 
L 130.1324 241.337304 
L 130.359808 245.793855 
L 130.587215 249.509472 
L 130.814623 252.63997 
L 131.04203 255.279485 
L 131.269437 257.472714 
L 131.496845 259.241234 
L 131.724252 260.612571 
L 131.95166 261.641455 
L 132.179067 262.417378 
L 132.406475 263.058754 
L 132.633882 263.698881 
L 132.861289 264.470456 
L 133.088697 265.493524 
L 133.316104 266.868015 
L 133.543512 268.668809 
L 133.770919 270.940346 
L 133.998327 273.689433 
L 134.225734 276.877804 
L 134.453141 280.41833 
L 134.680549 284.178899 
L 134.907956 287.995816 
L 135.135364 291.69508 
L 135.362771 295.116784 
L 135.590179 298.136627 
L 135.817586 300.679478 
L 136.044993 302.722617 
L 136.272401 304.289388 
L 136.499808 305.436381 
L 136.727216 306.238229 
L 136.954623 306.773698 
L 137.182031 307.115374 
L 137.409438 307.323756 
L 137.636845 307.445259 
" style="fill:none;stroke:#e24a33;stroke-linecap:square;stroke-width:0.3;"/>
   </g>
   <g id="line2d_37">
    <path clip-path="url(#p58c9bc76cb)" d="M 113.390653 307.534377 
L 113.844218 307.473896 
L 114.297782 307.351939 
L 114.751347 307.118717 
L 115.204911 306.695152 
L 115.658476 305.963534 
L 116.112041 304.759959 
L 116.565605 302.871789 
L 117.01917 300.043963 
L 117.472735 295.997782 
L 117.926299 290.464057 
L 118.379864 283.22921 
L 118.833428 274.187934 
L 119.286993 263.390933 
L 119.740558 251.073223 
L 120.194122 237.65027 
L 120.647687 223.677093 
L 121.101252 209.777703 
L 121.554816 196.563888 
L 122.008381 184.567196 
L 122.461945 174.202388 
L 122.91551 165.766248 
L 123.369075 159.459748 
L 123.822639 155.412636 
L 124.276204 153.692616 
L 124.729769 154.293848 
L 125.183333 157.113801 
L 125.636898 161.935192 
L 126.090462 168.427603 
L 126.544027 176.174189 
L 126.997592 184.718449 
L 127.451156 193.618957 
L 127.904721 202.49761 
L 128.358286 211.068919 
L 128.81185 219.143299 
L 129.265415 226.605366 
L 129.718979 233.376905 
L 130.172544 239.380023 
L 130.626109 244.516277 
L 131.079673 248.671669 
L 131.533238 251.747938 
L 131.986803 253.710799 
L 132.440367 254.638639 
L 132.893932 254.752265 
L 133.347496 254.409057 
L 133.801061 254.054228 
L 134.254626 254.136501 
L 134.70819 255.010614 
L 135.161755 256.857511 
L 135.61532 259.649313 
L 136.068884 263.170373 
L 136.522449 267.084767 
L 136.976013 271.024229 
L 137.429578 274.666463 
L 137.883143 277.782705 
L 138.336707 280.249813 
L 138.790272 282.036972 
L 139.243836 283.183504 
L 139.697401 283.780414 
L 140.150966 283.95853 
L 140.60453 283.877515 
L 141.058095 283.708299 
L 141.51166 283.607197 
L 141.965224 283.688423 
L 142.418789 284.00621 
L 142.872353 284.554668 
L 143.325918 285.284818 
L 143.779483 286.129852 
L 144.233047 287.027311 
L 144.686612 287.931326 
L 145.140177 288.815444 
L 145.593741 289.671155 
L 146.047306 290.506451 
L 146.50087 291.344483 
L 146.954435 292.219079 
L 147.408 293.164761 
L 147.861564 294.203186 
L 148.315129 295.331881 
L 148.768694 296.521398 
L 149.222258 297.722987 
L 149.675823 298.883425 
L 150.129387 299.960246 
L 150.582952 300.93122 
L 151.036517 301.795464 
L 151.490081 302.567627 
L 151.943646 303.26884 
L 152.397211 303.918184 
L 152.850775 304.527068 
L 153.30434 305.097301 
L 153.757904 305.622505 
L 154.211469 306.091798 
L 154.665034 306.494334 
L 155.118598 306.823251 
L 155.572163 307.077917 
L 156.025728 307.264075 
L 156.479292 307.392238 
L 156.932857 307.475207 
L 157.386421 307.525662 
L 157.839986 307.554465 
L 158.293551 307.569894 
" style="fill:none;stroke:#348abd;stroke-linecap:square;stroke-width:0.3;"/>
   </g>
   <g id="line2d_38">
    <path clip-path="url(#p58c9bc76cb)" d="M 111.799211 307.574415 
L 112.723702 307.561585 
L 113.648193 307.534042 
L 114.572684 307.477853 
L 115.497175 307.368954 
L 116.421666 307.168498 
L 117.346157 306.818138 
L 118.270648 306.236818 
L 119.195139 305.321325 
L 120.11963 303.952954 
L 121.044121 302.01178 
L 121.968612 299.398133 
L 122.893103 296.0583 
L 123.817594 292.009203 
L 124.742085 287.355713 
L 125.666577 282.294811 
L 126.591068 277.102769 
L 127.515559 272.1044 
L 128.44005 267.626731 
L 129.364541 263.943358 
L 130.289032 261.219932 
L 131.213523 259.474429 
L 132.138014 258.565793 
L 133.062505 258.219171 
L 133.986996 258.085691 
L 134.911487 257.822817 
L 135.835978 257.173059 
L 136.760469 256.018127 
L 137.68496 254.393398 
L 138.609451 252.460764 
L 139.533942 250.451592 
L 140.458434 248.600833 
L 141.382925 247.095064 
L 142.307416 246.050865 
L 143.231907 245.527344 
L 144.156398 245.562301 
L 145.080889 246.211256 
L 146.00538 247.567208 
L 146.929871 249.747835 
L 147.854362 252.85234 
L 148.778853 256.905067 
L 149.703344 261.810363 
L 150.627835 267.339263 
L 151.552326 273.155819 
L 152.476817 278.875221 
L 153.401308 284.134434 
L 154.325799 288.653104 
L 155.25029 292.268044 
L 156.174782 294.935371 
L 157.099273 296.705507 
L 158.023764 297.683831 
L 158.948255 297.991787 
L 159.872746 297.739911 
L 160.797237 297.017652 
L 161.721728 295.89786 
L 162.646219 294.449232 
L 163.57071 292.749106 
L 164.495201 290.891477 
L 165.419692 288.988801 
L 166.344183 287.168824 
L 167.268674 285.56815 
L 168.193165 284.322983 
L 169.117656 283.556423 
L 170.042147 283.362151 
L 170.966639 283.786692 
L 171.89113 284.815086 
L 172.815621 286.365863 
L 173.740112 288.299405 
L 174.664603 290.439617 
L 175.589094 292.603976 
L 176.513585 294.633896 
L 177.438076 296.417268 
L 178.362567 297.897956 
L 179.287058 299.071632 
L 180.211549 299.971507 
L 181.13604 300.649855 
L 182.060531 301.161219 
L 182.985022 301.551393 
L 183.909513 301.853718 
L 184.834004 302.091731 
L 185.758496 302.2854 
L 186.682987 302.457328 
L 187.607478 302.635676 
L 188.531969 302.852103 
L 189.45646 303.135336 
L 190.380951 303.503035 
L 191.305442 303.95556 
L 192.229933 304.474467 
L 193.154424 305.026561 
L 194.078915 305.572005 
L 195.003406 306.073559 
L 195.927897 306.503918 
L 196.852388 306.849308 
L 197.776879 307.109094 
L 198.70137 307.292516 
L 199.625861 307.414238 
L 200.550352 307.490236 
L 201.474844 307.534911 
L 202.399335 307.559651 
L 203.323826 307.572562 
" style="fill:none;stroke:#988ed5;stroke-linecap:square;stroke-width:0.3;"/>
   </g>
   <g id="line2d_39">
    <path clip-path="url(#p58c9bc76cb)" d="M 107.375858 307.49405 
L 108.294135 307.410991 
L 109.212412 307.264215 
L 110.130688 307.015897 
L 111.048965 306.613845 
L 111.967242 305.991152 
L 112.885518 305.069163 
L 113.803795 303.765064 
L 114.722072 302.004667 
L 115.640349 299.739624 
L 116.558625 296.966441 
L 117.476902 293.742985 
L 118.395179 290.197176 
L 119.313456 286.523109 
L 120.231732 282.962012 
L 121.150009 279.769109 
L 122.068286 277.171431 
L 122.986563 275.324788 
L 123.904839 274.27928 
L 124.823116 273.961426 
L 125.741393 274.177639 
L 126.659669 274.63939 
L 127.577946 275.00619 
L 128.496223 274.939401 
L 129.4145 274.158133 
L 130.332776 272.488089 
L 131.251053 269.894791 
L 132.16933 266.49445 
L 133.087607 262.538812 
L 134.005883 258.374996 
L 134.92416 254.386813 
L 135.842437 250.929195 
L 136.760713 248.270038 
L 137.67899 246.552621 
L 138.597267 245.786488 
L 139.515544 245.866736 
L 140.43382 246.613876 
L 141.352097 247.821527 
L 142.270374 249.298956 
L 143.188651 250.899403 
L 144.106927 252.531298 
L 145.025204 254.155131 
L 145.943481 255.771892 
L 146.861757 257.409137 
L 147.780034 259.108711 
L 148.698311 260.917571 
L 149.616588 262.88126 
L 150.534864 265.038914 
L 151.453141 267.418947 
L 152.371418 270.035183 
L 153.289695 272.88363 
L 154.207971 275.940315 
L 155.126248 279.160592 
L 156.044525 282.480389 
L 156.962801 285.819743 
L 157.881078 289.088786 
L 158.799355 292.195811 
L 159.717632 295.056397 
L 160.635908 297.602024 
L 161.554185 299.786435 
L 162.472462 301.588428 
L 163.390739 303.010601 
L 164.309015 304.074581 
L 165.227292 304.814086 
L 166.145569 305.267532 
L 167.063845 305.471754 
L 167.982122 305.457921 
L 168.900399 305.250072 
L 169.818676 304.866072 
L 170.736952 304.320397 
L 171.655229 303.627868 
L 172.573506 302.807435 
L 173.491783 301.885141 
L 174.410059 300.895652 
L 175.328336 299.882012 
L 176.246613 298.893735 
L 177.164889 297.983681 
L 178.083166 297.204343 
L 179.001443 296.60416 
L 179.91972 296.224162 
L 180.837996 296.094965 
L 181.756273 296.233969 
L 182.67455 296.642787 
L 183.592827 297.305272 
L 184.511103 298.186906 
L 185.42938 299.236413 
L 186.347657 300.390054 
L 187.265933 301.578341 
L 188.18421 302.734076 
L 189.102487 303.800077 
L 190.020764 304.734946 
L 190.93904 305.515795 
L 191.857317 306.13767 
L 192.775594 306.6103 
L 193.693871 306.953304 
L 194.612147 307.191132 
L 195.530424 307.348746 
L 196.448701 307.44862 
L 197.366977 307.509152 
L 198.285254 307.544251 
" style="fill:none;stroke:#777777;stroke-linecap:square;stroke-width:0.3;"/>
   </g>
   <g id="line2d_40">
    <path clip-path="url(#p58c9bc76cb)" d="M 73.832727 307.567818 
L 77.112066 307.553037 
L 80.391405 307.527024 
L 83.670744 307.483129 
L 86.950083 307.412084 
L 90.229421 307.301775 
L 93.50876 307.137438 
L 96.788099 306.902493 
L 100.067438 306.580132 
L 103.346777 306.15566 
L 106.626116 305.619351 
L 109.905455 304.969399 
L 113.184793 304.214338 
L 116.464132 303.374263 
L 119.743471 302.480295 
L 123.02281 301.572037 
L 126.302149 300.693171 
L 129.581488 299.885895 
L 132.860826 299.185221 
L 136.140165 298.614342 
L 139.419504 298.182035 
L 142.698843 297.882574 
L 145.978182 297.697889 
L 149.257521 297.601113 
L 152.53686 297.560359 
L 155.816198 297.541724 
L 159.095537 297.511074 
L 162.374876 297.434905 
L 165.654215 297.281073 
L 168.933554 297.020302 
L 172.212893 296.629017 
L 175.492231 296.093269 
L 178.77157 295.41288 
L 182.050909 294.604517 
L 185.330248 293.702544 
L 188.609587 292.757018 
L 191.888926 291.828971 
L 195.168264 290.983783 
L 198.447603 290.283836 
L 201.726942 289.781768 
L 205.006281 289.515415 
L 208.28562 289.505218 
L 211.564959 289.754329 
L 214.844298 290.251113 
L 218.123636 290.973223 
L 221.402975 291.892007 
L 224.682314 292.976054 
L 227.961653 294.193012 
L 231.240992 295.509582 
L 234.520331 296.890312 
L 237.799669 298.296376 
L 241.079008 299.685512 
L 244.358347 301.013822 
L 247.637686 302.239349 
L 250.917025 303.326607 
L 254.196364 304.250793 
L 257.475702 305.000478 
L 260.755041 305.578009 
L 264.03438 305.997517 
L 267.313719 306.281024 
L 270.593058 306.453589 
L 273.872397 306.538569 
L 277.151736 306.553933 
L 280.431074 306.510308 
L 283.710413 306.411043 
L 286.989752 306.254122 
L 290.269091 306.035421 
L 293.54843 305.752473 
L 296.827769 305.407823 
L 300.107107 305.011119 
L 303.386446 304.579437 
L 306.665785 304.135788 
L 309.945124 303.706259 
L 313.224463 303.31661 
L 316.503802 302.989238 
L 319.78314 302.741223 
L 323.062479 302.583713 
L 326.341818 302.522456 
L 329.621157 302.558874 
L 332.900496 302.691028 
L 336.179835 302.914015 
L 339.459174 303.219721 
L 342.738512 303.596257 
L 346.017851 304.027597 
L 349.29719 304.493951 
L 352.576529 304.973063 
L 355.855868 305.442327 
L 359.135207 305.881247 
L 362.414545 306.273656 
L 365.693884 306.609177 
L 368.973223 306.883645 
L 372.252562 307.098516 
L 375.531901 307.259537 
L 378.81124 307.375068 
L 382.090579 307.454445 
L 385.369917 307.506678 
L 388.649256 307.539601 
L 391.928595 307.559481 
L 395.207934 307.570981 
L 398.487273 307.577356 
" style="fill:none;stroke:#fbc15e;stroke-linecap:square;stroke-width:0.3;"/>
   </g>
   <g id="patch_3">
    <path d="M 57.6 307.584 
L 57.6 41.472 
" style="fill:none;stroke:#ffffff;stroke-linecap:square;stroke-linejoin:miter;"/>
   </g>
   <g id="patch_4">
    <path d="M 414.72 307.584 
L 414.72 41.472 
" style="fill:none;stroke:#ffffff;stroke-linecap:square;stroke-linejoin:miter;"/>
   </g>
   <g id="patch_5">
    <path d="M 57.6 307.584 
L 414.72 307.584 
" style="fill:none;stroke:#ffffff;stroke-linecap:square;stroke-linejoin:miter;"/>
   </g>
   <g id="patch_6">
    <path d="M 57.6 41.472 
L 414.72 41.472 
" style="fill:none;stroke:#ffffff;stroke-linecap:square;stroke-linejoin:miter;"/>
   </g>
   <g id="text_17">
    <!-- kernel density estimation(Gaussian):b3324;b3325;b3326;b3327;b3328;b3329;b3330;b3331;b3332;b3333;b3334;b3335 -->
    <defs>
     <path d="M 9.078125 75.984375 
L 18.109375 75.984375 
L 18.109375 31.109375 
L 44.921875 54.6875 
L 56.390625 54.6875 
L 27.390625 29.109375 
L 57.625 0 
L 45.90625 0 
L 18.109375 26.703125 
L 18.109375 0 
L 9.078125 0 
z
" id="DejaVuSans-6b"/>
     <path d="M 56.203125 29.59375 
L 56.203125 25.203125 
L 14.890625 25.203125 
Q 15.484375 15.921875 20.484375 11.0625 
Q 25.484375 6.203125 34.421875 6.203125 
Q 39.59375 6.203125 44.453125 7.46875 
Q 49.3125 8.734375 54.109375 11.28125 
L 54.109375 2.78125 
Q 49.265625 0.734375 44.1875 -0.34375 
Q 39.109375 -1.421875 33.890625 -1.421875 
Q 20.796875 -1.421875 13.15625 6.1875 
Q 5.515625 13.8125 5.515625 26.8125 
Q 5.515625 40.234375 12.765625 48.109375 
Q 20.015625 56 32.328125 56 
Q 43.359375 56 49.78125 48.890625 
Q 56.203125 41.796875 56.203125 29.59375 
z
M 47.21875 32.234375 
Q 47.125 39.59375 43.09375 43.984375 
Q 39.0625 48.390625 32.421875 48.390625 
Q 24.90625 48.390625 20.390625 44.140625 
Q 15.875 39.890625 15.1875 32.171875 
z
" id="DejaVuSans-65"/>
     <path d="M 41.109375 46.296875 
Q 39.59375 47.171875 37.8125 47.578125 
Q 36.03125 48 33.890625 48 
Q 26.265625 48 22.1875 43.046875 
Q 18.109375 38.09375 18.109375 28.8125 
L 18.109375 0 
L 9.078125 0 
L 9.078125 54.6875 
L 18.109375 54.6875 
L 18.109375 46.1875 
Q 20.953125 51.171875 25.484375 53.578125 
Q 30.03125 56 36.53125 56 
Q 37.453125 56 38.578125 55.875 
Q 39.703125 55.765625 41.0625 55.515625 
z
" id="DejaVuSans-72"/>
     <path d="M 9.421875 75.984375 
L 18.40625 75.984375 
L 18.40625 0 
L 9.421875 0 
z
" id="DejaVuSans-6c"/>
     <path id="DejaVuSans-20"/>
     <path d="M 45.40625 46.390625 
L 45.40625 75.984375 
L 54.390625 75.984375 
L 54.390625 0 
L 45.40625 0 
L 45.40625 8.203125 
Q 42.578125 3.328125 38.25 0.953125 
Q 33.9375 -1.421875 27.875 -1.421875 
Q 17.96875 -1.421875 11.734375 6.484375 
Q 5.515625 14.40625 5.515625 27.296875 
Q 5.515625 40.1875 11.734375 48.09375 
Q 17.96875 56 27.875 56 
Q 33.9375 56 38.25 53.625 
Q 42.578125 51.265625 45.40625 46.390625 
z
M 14.796875 27.296875 
Q 14.796875 17.390625 18.875 11.75 
Q 22.953125 6.109375 30.078125 6.109375 
Q 37.203125 6.109375 41.296875 11.75 
Q 45.40625 17.390625 45.40625 27.296875 
Q 45.40625 37.203125 41.296875 42.84375 
Q 37.203125 48.484375 30.078125 48.484375 
Q 22.953125 48.484375 18.875 42.84375 
Q 14.796875 37.203125 14.796875 27.296875 
z
" id="DejaVuSans-64"/>
     <path d="M 44.28125 53.078125 
L 44.28125 44.578125 
Q 40.484375 46.53125 36.375 47.5 
Q 32.28125 48.484375 27.875 48.484375 
Q 21.1875 48.484375 17.84375 46.4375 
Q 14.5 44.390625 14.5 40.28125 
Q 14.5 37.15625 16.890625 35.375 
Q 19.28125 33.59375 26.515625 31.984375 
L 29.59375 31.296875 
Q 39.15625 29.25 43.1875 25.515625 
Q 47.21875 21.78125 47.21875 15.09375 
Q 47.21875 7.46875 41.1875 3.015625 
Q 35.15625 -1.421875 24.609375 -1.421875 
Q 20.21875 -1.421875 15.453125 -0.5625 
Q 10.6875 0.296875 5.421875 2 
L 5.421875 11.28125 
Q 10.40625 8.6875 15.234375 7.390625 
Q 20.0625 6.109375 24.8125 6.109375 
Q 31.15625 6.109375 34.5625 8.28125 
Q 37.984375 10.453125 37.984375 14.40625 
Q 37.984375 18.0625 35.515625 20.015625 
Q 33.0625 21.96875 24.703125 23.78125 
L 21.578125 24.515625 
Q 13.234375 26.265625 9.515625 29.90625 
Q 5.8125 33.546875 5.8125 39.890625 
Q 5.8125 47.609375 11.28125 51.796875 
Q 16.75 56 26.8125 56 
Q 31.78125 56 36.171875 55.265625 
Q 40.578125 54.546875 44.28125 53.078125 
z
" id="DejaVuSans-73"/>
     <path d="M 9.421875 54.6875 
L 18.40625 54.6875 
L 18.40625 0 
L 9.421875 0 
z
M 9.421875 75.984375 
L 18.40625 75.984375 
L 18.40625 64.59375 
L 9.421875 64.59375 
z
" id="DejaVuSans-69"/>
     <path d="M 32.171875 -5.078125 
Q 28.375 -14.84375 24.75 -17.8125 
Q 21.140625 -20.796875 15.09375 -20.796875 
L 7.90625 -20.796875 
L 7.90625 -13.28125 
L 13.1875 -13.28125 
Q 16.890625 -13.28125 18.9375 -11.515625 
Q 21 -9.765625 23.484375 -3.21875 
L 25.09375 0.875 
L 2.984375 54.6875 
L 12.5 54.6875 
L 29.59375 11.921875 
L 46.6875 54.6875 
L 56.203125 54.6875 
z
" id="DejaVuSans-79"/>
     <path d="M 52 44.1875 
Q 55.375 50.25 60.0625 53.125 
Q 64.75 56 71.09375 56 
Q 79.640625 56 84.28125 50.015625 
Q 88.921875 44.046875 88.921875 33.015625 
L 88.921875 0 
L 79.890625 0 
L 79.890625 32.71875 
Q 79.890625 40.578125 77.09375 44.375 
Q 74.3125 48.1875 68.609375 48.1875 
Q 61.625 48.1875 57.5625 43.546875 
Q 53.515625 38.921875 53.515625 30.90625 
L 53.515625 0 
L 44.484375 0 
L 44.484375 32.71875 
Q 44.484375 40.625 41.703125 44.40625 
Q 38.921875 48.1875 33.109375 48.1875 
Q 26.21875 48.1875 22.15625 43.53125 
Q 18.109375 38.875 18.109375 30.90625 
L 18.109375 0 
L 9.078125 0 
L 9.078125 54.6875 
L 18.109375 54.6875 
L 18.109375 46.1875 
Q 21.1875 51.21875 25.484375 53.609375 
Q 29.78125 56 35.6875 56 
Q 41.65625 56 45.828125 52.96875 
Q 50 49.953125 52 44.1875 
z
" id="DejaVuSans-6d"/>
     <path d="M 34.28125 27.484375 
Q 23.390625 27.484375 19.1875 25 
Q 14.984375 22.515625 14.984375 16.5 
Q 14.984375 11.71875 18.140625 8.90625 
Q 21.296875 6.109375 26.703125 6.109375 
Q 34.1875 6.109375 38.703125 11.40625 
Q 43.21875 16.703125 43.21875 25.484375 
L 43.21875 27.484375 
z
M 52.203125 31.203125 
L 52.203125 0 
L 43.21875 0 
L 43.21875 8.296875 
Q 40.140625 3.328125 35.546875 0.953125 
Q 30.953125 -1.421875 24.3125 -1.421875 
Q 15.921875 -1.421875 10.953125 3.296875 
Q 6 8.015625 6 15.921875 
Q 6 25.140625 12.171875 29.828125 
Q 18.359375 34.515625 30.609375 34.515625 
L 43.21875 34.515625 
L 43.21875 35.40625 
Q 43.21875 41.609375 39.140625 45 
Q 35.0625 48.390625 27.6875 48.390625 
Q 23 48.390625 18.546875 47.265625 
Q 14.109375 46.140625 10.015625 43.890625 
L 10.015625 52.203125 
Q 14.9375 54.109375 19.578125 55.046875 
Q 24.21875 56 28.609375 56 
Q 40.484375 56 46.34375 49.84375 
Q 52.203125 43.703125 52.203125 31.203125 
z
" id="DejaVuSans-61"/>
     <path d="M 59.515625 10.40625 
L 59.515625 29.984375 
L 43.40625 29.984375 
L 43.40625 38.09375 
L 69.28125 38.09375 
L 69.28125 6.78125 
Q 63.578125 2.734375 56.6875 0.65625 
Q 49.8125 -1.421875 42 -1.421875 
Q 24.90625 -1.421875 15.25 8.5625 
Q 5.609375 18.5625 5.609375 36.375 
Q 5.609375 54.25 15.25 64.234375 
Q 24.90625 74.21875 42 74.21875 
Q 49.125 74.21875 55.546875 72.453125 
Q 61.96875 70.703125 67.390625 67.28125 
L 67.390625 56.78125 
Q 61.921875 61.421875 55.765625 63.765625 
Q 49.609375 66.109375 42.828125 66.109375 
Q 29.4375 66.109375 22.71875 58.640625 
Q 16.015625 51.171875 16.015625 36.375 
Q 16.015625 21.625 22.71875 14.15625 
Q 29.4375 6.6875 42.828125 6.6875 
Q 48.046875 6.6875 52.140625 7.59375 
Q 56.25 8.5 59.515625 10.40625 
z
" id="DejaVuSans-47"/>
     <path d="M 11.71875 12.40625 
L 22.015625 12.40625 
L 22.015625 0 
L 11.71875 0 
z
M 11.71875 51.703125 
L 22.015625 51.703125 
L 22.015625 39.3125 
L 11.71875 39.3125 
z
" id="DejaVuSans-3a"/>
     <path d="M 48.6875 27.296875 
Q 48.6875 37.203125 44.609375 42.84375 
Q 40.53125 48.484375 33.40625 48.484375 
Q 26.265625 48.484375 22.1875 42.84375 
Q 18.109375 37.203125 18.109375 27.296875 
Q 18.109375 17.390625 22.1875 11.75 
Q 26.265625 6.109375 33.40625 6.109375 
Q 40.53125 6.109375 44.609375 11.75 
Q 48.6875 17.390625 48.6875 27.296875 
z
M 18.109375 46.390625 
Q 20.953125 51.265625 25.265625 53.625 
Q 29.59375 56 35.59375 56 
Q 45.5625 56 51.78125 48.09375 
Q 58.015625 40.1875 58.015625 27.296875 
Q 58.015625 14.40625 51.78125 6.484375 
Q 45.5625 -1.421875 35.59375 -1.421875 
Q 29.59375 -1.421875 25.265625 0.953125 
Q 20.953125 3.328125 18.109375 8.203125 
L 18.109375 0 
L 9.078125 0 
L 9.078125 75.984375 
L 18.109375 75.984375 
z
" id="DejaVuSans-62"/>
     <path d="M 40.578125 39.3125 
Q 47.65625 37.796875 51.625 33 
Q 55.609375 28.21875 55.609375 21.1875 
Q 55.609375 10.40625 48.1875 4.484375 
Q 40.765625 -1.421875 27.09375 -1.421875 
Q 22.515625 -1.421875 17.65625 -0.515625 
Q 12.796875 0.390625 7.625 2.203125 
L 7.625 11.71875 
Q 11.71875 9.328125 16.59375 8.109375 
Q 21.484375 6.890625 26.8125 6.890625 
Q 36.078125 6.890625 40.9375 10.546875 
Q 45.796875 14.203125 45.796875 21.1875 
Q 45.796875 27.640625 41.28125 31.265625 
Q 36.765625 34.90625 28.71875 34.90625 
L 20.21875 34.90625 
L 20.21875 43.015625 
L 29.109375 43.015625 
Q 36.375 43.015625 40.234375 45.921875 
Q 44.09375 48.828125 44.09375 54.296875 
Q 44.09375 59.90625 40.109375 62.90625 
Q 36.140625 65.921875 28.71875 65.921875 
Q 24.65625 65.921875 20.015625 65.03125 
Q 15.375 64.15625 9.8125 62.3125 
L 9.8125 71.09375 
Q 15.4375 72.65625 20.34375 73.4375 
Q 25.25 74.21875 29.59375 74.21875 
Q 40.828125 74.21875 47.359375 69.109375 
Q 53.90625 64.015625 53.90625 55.328125 
Q 53.90625 49.265625 50.4375 45.09375 
Q 46.96875 40.921875 40.578125 39.3125 
z
" id="DejaVuSans-33"/>
     <path d="M 11.71875 51.703125 
L 22.015625 51.703125 
L 22.015625 39.3125 
L 11.71875 39.3125 
z
M 11.71875 12.40625 
L 22.015625 12.40625 
L 22.015625 4 
L 14.015625 -11.625 
L 7.71875 -11.625 
L 11.71875 4 
z
" id="DejaVuSans-3b"/>
     <path d="M 8.203125 72.90625 
L 55.078125 72.90625 
L 55.078125 68.703125 
L 28.609375 0 
L 18.3125 0 
L 43.21875 64.59375 
L 8.203125 64.59375 
z
" id="DejaVuSans-37"/>
     <path d="M 10.984375 1.515625 
L 10.984375 10.5 
Q 14.703125 8.734375 18.5 7.8125 
Q 22.3125 6.890625 25.984375 6.890625 
Q 35.75 6.890625 40.890625 13.453125 
Q 46.046875 20.015625 46.78125 33.40625 
Q 43.953125 29.203125 39.59375 26.953125 
Q 35.25 24.703125 29.984375 24.703125 
Q 19.046875 24.703125 12.671875 31.3125 
Q 6.296875 37.9375 6.296875 49.421875 
Q 6.296875 60.640625 12.9375 67.421875 
Q 19.578125 74.21875 30.609375 74.21875 
Q 43.265625 74.21875 49.921875 64.515625 
Q 56.59375 54.828125 56.59375 36.375 
Q 56.59375 19.140625 48.40625 8.859375 
Q 40.234375 -1.421875 26.421875 -1.421875 
Q 22.703125 -1.421875 18.890625 -0.6875 
Q 15.09375 0.046875 10.984375 1.515625 
z
M 30.609375 32.421875 
Q 37.25 32.421875 41.125 36.953125 
Q 45.015625 41.5 45.015625 49.421875 
Q 45.015625 57.28125 41.125 61.84375 
Q 37.25 66.40625 30.609375 66.40625 
Q 23.96875 66.40625 20.09375 61.84375 
Q 16.21875 57.28125 16.21875 49.421875 
Q 16.21875 41.5 20.09375 36.953125 
Q 23.96875 32.421875 30.609375 32.421875 
z
" id="DejaVuSans-39"/>
    </defs>
    <g transform="translate(-198.07875 35.472)scale(0.144 -0.144)">
     <use xlink:href="#DejaVuSans-6b"/>
     <use x="57.863281" xlink:href="#DejaVuSans-65"/>
     <use x="119.386719" xlink:href="#DejaVuSans-72"/>
     <use x="160.484375" xlink:href="#DejaVuSans-6e"/>
     <use x="223.863281" xlink:href="#DejaVuSans-65"/>
     <use x="285.386719" xlink:href="#DejaVuSans-6c"/>
     <use x="313.169922" xlink:href="#DejaVuSans-20"/>
     <use x="344.957031" xlink:href="#DejaVuSans-64"/>
     <use x="408.433594" xlink:href="#DejaVuSans-65"/>
     <use x="469.957031" xlink:href="#DejaVuSans-6e"/>
     <use x="533.335938" xlink:href="#DejaVuSans-73"/>
     <use x="585.435547" xlink:href="#DejaVuSans-69"/>
     <use x="613.21875" xlink:href="#DejaVuSans-74"/>
     <use x="652.427734" xlink:href="#DejaVuSans-79"/>
     <use x="711.607422" xlink:href="#DejaVuSans-20"/>
     <use x="743.394531" xlink:href="#DejaVuSans-65"/>
     <use x="804.917969" xlink:href="#DejaVuSans-73"/>
     <use x="857.017578" xlink:href="#DejaVuSans-74"/>
     <use x="896.226562" xlink:href="#DejaVuSans-69"/>
     <use x="924.009766" xlink:href="#DejaVuSans-6d"/>
     <use x="1021.421875" xlink:href="#DejaVuSans-61"/>
     <use x="1082.701172" xlink:href="#DejaVuSans-74"/>
     <use x="1121.910156" xlink:href="#DejaVuSans-69"/>
     <use x="1149.693359" xlink:href="#DejaVuSans-6f"/>
     <use x="1210.875" xlink:href="#DejaVuSans-6e"/>
     <use x="1274.253906" xlink:href="#DejaVuSans-28"/>
     <use x="1313.267578" xlink:href="#DejaVuSans-47"/>
     <use x="1390.757812" xlink:href="#DejaVuSans-61"/>
     <use x="1452.037109" xlink:href="#DejaVuSans-75"/>
     <use x="1515.416016" xlink:href="#DejaVuSans-73"/>
     <use x="1567.515625" xlink:href="#DejaVuSans-73"/>
     <use x="1619.615234" xlink:href="#DejaVuSans-69"/>
     <use x="1647.398438" xlink:href="#DejaVuSans-61"/>
     <use x="1708.677734" xlink:href="#DejaVuSans-6e"/>
     <use x="1772.056641" xlink:href="#DejaVuSans-29"/>
     <use x="1811.070312" xlink:href="#DejaVuSans-3a"/>
     <use x="1844.761719" xlink:href="#DejaVuSans-62"/>
     <use x="1908.238281" xlink:href="#DejaVuSans-33"/>
     <use x="1971.861328" xlink:href="#DejaVuSans-33"/>
     <use x="2035.484375" xlink:href="#DejaVuSans-32"/>
     <use x="2099.107422" xlink:href="#DejaVuSans-34"/>
     <use x="2162.730469" xlink:href="#DejaVuSans-3b"/>
     <use x="2196.421875" xlink:href="#DejaVuSans-62"/>
     <use x="2259.898438" xlink:href="#DejaVuSans-33"/>
     <use x="2323.521484" xlink:href="#DejaVuSans-33"/>
     <use x="2387.144531" xlink:href="#DejaVuSans-32"/>
     <use x="2450.767578" xlink:href="#DejaVuSans-35"/>
     <use x="2514.390625" xlink:href="#DejaVuSans-3b"/>
     <use x="2548.082031" xlink:href="#DejaVuSans-62"/>
     <use x="2611.558594" xlink:href="#DejaVuSans-33"/>
     <use x="2675.181641" xlink:href="#DejaVuSans-33"/>
     <use x="2738.804688" xlink:href="#DejaVuSans-32"/>
     <use x="2802.427734" xlink:href="#DejaVuSans-36"/>
     <use x="2866.050781" xlink:href="#DejaVuSans-3b"/>
     <use x="2899.742188" xlink:href="#DejaVuSans-62"/>
     <use x="2963.21875" xlink:href="#DejaVuSans-33"/>
     <use x="3026.841797" xlink:href="#DejaVuSans-33"/>
     <use x="3090.464844" xlink:href="#DejaVuSans-32"/>
     <use x="3154.087891" xlink:href="#DejaVuSans-37"/>
     <use x="3217.710938" xlink:href="#DejaVuSans-3b"/>
     <use x="3251.402344" xlink:href="#DejaVuSans-62"/>
     <use x="3314.878906" xlink:href="#DejaVuSans-33"/>
     <use x="3378.501953" xlink:href="#DejaVuSans-33"/>
     <use x="3442.125" xlink:href="#DejaVuSans-32"/>
     <use x="3505.748047" xlink:href="#DejaVuSans-38"/>
     <use x="3569.371094" xlink:href="#DejaVuSans-3b"/>
     <use x="3603.0625" xlink:href="#DejaVuSans-62"/>
     <use x="3666.539062" xlink:href="#DejaVuSans-33"/>
     <use x="3730.162109" xlink:href="#DejaVuSans-33"/>
     <use x="3793.785156" xlink:href="#DejaVuSans-32"/>
     <use x="3857.408203" xlink:href="#DejaVuSans-39"/>
     <use x="3921.03125" xlink:href="#DejaVuSans-3b"/>
     <use x="3954.722656" xlink:href="#DejaVuSans-62"/>
     <use x="4018.199219" xlink:href="#DejaVuSans-33"/>
     <use x="4081.822266" xlink:href="#DejaVuSans-33"/>
     <use x="4145.445312" xlink:href="#DejaVuSans-33"/>
     <use x="4209.068359" xlink:href="#DejaVuSans-30"/>
     <use x="4272.691406" xlink:href="#DejaVuSans-3b"/>
     <use x="4306.382812" xlink:href="#DejaVuSans-62"/>
     <use x="4369.859375" xlink:href="#DejaVuSans-33"/>
     <use x="4433.482422" xlink:href="#DejaVuSans-33"/>
     <use x="4497.105469" xlink:href="#DejaVuSans-33"/>
     <use x="4560.728516" xlink:href="#DejaVuSans-31"/>
     <use x="4624.351562" xlink:href="#DejaVuSans-3b"/>
     <use x="4658.042969" xlink:href="#DejaVuSans-62"/>
     <use x="4721.519531" xlink:href="#DejaVuSans-33"/>
     <use x="4785.142578" xlink:href="#DejaVuSans-33"/>
     <use x="4848.765625" xlink:href="#DejaVuSans-33"/>
     <use x="4912.388672" xlink:href="#DejaVuSans-32"/>
     <use x="4976.011719" xlink:href="#DejaVuSans-3b"/>
     <use x="5009.703125" xlink:href="#DejaVuSans-62"/>
     <use x="5073.179688" xlink:href="#DejaVuSans-33"/>
     <use x="5136.802734" xlink:href="#DejaVuSans-33"/>
     <use x="5200.425781" xlink:href="#DejaVuSans-33"/>
     <use x="5264.048828" xlink:href="#DejaVuSans-33"/>
     <use x="5327.671875" xlink:href="#DejaVuSans-3b"/>
     <use x="5361.363281" xlink:href="#DejaVuSans-62"/>
     <use x="5424.839844" xlink:href="#DejaVuSans-33"/>
     <use x="5488.462891" xlink:href="#DejaVuSans-33"/>
     <use x="5552.085938" xlink:href="#DejaVuSans-33"/>
     <use x="5615.708984" xlink:href="#DejaVuSans-34"/>
     <use x="5679.332031" xlink:href="#DejaVuSans-3b"/>
     <use x="5713.023438" xlink:href="#DejaVuSans-62"/>
     <use x="5776.5" xlink:href="#DejaVuSans-33"/>
     <use x="5840.123047" xlink:href="#DejaVuSans-33"/>
     <use x="5903.746094" xlink:href="#DejaVuSans-33"/>
     <use x="5967.369141" xlink:href="#DejaVuSans-35"/>
    </g>
   </g>
   <g id="legend_1">
    <g id="patch_7">
     <path d="M 343.921563 225.6095 
L 407.72 225.6095 
Q 409.72 225.6095 409.72 223.6095 
L 409.72 48.472 
Q 409.72 46.472 407.72 46.472 
L 343.921563 46.472 
Q 341.921563 46.472 341.921563 48.472 
L 341.921563 223.6095 
Q 341.921563 225.6095 343.921563 225.6095 
z
" style="fill:#e5e5e5;opacity:0.8;stroke:#cccccc;stroke-linejoin:miter;stroke-width:0.5;"/>
    </g>
    <g id="line2d_41">
     <path d="M 345.921563 54.570437 
L 365.921563 54.570437 
" style="fill:none;stroke:#e24a33;stroke-linecap:square;stroke-width:0.3;"/>
    </g>
    <g id="line2d_42"/>
    <g id="text_18">
     <!-- b3324 -->
     <g transform="translate(373.921563 58.070437)scale(0.1 -0.1)">
      <use xlink:href="#DejaVuSans-62"/>
      <use x="63.476562" xlink:href="#DejaVuSans-33"/>
      <use x="127.099609" xlink:href="#DejaVuSans-33"/>
      <use x="190.722656" xlink:href="#DejaVuSans-32"/>
      <use x="254.345703" xlink:href="#DejaVuSans-34"/>
     </g>
    </g>
    <g id="line2d_43">
     <path d="M 345.921563 69.248562 
L 365.921563 69.248562 
" style="fill:none;stroke:#348abd;stroke-linecap:square;stroke-width:0.3;"/>
    </g>
    <g id="line2d_44"/>
    <g id="text_19">
     <!-- b3325 -->
     <g transform="translate(373.921563 72.748562)scale(0.1 -0.1)">
      <use xlink:href="#DejaVuSans-62"/>
      <use x="63.476562" xlink:href="#DejaVuSans-33"/>
      <use x="127.099609" xlink:href="#DejaVuSans-33"/>
      <use x="190.722656" xlink:href="#DejaVuSans-32"/>
      <use x="254.345703" xlink:href="#DejaVuSans-35"/>
     </g>
    </g>
    <g id="line2d_45">
     <path d="M 345.921563 83.926688 
L 365.921563 83.926688 
" style="fill:none;stroke:#988ed5;stroke-linecap:square;stroke-width:0.3;"/>
    </g>
    <g id="line2d_46"/>
    <g id="text_20">
     <!-- b3326 -->
     <g transform="translate(373.921563 87.426688)scale(0.1 -0.1)">
      <use xlink:href="#DejaVuSans-62"/>
      <use x="63.476562" xlink:href="#DejaVuSans-33"/>
      <use x="127.099609" xlink:href="#DejaVuSans-33"/>
      <use x="190.722656" xlink:href="#DejaVuSans-32"/>
      <use x="254.345703" xlink:href="#DejaVuSans-36"/>
     </g>
    </g>
    <g id="line2d_47">
     <path d="M 345.921563 98.604812 
L 365.921563 98.604812 
" style="fill:none;stroke:#777777;stroke-linecap:square;stroke-width:0.3;"/>
    </g>
    <g id="line2d_48"/>
    <g id="text_21">
     <!-- b3327 -->
     <g transform="translate(373.921563 102.104812)scale(0.1 -0.1)">
      <use xlink:href="#DejaVuSans-62"/>
      <use x="63.476562" xlink:href="#DejaVuSans-33"/>
      <use x="127.099609" xlink:href="#DejaVuSans-33"/>
      <use x="190.722656" xlink:href="#DejaVuSans-32"/>
      <use x="254.345703" xlink:href="#DejaVuSans-37"/>
     </g>
    </g>
    <g id="line2d_49">
     <path d="M 345.921563 113.282938 
L 365.921563 113.282938 
" style="fill:none;stroke:#fbc15e;stroke-linecap:square;stroke-width:0.3;"/>
    </g>
    <g id="line2d_50"/>
    <g id="text_22">
     <!-- b3328 -->
     <g transform="translate(373.921563 116.782938)scale(0.1 -0.1)">
      <use xlink:href="#DejaVuSans-62"/>
      <use x="63.476562" xlink:href="#DejaVuSans-33"/>
      <use x="127.099609" xlink:href="#DejaVuSans-33"/>
      <use x="190.722656" xlink:href="#DejaVuSans-32"/>
      <use x="254.345703" xlink:href="#DejaVuSans-38"/>
     </g>
    </g>
    <g id="line2d_51">
     <path d="M 345.921563 127.961062 
L 365.921563 127.961062 
" style="fill:none;stroke:#8eba42;stroke-linecap:square;stroke-width:0.3;"/>
    </g>
    <g id="line2d_52"/>
    <g id="text_23">
     <!-- b3329 -->
     <g transform="translate(373.921563 131.461062)scale(0.1 -0.1)">
      <use xlink:href="#DejaVuSans-62"/>
      <use x="63.476562" xlink:href="#DejaVuSans-33"/>
      <use x="127.099609" xlink:href="#DejaVuSans-33"/>
      <use x="190.722656" xlink:href="#DejaVuSans-32"/>
      <use x="254.345703" xlink:href="#DejaVuSans-39"/>
     </g>
    </g>
    <g id="line2d_53">
     <path d="M 345.921563 142.639187 
L 365.921563 142.639187 
" style="fill:none;stroke:#ffb5b8;stroke-linecap:square;stroke-width:0.3;"/>
    </g>
    <g id="line2d_54"/>
    <g id="text_24">
     <!-- b3330 -->
     <g transform="translate(373.921563 146.139187)scale(0.1 -0.1)">
      <use xlink:href="#DejaVuSans-62"/>
      <use x="63.476562" xlink:href="#DejaVuSans-33"/>
      <use x="127.099609" xlink:href="#DejaVuSans-33"/>
      <use x="190.722656" xlink:href="#DejaVuSans-33"/>
      <use x="254.345703" xlink:href="#DejaVuSans-30"/>
     </g>
    </g>
    <g id="line2d_55">
     <path d="M 345.921563 157.317312 
L 365.921563 157.317312 
" style="fill:none;stroke:#e24a33;stroke-linecap:square;stroke-width:0.3;"/>
    </g>
    <g id="line2d_56"/>
    <g id="text_25">
     <!-- b3331 -->
     <g transform="translate(373.921563 160.817312)scale(0.1 -0.1)">
      <use xlink:href="#DejaVuSans-62"/>
      <use x="63.476562" xlink:href="#DejaVuSans-33"/>
      <use x="127.099609" xlink:href="#DejaVuSans-33"/>
      <use x="190.722656" xlink:href="#DejaVuSans-33"/>
      <use x="254.345703" xlink:href="#DejaVuSans-31"/>
     </g>
    </g>
    <g id="line2d_57">
     <path d="M 345.921563 171.995437 
L 365.921563 171.995437 
" style="fill:none;stroke:#348abd;stroke-linecap:square;stroke-width:0.3;"/>
    </g>
    <g id="line2d_58"/>
    <g id="text_26">
     <!-- b3332 -->
     <g transform="translate(373.921563 175.495437)scale(0.1 -0.1)">
      <use xlink:href="#DejaVuSans-62"/>
      <use x="63.476562" xlink:href="#DejaVuSans-33"/>
      <use x="127.099609" xlink:href="#DejaVuSans-33"/>
      <use x="190.722656" xlink:href="#DejaVuSans-33"/>
      <use x="254.345703" xlink:href="#DejaVuSans-32"/>
     </g>
    </g>
    <g id="line2d_59">
     <path d="M 345.921563 186.673562 
L 365.921563 186.673562 
" style="fill:none;stroke:#988ed5;stroke-linecap:square;stroke-width:0.3;"/>
    </g>
    <g id="line2d_60"/>
    <g id="text_27">
     <!-- b3333 -->
     <g transform="translate(373.921563 190.173562)scale(0.1 -0.1)">
      <use xlink:href="#DejaVuSans-62"/>
      <use x="63.476562" xlink:href="#DejaVuSans-33"/>
      <use x="127.099609" xlink:href="#DejaVuSans-33"/>
      <use x="190.722656" xlink:href="#DejaVuSans-33"/>
      <use x="254.345703" xlink:href="#DejaVuSans-33"/>
     </g>
    </g>
    <g id="line2d_61">
     <path d="M 345.921563 201.351687 
L 365.921563 201.351687 
" style="fill:none;stroke:#777777;stroke-linecap:square;stroke-width:0.3;"/>
    </g>
    <g id="line2d_62"/>
    <g id="text_28">
     <!-- b3334 -->
     <g transform="translate(373.921563 204.851687)scale(0.1 -0.1)">
      <use xlink:href="#DejaVuSans-62"/>
      <use x="63.476562" xlink:href="#DejaVuSans-33"/>
      <use x="127.099609" xlink:href="#DejaVuSans-33"/>
      <use x="190.722656" xlink:href="#DejaVuSans-33"/>
      <use x="254.345703" xlink:href="#DejaVuSans-34"/>
     </g>
    </g>
    <g id="line2d_63">
     <path d="M 345.921563 216.029812 
L 365.921563 216.029812 
" style="fill:none;stroke:#fbc15e;stroke-linecap:square;stroke-width:0.3;"/>
    </g>
    <g id="line2d_64"/>
    <g id="text_29">
     <!-- b3335 -->
     <g transform="translate(373.921563 219.529812)scale(0.1 -0.1)">
      <use xlink:href="#DejaVuSans-62"/>
      <use x="63.476562" xlink:href="#DejaVuSans-33"/>
      <use x="127.099609" xlink:href="#DejaVuSans-33"/>
      <use x="190.722656" xlink:href="#DejaVuSans-33"/>
      <use x="254.345703" xlink:href="#DejaVuSans-35"/>
     </g>
    </g>
   </g>
  </g>
 </g>
 <defs>
  <clipPath id="p58c9bc76cb">
   <rect height="266.112" width="357.12" x="57.6" y="41.472"/>
  </clipPath>
 </defs>
</svg>
