<?xml version="1.0" encoding="utf-8" standalone="no"?>
<!DOCTYPE svg PUBLIC "-//W3C//DTD SVG 1.1//EN"
  "http://www.w3.org/Graphics/SVG/1.1/DTD/svg11.dtd">
<!-- Created with matplotlib (http://matplotlib.org/) -->
<svg height="345pt" version="1.1" viewBox="0 0 460 345" width="460pt" xmlns="http://www.w3.org/2000/svg" xmlns:xlink="http://www.w3.org/1999/xlink">
 <defs>
  <style type="text/css">
*{stroke-linecap:butt;stroke-linejoin:round;}
  </style>
 </defs>
 <g id="figure_1">
  <g id="patch_1">
   <path d="M 0 345.6 
L 460.8 345.6 
L 460.8 0 
L 0 0 
z
" style="fill:#ffffff;"/>
  </g>
  <g id="axes_1">
   <g id="patch_2">
    <path d="M 57.6 307.584 
L 414.72 307.584 
L 414.72 41.472 
L 57.6 41.472 
z
" style="fill:#e5e5e5;"/>
   </g>
   <g id="matplotlib.axis_1">
    <g id="xtick_1">
     <g id="line2d_1">
      <path clip-path="url(#p88b2b7046b)" d="M 66.784971 307.584 
L 66.784971 41.472 
" style="fill:none;stroke:#ffffff;stroke-linecap:square;stroke-width:0.8;"/>
     </g>
     <g id="line2d_2">
      <defs>
       <path d="M 0 0 
L 0 3.5 
" id="ma103ada33b" style="stroke:#555555;stroke-width:0.8;"/>
      </defs>
      <g>
       <use style="fill:#555555;stroke:#555555;stroke-width:0.8;" x="66.784971" xlink:href="#ma103ada33b" y="307.584"/>
      </g>
     </g>
     <g id="text_1">
      <!-- −2000 -->
      <defs>
       <path d="M 10.59375 35.5 
L 73.1875 35.5 
L 73.1875 27.203125 
L 10.59375 27.203125 
z
" id="DejaVuSans-2212"/>
       <path d="M 19.1875 8.296875 
L 53.609375 8.296875 
L 53.609375 0 
L 7.328125 0 
L 7.328125 8.296875 
Q 12.9375 14.109375 22.625 23.890625 
Q 32.328125 33.6875 34.8125 36.53125 
Q 39.546875 41.84375 41.421875 45.53125 
Q 43.3125 49.21875 43.3125 52.78125 
Q 43.3125 58.59375 39.234375 62.25 
Q 35.15625 65.921875 28.609375 65.921875 
Q 23.96875 65.921875 18.8125 64.3125 
Q 13.671875 62.703125 7.8125 59.421875 
L 7.8125 69.390625 
Q 13.765625 71.78125 18.9375 73 
Q 24.125 74.21875 28.421875 74.21875 
Q 39.75 74.21875 46.484375 68.546875 
Q 53.21875 62.890625 53.21875 53.421875 
Q 53.21875 48.921875 51.53125 44.890625 
Q 49.859375 40.875 45.40625 35.40625 
Q 44.1875 33.984375 37.640625 27.21875 
Q 31.109375 20.453125 19.1875 8.296875 
z
" id="DejaVuSans-32"/>
       <path d="M 31.78125 66.40625 
Q 24.171875 66.40625 20.328125 58.90625 
Q 16.5 51.421875 16.5 36.375 
Q 16.5 21.390625 20.328125 13.890625 
Q 24.171875 6.390625 31.78125 6.390625 
Q 39.453125 6.390625 43.28125 13.890625 
Q 47.125 21.390625 47.125 36.375 
Q 47.125 51.421875 43.28125 58.90625 
Q 39.453125 66.40625 31.78125 66.40625 
z
M 31.78125 74.21875 
Q 44.046875 74.21875 50.515625 64.515625 
Q 56.984375 54.828125 56.984375 36.375 
Q 56.984375 17.96875 50.515625 8.265625 
Q 44.046875 -1.421875 31.78125 -1.421875 
Q 19.53125 -1.421875 13.0625 8.265625 
Q 6.59375 17.96875 6.59375 36.375 
Q 6.59375 54.828125 13.0625 64.515625 
Q 19.53125 74.21875 31.78125 74.21875 
z
" id="DejaVuSans-30"/>
      </defs>
      <g style="fill:#555555;" transform="translate(49.870127 322.182437)scale(0.1 -0.1)">
       <use xlink:href="#DejaVuSans-2212"/>
       <use x="83.789062" xlink:href="#DejaVuSans-32"/>
       <use x="147.412109" xlink:href="#DejaVuSans-30"/>
       <use x="211.035156" xlink:href="#DejaVuSans-30"/>
       <use x="274.658203" xlink:href="#DejaVuSans-30"/>
      </g>
     </g>
    </g>
    <g id="xtick_2">
     <g id="line2d_3">
      <path clip-path="url(#p88b2b7046b)" d="M 120.57163 307.584 
L 120.57163 41.472 
" style="fill:none;stroke:#ffffff;stroke-linecap:square;stroke-width:0.8;"/>
     </g>
     <g id="line2d_4">
      <g>
       <use style="fill:#555555;stroke:#555555;stroke-width:0.8;" x="120.57163" xlink:href="#ma103ada33b" y="307.584"/>
      </g>
     </g>
     <g id="text_2">
      <!-- 0 -->
      <g style="fill:#555555;" transform="translate(117.39038 322.182437)scale(0.1 -0.1)">
       <use xlink:href="#DejaVuSans-30"/>
      </g>
     </g>
    </g>
    <g id="xtick_3">
     <g id="line2d_5">
      <path clip-path="url(#p88b2b7046b)" d="M 174.358288 307.584 
L 174.358288 41.472 
" style="fill:none;stroke:#ffffff;stroke-linecap:square;stroke-width:0.8;"/>
     </g>
     <g id="line2d_6">
      <g>
       <use style="fill:#555555;stroke:#555555;stroke-width:0.8;" x="174.358288" xlink:href="#ma103ada33b" y="307.584"/>
      </g>
     </g>
     <g id="text_3">
      <!-- 2000 -->
      <g style="fill:#555555;" transform="translate(161.633288 322.182437)scale(0.1 -0.1)">
       <use xlink:href="#DejaVuSans-32"/>
       <use x="63.623047" xlink:href="#DejaVuSans-30"/>
       <use x="127.246094" xlink:href="#DejaVuSans-30"/>
       <use x="190.869141" xlink:href="#DejaVuSans-30"/>
      </g>
     </g>
    </g>
    <g id="xtick_4">
     <g id="line2d_7">
      <path clip-path="url(#p88b2b7046b)" d="M 228.144947 307.584 
L 228.144947 41.472 
" style="fill:none;stroke:#ffffff;stroke-linecap:square;stroke-width:0.8;"/>
     </g>
     <g id="line2d_8">
      <g>
       <use style="fill:#555555;stroke:#555555;stroke-width:0.8;" x="228.144947" xlink:href="#ma103ada33b" y="307.584"/>
      </g>
     </g>
     <g id="text_4">
      <!-- 4000 -->
      <defs>
       <path d="M 37.796875 64.3125 
L 12.890625 25.390625 
L 37.796875 25.390625 
z
M 35.203125 72.90625 
L 47.609375 72.90625 
L 47.609375 25.390625 
L 58.015625 25.390625 
L 58.015625 17.1875 
L 47.609375 17.1875 
L 47.609375 0 
L 37.796875 0 
L 37.796875 17.1875 
L 4.890625 17.1875 
L 4.890625 26.703125 
z
" id="DejaVuSans-34"/>
      </defs>
      <g style="fill:#555555;" transform="translate(215.419947 322.182437)scale(0.1 -0.1)">
       <use xlink:href="#DejaVuSans-34"/>
       <use x="63.623047" xlink:href="#DejaVuSans-30"/>
       <use x="127.246094" xlink:href="#DejaVuSans-30"/>
       <use x="190.869141" xlink:href="#DejaVuSans-30"/>
      </g>
     </g>
    </g>
    <g id="xtick_5">
     <g id="line2d_9">
      <path clip-path="url(#p88b2b7046b)" d="M 281.931606 307.584 
L 281.931606 41.472 
" style="fill:none;stroke:#ffffff;stroke-linecap:square;stroke-width:0.8;"/>
     </g>
     <g id="line2d_10">
      <g>
       <use style="fill:#555555;stroke:#555555;stroke-width:0.8;" x="281.931606" xlink:href="#ma103ada33b" y="307.584"/>
      </g>
     </g>
     <g id="text_5">
      <!-- 6000 -->
      <defs>
       <path d="M 33.015625 40.375 
Q 26.375 40.375 22.484375 35.828125 
Q 18.609375 31.296875 18.609375 23.390625 
Q 18.609375 15.53125 22.484375 10.953125 
Q 26.375 6.390625 33.015625 6.390625 
Q 39.65625 6.390625 43.53125 10.953125 
Q 47.40625 15.53125 47.40625 23.390625 
Q 47.40625 31.296875 43.53125 35.828125 
Q 39.65625 40.375 33.015625 40.375 
z
M 52.59375 71.296875 
L 52.59375 62.3125 
Q 48.875 64.0625 45.09375 64.984375 
Q 41.3125 65.921875 37.59375 65.921875 
Q 27.828125 65.921875 22.671875 59.328125 
Q 17.53125 52.734375 16.796875 39.40625 
Q 19.671875 43.65625 24.015625 45.921875 
Q 28.375 48.1875 33.59375 48.1875 
Q 44.578125 48.1875 50.953125 41.515625 
Q 57.328125 34.859375 57.328125 23.390625 
Q 57.328125 12.15625 50.6875 5.359375 
Q 44.046875 -1.421875 33.015625 -1.421875 
Q 20.359375 -1.421875 13.671875 8.265625 
Q 6.984375 17.96875 6.984375 36.375 
Q 6.984375 53.65625 15.1875 63.9375 
Q 23.390625 74.21875 37.203125 74.21875 
Q 40.921875 74.21875 44.703125 73.484375 
Q 48.484375 72.75 52.59375 71.296875 
z
" id="DejaVuSans-36"/>
      </defs>
      <g style="fill:#555555;" transform="translate(269.206606 322.182437)scale(0.1 -0.1)">
       <use xlink:href="#DejaVuSans-36"/>
       <use x="63.623047" xlink:href="#DejaVuSans-30"/>
       <use x="127.246094" xlink:href="#DejaVuSans-30"/>
       <use x="190.869141" xlink:href="#DejaVuSans-30"/>
      </g>
     </g>
    </g>
    <g id="xtick_6">
     <g id="line2d_11">
      <path clip-path="url(#p88b2b7046b)" d="M 335.718265 307.584 
L 335.718265 41.472 
" style="fill:none;stroke:#ffffff;stroke-linecap:square;stroke-width:0.8;"/>
     </g>
     <g id="line2d_12">
      <g>
       <use style="fill:#555555;stroke:#555555;stroke-width:0.8;" x="335.718265" xlink:href="#ma103ada33b" y="307.584"/>
      </g>
     </g>
     <g id="text_6">
      <!-- 8000 -->
      <defs>
       <path d="M 31.78125 34.625 
Q 24.75 34.625 20.71875 30.859375 
Q 16.703125 27.09375 16.703125 20.515625 
Q 16.703125 13.921875 20.71875 10.15625 
Q 24.75 6.390625 31.78125 6.390625 
Q 38.8125 6.390625 42.859375 10.171875 
Q 46.921875 13.96875 46.921875 20.515625 
Q 46.921875 27.09375 42.890625 30.859375 
Q 38.875 34.625 31.78125 34.625 
z
M 21.921875 38.8125 
Q 15.578125 40.375 12.03125 44.71875 
Q 8.5 49.078125 8.5 55.328125 
Q 8.5 64.0625 14.71875 69.140625 
Q 20.953125 74.21875 31.78125 74.21875 
Q 42.671875 74.21875 48.875 69.140625 
Q 55.078125 64.0625 55.078125 55.328125 
Q 55.078125 49.078125 51.53125 44.71875 
Q 48 40.375 41.703125 38.8125 
Q 48.828125 37.15625 52.796875 32.3125 
Q 56.78125 27.484375 56.78125 20.515625 
Q 56.78125 9.90625 50.3125 4.234375 
Q 43.84375 -1.421875 31.78125 -1.421875 
Q 19.734375 -1.421875 13.25 4.234375 
Q 6.78125 9.90625 6.78125 20.515625 
Q 6.78125 27.484375 10.78125 32.3125 
Q 14.796875 37.15625 21.921875 38.8125 
z
M 18.3125 54.390625 
Q 18.3125 48.734375 21.84375 45.5625 
Q 25.390625 42.390625 31.78125 42.390625 
Q 38.140625 42.390625 41.71875 45.5625 
Q 45.3125 48.734375 45.3125 54.390625 
Q 45.3125 60.0625 41.71875 63.234375 
Q 38.140625 66.40625 31.78125 66.40625 
Q 25.390625 66.40625 21.84375 63.234375 
Q 18.3125 60.0625 18.3125 54.390625 
z
" id="DejaVuSans-38"/>
      </defs>
      <g style="fill:#555555;" transform="translate(322.993265 322.182437)scale(0.1 -0.1)">
       <use xlink:href="#DejaVuSans-38"/>
       <use x="63.623047" xlink:href="#DejaVuSans-30"/>
       <use x="127.246094" xlink:href="#DejaVuSans-30"/>
       <use x="190.869141" xlink:href="#DejaVuSans-30"/>
      </g>
     </g>
    </g>
    <g id="xtick_7">
     <g id="line2d_13">
      <path clip-path="url(#p88b2b7046b)" d="M 389.504924 307.584 
L 389.504924 41.472 
" style="fill:none;stroke:#ffffff;stroke-linecap:square;stroke-width:0.8;"/>
     </g>
     <g id="line2d_14">
      <g>
       <use style="fill:#555555;stroke:#555555;stroke-width:0.8;" x="389.504924" xlink:href="#ma103ada33b" y="307.584"/>
      </g>
     </g>
     <g id="text_7">
      <!-- 10000 -->
      <defs>
       <path d="M 12.40625 8.296875 
L 28.515625 8.296875 
L 28.515625 63.921875 
L 10.984375 60.40625 
L 10.984375 69.390625 
L 28.421875 72.90625 
L 38.28125 72.90625 
L 38.28125 8.296875 
L 54.390625 8.296875 
L 54.390625 0 
L 12.40625 0 
z
" id="DejaVuSans-31"/>
      </defs>
      <g style="fill:#555555;" transform="translate(373.598674 322.182437)scale(0.1 -0.1)">
       <use xlink:href="#DejaVuSans-31"/>
       <use x="63.623047" xlink:href="#DejaVuSans-30"/>
       <use x="127.246094" xlink:href="#DejaVuSans-30"/>
       <use x="190.869141" xlink:href="#DejaVuSans-30"/>
       <use x="254.492188" xlink:href="#DejaVuSans-30"/>
      </g>
     </g>
    </g>
    <g id="text_8">
     <!-- count -->
     <defs>
      <path d="M 48.78125 52.59375 
L 48.78125 44.1875 
Q 44.96875 46.296875 41.140625 47.34375 
Q 37.3125 48.390625 33.40625 48.390625 
Q 24.65625 48.390625 19.8125 42.84375 
Q 14.984375 37.3125 14.984375 27.296875 
Q 14.984375 17.28125 19.8125 11.734375 
Q 24.65625 6.203125 33.40625 6.203125 
Q 37.3125 6.203125 41.140625 7.25 
Q 44.96875 8.296875 48.78125 10.40625 
L 48.78125 2.09375 
Q 45.015625 0.34375 40.984375 -0.53125 
Q 36.96875 -1.421875 32.421875 -1.421875 
Q 20.0625 -1.421875 12.78125 6.34375 
Q 5.515625 14.109375 5.515625 27.296875 
Q 5.515625 40.671875 12.859375 48.328125 
Q 20.21875 56 33.015625 56 
Q 37.15625 56 41.109375 55.140625 
Q 45.0625 54.296875 48.78125 52.59375 
z
" id="DejaVuSans-63"/>
      <path d="M 30.609375 48.390625 
Q 23.390625 48.390625 19.1875 42.75 
Q 14.984375 37.109375 14.984375 27.296875 
Q 14.984375 17.484375 19.15625 11.84375 
Q 23.34375 6.203125 30.609375 6.203125 
Q 37.796875 6.203125 41.984375 11.859375 
Q 46.1875 17.53125 46.1875 27.296875 
Q 46.1875 37.015625 41.984375 42.703125 
Q 37.796875 48.390625 30.609375 48.390625 
z
M 30.609375 56 
Q 42.328125 56 49.015625 48.375 
Q 55.71875 40.765625 55.71875 27.296875 
Q 55.71875 13.875 49.015625 6.21875 
Q 42.328125 -1.421875 30.609375 -1.421875 
Q 18.84375 -1.421875 12.171875 6.21875 
Q 5.515625 13.875 5.515625 27.296875 
Q 5.515625 40.765625 12.171875 48.375 
Q 18.84375 56 30.609375 56 
z
" id="DejaVuSans-6f"/>
      <path d="M 8.5 21.578125 
L 8.5 54.6875 
L 17.484375 54.6875 
L 17.484375 21.921875 
Q 17.484375 14.15625 20.5 10.265625 
Q 23.53125 6.390625 29.59375 6.390625 
Q 36.859375 6.390625 41.078125 11.03125 
Q 45.3125 15.671875 45.3125 23.6875 
L 45.3125 54.6875 
L 54.296875 54.6875 
L 54.296875 0 
L 45.3125 0 
L 45.3125 8.40625 
Q 42.046875 3.421875 37.71875 1 
Q 33.40625 -1.421875 27.6875 -1.421875 
Q 18.265625 -1.421875 13.375 4.4375 
Q 8.5 10.296875 8.5 21.578125 
z
M 31.109375 56 
z
" id="DejaVuSans-75"/>
      <path d="M 54.890625 33.015625 
L 54.890625 0 
L 45.90625 0 
L 45.90625 32.71875 
Q 45.90625 40.484375 42.875 44.328125 
Q 39.84375 48.1875 33.796875 48.1875 
Q 26.515625 48.1875 22.3125 43.546875 
Q 18.109375 38.921875 18.109375 30.90625 
L 18.109375 0 
L 9.078125 0 
L 9.078125 54.6875 
L 18.109375 54.6875 
L 18.109375 46.1875 
Q 21.34375 51.125 25.703125 53.5625 
Q 30.078125 56 35.796875 56 
Q 45.21875 56 50.046875 50.171875 
Q 54.890625 44.34375 54.890625 33.015625 
z
" id="DejaVuSans-6e"/>
      <path d="M 18.3125 70.21875 
L 18.3125 54.6875 
L 36.8125 54.6875 
L 36.8125 47.703125 
L 18.3125 47.703125 
L 18.3125 18.015625 
Q 18.3125 11.328125 20.140625 9.421875 
Q 21.96875 7.515625 27.59375 7.515625 
L 36.8125 7.515625 
L 36.8125 0 
L 27.59375 0 
Q 17.1875 0 13.234375 3.875 
Q 9.28125 7.765625 9.28125 18.015625 
L 9.28125 47.703125 
L 2.6875 47.703125 
L 2.6875 54.6875 
L 9.28125 54.6875 
L 9.28125 70.21875 
z
" id="DejaVuSans-74"/>
     </defs>
     <g style="fill:#555555;" transform="translate(219.2325 337.38025)scale(0.12 -0.12)">
      <use xlink:href="#DejaVuSans-63"/>
      <use x="54.980469" xlink:href="#DejaVuSans-6f"/>
      <use x="116.162109" xlink:href="#DejaVuSans-75"/>
      <use x="179.541016" xlink:href="#DejaVuSans-6e"/>
      <use x="242.919922" xlink:href="#DejaVuSans-74"/>
     </g>
    </g>
   </g>
   <g id="matplotlib.axis_2">
    <g id="ytick_1">
     <g id="line2d_15">
      <path clip-path="url(#p88b2b7046b)" d="M 57.6 307.584 
L 414.72 307.584 
" style="fill:none;stroke:#ffffff;stroke-linecap:square;stroke-width:0.8;"/>
     </g>
     <g id="line2d_16">
      <defs>
       <path d="M 0 0 
L -3.5 0 
" id="m24ed463524" style="stroke:#555555;stroke-width:0.8;"/>
      </defs>
      <g>
       <use style="fill:#555555;stroke:#555555;stroke-width:0.8;" x="57.6" xlink:href="#m24ed463524" y="307.584"/>
      </g>
     </g>
     <g id="text_9">
      <!-- 0.0000 -->
      <defs>
       <path d="M 10.6875 12.40625 
L 21 12.40625 
L 21 0 
L 10.6875 0 
z
" id="DejaVuSans-2e"/>
      </defs>
      <g style="fill:#555555;" transform="translate(15.609375 311.383219)scale(0.1 -0.1)">
       <use xlink:href="#DejaVuSans-30"/>
       <use x="63.623047" xlink:href="#DejaVuSans-2e"/>
       <use x="95.410156" xlink:href="#DejaVuSans-30"/>
       <use x="159.033203" xlink:href="#DejaVuSans-30"/>
       <use x="222.65625" xlink:href="#DejaVuSans-30"/>
       <use x="286.279297" xlink:href="#DejaVuSans-30"/>
      </g>
     </g>
    </g>
    <g id="ytick_2">
     <g id="line2d_17">
      <path clip-path="url(#p88b2b7046b)" d="M 57.6 277.723656 
L 414.72 277.723656 
" style="fill:none;stroke:#ffffff;stroke-linecap:square;stroke-width:0.8;"/>
     </g>
     <g id="line2d_18">
      <g>
       <use style="fill:#555555;stroke:#555555;stroke-width:0.8;" x="57.6" xlink:href="#m24ed463524" y="277.723656"/>
      </g>
     </g>
     <g id="text_10">
      <!-- 0.0001 -->
      <g style="fill:#555555;" transform="translate(15.609375 281.522875)scale(0.1 -0.1)">
       <use xlink:href="#DejaVuSans-30"/>
       <use x="63.623047" xlink:href="#DejaVuSans-2e"/>
       <use x="95.410156" xlink:href="#DejaVuSans-30"/>
       <use x="159.033203" xlink:href="#DejaVuSans-30"/>
       <use x="222.65625" xlink:href="#DejaVuSans-30"/>
       <use x="286.279297" xlink:href="#DejaVuSans-31"/>
      </g>
     </g>
    </g>
    <g id="ytick_3">
     <g id="line2d_19">
      <path clip-path="url(#p88b2b7046b)" d="M 57.6 247.863312 
L 414.72 247.863312 
" style="fill:none;stroke:#ffffff;stroke-linecap:square;stroke-width:0.8;"/>
     </g>
     <g id="line2d_20">
      <g>
       <use style="fill:#555555;stroke:#555555;stroke-width:0.8;" x="57.6" xlink:href="#m24ed463524" y="247.863312"/>
      </g>
     </g>
     <g id="text_11">
      <!-- 0.0002 -->
      <g style="fill:#555555;" transform="translate(15.609375 251.662531)scale(0.1 -0.1)">
       <use xlink:href="#DejaVuSans-30"/>
       <use x="63.623047" xlink:href="#DejaVuSans-2e"/>
       <use x="95.410156" xlink:href="#DejaVuSans-30"/>
       <use x="159.033203" xlink:href="#DejaVuSans-30"/>
       <use x="222.65625" xlink:href="#DejaVuSans-30"/>
       <use x="286.279297" xlink:href="#DejaVuSans-32"/>
      </g>
     </g>
    </g>
    <g id="ytick_4">
     <g id="line2d_21">
      <path clip-path="url(#p88b2b7046b)" d="M 57.6 218.002968 
L 414.72 218.002968 
" style="fill:none;stroke:#ffffff;stroke-linecap:square;stroke-width:0.8;"/>
     </g>
     <g id="line2d_22">
      <g>
       <use style="fill:#555555;stroke:#555555;stroke-width:0.8;" x="57.6" xlink:href="#m24ed463524" y="218.002968"/>
      </g>
     </g>
     <g id="text_12">
      <!-- 0.0003 -->
      <defs>
       <path d="M 40.578125 39.3125 
Q 47.65625 37.796875 51.625 33 
Q 55.609375 28.21875 55.609375 21.1875 
Q 55.609375 10.40625 48.1875 4.484375 
Q 40.765625 -1.421875 27.09375 -1.421875 
Q 22.515625 -1.421875 17.65625 -0.515625 
Q 12.796875 0.390625 7.625 2.203125 
L 7.625 11.71875 
Q 11.71875 9.328125 16.59375 8.109375 
Q 21.484375 6.890625 26.8125 6.890625 
Q 36.078125 6.890625 40.9375 10.546875 
Q 45.796875 14.203125 45.796875 21.1875 
Q 45.796875 27.640625 41.28125 31.265625 
Q 36.765625 34.90625 28.71875 34.90625 
L 20.21875 34.90625 
L 20.21875 43.015625 
L 29.109375 43.015625 
Q 36.375 43.015625 40.234375 45.921875 
Q 44.09375 48.828125 44.09375 54.296875 
Q 44.09375 59.90625 40.109375 62.90625 
Q 36.140625 65.921875 28.71875 65.921875 
Q 24.65625 65.921875 20.015625 65.03125 
Q 15.375 64.15625 9.8125 62.3125 
L 9.8125 71.09375 
Q 15.4375 72.65625 20.34375 73.4375 
Q 25.25 74.21875 29.59375 74.21875 
Q 40.828125 74.21875 47.359375 69.109375 
Q 53.90625 64.015625 53.90625 55.328125 
Q 53.90625 49.265625 50.4375 45.09375 
Q 46.96875 40.921875 40.578125 39.3125 
z
" id="DejaVuSans-33"/>
      </defs>
      <g style="fill:#555555;" transform="translate(15.609375 221.802186)scale(0.1 -0.1)">
       <use xlink:href="#DejaVuSans-30"/>
       <use x="63.623047" xlink:href="#DejaVuSans-2e"/>
       <use x="95.410156" xlink:href="#DejaVuSans-30"/>
       <use x="159.033203" xlink:href="#DejaVuSans-30"/>
       <use x="222.65625" xlink:href="#DejaVuSans-30"/>
       <use x="286.279297" xlink:href="#DejaVuSans-33"/>
      </g>
     </g>
    </g>
    <g id="ytick_5">
     <g id="line2d_23">
      <path clip-path="url(#p88b2b7046b)" d="M 57.6 188.142624 
L 414.72 188.142624 
" style="fill:none;stroke:#ffffff;stroke-linecap:square;stroke-width:0.8;"/>
     </g>
     <g id="line2d_24">
      <g>
       <use style="fill:#555555;stroke:#555555;stroke-width:0.8;" x="57.6" xlink:href="#m24ed463524" y="188.142624"/>
      </g>
     </g>
     <g id="text_13">
      <!-- 0.0004 -->
      <g style="fill:#555555;" transform="translate(15.609375 191.941842)scale(0.1 -0.1)">
       <use xlink:href="#DejaVuSans-30"/>
       <use x="63.623047" xlink:href="#DejaVuSans-2e"/>
       <use x="95.410156" xlink:href="#DejaVuSans-30"/>
       <use x="159.033203" xlink:href="#DejaVuSans-30"/>
       <use x="222.65625" xlink:href="#DejaVuSans-30"/>
       <use x="286.279297" xlink:href="#DejaVuSans-34"/>
      </g>
     </g>
    </g>
    <g id="ytick_6">
     <g id="line2d_25">
      <path clip-path="url(#p88b2b7046b)" d="M 57.6 158.28228 
L 414.72 158.28228 
" style="fill:none;stroke:#ffffff;stroke-linecap:square;stroke-width:0.8;"/>
     </g>
     <g id="line2d_26">
      <g>
       <use style="fill:#555555;stroke:#555555;stroke-width:0.8;" x="57.6" xlink:href="#m24ed463524" y="158.28228"/>
      </g>
     </g>
     <g id="text_14">
      <!-- 0.0005 -->
      <defs>
       <path d="M 10.796875 72.90625 
L 49.515625 72.90625 
L 49.515625 64.59375 
L 19.828125 64.59375 
L 19.828125 46.734375 
Q 21.96875 47.46875 24.109375 47.828125 
Q 26.265625 48.1875 28.421875 48.1875 
Q 40.625 48.1875 47.75 41.5 
Q 54.890625 34.8125 54.890625 23.390625 
Q 54.890625 11.625 47.5625 5.09375 
Q 40.234375 -1.421875 26.90625 -1.421875 
Q 22.3125 -1.421875 17.546875 -0.640625 
Q 12.796875 0.140625 7.71875 1.703125 
L 7.71875 11.625 
Q 12.109375 9.234375 16.796875 8.0625 
Q 21.484375 6.890625 26.703125 6.890625 
Q 35.15625 6.890625 40.078125 11.328125 
Q 45.015625 15.765625 45.015625 23.390625 
Q 45.015625 31 40.078125 35.4375 
Q 35.15625 39.890625 26.703125 39.890625 
Q 22.75 39.890625 18.8125 39.015625 
Q 14.890625 38.140625 10.796875 36.28125 
z
" id="DejaVuSans-35"/>
      </defs>
      <g style="fill:#555555;" transform="translate(15.609375 162.081498)scale(0.1 -0.1)">
       <use xlink:href="#DejaVuSans-30"/>
       <use x="63.623047" xlink:href="#DejaVuSans-2e"/>
       <use x="95.410156" xlink:href="#DejaVuSans-30"/>
       <use x="159.033203" xlink:href="#DejaVuSans-30"/>
       <use x="222.65625" xlink:href="#DejaVuSans-30"/>
       <use x="286.279297" xlink:href="#DejaVuSans-35"/>
      </g>
     </g>
    </g>
    <g id="ytick_7">
     <g id="line2d_27">
      <path clip-path="url(#p88b2b7046b)" d="M 57.6 128.421935 
L 414.72 128.421935 
" style="fill:none;stroke:#ffffff;stroke-linecap:square;stroke-width:0.8;"/>
     </g>
     <g id="line2d_28">
      <g>
       <use style="fill:#555555;stroke:#555555;stroke-width:0.8;" x="57.6" xlink:href="#m24ed463524" y="128.421935"/>
      </g>
     </g>
     <g id="text_15">
      <!-- 0.0006 -->
      <g style="fill:#555555;" transform="translate(15.609375 132.221154)scale(0.1 -0.1)">
       <use xlink:href="#DejaVuSans-30"/>
       <use x="63.623047" xlink:href="#DejaVuSans-2e"/>
       <use x="95.410156" xlink:href="#DejaVuSans-30"/>
       <use x="159.033203" xlink:href="#DejaVuSans-30"/>
       <use x="222.65625" xlink:href="#DejaVuSans-30"/>
       <use x="286.279297" xlink:href="#DejaVuSans-36"/>
      </g>
     </g>
    </g>
    <g id="ytick_8">
     <g id="line2d_29">
      <path clip-path="url(#p88b2b7046b)" d="M 57.6 98.561591 
L 414.72 98.561591 
" style="fill:none;stroke:#ffffff;stroke-linecap:square;stroke-width:0.8;"/>
     </g>
     <g id="line2d_30">
      <g>
       <use style="fill:#555555;stroke:#555555;stroke-width:0.8;" x="57.6" xlink:href="#m24ed463524" y="98.561591"/>
      </g>
     </g>
     <g id="text_16">
      <!-- 0.0007 -->
      <defs>
       <path d="M 8.203125 72.90625 
L 55.078125 72.90625 
L 55.078125 68.703125 
L 28.609375 0 
L 18.3125 0 
L 43.21875 64.59375 
L 8.203125 64.59375 
z
" id="DejaVuSans-37"/>
      </defs>
      <g style="fill:#555555;" transform="translate(15.609375 102.36081)scale(0.1 -0.1)">
       <use xlink:href="#DejaVuSans-30"/>
       <use x="63.623047" xlink:href="#DejaVuSans-2e"/>
       <use x="95.410156" xlink:href="#DejaVuSans-30"/>
       <use x="159.033203" xlink:href="#DejaVuSans-30"/>
       <use x="222.65625" xlink:href="#DejaVuSans-30"/>
       <use x="286.279297" xlink:href="#DejaVuSans-37"/>
      </g>
     </g>
    </g>
    <g id="ytick_9">
     <g id="line2d_31">
      <path clip-path="url(#p88b2b7046b)" d="M 57.6 68.701247 
L 414.72 68.701247 
" style="fill:none;stroke:#ffffff;stroke-linecap:square;stroke-width:0.8;"/>
     </g>
     <g id="line2d_32">
      <g>
       <use style="fill:#555555;stroke:#555555;stroke-width:0.8;" x="57.6" xlink:href="#m24ed463524" y="68.701247"/>
      </g>
     </g>
     <g id="text_17">
      <!-- 0.0008 -->
      <g style="fill:#555555;" transform="translate(15.609375 72.500466)scale(0.1 -0.1)">
       <use xlink:href="#DejaVuSans-30"/>
       <use x="63.623047" xlink:href="#DejaVuSans-2e"/>
       <use x="95.410156" xlink:href="#DejaVuSans-30"/>
       <use x="159.033203" xlink:href="#DejaVuSans-30"/>
       <use x="222.65625" xlink:href="#DejaVuSans-30"/>
       <use x="286.279297" xlink:href="#DejaVuSans-38"/>
      </g>
     </g>
    </g>
    <g id="text_18">
     <!-- f(count) -->
     <defs>
      <path d="M 37.109375 75.984375 
L 37.109375 68.5 
L 28.515625 68.5 
Q 23.6875 68.5 21.796875 66.546875 
Q 19.921875 64.59375 19.921875 59.515625 
L 19.921875 54.6875 
L 34.71875 54.6875 
L 34.71875 47.703125 
L 19.921875 47.703125 
L 19.921875 0 
L 10.890625 0 
L 10.890625 47.703125 
L 2.296875 47.703125 
L 2.296875 54.6875 
L 10.890625 54.6875 
L 10.890625 58.5 
Q 10.890625 67.625 15.140625 71.796875 
Q 19.390625 75.984375 28.609375 75.984375 
z
" id="DejaVuSans-66"/>
      <path d="M 31 75.875 
Q 24.46875 64.65625 21.28125 53.65625 
Q 18.109375 42.671875 18.109375 31.390625 
Q 18.109375 20.125 21.3125 9.0625 
Q 24.515625 -2 31 -13.1875 
L 23.1875 -13.1875 
Q 15.875 -1.703125 12.234375 9.375 
Q 8.59375 20.453125 8.59375 31.390625 
Q 8.59375 42.28125 12.203125 53.3125 
Q 15.828125 64.359375 23.1875 75.875 
z
" id="DejaVuSans-28"/>
      <path d="M 8.015625 75.875 
L 15.828125 75.875 
Q 23.140625 64.359375 26.78125 53.3125 
Q 30.421875 42.28125 30.421875 31.390625 
Q 30.421875 20.453125 26.78125 9.375 
Q 23.140625 -1.703125 15.828125 -13.1875 
L 8.015625 -13.1875 
Q 14.5 -2 17.703125 9.0625 
Q 20.90625 20.125 20.90625 31.390625 
Q 20.90625 42.671875 17.703125 53.65625 
Q 14.5 64.65625 8.015625 75.875 
z
" id="DejaVuSans-29"/>
     </defs>
     <g style="fill:#555555;" transform="translate(9.11375 198.249562)rotate(-90)scale(0.12 -0.12)">
      <use xlink:href="#DejaVuSans-66"/>
      <use x="35.205078" xlink:href="#DejaVuSans-28"/>
      <use x="74.21875" xlink:href="#DejaVuSans-63"/>
      <use x="129.199219" xlink:href="#DejaVuSans-6f"/>
      <use x="190.380859" xlink:href="#DejaVuSans-75"/>
      <use x="253.759766" xlink:href="#DejaVuSans-6e"/>
      <use x="317.138672" xlink:href="#DejaVuSans-74"/>
      <use x="356.347656" xlink:href="#DejaVuSans-29"/>
     </g>
    </g>
   </g>
   <g id="line2d_33">
    <path clip-path="url(#p88b2b7046b)" d="M 84.077405 307.558963 
L 87.253262 307.542878 
L 90.429119 307.517847 
L 93.604976 307.479733 
L 96.780834 307.422939 
L 99.956691 307.340086 
L 103.132548 307.221705 
L 106.308405 307.055965 
L 109.484263 306.828467 
L 112.66012 306.522123 
L 115.835977 306.117158 
L 119.011834 305.591242 
L 122.187692 304.919751 
L 125.363549 304.076189 
L 128.539406 303.032773 
L 131.715263 301.761226 
L 134.891121 300.233823 
L 138.066978 298.424775 
L 141.242835 296.312027 
L 144.418692 293.879489 
L 147.59455 291.119732 
L 150.770407 288.036984 
L 153.946264 284.650249 
L 157.122121 280.996163 
L 160.297979 277.131177 
L 163.473836 273.132601 
L 166.649693 269.098071 
L 169.825551 265.143163 
L 173.001408 261.397032 
L 176.177265 257.996215 
L 179.353122 255.076952 
L 182.52898 252.766595 
L 185.704837 251.174829 
L 188.880694 250.385477 
L 192.056551 250.449672 
L 195.232409 251.381085 
L 198.408266 253.153729 
L 201.584123 255.702671 
L 204.75998 258.927688 
L 207.935838 262.699648 
L 211.111695 266.869097 
L 214.287552 271.276287 
L 217.463409 275.761698 
L 220.639267 280.17606 
L 223.815124 284.388894 
L 226.990981 288.294834 
L 230.166838 291.817214 
L 233.342696 294.908792 
L 236.518553 297.549784 
L 239.69441 299.743686 
L 242.870267 301.511539 
L 246.046125 302.885362 
L 249.221982 303.901467 
L 252.397839 304.594244 
L 255.573696 304.990858 
L 258.749554 305.10717 
L 261.925411 304.945026 
L 265.101268 304.491037 
L 268.277125 303.716882 
L 271.452983 302.58116 
L 274.62884 301.032824 
L 277.804697 299.016139 
L 280.980554 296.477048 
L 284.156412 293.370677 
L 287.332269 289.669537 
L 290.508126 285.371789 
L 293.683983 280.508784 
L 296.859841 275.150974 
L 300.035698 269.411285 
L 303.211555 263.445158 
L 306.387412 257.446655 
L 309.56327 251.640421 
L 312.739127 246.269671 
L 315.914984 241.58087 
L 319.090841 237.806263 
L 322.266699 235.145787 
L 325.442556 233.750196 
L 328.618413 233.707277 
L 331.79427 235.032868 
L 334.970128 237.667945 
L 338.145985 241.482381 
L 341.321842 246.285169 
L 344.497699 251.840072 
L 347.673557 257.884941 
L 350.849414 264.152486 
L 354.025271 270.390141 
L 357.201128 276.376888 
L 360.376986 281.935456 
L 363.552843 286.93904 
L 366.7287 291.312483 
L 369.904557 295.028603 
L 373.080415 298.100856 
L 376.256272 300.573806 
L 379.432129 302.512866 
L 382.607986 303.994583 
L 385.783844 305.098364 
L 388.959701 305.900158 
L 392.135558 306.468229 
L 395.311415 306.86086 
L 398.487273 307.125638 
" style="fill:none;stroke:#e24a33;stroke-linecap:square;stroke-width:0.3;"/>
   </g>
   <g id="line2d_34">
    <path clip-path="url(#p88b2b7046b)" d="M 101.533203 307.541325 
L 103.921507 307.491196 
L 106.30981 307.391296 
L 108.698114 307.201463 
L 111.086417 306.857135 
L 113.474721 306.260354 
L 115.863024 305.27113 
L 118.251328 303.70175 
L 120.639631 301.317649 
L 123.027935 297.848991 
L 125.416238 293.016576 
L 127.804542 286.573561 
L 130.192846 278.360565 
L 132.581149 268.366497 
L 134.969453 256.782297 
L 137.357756 244.031674 
L 139.74606 230.763791 
L 142.134363 217.798707 
L 144.522667 206.02672 
L 146.91097 196.27546 
L 149.299274 189.170308 
L 151.687577 185.020702 
L 154.075881 183.763627 
L 156.464185 184.984554 
L 158.852488 188.016561 
L 161.240792 192.095452 
L 163.629095 196.53017 
L 166.017399 200.841397 
L 168.405702 204.830551 
L 170.794006 208.564054 
L 173.182309 212.285362 
L 175.570613 216.289297 
L 177.958916 220.801622 
L 180.34722 225.899434 
L 182.735524 231.489349 
L 185.123827 237.339121 
L 187.512131 243.142876 
L 189.900434 248.594985 
L 192.288738 253.452161 
L 194.677041 257.572876 
L 197.065345 260.932177 
L 199.453648 263.615232 
L 201.841952 265.794435 
L 204.230255 267.694721 
L 206.618559 269.552111 
L 209.006863 271.571751 
L 211.395166 273.892949 
L 213.78347 276.568249 
L 216.171773 279.560838 
L 218.560077 282.76004 
L 220.94838 286.009999 
L 223.336684 289.143459 
L 225.724987 292.012098 
L 228.113291 294.506988 
L 230.501594 296.566757 
L 232.889898 298.175159 
L 235.278202 299.352617 
L 237.666505 300.146725 
L 240.054809 300.624891 
L 242.443112 300.8693 
L 244.831416 300.97185 
L 247.219719 301.026044 
L 249.608023 301.114401 
L 251.996326 301.292861 
L 254.38463 301.576353 
L 256.772933 301.93061 
L 259.161237 302.273907 
L 261.549541 302.489413 
L 263.937844 302.445667 
L 266.326148 302.020623 
L 268.714451 301.124483 
L 271.102755 299.717546 
L 273.491058 297.820919 
L 275.879362 295.519295 
L 278.267665 292.955821 
L 280.655969 290.319555 
L 283.044272 287.82643 
L 285.432576 285.695335 
L 287.82088 284.121933 
L 290.209183 283.253938 
L 292.597487 283.172087 
L 294.98579 283.880619 
L 297.374094 285.309218 
L 299.762397 287.325805 
L 302.150701 289.757079 
L 304.539004 292.412342 
L 306.927308 295.106286 
L 309.315611 297.67763 
L 311.703915 300.001986 
L 314.092219 301.99845 
L 316.480522 303.630124 
L 318.868826 304.899259 
L 321.257129 305.838312 
L 323.645433 306.498768 
L 326.033736 306.939922 
L 328.42204 307.219537 
L 330.810343 307.387582 
L 333.198647 307.483282 
L 335.58695 307.5349 
L 337.975254 307.561259 
" style="fill:none;stroke:#348abd;stroke-linecap:square;stroke-width:0.3;"/>
   </g>
   <g id="line2d_35">
    <path clip-path="url(#p88b2b7046b)" d="M 73.832727 307.355437 
L 77.029468 307.186133 
L 80.226208 306.911468 
L 83.422948 306.480007 
L 86.619689 305.823901 
L 89.816429 304.858354 
L 93.013169 303.483722 
L 96.20991 301.591264 
L 99.40665 299.073211 
L 102.60339 295.837118 
L 105.800131 291.823428 
L 108.996871 287.024015 
L 112.193611 281.498419 
L 115.390351 275.383941 
L 118.587092 268.896065 
L 121.783832 262.316888 
L 124.980572 255.97139 
L 128.177313 250.193919 
L 131.374053 245.289737 
L 134.570793 241.498008 
L 137.767534 238.962864 
L 140.964274 237.717873 
L 144.161014 237.68662 
L 147.357755 238.698908 
L 150.554495 240.519045 
L 153.751235 242.880597 
L 156.947976 245.521287 
L 160.144716 248.212489 
L 163.341456 250.779565 
L 166.538197 253.111551 
L 169.734937 255.160809 
L 172.931677 256.934714 
L 176.128418 258.482132 
L 179.325158 259.877453 
L 182.521898 261.204532 
L 185.718639 262.542353 
L 188.915379 263.953756 
L 192.112119 265.478173 
L 195.30886 267.128938 
L 198.5056 268.895215 
L 201.70234 270.747974 
L 204.899081 272.648745 
L 208.095821 274.559283 
L 211.292561 276.450085 
L 214.489302 278.3059 
L 217.686042 280.127113 
L 220.882782 281.926891 
L 224.079523 283.725 
L 227.276263 285.540018 
L 230.473003 287.38193 
L 233.669744 289.246874 
L 236.866484 291.115182 
L 240.063224 292.952948 
L 243.259965 294.716552 
L 246.456705 296.358962 
L 249.653445 297.836368 
L 252.850185 299.113815 
L 256.046926 300.168829 
L 259.243666 300.992556 
L 262.440406 301.588396 
L 265.637147 301.968595 
L 268.833887 302.149509 
L 272.030627 302.146416 
L 275.227368 301.968759 
L 278.424108 301.616592 
L 281.620848 301.078838 
L 284.817589 300.333738 
L 288.014329 299.351656 
L 291.211069 298.100156 
L 294.40781 296.551006 
L 297.60455 294.688506 
L 300.80129 292.518212 
L 303.998031 290.074835 
L 307.194771 287.427871 
L 310.391511 284.683456 
L 313.588252 281.981196 
L 316.784992 279.48531 
L 319.981732 277.370365 
L 323.178473 275.803004 
L 326.375213 274.922108 
L 329.571953 274.82056 
L 332.768694 275.531828 
L 335.965434 277.024002 
L 339.162174 279.202569 
L 342.358915 281.921659 
L 345.555655 285.001818 
L 348.752395 288.251212 
L 351.949136 291.486695 
L 355.145876 294.551453 
L 358.342616 297.326926 
L 361.539357 299.738016 
L 364.736097 301.751941 
L 367.932837 303.372124 
L 371.129578 304.629095 
L 374.326318 305.570429 
L 377.523058 306.251426 
L 380.719798 306.727618 
L 383.916539 307.049621 
L 387.113279 307.260261 
L 390.310019 307.393601 
" style="fill:none;stroke:#988ed5;stroke-linecap:square;stroke-width:0.3;"/>
   </g>
   <g id="line2d_36">
    <path clip-path="url(#p88b2b7046b)" d="M 134.575159 307.56597 
L 136.957416 307.549901 
L 139.339672 307.521988 
L 141.721929 307.475518 
L 144.104185 307.401355 
L 146.486442 307.287874 
L 148.868698 307.121321 
L 151.250955 306.886716 
L 153.633211 306.569274 
L 156.015468 306.156114 
L 158.397724 305.637863 
L 160.779981 305.009662 
L 163.162237 304.271163 
L 165.544494 303.425416 
L 167.92675 302.476966 
L 170.309007 301.429942 
L 172.691264 300.287085 
L 175.07352 299.050495 
L 177.455777 297.72427 
L 179.838033 296.318297 
L 182.22029 294.851756 
L 184.602546 293.354509 
L 186.984803 291.86503 
L 189.367059 290.424582 
L 191.749316 289.068836 
L 194.131572 287.819385 
L 196.513829 286.678106 
L 198.896085 285.626723 
L 201.278342 284.632273 
L 203.660598 283.657067 
L 206.042855 282.669858 
L 208.425111 281.654238 
L 210.807368 280.611092 
L 213.189624 279.554141 
L 215.571881 278.500384 
L 217.954137 277.459511 
L 220.336394 276.42705 
L 222.718651 275.384744 
L 225.100907 274.308805 
L 227.483164 273.183332 
L 229.86542 272.013699 
L 232.247677 270.834171 
L 234.629933 269.705749 
L 237.01219 268.703698 
L 239.394446 267.898024 
L 241.776703 267.332981 
L 244.158959 267.012185 
L 246.541216 266.894023 
L 248.923472 266.898372 
L 251.305729 266.921717 
L 253.687985 266.855164 
L 256.070242 266.599639 
L 258.452498 266.074789 
L 260.834755 265.221617 
L 263.217011 264.002075 
L 265.599268 262.400071 
L 267.981524 260.426931 
L 270.363781 258.131038 
L 272.746038 255.607618 
L 275.128294 253.002519 
L 277.510551 250.504522 
L 279.892807 248.32417 
L 282.275064 246.662023 
L 284.65732 245.673385 
L 287.039577 245.438292 
L 289.421833 245.944013 
L 291.80409 247.083343 
L 294.186346 248.667256 
L 296.568603 250.447079 
L 298.950859 252.140368 
L 301.333116 253.456321 
L 303.715372 254.119463 
L 306.097629 253.893057 
L 308.479885 252.604587 
L 310.862142 250.174261 
L 313.244398 246.644257 
L 315.626655 242.202683 
L 318.008911 237.193647 
L 320.391168 232.104794 
L 322.773425 227.526818 
L 325.155681 224.085556 
L 327.537938 222.354866 
L 329.920194 222.765476 
L 332.302451 225.528912 
L 334.684707 230.594564 
L 337.066964 237.651601 
L 339.44922 246.177016 
L 341.831477 255.519742 
L 344.213733 265.001996 
L 346.59599 274.015689 
L 348.978246 282.094705 
L 351.360503 288.951831 
L 353.742759 294.479071 
L 356.125016 298.718776 
L 358.507272 301.818043 
L 360.889529 303.979512 
L 363.271785 305.418852 
L 365.654042 306.334605 
L 368.036298 306.891549 
L 370.418555 307.215467 
" style="fill:none;stroke:#777777;stroke-linecap:square;stroke-width:0.3;"/>
   </g>
   <g id="line2d_37">
    <path clip-path="url(#p88b2b7046b)" d="M 110.822636 307.546225 
L 113.442158 307.506906 
L 116.06168 307.433823 
L 118.681202 307.304523 
L 121.300725 307.086596 
L 123.920247 306.736373 
L 126.539769 306.199144 
L 129.159291 305.41161 
L 131.778813 304.306944 
L 134.398336 302.822232 
L 137.017858 300.907465 
L 139.63738 298.534689 
L 142.256902 295.705722 
L 144.876425 292.457009 
L 147.495947 288.8606 
L 150.115469 285.020803 
L 152.734991 281.066459 
L 155.354513 277.139159 
L 157.974036 273.378017 
L 160.593558 269.902254 
L 163.21308 266.793842 
L 165.832602 264.083653 
L 168.452125 261.745333 
L 171.071647 259.700583 
L 173.691169 257.837333 
L 176.310691 256.038603 
L 178.930213 254.215916 
L 181.549736 252.338522 
L 184.169258 250.449608 
L 186.78878 248.663397 
L 189.408302 247.141932 
L 192.027824 246.055922 
L 194.647347 245.538804 
L 197.266869 245.645721 
L 199.886391 246.328499 
L 202.505913 247.433889 
L 205.125436 248.726011 
L 207.744958 249.927166 
L 210.36448 250.766241 
L 212.984002 251.022656 
L 215.603524 250.556635 
L 218.223047 249.322145 
L 220.842569 247.36462 
L 223.462091 244.809247 
L 226.081613 241.845996 
L 228.701136 238.715193 
L 231.320658 235.693904 
L 233.94018 233.080629 
L 236.559702 231.175073 
L 239.179224 230.25126 
L 241.798747 230.525372 
L 244.418269 232.123186 
L 247.037791 235.054396 
L 249.657313 239.201449 
L 252.276835 244.328211 
L 254.896358 250.109368 
L 257.51588 256.176116 
L 260.135402 262.169104 
L 262.754924 267.787421 
L 265.374447 272.823302 
L 267.993969 277.176012 
L 270.613491 280.843862 
L 273.233013 283.898699 
L 275.852535 286.451005 
L 278.472058 288.614829 
L 281.09158 290.480322 
L 283.711102 292.098459 
L 286.330624 293.47887 
L 288.950146 294.598769 
L 291.569669 295.419161 
L 294.189191 295.903787 
L 296.808713 296.036378 
L 299.428235 295.83236 
L 302.047758 295.3424 
L 304.66728 294.64702 
L 307.286802 293.8439 
L 309.906324 293.031702 
L 312.525846 292.295471 
L 315.145369 291.698167 
L 317.764891 291.280534 
L 320.384413 291.068145 
L 323.003935 291.081417 
L 325.623458 291.343063 
L 328.24298 291.878629 
L 330.862502 292.708989 
L 333.482024 293.837674 
L 336.101546 295.238668 
L 338.721069 296.850674 
L 341.340591 298.581373 
L 343.960113 300.321231 
L 346.579635 301.962614 
L 349.199157 303.418146 
L 351.81868 304.632996 
L 354.438202 305.588406 
L 357.057724 306.297055 
L 359.677246 306.793182 
L 362.296769 307.121259 
L 364.916291 307.326298 
L 367.535813 307.447467 
L 370.155335 307.515206 
" style="fill:none;stroke:#fbc15e;stroke-linecap:square;stroke-width:0.3;"/>
   </g>
   <g id="line2d_38">
    <path clip-path="url(#p88b2b7046b)" d="M 99.136389 307.106346 
L 101.445981 306.481716 
L 103.755573 305.194585 
L 106.065165 302.716476 
L 108.374757 298.260817 
L 110.684349 290.784218 
L 112.993941 279.087211 
L 115.303533 262.049584 
L 117.613125 238.992844 
L 119.922716 210.095239 
L 122.232308 176.719467 
L 124.5419 141.489921 
L 126.851492 108.006835 
L 129.161084 80.207095 
L 131.470676 61.529538 
L 133.780268 54.144 
L 136.08986 58.499609 
L 138.399452 73.332121 
L 140.709044 96.095712 
L 143.018636 123.636017 
L 145.328228 152.865297 
L 147.63782 181.250616 
L 149.947411 207.03945 
L 152.257003 229.25804 
L 154.566595 247.5763 
L 156.876187 262.130172 
L 159.185779 273.353957 
L 161.495371 281.837212 
L 163.804963 288.20454 
L 166.114555 293.020041 
L 168.424147 296.725848 
L 170.733739 299.622955 
L 173.043331 301.891265 
L 175.352923 303.632901 
L 177.662515 304.917556 
L 179.972106 305.813569 
L 182.281698 306.399141 
L 184.59129 306.757828 
L 186.900882 306.96691 
L 189.210474 307.086252 
L 191.520066 307.151539 
L 193.829658 307.172055 
L 196.13925 307.131084 
L 198.448842 306.987057 
L 200.758434 306.675055 
L 203.068026 306.110533 
L 205.377618 305.198775 
L 207.68721 303.853304 
L 209.996802 302.023278 
L 212.306393 299.724182 
L 214.615985 297.060178 
L 216.925577 294.224286 
L 219.235169 291.467658 
L 221.544761 289.041772 
L 223.854353 287.132553 
L 226.163945 285.814369 
L 228.473537 285.047191 
L 230.783129 284.721256 
L 233.092721 284.729109 
L 235.402313 285.028838 
L 237.711905 285.66536 
L 240.021497 286.738347 
L 242.331088 288.334014 
L 244.64068 290.456906 
L 246.950272 292.996395 
L 249.259864 295.742921 
L 251.569456 298.443432 
L 253.879048 300.868702 
L 256.18864 302.864477 
L 258.498232 304.371017 
L 260.807824 305.411938 
L 263.117416 306.06455 
L 265.427008 306.426428 
L 267.7366 306.588766 
L 270.046192 306.620779 
L 272.355783 306.564551 
L 274.665375 306.43756 
L 276.974967 306.239979 
L 279.284559 305.964378 
L 281.594151 305.605855 
L 283.903743 305.170728 
L 286.213335 304.682049 
L 288.522927 304.18072 
L 290.832519 303.721731 
L 293.142111 303.366032 
L 295.451703 303.169389 
L 297.761295 303.170458 
L 300.070887 303.380991 
L 302.380478 303.781274 
L 304.69007 304.322953 
L 306.999662 304.939186 
L 309.309254 305.559347 
L 311.618846 306.123616 
L 313.928438 306.592959 
L 316.23803 306.952062 
L 318.547622 307.205769 
L 320.857214 307.371693 
L 323.166806 307.472315 
L 325.476398 307.528969 
L 327.78599 307.558614 
" style="fill:none;stroke:#8eba42;stroke-linecap:square;stroke-width:0.3;"/>
   </g>
   <g id="patch_3">
    <path d="M 57.6 307.584 
L 57.6 41.472 
" style="fill:none;stroke:#ffffff;stroke-linecap:square;stroke-linejoin:miter;"/>
   </g>
   <g id="patch_4">
    <path d="M 414.72 307.584 
L 414.72 41.472 
" style="fill:none;stroke:#ffffff;stroke-linecap:square;stroke-linejoin:miter;"/>
   </g>
   <g id="patch_5">
    <path d="M 57.6 307.584 
L 414.72 307.584 
" style="fill:none;stroke:#ffffff;stroke-linecap:square;stroke-linejoin:miter;"/>
   </g>
   <g id="patch_6">
    <path d="M 57.6 41.472 
L 414.72 41.472 
" style="fill:none;stroke:#ffffff;stroke-linecap:square;stroke-linejoin:miter;"/>
   </g>
   <g id="text_19">
    <!-- kernel density estimation(Gaussian):b3748;b3749;b3750;b3751;b3752;b3753 -->
    <defs>
     <path d="M 9.078125 75.984375 
L 18.109375 75.984375 
L 18.109375 31.109375 
L 44.921875 54.6875 
L 56.390625 54.6875 
L 27.390625 29.109375 
L 57.625 0 
L 45.90625 0 
L 18.109375 26.703125 
L 18.109375 0 
L 9.078125 0 
z
" id="DejaVuSans-6b"/>
     <path d="M 56.203125 29.59375 
L 56.203125 25.203125 
L 14.890625 25.203125 
Q 15.484375 15.921875 20.484375 11.0625 
Q 25.484375 6.203125 34.421875 6.203125 
Q 39.59375 6.203125 44.453125 7.46875 
Q 49.3125 8.734375 54.109375 11.28125 
L 54.109375 2.78125 
Q 49.265625 0.734375 44.1875 -0.34375 
Q 39.109375 -1.421875 33.890625 -1.421875 
Q 20.796875 -1.421875 13.15625 6.1875 
Q 5.515625 13.8125 5.515625 26.8125 
Q 5.515625 40.234375 12.765625 48.109375 
Q 20.015625 56 32.328125 56 
Q 43.359375 56 49.78125 48.890625 
Q 56.203125 41.796875 56.203125 29.59375 
z
M 47.21875 32.234375 
Q 47.125 39.59375 43.09375 43.984375 
Q 39.0625 48.390625 32.421875 48.390625 
Q 24.90625 48.390625 20.390625 44.140625 
Q 15.875 39.890625 15.1875 32.171875 
z
" id="DejaVuSans-65"/>
     <path d="M 41.109375 46.296875 
Q 39.59375 47.171875 37.8125 47.578125 
Q 36.03125 48 33.890625 48 
Q 26.265625 48 22.1875 43.046875 
Q 18.109375 38.09375 18.109375 28.8125 
L 18.109375 0 
L 9.078125 0 
L 9.078125 54.6875 
L 18.109375 54.6875 
L 18.109375 46.1875 
Q 20.953125 51.171875 25.484375 53.578125 
Q 30.03125 56 36.53125 56 
Q 37.453125 56 38.578125 55.875 
Q 39.703125 55.765625 41.0625 55.515625 
z
" id="DejaVuSans-72"/>
     <path d="M 9.421875 75.984375 
L 18.40625 75.984375 
L 18.40625 0 
L 9.421875 0 
z
" id="DejaVuSans-6c"/>
     <path id="DejaVuSans-20"/>
     <path d="M 45.40625 46.390625 
L 45.40625 75.984375 
L 54.390625 75.984375 
L 54.390625 0 
L 45.40625 0 
L 45.40625 8.203125 
Q 42.578125 3.328125 38.25 0.953125 
Q 33.9375 -1.421875 27.875 -1.421875 
Q 17.96875 -1.421875 11.734375 6.484375 
Q 5.515625 14.40625 5.515625 27.296875 
Q 5.515625 40.1875 11.734375 48.09375 
Q 17.96875 56 27.875 56 
Q 33.9375 56 38.25 53.625 
Q 42.578125 51.265625 45.40625 46.390625 
z
M 14.796875 27.296875 
Q 14.796875 17.390625 18.875 11.75 
Q 22.953125 6.109375 30.078125 6.109375 
Q 37.203125 6.109375 41.296875 11.75 
Q 45.40625 17.390625 45.40625 27.296875 
Q 45.40625 37.203125 41.296875 42.84375 
Q 37.203125 48.484375 30.078125 48.484375 
Q 22.953125 48.484375 18.875 42.84375 
Q 14.796875 37.203125 14.796875 27.296875 
z
" id="DejaVuSans-64"/>
     <path d="M 44.28125 53.078125 
L 44.28125 44.578125 
Q 40.484375 46.53125 36.375 47.5 
Q 32.28125 48.484375 27.875 48.484375 
Q 21.1875 48.484375 17.84375 46.4375 
Q 14.5 44.390625 14.5 40.28125 
Q 14.5 37.15625 16.890625 35.375 
Q 19.28125 33.59375 26.515625 31.984375 
L 29.59375 31.296875 
Q 39.15625 29.25 43.1875 25.515625 
Q 47.21875 21.78125 47.21875 15.09375 
Q 47.21875 7.46875 41.1875 3.015625 
Q 35.15625 -1.421875 24.609375 -1.421875 
Q 20.21875 -1.421875 15.453125 -0.5625 
Q 10.6875 0.296875 5.421875 2 
L 5.421875 11.28125 
Q 10.40625 8.6875 15.234375 7.390625 
Q 20.0625 6.109375 24.8125 6.109375 
Q 31.15625 6.109375 34.5625 8.28125 
Q 37.984375 10.453125 37.984375 14.40625 
Q 37.984375 18.0625 35.515625 20.015625 
Q 33.0625 21.96875 24.703125 23.78125 
L 21.578125 24.515625 
Q 13.234375 26.265625 9.515625 29.90625 
Q 5.8125 33.546875 5.8125 39.890625 
Q 5.8125 47.609375 11.28125 51.796875 
Q 16.75 56 26.8125 56 
Q 31.78125 56 36.171875 55.265625 
Q 40.578125 54.546875 44.28125 53.078125 
z
" id="DejaVuSans-73"/>
     <path d="M 9.421875 54.6875 
L 18.40625 54.6875 
L 18.40625 0 
L 9.421875 0 
z
M 9.421875 75.984375 
L 18.40625 75.984375 
L 18.40625 64.59375 
L 9.421875 64.59375 
z
" id="DejaVuSans-69"/>
     <path d="M 32.171875 -5.078125 
Q 28.375 -14.84375 24.75 -17.8125 
Q 21.140625 -20.796875 15.09375 -20.796875 
L 7.90625 -20.796875 
L 7.90625 -13.28125 
L 13.1875 -13.28125 
Q 16.890625 -13.28125 18.9375 -11.515625 
Q 21 -9.765625 23.484375 -3.21875 
L 25.09375 0.875 
L 2.984375 54.6875 
L 12.5 54.6875 
L 29.59375 11.921875 
L 46.6875 54.6875 
L 56.203125 54.6875 
z
" id="DejaVuSans-79"/>
     <path d="M 52 44.1875 
Q 55.375 50.25 60.0625 53.125 
Q 64.75 56 71.09375 56 
Q 79.640625 56 84.28125 50.015625 
Q 88.921875 44.046875 88.921875 33.015625 
L 88.921875 0 
L 79.890625 0 
L 79.890625 32.71875 
Q 79.890625 40.578125 77.09375 44.375 
Q 74.3125 48.1875 68.609375 48.1875 
Q 61.625 48.1875 57.5625 43.546875 
Q 53.515625 38.921875 53.515625 30.90625 
L 53.515625 0 
L 44.484375 0 
L 44.484375 32.71875 
Q 44.484375 40.625 41.703125 44.40625 
Q 38.921875 48.1875 33.109375 48.1875 
Q 26.21875 48.1875 22.15625 43.53125 
Q 18.109375 38.875 18.109375 30.90625 
L 18.109375 0 
L 9.078125 0 
L 9.078125 54.6875 
L 18.109375 54.6875 
L 18.109375 46.1875 
Q 21.1875 51.21875 25.484375 53.609375 
Q 29.78125 56 35.6875 56 
Q 41.65625 56 45.828125 52.96875 
Q 50 49.953125 52 44.1875 
z
" id="DejaVuSans-6d"/>
     <path d="M 34.28125 27.484375 
Q 23.390625 27.484375 19.1875 25 
Q 14.984375 22.515625 14.984375 16.5 
Q 14.984375 11.71875 18.140625 8.90625 
Q 21.296875 6.109375 26.703125 6.109375 
Q 34.1875 6.109375 38.703125 11.40625 
Q 43.21875 16.703125 43.21875 25.484375 
L 43.21875 27.484375 
z
M 52.203125 31.203125 
L 52.203125 0 
L 43.21875 0 
L 43.21875 8.296875 
Q 40.140625 3.328125 35.546875 0.953125 
Q 30.953125 -1.421875 24.3125 -1.421875 
Q 15.921875 -1.421875 10.953125 3.296875 
Q 6 8.015625 6 15.921875 
Q 6 25.140625 12.171875 29.828125 
Q 18.359375 34.515625 30.609375 34.515625 
L 43.21875 34.515625 
L 43.21875 35.40625 
Q 43.21875 41.609375 39.140625 45 
Q 35.0625 48.390625 27.6875 48.390625 
Q 23 48.390625 18.546875 47.265625 
Q 14.109375 46.140625 10.015625 43.890625 
L 10.015625 52.203125 
Q 14.9375 54.109375 19.578125 55.046875 
Q 24.21875 56 28.609375 56 
Q 40.484375 56 46.34375 49.84375 
Q 52.203125 43.703125 52.203125 31.203125 
z
" id="DejaVuSans-61"/>
     <path d="M 59.515625 10.40625 
L 59.515625 29.984375 
L 43.40625 29.984375 
L 43.40625 38.09375 
L 69.28125 38.09375 
L 69.28125 6.78125 
Q 63.578125 2.734375 56.6875 0.65625 
Q 49.8125 -1.421875 42 -1.421875 
Q 24.90625 -1.421875 15.25 8.5625 
Q 5.609375 18.5625 5.609375 36.375 
Q 5.609375 54.25 15.25 64.234375 
Q 24.90625 74.21875 42 74.21875 
Q 49.125 74.21875 55.546875 72.453125 
Q 61.96875 70.703125 67.390625 67.28125 
L 67.390625 56.78125 
Q 61.921875 61.421875 55.765625 63.765625 
Q 49.609375 66.109375 42.828125 66.109375 
Q 29.4375 66.109375 22.71875 58.640625 
Q 16.015625 51.171875 16.015625 36.375 
Q 16.015625 21.625 22.71875 14.15625 
Q 29.4375 6.6875 42.828125 6.6875 
Q 48.046875 6.6875 52.140625 7.59375 
Q 56.25 8.5 59.515625 10.40625 
z
" id="DejaVuSans-47"/>
     <path d="M 11.71875 12.40625 
L 22.015625 12.40625 
L 22.015625 0 
L 11.71875 0 
z
M 11.71875 51.703125 
L 22.015625 51.703125 
L 22.015625 39.3125 
L 11.71875 39.3125 
z
" id="DejaVuSans-3a"/>
     <path d="M 48.6875 27.296875 
Q 48.6875 37.203125 44.609375 42.84375 
Q 40.53125 48.484375 33.40625 48.484375 
Q 26.265625 48.484375 22.1875 42.84375 
Q 18.109375 37.203125 18.109375 27.296875 
Q 18.109375 17.390625 22.1875 11.75 
Q 26.265625 6.109375 33.40625 6.109375 
Q 40.53125 6.109375 44.609375 11.75 
Q 48.6875 17.390625 48.6875 27.296875 
z
M 18.109375 46.390625 
Q 20.953125 51.265625 25.265625 53.625 
Q 29.59375 56 35.59375 56 
Q 45.5625 56 51.78125 48.09375 
Q 58.015625 40.1875 58.015625 27.296875 
Q 58.015625 14.40625 51.78125 6.484375 
Q 45.5625 -1.421875 35.59375 -1.421875 
Q 29.59375 -1.421875 25.265625 0.953125 
Q 20.953125 3.328125 18.109375 8.203125 
L 18.109375 0 
L 9.078125 0 
L 9.078125 75.984375 
L 18.109375 75.984375 
z
" id="DejaVuSans-62"/>
     <path d="M 11.71875 51.703125 
L 22.015625 51.703125 
L 22.015625 39.3125 
L 11.71875 39.3125 
z
M 11.71875 12.40625 
L 22.015625 12.40625 
L 22.015625 4 
L 14.015625 -11.625 
L 7.71875 -11.625 
L 11.71875 4 
z
" id="DejaVuSans-3b"/>
     <path d="M 10.984375 1.515625 
L 10.984375 10.5 
Q 14.703125 8.734375 18.5 7.8125 
Q 22.3125 6.890625 25.984375 6.890625 
Q 35.75 6.890625 40.890625 13.453125 
Q 46.046875 20.015625 46.78125 33.40625 
Q 43.953125 29.203125 39.59375 26.953125 
Q 35.25 24.703125 29.984375 24.703125 
Q 19.046875 24.703125 12.671875 31.3125 
Q 6.296875 37.9375 6.296875 49.421875 
Q 6.296875 60.640625 12.9375 67.421875 
Q 19.578125 74.21875 30.609375 74.21875 
Q 43.265625 74.21875 49.921875 64.515625 
Q 56.59375 54.828125 56.59375 36.375 
Q 56.59375 19.140625 48.40625 8.859375 
Q 40.234375 -1.421875 26.421875 -1.421875 
Q 22.703125 -1.421875 18.890625 -0.6875 
Q 15.09375 0.046875 10.984375 1.515625 
z
M 30.609375 32.421875 
Q 37.25 32.421875 41.125 36.953125 
Q 45.015625 41.5 45.015625 49.421875 
Q 45.015625 57.28125 41.125 61.84375 
Q 37.25 66.40625 30.609375 66.40625 
Q 23.96875 66.40625 20.09375 61.84375 
Q 16.21875 57.28125 16.21875 49.421875 
Q 16.21875 41.5 20.09375 36.953125 
Q 23.96875 32.421875 30.609375 32.421875 
z
" id="DejaVuSans-39"/>
    </defs>
    <g transform="translate(-46.1565 35.472)scale(0.144 -0.144)">
     <use xlink:href="#DejaVuSans-6b"/>
     <use x="57.863281" xlink:href="#DejaVuSans-65"/>
     <use x="119.386719" xlink:href="#DejaVuSans-72"/>
     <use x="160.484375" xlink:href="#DejaVuSans-6e"/>
     <use x="223.863281" xlink:href="#DejaVuSans-65"/>
     <use x="285.386719" xlink:href="#DejaVuSans-6c"/>
     <use x="313.169922" xlink:href="#DejaVuSans-20"/>
     <use x="344.957031" xlink:href="#DejaVuSans-64"/>
     <use x="408.433594" xlink:href="#DejaVuSans-65"/>
     <use x="469.957031" xlink:href="#DejaVuSans-6e"/>
     <use x="533.335938" xlink:href="#DejaVuSans-73"/>
     <use x="585.435547" xlink:href="#DejaVuSans-69"/>
     <use x="613.21875" xlink:href="#DejaVuSans-74"/>
     <use x="652.427734" xlink:href="#DejaVuSans-79"/>
     <use x="711.607422" xlink:href="#DejaVuSans-20"/>
     <use x="743.394531" xlink:href="#DejaVuSans-65"/>
     <use x="804.917969" xlink:href="#DejaVuSans-73"/>
     <use x="857.017578" xlink:href="#DejaVuSans-74"/>
     <use x="896.226562" xlink:href="#DejaVuSans-69"/>
     <use x="924.009766" xlink:href="#DejaVuSans-6d"/>
     <use x="1021.421875" xlink:href="#DejaVuSans-61"/>
     <use x="1082.701172" xlink:href="#DejaVuSans-74"/>
     <use x="1121.910156" xlink:href="#DejaVuSans-69"/>
     <use x="1149.693359" xlink:href="#DejaVuSans-6f"/>
     <use x="1210.875" xlink:href="#DejaVuSans-6e"/>
     <use x="1274.253906" xlink:href="#DejaVuSans-28"/>
     <use x="1313.267578" xlink:href="#DejaVuSans-47"/>
     <use x="1390.757812" xlink:href="#DejaVuSans-61"/>
     <use x="1452.037109" xlink:href="#DejaVuSans-75"/>
     <use x="1515.416016" xlink:href="#DejaVuSans-73"/>
     <use x="1567.515625" xlink:href="#DejaVuSans-73"/>
     <use x="1619.615234" xlink:href="#DejaVuSans-69"/>
     <use x="1647.398438" xlink:href="#DejaVuSans-61"/>
     <use x="1708.677734" xlink:href="#DejaVuSans-6e"/>
     <use x="1772.056641" xlink:href="#DejaVuSans-29"/>
     <use x="1811.070312" xlink:href="#DejaVuSans-3a"/>
     <use x="1844.761719" xlink:href="#DejaVuSans-62"/>
     <use x="1908.238281" xlink:href="#DejaVuSans-33"/>
     <use x="1971.861328" xlink:href="#DejaVuSans-37"/>
     <use x="2035.484375" xlink:href="#DejaVuSans-34"/>
     <use x="2099.107422" xlink:href="#DejaVuSans-38"/>
     <use x="2162.730469" xlink:href="#DejaVuSans-3b"/>
     <use x="2196.421875" xlink:href="#DejaVuSans-62"/>
     <use x="2259.898438" xlink:href="#DejaVuSans-33"/>
     <use x="2323.521484" xlink:href="#DejaVuSans-37"/>
     <use x="2387.144531" xlink:href="#DejaVuSans-34"/>
     <use x="2450.767578" xlink:href="#DejaVuSans-39"/>
     <use x="2514.390625" xlink:href="#DejaVuSans-3b"/>
     <use x="2548.082031" xlink:href="#DejaVuSans-62"/>
     <use x="2611.558594" xlink:href="#DejaVuSans-33"/>
     <use x="2675.181641" xlink:href="#DejaVuSans-37"/>
     <use x="2738.804688" xlink:href="#DejaVuSans-35"/>
     <use x="2802.427734" xlink:href="#DejaVuSans-30"/>
     <use x="2866.050781" xlink:href="#DejaVuSans-3b"/>
     <use x="2899.742188" xlink:href="#DejaVuSans-62"/>
     <use x="2963.21875" xlink:href="#DejaVuSans-33"/>
     <use x="3026.841797" xlink:href="#DejaVuSans-37"/>
     <use x="3090.464844" xlink:href="#DejaVuSans-35"/>
     <use x="3154.087891" xlink:href="#DejaVuSans-31"/>
     <use x="3217.710938" xlink:href="#DejaVuSans-3b"/>
     <use x="3251.402344" xlink:href="#DejaVuSans-62"/>
     <use x="3314.878906" xlink:href="#DejaVuSans-33"/>
     <use x="3378.501953" xlink:href="#DejaVuSans-37"/>
     <use x="3442.125" xlink:href="#DejaVuSans-35"/>
     <use x="3505.748047" xlink:href="#DejaVuSans-32"/>
     <use x="3569.371094" xlink:href="#DejaVuSans-3b"/>
     <use x="3603.0625" xlink:href="#DejaVuSans-62"/>
     <use x="3666.539062" xlink:href="#DejaVuSans-33"/>
     <use x="3730.162109" xlink:href="#DejaVuSans-37"/>
     <use x="3793.785156" xlink:href="#DejaVuSans-35"/>
     <use x="3857.408203" xlink:href="#DejaVuSans-33"/>
    </g>
   </g>
   <g id="legend_1">
    <g id="patch_7">
     <path d="M 343.921563 137.54075 
L 407.72 137.54075 
Q 409.72 137.54075 409.72 135.54075 
L 409.72 48.472 
Q 409.72 46.472 407.72 46.472 
L 343.921563 46.472 
Q 341.921563 46.472 341.921563 48.472 
L 341.921563 135.54075 
Q 341.921563 137.54075 343.921563 137.54075 
z
" style="fill:#e5e5e5;opacity:0.8;stroke:#cccccc;stroke-linejoin:miter;stroke-width:0.5;"/>
    </g>
    <g id="line2d_39">
     <path d="M 345.921563 54.570438 
L 365.921563 54.570438 
" style="fill:none;stroke:#e24a33;stroke-linecap:square;stroke-width:0.3;"/>
    </g>
    <g id="line2d_40"/>
    <g id="text_20">
     <!-- b3748 -->
     <g transform="translate(373.921563 58.070438)scale(0.1 -0.1)">
      <use xlink:href="#DejaVuSans-62"/>
      <use x="63.476562" xlink:href="#DejaVuSans-33"/>
      <use x="127.099609" xlink:href="#DejaVuSans-37"/>
      <use x="190.722656" xlink:href="#DejaVuSans-34"/>
      <use x="254.345703" xlink:href="#DejaVuSans-38"/>
     </g>
    </g>
    <g id="line2d_41">
     <path d="M 345.921563 69.248563 
L 365.921563 69.248563 
" style="fill:none;stroke:#348abd;stroke-linecap:square;stroke-width:0.3;"/>
    </g>
    <g id="line2d_42"/>
    <g id="text_21">
     <!-- b3749 -->
     <g transform="translate(373.921563 72.748563)scale(0.1 -0.1)">
      <use xlink:href="#DejaVuSans-62"/>
      <use x="63.476562" xlink:href="#DejaVuSans-33"/>
      <use x="127.099609" xlink:href="#DejaVuSans-37"/>
      <use x="190.722656" xlink:href="#DejaVuSans-34"/>
      <use x="254.345703" xlink:href="#DejaVuSans-39"/>
     </g>
    </g>
    <g id="line2d_43">
     <path d="M 345.921563 83.926688 
L 365.921563 83.926688 
" style="fill:none;stroke:#988ed5;stroke-linecap:square;stroke-width:0.3;"/>
    </g>
    <g id="line2d_44"/>
    <g id="text_22">
     <!-- b3750 -->
     <g transform="translate(373.921563 87.426688)scale(0.1 -0.1)">
      <use xlink:href="#DejaVuSans-62"/>
      <use x="63.476562" xlink:href="#DejaVuSans-33"/>
      <use x="127.099609" xlink:href="#DejaVuSans-37"/>
      <use x="190.722656" xlink:href="#DejaVuSans-35"/>
      <use x="254.345703" xlink:href="#DejaVuSans-30"/>
     </g>
    </g>
    <g id="line2d_45">
     <path d="M 345.921563 98.604813 
L 365.921563 98.604813 
" style="fill:none;stroke:#777777;stroke-linecap:square;stroke-width:0.3;"/>
    </g>
    <g id="line2d_46"/>
    <g id="text_23">
     <!-- b3751 -->
     <g transform="translate(373.921563 102.104813)scale(0.1 -0.1)">
      <use xlink:href="#DejaVuSans-62"/>
      <use x="63.476562" xlink:href="#DejaVuSans-33"/>
      <use x="127.099609" xlink:href="#DejaVuSans-37"/>
      <use x="190.722656" xlink:href="#DejaVuSans-35"/>
      <use x="254.345703" xlink:href="#DejaVuSans-31"/>
     </g>
    </g>
    <g id="line2d_47">
     <path d="M 345.921563 113.282938 
L 365.921563 113.282938 
" style="fill:none;stroke:#fbc15e;stroke-linecap:square;stroke-width:0.3;"/>
    </g>
    <g id="line2d_48"/>
    <g id="text_24">
     <!-- b3752 -->
     <g transform="translate(373.921563 116.782938)scale(0.1 -0.1)">
      <use xlink:href="#DejaVuSans-62"/>
      <use x="63.476562" xlink:href="#DejaVuSans-33"/>
      <use x="127.099609" xlink:href="#DejaVuSans-37"/>
      <use x="190.722656" xlink:href="#DejaVuSans-35"/>
      <use x="254.345703" xlink:href="#DejaVuSans-32"/>
     </g>
    </g>
    <g id="line2d_49">
     <path d="M 345.921563 127.961063 
L 365.921563 127.961063 
" style="fill:none;stroke:#8eba42;stroke-linecap:square;stroke-width:0.3;"/>
    </g>
    <g id="line2d_50"/>
    <g id="text_25">
     <!-- b3753 -->
     <g transform="translate(373.921563 131.461063)scale(0.1 -0.1)">
      <use xlink:href="#DejaVuSans-62"/>
      <use x="63.476562" xlink:href="#DejaVuSans-33"/>
      <use x="127.099609" xlink:href="#DejaVuSans-37"/>
      <use x="190.722656" xlink:href="#DejaVuSans-35"/>
      <use x="254.345703" xlink:href="#DejaVuSans-33"/>
     </g>
    </g>
   </g>
  </g>
 </g>
 <defs>
  <clipPath id="p88b2b7046b">
   <rect height="266.112" width="357.12" x="57.6" y="41.472"/>
  </clipPath>
 </defs>
</svg>
