<?xml version="1.0" encoding="utf-8" standalone="no"?>
<!DOCTYPE svg PUBLIC "-//W3C//DTD SVG 1.1//EN"
  "http://www.w3.org/Graphics/SVG/1.1/DTD/svg11.dtd">
<!-- Created with matplotlib (http://matplotlib.org/) -->
<svg height="345pt" version="1.1" viewBox="0 0 460 345" width="460pt" xmlns="http://www.w3.org/2000/svg" xmlns:xlink="http://www.w3.org/1999/xlink">
 <defs>
  <style type="text/css">
*{stroke-linecap:butt;stroke-linejoin:round;}
  </style>
 </defs>
 <g id="figure_1">
  <g id="patch_1">
   <path d="M 0 345.6 
L 460.8 345.6 
L 460.8 0 
L 0 0 
z
" style="fill:#ffffff;"/>
  </g>
  <g id="axes_1">
   <g id="patch_2">
    <path d="M 57.6 307.584 
L 414.72 307.584 
L 414.72 41.472 
L 57.6 41.472 
z
" style="fill:#e5e5e5;"/>
   </g>
   <g id="matplotlib.axis_1">
    <g id="xtick_1">
     <g id="line2d_1">
      <path clip-path="url(#p93297aada9)" d="M 114.194657 307.584 
L 114.194657 41.472 
" style="fill:none;stroke:#ffffff;stroke-linecap:square;stroke-width:0.8;"/>
     </g>
     <g id="line2d_2">
      <defs>
       <path d="M 0 0 
L 0 3.5 
" id="m241cf378cf" style="stroke:#555555;stroke-width:0.8;"/>
      </defs>
      <g>
       <use style="fill:#555555;stroke:#555555;stroke-width:0.8;" x="114.194657" xlink:href="#m241cf378cf" y="307.584"/>
      </g>
     </g>
     <g id="text_1">
      <!-- 0 -->
      <defs>
       <path d="M 31.78125 66.40625 
Q 24.171875 66.40625 20.328125 58.90625 
Q 16.5 51.421875 16.5 36.375 
Q 16.5 21.390625 20.328125 13.890625 
Q 24.171875 6.390625 31.78125 6.390625 
Q 39.453125 6.390625 43.28125 13.890625 
Q 47.125 21.390625 47.125 36.375 
Q 47.125 51.421875 43.28125 58.90625 
Q 39.453125 66.40625 31.78125 66.40625 
z
M 31.78125 74.21875 
Q 44.046875 74.21875 50.515625 64.515625 
Q 56.984375 54.828125 56.984375 36.375 
Q 56.984375 17.96875 50.515625 8.265625 
Q 44.046875 -1.421875 31.78125 -1.421875 
Q 19.53125 -1.421875 13.0625 8.265625 
Q 6.59375 17.96875 6.59375 36.375 
Q 6.59375 54.828125 13.0625 64.515625 
Q 19.53125 74.21875 31.78125 74.21875 
z
" id="DejaVuSans-30"/>
      </defs>
      <g style="fill:#555555;" transform="translate(111.013407 322.182437)scale(0.1 -0.1)">
       <use xlink:href="#DejaVuSans-30"/>
      </g>
     </g>
    </g>
    <g id="xtick_2">
     <g id="line2d_3">
      <path clip-path="url(#p93297aada9)" d="M 171.711914 307.584 
L 171.711914 41.472 
" style="fill:none;stroke:#ffffff;stroke-linecap:square;stroke-width:0.8;"/>
     </g>
     <g id="line2d_4">
      <g>
       <use style="fill:#555555;stroke:#555555;stroke-width:0.8;" x="171.711914" xlink:href="#m241cf378cf" y="307.584"/>
      </g>
     </g>
     <g id="text_2">
      <!-- 2000 -->
      <defs>
       <path d="M 19.1875 8.296875 
L 53.609375 8.296875 
L 53.609375 0 
L 7.328125 0 
L 7.328125 8.296875 
Q 12.9375 14.109375 22.625 23.890625 
Q 32.328125 33.6875 34.8125 36.53125 
Q 39.546875 41.84375 41.421875 45.53125 
Q 43.3125 49.21875 43.3125 52.78125 
Q 43.3125 58.59375 39.234375 62.25 
Q 35.15625 65.921875 28.609375 65.921875 
Q 23.96875 65.921875 18.8125 64.3125 
Q 13.671875 62.703125 7.8125 59.421875 
L 7.8125 69.390625 
Q 13.765625 71.78125 18.9375 73 
Q 24.125 74.21875 28.421875 74.21875 
Q 39.75 74.21875 46.484375 68.546875 
Q 53.21875 62.890625 53.21875 53.421875 
Q 53.21875 48.921875 51.53125 44.890625 
Q 49.859375 40.875 45.40625 35.40625 
Q 44.1875 33.984375 37.640625 27.21875 
Q 31.109375 20.453125 19.1875 8.296875 
z
" id="DejaVuSans-32"/>
      </defs>
      <g style="fill:#555555;" transform="translate(158.986914 322.182437)scale(0.1 -0.1)">
       <use xlink:href="#DejaVuSans-32"/>
       <use x="63.623047" xlink:href="#DejaVuSans-30"/>
       <use x="127.246094" xlink:href="#DejaVuSans-30"/>
       <use x="190.869141" xlink:href="#DejaVuSans-30"/>
      </g>
     </g>
    </g>
    <g id="xtick_3">
     <g id="line2d_5">
      <path clip-path="url(#p93297aada9)" d="M 229.229171 307.584 
L 229.229171 41.472 
" style="fill:none;stroke:#ffffff;stroke-linecap:square;stroke-width:0.8;"/>
     </g>
     <g id="line2d_6">
      <g>
       <use style="fill:#555555;stroke:#555555;stroke-width:0.8;" x="229.229171" xlink:href="#m241cf378cf" y="307.584"/>
      </g>
     </g>
     <g id="text_3">
      <!-- 4000 -->
      <defs>
       <path d="M 37.796875 64.3125 
L 12.890625 25.390625 
L 37.796875 25.390625 
z
M 35.203125 72.90625 
L 47.609375 72.90625 
L 47.609375 25.390625 
L 58.015625 25.390625 
L 58.015625 17.1875 
L 47.609375 17.1875 
L 47.609375 0 
L 37.796875 0 
L 37.796875 17.1875 
L 4.890625 17.1875 
L 4.890625 26.703125 
z
" id="DejaVuSans-34"/>
      </defs>
      <g style="fill:#555555;" transform="translate(216.504171 322.182437)scale(0.1 -0.1)">
       <use xlink:href="#DejaVuSans-34"/>
       <use x="63.623047" xlink:href="#DejaVuSans-30"/>
       <use x="127.246094" xlink:href="#DejaVuSans-30"/>
       <use x="190.869141" xlink:href="#DejaVuSans-30"/>
      </g>
     </g>
    </g>
    <g id="xtick_4">
     <g id="line2d_7">
      <path clip-path="url(#p93297aada9)" d="M 286.746427 307.584 
L 286.746427 41.472 
" style="fill:none;stroke:#ffffff;stroke-linecap:square;stroke-width:0.8;"/>
     </g>
     <g id="line2d_8">
      <g>
       <use style="fill:#555555;stroke:#555555;stroke-width:0.8;" x="286.746427" xlink:href="#m241cf378cf" y="307.584"/>
      </g>
     </g>
     <g id="text_4">
      <!-- 6000 -->
      <defs>
       <path d="M 33.015625 40.375 
Q 26.375 40.375 22.484375 35.828125 
Q 18.609375 31.296875 18.609375 23.390625 
Q 18.609375 15.53125 22.484375 10.953125 
Q 26.375 6.390625 33.015625 6.390625 
Q 39.65625 6.390625 43.53125 10.953125 
Q 47.40625 15.53125 47.40625 23.390625 
Q 47.40625 31.296875 43.53125 35.828125 
Q 39.65625 40.375 33.015625 40.375 
z
M 52.59375 71.296875 
L 52.59375 62.3125 
Q 48.875 64.0625 45.09375 64.984375 
Q 41.3125 65.921875 37.59375 65.921875 
Q 27.828125 65.921875 22.671875 59.328125 
Q 17.53125 52.734375 16.796875 39.40625 
Q 19.671875 43.65625 24.015625 45.921875 
Q 28.375 48.1875 33.59375 48.1875 
Q 44.578125 48.1875 50.953125 41.515625 
Q 57.328125 34.859375 57.328125 23.390625 
Q 57.328125 12.15625 50.6875 5.359375 
Q 44.046875 -1.421875 33.015625 -1.421875 
Q 20.359375 -1.421875 13.671875 8.265625 
Q 6.984375 17.96875 6.984375 36.375 
Q 6.984375 53.65625 15.1875 63.9375 
Q 23.390625 74.21875 37.203125 74.21875 
Q 40.921875 74.21875 44.703125 73.484375 
Q 48.484375 72.75 52.59375 71.296875 
z
" id="DejaVuSans-36"/>
      </defs>
      <g style="fill:#555555;" transform="translate(274.021427 322.182437)scale(0.1 -0.1)">
       <use xlink:href="#DejaVuSans-36"/>
       <use x="63.623047" xlink:href="#DejaVuSans-30"/>
       <use x="127.246094" xlink:href="#DejaVuSans-30"/>
       <use x="190.869141" xlink:href="#DejaVuSans-30"/>
      </g>
     </g>
    </g>
    <g id="xtick_5">
     <g id="line2d_9">
      <path clip-path="url(#p93297aada9)" d="M 344.263684 307.584 
L 344.263684 41.472 
" style="fill:none;stroke:#ffffff;stroke-linecap:square;stroke-width:0.8;"/>
     </g>
     <g id="line2d_10">
      <g>
       <use style="fill:#555555;stroke:#555555;stroke-width:0.8;" x="344.263684" xlink:href="#m241cf378cf" y="307.584"/>
      </g>
     </g>
     <g id="text_5">
      <!-- 8000 -->
      <defs>
       <path d="M 31.78125 34.625 
Q 24.75 34.625 20.71875 30.859375 
Q 16.703125 27.09375 16.703125 20.515625 
Q 16.703125 13.921875 20.71875 10.15625 
Q 24.75 6.390625 31.78125 6.390625 
Q 38.8125 6.390625 42.859375 10.171875 
Q 46.921875 13.96875 46.921875 20.515625 
Q 46.921875 27.09375 42.890625 30.859375 
Q 38.875 34.625 31.78125 34.625 
z
M 21.921875 38.8125 
Q 15.578125 40.375 12.03125 44.71875 
Q 8.5 49.078125 8.5 55.328125 
Q 8.5 64.0625 14.71875 69.140625 
Q 20.953125 74.21875 31.78125 74.21875 
Q 42.671875 74.21875 48.875 69.140625 
Q 55.078125 64.0625 55.078125 55.328125 
Q 55.078125 49.078125 51.53125 44.71875 
Q 48 40.375 41.703125 38.8125 
Q 48.828125 37.15625 52.796875 32.3125 
Q 56.78125 27.484375 56.78125 20.515625 
Q 56.78125 9.90625 50.3125 4.234375 
Q 43.84375 -1.421875 31.78125 -1.421875 
Q 19.734375 -1.421875 13.25 4.234375 
Q 6.78125 9.90625 6.78125 20.515625 
Q 6.78125 27.484375 10.78125 32.3125 
Q 14.796875 37.15625 21.921875 38.8125 
z
M 18.3125 54.390625 
Q 18.3125 48.734375 21.84375 45.5625 
Q 25.390625 42.390625 31.78125 42.390625 
Q 38.140625 42.390625 41.71875 45.5625 
Q 45.3125 48.734375 45.3125 54.390625 
Q 45.3125 60.0625 41.71875 63.234375 
Q 38.140625 66.40625 31.78125 66.40625 
Q 25.390625 66.40625 21.84375 63.234375 
Q 18.3125 60.0625 18.3125 54.390625 
z
" id="DejaVuSans-38"/>
      </defs>
      <g style="fill:#555555;" transform="translate(331.538684 322.182437)scale(0.1 -0.1)">
       <use xlink:href="#DejaVuSans-38"/>
       <use x="63.623047" xlink:href="#DejaVuSans-30"/>
       <use x="127.246094" xlink:href="#DejaVuSans-30"/>
       <use x="190.869141" xlink:href="#DejaVuSans-30"/>
      </g>
     </g>
    </g>
    <g id="xtick_6">
     <g id="line2d_11">
      <path clip-path="url(#p93297aada9)" d="M 401.780941 307.584 
L 401.780941 41.472 
" style="fill:none;stroke:#ffffff;stroke-linecap:square;stroke-width:0.8;"/>
     </g>
     <g id="line2d_12">
      <g>
       <use style="fill:#555555;stroke:#555555;stroke-width:0.8;" x="401.780941" xlink:href="#m241cf378cf" y="307.584"/>
      </g>
     </g>
     <g id="text_6">
      <!-- 10000 -->
      <defs>
       <path d="M 12.40625 8.296875 
L 28.515625 8.296875 
L 28.515625 63.921875 
L 10.984375 60.40625 
L 10.984375 69.390625 
L 28.421875 72.90625 
L 38.28125 72.90625 
L 38.28125 8.296875 
L 54.390625 8.296875 
L 54.390625 0 
L 12.40625 0 
z
" id="DejaVuSans-31"/>
      </defs>
      <g style="fill:#555555;" transform="translate(385.874691 322.182437)scale(0.1 -0.1)">
       <use xlink:href="#DejaVuSans-31"/>
       <use x="63.623047" xlink:href="#DejaVuSans-30"/>
       <use x="127.246094" xlink:href="#DejaVuSans-30"/>
       <use x="190.869141" xlink:href="#DejaVuSans-30"/>
       <use x="254.492188" xlink:href="#DejaVuSans-30"/>
      </g>
     </g>
    </g>
    <g id="text_7">
     <!-- count -->
     <defs>
      <path d="M 48.78125 52.59375 
L 48.78125 44.1875 
Q 44.96875 46.296875 41.140625 47.34375 
Q 37.3125 48.390625 33.40625 48.390625 
Q 24.65625 48.390625 19.8125 42.84375 
Q 14.984375 37.3125 14.984375 27.296875 
Q 14.984375 17.28125 19.8125 11.734375 
Q 24.65625 6.203125 33.40625 6.203125 
Q 37.3125 6.203125 41.140625 7.25 
Q 44.96875 8.296875 48.78125 10.40625 
L 48.78125 2.09375 
Q 45.015625 0.34375 40.984375 -0.53125 
Q 36.96875 -1.421875 32.421875 -1.421875 
Q 20.0625 -1.421875 12.78125 6.34375 
Q 5.515625 14.109375 5.515625 27.296875 
Q 5.515625 40.671875 12.859375 48.328125 
Q 20.21875 56 33.015625 56 
Q 37.15625 56 41.109375 55.140625 
Q 45.0625 54.296875 48.78125 52.59375 
z
" id="DejaVuSans-63"/>
      <path d="M 30.609375 48.390625 
Q 23.390625 48.390625 19.1875 42.75 
Q 14.984375 37.109375 14.984375 27.296875 
Q 14.984375 17.484375 19.15625 11.84375 
Q 23.34375 6.203125 30.609375 6.203125 
Q 37.796875 6.203125 41.984375 11.859375 
Q 46.1875 17.53125 46.1875 27.296875 
Q 46.1875 37.015625 41.984375 42.703125 
Q 37.796875 48.390625 30.609375 48.390625 
z
M 30.609375 56 
Q 42.328125 56 49.015625 48.375 
Q 55.71875 40.765625 55.71875 27.296875 
Q 55.71875 13.875 49.015625 6.21875 
Q 42.328125 -1.421875 30.609375 -1.421875 
Q 18.84375 -1.421875 12.171875 6.21875 
Q 5.515625 13.875 5.515625 27.296875 
Q 5.515625 40.765625 12.171875 48.375 
Q 18.84375 56 30.609375 56 
z
" id="DejaVuSans-6f"/>
      <path d="M 8.5 21.578125 
L 8.5 54.6875 
L 17.484375 54.6875 
L 17.484375 21.921875 
Q 17.484375 14.15625 20.5 10.265625 
Q 23.53125 6.390625 29.59375 6.390625 
Q 36.859375 6.390625 41.078125 11.03125 
Q 45.3125 15.671875 45.3125 23.6875 
L 45.3125 54.6875 
L 54.296875 54.6875 
L 54.296875 0 
L 45.3125 0 
L 45.3125 8.40625 
Q 42.046875 3.421875 37.71875 1 
Q 33.40625 -1.421875 27.6875 -1.421875 
Q 18.265625 -1.421875 13.375 4.4375 
Q 8.5 10.296875 8.5 21.578125 
z
M 31.109375 56 
z
" id="DejaVuSans-75"/>
      <path d="M 54.890625 33.015625 
L 54.890625 0 
L 45.90625 0 
L 45.90625 32.71875 
Q 45.90625 40.484375 42.875 44.328125 
Q 39.84375 48.1875 33.796875 48.1875 
Q 26.515625 48.1875 22.3125 43.546875 
Q 18.109375 38.921875 18.109375 30.90625 
L 18.109375 0 
L 9.078125 0 
L 9.078125 54.6875 
L 18.109375 54.6875 
L 18.109375 46.1875 
Q 21.34375 51.125 25.703125 53.5625 
Q 30.078125 56 35.796875 56 
Q 45.21875 56 50.046875 50.171875 
Q 54.890625 44.34375 54.890625 33.015625 
z
" id="DejaVuSans-6e"/>
      <path d="M 18.3125 70.21875 
L 18.3125 54.6875 
L 36.8125 54.6875 
L 36.8125 47.703125 
L 18.3125 47.703125 
L 18.3125 18.015625 
Q 18.3125 11.328125 20.140625 9.421875 
Q 21.96875 7.515625 27.59375 7.515625 
L 36.8125 7.515625 
L 36.8125 0 
L 27.59375 0 
Q 17.1875 0 13.234375 3.875 
Q 9.28125 7.765625 9.28125 18.015625 
L 9.28125 47.703125 
L 2.6875 47.703125 
L 2.6875 54.6875 
L 9.28125 54.6875 
L 9.28125 70.21875 
z
" id="DejaVuSans-74"/>
     </defs>
     <g style="fill:#555555;" transform="translate(219.2325 337.38025)scale(0.12 -0.12)">
      <use xlink:href="#DejaVuSans-63"/>
      <use x="54.980469" xlink:href="#DejaVuSans-6f"/>
      <use x="116.162109" xlink:href="#DejaVuSans-75"/>
      <use x="179.541016" xlink:href="#DejaVuSans-6e"/>
      <use x="242.919922" xlink:href="#DejaVuSans-74"/>
     </g>
    </g>
   </g>
   <g id="matplotlib.axis_2">
    <g id="ytick_1">
     <g id="line2d_13">
      <path clip-path="url(#p93297aada9)" d="M 57.6 307.584 
L 414.72 307.584 
" style="fill:none;stroke:#ffffff;stroke-linecap:square;stroke-width:0.8;"/>
     </g>
     <g id="line2d_14">
      <defs>
       <path d="M 0 0 
L -3.5 0 
" id="mf837c124a1" style="stroke:#555555;stroke-width:0.8;"/>
      </defs>
      <g>
       <use style="fill:#555555;stroke:#555555;stroke-width:0.8;" x="57.6" xlink:href="#mf837c124a1" y="307.584"/>
      </g>
     </g>
     <g id="text_8">
      <!-- 0.0000 -->
      <defs>
       <path d="M 10.6875 12.40625 
L 21 12.40625 
L 21 0 
L 10.6875 0 
z
" id="DejaVuSans-2e"/>
      </defs>
      <g style="fill:#555555;" transform="translate(15.609375 311.383219)scale(0.1 -0.1)">
       <use xlink:href="#DejaVuSans-30"/>
       <use x="63.623047" xlink:href="#DejaVuSans-2e"/>
       <use x="95.410156" xlink:href="#DejaVuSans-30"/>
       <use x="159.033203" xlink:href="#DejaVuSans-30"/>
       <use x="222.65625" xlink:href="#DejaVuSans-30"/>
       <use x="286.279297" xlink:href="#DejaVuSans-30"/>
      </g>
     </g>
    </g>
    <g id="ytick_2">
     <g id="line2d_15">
      <path clip-path="url(#p93297aada9)" d="M 57.6 277.168964 
L 414.72 277.168964 
" style="fill:none;stroke:#ffffff;stroke-linecap:square;stroke-width:0.8;"/>
     </g>
     <g id="line2d_16">
      <g>
       <use style="fill:#555555;stroke:#555555;stroke-width:0.8;" x="57.6" xlink:href="#mf837c124a1" y="277.168964"/>
      </g>
     </g>
     <g id="text_9">
      <!-- 0.0002 -->
      <g style="fill:#555555;" transform="translate(15.609375 280.968183)scale(0.1 -0.1)">
       <use xlink:href="#DejaVuSans-30"/>
       <use x="63.623047" xlink:href="#DejaVuSans-2e"/>
       <use x="95.410156" xlink:href="#DejaVuSans-30"/>
       <use x="159.033203" xlink:href="#DejaVuSans-30"/>
       <use x="222.65625" xlink:href="#DejaVuSans-30"/>
       <use x="286.279297" xlink:href="#DejaVuSans-32"/>
      </g>
     </g>
    </g>
    <g id="ytick_3">
     <g id="line2d_17">
      <path clip-path="url(#p93297aada9)" d="M 57.6 246.753928 
L 414.72 246.753928 
" style="fill:none;stroke:#ffffff;stroke-linecap:square;stroke-width:0.8;"/>
     </g>
     <g id="line2d_18">
      <g>
       <use style="fill:#555555;stroke:#555555;stroke-width:0.8;" x="57.6" xlink:href="#mf837c124a1" y="246.753928"/>
      </g>
     </g>
     <g id="text_10">
      <!-- 0.0004 -->
      <g style="fill:#555555;" transform="translate(15.609375 250.553147)scale(0.1 -0.1)">
       <use xlink:href="#DejaVuSans-30"/>
       <use x="63.623047" xlink:href="#DejaVuSans-2e"/>
       <use x="95.410156" xlink:href="#DejaVuSans-30"/>
       <use x="159.033203" xlink:href="#DejaVuSans-30"/>
       <use x="222.65625" xlink:href="#DejaVuSans-30"/>
       <use x="286.279297" xlink:href="#DejaVuSans-34"/>
      </g>
     </g>
    </g>
    <g id="ytick_4">
     <g id="line2d_19">
      <path clip-path="url(#p93297aada9)" d="M 57.6 216.338893 
L 414.72 216.338893 
" style="fill:none;stroke:#ffffff;stroke-linecap:square;stroke-width:0.8;"/>
     </g>
     <g id="line2d_20">
      <g>
       <use style="fill:#555555;stroke:#555555;stroke-width:0.8;" x="57.6" xlink:href="#mf837c124a1" y="216.338893"/>
      </g>
     </g>
     <g id="text_11">
      <!-- 0.0006 -->
      <g style="fill:#555555;" transform="translate(15.609375 220.138111)scale(0.1 -0.1)">
       <use xlink:href="#DejaVuSans-30"/>
       <use x="63.623047" xlink:href="#DejaVuSans-2e"/>
       <use x="95.410156" xlink:href="#DejaVuSans-30"/>
       <use x="159.033203" xlink:href="#DejaVuSans-30"/>
       <use x="222.65625" xlink:href="#DejaVuSans-30"/>
       <use x="286.279297" xlink:href="#DejaVuSans-36"/>
      </g>
     </g>
    </g>
    <g id="ytick_5">
     <g id="line2d_21">
      <path clip-path="url(#p93297aada9)" d="M 57.6 185.923857 
L 414.72 185.923857 
" style="fill:none;stroke:#ffffff;stroke-linecap:square;stroke-width:0.8;"/>
     </g>
     <g id="line2d_22">
      <g>
       <use style="fill:#555555;stroke:#555555;stroke-width:0.8;" x="57.6" xlink:href="#mf837c124a1" y="185.923857"/>
      </g>
     </g>
     <g id="text_12">
      <!-- 0.0008 -->
      <g style="fill:#555555;" transform="translate(15.609375 189.723076)scale(0.1 -0.1)">
       <use xlink:href="#DejaVuSans-30"/>
       <use x="63.623047" xlink:href="#DejaVuSans-2e"/>
       <use x="95.410156" xlink:href="#DejaVuSans-30"/>
       <use x="159.033203" xlink:href="#DejaVuSans-30"/>
       <use x="222.65625" xlink:href="#DejaVuSans-30"/>
       <use x="286.279297" xlink:href="#DejaVuSans-38"/>
      </g>
     </g>
    </g>
    <g id="ytick_6">
     <g id="line2d_23">
      <path clip-path="url(#p93297aada9)" d="M 57.6 155.508821 
L 414.72 155.508821 
" style="fill:none;stroke:#ffffff;stroke-linecap:square;stroke-width:0.8;"/>
     </g>
     <g id="line2d_24">
      <g>
       <use style="fill:#555555;stroke:#555555;stroke-width:0.8;" x="57.6" xlink:href="#mf837c124a1" y="155.508821"/>
      </g>
     </g>
     <g id="text_13">
      <!-- 0.0010 -->
      <g style="fill:#555555;" transform="translate(15.609375 159.30804)scale(0.1 -0.1)">
       <use xlink:href="#DejaVuSans-30"/>
       <use x="63.623047" xlink:href="#DejaVuSans-2e"/>
       <use x="95.410156" xlink:href="#DejaVuSans-30"/>
       <use x="159.033203" xlink:href="#DejaVuSans-30"/>
       <use x="222.65625" xlink:href="#DejaVuSans-31"/>
       <use x="286.279297" xlink:href="#DejaVuSans-30"/>
      </g>
     </g>
    </g>
    <g id="ytick_7">
     <g id="line2d_25">
      <path clip-path="url(#p93297aada9)" d="M 57.6 125.093785 
L 414.72 125.093785 
" style="fill:none;stroke:#ffffff;stroke-linecap:square;stroke-width:0.8;"/>
     </g>
     <g id="line2d_26">
      <g>
       <use style="fill:#555555;stroke:#555555;stroke-width:0.8;" x="57.6" xlink:href="#mf837c124a1" y="125.093785"/>
      </g>
     </g>
     <g id="text_14">
      <!-- 0.0012 -->
      <g style="fill:#555555;" transform="translate(15.609375 128.893004)scale(0.1 -0.1)">
       <use xlink:href="#DejaVuSans-30"/>
       <use x="63.623047" xlink:href="#DejaVuSans-2e"/>
       <use x="95.410156" xlink:href="#DejaVuSans-30"/>
       <use x="159.033203" xlink:href="#DejaVuSans-30"/>
       <use x="222.65625" xlink:href="#DejaVuSans-31"/>
       <use x="286.279297" xlink:href="#DejaVuSans-32"/>
      </g>
     </g>
    </g>
    <g id="ytick_8">
     <g id="line2d_27">
      <path clip-path="url(#p93297aada9)" d="M 57.6 94.678749 
L 414.72 94.678749 
" style="fill:none;stroke:#ffffff;stroke-linecap:square;stroke-width:0.8;"/>
     </g>
     <g id="line2d_28">
      <g>
       <use style="fill:#555555;stroke:#555555;stroke-width:0.8;" x="57.6" xlink:href="#mf837c124a1" y="94.678749"/>
      </g>
     </g>
     <g id="text_15">
      <!-- 0.0014 -->
      <g style="fill:#555555;" transform="translate(15.609375 98.477968)scale(0.1 -0.1)">
       <use xlink:href="#DejaVuSans-30"/>
       <use x="63.623047" xlink:href="#DejaVuSans-2e"/>
       <use x="95.410156" xlink:href="#DejaVuSans-30"/>
       <use x="159.033203" xlink:href="#DejaVuSans-30"/>
       <use x="222.65625" xlink:href="#DejaVuSans-31"/>
       <use x="286.279297" xlink:href="#DejaVuSans-34"/>
      </g>
     </g>
    </g>
    <g id="ytick_9">
     <g id="line2d_29">
      <path clip-path="url(#p93297aada9)" d="M 57.6 64.263714 
L 414.72 64.263714 
" style="fill:none;stroke:#ffffff;stroke-linecap:square;stroke-width:0.8;"/>
     </g>
     <g id="line2d_30">
      <g>
       <use style="fill:#555555;stroke:#555555;stroke-width:0.8;" x="57.6" xlink:href="#mf837c124a1" y="64.263714"/>
      </g>
     </g>
     <g id="text_16">
      <!-- 0.0016 -->
      <g style="fill:#555555;" transform="translate(15.609375 68.062932)scale(0.1 -0.1)">
       <use xlink:href="#DejaVuSans-30"/>
       <use x="63.623047" xlink:href="#DejaVuSans-2e"/>
       <use x="95.410156" xlink:href="#DejaVuSans-30"/>
       <use x="159.033203" xlink:href="#DejaVuSans-30"/>
       <use x="222.65625" xlink:href="#DejaVuSans-31"/>
       <use x="286.279297" xlink:href="#DejaVuSans-36"/>
      </g>
     </g>
    </g>
    <g id="text_17">
     <!-- f(count) -->
     <defs>
      <path d="M 37.109375 75.984375 
L 37.109375 68.5 
L 28.515625 68.5 
Q 23.6875 68.5 21.796875 66.546875 
Q 19.921875 64.59375 19.921875 59.515625 
L 19.921875 54.6875 
L 34.71875 54.6875 
L 34.71875 47.703125 
L 19.921875 47.703125 
L 19.921875 0 
L 10.890625 0 
L 10.890625 47.703125 
L 2.296875 47.703125 
L 2.296875 54.6875 
L 10.890625 54.6875 
L 10.890625 58.5 
Q 10.890625 67.625 15.140625 71.796875 
Q 19.390625 75.984375 28.609375 75.984375 
z
" id="DejaVuSans-66"/>
      <path d="M 31 75.875 
Q 24.46875 64.65625 21.28125 53.65625 
Q 18.109375 42.671875 18.109375 31.390625 
Q 18.109375 20.125 21.3125 9.0625 
Q 24.515625 -2 31 -13.1875 
L 23.1875 -13.1875 
Q 15.875 -1.703125 12.234375 9.375 
Q 8.59375 20.453125 8.59375 31.390625 
Q 8.59375 42.28125 12.203125 53.3125 
Q 15.828125 64.359375 23.1875 75.875 
z
" id="DejaVuSans-28"/>
      <path d="M 8.015625 75.875 
L 15.828125 75.875 
Q 23.140625 64.359375 26.78125 53.3125 
Q 30.421875 42.28125 30.421875 31.390625 
Q 30.421875 20.453125 26.78125 9.375 
Q 23.140625 -1.703125 15.828125 -13.1875 
L 8.015625 -13.1875 
Q 14.5 -2 17.703125 9.0625 
Q 20.90625 20.125 20.90625 31.390625 
Q 20.90625 42.671875 17.703125 53.65625 
Q 14.5 64.65625 8.015625 75.875 
z
" id="DejaVuSans-29"/>
     </defs>
     <g style="fill:#555555;" transform="translate(9.11375 198.249562)rotate(-90)scale(0.12 -0.12)">
      <use xlink:href="#DejaVuSans-66"/>
      <use x="35.205078" xlink:href="#DejaVuSans-28"/>
      <use x="74.21875" xlink:href="#DejaVuSans-63"/>
      <use x="129.199219" xlink:href="#DejaVuSans-6f"/>
      <use x="190.380859" xlink:href="#DejaVuSans-75"/>
      <use x="253.759766" xlink:href="#DejaVuSans-6e"/>
      <use x="317.138672" xlink:href="#DejaVuSans-74"/>
      <use x="356.347656" xlink:href="#DejaVuSans-29"/>
     </g>
    </g>
   </g>
   <g id="line2d_31">
    <path clip-path="url(#p93297aada9)" d="M 107.182462 307.214278 
L 107.959718 306.706992 
L 108.736973 305.638445 
L 109.514228 303.544043 
L 110.291483 299.723722 
L 111.068738 293.23838 
L 111.845994 282.993196 
L 112.623249 267.936947 
L 113.400504 247.368602 
L 114.177759 221.286642 
L 114.955015 190.666724 
L 115.73227 157.539626 
L 116.509525 124.783525 
L 117.28678 95.635745 
L 118.064036 73.035872 
L 118.841291 58.988524 
L 119.618546 54.144 
L 120.395801 57.729023 
L 121.173056 67.840902 
L 121.950312 81.993921 
L 122.727567 97.728929 
L 123.504822 113.098632 
L 124.282077 126.916025 
L 125.059333 138.75912 
L 125.836588 148.806224 
L 126.613843 157.599164 
L 127.391098 165.804717 
L 128.168354 174.005016 
L 128.945609 182.530765 
L 129.722864 191.361264 
L 130.500119 200.126601 
L 131.277374 208.230964 
L 132.05463 215.068406 
L 132.831885 220.251901 
L 133.60914 223.760955 
L 134.386395 225.948811 
L 135.163651 227.418042 
L 135.940906 228.831564 
L 136.718161 230.741441 
L 137.495416 233.488379 
L 138.272672 237.178184 
L 139.049927 241.711071 
L 139.827182 246.838568 
L 140.604437 252.237087 
L 141.381692 257.594111 
L 142.158948 262.692856 
L 142.936203 267.466545 
L 143.713458 271.994111 
L 144.490713 276.432797 
L 145.267969 280.916734 
L 146.045224 285.470731 
L 146.822479 289.980627 
L 147.599734 294.23041 
L 148.37699 297.982031 
L 149.154245 301.056643 
L 149.9315 303.382833 
L 150.708755 304.999903 
L 151.48601 306.026654 
L 152.263266 306.616997 
L 153.040521 306.921269 
L 153.817776 307.062566 
L 154.595031 307.128085 
L 155.372287 307.170702 
L 156.149542 307.215566 
L 156.926797 307.267965 
L 157.704052 307.320305 
L 158.481308 307.35679 
L 159.258563 307.354957 
L 160.035818 307.284015 
L 160.813073 307.101195 
L 161.590328 306.748891 
L 162.367584 306.156413 
L 163.144839 305.250018 
L 163.922094 303.972509 
L 164.699349 302.309046 
L 165.476605 300.310291 
L 166.25386 298.10069 
L 167.031115 295.862265 
L 167.80837 293.79383 
L 168.585625 292.058697 
L 169.362881 290.743361 
L 170.140136 289.848023 
L 170.917391 289.315532 
L 171.694646 289.085045 
L 172.471902 289.141876 
L 173.249157 289.535483 
L 174.026412 290.354122 
L 174.803667 291.668575 
L 175.580923 293.474675 
L 176.358178 295.665103 
L 177.135433 298.044963 
L 177.912688 300.382887 
L 178.689943 302.473047 
L 179.467199 304.181728 
L 180.244454 305.463515 
L 181.021709 306.348245 
L 181.798964 306.911281 
L 182.57622 307.242169 
L 183.353475 307.421964 
L 184.13073 307.51238 
" style="fill:none;stroke:#e24a33;stroke-linecap:square;stroke-width:0.3;"/>
   </g>
   <g id="line2d_32">
    <path clip-path="url(#p93297aada9)" d="M 108.644382 307.462735 
L 109.296241 307.361791 
L 109.948101 307.18708 
L 110.59996 306.892847 
L 111.251819 306.410769 
L 111.903679 305.642514 
L 112.555538 304.451961 
L 113.207398 302.658391 
L 113.859257 300.032586 
L 114.511117 296.298362 
L 115.162976 291.142295 
L 115.814835 284.23416 
L 116.466695 275.25952 
L 117.118554 263.964008 
L 117.770414 250.206141 
L 118.422273 234.012515 
L 119.074132 215.626468 
L 119.725992 195.539729 
L 120.377851 174.496916 
L 121.029711 153.465459 
L 121.68157 133.568612 
L 122.333429 115.985889 
L 122.985289 101.832165 
L 123.637148 92.0323 
L 124.289008 87.210745 
L 124.940867 87.614512 
L 125.592726 93.082815 
L 126.244586 103.068827 
L 126.896445 116.709902 
L 127.548305 132.934384 
L 128.200164 150.587437 
L 128.852023 168.556354 
L 129.503883 185.877497 
L 130.155742 201.81177 
L 130.807602 215.881984 
L 131.459461 227.872113 
L 132.111321 237.794155 
L 132.76318 245.832138 
L 133.415039 252.274607 
L 134.066899 257.446705 
L 134.718758 261.651201 
L 135.370618 265.124976 
L 136.022477 268.014242 
L 136.674336 270.368474 
L 137.326196 272.150348 
L 137.978055 273.257057 
L 138.629915 273.547603 
L 139.281774 272.870903 
L 139.933633 271.090744 
L 140.585493 268.105368 
L 141.237352 263.861284 
L 141.889212 258.362348 
L 142.541071 251.675838 
L 143.19293 243.937029 
L 143.84479 235.352773 
L 144.496649 226.203171 
L 145.148509 216.839126 
L 145.800368 207.6729 
L 146.452227 199.159206 
L 147.104087 191.765862 
L 147.755946 185.935394 
L 148.407806 182.041625 
L 149.059665 180.34744 
L 149.711525 180.970913 
L 150.363384 183.86643 
L 151.015243 188.825241 
L 151.667103 195.496553 
L 152.318962 203.426524 
L 152.970822 212.109209 
L 153.622681 221.04151 
L 154.27454 229.773757 
L 154.9264 237.948868 
L 155.578259 245.325563 
L 156.230119 251.784233 
L 156.881978 257.317045 
L 157.533837 262.006087 
L 158.185697 265.994526 
L 158.837556 269.455838 
L 159.489416 272.565453 
L 160.141275 275.477914 
L 160.793134 278.311288 
L 161.444994 281.139311 
L 162.096853 283.990759 
L 162.748713 286.854774 
L 163.400572 289.690434 
L 164.052431 292.438617 
L 164.704291 295.034221 
L 165.35615 297.417033 
L 166.00801 299.539982 
L 166.659869 301.374056 
L 167.311729 302.909813 
L 167.963588 304.155921 
L 168.615447 305.135576 
L 169.267307 305.881791 
L 169.919166 306.432514 
L 170.571026 306.826337 
L 171.222885 307.099226 
L 171.874744 307.282465 
L 172.526604 307.401703 
L 173.178463 307.476903 
" style="fill:none;stroke:#348abd;stroke-linecap:square;stroke-width:0.3;"/>
   </g>
   <g id="line2d_33">
    <path clip-path="url(#p93297aada9)" d="M 101.782358 307.025519 
L 102.744815 306.476138 
L 103.707272 305.480318 
L 104.669729 303.75896 
L 105.632186 300.921924 
L 106.594643 296.464887 
L 107.5571 289.793012 
L 108.519557 280.281985 
L 109.482013 267.380638 
L 110.44447 250.747931 
L 111.406927 230.402501 
L 112.369384 206.850025 
L 113.331841 181.147785 
L 114.294298 154.871943 
L 115.256755 129.972099 
L 116.219212 108.525943 
L 117.181669 92.436106 
L 118.144126 83.131618 
L 119.106583 81.340258 
L 120.06904 86.982948 
L 121.031497 99.211651 
L 121.993954 116.577058 
L 122.956411 137.282724 
L 123.918868 159.466414 
L 124.881325 181.45056 
L 125.843781 201.919267 
L 126.806238 220.002656 
L 127.768695 235.272817 
L 128.731152 247.673182 
L 129.693609 257.411598 
L 130.656066 264.847059 
L 131.618523 270.393099 
L 132.58098 274.450523 
L 133.543437 277.371637 
L 134.505894 279.449993 
L 135.468351 280.925391 
L 136.430808 281.993734 
L 137.393265 282.814413 
L 138.355722 283.512271 
L 139.318179 284.175067 
L 140.280636 284.849353 
L 141.243093 285.537734 
L 142.205549 286.199438 
L 143.168006 286.755033 
L 144.130463 287.095656 
L 145.09292 287.097138 
L 146.055377 286.639104 
L 147.017834 285.628009 
L 147.980291 284.021012 
L 148.942748 281.845643 
L 149.905205 279.209445 
L 150.867662 276.295229 
L 151.830119 273.341074 
L 152.792576 270.60864 
L 153.755033 268.346944 
L 154.71749 266.759926 
L 155.679947 265.984437 
L 156.642404 266.081373 
L 157.604861 267.038427 
L 158.567317 268.78 
L 159.529774 271.179377 
L 160.492231 274.07 
L 161.454688 277.255485 
L 162.417145 280.520206 
L 163.379602 283.642872 
L 164.342059 286.414322 
L 165.304516 288.658536 
L 166.266973 290.253616 
L 167.22943 291.14837 
L 168.191887 291.37026 
L 169.154344 291.02207 
L 170.116801 290.266948 
L 171.079258 289.304005 
L 172.041715 288.338786 
L 173.004172 287.554075 
L 173.966629 287.086541 
L 174.929085 287.013425 
L 175.891542 287.351233 
L 176.853999 288.065607 
L 177.816456 289.08894 
L 178.778913 290.340633 
L 179.74137 291.744626 
L 180.703827 293.240162 
L 181.666284 294.784242 
L 182.628741 296.347098 
L 183.591198 297.904132 
L 184.553655 299.428491 
L 185.516112 300.887475 
L 186.478569 302.243937 
L 187.441026 303.461602 
L 188.403483 304.511801 
L 189.36594 305.378881 
L 190.328397 306.062492 
L 191.290853 306.576329 
L 192.25331 306.944192 
L 193.215767 307.194897 
L 194.178224 307.357509 
L 195.140681 307.457885 
L 196.103138 307.516853 
L 197.065595 307.549827 
" style="fill:none;stroke:#988ed5;stroke-linecap:square;stroke-width:0.3;"/>
   </g>
   <g id="line2d_34">
    <path clip-path="url(#p93297aada9)" d="M 109.648655 307.478989 
L 110.339777 307.330888 
L 111.030898 307.010588 
L 111.72202 306.362617 
L 112.413142 305.136883 
L 113.104264 302.96972 
L 113.795385 299.390238 
L 114.486507 293.87049 
L 115.177629 285.929549 
L 115.868751 275.28109 
L 116.559873 261.986973 
L 117.250994 246.559038 
L 117.942116 229.953573 
L 118.633238 213.43449 
L 119.32436 198.332051 
L 120.015481 185.769382 
L 120.706603 176.444338 
L 121.397725 170.531241 
L 122.088847 167.719774 
L 122.779968 167.362419 
L 123.47109 168.676706 
L 124.162212 170.946392 
L 124.853334 173.676337 
L 125.544455 176.669006 
L 126.235577 180.004732 
L 126.926699 183.92727 
L 127.617821 188.662332 
L 128.308942 194.2232 
L 129.000064 200.272078 
L 129.691186 206.097744 
L 130.382308 210.736224 
L 131.073429 213.20937 
L 131.764551 212.805391 
L 132.455673 209.299512 
L 133.146795 203.029999 
L 133.837916 194.802823 
L 134.529038 185.671211 
L 135.22016 176.685859 
L 135.911282 168.710635 
L 136.602403 162.350187 
L 137.293525 157.972089 
L 137.984647 155.76583 
L 138.675769 155.784078 
L 139.366891 157.947659 
L 140.058012 162.03492 
L 140.749134 167.691724 
L 141.440256 174.483406 
L 142.131378 181.978377 
L 142.822499 189.827277 
L 143.513621 197.798311 
L 144.204743 205.750823 
L 144.895865 213.563271 
L 145.586986 221.059172 
L 146.278108 227.979199 
L 146.96923 234.025106 
L 147.660352 238.962687 
L 148.351473 242.736916 
L 149.042595 245.541335 
L 149.733717 247.801774 
L 150.424839 250.072071 
L 151.11596 252.877793 
L 151.807082 256.565089 
L 152.498204 261.207295 
L 153.189326 266.59625 
L 153.880447 272.311892 
L 154.571569 277.838099 
L 155.262691 282.684369 
L 155.953813 286.481259 
L 156.644934 289.034231 
L 157.336056 290.335557 
L 158.027178 290.541884 
L 158.7183 289.927163 
L 159.409421 288.821115 
L 160.100543 287.545168 
L 160.791665 286.359699 
L 161.482787 285.435164 
L 162.173909 284.853042 
L 162.86503 284.632058 
L 163.556152 284.765328 
L 164.247274 285.250394 
L 164.938396 286.098964 
L 165.629517 287.324625 
L 166.320639 288.918758 
L 167.011761 290.83065 
L 167.702883 292.964214 
L 168.394004 295.193436 
L 169.085126 297.388387 
L 169.776248 299.439493 
L 170.46737 301.271075 
L 171.158491 302.842602 
L 171.849613 304.14204 
L 172.540735 305.177355 
L 173.231857 305.969873 
L 173.922978 306.550007 
L 174.6141 306.953947 
L 175.305222 307.220136 
L 175.996344 307.38545 
L 176.687465 307.481887 
L 177.378587 307.534602 
L 178.069709 307.561557 
" style="fill:none;stroke:#777777;stroke-linecap:square;stroke-width:0.3;"/>
   </g>
   <g id="line2d_35">
    <path clip-path="url(#p93297aada9)" d="M 73.832727 307.476031 
L 77.112066 307.39039 
L 80.391405 307.247325 
L 83.670744 307.016205 
L 86.950083 306.655217 
L 90.229421 306.110235 
L 93.50876 305.31525 
L 96.788099 304.195179 
L 100.067438 302.671766 
L 103.346777 300.672846 
L 106.626116 298.144599 
L 109.905455 295.065506 
L 113.184793 291.459819 
L 116.464132 287.40775 
L 119.743471 283.049416 
L 123.02281 278.580242 
L 126.302149 274.236825 
L 129.581488 270.274176 
L 132.860826 266.937229 
L 136.140165 264.431057 
L 139.419504 262.894992 
L 142.698843 262.385321 
L 145.978182 262.869751 
L 149.257521 264.234492 
L 152.53686 266.302396 
L 155.816198 268.858491 
L 159.095537 271.678181 
L 162.374876 274.553314 
L 165.654215 277.3123 
L 168.933554 279.832125 
L 172.212893 282.041874 
L 175.492231 283.918976 
L 178.77157 285.48034 
L 182.050909 286.770866 
L 185.330248 287.851585 
L 188.609587 288.789002 
L 191.888926 289.646557 
L 195.168264 290.478449 
L 198.447603 291.325701 
L 201.726942 292.214191 
L 205.006281 293.154304 
L 208.28562 294.141951 
L 211.564959 295.160684 
L 214.844298 296.184597 
L 218.123636 297.181684 
L 221.402975 298.117307 
L 224.682314 298.957458 
L 227.961653 299.671631 
L 231.240992 300.235223 
L 234.520331 300.631467 
L 237.799669 300.852892 
L 241.079008 300.902263 
L 244.358347 300.792839 
L 247.637686 300.547761 
L 250.917025 300.19845 
L 254.196364 299.782005 
L 257.475702 299.337856 
L 260.755041 298.904092 
L 264.03438 298.514027 
L 267.313719 298.193539 
L 270.593058 297.959574 
L 273.872397 297.819925 
L 277.151736 297.77414 
L 280.431074 297.815142 
L 283.710413 297.93106 
L 286.989752 298.106756 
L 290.269091 298.324746 
L 293.54843 298.565434 
L 296.827769 298.806913 
L 300.107107 299.024792 
L 303.386446 299.192641 
L 306.665785 299.28356 
L 309.945124 299.273131 
L 313.224463 299.143587 
L 316.503802 298.888573 
L 319.78314 298.517485 
L 323.062479 298.058157 
L 326.341818 297.556794 
L 329.621157 297.074515 
L 332.900496 296.680551 
L 336.179835 296.443016 
L 339.459174 296.418826 
L 342.738512 296.644745 
L 346.017851 297.131386 
L 349.29719 297.861437 
L 352.576529 298.792453 
L 355.855868 299.863553 
L 359.135207 301.004558 
L 362.414545 302.145683 
L 365.693884 303.225991 
L 368.973223 304.199282 
L 372.252562 305.036806 
L 375.531901 305.726946 
L 378.81124 306.272571 
L 382.090579 306.687045 
L 385.369917 306.989901 
L 388.649256 307.202956 
L 391.928595 307.347359 
L 395.207934 307.441709 
L 398.487273 307.501165 
" style="fill:none;stroke:#fbc15e;stroke-linecap:square;stroke-width:0.3;"/>
   </g>
   <g id="line2d_36">
    <path clip-path="url(#p93297aada9)" d="M 160.613611 307.548658 
L 162.87881 307.524749 
L 165.144009 307.487245 
L 167.409209 307.430085 
L 169.674408 307.345444 
L 171.939607 307.223691 
L 174.204807 307.053574 
L 176.470006 306.822715 
L 178.735205 306.518463 
L 181.000404 306.129072 
L 183.265604 305.645114 
L 185.530803 305.060951 
L 187.796002 304.375987 
L 190.061202 303.595433 
L 192.326401 302.730318 
L 194.5916 301.796607 
L 196.856799 300.813437 
L 199.121999 299.800715 
L 201.387198 298.776468 
L 203.652397 297.754496 
L 205.917597 296.742836 
L 208.182796 295.743443 
L 210.447995 294.753235 
L 212.713194 293.766353 
L 214.978394 292.777204 
L 217.243593 291.783678 
L 219.508792 290.789883 
L 221.773991 289.807861 
L 224.039191 288.857976 
L 226.30439 287.967921 
L 228.569589 287.170531 
L 230.834789 286.500715 
L 233.099988 285.991855 
L 235.365187 285.67196 
L 237.630386 285.559832 
L 239.895586 285.661412 
L 242.160785 285.966604 
L 244.425984 286.446907 
L 246.691184 287.054356 
L 248.956383 287.722308 
L 251.221582 288.368525 
L 253.486781 288.900772 
L 255.751981 289.224763 
L 258.01718 289.253828 
L 260.282379 288.919235 
L 262.547579 288.179812 
L 264.812778 287.029408 
L 267.077977 285.500896 
L 269.343176 283.665842 
L 271.608376 281.6295 
L 273.873575 279.521526 
L 276.138774 277.483378 
L 278.403974 275.653912 
L 280.669173 274.154952 
L 282.934372 273.078613 
L 285.199571 272.47791 
L 287.464771 272.361702 
L 289.72997 272.694429 
L 291.995169 273.400445 
L 294.260369 274.372245 
L 296.525568 275.481422 
L 298.790767 276.591054 
L 301.055966 277.568134 
L 303.321166 278.294888 
L 305.586365 278.678027 
L 307.851564 278.655347 
L 310.116764 278.199443 
L 312.381963 277.318574 
L 314.647162 276.055021 
L 316.912361 274.481405 
L 319.177561 272.695518 
L 321.44276 270.814171 
L 323.707959 268.966448 
L 325.973159 267.286598 
L 328.238358 265.906641 
L 330.503557 264.948736 
L 332.768756 264.517404 
L 335.033956 264.691915 
L 337.299155 265.519422 
L 339.564354 267.009676 
L 341.829554 269.132272 
L 344.094753 271.817286 
L 346.359952 274.959757 
L 348.625151 278.42793 
L 350.890351 282.07447 
L 353.15555 285.749292 
L 355.420749 289.312318 
L 357.685949 292.644424 
L 359.951148 295.655239 
L 362.216347 298.28699 
L 364.481546 300.514335 
L 366.746746 302.340758 
L 369.011945 303.792566 
L 371.277144 304.911707 
L 373.542344 305.748597 
L 375.807543 306.355856 
L 378.072742 306.783516 
L 380.337941 307.075878 
L 382.603141 307.269927 
L 384.86834 307.394991 
" style="fill:none;stroke:#8eba42;stroke-linecap:square;stroke-width:0.3;"/>
   </g>
   <g id="line2d_37">
    <path clip-path="url(#p93297aada9)" d="M 82.600965 307.558224 
L 85.724374 307.534271 
L 88.847782 307.49129 
L 91.971191 307.416906 
L 95.0946 307.292713 
L 98.218008 307.092586 
L 101.341417 306.781225 
L 104.464825 306.313328 
L 107.588234 305.63392 
L 110.711642 304.680332 
L 113.835051 303.386243 
L 116.95846 301.687953 
L 120.081868 299.532679 
L 123.205277 296.888253 
L 126.328685 293.753104 
L 129.452094 290.164969 
L 132.575503 286.206547 
L 135.698911 282.006286 
L 138.82232 277.732953 
L 141.945728 273.583519 
L 145.069137 269.76518 
L 148.192545 266.473825 
L 151.315954 263.87239 
L 154.439363 262.073114 
L 157.562771 261.12715 
L 160.68618 261.023496 
L 163.809588 261.697059 
L 166.932997 263.043536 
L 170.056405 264.937333 
L 173.179814 267.248474 
L 176.303223 269.855296 
L 179.426631 272.651424 
L 182.55004 275.547304 
L 185.673448 278.467968 
L 188.796857 281.349264 
L 191.920266 284.134527 
L 195.043674 286.772869 
L 198.167083 289.219319 
L 201.290491 291.436265 
L 204.4139 293.395281 
L 207.537308 295.078442 
L 210.660717 296.478542 
L 213.784126 297.598083 
L 216.907534 298.447334 
L 220.030943 299.042006 
L 223.154351 299.401201 
L 226.27776 299.546105 
L 229.401168 299.499639 
L 232.524577 299.28692 
L 235.647986 298.936087 
L 238.771394 298.478923 
L 241.894803 297.950745 
L 245.018211 297.389298 
L 248.14162 296.832692 
L 251.265029 296.316771 
L 254.388437 295.87248 
L 257.511846 295.523812 
L 260.635254 295.286717 
L 263.758663 295.169056 
L 266.882071 295.17135 
L 270.00548 295.287857 
L 273.128889 295.507481 
L 276.252297 295.814174 
L 279.375706 296.186811 
L 282.499114 296.598842 
L 285.622523 297.018239 
L 288.745931 297.408307 
L 291.86934 297.729733 
L 294.992749 297.94393 
L 298.116157 298.017335 
L 301.239566 297.926085 
L 304.362974 297.660301 
L 307.486383 297.227306 
L 310.609792 296.653216 
L 313.7332 295.982575 
L 316.856609 295.275861 
L 319.980017 294.604897 
L 323.103426 294.046395 
L 326.226834 293.674118 
L 329.350243 293.550492 
L 332.473652 293.718761 
L 335.59706 294.196979 
L 338.720469 294.974979 
L 341.843877 296.015103 
L 344.967286 297.256765 
L 348.090694 298.62418 
L 351.214103 300.035932 
L 354.337512 301.414695 
L 357.46092 302.695465 
L 360.584329 303.831069 
L 363.707737 304.794391 
L 366.831146 305.577451 
L 369.954555 306.188077 
L 373.077963 306.645213 
L 376.201372 306.973943 
L 379.32478 307.201095 
L 382.448189 307.351961 
L 385.571597 307.448285 
L 388.695006 307.507414 
L 391.818415 307.542313 
" style="fill:none;stroke:#ffb5b8;stroke-linecap:square;stroke-width:0.3;"/>
   </g>
   <g id="line2d_38">
    <path clip-path="url(#p93297aada9)" d="M 105.902302 307.558285 
L 108.531446 307.523102 
L 111.160591 307.448135 
L 113.789736 307.298161 
L 116.418881 307.016339 
L 119.048025 306.518757 
L 121.67717 305.693209 
L 124.306315 304.40628 
L 126.935459 302.522049 
L 129.564604 299.932838 
L 132.193749 296.597249 
L 134.822894 292.57499 
L 137.452038 288.044446 
L 140.081183 283.2907 
L 142.710328 278.660055 
L 145.339472 274.489985 
L 147.968617 271.035406 
L 150.597762 268.416823 
L 153.226907 266.609457 
L 155.856051 265.476737 
L 158.485196 264.833767 
L 161.114341 264.515338 
L 163.743486 264.423795 
L 166.37263 264.543225 
L 169.001775 264.920871 
L 171.63092 265.627341 
L 174.260064 266.710713 
L 176.889209 268.158171 
L 179.518354 269.875772 
L 182.147499 271.693797 
L 184.776643 273.400279 
L 187.405788 274.796913 
L 190.034933 275.761064 
L 192.664078 276.290418 
L 195.293222 276.508712 
L 197.922367 276.623987 
L 200.551512 276.850494 
L 203.180656 277.32269 
L 205.809801 278.035642 
L 208.438946 278.836995 
L 211.068091 279.475284 
L 213.697235 279.687289 
L 216.32638 279.293033 
L 218.955525 278.265921 
L 221.584669 276.756062 
L 224.213814 275.061432 
L 226.842959 273.557736 
L 229.472104 272.609188 
L 232.101248 272.486318 
L 234.730393 273.312959 
L 237.359538 275.053927 
L 239.988683 277.541404 
L 242.617827 280.526428 
L 245.246972 283.736782 
L 247.876117 286.924986 
L 250.505261 289.897736 
L 253.134406 292.526624 
L 255.763551 294.745368 
L 258.392696 296.54 
L 261.02184 297.93664 
L 263.650985 298.989022 
L 266.28013 299.76648 
L 268.909275 300.342869 
L 271.538419 300.787252 
L 274.167564 301.157208 
L 276.796709 301.49525 
L 279.425853 301.828224 
L 282.054998 302.169119 
L 284.684143 302.520416 
L 287.313288 302.877996 
L 289.942432 303.234624 
L 292.571577 303.582319 
L 295.200722 303.913403 
L 297.829867 304.220608 
L 300.459011 304.496964 
L 303.088156 304.73613 
L 305.717301 304.933411 
L 308.346445 305.087233 
L 310.97559 305.200455 
L 313.604735 305.280819 
L 316.23388 305.340179 
L 318.863024 305.392613 
L 321.492169 305.452072 
L 324.121314 305.530339 
L 326.750458 305.635778 
L 329.379603 305.772832 
L 332.008748 305.941872 
L 334.637893 306.139052 
L 337.267037 306.356299 
L 339.896182 306.581886 
L 342.525327 306.802012 
L 345.154472 307.003243 
L 347.783616 307.175125 
L 350.412761 307.312019 
L 353.041906 307.413533 
L 355.67105 307.483555 
L 358.300195 307.528457 
L 360.92934 307.555217 
L 363.558485 307.570038 
L 366.187629 307.577665 
" style="fill:none;stroke:#e24a33;stroke-linecap:square;stroke-width:0.3;"/>
   </g>
   <g id="line2d_39">
    <path clip-path="url(#p93297aada9)" d="M 74.667446 307.547951 
L 77.931665 307.519162 
L 81.195884 307.470842 
L 84.460103 307.392303 
L 87.724321 307.268648 
L 90.98854 307.080011 
L 94.252759 306.801074 
L 97.516978 306.401092 
L 100.781196 305.844582 
L 104.045415 305.092797 
L 107.309634 304.105964 
L 110.573853 302.84612 
L 113.838072 301.280271 
L 117.10229 299.383534 
L 120.366509 297.141989 
L 123.630728 294.555116 
L 126.894947 291.637879 
L 130.159165 288.422682 
L 133.423384 284.961387 
L 136.687603 281.32739 
L 139.951822 277.617332 
L 143.216041 273.951572 
L 146.480259 270.472213 
L 149.744478 267.337494 
L 153.008697 264.711844 
L 156.272916 262.751822 
L 159.537135 261.589317 
L 162.801353 261.314462 
L 166.065572 261.961303 
L 169.329791 263.499215 
L 172.59401 265.832163 
L 175.858228 268.806532 
L 179.122447 272.226593 
L 182.386666 275.875213 
L 185.650885 279.536565 
L 188.915104 283.017359 
L 192.179322 286.163676 
L 195.443541 288.871468 
L 198.70776 291.089981 
L 201.971979 292.818546 
L 205.236197 294.098021 
L 208.500416 294.998748 
L 211.764635 295.607036 
L 215.028854 296.012111 
L 218.293073 296.295148 
L 221.557291 296.5215 
L 224.82151 296.736715 
L 228.085729 296.966322 
L 231.349948 297.218814 
L 234.614166 297.490821 
L 237.878385 297.773213 
L 241.142604 298.056841 
L 244.406823 298.336811 
L 247.671042 298.614613 
L 250.93526 298.897892 
L 254.199479 299.198172 
L 257.463698 299.527256 
L 260.727917 299.893233 
L 263.992136 300.297044 
L 267.256354 300.730355 
L 270.520573 301.175126 
L 273.784792 301.604873 
L 277.049011 301.987258 
L 280.313229 302.287402 
L 283.577448 302.47128 
L 286.841667 302.508648 
L 290.105886 302.375216 
L 293.370105 302.054039 
L 296.634323 301.536324 
L 299.898542 300.822002 
L 303.162761 299.920375 
L 306.42698 298.851015 
L 309.691198 297.644858 
L 312.955417 296.345194 
L 316.219636 295.008016 
L 319.483855 293.701126 
L 322.748074 292.501431 
L 326.012292 291.490117 
L 329.276511 290.745815 
L 332.54073 290.336382 
L 335.804949 290.310431 
L 339.069168 290.690073 
L 342.333386 291.466385 
L 345.597605 292.598749 
L 348.861824 294.018551 
L 352.126043 295.636832 
L 355.390261 297.354658 
L 358.65448 299.074416 
L 361.918699 300.710068 
L 365.182918 302.194781 
L 368.447137 303.484941 
L 371.711355 304.560444 
L 374.975574 305.421848 
L 378.239793 306.085469 
L 381.504012 306.577646 
L 384.76823 306.929291 
L 388.032449 307.171448 
L 391.296668 307.332248 
L 394.560887 307.435245 
L 397.825106 307.498902 
" style="fill:none;stroke:#348abd;stroke-linecap:square;stroke-width:0.3;"/>
   </g>
   <g id="patch_3">
    <path d="M 57.6 307.584 
L 57.6 41.472 
" style="fill:none;stroke:#ffffff;stroke-linecap:square;stroke-linejoin:miter;"/>
   </g>
   <g id="patch_4">
    <path d="M 414.72 307.584 
L 414.72 41.472 
" style="fill:none;stroke:#ffffff;stroke-linecap:square;stroke-linejoin:miter;"/>
   </g>
   <g id="patch_5">
    <path d="M 57.6 307.584 
L 414.72 307.584 
" style="fill:none;stroke:#ffffff;stroke-linecap:square;stroke-linejoin:miter;"/>
   </g>
   <g id="patch_6">
    <path d="M 57.6 41.472 
L 414.72 41.472 
" style="fill:none;stroke:#ffffff;stroke-linecap:square;stroke-linejoin:miter;"/>
   </g>
   <g id="text_18">
    <!-- kernel density estimation(Gaussian):b4167;b4168;b4169;b4170;b4171;b4172;b4173;b4174;b4175 -->
    <defs>
     <path d="M 9.078125 75.984375 
L 18.109375 75.984375 
L 18.109375 31.109375 
L 44.921875 54.6875 
L 56.390625 54.6875 
L 27.390625 29.109375 
L 57.625 0 
L 45.90625 0 
L 18.109375 26.703125 
L 18.109375 0 
L 9.078125 0 
z
" id="DejaVuSans-6b"/>
     <path d="M 56.203125 29.59375 
L 56.203125 25.203125 
L 14.890625 25.203125 
Q 15.484375 15.921875 20.484375 11.0625 
Q 25.484375 6.203125 34.421875 6.203125 
Q 39.59375 6.203125 44.453125 7.46875 
Q 49.3125 8.734375 54.109375 11.28125 
L 54.109375 2.78125 
Q 49.265625 0.734375 44.1875 -0.34375 
Q 39.109375 -1.421875 33.890625 -1.421875 
Q 20.796875 -1.421875 13.15625 6.1875 
Q 5.515625 13.8125 5.515625 26.8125 
Q 5.515625 40.234375 12.765625 48.109375 
Q 20.015625 56 32.328125 56 
Q 43.359375 56 49.78125 48.890625 
Q 56.203125 41.796875 56.203125 29.59375 
z
M 47.21875 32.234375 
Q 47.125 39.59375 43.09375 43.984375 
Q 39.0625 48.390625 32.421875 48.390625 
Q 24.90625 48.390625 20.390625 44.140625 
Q 15.875 39.890625 15.1875 32.171875 
z
" id="DejaVuSans-65"/>
     <path d="M 41.109375 46.296875 
Q 39.59375 47.171875 37.8125 47.578125 
Q 36.03125 48 33.890625 48 
Q 26.265625 48 22.1875 43.046875 
Q 18.109375 38.09375 18.109375 28.8125 
L 18.109375 0 
L 9.078125 0 
L 9.078125 54.6875 
L 18.109375 54.6875 
L 18.109375 46.1875 
Q 20.953125 51.171875 25.484375 53.578125 
Q 30.03125 56 36.53125 56 
Q 37.453125 56 38.578125 55.875 
Q 39.703125 55.765625 41.0625 55.515625 
z
" id="DejaVuSans-72"/>
     <path d="M 9.421875 75.984375 
L 18.40625 75.984375 
L 18.40625 0 
L 9.421875 0 
z
" id="DejaVuSans-6c"/>
     <path id="DejaVuSans-20"/>
     <path d="M 45.40625 46.390625 
L 45.40625 75.984375 
L 54.390625 75.984375 
L 54.390625 0 
L 45.40625 0 
L 45.40625 8.203125 
Q 42.578125 3.328125 38.25 0.953125 
Q 33.9375 -1.421875 27.875 -1.421875 
Q 17.96875 -1.421875 11.734375 6.484375 
Q 5.515625 14.40625 5.515625 27.296875 
Q 5.515625 40.1875 11.734375 48.09375 
Q 17.96875 56 27.875 56 
Q 33.9375 56 38.25 53.625 
Q 42.578125 51.265625 45.40625 46.390625 
z
M 14.796875 27.296875 
Q 14.796875 17.390625 18.875 11.75 
Q 22.953125 6.109375 30.078125 6.109375 
Q 37.203125 6.109375 41.296875 11.75 
Q 45.40625 17.390625 45.40625 27.296875 
Q 45.40625 37.203125 41.296875 42.84375 
Q 37.203125 48.484375 30.078125 48.484375 
Q 22.953125 48.484375 18.875 42.84375 
Q 14.796875 37.203125 14.796875 27.296875 
z
" id="DejaVuSans-64"/>
     <path d="M 44.28125 53.078125 
L 44.28125 44.578125 
Q 40.484375 46.53125 36.375 47.5 
Q 32.28125 48.484375 27.875 48.484375 
Q 21.1875 48.484375 17.84375 46.4375 
Q 14.5 44.390625 14.5 40.28125 
Q 14.5 37.15625 16.890625 35.375 
Q 19.28125 33.59375 26.515625 31.984375 
L 29.59375 31.296875 
Q 39.15625 29.25 43.1875 25.515625 
Q 47.21875 21.78125 47.21875 15.09375 
Q 47.21875 7.46875 41.1875 3.015625 
Q 35.15625 -1.421875 24.609375 -1.421875 
Q 20.21875 -1.421875 15.453125 -0.5625 
Q 10.6875 0.296875 5.421875 2 
L 5.421875 11.28125 
Q 10.40625 8.6875 15.234375 7.390625 
Q 20.0625 6.109375 24.8125 6.109375 
Q 31.15625 6.109375 34.5625 8.28125 
Q 37.984375 10.453125 37.984375 14.40625 
Q 37.984375 18.0625 35.515625 20.015625 
Q 33.0625 21.96875 24.703125 23.78125 
L 21.578125 24.515625 
Q 13.234375 26.265625 9.515625 29.90625 
Q 5.8125 33.546875 5.8125 39.890625 
Q 5.8125 47.609375 11.28125 51.796875 
Q 16.75 56 26.8125 56 
Q 31.78125 56 36.171875 55.265625 
Q 40.578125 54.546875 44.28125 53.078125 
z
" id="DejaVuSans-73"/>
     <path d="M 9.421875 54.6875 
L 18.40625 54.6875 
L 18.40625 0 
L 9.421875 0 
z
M 9.421875 75.984375 
L 18.40625 75.984375 
L 18.40625 64.59375 
L 9.421875 64.59375 
z
" id="DejaVuSans-69"/>
     <path d="M 32.171875 -5.078125 
Q 28.375 -14.84375 24.75 -17.8125 
Q 21.140625 -20.796875 15.09375 -20.796875 
L 7.90625 -20.796875 
L 7.90625 -13.28125 
L 13.1875 -13.28125 
Q 16.890625 -13.28125 18.9375 -11.515625 
Q 21 -9.765625 23.484375 -3.21875 
L 25.09375 0.875 
L 2.984375 54.6875 
L 12.5 54.6875 
L 29.59375 11.921875 
L 46.6875 54.6875 
L 56.203125 54.6875 
z
" id="DejaVuSans-79"/>
     <path d="M 52 44.1875 
Q 55.375 50.25 60.0625 53.125 
Q 64.75 56 71.09375 56 
Q 79.640625 56 84.28125 50.015625 
Q 88.921875 44.046875 88.921875 33.015625 
L 88.921875 0 
L 79.890625 0 
L 79.890625 32.71875 
Q 79.890625 40.578125 77.09375 44.375 
Q 74.3125 48.1875 68.609375 48.1875 
Q 61.625 48.1875 57.5625 43.546875 
Q 53.515625 38.921875 53.515625 30.90625 
L 53.515625 0 
L 44.484375 0 
L 44.484375 32.71875 
Q 44.484375 40.625 41.703125 44.40625 
Q 38.921875 48.1875 33.109375 48.1875 
Q 26.21875 48.1875 22.15625 43.53125 
Q 18.109375 38.875 18.109375 30.90625 
L 18.109375 0 
L 9.078125 0 
L 9.078125 54.6875 
L 18.109375 54.6875 
L 18.109375 46.1875 
Q 21.1875 51.21875 25.484375 53.609375 
Q 29.78125 56 35.6875 56 
Q 41.65625 56 45.828125 52.96875 
Q 50 49.953125 52 44.1875 
z
" id="DejaVuSans-6d"/>
     <path d="M 34.28125 27.484375 
Q 23.390625 27.484375 19.1875 25 
Q 14.984375 22.515625 14.984375 16.5 
Q 14.984375 11.71875 18.140625 8.90625 
Q 21.296875 6.109375 26.703125 6.109375 
Q 34.1875 6.109375 38.703125 11.40625 
Q 43.21875 16.703125 43.21875 25.484375 
L 43.21875 27.484375 
z
M 52.203125 31.203125 
L 52.203125 0 
L 43.21875 0 
L 43.21875 8.296875 
Q 40.140625 3.328125 35.546875 0.953125 
Q 30.953125 -1.421875 24.3125 -1.421875 
Q 15.921875 -1.421875 10.953125 3.296875 
Q 6 8.015625 6 15.921875 
Q 6 25.140625 12.171875 29.828125 
Q 18.359375 34.515625 30.609375 34.515625 
L 43.21875 34.515625 
L 43.21875 35.40625 
Q 43.21875 41.609375 39.140625 45 
Q 35.0625 48.390625 27.6875 48.390625 
Q 23 48.390625 18.546875 47.265625 
Q 14.109375 46.140625 10.015625 43.890625 
L 10.015625 52.203125 
Q 14.9375 54.109375 19.578125 55.046875 
Q 24.21875 56 28.609375 56 
Q 40.484375 56 46.34375 49.84375 
Q 52.203125 43.703125 52.203125 31.203125 
z
" id="DejaVuSans-61"/>
     <path d="M 59.515625 10.40625 
L 59.515625 29.984375 
L 43.40625 29.984375 
L 43.40625 38.09375 
L 69.28125 38.09375 
L 69.28125 6.78125 
Q 63.578125 2.734375 56.6875 0.65625 
Q 49.8125 -1.421875 42 -1.421875 
Q 24.90625 -1.421875 15.25 8.5625 
Q 5.609375 18.5625 5.609375 36.375 
Q 5.609375 54.25 15.25 64.234375 
Q 24.90625 74.21875 42 74.21875 
Q 49.125 74.21875 55.546875 72.453125 
Q 61.96875 70.703125 67.390625 67.28125 
L 67.390625 56.78125 
Q 61.921875 61.421875 55.765625 63.765625 
Q 49.609375 66.109375 42.828125 66.109375 
Q 29.4375 66.109375 22.71875 58.640625 
Q 16.015625 51.171875 16.015625 36.375 
Q 16.015625 21.625 22.71875 14.15625 
Q 29.4375 6.6875 42.828125 6.6875 
Q 48.046875 6.6875 52.140625 7.59375 
Q 56.25 8.5 59.515625 10.40625 
z
" id="DejaVuSans-47"/>
     <path d="M 11.71875 12.40625 
L 22.015625 12.40625 
L 22.015625 0 
L 11.71875 0 
z
M 11.71875 51.703125 
L 22.015625 51.703125 
L 22.015625 39.3125 
L 11.71875 39.3125 
z
" id="DejaVuSans-3a"/>
     <path d="M 48.6875 27.296875 
Q 48.6875 37.203125 44.609375 42.84375 
Q 40.53125 48.484375 33.40625 48.484375 
Q 26.265625 48.484375 22.1875 42.84375 
Q 18.109375 37.203125 18.109375 27.296875 
Q 18.109375 17.390625 22.1875 11.75 
Q 26.265625 6.109375 33.40625 6.109375 
Q 40.53125 6.109375 44.609375 11.75 
Q 48.6875 17.390625 48.6875 27.296875 
z
M 18.109375 46.390625 
Q 20.953125 51.265625 25.265625 53.625 
Q 29.59375 56 35.59375 56 
Q 45.5625 56 51.78125 48.09375 
Q 58.015625 40.1875 58.015625 27.296875 
Q 58.015625 14.40625 51.78125 6.484375 
Q 45.5625 -1.421875 35.59375 -1.421875 
Q 29.59375 -1.421875 25.265625 0.953125 
Q 20.953125 3.328125 18.109375 8.203125 
L 18.109375 0 
L 9.078125 0 
L 9.078125 75.984375 
L 18.109375 75.984375 
z
" id="DejaVuSans-62"/>
     <path d="M 8.203125 72.90625 
L 55.078125 72.90625 
L 55.078125 68.703125 
L 28.609375 0 
L 18.3125 0 
L 43.21875 64.59375 
L 8.203125 64.59375 
z
" id="DejaVuSans-37"/>
     <path d="M 11.71875 51.703125 
L 22.015625 51.703125 
L 22.015625 39.3125 
L 11.71875 39.3125 
z
M 11.71875 12.40625 
L 22.015625 12.40625 
L 22.015625 4 
L 14.015625 -11.625 
L 7.71875 -11.625 
L 11.71875 4 
z
" id="DejaVuSans-3b"/>
     <path d="M 10.984375 1.515625 
L 10.984375 10.5 
Q 14.703125 8.734375 18.5 7.8125 
Q 22.3125 6.890625 25.984375 6.890625 
Q 35.75 6.890625 40.890625 13.453125 
Q 46.046875 20.015625 46.78125 33.40625 
Q 43.953125 29.203125 39.59375 26.953125 
Q 35.25 24.703125 29.984375 24.703125 
Q 19.046875 24.703125 12.671875 31.3125 
Q 6.296875 37.9375 6.296875 49.421875 
Q 6.296875 60.640625 12.9375 67.421875 
Q 19.578125 74.21875 30.609375 74.21875 
Q 43.265625 74.21875 49.921875 64.515625 
Q 56.59375 54.828125 56.59375 36.375 
Q 56.59375 19.140625 48.40625 8.859375 
Q 40.234375 -1.421875 26.421875 -1.421875 
Q 22.703125 -1.421875 18.890625 -0.6875 
Q 15.09375 0.046875 10.984375 1.515625 
z
M 30.609375 32.421875 
Q 37.25 32.421875 41.125 36.953125 
Q 45.015625 41.5 45.015625 49.421875 
Q 45.015625 57.28125 41.125 61.84375 
Q 37.25 66.40625 30.609375 66.40625 
Q 23.96875 66.40625 20.09375 61.84375 
Q 16.21875 57.28125 16.21875 49.421875 
Q 16.21875 41.5 20.09375 36.953125 
Q 23.96875 32.421875 30.609375 32.421875 
z
" id="DejaVuSans-39"/>
     <path d="M 40.578125 39.3125 
Q 47.65625 37.796875 51.625 33 
Q 55.609375 28.21875 55.609375 21.1875 
Q 55.609375 10.40625 48.1875 4.484375 
Q 40.765625 -1.421875 27.09375 -1.421875 
Q 22.515625 -1.421875 17.65625 -0.515625 
Q 12.796875 0.390625 7.625 2.203125 
L 7.625 11.71875 
Q 11.71875 9.328125 16.59375 8.109375 
Q 21.484375 6.890625 26.8125 6.890625 
Q 36.078125 6.890625 40.9375 10.546875 
Q 45.796875 14.203125 45.796875 21.1875 
Q 45.796875 27.640625 41.28125 31.265625 
Q 36.765625 34.90625 28.71875 34.90625 
L 20.21875 34.90625 
L 20.21875 43.015625 
L 29.109375 43.015625 
Q 36.375 43.015625 40.234375 45.921875 
Q 44.09375 48.828125 44.09375 54.296875 
Q 44.09375 59.90625 40.109375 62.90625 
Q 36.140625 65.921875 28.71875 65.921875 
Q 24.65625 65.921875 20.015625 65.03125 
Q 15.375 64.15625 9.8125 62.3125 
L 9.8125 71.09375 
Q 15.4375 72.65625 20.34375 73.4375 
Q 25.25 74.21875 29.59375 74.21875 
Q 40.828125 74.21875 47.359375 69.109375 
Q 53.90625 64.015625 53.90625 55.328125 
Q 53.90625 49.265625 50.4375 45.09375 
Q 46.96875 40.921875 40.578125 39.3125 
z
" id="DejaVuSans-33"/>
     <path d="M 10.796875 72.90625 
L 49.515625 72.90625 
L 49.515625 64.59375 
L 19.828125 64.59375 
L 19.828125 46.734375 
Q 21.96875 47.46875 24.109375 47.828125 
Q 26.265625 48.1875 28.421875 48.1875 
Q 40.625 48.1875 47.75 41.5 
Q 54.890625 34.8125 54.890625 23.390625 
Q 54.890625 11.625 47.5625 5.09375 
Q 40.234375 -1.421875 26.90625 -1.421875 
Q 22.3125 -1.421875 17.546875 -0.640625 
Q 12.796875 0.140625 7.71875 1.703125 
L 7.71875 11.625 
Q 12.109375 9.234375 16.796875 8.0625 
Q 21.484375 6.890625 26.703125 6.890625 
Q 35.15625 6.890625 40.078125 11.328125 
Q 45.015625 15.765625 45.015625 23.390625 
Q 45.015625 31 40.078125 35.4375 
Q 35.15625 39.890625 26.703125 39.890625 
Q 22.75 39.890625 18.8125 39.015625 
Q 14.890625 38.140625 10.796875 36.28125 
z
" id="DejaVuSans-35"/>
    </defs>
    <g transform="translate(-122.117625 35.472)scale(0.144 -0.144)">
     <use xlink:href="#DejaVuSans-6b"/>
     <use x="57.863281" xlink:href="#DejaVuSans-65"/>
     <use x="119.386719" xlink:href="#DejaVuSans-72"/>
     <use x="160.484375" xlink:href="#DejaVuSans-6e"/>
     <use x="223.863281" xlink:href="#DejaVuSans-65"/>
     <use x="285.386719" xlink:href="#DejaVuSans-6c"/>
     <use x="313.169922" xlink:href="#DejaVuSans-20"/>
     <use x="344.957031" xlink:href="#DejaVuSans-64"/>
     <use x="408.433594" xlink:href="#DejaVuSans-65"/>
     <use x="469.957031" xlink:href="#DejaVuSans-6e"/>
     <use x="533.335938" xlink:href="#DejaVuSans-73"/>
     <use x="585.435547" xlink:href="#DejaVuSans-69"/>
     <use x="613.21875" xlink:href="#DejaVuSans-74"/>
     <use x="652.427734" xlink:href="#DejaVuSans-79"/>
     <use x="711.607422" xlink:href="#DejaVuSans-20"/>
     <use x="743.394531" xlink:href="#DejaVuSans-65"/>
     <use x="804.917969" xlink:href="#DejaVuSans-73"/>
     <use x="857.017578" xlink:href="#DejaVuSans-74"/>
     <use x="896.226562" xlink:href="#DejaVuSans-69"/>
     <use x="924.009766" xlink:href="#DejaVuSans-6d"/>
     <use x="1021.421875" xlink:href="#DejaVuSans-61"/>
     <use x="1082.701172" xlink:href="#DejaVuSans-74"/>
     <use x="1121.910156" xlink:href="#DejaVuSans-69"/>
     <use x="1149.693359" xlink:href="#DejaVuSans-6f"/>
     <use x="1210.875" xlink:href="#DejaVuSans-6e"/>
     <use x="1274.253906" xlink:href="#DejaVuSans-28"/>
     <use x="1313.267578" xlink:href="#DejaVuSans-47"/>
     <use x="1390.757812" xlink:href="#DejaVuSans-61"/>
     <use x="1452.037109" xlink:href="#DejaVuSans-75"/>
     <use x="1515.416016" xlink:href="#DejaVuSans-73"/>
     <use x="1567.515625" xlink:href="#DejaVuSans-73"/>
     <use x="1619.615234" xlink:href="#DejaVuSans-69"/>
     <use x="1647.398438" xlink:href="#DejaVuSans-61"/>
     <use x="1708.677734" xlink:href="#DejaVuSans-6e"/>
     <use x="1772.056641" xlink:href="#DejaVuSans-29"/>
     <use x="1811.070312" xlink:href="#DejaVuSans-3a"/>
     <use x="1844.761719" xlink:href="#DejaVuSans-62"/>
     <use x="1908.238281" xlink:href="#DejaVuSans-34"/>
     <use x="1971.861328" xlink:href="#DejaVuSans-31"/>
     <use x="2035.484375" xlink:href="#DejaVuSans-36"/>
     <use x="2099.107422" xlink:href="#DejaVuSans-37"/>
     <use x="2162.730469" xlink:href="#DejaVuSans-3b"/>
     <use x="2196.421875" xlink:href="#DejaVuSans-62"/>
     <use x="2259.898438" xlink:href="#DejaVuSans-34"/>
     <use x="2323.521484" xlink:href="#DejaVuSans-31"/>
     <use x="2387.144531" xlink:href="#DejaVuSans-36"/>
     <use x="2450.767578" xlink:href="#DejaVuSans-38"/>
     <use x="2514.390625" xlink:href="#DejaVuSans-3b"/>
     <use x="2548.082031" xlink:href="#DejaVuSans-62"/>
     <use x="2611.558594" xlink:href="#DejaVuSans-34"/>
     <use x="2675.181641" xlink:href="#DejaVuSans-31"/>
     <use x="2738.804688" xlink:href="#DejaVuSans-36"/>
     <use x="2802.427734" xlink:href="#DejaVuSans-39"/>
     <use x="2866.050781" xlink:href="#DejaVuSans-3b"/>
     <use x="2899.742188" xlink:href="#DejaVuSans-62"/>
     <use x="2963.21875" xlink:href="#DejaVuSans-34"/>
     <use x="3026.841797" xlink:href="#DejaVuSans-31"/>
     <use x="3090.464844" xlink:href="#DejaVuSans-37"/>
     <use x="3154.087891" xlink:href="#DejaVuSans-30"/>
     <use x="3217.710938" xlink:href="#DejaVuSans-3b"/>
     <use x="3251.402344" xlink:href="#DejaVuSans-62"/>
     <use x="3314.878906" xlink:href="#DejaVuSans-34"/>
     <use x="3378.501953" xlink:href="#DejaVuSans-31"/>
     <use x="3442.125" xlink:href="#DejaVuSans-37"/>
     <use x="3505.748047" xlink:href="#DejaVuSans-31"/>
     <use x="3569.371094" xlink:href="#DejaVuSans-3b"/>
     <use x="3603.0625" xlink:href="#DejaVuSans-62"/>
     <use x="3666.539062" xlink:href="#DejaVuSans-34"/>
     <use x="3730.162109" xlink:href="#DejaVuSans-31"/>
     <use x="3793.785156" xlink:href="#DejaVuSans-37"/>
     <use x="3857.408203" xlink:href="#DejaVuSans-32"/>
     <use x="3921.03125" xlink:href="#DejaVuSans-3b"/>
     <use x="3954.722656" xlink:href="#DejaVuSans-62"/>
     <use x="4018.199219" xlink:href="#DejaVuSans-34"/>
     <use x="4081.822266" xlink:href="#DejaVuSans-31"/>
     <use x="4145.445312" xlink:href="#DejaVuSans-37"/>
     <use x="4209.068359" xlink:href="#DejaVuSans-33"/>
     <use x="4272.691406" xlink:href="#DejaVuSans-3b"/>
     <use x="4306.382812" xlink:href="#DejaVuSans-62"/>
     <use x="4369.859375" xlink:href="#DejaVuSans-34"/>
     <use x="4433.482422" xlink:href="#DejaVuSans-31"/>
     <use x="4497.105469" xlink:href="#DejaVuSans-37"/>
     <use x="4560.728516" xlink:href="#DejaVuSans-34"/>
     <use x="4624.351562" xlink:href="#DejaVuSans-3b"/>
     <use x="4658.042969" xlink:href="#DejaVuSans-62"/>
     <use x="4721.519531" xlink:href="#DejaVuSans-34"/>
     <use x="4785.142578" xlink:href="#DejaVuSans-31"/>
     <use x="4848.765625" xlink:href="#DejaVuSans-37"/>
     <use x="4912.388672" xlink:href="#DejaVuSans-35"/>
    </g>
   </g>
   <g id="legend_1">
    <g id="patch_7">
     <path d="M 343.921563 181.575125 
L 407.72 181.575125 
Q 409.72 181.575125 409.72 179.575125 
L 409.72 48.472 
Q 409.72 46.472 407.72 46.472 
L 343.921563 46.472 
Q 341.921563 46.472 341.921563 48.472 
L 341.921563 179.575125 
Q 341.921563 181.575125 343.921563 181.575125 
z
" style="fill:#e5e5e5;opacity:0.8;stroke:#cccccc;stroke-linejoin:miter;stroke-width:0.5;"/>
    </g>
    <g id="line2d_40">
     <path d="M 345.921563 54.570438 
L 365.921563 54.570438 
" style="fill:none;stroke:#e24a33;stroke-linecap:square;stroke-width:0.3;"/>
    </g>
    <g id="line2d_41"/>
    <g id="text_19">
     <!-- b4167 -->
     <g transform="translate(373.921563 58.070438)scale(0.1 -0.1)">
      <use xlink:href="#DejaVuSans-62"/>
      <use x="63.476562" xlink:href="#DejaVuSans-34"/>
      <use x="127.099609" xlink:href="#DejaVuSans-31"/>
      <use x="190.722656" xlink:href="#DejaVuSans-36"/>
      <use x="254.345703" xlink:href="#DejaVuSans-37"/>
     </g>
    </g>
    <g id="line2d_42">
     <path d="M 345.921563 69.248563 
L 365.921563 69.248563 
" style="fill:none;stroke:#348abd;stroke-linecap:square;stroke-width:0.3;"/>
    </g>
    <g id="line2d_43"/>
    <g id="text_20">
     <!-- b4168 -->
     <g transform="translate(373.921563 72.748563)scale(0.1 -0.1)">
      <use xlink:href="#DejaVuSans-62"/>
      <use x="63.476562" xlink:href="#DejaVuSans-34"/>
      <use x="127.099609" xlink:href="#DejaVuSans-31"/>
      <use x="190.722656" xlink:href="#DejaVuSans-36"/>
      <use x="254.345703" xlink:href="#DejaVuSans-38"/>
     </g>
    </g>
    <g id="line2d_44">
     <path d="M 345.921563 83.926688 
L 365.921563 83.926688 
" style="fill:none;stroke:#988ed5;stroke-linecap:square;stroke-width:0.3;"/>
    </g>
    <g id="line2d_45"/>
    <g id="text_21">
     <!-- b4169 -->
     <g transform="translate(373.921563 87.426688)scale(0.1 -0.1)">
      <use xlink:href="#DejaVuSans-62"/>
      <use x="63.476562" xlink:href="#DejaVuSans-34"/>
      <use x="127.099609" xlink:href="#DejaVuSans-31"/>
      <use x="190.722656" xlink:href="#DejaVuSans-36"/>
      <use x="254.345703" xlink:href="#DejaVuSans-39"/>
     </g>
    </g>
    <g id="line2d_46">
     <path d="M 345.921563 98.604813 
L 365.921563 98.604813 
" style="fill:none;stroke:#777777;stroke-linecap:square;stroke-width:0.3;"/>
    </g>
    <g id="line2d_47"/>
    <g id="text_22">
     <!-- b4170 -->
     <g transform="translate(373.921563 102.104813)scale(0.1 -0.1)">
      <use xlink:href="#DejaVuSans-62"/>
      <use x="63.476562" xlink:href="#DejaVuSans-34"/>
      <use x="127.099609" xlink:href="#DejaVuSans-31"/>
      <use x="190.722656" xlink:href="#DejaVuSans-37"/>
      <use x="254.345703" xlink:href="#DejaVuSans-30"/>
     </g>
    </g>
    <g id="line2d_48">
     <path d="M 345.921563 113.282938 
L 365.921563 113.282938 
" style="fill:none;stroke:#fbc15e;stroke-linecap:square;stroke-width:0.3;"/>
    </g>
    <g id="line2d_49"/>
    <g id="text_23">
     <!-- b4171 -->
     <g transform="translate(373.921563 116.782938)scale(0.1 -0.1)">
      <use xlink:href="#DejaVuSans-62"/>
      <use x="63.476562" xlink:href="#DejaVuSans-34"/>
      <use x="127.099609" xlink:href="#DejaVuSans-31"/>
      <use x="190.722656" xlink:href="#DejaVuSans-37"/>
      <use x="254.345703" xlink:href="#DejaVuSans-31"/>
     </g>
    </g>
    <g id="line2d_50">
     <path d="M 345.921563 127.961063 
L 365.921563 127.961063 
" style="fill:none;stroke:#8eba42;stroke-linecap:square;stroke-width:0.3;"/>
    </g>
    <g id="line2d_51"/>
    <g id="text_24">
     <!-- b4172 -->
     <g transform="translate(373.921563 131.461063)scale(0.1 -0.1)">
      <use xlink:href="#DejaVuSans-62"/>
      <use x="63.476562" xlink:href="#DejaVuSans-34"/>
      <use x="127.099609" xlink:href="#DejaVuSans-31"/>
      <use x="190.722656" xlink:href="#DejaVuSans-37"/>
      <use x="254.345703" xlink:href="#DejaVuSans-32"/>
     </g>
    </g>
    <g id="line2d_52">
     <path d="M 345.921563 142.639188 
L 365.921563 142.639188 
" style="fill:none;stroke:#ffb5b8;stroke-linecap:square;stroke-width:0.3;"/>
    </g>
    <g id="line2d_53"/>
    <g id="text_25">
     <!-- b4173 -->
     <g transform="translate(373.921563 146.139188)scale(0.1 -0.1)">
      <use xlink:href="#DejaVuSans-62"/>
      <use x="63.476562" xlink:href="#DejaVuSans-34"/>
      <use x="127.099609" xlink:href="#DejaVuSans-31"/>
      <use x="190.722656" xlink:href="#DejaVuSans-37"/>
      <use x="254.345703" xlink:href="#DejaVuSans-33"/>
     </g>
    </g>
    <g id="line2d_54">
     <path d="M 345.921563 157.317313 
L 365.921563 157.317313 
" style="fill:none;stroke:#e24a33;stroke-linecap:square;stroke-width:0.3;"/>
    </g>
    <g id="line2d_55"/>
    <g id="text_26">
     <!-- b4174 -->
     <g transform="translate(373.921563 160.817313)scale(0.1 -0.1)">
      <use xlink:href="#DejaVuSans-62"/>
      <use x="63.476562" xlink:href="#DejaVuSans-34"/>
      <use x="127.099609" xlink:href="#DejaVuSans-31"/>
      <use x="190.722656" xlink:href="#DejaVuSans-37"/>
      <use x="254.345703" xlink:href="#DejaVuSans-34"/>
     </g>
    </g>
    <g id="line2d_56">
     <path d="M 345.921563 171.995438 
L 365.921563 171.995438 
" style="fill:none;stroke:#348abd;stroke-linecap:square;stroke-width:0.3;"/>
    </g>
    <g id="line2d_57"/>
    <g id="text_27">
     <!-- b4175 -->
     <g transform="translate(373.921563 175.495438)scale(0.1 -0.1)">
      <use xlink:href="#DejaVuSans-62"/>
      <use x="63.476562" xlink:href="#DejaVuSans-34"/>
      <use x="127.099609" xlink:href="#DejaVuSans-31"/>
      <use x="190.722656" xlink:href="#DejaVuSans-37"/>
      <use x="254.345703" xlink:href="#DejaVuSans-35"/>
     </g>
    </g>
   </g>
  </g>
 </g>
 <defs>
  <clipPath id="p93297aada9">
   <rect height="266.112" width="357.12" x="57.6" y="41.472"/>
  </clipPath>
 </defs>
</svg>
