<?xml version="1.0" encoding="utf-8" standalone="no"?>
<!DOCTYPE svg PUBLIC "-//W3C//DTD SVG 1.1//EN"
  "http://www.w3.org/Graphics/SVG/1.1/DTD/svg11.dtd">
<!-- Created with matplotlib (http://matplotlib.org/) -->
<svg height="345pt" version="1.1" viewBox="0 0 460 345" width="460pt" xmlns="http://www.w3.org/2000/svg" xmlns:xlink="http://www.w3.org/1999/xlink">
 <defs>
  <style type="text/css">
*{stroke-linecap:butt;stroke-linejoin:round;}
  </style>
 </defs>
 <g id="figure_1">
  <g id="patch_1">
   <path d="M 0 345.6 
L 460.8 345.6 
L 460.8 0 
L 0 0 
z
" style="fill:#ffffff;"/>
  </g>
  <g id="axes_1">
   <g id="patch_2">
    <path d="M 57.6 307.584 
L 414.72 307.584 
L 414.72 41.472 
L 57.6 41.472 
z
" style="fill:#e5e5e5;"/>
   </g>
   <g id="matplotlib.axis_1">
    <g id="xtick_1">
     <g id="line2d_1">
      <path clip-path="url(#p8fc3ffd64a)" d="M 94.652541 307.584 
L 94.652541 41.472 
" style="fill:none;stroke:#ffffff;stroke-linecap:square;stroke-width:0.8;"/>
     </g>
     <g id="line2d_2">
      <defs>
       <path d="M 0 0 
L 0 3.5 
" id="ma557c9b449" style="stroke:#555555;stroke-width:0.8;"/>
      </defs>
      <g>
       <use style="fill:#555555;stroke:#555555;stroke-width:0.8;" x="94.652541" xlink:href="#ma557c9b449" y="307.584"/>
      </g>
     </g>
     <g id="text_1">
      <!-- 0 -->
      <defs>
       <path d="M 31.78125 66.40625 
Q 24.171875 66.40625 20.328125 58.90625 
Q 16.5 51.421875 16.5 36.375 
Q 16.5 21.390625 20.328125 13.890625 
Q 24.171875 6.390625 31.78125 6.390625 
Q 39.453125 6.390625 43.28125 13.890625 
Q 47.125 21.390625 47.125 36.375 
Q 47.125 51.421875 43.28125 58.90625 
Q 39.453125 66.40625 31.78125 66.40625 
z
M 31.78125 74.21875 
Q 44.046875 74.21875 50.515625 64.515625 
Q 56.984375 54.828125 56.984375 36.375 
Q 56.984375 17.96875 50.515625 8.265625 
Q 44.046875 -1.421875 31.78125 -1.421875 
Q 19.53125 -1.421875 13.0625 8.265625 
Q 6.59375 17.96875 6.59375 36.375 
Q 6.59375 54.828125 13.0625 64.515625 
Q 19.53125 74.21875 31.78125 74.21875 
z
" id="DejaVuSans-30"/>
      </defs>
      <g style="fill:#555555;" transform="translate(91.471291 322.182437)scale(0.1 -0.1)">
       <use xlink:href="#DejaVuSans-30"/>
      </g>
     </g>
    </g>
    <g id="xtick_2">
     <g id="line2d_3">
      <path clip-path="url(#p8fc3ffd64a)" d="M 158.954472 307.584 
L 158.954472 41.472 
" style="fill:none;stroke:#ffffff;stroke-linecap:square;stroke-width:0.8;"/>
     </g>
     <g id="line2d_4">
      <g>
       <use style="fill:#555555;stroke:#555555;stroke-width:0.8;" x="158.954472" xlink:href="#ma557c9b449" y="307.584"/>
      </g>
     </g>
     <g id="text_2">
      <!-- 2000 -->
      <defs>
       <path d="M 19.1875 8.296875 
L 53.609375 8.296875 
L 53.609375 0 
L 7.328125 0 
L 7.328125 8.296875 
Q 12.9375 14.109375 22.625 23.890625 
Q 32.328125 33.6875 34.8125 36.53125 
Q 39.546875 41.84375 41.421875 45.53125 
Q 43.3125 49.21875 43.3125 52.78125 
Q 43.3125 58.59375 39.234375 62.25 
Q 35.15625 65.921875 28.609375 65.921875 
Q 23.96875 65.921875 18.8125 64.3125 
Q 13.671875 62.703125 7.8125 59.421875 
L 7.8125 69.390625 
Q 13.765625 71.78125 18.9375 73 
Q 24.125 74.21875 28.421875 74.21875 
Q 39.75 74.21875 46.484375 68.546875 
Q 53.21875 62.890625 53.21875 53.421875 
Q 53.21875 48.921875 51.53125 44.890625 
Q 49.859375 40.875 45.40625 35.40625 
Q 44.1875 33.984375 37.640625 27.21875 
Q 31.109375 20.453125 19.1875 8.296875 
z
" id="DejaVuSans-32"/>
      </defs>
      <g style="fill:#555555;" transform="translate(146.229472 322.182437)scale(0.1 -0.1)">
       <use xlink:href="#DejaVuSans-32"/>
       <use x="63.623047" xlink:href="#DejaVuSans-30"/>
       <use x="127.246094" xlink:href="#DejaVuSans-30"/>
       <use x="190.869141" xlink:href="#DejaVuSans-30"/>
      </g>
     </g>
    </g>
    <g id="xtick_3">
     <g id="line2d_5">
      <path clip-path="url(#p8fc3ffd64a)" d="M 223.256402 307.584 
L 223.256402 41.472 
" style="fill:none;stroke:#ffffff;stroke-linecap:square;stroke-width:0.8;"/>
     </g>
     <g id="line2d_6">
      <g>
       <use style="fill:#555555;stroke:#555555;stroke-width:0.8;" x="223.256402" xlink:href="#ma557c9b449" y="307.584"/>
      </g>
     </g>
     <g id="text_3">
      <!-- 4000 -->
      <defs>
       <path d="M 37.796875 64.3125 
L 12.890625 25.390625 
L 37.796875 25.390625 
z
M 35.203125 72.90625 
L 47.609375 72.90625 
L 47.609375 25.390625 
L 58.015625 25.390625 
L 58.015625 17.1875 
L 47.609375 17.1875 
L 47.609375 0 
L 37.796875 0 
L 37.796875 17.1875 
L 4.890625 17.1875 
L 4.890625 26.703125 
z
" id="DejaVuSans-34"/>
      </defs>
      <g style="fill:#555555;" transform="translate(210.531402 322.182437)scale(0.1 -0.1)">
       <use xlink:href="#DejaVuSans-34"/>
       <use x="63.623047" xlink:href="#DejaVuSans-30"/>
       <use x="127.246094" xlink:href="#DejaVuSans-30"/>
       <use x="190.869141" xlink:href="#DejaVuSans-30"/>
      </g>
     </g>
    </g>
    <g id="xtick_4">
     <g id="line2d_7">
      <path clip-path="url(#p8fc3ffd64a)" d="M 287.558333 307.584 
L 287.558333 41.472 
" style="fill:none;stroke:#ffffff;stroke-linecap:square;stroke-width:0.8;"/>
     </g>
     <g id="line2d_8">
      <g>
       <use style="fill:#555555;stroke:#555555;stroke-width:0.8;" x="287.558333" xlink:href="#ma557c9b449" y="307.584"/>
      </g>
     </g>
     <g id="text_4">
      <!-- 6000 -->
      <defs>
       <path d="M 33.015625 40.375 
Q 26.375 40.375 22.484375 35.828125 
Q 18.609375 31.296875 18.609375 23.390625 
Q 18.609375 15.53125 22.484375 10.953125 
Q 26.375 6.390625 33.015625 6.390625 
Q 39.65625 6.390625 43.53125 10.953125 
Q 47.40625 15.53125 47.40625 23.390625 
Q 47.40625 31.296875 43.53125 35.828125 
Q 39.65625 40.375 33.015625 40.375 
z
M 52.59375 71.296875 
L 52.59375 62.3125 
Q 48.875 64.0625 45.09375 64.984375 
Q 41.3125 65.921875 37.59375 65.921875 
Q 27.828125 65.921875 22.671875 59.328125 
Q 17.53125 52.734375 16.796875 39.40625 
Q 19.671875 43.65625 24.015625 45.921875 
Q 28.375 48.1875 33.59375 48.1875 
Q 44.578125 48.1875 50.953125 41.515625 
Q 57.328125 34.859375 57.328125 23.390625 
Q 57.328125 12.15625 50.6875 5.359375 
Q 44.046875 -1.421875 33.015625 -1.421875 
Q 20.359375 -1.421875 13.671875 8.265625 
Q 6.984375 17.96875 6.984375 36.375 
Q 6.984375 53.65625 15.1875 63.9375 
Q 23.390625 74.21875 37.203125 74.21875 
Q 40.921875 74.21875 44.703125 73.484375 
Q 48.484375 72.75 52.59375 71.296875 
z
" id="DejaVuSans-36"/>
      </defs>
      <g style="fill:#555555;" transform="translate(274.833333 322.182437)scale(0.1 -0.1)">
       <use xlink:href="#DejaVuSans-36"/>
       <use x="63.623047" xlink:href="#DejaVuSans-30"/>
       <use x="127.246094" xlink:href="#DejaVuSans-30"/>
       <use x="190.869141" xlink:href="#DejaVuSans-30"/>
      </g>
     </g>
    </g>
    <g id="xtick_5">
     <g id="line2d_9">
      <path clip-path="url(#p8fc3ffd64a)" d="M 351.860263 307.584 
L 351.860263 41.472 
" style="fill:none;stroke:#ffffff;stroke-linecap:square;stroke-width:0.8;"/>
     </g>
     <g id="line2d_10">
      <g>
       <use style="fill:#555555;stroke:#555555;stroke-width:0.8;" x="351.860263" xlink:href="#ma557c9b449" y="307.584"/>
      </g>
     </g>
     <g id="text_5">
      <!-- 8000 -->
      <defs>
       <path d="M 31.78125 34.625 
Q 24.75 34.625 20.71875 30.859375 
Q 16.703125 27.09375 16.703125 20.515625 
Q 16.703125 13.921875 20.71875 10.15625 
Q 24.75 6.390625 31.78125 6.390625 
Q 38.8125 6.390625 42.859375 10.171875 
Q 46.921875 13.96875 46.921875 20.515625 
Q 46.921875 27.09375 42.890625 30.859375 
Q 38.875 34.625 31.78125 34.625 
z
M 21.921875 38.8125 
Q 15.578125 40.375 12.03125 44.71875 
Q 8.5 49.078125 8.5 55.328125 
Q 8.5 64.0625 14.71875 69.140625 
Q 20.953125 74.21875 31.78125 74.21875 
Q 42.671875 74.21875 48.875 69.140625 
Q 55.078125 64.0625 55.078125 55.328125 
Q 55.078125 49.078125 51.53125 44.71875 
Q 48 40.375 41.703125 38.8125 
Q 48.828125 37.15625 52.796875 32.3125 
Q 56.78125 27.484375 56.78125 20.515625 
Q 56.78125 9.90625 50.3125 4.234375 
Q 43.84375 -1.421875 31.78125 -1.421875 
Q 19.734375 -1.421875 13.25 4.234375 
Q 6.78125 9.90625 6.78125 20.515625 
Q 6.78125 27.484375 10.78125 32.3125 
Q 14.796875 37.15625 21.921875 38.8125 
z
M 18.3125 54.390625 
Q 18.3125 48.734375 21.84375 45.5625 
Q 25.390625 42.390625 31.78125 42.390625 
Q 38.140625 42.390625 41.71875 45.5625 
Q 45.3125 48.734375 45.3125 54.390625 
Q 45.3125 60.0625 41.71875 63.234375 
Q 38.140625 66.40625 31.78125 66.40625 
Q 25.390625 66.40625 21.84375 63.234375 
Q 18.3125 60.0625 18.3125 54.390625 
z
" id="DejaVuSans-38"/>
      </defs>
      <g style="fill:#555555;" transform="translate(339.135263 322.182437)scale(0.1 -0.1)">
       <use xlink:href="#DejaVuSans-38"/>
       <use x="63.623047" xlink:href="#DejaVuSans-30"/>
       <use x="127.246094" xlink:href="#DejaVuSans-30"/>
       <use x="190.869141" xlink:href="#DejaVuSans-30"/>
      </g>
     </g>
    </g>
    <g id="text_6">
     <!-- count -->
     <defs>
      <path d="M 48.78125 52.59375 
L 48.78125 44.1875 
Q 44.96875 46.296875 41.140625 47.34375 
Q 37.3125 48.390625 33.40625 48.390625 
Q 24.65625 48.390625 19.8125 42.84375 
Q 14.984375 37.3125 14.984375 27.296875 
Q 14.984375 17.28125 19.8125 11.734375 
Q 24.65625 6.203125 33.40625 6.203125 
Q 37.3125 6.203125 41.140625 7.25 
Q 44.96875 8.296875 48.78125 10.40625 
L 48.78125 2.09375 
Q 45.015625 0.34375 40.984375 -0.53125 
Q 36.96875 -1.421875 32.421875 -1.421875 
Q 20.0625 -1.421875 12.78125 6.34375 
Q 5.515625 14.109375 5.515625 27.296875 
Q 5.515625 40.671875 12.859375 48.328125 
Q 20.21875 56 33.015625 56 
Q 37.15625 56 41.109375 55.140625 
Q 45.0625 54.296875 48.78125 52.59375 
z
" id="DejaVuSans-63"/>
      <path d="M 30.609375 48.390625 
Q 23.390625 48.390625 19.1875 42.75 
Q 14.984375 37.109375 14.984375 27.296875 
Q 14.984375 17.484375 19.15625 11.84375 
Q 23.34375 6.203125 30.609375 6.203125 
Q 37.796875 6.203125 41.984375 11.859375 
Q 46.1875 17.53125 46.1875 27.296875 
Q 46.1875 37.015625 41.984375 42.703125 
Q 37.796875 48.390625 30.609375 48.390625 
z
M 30.609375 56 
Q 42.328125 56 49.015625 48.375 
Q 55.71875 40.765625 55.71875 27.296875 
Q 55.71875 13.875 49.015625 6.21875 
Q 42.328125 -1.421875 30.609375 -1.421875 
Q 18.84375 -1.421875 12.171875 6.21875 
Q 5.515625 13.875 5.515625 27.296875 
Q 5.515625 40.765625 12.171875 48.375 
Q 18.84375 56 30.609375 56 
z
" id="DejaVuSans-6f"/>
      <path d="M 8.5 21.578125 
L 8.5 54.6875 
L 17.484375 54.6875 
L 17.484375 21.921875 
Q 17.484375 14.15625 20.5 10.265625 
Q 23.53125 6.390625 29.59375 6.390625 
Q 36.859375 6.390625 41.078125 11.03125 
Q 45.3125 15.671875 45.3125 23.6875 
L 45.3125 54.6875 
L 54.296875 54.6875 
L 54.296875 0 
L 45.3125 0 
L 45.3125 8.40625 
Q 42.046875 3.421875 37.71875 1 
Q 33.40625 -1.421875 27.6875 -1.421875 
Q 18.265625 -1.421875 13.375 4.4375 
Q 8.5 10.296875 8.5 21.578125 
z
M 31.109375 56 
z
" id="DejaVuSans-75"/>
      <path d="M 54.890625 33.015625 
L 54.890625 0 
L 45.90625 0 
L 45.90625 32.71875 
Q 45.90625 40.484375 42.875 44.328125 
Q 39.84375 48.1875 33.796875 48.1875 
Q 26.515625 48.1875 22.3125 43.546875 
Q 18.109375 38.921875 18.109375 30.90625 
L 18.109375 0 
L 9.078125 0 
L 9.078125 54.6875 
L 18.109375 54.6875 
L 18.109375 46.1875 
Q 21.34375 51.125 25.703125 53.5625 
Q 30.078125 56 35.796875 56 
Q 45.21875 56 50.046875 50.171875 
Q 54.890625 44.34375 54.890625 33.015625 
z
" id="DejaVuSans-6e"/>
      <path d="M 18.3125 70.21875 
L 18.3125 54.6875 
L 36.8125 54.6875 
L 36.8125 47.703125 
L 18.3125 47.703125 
L 18.3125 18.015625 
Q 18.3125 11.328125 20.140625 9.421875 
Q 21.96875 7.515625 27.59375 7.515625 
L 36.8125 7.515625 
L 36.8125 0 
L 27.59375 0 
Q 17.1875 0 13.234375 3.875 
Q 9.28125 7.765625 9.28125 18.015625 
L 9.28125 47.703125 
L 2.6875 47.703125 
L 2.6875 54.6875 
L 9.28125 54.6875 
L 9.28125 70.21875 
z
" id="DejaVuSans-74"/>
     </defs>
     <g style="fill:#555555;" transform="translate(219.2325 337.38025)scale(0.12 -0.12)">
      <use xlink:href="#DejaVuSans-63"/>
      <use x="54.980469" xlink:href="#DejaVuSans-6f"/>
      <use x="116.162109" xlink:href="#DejaVuSans-75"/>
      <use x="179.541016" xlink:href="#DejaVuSans-6e"/>
      <use x="242.919922" xlink:href="#DejaVuSans-74"/>
     </g>
    </g>
   </g>
   <g id="matplotlib.axis_2">
    <g id="ytick_1">
     <g id="line2d_11">
      <path clip-path="url(#p8fc3ffd64a)" d="M 57.6 307.584 
L 414.72 307.584 
" style="fill:none;stroke:#ffffff;stroke-linecap:square;stroke-width:0.8;"/>
     </g>
     <g id="line2d_12">
      <defs>
       <path d="M 0 0 
L -3.5 0 
" id="m897a5bbc17" style="stroke:#555555;stroke-width:0.8;"/>
      </defs>
      <g>
       <use style="fill:#555555;stroke:#555555;stroke-width:0.8;" x="57.6" xlink:href="#m897a5bbc17" y="307.584"/>
      </g>
     </g>
     <g id="text_7">
      <!-- 0.000 -->
      <defs>
       <path d="M 10.6875 12.40625 
L 21 12.40625 
L 21 0 
L 10.6875 0 
z
" id="DejaVuSans-2e"/>
      </defs>
      <g style="fill:#555555;" transform="translate(21.971875 311.383219)scale(0.1 -0.1)">
       <use xlink:href="#DejaVuSans-30"/>
       <use x="63.623047" xlink:href="#DejaVuSans-2e"/>
       <use x="95.410156" xlink:href="#DejaVuSans-30"/>
       <use x="159.033203" xlink:href="#DejaVuSans-30"/>
       <use x="222.65625" xlink:href="#DejaVuSans-30"/>
      </g>
     </g>
    </g>
    <g id="ytick_2">
     <g id="line2d_13">
      <path clip-path="url(#p8fc3ffd64a)" d="M 57.6 254.329658 
L 414.72 254.329658 
" style="fill:none;stroke:#ffffff;stroke-linecap:square;stroke-width:0.8;"/>
     </g>
     <g id="line2d_14">
      <g>
       <use style="fill:#555555;stroke:#555555;stroke-width:0.8;" x="57.6" xlink:href="#m897a5bbc17" y="254.329658"/>
      </g>
     </g>
     <g id="text_8">
      <!-- 0.002 -->
      <g style="fill:#555555;" transform="translate(21.971875 258.128877)scale(0.1 -0.1)">
       <use xlink:href="#DejaVuSans-30"/>
       <use x="63.623047" xlink:href="#DejaVuSans-2e"/>
       <use x="95.410156" xlink:href="#DejaVuSans-30"/>
       <use x="159.033203" xlink:href="#DejaVuSans-30"/>
       <use x="222.65625" xlink:href="#DejaVuSans-32"/>
      </g>
     </g>
    </g>
    <g id="ytick_3">
     <g id="line2d_15">
      <path clip-path="url(#p8fc3ffd64a)" d="M 57.6 201.075317 
L 414.72 201.075317 
" style="fill:none;stroke:#ffffff;stroke-linecap:square;stroke-width:0.8;"/>
     </g>
     <g id="line2d_16">
      <g>
       <use style="fill:#555555;stroke:#555555;stroke-width:0.8;" x="57.6" xlink:href="#m897a5bbc17" y="201.075317"/>
      </g>
     </g>
     <g id="text_9">
      <!-- 0.004 -->
      <g style="fill:#555555;" transform="translate(21.971875 204.874536)scale(0.1 -0.1)">
       <use xlink:href="#DejaVuSans-30"/>
       <use x="63.623047" xlink:href="#DejaVuSans-2e"/>
       <use x="95.410156" xlink:href="#DejaVuSans-30"/>
       <use x="159.033203" xlink:href="#DejaVuSans-30"/>
       <use x="222.65625" xlink:href="#DejaVuSans-34"/>
      </g>
     </g>
    </g>
    <g id="ytick_4">
     <g id="line2d_17">
      <path clip-path="url(#p8fc3ffd64a)" d="M 57.6 147.820975 
L 414.72 147.820975 
" style="fill:none;stroke:#ffffff;stroke-linecap:square;stroke-width:0.8;"/>
     </g>
     <g id="line2d_18">
      <g>
       <use style="fill:#555555;stroke:#555555;stroke-width:0.8;" x="57.6" xlink:href="#m897a5bbc17" y="147.820975"/>
      </g>
     </g>
     <g id="text_10">
      <!-- 0.006 -->
      <g style="fill:#555555;" transform="translate(21.971875 151.620194)scale(0.1 -0.1)">
       <use xlink:href="#DejaVuSans-30"/>
       <use x="63.623047" xlink:href="#DejaVuSans-2e"/>
       <use x="95.410156" xlink:href="#DejaVuSans-30"/>
       <use x="159.033203" xlink:href="#DejaVuSans-30"/>
       <use x="222.65625" xlink:href="#DejaVuSans-36"/>
      </g>
     </g>
    </g>
    <g id="ytick_5">
     <g id="line2d_19">
      <path clip-path="url(#p8fc3ffd64a)" d="M 57.6 94.566634 
L 414.72 94.566634 
" style="fill:none;stroke:#ffffff;stroke-linecap:square;stroke-width:0.8;"/>
     </g>
     <g id="line2d_20">
      <g>
       <use style="fill:#555555;stroke:#555555;stroke-width:0.8;" x="57.6" xlink:href="#m897a5bbc17" y="94.566634"/>
      </g>
     </g>
     <g id="text_11">
      <!-- 0.008 -->
      <g style="fill:#555555;" transform="translate(21.971875 98.365853)scale(0.1 -0.1)">
       <use xlink:href="#DejaVuSans-30"/>
       <use x="63.623047" xlink:href="#DejaVuSans-2e"/>
       <use x="95.410156" xlink:href="#DejaVuSans-30"/>
       <use x="159.033203" xlink:href="#DejaVuSans-30"/>
       <use x="222.65625" xlink:href="#DejaVuSans-38"/>
      </g>
     </g>
    </g>
    <g id="ytick_6">
     <g id="line2d_21">
      <path clip-path="url(#p8fc3ffd64a)" d="M 57.6 41.312292 
L 414.72 41.312292 
" style="fill:none;stroke:#ffffff;stroke-linecap:square;stroke-width:0.8;"/>
     </g>
     <g id="line2d_22">
      <g>
       <use style="fill:#555555;stroke:#555555;stroke-width:0.8;" x="57.6" xlink:href="#m897a5bbc17" y="41.312292"/>
      </g>
     </g>
     <g id="text_12">
      <!-- 0.010 -->
      <defs>
       <path d="M 12.40625 8.296875 
L 28.515625 8.296875 
L 28.515625 63.921875 
L 10.984375 60.40625 
L 10.984375 69.390625 
L 28.421875 72.90625 
L 38.28125 72.90625 
L 38.28125 8.296875 
L 54.390625 8.296875 
L 54.390625 0 
L 12.40625 0 
z
" id="DejaVuSans-31"/>
      </defs>
      <g style="fill:#555555;" transform="translate(21.971875 45.111511)scale(0.1 -0.1)">
       <use xlink:href="#DejaVuSans-30"/>
       <use x="63.623047" xlink:href="#DejaVuSans-2e"/>
       <use x="95.410156" xlink:href="#DejaVuSans-30"/>
       <use x="159.033203" xlink:href="#DejaVuSans-31"/>
       <use x="222.65625" xlink:href="#DejaVuSans-30"/>
      </g>
     </g>
    </g>
    <g id="text_13">
     <!-- f(count) -->
     <defs>
      <path d="M 37.109375 75.984375 
L 37.109375 68.5 
L 28.515625 68.5 
Q 23.6875 68.5 21.796875 66.546875 
Q 19.921875 64.59375 19.921875 59.515625 
L 19.921875 54.6875 
L 34.71875 54.6875 
L 34.71875 47.703125 
L 19.921875 47.703125 
L 19.921875 0 
L 10.890625 0 
L 10.890625 47.703125 
L 2.296875 47.703125 
L 2.296875 54.6875 
L 10.890625 54.6875 
L 10.890625 58.5 
Q 10.890625 67.625 15.140625 71.796875 
Q 19.390625 75.984375 28.609375 75.984375 
z
" id="DejaVuSans-66"/>
      <path d="M 31 75.875 
Q 24.46875 64.65625 21.28125 53.65625 
Q 18.109375 42.671875 18.109375 31.390625 
Q 18.109375 20.125 21.3125 9.0625 
Q 24.515625 -2 31 -13.1875 
L 23.1875 -13.1875 
Q 15.875 -1.703125 12.234375 9.375 
Q 8.59375 20.453125 8.59375 31.390625 
Q 8.59375 42.28125 12.203125 53.3125 
Q 15.828125 64.359375 23.1875 75.875 
z
" id="DejaVuSans-28"/>
      <path d="M 8.015625 75.875 
L 15.828125 75.875 
Q 23.140625 64.359375 26.78125 53.3125 
Q 30.421875 42.28125 30.421875 31.390625 
Q 30.421875 20.453125 26.78125 9.375 
Q 23.140625 -1.703125 15.828125 -13.1875 
L 8.015625 -13.1875 
Q 14.5 -2 17.703125 9.0625 
Q 20.90625 20.125 20.90625 31.390625 
Q 20.90625 42.671875 17.703125 53.65625 
Q 14.5 64.65625 8.015625 75.875 
z
" id="DejaVuSans-29"/>
     </defs>
     <g style="fill:#555555;" transform="translate(15.47625 198.249562)rotate(-90)scale(0.12 -0.12)">
      <use xlink:href="#DejaVuSans-66"/>
      <use x="35.205078" xlink:href="#DejaVuSans-28"/>
      <use x="74.21875" xlink:href="#DejaVuSans-63"/>
      <use x="129.199219" xlink:href="#DejaVuSans-6f"/>
      <use x="190.380859" xlink:href="#DejaVuSans-75"/>
      <use x="253.759766" xlink:href="#DejaVuSans-6e"/>
      <use x="317.138672" xlink:href="#DejaVuSans-74"/>
      <use x="356.347656" xlink:href="#DejaVuSans-29"/>
     </g>
    </g>
   </g>
   <g id="line2d_23">
    <path clip-path="url(#p8fc3ffd64a)" d="M 85.802916 307.583543 
L 88.961344 307.583169 
L 92.119772 307.582544 
L 95.2782 307.581538 
L 98.436628 307.579972 
L 101.595055 307.577599 
L 104.753483 307.574071 
L 107.911911 307.568876 
L 111.070339 307.561222 
L 114.228767 307.549842 
L 117.387195 307.532718 
L 120.545623 307.506705 
L 123.70405 307.467122 
L 126.862478 307.407388 
L 130.020906 307.318857 
L 133.179334 307.191036 
L 136.337762 307.012365 
L 139.49619 306.771659 
L 142.654617 306.460179 
L 145.813045 306.074091 
L 148.971473 305.616877 
L 152.129901 305.101092 
L 155.288329 304.548857 
L 158.446757 303.990632 
L 161.605184 303.462146 
L 164.763612 302.999799 
L 167.92204 302.635307 
L 171.080468 302.390665 
L 174.238896 302.274511 
L 177.397324 302.280743 
L 180.555752 302.389686 
L 183.714179 302.571515 
L 186.872607 302.791064 
L 190.031035 303.012908 
L 193.189463 303.205631 
L 196.347891 303.344613 
L 199.506319 303.413156 
L 202.664746 303.402332 
L 205.823174 303.310185 
L 208.981602 303.140936 
L 212.14003 302.904514 
L 215.298458 302.616373 
L 218.456886 302.297135 
L 221.615314 301.971555 
L 224.773741 301.666468 
L 227.932169 301.407771 
L 231.090597 301.217024 
L 234.249025 301.108505 
L 237.407453 301.087573 
L 240.565881 301.150849 
L 243.724308 301.288142 
L 246.882736 301.485499 
L 250.041164 301.7284 
L 253.199592 302.004134 
L 256.35802 302.302733 
L 259.516448 302.616417 
L 262.674875 302.938048 
L 265.833303 303.259444 
L 268.991731 303.570409 
L 272.150159 303.859046 
L 275.308587 304.113373 
L 278.467015 304.323795 
L 281.625443 304.485576 
L 284.78387 304.60046 
L 287.942298 304.676796 
L 291.100726 304.728028 
L 294.259154 304.769877 
L 297.417582 304.816959 
L 300.57601 304.879721 
L 303.734437 304.962453 
L 306.892865 305.062795 
L 310.051293 305.172768 
L 313.209721 305.28097 
L 316.368149 305.375338 
L 319.526577 305.445856 
L 322.685004 305.486668 
L 325.843432 305.497278 
L 329.00186 305.48272 
L 332.160288 305.452813 
L 335.318716 305.420683 
L 338.477144 305.400826 
L 341.635572 305.406998 
L 344.793999 305.450199 
L 347.952427 305.537043 
L 351.110855 305.668758 
L 354.269283 305.841007 
L 357.427711 306.044599 
L 360.586139 306.266965 
L 363.744566 306.494125 
L 366.902994 306.712748 
L 370.061422 306.911886 
L 373.21985 307.084091 
L 376.378278 307.225765 
L 379.536706 307.336826 
L 382.695134 307.419877 
L 385.853561 307.479172 
L 389.011989 307.519617 
L 392.170417 307.545989 
L 395.328845 307.562433 
L 398.487273 307.572243 
" style="fill:none;stroke:#e24a33;stroke-linecap:square;stroke-width:0.3;"/>
   </g>
   <g id="line2d_24">
    <path clip-path="url(#p8fc3ffd64a)" d="M 73.832727 307.562041 
L 75.648162 307.542898 
L 77.463596 307.509884 
L 79.279031 307.455228 
L 81.094466 307.368409 
L 82.9099 307.236141 
L 84.725335 307.042979 
L 86.540769 306.772752 
L 88.356204 306.410898 
L 90.171639 305.947534 
L 91.987073 305.380778 
L 93.802508 304.719544 
L 95.617942 303.984886 
L 97.433377 303.209098 
L 99.248811 302.432188 
L 101.064246 301.696079 
L 102.879681 301.037623 
L 104.695115 300.482121 
L 106.51055 300.039131 
L 108.325984 299.701895 
L 110.141419 299.450738 
L 111.956854 299.259578 
L 113.772288 299.103679 
L 115.587723 298.966337 
L 117.403157 298.842499 
L 119.218592 298.738325 
L 121.034026 298.667022 
L 122.849461 298.642464 
L 124.664896 298.672764 
L 126.48033 298.755809 
L 128.295765 298.878014 
L 130.111199 299.016473 
L 131.926634 299.143632 
L 133.742069 299.233041 
L 135.557503 299.26464 
L 137.372938 299.228405 
L 139.188372 299.125788 
L 141.003807 298.968988 
L 142.819242 298.778533 
L 144.634676 298.579867 
L 146.450111 298.399651 
L 148.265545 298.26238 
L 150.08098 298.187682 
L 151.896414 298.188539 
L 153.711849 298.270425 
L 155.527284 298.431313 
L 157.342718 298.662422 
L 159.158153 298.949572 
L 160.973587 299.275067 
L 162.789022 299.619931 
L 164.604457 299.966337 
L 166.419891 300.299872 
L 168.235326 300.611251 
L 170.05076 300.897083 
L 171.866195 301.159429 
L 173.681629 301.404203 
L 175.497064 301.638774 
L 177.312499 301.869389 
L 179.127933 302.099113 
L 180.943368 302.326797 
L 182.758802 302.547284 
L 184.574237 302.752672 
L 186.389672 302.934182 
L 188.205106 303.084131 
L 190.020541 303.197575 
L 191.835975 303.273434 
L 193.65141 303.315066 
L 195.466845 303.33035 
L 197.282279 303.331303 
L 199.097714 303.333175 
L 200.913148 303.352944 
L 202.728583 303.407244 
L 204.544017 303.509926 
L 206.359452 303.669711 
L 208.174887 303.888503 
L 209.990321 304.160836 
L 211.805756 304.474727 
L 213.62119 304.813769 
L 215.436625 305.159969 
L 217.25206 305.496656 
L 219.067494 305.810753 
L 220.882929 306.093986 
L 222.698363 306.342922 
L 224.513798 306.558051 
L 226.329232 306.742362 
L 228.144667 306.899868 
L 229.960102 307.034467 
L 231.775536 307.149309 
L 233.590971 307.246652 
L 235.406405 307.328072 
L 237.22184 307.394808 
L 239.037275 307.448088 
L 240.852709 307.489328 
L 242.668144 307.520166 
L 244.483578 307.542393 
L 246.299013 307.557811 
L 248.114447 307.568093 
L 249.929882 307.574682 
L 251.745317 307.578739 
L 253.560751 307.581137 
" style="fill:none;stroke:#348abd;stroke-linecap:square;stroke-width:0.3;"/>
   </g>
   <g id="line2d_25">
    <path clip-path="url(#p8fc3ffd64a)" d="M 89.115529 307.575822 
L 90.39489 307.56506 
L 91.674251 307.542484 
L 92.953612 307.497823 
L 94.232973 307.41451 
L 95.512334 307.267961 
L 96.791695 307.024905 
L 98.071057 306.644852 
L 99.350418 306.084557 
L 100.629779 305.305556 
L 101.90914 304.283465 
L 103.188501 303.016327 
L 104.467862 301.528752 
L 105.747223 299.869535 
L 107.026584 298.102908 
L 108.305945 296.29645 
L 109.585306 294.510183 
L 110.864667 292.790485 
L 112.144028 291.169499 
L 113.423389 289.66777 
L 114.70275 288.297262 
L 115.982111 287.063928 
L 117.261472 285.971893 
L 118.540833 285.031751 
L 119.820194 284.272233 
L 121.099556 283.749326 
L 122.378917 283.544434 
L 123.658278 283.746555 
L 124.937639 284.422114 
L 126.217 285.584681 
L 127.496361 287.179306 
L 128.775722 289.089982 
L 130.055083 291.167229 
L 131.334444 293.263002 
L 132.613805 295.257917 
L 133.893166 297.071847 
L 135.172527 298.658721 
L 136.451888 299.993702 
L 137.731249 301.062119 
L 139.01061 301.855277 
L 140.289971 302.372348 
L 141.569332 302.623515 
L 142.848693 302.62937 
L 144.128055 302.414555 
L 145.407416 301.998074 
L 146.686777 301.386204 
L 147.966138 300.574524 
L 149.245499 299.562234 
L 150.52486 298.375391 
L 151.804221 297.088891 
L 153.083582 295.834167 
L 154.362943 294.783553 
L 155.642304 294.112403 
L 156.921665 293.951403 
L 158.201026 294.34785 
L 159.480387 295.251735 
L 160.759748 296.531735 
L 162.039109 298.013424 
L 163.31847 299.523966 
L 164.597831 300.927636 
L 165.877193 302.143296 
L 167.156554 303.143624 
L 168.435915 303.942023 
L 169.715276 304.574903 
L 170.994637 305.085321 
L 172.273998 305.511217 
L 173.553359 305.879095 
L 174.83272 306.202685 
L 176.112081 306.485394 
L 177.391442 306.724889 
L 178.670803 306.917999 
L 179.950164 307.064306 
L 181.229525 307.167548 
L 182.508886 307.234858 
L 183.788247 307.27471 
L 185.067608 307.294751 
L 186.346969 307.300489 
L 187.62633 307.295222 
L 188.905692 307.280966 
L 190.185053 307.259735 
L 191.464414 307.234498 
L 192.743775 307.209424 
L 194.023136 307.189374 
L 195.302497 307.178956 
L 196.581858 307.181532 
L 197.861219 307.19853 
L 199.14058 307.229211 
L 200.419941 307.270907 
L 201.699302 307.319612 
L 202.978663 307.370762 
L 204.258024 307.420039 
L 205.537385 307.464028 
L 206.816746 307.50061 
L 208.096107 307.529031 
L 209.375468 307.549689 
L 210.654829 307.563748 
L 211.934191 307.57271 
L 213.213552 307.578062 
L 214.492913 307.581056 
L 215.772274 307.582625 
" style="fill:none;stroke:#988ed5;stroke-linecap:square;stroke-width:0.3;"/>
   </g>
   <g id="line2d_26">
    <path clip-path="url(#p8fc3ffd64a)" d="M 92.235297 307.567417 
L 92.583232 307.542496 
L 92.931167 307.487491 
L 93.279101 307.374808 
L 93.627036 307.159603 
L 93.974971 306.774395 
L 94.322905 306.124472 
L 94.67084 305.085358 
L 95.018774 303.504761 
L 95.366709 301.212964 
L 95.714644 298.045393 
L 96.062578 293.875812 
L 96.410513 288.648561 
L 96.758447 282.390669 
L 97.106382 275.191085 
L 97.454317 267.157942 
L 97.802251 258.390832 
L 98.150186 249.007195 
L 98.49812 239.226685 
L 98.846055 229.464772 
L 99.19399 220.360182 
L 99.541924 212.689685 
L 99.889859 207.192796 
L 100.237794 204.386801 
L 100.585728 204.455373 
L 100.933663 207.243776 
L 101.281597 212.333337 
L 101.629532 219.141824 
L 101.977467 227.012971 
L 102.325401 235.290197 
L 102.673336 243.383829 
L 103.02127 250.830674 
L 103.369205 257.328931 
L 103.71714 262.732776 
L 104.065074 267.011692 
L 104.413009 270.200891 
L 104.760944 272.370793 
L 105.108878 273.62439 
L 105.456813 274.108717 
L 105.804747 274.019334 
L 106.152682 273.587517 
L 106.500617 273.055855 
L 106.848551 272.6546 
L 107.196486 272.585135 
L 107.54442 273.007363 
L 107.892355 274.025074 
L 108.24029 275.669726 
L 108.588224 277.891004 
L 108.936159 280.563429 
L 109.284094 283.51069 
L 109.632028 286.540013 
L 109.979963 289.475226 
L 110.327897 292.180415 
L 110.675832 294.571348 
L 111.023767 296.61468 
L 111.371701 298.315563 
L 111.719636 299.696098 
L 112.06757 300.771422 
L 112.415505 301.533836 
L 112.76344 301.953637 
L 113.111374 301.996992 
L 113.459309 301.650873 
L 113.807244 300.939947 
L 114.155178 299.92466 
L 114.503113 298.681794 
L 114.851047 297.281131 
L 115.198982 295.776141 
L 115.546917 294.218381 
L 115.894851 292.688125 
L 116.242786 291.31842 
L 116.59072 290.288506 
L 116.938655 289.779451 
L 117.28659 289.910597 
L 117.634524 290.691738 
L 117.982459 292.019223 
L 118.330394 293.717604 
L 118.678328 295.600905 
L 119.026263 297.51911 
L 119.374197 299.370642 
L 119.722132 301.086907 
L 120.070067 302.610898 
L 120.418001 303.889093 
L 120.765936 304.880765 
L 121.11387 305.574768 
L 121.461805 306.000034 
L 121.80974 306.221795 
L 122.157674 306.32455 
L 122.505609 306.389249 
L 122.853544 306.473858 
L 123.201478 306.603968 
L 123.549413 306.775331 
L 123.897347 306.965223 
L 124.245282 307.146528 
L 124.593217 307.29869 
L 124.941151 307.412473 
L 125.289086 307.488967 
L 125.63702 307.535483 
L 125.984955 307.561177 
L 126.33289 307.574108 
L 126.680824 307.58005 
" style="fill:none;stroke:#777777;stroke-linecap:square;stroke-width:0.3;"/>
   </g>
   <g id="line2d_27">
    <path clip-path="url(#p8fc3ffd64a)" d="M 94.47591 307.46394 
L 94.586648 307.342073 
L 94.697386 307.118367 
L 94.808124 306.727823 
L 94.918863 306.079672 
L 95.029601 305.057644 
L 95.140339 303.527425 
L 95.251077 301.353586 
L 95.361815 298.425827 
L 95.472554 294.690394 
L 95.583292 290.177862 
L 95.69403 285.015124 
L 95.804768 279.409597 
L 95.915506 273.599058 
L 96.026245 267.770856 
L 96.136983 261.967106 
L 96.247721 256.003075 
L 96.358459 249.429778 
L 96.469197 241.565486 
L 96.579936 231.604962 
L 96.690674 218.793832 
L 96.801412 202.635008 
L 96.91215 183.081101 
L 97.022888 160.665254 
L 97.133627 136.533253 
L 97.244365 112.358881 
L 97.355103 90.147279 
L 97.465841 71.952696 
L 97.576579 59.554201 
L 97.687318 54.144 
L 97.798056 56.086833 
L 97.908794 64.803781 
L 98.019532 78.817624 
L 98.13027 95.968998 
L 98.241009 113.775967 
L 98.351747 129.872277 
L 98.462485 142.432567 
L 98.573223 150.487191 
L 98.683961 154.050403 
L 98.7947 154.03062 
L 98.905438 151.948475 
L 99.016176 149.540108 
L 99.126914 148.352508 
L 99.237652 149.434299 
L 99.348391 153.189907 
L 99.459129 159.410135 
L 99.569867 167.437957 
L 99.680605 176.394278 
L 99.791343 185.385672 
L 99.902082 193.642142 
L 100.01282 200.573695 
L 100.123558 205.770837 
L 100.234296 208.990817 
L 100.345034 210.163879 
L 100.455773 209.428689 
L 100.566511 207.177627 
L 100.677249 204.075269 
L 100.787987 201.015436 
L 100.898725 199.003 
L 101.009464 198.97711 
L 101.120202 201.619561 
L 101.23094 207.203987 
L 101.341678 215.532813 
L 101.452416 225.982402 
L 101.563154 237.64271 
L 101.673893 249.509053 
L 101.784631 260.670917 
L 101.895369 270.449457 
L 102.006107 278.457288 
L 102.116845 284.581359 
L 102.227584 288.912007 
L 102.338322 291.651814 
L 102.44906 293.035662 
L 102.559798 293.281962 
L 102.670536 292.580233 
L 102.781275 291.107223 
L 102.892013 289.055979 
L 103.002751 286.660622 
L 103.113489 284.203403 
L 103.224227 281.998131 
L 103.334966 280.352826 
L 103.445704 279.521888 
L 103.556442 279.661846 
L 103.66718 280.803877 
L 103.777918 282.851032 
L 103.888657 285.600607 
L 103.999395 288.785003 
L 104.110133 292.120026 
L 104.220871 295.349103 
L 104.331609 298.27476 
L 104.442348 300.773427 
L 104.553086 302.79441 
L 104.663824 304.347224 
L 104.774562 305.482904 
L 104.8853 306.274558 
L 104.996039 306.800936 
L 105.106777 307.134919 
L 105.217515 307.337166 
L 105.328253 307.454051 
L 105.438991 307.518511 
" style="fill:none;stroke:#fbc15e;stroke-linecap:square;stroke-width:0.3;"/>
   </g>
   <g id="line2d_28">
    <path clip-path="url(#p8fc3ffd64a)" d="M 94.691148 307.481587 
L 94.798188 307.389849 
L 94.905227 307.231449 
L 95.012266 306.970473 
L 95.119306 306.560056 
L 95.226345 305.943628 
L 95.333385 305.05853 
L 95.440424 303.84174 
L 95.547464 302.236458 
L 95.654503 300.197363 
L 95.761543 297.6922 
L 95.868582 294.698269 
L 95.975622 291.194639 
L 96.082661 287.153652 
L 96.189701 282.537395 
L 96.29674 277.30476 
L 96.40378 271.431752 
L 96.510819 264.942245 
L 96.617858 257.940402 
L 96.724898 250.631983 
L 96.831937 243.322218 
L 96.938977 236.383488 
L 97.046016 230.195288 
L 97.153056 225.068755 
L 97.260095 221.17459 
L 97.367135 218.493813 
L 97.474174 216.804886 
L 97.581214 215.710412 
L 97.688253 214.695552 
L 97.795293 213.202493 
L 97.902332 210.703354 
L 98.009371 206.757929 
L 98.116411 201.050624 
L 98.22345 193.40913 
L 98.33049 183.812663 
L 98.437529 172.39788 
L 98.544569 159.466175 
L 98.651608 145.489064 
L 98.758648 131.102404 
L 98.865687 117.07832 
L 98.972727 104.267974 
L 99.079766 93.517534 
L 99.186806 85.570485 
L 99.293845 80.976785 
L 99.400885 80.029357 
L 99.507924 82.740486 
L 99.614963 88.858084 
L 99.722003 97.91032 
L 99.829042 109.261998 
L 99.936082 122.169159 
L 100.043121 135.827096 
L 100.150161 149.415956 
L 100.2572 162.152196 
L 100.36424 173.351223 
L 100.471279 182.498245 
L 100.578319 189.315044 
L 100.685358 193.804723 
L 100.792398 196.257186 
L 100.899437 197.205441 
L 101.006477 197.334449 
L 101.113516 197.356858 
L 101.220555 197.879956 
L 101.327595 199.29278 
L 101.434634 201.699918 
L 101.541674 204.919197 
L 101.648713 208.545911 
L 101.755753 212.06982 
L 101.862792 215.017092 
L 101.969832 217.081647 
L 102.076871 218.211836 
L 102.183911 218.629445 
L 102.29095 218.776318 
L 102.39799 219.204295 
L 102.505029 220.440469 
L 102.612068 222.866186 
L 102.719108 226.642371 
L 102.826147 231.697411 
L 102.933187 237.773212 
L 103.040226 244.507588 
L 103.147266 251.5233 
L 103.254305 258.497461 
L 103.361345 265.196888 
L 103.468384 271.479482 
L 103.575424 277.272655 
L 103.682463 282.544086 
L 103.789503 287.277606 
L 103.896542 291.460667 
L 104.003582 295.083214 
L 104.110621 298.143462 
L 104.21766 300.654947 
L 104.3247 302.650605 
L 104.431739 304.182146 
L 104.538779 305.315224 
L 104.645818 306.12228 
L 104.752858 306.675162 
L 104.859897 307.039174 
L 104.966937 307.26936 
L 105.073976 307.409089 
L 105.181016 307.49047 
L 105.288055 307.535923 
" style="fill:none;stroke:#8eba42;stroke-linecap:square;stroke-width:0.3;"/>
   </g>
   <g id="line2d_29">
    <path clip-path="url(#p8fc3ffd64a)" d="M 93.970908 307.550405 
L 94.091524 307.511249 
L 94.212139 307.435501 
L 94.332755 307.297922 
L 94.45337 307.06303 
L 94.573986 306.685371 
L 94.694601 306.112139 
L 94.815217 305.287915 
L 94.935832 304.160204 
L 95.056448 302.683725 
L 95.177063 300.821757 
L 95.297679 298.54445 
L 95.418294 295.825893 
L 95.53891 292.642635 
L 95.659525 288.975087 
L 95.780141 284.810312 
L 95.900756 280.142285 
L 96.021372 274.965866 
L 96.141987 269.264272 
L 96.262603 262.994358 
L 96.383218 256.075967 
L 96.503834 248.388968 
L 96.624449 239.776351 
L 96.745065 230.049195 
L 96.86568 218.993544 
L 96.986296 206.388422 
L 97.106911 192.049911 
L 97.227527 175.909614 
L 97.348142 158.115577 
L 97.468758 139.120626 
L 97.589373 119.713479 
L 97.709988 100.962563 
L 97.830604 84.075954 
L 97.951219 70.21503 
L 98.071835 60.314955 
L 98.19245 54.955531 
L 98.313066 54.301047 
L 98.433681 58.10477 
L 98.554297 65.764256 
L 98.674912 76.415984 
L 98.795528 89.061171 
L 98.916143 102.710089 
L 99.036759 116.5211 
L 99.157374 129.903147 
L 99.27799 142.556344 
L 99.398605 154.444493 
L 99.519221 165.715354 
L 99.639836 176.597113 
L 99.760452 187.298173 
L 99.881067 197.927783 
L 100.001683 208.446591 
L 100.122298 218.653057 
L 100.242914 228.210411 
L 100.363529 236.712616 
L 100.484145 243.775067 
L 100.60476 249.12264 
L 100.725376 252.64442 
L 100.845991 254.396873 
L 100.966607 254.560886 
L 101.087222 253.380174 
L 101.207838 251.115636 
L 101.328453 248.03776 
L 101.449069 244.454345 
L 101.569684 240.748176 
L 101.6903 237.391289 
L 101.810915 234.912757 
L 101.931531 233.819331 
L 102.052146 234.491419 
L 102.172762 237.09009 
L 102.293377 241.508518 
L 102.413993 247.384941 
L 102.534608 254.171657 
L 102.655224 261.236313 
L 102.775839 267.965953 
L 102.896455 273.851621 
L 103.01707 278.544787 
L 103.137686 281.886979 
L 103.258301 283.915731 
L 103.378917 284.846218 
L 103.499532 285.02617 
L 103.620148 284.866914 
L 103.740763 284.763578 
L 103.861379 285.02495 
L 103.981994 285.831673 
L 104.10261 287.230215 
L 104.223225 289.156147 
L 104.343841 291.471775 
L 104.464456 294.003755 
L 104.585072 296.573153 
L 104.705687 299.017404 
L 104.826303 301.206447 
L 104.946918 303.053984 
L 105.067534 304.522515 
L 105.188149 305.620428 
L 105.308765 306.39143 
L 105.42938 306.8994 
L 105.549996 307.213109 
L 105.670611 307.394599 
L 105.791227 307.49292 
L 105.911842 307.542786 
" style="fill:none;stroke:#ffb5b8;stroke-linecap:square;stroke-width:0.3;"/>
   </g>
   <g id="patch_3">
    <path d="M 57.6 307.584 
L 57.6 41.472 
" style="fill:none;stroke:#ffffff;stroke-linecap:square;stroke-linejoin:miter;"/>
   </g>
   <g id="patch_4">
    <path d="M 414.72 307.584 
L 414.72 41.472 
" style="fill:none;stroke:#ffffff;stroke-linecap:square;stroke-linejoin:miter;"/>
   </g>
   <g id="patch_5">
    <path d="M 57.6 307.584 
L 414.72 307.584 
" style="fill:none;stroke:#ffffff;stroke-linecap:square;stroke-linejoin:miter;"/>
   </g>
   <g id="patch_6">
    <path d="M 57.6 41.472 
L 414.72 41.472 
" style="fill:none;stroke:#ffffff;stroke-linecap:square;stroke-linejoin:miter;"/>
   </g>
   <g id="text_14">
    <!-- kernel density estimation(Gaussian):b4314;b4315;b4316;b4317;b4318;b4319;b4320 -->
    <defs>
     <path d="M 9.078125 75.984375 
L 18.109375 75.984375 
L 18.109375 31.109375 
L 44.921875 54.6875 
L 56.390625 54.6875 
L 27.390625 29.109375 
L 57.625 0 
L 45.90625 0 
L 18.109375 26.703125 
L 18.109375 0 
L 9.078125 0 
z
" id="DejaVuSans-6b"/>
     <path d="M 56.203125 29.59375 
L 56.203125 25.203125 
L 14.890625 25.203125 
Q 15.484375 15.921875 20.484375 11.0625 
Q 25.484375 6.203125 34.421875 6.203125 
Q 39.59375 6.203125 44.453125 7.46875 
Q 49.3125 8.734375 54.109375 11.28125 
L 54.109375 2.78125 
Q 49.265625 0.734375 44.1875 -0.34375 
Q 39.109375 -1.421875 33.890625 -1.421875 
Q 20.796875 -1.421875 13.15625 6.1875 
Q 5.515625 13.8125 5.515625 26.8125 
Q 5.515625 40.234375 12.765625 48.109375 
Q 20.015625 56 32.328125 56 
Q 43.359375 56 49.78125 48.890625 
Q 56.203125 41.796875 56.203125 29.59375 
z
M 47.21875 32.234375 
Q 47.125 39.59375 43.09375 43.984375 
Q 39.0625 48.390625 32.421875 48.390625 
Q 24.90625 48.390625 20.390625 44.140625 
Q 15.875 39.890625 15.1875 32.171875 
z
" id="DejaVuSans-65"/>
     <path d="M 41.109375 46.296875 
Q 39.59375 47.171875 37.8125 47.578125 
Q 36.03125 48 33.890625 48 
Q 26.265625 48 22.1875 43.046875 
Q 18.109375 38.09375 18.109375 28.8125 
L 18.109375 0 
L 9.078125 0 
L 9.078125 54.6875 
L 18.109375 54.6875 
L 18.109375 46.1875 
Q 20.953125 51.171875 25.484375 53.578125 
Q 30.03125 56 36.53125 56 
Q 37.453125 56 38.578125 55.875 
Q 39.703125 55.765625 41.0625 55.515625 
z
" id="DejaVuSans-72"/>
     <path d="M 9.421875 75.984375 
L 18.40625 75.984375 
L 18.40625 0 
L 9.421875 0 
z
" id="DejaVuSans-6c"/>
     <path id="DejaVuSans-20"/>
     <path d="M 45.40625 46.390625 
L 45.40625 75.984375 
L 54.390625 75.984375 
L 54.390625 0 
L 45.40625 0 
L 45.40625 8.203125 
Q 42.578125 3.328125 38.25 0.953125 
Q 33.9375 -1.421875 27.875 -1.421875 
Q 17.96875 -1.421875 11.734375 6.484375 
Q 5.515625 14.40625 5.515625 27.296875 
Q 5.515625 40.1875 11.734375 48.09375 
Q 17.96875 56 27.875 56 
Q 33.9375 56 38.25 53.625 
Q 42.578125 51.265625 45.40625 46.390625 
z
M 14.796875 27.296875 
Q 14.796875 17.390625 18.875 11.75 
Q 22.953125 6.109375 30.078125 6.109375 
Q 37.203125 6.109375 41.296875 11.75 
Q 45.40625 17.390625 45.40625 27.296875 
Q 45.40625 37.203125 41.296875 42.84375 
Q 37.203125 48.484375 30.078125 48.484375 
Q 22.953125 48.484375 18.875 42.84375 
Q 14.796875 37.203125 14.796875 27.296875 
z
" id="DejaVuSans-64"/>
     <path d="M 44.28125 53.078125 
L 44.28125 44.578125 
Q 40.484375 46.53125 36.375 47.5 
Q 32.28125 48.484375 27.875 48.484375 
Q 21.1875 48.484375 17.84375 46.4375 
Q 14.5 44.390625 14.5 40.28125 
Q 14.5 37.15625 16.890625 35.375 
Q 19.28125 33.59375 26.515625 31.984375 
L 29.59375 31.296875 
Q 39.15625 29.25 43.1875 25.515625 
Q 47.21875 21.78125 47.21875 15.09375 
Q 47.21875 7.46875 41.1875 3.015625 
Q 35.15625 -1.421875 24.609375 -1.421875 
Q 20.21875 -1.421875 15.453125 -0.5625 
Q 10.6875 0.296875 5.421875 2 
L 5.421875 11.28125 
Q 10.40625 8.6875 15.234375 7.390625 
Q 20.0625 6.109375 24.8125 6.109375 
Q 31.15625 6.109375 34.5625 8.28125 
Q 37.984375 10.453125 37.984375 14.40625 
Q 37.984375 18.0625 35.515625 20.015625 
Q 33.0625 21.96875 24.703125 23.78125 
L 21.578125 24.515625 
Q 13.234375 26.265625 9.515625 29.90625 
Q 5.8125 33.546875 5.8125 39.890625 
Q 5.8125 47.609375 11.28125 51.796875 
Q 16.75 56 26.8125 56 
Q 31.78125 56 36.171875 55.265625 
Q 40.578125 54.546875 44.28125 53.078125 
z
" id="DejaVuSans-73"/>
     <path d="M 9.421875 54.6875 
L 18.40625 54.6875 
L 18.40625 0 
L 9.421875 0 
z
M 9.421875 75.984375 
L 18.40625 75.984375 
L 18.40625 64.59375 
L 9.421875 64.59375 
z
" id="DejaVuSans-69"/>
     <path d="M 32.171875 -5.078125 
Q 28.375 -14.84375 24.75 -17.8125 
Q 21.140625 -20.796875 15.09375 -20.796875 
L 7.90625 -20.796875 
L 7.90625 -13.28125 
L 13.1875 -13.28125 
Q 16.890625 -13.28125 18.9375 -11.515625 
Q 21 -9.765625 23.484375 -3.21875 
L 25.09375 0.875 
L 2.984375 54.6875 
L 12.5 54.6875 
L 29.59375 11.921875 
L 46.6875 54.6875 
L 56.203125 54.6875 
z
" id="DejaVuSans-79"/>
     <path d="M 52 44.1875 
Q 55.375 50.25 60.0625 53.125 
Q 64.75 56 71.09375 56 
Q 79.640625 56 84.28125 50.015625 
Q 88.921875 44.046875 88.921875 33.015625 
L 88.921875 0 
L 79.890625 0 
L 79.890625 32.71875 
Q 79.890625 40.578125 77.09375 44.375 
Q 74.3125 48.1875 68.609375 48.1875 
Q 61.625 48.1875 57.5625 43.546875 
Q 53.515625 38.921875 53.515625 30.90625 
L 53.515625 0 
L 44.484375 0 
L 44.484375 32.71875 
Q 44.484375 40.625 41.703125 44.40625 
Q 38.921875 48.1875 33.109375 48.1875 
Q 26.21875 48.1875 22.15625 43.53125 
Q 18.109375 38.875 18.109375 30.90625 
L 18.109375 0 
L 9.078125 0 
L 9.078125 54.6875 
L 18.109375 54.6875 
L 18.109375 46.1875 
Q 21.1875 51.21875 25.484375 53.609375 
Q 29.78125 56 35.6875 56 
Q 41.65625 56 45.828125 52.96875 
Q 50 49.953125 52 44.1875 
z
" id="DejaVuSans-6d"/>
     <path d="M 34.28125 27.484375 
Q 23.390625 27.484375 19.1875 25 
Q 14.984375 22.515625 14.984375 16.5 
Q 14.984375 11.71875 18.140625 8.90625 
Q 21.296875 6.109375 26.703125 6.109375 
Q 34.1875 6.109375 38.703125 11.40625 
Q 43.21875 16.703125 43.21875 25.484375 
L 43.21875 27.484375 
z
M 52.203125 31.203125 
L 52.203125 0 
L 43.21875 0 
L 43.21875 8.296875 
Q 40.140625 3.328125 35.546875 0.953125 
Q 30.953125 -1.421875 24.3125 -1.421875 
Q 15.921875 -1.421875 10.953125 3.296875 
Q 6 8.015625 6 15.921875 
Q 6 25.140625 12.171875 29.828125 
Q 18.359375 34.515625 30.609375 34.515625 
L 43.21875 34.515625 
L 43.21875 35.40625 
Q 43.21875 41.609375 39.140625 45 
Q 35.0625 48.390625 27.6875 48.390625 
Q 23 48.390625 18.546875 47.265625 
Q 14.109375 46.140625 10.015625 43.890625 
L 10.015625 52.203125 
Q 14.9375 54.109375 19.578125 55.046875 
Q 24.21875 56 28.609375 56 
Q 40.484375 56 46.34375 49.84375 
Q 52.203125 43.703125 52.203125 31.203125 
z
" id="DejaVuSans-61"/>
     <path d="M 59.515625 10.40625 
L 59.515625 29.984375 
L 43.40625 29.984375 
L 43.40625 38.09375 
L 69.28125 38.09375 
L 69.28125 6.78125 
Q 63.578125 2.734375 56.6875 0.65625 
Q 49.8125 -1.421875 42 -1.421875 
Q 24.90625 -1.421875 15.25 8.5625 
Q 5.609375 18.5625 5.609375 36.375 
Q 5.609375 54.25 15.25 64.234375 
Q 24.90625 74.21875 42 74.21875 
Q 49.125 74.21875 55.546875 72.453125 
Q 61.96875 70.703125 67.390625 67.28125 
L 67.390625 56.78125 
Q 61.921875 61.421875 55.765625 63.765625 
Q 49.609375 66.109375 42.828125 66.109375 
Q 29.4375 66.109375 22.71875 58.640625 
Q 16.015625 51.171875 16.015625 36.375 
Q 16.015625 21.625 22.71875 14.15625 
Q 29.4375 6.6875 42.828125 6.6875 
Q 48.046875 6.6875 52.140625 7.59375 
Q 56.25 8.5 59.515625 10.40625 
z
" id="DejaVuSans-47"/>
     <path d="M 11.71875 12.40625 
L 22.015625 12.40625 
L 22.015625 0 
L 11.71875 0 
z
M 11.71875 51.703125 
L 22.015625 51.703125 
L 22.015625 39.3125 
L 11.71875 39.3125 
z
" id="DejaVuSans-3a"/>
     <path d="M 48.6875 27.296875 
Q 48.6875 37.203125 44.609375 42.84375 
Q 40.53125 48.484375 33.40625 48.484375 
Q 26.265625 48.484375 22.1875 42.84375 
Q 18.109375 37.203125 18.109375 27.296875 
Q 18.109375 17.390625 22.1875 11.75 
Q 26.265625 6.109375 33.40625 6.109375 
Q 40.53125 6.109375 44.609375 11.75 
Q 48.6875 17.390625 48.6875 27.296875 
z
M 18.109375 46.390625 
Q 20.953125 51.265625 25.265625 53.625 
Q 29.59375 56 35.59375 56 
Q 45.5625 56 51.78125 48.09375 
Q 58.015625 40.1875 58.015625 27.296875 
Q 58.015625 14.40625 51.78125 6.484375 
Q 45.5625 -1.421875 35.59375 -1.421875 
Q 29.59375 -1.421875 25.265625 0.953125 
Q 20.953125 3.328125 18.109375 8.203125 
L 18.109375 0 
L 9.078125 0 
L 9.078125 75.984375 
L 18.109375 75.984375 
z
" id="DejaVuSans-62"/>
     <path d="M 40.578125 39.3125 
Q 47.65625 37.796875 51.625 33 
Q 55.609375 28.21875 55.609375 21.1875 
Q 55.609375 10.40625 48.1875 4.484375 
Q 40.765625 -1.421875 27.09375 -1.421875 
Q 22.515625 -1.421875 17.65625 -0.515625 
Q 12.796875 0.390625 7.625 2.203125 
L 7.625 11.71875 
Q 11.71875 9.328125 16.59375 8.109375 
Q 21.484375 6.890625 26.8125 6.890625 
Q 36.078125 6.890625 40.9375 10.546875 
Q 45.796875 14.203125 45.796875 21.1875 
Q 45.796875 27.640625 41.28125 31.265625 
Q 36.765625 34.90625 28.71875 34.90625 
L 20.21875 34.90625 
L 20.21875 43.015625 
L 29.109375 43.015625 
Q 36.375 43.015625 40.234375 45.921875 
Q 44.09375 48.828125 44.09375 54.296875 
Q 44.09375 59.90625 40.109375 62.90625 
Q 36.140625 65.921875 28.71875 65.921875 
Q 24.65625 65.921875 20.015625 65.03125 
Q 15.375 64.15625 9.8125 62.3125 
L 9.8125 71.09375 
Q 15.4375 72.65625 20.34375 73.4375 
Q 25.25 74.21875 29.59375 74.21875 
Q 40.828125 74.21875 47.359375 69.109375 
Q 53.90625 64.015625 53.90625 55.328125 
Q 53.90625 49.265625 50.4375 45.09375 
Q 46.96875 40.921875 40.578125 39.3125 
z
" id="DejaVuSans-33"/>
     <path d="M 11.71875 51.703125 
L 22.015625 51.703125 
L 22.015625 39.3125 
L 11.71875 39.3125 
z
M 11.71875 12.40625 
L 22.015625 12.40625 
L 22.015625 4 
L 14.015625 -11.625 
L 7.71875 -11.625 
L 11.71875 4 
z
" id="DejaVuSans-3b"/>
     <path d="M 10.796875 72.90625 
L 49.515625 72.90625 
L 49.515625 64.59375 
L 19.828125 64.59375 
L 19.828125 46.734375 
Q 21.96875 47.46875 24.109375 47.828125 
Q 26.265625 48.1875 28.421875 48.1875 
Q 40.625 48.1875 47.75 41.5 
Q 54.890625 34.8125 54.890625 23.390625 
Q 54.890625 11.625 47.5625 5.09375 
Q 40.234375 -1.421875 26.90625 -1.421875 
Q 22.3125 -1.421875 17.546875 -0.640625 
Q 12.796875 0.140625 7.71875 1.703125 
L 7.71875 11.625 
Q 12.109375 9.234375 16.796875 8.0625 
Q 21.484375 6.890625 26.703125 6.890625 
Q 35.15625 6.890625 40.078125 11.328125 
Q 45.015625 15.765625 45.015625 23.390625 
Q 45.015625 31 40.078125 35.4375 
Q 35.15625 39.890625 26.703125 39.890625 
Q 22.75 39.890625 18.8125 39.015625 
Q 14.890625 38.140625 10.796875 36.28125 
z
" id="DejaVuSans-35"/>
     <path d="M 8.203125 72.90625 
L 55.078125 72.90625 
L 55.078125 68.703125 
L 28.609375 0 
L 18.3125 0 
L 43.21875 64.59375 
L 8.203125 64.59375 
z
" id="DejaVuSans-37"/>
     <path d="M 10.984375 1.515625 
L 10.984375 10.5 
Q 14.703125 8.734375 18.5 7.8125 
Q 22.3125 6.890625 25.984375 6.890625 
Q 35.75 6.890625 40.890625 13.453125 
Q 46.046875 20.015625 46.78125 33.40625 
Q 43.953125 29.203125 39.59375 26.953125 
Q 35.25 24.703125 29.984375 24.703125 
Q 19.046875 24.703125 12.671875 31.3125 
Q 6.296875 37.9375 6.296875 49.421875 
Q 6.296875 60.640625 12.9375 67.421875 
Q 19.578125 74.21875 30.609375 74.21875 
Q 43.265625 74.21875 49.921875 64.515625 
Q 56.59375 54.828125 56.59375 36.375 
Q 56.59375 19.140625 48.40625 8.859375 
Q 40.234375 -1.421875 26.421875 -1.421875 
Q 22.703125 -1.421875 18.890625 -0.6875 
Q 15.09375 0.046875 10.984375 1.515625 
z
M 30.609375 32.421875 
Q 37.25 32.421875 41.125 36.953125 
Q 45.015625 41.5 45.015625 49.421875 
Q 45.015625 57.28125 41.125 61.84375 
Q 37.25 66.40625 30.609375 66.40625 
Q 23.96875 66.40625 20.09375 61.84375 
Q 16.21875 57.28125 16.21875 49.421875 
Q 16.21875 41.5 20.09375 36.953125 
Q 23.96875 32.421875 30.609375 32.421875 
z
" id="DejaVuSans-39"/>
    </defs>
    <g transform="translate(-71.476875 35.472)scale(0.144 -0.144)">
     <use xlink:href="#DejaVuSans-6b"/>
     <use x="57.863281" xlink:href="#DejaVuSans-65"/>
     <use x="119.386719" xlink:href="#DejaVuSans-72"/>
     <use x="160.484375" xlink:href="#DejaVuSans-6e"/>
     <use x="223.863281" xlink:href="#DejaVuSans-65"/>
     <use x="285.386719" xlink:href="#DejaVuSans-6c"/>
     <use x="313.169922" xlink:href="#DejaVuSans-20"/>
     <use x="344.957031" xlink:href="#DejaVuSans-64"/>
     <use x="408.433594" xlink:href="#DejaVuSans-65"/>
     <use x="469.957031" xlink:href="#DejaVuSans-6e"/>
     <use x="533.335938" xlink:href="#DejaVuSans-73"/>
     <use x="585.435547" xlink:href="#DejaVuSans-69"/>
     <use x="613.21875" xlink:href="#DejaVuSans-74"/>
     <use x="652.427734" xlink:href="#DejaVuSans-79"/>
     <use x="711.607422" xlink:href="#DejaVuSans-20"/>
     <use x="743.394531" xlink:href="#DejaVuSans-65"/>
     <use x="804.917969" xlink:href="#DejaVuSans-73"/>
     <use x="857.017578" xlink:href="#DejaVuSans-74"/>
     <use x="896.226562" xlink:href="#DejaVuSans-69"/>
     <use x="924.009766" xlink:href="#DejaVuSans-6d"/>
     <use x="1021.421875" xlink:href="#DejaVuSans-61"/>
     <use x="1082.701172" xlink:href="#DejaVuSans-74"/>
     <use x="1121.910156" xlink:href="#DejaVuSans-69"/>
     <use x="1149.693359" xlink:href="#DejaVuSans-6f"/>
     <use x="1210.875" xlink:href="#DejaVuSans-6e"/>
     <use x="1274.253906" xlink:href="#DejaVuSans-28"/>
     <use x="1313.267578" xlink:href="#DejaVuSans-47"/>
     <use x="1390.757812" xlink:href="#DejaVuSans-61"/>
     <use x="1452.037109" xlink:href="#DejaVuSans-75"/>
     <use x="1515.416016" xlink:href="#DejaVuSans-73"/>
     <use x="1567.515625" xlink:href="#DejaVuSans-73"/>
     <use x="1619.615234" xlink:href="#DejaVuSans-69"/>
     <use x="1647.398438" xlink:href="#DejaVuSans-61"/>
     <use x="1708.677734" xlink:href="#DejaVuSans-6e"/>
     <use x="1772.056641" xlink:href="#DejaVuSans-29"/>
     <use x="1811.070312" xlink:href="#DejaVuSans-3a"/>
     <use x="1844.761719" xlink:href="#DejaVuSans-62"/>
     <use x="1908.238281" xlink:href="#DejaVuSans-34"/>
     <use x="1971.861328" xlink:href="#DejaVuSans-33"/>
     <use x="2035.484375" xlink:href="#DejaVuSans-31"/>
     <use x="2099.107422" xlink:href="#DejaVuSans-34"/>
     <use x="2162.730469" xlink:href="#DejaVuSans-3b"/>
     <use x="2196.421875" xlink:href="#DejaVuSans-62"/>
     <use x="2259.898438" xlink:href="#DejaVuSans-34"/>
     <use x="2323.521484" xlink:href="#DejaVuSans-33"/>
     <use x="2387.144531" xlink:href="#DejaVuSans-31"/>
     <use x="2450.767578" xlink:href="#DejaVuSans-35"/>
     <use x="2514.390625" xlink:href="#DejaVuSans-3b"/>
     <use x="2548.082031" xlink:href="#DejaVuSans-62"/>
     <use x="2611.558594" xlink:href="#DejaVuSans-34"/>
     <use x="2675.181641" xlink:href="#DejaVuSans-33"/>
     <use x="2738.804688" xlink:href="#DejaVuSans-31"/>
     <use x="2802.427734" xlink:href="#DejaVuSans-36"/>
     <use x="2866.050781" xlink:href="#DejaVuSans-3b"/>
     <use x="2899.742188" xlink:href="#DejaVuSans-62"/>
     <use x="2963.21875" xlink:href="#DejaVuSans-34"/>
     <use x="3026.841797" xlink:href="#DejaVuSans-33"/>
     <use x="3090.464844" xlink:href="#DejaVuSans-31"/>
     <use x="3154.087891" xlink:href="#DejaVuSans-37"/>
     <use x="3217.710938" xlink:href="#DejaVuSans-3b"/>
     <use x="3251.402344" xlink:href="#DejaVuSans-62"/>
     <use x="3314.878906" xlink:href="#DejaVuSans-34"/>
     <use x="3378.501953" xlink:href="#DejaVuSans-33"/>
     <use x="3442.125" xlink:href="#DejaVuSans-31"/>
     <use x="3505.748047" xlink:href="#DejaVuSans-38"/>
     <use x="3569.371094" xlink:href="#DejaVuSans-3b"/>
     <use x="3603.0625" xlink:href="#DejaVuSans-62"/>
     <use x="3666.539062" xlink:href="#DejaVuSans-34"/>
     <use x="3730.162109" xlink:href="#DejaVuSans-33"/>
     <use x="3793.785156" xlink:href="#DejaVuSans-31"/>
     <use x="3857.408203" xlink:href="#DejaVuSans-39"/>
     <use x="3921.03125" xlink:href="#DejaVuSans-3b"/>
     <use x="3954.722656" xlink:href="#DejaVuSans-62"/>
     <use x="4018.199219" xlink:href="#DejaVuSans-34"/>
     <use x="4081.822266" xlink:href="#DejaVuSans-33"/>
     <use x="4145.445312" xlink:href="#DejaVuSans-32"/>
     <use x="4209.068359" xlink:href="#DejaVuSans-30"/>
    </g>
   </g>
   <g id="legend_1">
    <g id="patch_7">
     <path d="M 343.921563 152.218875 
L 407.72 152.218875 
Q 409.72 152.218875 409.72 150.218875 
L 409.72 48.472 
Q 409.72 46.472 407.72 46.472 
L 343.921563 46.472 
Q 341.921563 46.472 341.921563 48.472 
L 341.921563 150.218875 
Q 341.921563 152.218875 343.921563 152.218875 
z
" style="fill:#e5e5e5;opacity:0.8;stroke:#cccccc;stroke-linejoin:miter;stroke-width:0.5;"/>
    </g>
    <g id="line2d_30">
     <path d="M 345.921563 54.570438 
L 365.921563 54.570438 
" style="fill:none;stroke:#e24a33;stroke-linecap:square;stroke-width:0.3;"/>
    </g>
    <g id="line2d_31"/>
    <g id="text_15">
     <!-- b4314 -->
     <g transform="translate(373.921563 58.070438)scale(0.1 -0.1)">
      <use xlink:href="#DejaVuSans-62"/>
      <use x="63.476562" xlink:href="#DejaVuSans-34"/>
      <use x="127.099609" xlink:href="#DejaVuSans-33"/>
      <use x="190.722656" xlink:href="#DejaVuSans-31"/>
      <use x="254.345703" xlink:href="#DejaVuSans-34"/>
     </g>
    </g>
    <g id="line2d_32">
     <path d="M 345.921563 69.248563 
L 365.921563 69.248563 
" style="fill:none;stroke:#348abd;stroke-linecap:square;stroke-width:0.3;"/>
    </g>
    <g id="line2d_33"/>
    <g id="text_16">
     <!-- b4315 -->
     <g transform="translate(373.921563 72.748563)scale(0.1 -0.1)">
      <use xlink:href="#DejaVuSans-62"/>
      <use x="63.476562" xlink:href="#DejaVuSans-34"/>
      <use x="127.099609" xlink:href="#DejaVuSans-33"/>
      <use x="190.722656" xlink:href="#DejaVuSans-31"/>
      <use x="254.345703" xlink:href="#DejaVuSans-35"/>
     </g>
    </g>
    <g id="line2d_34">
     <path d="M 345.921563 83.926688 
L 365.921563 83.926688 
" style="fill:none;stroke:#988ed5;stroke-linecap:square;stroke-width:0.3;"/>
    </g>
    <g id="line2d_35"/>
    <g id="text_17">
     <!-- b4316 -->
     <g transform="translate(373.921563 87.426688)scale(0.1 -0.1)">
      <use xlink:href="#DejaVuSans-62"/>
      <use x="63.476562" xlink:href="#DejaVuSans-34"/>
      <use x="127.099609" xlink:href="#DejaVuSans-33"/>
      <use x="190.722656" xlink:href="#DejaVuSans-31"/>
      <use x="254.345703" xlink:href="#DejaVuSans-36"/>
     </g>
    </g>
    <g id="line2d_36">
     <path d="M 345.921563 98.604813 
L 365.921563 98.604813 
" style="fill:none;stroke:#777777;stroke-linecap:square;stroke-width:0.3;"/>
    </g>
    <g id="line2d_37"/>
    <g id="text_18">
     <!-- b4317 -->
     <g transform="translate(373.921563 102.104813)scale(0.1 -0.1)">
      <use xlink:href="#DejaVuSans-62"/>
      <use x="63.476562" xlink:href="#DejaVuSans-34"/>
      <use x="127.099609" xlink:href="#DejaVuSans-33"/>
      <use x="190.722656" xlink:href="#DejaVuSans-31"/>
      <use x="254.345703" xlink:href="#DejaVuSans-37"/>
     </g>
    </g>
    <g id="line2d_38">
     <path d="M 345.921563 113.282938 
L 365.921563 113.282938 
" style="fill:none;stroke:#fbc15e;stroke-linecap:square;stroke-width:0.3;"/>
    </g>
    <g id="line2d_39"/>
    <g id="text_19">
     <!-- b4318 -->
     <g transform="translate(373.921563 116.782938)scale(0.1 -0.1)">
      <use xlink:href="#DejaVuSans-62"/>
      <use x="63.476562" xlink:href="#DejaVuSans-34"/>
      <use x="127.099609" xlink:href="#DejaVuSans-33"/>
      <use x="190.722656" xlink:href="#DejaVuSans-31"/>
      <use x="254.345703" xlink:href="#DejaVuSans-38"/>
     </g>
    </g>
    <g id="line2d_40">
     <path d="M 345.921563 127.961063 
L 365.921563 127.961063 
" style="fill:none;stroke:#8eba42;stroke-linecap:square;stroke-width:0.3;"/>
    </g>
    <g id="line2d_41"/>
    <g id="text_20">
     <!-- b4319 -->
     <g transform="translate(373.921563 131.461063)scale(0.1 -0.1)">
      <use xlink:href="#DejaVuSans-62"/>
      <use x="63.476562" xlink:href="#DejaVuSans-34"/>
      <use x="127.099609" xlink:href="#DejaVuSans-33"/>
      <use x="190.722656" xlink:href="#DejaVuSans-31"/>
      <use x="254.345703" xlink:href="#DejaVuSans-39"/>
     </g>
    </g>
    <g id="line2d_42">
     <path d="M 345.921563 142.639188 
L 365.921563 142.639188 
" style="fill:none;stroke:#ffb5b8;stroke-linecap:square;stroke-width:0.3;"/>
    </g>
    <g id="line2d_43"/>
    <g id="text_21">
     <!-- b4320 -->
     <g transform="translate(373.921563 146.139188)scale(0.1 -0.1)">
      <use xlink:href="#DejaVuSans-62"/>
      <use x="63.476562" xlink:href="#DejaVuSans-34"/>
      <use x="127.099609" xlink:href="#DejaVuSans-33"/>
      <use x="190.722656" xlink:href="#DejaVuSans-32"/>
      <use x="254.345703" xlink:href="#DejaVuSans-30"/>
     </g>
    </g>
   </g>
  </g>
 </g>
 <defs>
  <clipPath id="p8fc3ffd64a">
   <rect height="266.112" width="357.12" x="57.6" y="41.472"/>
  </clipPath>
 </defs>
</svg>
