<?xml version="1.0" encoding="utf-8" standalone="no"?>
<!DOCTYPE svg PUBLIC "-//W3C//DTD SVG 1.1//EN"
  "http://www.w3.org/Graphics/SVG/1.1/DTD/svg11.dtd">
<!-- Created with matplotlib (http://matplotlib.org/) -->
<svg height="345pt" version="1.1" viewBox="0 0 460 345" width="460pt" xmlns="http://www.w3.org/2000/svg" xmlns:xlink="http://www.w3.org/1999/xlink">
 <defs>
  <style type="text/css">
*{stroke-linecap:butt;stroke-linejoin:round;}
  </style>
 </defs>
 <g id="figure_1">
  <g id="patch_1">
   <path d="M 0 345.6 
L 460.8 345.6 
L 460.8 0 
L 0 0 
z
" style="fill:#ffffff;"/>
  </g>
  <g id="axes_1">
   <g id="patch_2">
    <path d="M 57.6 307.584 
L 414.72 307.584 
L 414.72 41.472 
L 57.6 41.472 
z
" style="fill:#e5e5e5;"/>
   </g>
   <g id="matplotlib.axis_1">
    <g id="xtick_1">
     <g id="line2d_1">
      <path clip-path="url(#p2265828a2c)" d="M 101.05807 307.584 
L 101.05807 41.472 
" style="fill:none;stroke:#ffffff;stroke-linecap:square;stroke-width:0.8;"/>
     </g>
     <g id="line2d_2">
      <defs>
       <path d="M 0 0 
L 0 3.5 
" id="m5f820bd52b" style="stroke:#555555;stroke-width:0.8;"/>
      </defs>
      <g>
       <use style="fill:#555555;stroke:#555555;stroke-width:0.8;" x="101.05807" xlink:href="#m5f820bd52b" y="307.584"/>
      </g>
     </g>
     <g id="text_1">
      <!-- 0 -->
      <defs>
       <path d="M 31.78125 66.40625 
Q 24.171875 66.40625 20.328125 58.90625 
Q 16.5 51.421875 16.5 36.375 
Q 16.5 21.390625 20.328125 13.890625 
Q 24.171875 6.390625 31.78125 6.390625 
Q 39.453125 6.390625 43.28125 13.890625 
Q 47.125 21.390625 47.125 36.375 
Q 47.125 51.421875 43.28125 58.90625 
Q 39.453125 66.40625 31.78125 66.40625 
z
M 31.78125 74.21875 
Q 44.046875 74.21875 50.515625 64.515625 
Q 56.984375 54.828125 56.984375 36.375 
Q 56.984375 17.96875 50.515625 8.265625 
Q 44.046875 -1.421875 31.78125 -1.421875 
Q 19.53125 -1.421875 13.0625 8.265625 
Q 6.59375 17.96875 6.59375 36.375 
Q 6.59375 54.828125 13.0625 64.515625 
Q 19.53125 74.21875 31.78125 74.21875 
z
" id="DejaVuSans-30"/>
      </defs>
      <g style="fill:#555555;" transform="translate(97.87682 322.182437)scale(0.1 -0.1)">
       <use xlink:href="#DejaVuSans-30"/>
      </g>
     </g>
    </g>
    <g id="xtick_2">
     <g id="line2d_3">
      <path clip-path="url(#p2265828a2c)" d="M 165.638343 307.584 
L 165.638343 41.472 
" style="fill:none;stroke:#ffffff;stroke-linecap:square;stroke-width:0.8;"/>
     </g>
     <g id="line2d_4">
      <g>
       <use style="fill:#555555;stroke:#555555;stroke-width:0.8;" x="165.638343" xlink:href="#m5f820bd52b" y="307.584"/>
      </g>
     </g>
     <g id="text_2">
      <!-- 2000 -->
      <defs>
       <path d="M 19.1875 8.296875 
L 53.609375 8.296875 
L 53.609375 0 
L 7.328125 0 
L 7.328125 8.296875 
Q 12.9375 14.109375 22.625 23.890625 
Q 32.328125 33.6875 34.8125 36.53125 
Q 39.546875 41.84375 41.421875 45.53125 
Q 43.3125 49.21875 43.3125 52.78125 
Q 43.3125 58.59375 39.234375 62.25 
Q 35.15625 65.921875 28.609375 65.921875 
Q 23.96875 65.921875 18.8125 64.3125 
Q 13.671875 62.703125 7.8125 59.421875 
L 7.8125 69.390625 
Q 13.765625 71.78125 18.9375 73 
Q 24.125 74.21875 28.421875 74.21875 
Q 39.75 74.21875 46.484375 68.546875 
Q 53.21875 62.890625 53.21875 53.421875 
Q 53.21875 48.921875 51.53125 44.890625 
Q 49.859375 40.875 45.40625 35.40625 
Q 44.1875 33.984375 37.640625 27.21875 
Q 31.109375 20.453125 19.1875 8.296875 
z
" id="DejaVuSans-32"/>
      </defs>
      <g style="fill:#555555;" transform="translate(152.913343 322.182437)scale(0.1 -0.1)">
       <use xlink:href="#DejaVuSans-32"/>
       <use x="63.623047" xlink:href="#DejaVuSans-30"/>
       <use x="127.246094" xlink:href="#DejaVuSans-30"/>
       <use x="190.869141" xlink:href="#DejaVuSans-30"/>
      </g>
     </g>
    </g>
    <g id="xtick_3">
     <g id="line2d_5">
      <path clip-path="url(#p2265828a2c)" d="M 230.218615 307.584 
L 230.218615 41.472 
" style="fill:none;stroke:#ffffff;stroke-linecap:square;stroke-width:0.8;"/>
     </g>
     <g id="line2d_6">
      <g>
       <use style="fill:#555555;stroke:#555555;stroke-width:0.8;" x="230.218615" xlink:href="#m5f820bd52b" y="307.584"/>
      </g>
     </g>
     <g id="text_3">
      <!-- 4000 -->
      <defs>
       <path d="M 37.796875 64.3125 
L 12.890625 25.390625 
L 37.796875 25.390625 
z
M 35.203125 72.90625 
L 47.609375 72.90625 
L 47.609375 25.390625 
L 58.015625 25.390625 
L 58.015625 17.1875 
L 47.609375 17.1875 
L 47.609375 0 
L 37.796875 0 
L 37.796875 17.1875 
L 4.890625 17.1875 
L 4.890625 26.703125 
z
" id="DejaVuSans-34"/>
      </defs>
      <g style="fill:#555555;" transform="translate(217.493615 322.182437)scale(0.1 -0.1)">
       <use xlink:href="#DejaVuSans-34"/>
       <use x="63.623047" xlink:href="#DejaVuSans-30"/>
       <use x="127.246094" xlink:href="#DejaVuSans-30"/>
       <use x="190.869141" xlink:href="#DejaVuSans-30"/>
      </g>
     </g>
    </g>
    <g id="xtick_4">
     <g id="line2d_7">
      <path clip-path="url(#p2265828a2c)" d="M 294.798887 307.584 
L 294.798887 41.472 
" style="fill:none;stroke:#ffffff;stroke-linecap:square;stroke-width:0.8;"/>
     </g>
     <g id="line2d_8">
      <g>
       <use style="fill:#555555;stroke:#555555;stroke-width:0.8;" x="294.798887" xlink:href="#m5f820bd52b" y="307.584"/>
      </g>
     </g>
     <g id="text_4">
      <!-- 6000 -->
      <defs>
       <path d="M 33.015625 40.375 
Q 26.375 40.375 22.484375 35.828125 
Q 18.609375 31.296875 18.609375 23.390625 
Q 18.609375 15.53125 22.484375 10.953125 
Q 26.375 6.390625 33.015625 6.390625 
Q 39.65625 6.390625 43.53125 10.953125 
Q 47.40625 15.53125 47.40625 23.390625 
Q 47.40625 31.296875 43.53125 35.828125 
Q 39.65625 40.375 33.015625 40.375 
z
M 52.59375 71.296875 
L 52.59375 62.3125 
Q 48.875 64.0625 45.09375 64.984375 
Q 41.3125 65.921875 37.59375 65.921875 
Q 27.828125 65.921875 22.671875 59.328125 
Q 17.53125 52.734375 16.796875 39.40625 
Q 19.671875 43.65625 24.015625 45.921875 
Q 28.375 48.1875 33.59375 48.1875 
Q 44.578125 48.1875 50.953125 41.515625 
Q 57.328125 34.859375 57.328125 23.390625 
Q 57.328125 12.15625 50.6875 5.359375 
Q 44.046875 -1.421875 33.015625 -1.421875 
Q 20.359375 -1.421875 13.671875 8.265625 
Q 6.984375 17.96875 6.984375 36.375 
Q 6.984375 53.65625 15.1875 63.9375 
Q 23.390625 74.21875 37.203125 74.21875 
Q 40.921875 74.21875 44.703125 73.484375 
Q 48.484375 72.75 52.59375 71.296875 
z
" id="DejaVuSans-36"/>
      </defs>
      <g style="fill:#555555;" transform="translate(282.073887 322.182437)scale(0.1 -0.1)">
       <use xlink:href="#DejaVuSans-36"/>
       <use x="63.623047" xlink:href="#DejaVuSans-30"/>
       <use x="127.246094" xlink:href="#DejaVuSans-30"/>
       <use x="190.869141" xlink:href="#DejaVuSans-30"/>
      </g>
     </g>
    </g>
    <g id="xtick_5">
     <g id="line2d_9">
      <path clip-path="url(#p2265828a2c)" d="M 359.37916 307.584 
L 359.37916 41.472 
" style="fill:none;stroke:#ffffff;stroke-linecap:square;stroke-width:0.8;"/>
     </g>
     <g id="line2d_10">
      <g>
       <use style="fill:#555555;stroke:#555555;stroke-width:0.8;" x="359.37916" xlink:href="#m5f820bd52b" y="307.584"/>
      </g>
     </g>
     <g id="text_5">
      <!-- 8000 -->
      <defs>
       <path d="M 31.78125 34.625 
Q 24.75 34.625 20.71875 30.859375 
Q 16.703125 27.09375 16.703125 20.515625 
Q 16.703125 13.921875 20.71875 10.15625 
Q 24.75 6.390625 31.78125 6.390625 
Q 38.8125 6.390625 42.859375 10.171875 
Q 46.921875 13.96875 46.921875 20.515625 
Q 46.921875 27.09375 42.890625 30.859375 
Q 38.875 34.625 31.78125 34.625 
z
M 21.921875 38.8125 
Q 15.578125 40.375 12.03125 44.71875 
Q 8.5 49.078125 8.5 55.328125 
Q 8.5 64.0625 14.71875 69.140625 
Q 20.953125 74.21875 31.78125 74.21875 
Q 42.671875 74.21875 48.875 69.140625 
Q 55.078125 64.0625 55.078125 55.328125 
Q 55.078125 49.078125 51.53125 44.71875 
Q 48 40.375 41.703125 38.8125 
Q 48.828125 37.15625 52.796875 32.3125 
Q 56.78125 27.484375 56.78125 20.515625 
Q 56.78125 9.90625 50.3125 4.234375 
Q 43.84375 -1.421875 31.78125 -1.421875 
Q 19.734375 -1.421875 13.25 4.234375 
Q 6.78125 9.90625 6.78125 20.515625 
Q 6.78125 27.484375 10.78125 32.3125 
Q 14.796875 37.15625 21.921875 38.8125 
z
M 18.3125 54.390625 
Q 18.3125 48.734375 21.84375 45.5625 
Q 25.390625 42.390625 31.78125 42.390625 
Q 38.140625 42.390625 41.71875 45.5625 
Q 45.3125 48.734375 45.3125 54.390625 
Q 45.3125 60.0625 41.71875 63.234375 
Q 38.140625 66.40625 31.78125 66.40625 
Q 25.390625 66.40625 21.84375 63.234375 
Q 18.3125 60.0625 18.3125 54.390625 
z
" id="DejaVuSans-38"/>
      </defs>
      <g style="fill:#555555;" transform="translate(346.65416 322.182437)scale(0.1 -0.1)">
       <use xlink:href="#DejaVuSans-38"/>
       <use x="63.623047" xlink:href="#DejaVuSans-30"/>
       <use x="127.246094" xlink:href="#DejaVuSans-30"/>
       <use x="190.869141" xlink:href="#DejaVuSans-30"/>
      </g>
     </g>
    </g>
    <g id="text_6">
     <!-- count -->
     <defs>
      <path d="M 48.78125 52.59375 
L 48.78125 44.1875 
Q 44.96875 46.296875 41.140625 47.34375 
Q 37.3125 48.390625 33.40625 48.390625 
Q 24.65625 48.390625 19.8125 42.84375 
Q 14.984375 37.3125 14.984375 27.296875 
Q 14.984375 17.28125 19.8125 11.734375 
Q 24.65625 6.203125 33.40625 6.203125 
Q 37.3125 6.203125 41.140625 7.25 
Q 44.96875 8.296875 48.78125 10.40625 
L 48.78125 2.09375 
Q 45.015625 0.34375 40.984375 -0.53125 
Q 36.96875 -1.421875 32.421875 -1.421875 
Q 20.0625 -1.421875 12.78125 6.34375 
Q 5.515625 14.109375 5.515625 27.296875 
Q 5.515625 40.671875 12.859375 48.328125 
Q 20.21875 56 33.015625 56 
Q 37.15625 56 41.109375 55.140625 
Q 45.0625 54.296875 48.78125 52.59375 
z
" id="DejaVuSans-63"/>
      <path d="M 30.609375 48.390625 
Q 23.390625 48.390625 19.1875 42.75 
Q 14.984375 37.109375 14.984375 27.296875 
Q 14.984375 17.484375 19.15625 11.84375 
Q 23.34375 6.203125 30.609375 6.203125 
Q 37.796875 6.203125 41.984375 11.859375 
Q 46.1875 17.53125 46.1875 27.296875 
Q 46.1875 37.015625 41.984375 42.703125 
Q 37.796875 48.390625 30.609375 48.390625 
z
M 30.609375 56 
Q 42.328125 56 49.015625 48.375 
Q 55.71875 40.765625 55.71875 27.296875 
Q 55.71875 13.875 49.015625 6.21875 
Q 42.328125 -1.421875 30.609375 -1.421875 
Q 18.84375 -1.421875 12.171875 6.21875 
Q 5.515625 13.875 5.515625 27.296875 
Q 5.515625 40.765625 12.171875 48.375 
Q 18.84375 56 30.609375 56 
z
" id="DejaVuSans-6f"/>
      <path d="M 8.5 21.578125 
L 8.5 54.6875 
L 17.484375 54.6875 
L 17.484375 21.921875 
Q 17.484375 14.15625 20.5 10.265625 
Q 23.53125 6.390625 29.59375 6.390625 
Q 36.859375 6.390625 41.078125 11.03125 
Q 45.3125 15.671875 45.3125 23.6875 
L 45.3125 54.6875 
L 54.296875 54.6875 
L 54.296875 0 
L 45.3125 0 
L 45.3125 8.40625 
Q 42.046875 3.421875 37.71875 1 
Q 33.40625 -1.421875 27.6875 -1.421875 
Q 18.265625 -1.421875 13.375 4.4375 
Q 8.5 10.296875 8.5 21.578125 
z
M 31.109375 56 
z
" id="DejaVuSans-75"/>
      <path d="M 54.890625 33.015625 
L 54.890625 0 
L 45.90625 0 
L 45.90625 32.71875 
Q 45.90625 40.484375 42.875 44.328125 
Q 39.84375 48.1875 33.796875 48.1875 
Q 26.515625 48.1875 22.3125 43.546875 
Q 18.109375 38.921875 18.109375 30.90625 
L 18.109375 0 
L 9.078125 0 
L 9.078125 54.6875 
L 18.109375 54.6875 
L 18.109375 46.1875 
Q 21.34375 51.125 25.703125 53.5625 
Q 30.078125 56 35.796875 56 
Q 45.21875 56 50.046875 50.171875 
Q 54.890625 44.34375 54.890625 33.015625 
z
" id="DejaVuSans-6e"/>
      <path d="M 18.3125 70.21875 
L 18.3125 54.6875 
L 36.8125 54.6875 
L 36.8125 47.703125 
L 18.3125 47.703125 
L 18.3125 18.015625 
Q 18.3125 11.328125 20.140625 9.421875 
Q 21.96875 7.515625 27.59375 7.515625 
L 36.8125 7.515625 
L 36.8125 0 
L 27.59375 0 
Q 17.1875 0 13.234375 3.875 
Q 9.28125 7.765625 9.28125 18.015625 
L 9.28125 47.703125 
L 2.6875 47.703125 
L 2.6875 54.6875 
L 9.28125 54.6875 
L 9.28125 70.21875 
z
" id="DejaVuSans-74"/>
     </defs>
     <g style="fill:#555555;" transform="translate(219.2325 337.38025)scale(0.12 -0.12)">
      <use xlink:href="#DejaVuSans-63"/>
      <use x="54.980469" xlink:href="#DejaVuSans-6f"/>
      <use x="116.162109" xlink:href="#DejaVuSans-75"/>
      <use x="179.541016" xlink:href="#DejaVuSans-6e"/>
      <use x="242.919922" xlink:href="#DejaVuSans-74"/>
     </g>
    </g>
   </g>
   <g id="matplotlib.axis_2">
    <g id="ytick_1">
     <g id="line2d_11">
      <path clip-path="url(#p2265828a2c)" d="M 57.6 307.584 
L 414.72 307.584 
" style="fill:none;stroke:#ffffff;stroke-linecap:square;stroke-width:0.8;"/>
     </g>
     <g id="line2d_12">
      <defs>
       <path d="M 0 0 
L -3.5 0 
" id="m0b9d7fbf94" style="stroke:#555555;stroke-width:0.8;"/>
      </defs>
      <g>
       <use style="fill:#555555;stroke:#555555;stroke-width:0.8;" x="57.6" xlink:href="#m0b9d7fbf94" y="307.584"/>
      </g>
     </g>
     <g id="text_7">
      <!-- 0.00000 -->
      <defs>
       <path d="M 10.6875 12.40625 
L 21 12.40625 
L 21 0 
L 10.6875 0 
z
" id="DejaVuSans-2e"/>
      </defs>
      <g style="fill:#555555;" transform="translate(9.246875 311.383219)scale(0.1 -0.1)">
       <use xlink:href="#DejaVuSans-30"/>
       <use x="63.623047" xlink:href="#DejaVuSans-2e"/>
       <use x="95.410156" xlink:href="#DejaVuSans-30"/>
       <use x="159.033203" xlink:href="#DejaVuSans-30"/>
       <use x="222.65625" xlink:href="#DejaVuSans-30"/>
       <use x="286.279297" xlink:href="#DejaVuSans-30"/>
       <use x="349.902344" xlink:href="#DejaVuSans-30"/>
      </g>
     </g>
    </g>
    <g id="ytick_2">
     <g id="line2d_13">
      <path clip-path="url(#p2265828a2c)" d="M 57.6 256.255023 
L 414.72 256.255023 
" style="fill:none;stroke:#ffffff;stroke-linecap:square;stroke-width:0.8;"/>
     </g>
     <g id="line2d_14">
      <g>
       <use style="fill:#555555;stroke:#555555;stroke-width:0.8;" x="57.6" xlink:href="#m0b9d7fbf94" y="256.255023"/>
      </g>
     </g>
     <g id="text_8">
      <!-- 0.00005 -->
      <defs>
       <path d="M 10.796875 72.90625 
L 49.515625 72.90625 
L 49.515625 64.59375 
L 19.828125 64.59375 
L 19.828125 46.734375 
Q 21.96875 47.46875 24.109375 47.828125 
Q 26.265625 48.1875 28.421875 48.1875 
Q 40.625 48.1875 47.75 41.5 
Q 54.890625 34.8125 54.890625 23.390625 
Q 54.890625 11.625 47.5625 5.09375 
Q 40.234375 -1.421875 26.90625 -1.421875 
Q 22.3125 -1.421875 17.546875 -0.640625 
Q 12.796875 0.140625 7.71875 1.703125 
L 7.71875 11.625 
Q 12.109375 9.234375 16.796875 8.0625 
Q 21.484375 6.890625 26.703125 6.890625 
Q 35.15625 6.890625 40.078125 11.328125 
Q 45.015625 15.765625 45.015625 23.390625 
Q 45.015625 31 40.078125 35.4375 
Q 35.15625 39.890625 26.703125 39.890625 
Q 22.75 39.890625 18.8125 39.015625 
Q 14.890625 38.140625 10.796875 36.28125 
z
" id="DejaVuSans-35"/>
      </defs>
      <g style="fill:#555555;" transform="translate(9.246875 260.054241)scale(0.1 -0.1)">
       <use xlink:href="#DejaVuSans-30"/>
       <use x="63.623047" xlink:href="#DejaVuSans-2e"/>
       <use x="95.410156" xlink:href="#DejaVuSans-30"/>
       <use x="159.033203" xlink:href="#DejaVuSans-30"/>
       <use x="222.65625" xlink:href="#DejaVuSans-30"/>
       <use x="286.279297" xlink:href="#DejaVuSans-30"/>
       <use x="349.902344" xlink:href="#DejaVuSans-35"/>
      </g>
     </g>
    </g>
    <g id="ytick_3">
     <g id="line2d_15">
      <path clip-path="url(#p2265828a2c)" d="M 57.6 204.926045 
L 414.72 204.926045 
" style="fill:none;stroke:#ffffff;stroke-linecap:square;stroke-width:0.8;"/>
     </g>
     <g id="line2d_16">
      <g>
       <use style="fill:#555555;stroke:#555555;stroke-width:0.8;" x="57.6" xlink:href="#m0b9d7fbf94" y="204.926045"/>
      </g>
     </g>
     <g id="text_9">
      <!-- 0.00010 -->
      <defs>
       <path d="M 12.40625 8.296875 
L 28.515625 8.296875 
L 28.515625 63.921875 
L 10.984375 60.40625 
L 10.984375 69.390625 
L 28.421875 72.90625 
L 38.28125 72.90625 
L 38.28125 8.296875 
L 54.390625 8.296875 
L 54.390625 0 
L 12.40625 0 
z
" id="DejaVuSans-31"/>
      </defs>
      <g style="fill:#555555;" transform="translate(9.246875 208.725264)scale(0.1 -0.1)">
       <use xlink:href="#DejaVuSans-30"/>
       <use x="63.623047" xlink:href="#DejaVuSans-2e"/>
       <use x="95.410156" xlink:href="#DejaVuSans-30"/>
       <use x="159.033203" xlink:href="#DejaVuSans-30"/>
       <use x="222.65625" xlink:href="#DejaVuSans-30"/>
       <use x="286.279297" xlink:href="#DejaVuSans-31"/>
       <use x="349.902344" xlink:href="#DejaVuSans-30"/>
      </g>
     </g>
    </g>
    <g id="ytick_4">
     <g id="line2d_17">
      <path clip-path="url(#p2265828a2c)" d="M 57.6 153.597068 
L 414.72 153.597068 
" style="fill:none;stroke:#ffffff;stroke-linecap:square;stroke-width:0.8;"/>
     </g>
     <g id="line2d_18">
      <g>
       <use style="fill:#555555;stroke:#555555;stroke-width:0.8;" x="57.6" xlink:href="#m0b9d7fbf94" y="153.597068"/>
      </g>
     </g>
     <g id="text_10">
      <!-- 0.00015 -->
      <g style="fill:#555555;" transform="translate(9.246875 157.396287)scale(0.1 -0.1)">
       <use xlink:href="#DejaVuSans-30"/>
       <use x="63.623047" xlink:href="#DejaVuSans-2e"/>
       <use x="95.410156" xlink:href="#DejaVuSans-30"/>
       <use x="159.033203" xlink:href="#DejaVuSans-30"/>
       <use x="222.65625" xlink:href="#DejaVuSans-30"/>
       <use x="286.279297" xlink:href="#DejaVuSans-31"/>
       <use x="349.902344" xlink:href="#DejaVuSans-35"/>
      </g>
     </g>
    </g>
    <g id="ytick_5">
     <g id="line2d_19">
      <path clip-path="url(#p2265828a2c)" d="M 57.6 102.26809 
L 414.72 102.26809 
" style="fill:none;stroke:#ffffff;stroke-linecap:square;stroke-width:0.8;"/>
     </g>
     <g id="line2d_20">
      <g>
       <use style="fill:#555555;stroke:#555555;stroke-width:0.8;" x="57.6" xlink:href="#m0b9d7fbf94" y="102.26809"/>
      </g>
     </g>
     <g id="text_11">
      <!-- 0.00020 -->
      <g style="fill:#555555;" transform="translate(9.246875 106.067309)scale(0.1 -0.1)">
       <use xlink:href="#DejaVuSans-30"/>
       <use x="63.623047" xlink:href="#DejaVuSans-2e"/>
       <use x="95.410156" xlink:href="#DejaVuSans-30"/>
       <use x="159.033203" xlink:href="#DejaVuSans-30"/>
       <use x="222.65625" xlink:href="#DejaVuSans-30"/>
       <use x="286.279297" xlink:href="#DejaVuSans-32"/>
       <use x="349.902344" xlink:href="#DejaVuSans-30"/>
      </g>
     </g>
    </g>
    <g id="ytick_6">
     <g id="line2d_21">
      <path clip-path="url(#p2265828a2c)" d="M 57.6 50.939113 
L 414.72 50.939113 
" style="fill:none;stroke:#ffffff;stroke-linecap:square;stroke-width:0.8;"/>
     </g>
     <g id="line2d_22">
      <g>
       <use style="fill:#555555;stroke:#555555;stroke-width:0.8;" x="57.6" xlink:href="#m0b9d7fbf94" y="50.939113"/>
      </g>
     </g>
     <g id="text_12">
      <!-- 0.00025 -->
      <g style="fill:#555555;" transform="translate(9.246875 54.738332)scale(0.1 -0.1)">
       <use xlink:href="#DejaVuSans-30"/>
       <use x="63.623047" xlink:href="#DejaVuSans-2e"/>
       <use x="95.410156" xlink:href="#DejaVuSans-30"/>
       <use x="159.033203" xlink:href="#DejaVuSans-30"/>
       <use x="222.65625" xlink:href="#DejaVuSans-30"/>
       <use x="286.279297" xlink:href="#DejaVuSans-32"/>
       <use x="349.902344" xlink:href="#DejaVuSans-35"/>
      </g>
     </g>
    </g>
    <g id="text_13">
     <!-- f(count) -->
     <defs>
      <path d="M 37.109375 75.984375 
L 37.109375 68.5 
L 28.515625 68.5 
Q 23.6875 68.5 21.796875 66.546875 
Q 19.921875 64.59375 19.921875 59.515625 
L 19.921875 54.6875 
L 34.71875 54.6875 
L 34.71875 47.703125 
L 19.921875 47.703125 
L 19.921875 0 
L 10.890625 0 
L 10.890625 47.703125 
L 2.296875 47.703125 
L 2.296875 54.6875 
L 10.890625 54.6875 
L 10.890625 58.5 
Q 10.890625 67.625 15.140625 71.796875 
Q 19.390625 75.984375 28.609375 75.984375 
z
" id="DejaVuSans-66"/>
      <path d="M 31 75.875 
Q 24.46875 64.65625 21.28125 53.65625 
Q 18.109375 42.671875 18.109375 31.390625 
Q 18.109375 20.125 21.3125 9.0625 
Q 24.515625 -2 31 -13.1875 
L 23.1875 -13.1875 
Q 15.875 -1.703125 12.234375 9.375 
Q 8.59375 20.453125 8.59375 31.390625 
Q 8.59375 42.28125 12.203125 53.3125 
Q 15.828125 64.359375 23.1875 75.875 
z
" id="DejaVuSans-28"/>
      <path d="M 8.015625 75.875 
L 15.828125 75.875 
Q 23.140625 64.359375 26.78125 53.3125 
Q 30.421875 42.28125 30.421875 31.390625 
Q 30.421875 20.453125 26.78125 9.375 
Q 23.140625 -1.703125 15.828125 -13.1875 
L 8.015625 -13.1875 
Q 14.5 -2 17.703125 9.0625 
Q 20.90625 20.125 20.90625 31.390625 
Q 20.90625 42.671875 17.703125 53.65625 
Q 14.5 64.65625 8.015625 75.875 
z
" id="DejaVuSans-29"/>
     </defs>
     <g style="fill:#555555;" transform="translate(2.75125 198.249562)rotate(-90)scale(0.12 -0.12)">
      <use xlink:href="#DejaVuSans-66"/>
      <use x="35.205078" xlink:href="#DejaVuSans-28"/>
      <use x="74.21875" xlink:href="#DejaVuSans-63"/>
      <use x="129.199219" xlink:href="#DejaVuSans-6f"/>
      <use x="190.380859" xlink:href="#DejaVuSans-75"/>
      <use x="253.759766" xlink:href="#DejaVuSans-6e"/>
      <use x="317.138672" xlink:href="#DejaVuSans-74"/>
      <use x="356.347656" xlink:href="#DejaVuSans-29"/>
     </g>
    </g>
   </g>
   <g id="PolyCollection_1">
    <path clip-path="url(#p2265828a2c)" d="M 76.562791 307.368154 
L 76.562791 307.584 
L 79.786977 307.584 
L 83.011163 307.584 
L 86.235349 307.584 
L 89.459535 307.584 
L 92.683721 307.584 
L 95.907907 307.584 
L 99.132093 307.584 
L 102.356279 307.584 
L 105.580466 307.584 
L 108.804652 307.584 
L 112.028838 307.584 
L 115.253024 307.584 
L 118.47721 307.584 
L 121.701396 307.584 
L 124.925582 307.584 
L 128.149768 307.584 
L 131.373954 307.584 
L 134.59814 307.584 
L 137.822326 307.584 
L 141.046512 307.584 
L 144.270698 307.584 
L 147.494884 307.584 
L 150.71907 307.584 
L 153.943256 307.584 
L 157.167442 307.584 
L 160.391628 307.584 
L 163.615814 307.584 
L 166.84 307.584 
L 170.064186 307.584 
L 173.288372 307.584 
L 176.512558 307.584 
L 179.736744 307.584 
L 182.96093 307.584 
L 186.185116 307.584 
L 189.409302 307.584 
L 192.633489 307.584 
L 195.857675 307.584 
L 199.081861 307.584 
L 202.306047 307.584 
L 205.530233 307.584 
L 208.754419 307.584 
L 211.978605 307.584 
L 215.202791 307.584 
L 218.426977 307.584 
L 221.651163 307.584 
L 224.875349 307.584 
L 228.099535 307.584 
L 231.323721 307.584 
L 234.547907 307.584 
L 237.772093 307.584 
L 240.996279 307.584 
L 244.220465 307.584 
L 247.444651 307.584 
L 250.668837 307.584 
L 253.893023 307.584 
L 257.117209 307.584 
L 260.341395 307.584 
L 263.565581 307.584 
L 266.789767 307.584 
L 270.013953 307.584 
L 273.238139 307.584 
L 276.462325 307.584 
L 279.686511 307.584 
L 282.910698 307.584 
L 286.134884 307.584 
L 289.35907 307.584 
L 292.583256 307.584 
L 295.807442 307.584 
L 299.031628 307.584 
L 302.255814 307.584 
L 305.48 307.584 
L 308.704186 307.584 
L 311.928372 307.584 
L 315.152558 307.584 
L 318.376744 307.584 
L 321.60093 307.584 
L 324.825116 307.584 
L 328.049302 307.584 
L 331.273488 307.584 
L 334.497674 307.584 
L 337.72186 307.584 
L 340.946046 307.584 
L 344.170232 307.584 
L 347.394418 307.584 
L 350.618604 307.584 
L 353.84279 307.584 
L 357.066976 307.584 
L 360.291162 307.584 
L 363.515348 307.584 
L 366.739534 307.584 
L 369.963721 307.584 
L 373.187907 307.584 
L 376.412093 307.584 
L 379.636279 307.584 
L 382.860465 307.584 
L 386.084651 307.584 
L 389.308837 307.584 
L 392.533023 307.584 
L 395.757209 307.584 
L 395.757209 307.42184 
L 395.757209 307.42184 
L 392.533023 307.271584 
L 389.308837 307.006543 
L 386.084651 306.5598 
L 382.860465 305.840495 
L 379.636279 304.734665 
L 376.412093 303.11229 
L 373.187907 300.842314 
L 369.963721 297.815673 
L 366.739534 293.973549 
L 363.515348 289.334898 
L 360.291162 284.014865 
L 357.066976 278.225542 
L 353.84279 272.253493 
L 350.618604 266.414653 
L 347.394418 260.994957 
L 344.170232 256.191819 
L 340.946046 252.074167 
L 337.72186 248.575347 
L 334.497674 245.523847 
L 331.273488 242.704311 
L 328.049302 239.930137 
L 324.825116 237.103715 
L 321.60093 234.243671 
L 318.376744 231.469764 
L 315.152558 228.951198 
L 311.928372 226.83739 
L 308.704186 225.196258 
L 305.48 223.981679 
L 302.255814 223.040386 
L 299.031628 222.153969 
L 295.807442 221.099669 
L 292.583256 219.708592 
L 289.35907 217.902969 
L 286.134884 215.703148 
L 282.910698 213.205891 
L 279.686511 210.544275 
L 276.462325 207.84335 
L 273.238139 205.184466 
L 270.013953 202.586176 
L 266.789767 200.003272 
L 263.565581 197.339684 
L 260.341395 194.467272 
L 257.117209 191.241589 
L 253.893023 187.507721 
L 250.668837 183.094308 
L 247.444651 177.800654 
L 244.220465 171.388571 
L 240.996279 163.594197 
L 237.772093 154.172445 
L 234.547907 142.976801 
L 231.323721 130.061484 
L 228.099535 115.776992 
L 224.875349 100.820981 
L 221.651163 86.210536 
L 218.426977 73.161075 
L 215.202791 62.88679 
L 211.978605 56.367405 
L 208.754419 54.144 
L 205.530233 56.203811 
L 202.306047 61.98937 
L 199.081861 70.52902 
L 195.857675 80.648052 
L 192.633489 91.196769 
L 189.409302 101.232059 
L 186.185116 110.111326 
L 182.96093 117.491938 
L 179.736744 123.261868 
L 176.512558 127.445974 
L 173.288372 130.132169 
L 170.064186 131.44495 
L 166.84 131.568683 
L 163.615814 130.799741 
L 160.391628 129.593481 
L 157.167442 128.573057 
L 153.943256 128.481194 
L 150.71907 130.077779 
L 147.494884 134.007413 
L 144.270698 140.673919 
L 141.046512 150.158433 
L 137.822326 162.204139 
L 134.59814 176.269483 
L 131.373954 191.631118 
L 128.149768 207.505626 
L 124.925582 223.158878 
L 121.701396 237.981975 
L 118.47721 251.527374 
L 115.253024 263.511441 
L 112.028838 273.796187 
L 108.804652 282.362644 
L 105.580466 289.283955 
L 102.356279 294.70108 
L 99.132093 298.800806 
L 95.907907 301.795049 
L 92.683721 303.901405 
L 89.459535 305.326166 
L 86.235349 306.251471 
L 83.011163 306.82777 
L 79.786977 307.171669 
L 76.562791 307.368154 
z
" style="fill:#e24a33;fill-opacity:0.25;"/>
   </g>
   <g id="PolyCollection_2">
    <path clip-path="url(#p2265828a2c)" d="M 73.832727 307.372257 
L 73.832727 307.584 
L 77.112066 307.584 
L 80.391405 307.584 
L 83.670744 307.584 
L 86.950083 307.584 
L 90.229421 307.584 
L 93.50876 307.584 
L 96.788099 307.584 
L 100.067438 307.584 
L 103.346777 307.584 
L 106.626116 307.584 
L 109.905455 307.584 
L 113.184793 307.584 
L 116.464132 307.584 
L 119.743471 307.584 
L 123.02281 307.584 
L 126.302149 307.584 
L 129.581488 307.584 
L 132.860826 307.584 
L 136.140165 307.584 
L 139.419504 307.584 
L 142.698843 307.584 
L 145.978182 307.584 
L 149.257521 307.584 
L 152.53686 307.584 
L 155.816198 307.584 
L 159.095537 307.584 
L 162.374876 307.584 
L 165.654215 307.584 
L 168.933554 307.584 
L 172.212893 307.584 
L 175.492231 307.584 
L 178.77157 307.584 
L 182.050909 307.584 
L 185.330248 307.584 
L 188.609587 307.584 
L 191.888926 307.584 
L 195.168264 307.584 
L 198.447603 307.584 
L 201.726942 307.584 
L 205.006281 307.584 
L 208.28562 307.584 
L 211.564959 307.584 
L 214.844298 307.584 
L 218.123636 307.584 
L 221.402975 307.584 
L 224.682314 307.584 
L 227.961653 307.584 
L 231.240992 307.584 
L 234.520331 307.584 
L 237.799669 307.584 
L 241.079008 307.584 
L 244.358347 307.584 
L 247.637686 307.584 
L 250.917025 307.584 
L 254.196364 307.584 
L 257.475702 307.584 
L 260.755041 307.584 
L 264.03438 307.584 
L 267.313719 307.584 
L 270.593058 307.584 
L 273.872397 307.584 
L 277.151736 307.584 
L 280.431074 307.584 
L 283.710413 307.584 
L 286.989752 307.584 
L 290.269091 307.584 
L 293.54843 307.584 
L 296.827769 307.584 
L 300.107107 307.584 
L 303.386446 307.584 
L 306.665785 307.584 
L 309.945124 307.584 
L 313.224463 307.584 
L 316.503802 307.584 
L 319.78314 307.584 
L 323.062479 307.584 
L 326.341818 307.584 
L 329.621157 307.584 
L 332.900496 307.584 
L 336.179835 307.584 
L 339.459174 307.584 
L 342.738512 307.584 
L 346.017851 307.584 
L 349.29719 307.584 
L 352.576529 307.584 
L 355.855868 307.584 
L 359.135207 307.584 
L 362.414545 307.584 
L 365.693884 307.584 
L 368.973223 307.584 
L 372.252562 307.584 
L 375.531901 307.584 
L 378.81124 307.584 
L 382.090579 307.584 
L 385.369917 307.584 
L 388.649256 307.584 
L 391.928595 307.584 
L 395.207934 307.584 
L 398.487273 307.584 
L 398.487273 307.423825 
L 398.487273 307.423825 
L 395.207934 307.283225 
L 391.928595 307.040432 
L 388.649256 306.638409 
L 385.369917 306.000299 
L 382.090579 305.029758 
L 378.81124 303.615865 
L 375.531901 301.64396 
L 372.252562 299.01267 
L 368.973223 295.655438 
L 365.693884 291.562683 
L 362.414545 286.798791 
L 359.135207 281.507625 
L 355.855868 275.901724 
L 352.576529 270.234117 
L 349.29719 264.756928 
L 346.017851 259.676053 
L 342.738512 255.114151 
L 339.459174 251.093392 
L 336.179835 247.544329 
L 332.900496 244.339316 
L 329.621157 241.340516 
L 326.341818 238.447106 
L 323.062479 235.626046 
L 319.78314 232.916242 
L 316.503802 230.405316 
L 313.224463 228.187982 
L 309.945124 226.321515 
L 306.665785 224.794392 
L 303.386446 223.518932 
L 300.107107 222.349694 
L 296.827769 221.120265 
L 293.54843 219.685241 
L 290.269091 217.953498 
L 286.989752 215.903039 
L 283.710413 213.574698 
L 280.431074 211.04891 
L 277.151736 208.414312 
L 273.872397 205.737967 
L 270.593058 203.044706 
L 267.313719 200.30885 
L 264.03438 197.456971 
L 260.755041 194.37697 
L 257.475702 190.927606 
L 254.196364 186.944076 
L 250.917025 182.238962 
L 247.637686 176.602645 
L 244.358347 169.811301 
L 241.079008 161.651619 
L 237.799669 151.967892 
L 234.520331 140.728921 
L 231.240992 128.101402 
L 227.961653 114.507115 
L 224.682314 100.637985 
L 221.402975 87.409341 
L 218.123636 75.847286 
L 214.844298 66.927014 
L 211.564959 61.397716 
L 208.28562 59.638864 
L 205.006281 61.587387 
L 201.726942 66.756179 
L 198.447603 74.33779 
L 195.168264 83.362603 
L 191.888926 92.867102 
L 188.609587 102.029711 
L 185.330248 110.247437 
L 182.050909 117.149408 
L 178.77157 122.564278 
L 175.492231 126.469895 
L 172.212893 128.952478 
L 168.933554 130.190871 
L 165.654215 130.464967 
L 162.374876 130.173212 
L 159.095537 129.837621 
L 155.816198 130.078186 
L 152.53686 131.550167 
L 149.257521 134.852763 
L 145.978182 140.430157 
L 142.698843 148.491079 
L 139.419504 158.968856 
L 136.140165 171.532274 
L 132.860826 185.642854 
L 129.581488 200.642 
L 126.302149 215.845765 
L 123.02281 230.626923 
L 119.743471 244.471564 
L 116.464132 257.006822 
L 113.184793 268.003945 
L 109.905455 277.364746 
L 106.626116 285.099473 
L 103.346777 291.301904 
L 100.067438 296.124796 
L 96.788099 299.756991 
L 93.50876 302.402798 
L 90.229421 304.264351 
L 86.950083 305.527801 
L 83.670744 306.354035 
L 80.391405 306.874133 
L 77.112066 307.189017 
L 73.832727 307.372257 
z
" style="fill:#348abd;fill-opacity:0.25;"/>
   </g>
   <g id="line2d_23">
    <path clip-path="url(#p2265828a2c)" d="M 76.562791 307.368154 
L 79.786977 307.171669 
L 83.011163 306.82777 
L 86.235349 306.251471 
L 89.459535 305.326166 
L 92.683721 303.901405 
L 95.907907 301.795049 
L 99.132093 298.800806 
L 102.356279 294.70108 
L 105.580466 289.283955 
L 108.804652 282.362644 
L 112.028838 273.796187 
L 115.253024 263.511441 
L 118.47721 251.527374 
L 121.701396 237.981975 
L 124.925582 223.158878 
L 128.149768 207.505626 
L 131.373954 191.631118 
L 134.59814 176.269483 
L 137.822326 162.204139 
L 141.046512 150.158433 
L 144.270698 140.673919 
L 147.494884 134.007413 
L 150.71907 130.077779 
L 153.943256 128.481194 
L 157.167442 128.573057 
L 160.391628 129.593481 
L 163.615814 130.799741 
L 166.84 131.568683 
L 170.064186 131.44495 
L 173.288372 130.132169 
L 176.512558 127.445974 
L 179.736744 123.261868 
L 182.96093 117.491938 
L 186.185116 110.111326 
L 189.409302 101.232059 
L 192.633489 91.196769 
L 195.857675 80.648052 
L 199.081861 70.52902 
L 202.306047 61.98937 
L 205.530233 56.203811 
L 208.754419 54.144 
L 211.978605 56.367405 
L 215.202791 62.88679 
L 218.426977 73.161075 
L 221.651163 86.210536 
L 224.875349 100.820981 
L 228.099535 115.776992 
L 231.323721 130.061484 
L 234.547907 142.976801 
L 237.772093 154.172445 
L 240.996279 163.594197 
L 244.220465 171.388571 
L 247.444651 177.800654 
L 250.668837 183.094308 
L 253.893023 187.507721 
L 257.117209 191.241589 
L 260.341395 194.467272 
L 263.565581 197.339684 
L 266.789767 200.003272 
L 270.013953 202.586176 
L 273.238139 205.184466 
L 276.462325 207.84335 
L 279.686511 210.544275 
L 282.910698 213.205891 
L 286.134884 215.703148 
L 289.35907 217.902969 
L 292.583256 219.708592 
L 295.807442 221.099669 
L 299.031628 222.153969 
L 302.255814 223.040386 
L 305.48 223.981679 
L 308.704186 225.196258 
L 311.928372 226.83739 
L 315.152558 228.951198 
L 318.376744 231.469764 
L 321.60093 234.243671 
L 324.825116 237.103715 
L 328.049302 239.930137 
L 331.273488 242.704311 
L 334.497674 245.523847 
L 337.72186 248.575347 
L 340.946046 252.074167 
L 344.170232 256.191819 
L 347.394418 260.994957 
L 350.618604 266.414653 
L 353.84279 272.253493 
L 357.066976 278.225542 
L 360.291162 284.014865 
L 363.515348 289.334898 
L 366.739534 293.973549 
L 369.963721 297.815673 
L 373.187907 300.842314 
L 376.412093 303.11229 
L 379.636279 304.734665 
L 382.860465 305.840495 
L 386.084651 306.5598 
L 389.308837 307.006543 
L 392.533023 307.271584 
L 395.757209 307.42184 
" style="fill:none;stroke:#e24a33;stroke-linecap:square;stroke-width:0.3;"/>
   </g>
   <g id="line2d_24">
    <path clip-path="url(#p2265828a2c)" d="M 73.832727 307.372257 
L 77.112066 307.189017 
L 80.391405 306.874133 
L 83.670744 306.354035 
L 86.950083 305.527801 
L 90.229421 304.264351 
L 93.50876 302.402798 
L 96.788099 299.756991 
L 100.067438 296.124796 
L 103.346777 291.301904 
L 106.626116 285.099473 
L 109.905455 277.364746 
L 113.184793 268.003945 
L 116.464132 257.006822 
L 119.743471 244.471564 
L 123.02281 230.626923 
L 126.302149 215.845765 
L 129.581488 200.642 
L 132.860826 185.642854 
L 136.140165 171.532274 
L 139.419504 158.968856 
L 142.698843 148.491079 
L 145.978182 140.430157 
L 149.257521 134.852763 
L 152.53686 131.550167 
L 155.816198 130.078186 
L 159.095537 129.837621 
L 162.374876 130.173212 
L 165.654215 130.464967 
L 168.933554 130.190871 
L 172.212893 128.952478 
L 175.492231 126.469895 
L 178.77157 122.564278 
L 182.050909 117.149408 
L 185.330248 110.247437 
L 188.609587 102.029711 
L 191.888926 92.867102 
L 195.168264 83.362603 
L 198.447603 74.33779 
L 201.726942 66.756179 
L 205.006281 61.587387 
L 208.28562 59.638864 
L 211.564959 61.397716 
L 214.844298 66.927014 
L 218.123636 75.847286 
L 221.402975 87.409341 
L 224.682314 100.637985 
L 227.961653 114.507115 
L 231.240992 128.101402 
L 234.520331 140.728921 
L 237.799669 151.967892 
L 241.079008 161.651619 
L 244.358347 169.811301 
L 247.637686 176.602645 
L 250.917025 182.238962 
L 254.196364 186.944076 
L 257.475702 190.927606 
L 260.755041 194.37697 
L 264.03438 197.456971 
L 267.313719 200.30885 
L 270.593058 203.044706 
L 273.872397 205.737967 
L 277.151736 208.414312 
L 280.431074 211.04891 
L 283.710413 213.574698 
L 286.989752 215.903039 
L 290.269091 217.953498 
L 293.54843 219.685241 
L 296.827769 221.120265 
L 300.107107 222.349694 
L 303.386446 223.518932 
L 306.665785 224.794392 
L 309.945124 226.321515 
L 313.224463 228.187982 
L 316.503802 230.405316 
L 319.78314 232.916242 
L 323.062479 235.626046 
L 326.341818 238.447106 
L 329.621157 241.340516 
L 332.900496 244.339316 
L 336.179835 247.544329 
L 339.459174 251.093392 
L 342.738512 255.114151 
L 346.017851 259.676053 
L 349.29719 264.756928 
L 352.576529 270.234117 
L 355.855868 275.901724 
L 359.135207 281.507625 
L 362.414545 286.798791 
L 365.693884 291.562683 
L 368.973223 295.655438 
L 372.252562 299.01267 
L 375.531901 301.64396 
L 378.81124 303.615865 
L 382.090579 305.029758 
L 385.369917 306.000299 
L 388.649256 306.638409 
L 391.928595 307.040432 
L 395.207934 307.283225 
L 398.487273 307.423825 
" style="fill:none;stroke:#348abd;stroke-linecap:square;stroke-width:0.3;"/>
   </g>
   <g id="patch_3">
    <path d="M 57.6 307.584 
L 57.6 41.472 
" style="fill:none;stroke:#ffffff;stroke-linecap:square;stroke-linejoin:miter;"/>
   </g>
   <g id="patch_4">
    <path d="M 414.72 307.584 
L 414.72 41.472 
" style="fill:none;stroke:#ffffff;stroke-linecap:square;stroke-linejoin:miter;"/>
   </g>
   <g id="patch_5">
    <path d="M 57.6 307.584 
L 414.72 307.584 
" style="fill:none;stroke:#ffffff;stroke-linecap:square;stroke-linejoin:miter;"/>
   </g>
   <g id="patch_6">
    <path d="M 57.6 41.472 
L 414.72 41.472 
" style="fill:none;stroke:#ffffff;stroke-linecap:square;stroke-linejoin:miter;"/>
   </g>
   <g id="text_14">
    <!-- kernel density estimation(Gaussian):b2309 -->
    <defs>
     <path d="M 9.078125 75.984375 
L 18.109375 75.984375 
L 18.109375 31.109375 
L 44.921875 54.6875 
L 56.390625 54.6875 
L 27.390625 29.109375 
L 57.625 0 
L 45.90625 0 
L 18.109375 26.703125 
L 18.109375 0 
L 9.078125 0 
z
" id="DejaVuSans-6b"/>
     <path d="M 56.203125 29.59375 
L 56.203125 25.203125 
L 14.890625 25.203125 
Q 15.484375 15.921875 20.484375 11.0625 
Q 25.484375 6.203125 34.421875 6.203125 
Q 39.59375 6.203125 44.453125 7.46875 
Q 49.3125 8.734375 54.109375 11.28125 
L 54.109375 2.78125 
Q 49.265625 0.734375 44.1875 -0.34375 
Q 39.109375 -1.421875 33.890625 -1.421875 
Q 20.796875 -1.421875 13.15625 6.1875 
Q 5.515625 13.8125 5.515625 26.8125 
Q 5.515625 40.234375 12.765625 48.109375 
Q 20.015625 56 32.328125 56 
Q 43.359375 56 49.78125 48.890625 
Q 56.203125 41.796875 56.203125 29.59375 
z
M 47.21875 32.234375 
Q 47.125 39.59375 43.09375 43.984375 
Q 39.0625 48.390625 32.421875 48.390625 
Q 24.90625 48.390625 20.390625 44.140625 
Q 15.875 39.890625 15.1875 32.171875 
z
" id="DejaVuSans-65"/>
     <path d="M 41.109375 46.296875 
Q 39.59375 47.171875 37.8125 47.578125 
Q 36.03125 48 33.890625 48 
Q 26.265625 48 22.1875 43.046875 
Q 18.109375 38.09375 18.109375 28.8125 
L 18.109375 0 
L 9.078125 0 
L 9.078125 54.6875 
L 18.109375 54.6875 
L 18.109375 46.1875 
Q 20.953125 51.171875 25.484375 53.578125 
Q 30.03125 56 36.53125 56 
Q 37.453125 56 38.578125 55.875 
Q 39.703125 55.765625 41.0625 55.515625 
z
" id="DejaVuSans-72"/>
     <path d="M 9.421875 75.984375 
L 18.40625 75.984375 
L 18.40625 0 
L 9.421875 0 
z
" id="DejaVuSans-6c"/>
     <path id="DejaVuSans-20"/>
     <path d="M 45.40625 46.390625 
L 45.40625 75.984375 
L 54.390625 75.984375 
L 54.390625 0 
L 45.40625 0 
L 45.40625 8.203125 
Q 42.578125 3.328125 38.25 0.953125 
Q 33.9375 -1.421875 27.875 -1.421875 
Q 17.96875 -1.421875 11.734375 6.484375 
Q 5.515625 14.40625 5.515625 27.296875 
Q 5.515625 40.1875 11.734375 48.09375 
Q 17.96875 56 27.875 56 
Q 33.9375 56 38.25 53.625 
Q 42.578125 51.265625 45.40625 46.390625 
z
M 14.796875 27.296875 
Q 14.796875 17.390625 18.875 11.75 
Q 22.953125 6.109375 30.078125 6.109375 
Q 37.203125 6.109375 41.296875 11.75 
Q 45.40625 17.390625 45.40625 27.296875 
Q 45.40625 37.203125 41.296875 42.84375 
Q 37.203125 48.484375 30.078125 48.484375 
Q 22.953125 48.484375 18.875 42.84375 
Q 14.796875 37.203125 14.796875 27.296875 
z
" id="DejaVuSans-64"/>
     <path d="M 44.28125 53.078125 
L 44.28125 44.578125 
Q 40.484375 46.53125 36.375 47.5 
Q 32.28125 48.484375 27.875 48.484375 
Q 21.1875 48.484375 17.84375 46.4375 
Q 14.5 44.390625 14.5 40.28125 
Q 14.5 37.15625 16.890625 35.375 
Q 19.28125 33.59375 26.515625 31.984375 
L 29.59375 31.296875 
Q 39.15625 29.25 43.1875 25.515625 
Q 47.21875 21.78125 47.21875 15.09375 
Q 47.21875 7.46875 41.1875 3.015625 
Q 35.15625 -1.421875 24.609375 -1.421875 
Q 20.21875 -1.421875 15.453125 -0.5625 
Q 10.6875 0.296875 5.421875 2 
L 5.421875 11.28125 
Q 10.40625 8.6875 15.234375 7.390625 
Q 20.0625 6.109375 24.8125 6.109375 
Q 31.15625 6.109375 34.5625 8.28125 
Q 37.984375 10.453125 37.984375 14.40625 
Q 37.984375 18.0625 35.515625 20.015625 
Q 33.0625 21.96875 24.703125 23.78125 
L 21.578125 24.515625 
Q 13.234375 26.265625 9.515625 29.90625 
Q 5.8125 33.546875 5.8125 39.890625 
Q 5.8125 47.609375 11.28125 51.796875 
Q 16.75 56 26.8125 56 
Q 31.78125 56 36.171875 55.265625 
Q 40.578125 54.546875 44.28125 53.078125 
z
" id="DejaVuSans-73"/>
     <path d="M 9.421875 54.6875 
L 18.40625 54.6875 
L 18.40625 0 
L 9.421875 0 
z
M 9.421875 75.984375 
L 18.40625 75.984375 
L 18.40625 64.59375 
L 9.421875 64.59375 
z
" id="DejaVuSans-69"/>
     <path d="M 32.171875 -5.078125 
Q 28.375 -14.84375 24.75 -17.8125 
Q 21.140625 -20.796875 15.09375 -20.796875 
L 7.90625 -20.796875 
L 7.90625 -13.28125 
L 13.1875 -13.28125 
Q 16.890625 -13.28125 18.9375 -11.515625 
Q 21 -9.765625 23.484375 -3.21875 
L 25.09375 0.875 
L 2.984375 54.6875 
L 12.5 54.6875 
L 29.59375 11.921875 
L 46.6875 54.6875 
L 56.203125 54.6875 
z
" id="DejaVuSans-79"/>
     <path d="M 52 44.1875 
Q 55.375 50.25 60.0625 53.125 
Q 64.75 56 71.09375 56 
Q 79.640625 56 84.28125 50.015625 
Q 88.921875 44.046875 88.921875 33.015625 
L 88.921875 0 
L 79.890625 0 
L 79.890625 32.71875 
Q 79.890625 40.578125 77.09375 44.375 
Q 74.3125 48.1875 68.609375 48.1875 
Q 61.625 48.1875 57.5625 43.546875 
Q 53.515625 38.921875 53.515625 30.90625 
L 53.515625 0 
L 44.484375 0 
L 44.484375 32.71875 
Q 44.484375 40.625 41.703125 44.40625 
Q 38.921875 48.1875 33.109375 48.1875 
Q 26.21875 48.1875 22.15625 43.53125 
Q 18.109375 38.875 18.109375 30.90625 
L 18.109375 0 
L 9.078125 0 
L 9.078125 54.6875 
L 18.109375 54.6875 
L 18.109375 46.1875 
Q 21.1875 51.21875 25.484375 53.609375 
Q 29.78125 56 35.6875 56 
Q 41.65625 56 45.828125 52.96875 
Q 50 49.953125 52 44.1875 
z
" id="DejaVuSans-6d"/>
     <path d="M 34.28125 27.484375 
Q 23.390625 27.484375 19.1875 25 
Q 14.984375 22.515625 14.984375 16.5 
Q 14.984375 11.71875 18.140625 8.90625 
Q 21.296875 6.109375 26.703125 6.109375 
Q 34.1875 6.109375 38.703125 11.40625 
Q 43.21875 16.703125 43.21875 25.484375 
L 43.21875 27.484375 
z
M 52.203125 31.203125 
L 52.203125 0 
L 43.21875 0 
L 43.21875 8.296875 
Q 40.140625 3.328125 35.546875 0.953125 
Q 30.953125 -1.421875 24.3125 -1.421875 
Q 15.921875 -1.421875 10.953125 3.296875 
Q 6 8.015625 6 15.921875 
Q 6 25.140625 12.171875 29.828125 
Q 18.359375 34.515625 30.609375 34.515625 
L 43.21875 34.515625 
L 43.21875 35.40625 
Q 43.21875 41.609375 39.140625 45 
Q 35.0625 48.390625 27.6875 48.390625 
Q 23 48.390625 18.546875 47.265625 
Q 14.109375 46.140625 10.015625 43.890625 
L 10.015625 52.203125 
Q 14.9375 54.109375 19.578125 55.046875 
Q 24.21875 56 28.609375 56 
Q 40.484375 56 46.34375 49.84375 
Q 52.203125 43.703125 52.203125 31.203125 
z
" id="DejaVuSans-61"/>
     <path d="M 59.515625 10.40625 
L 59.515625 29.984375 
L 43.40625 29.984375 
L 43.40625 38.09375 
L 69.28125 38.09375 
L 69.28125 6.78125 
Q 63.578125 2.734375 56.6875 0.65625 
Q 49.8125 -1.421875 42 -1.421875 
Q 24.90625 -1.421875 15.25 8.5625 
Q 5.609375 18.5625 5.609375 36.375 
Q 5.609375 54.25 15.25 64.234375 
Q 24.90625 74.21875 42 74.21875 
Q 49.125 74.21875 55.546875 72.453125 
Q 61.96875 70.703125 67.390625 67.28125 
L 67.390625 56.78125 
Q 61.921875 61.421875 55.765625 63.765625 
Q 49.609375 66.109375 42.828125 66.109375 
Q 29.4375 66.109375 22.71875 58.640625 
Q 16.015625 51.171875 16.015625 36.375 
Q 16.015625 21.625 22.71875 14.15625 
Q 29.4375 6.6875 42.828125 6.6875 
Q 48.046875 6.6875 52.140625 7.59375 
Q 56.25 8.5 59.515625 10.40625 
z
" id="DejaVuSans-47"/>
     <path d="M 11.71875 12.40625 
L 22.015625 12.40625 
L 22.015625 0 
L 11.71875 0 
z
M 11.71875 51.703125 
L 22.015625 51.703125 
L 22.015625 39.3125 
L 11.71875 39.3125 
z
" id="DejaVuSans-3a"/>
     <path d="M 48.6875 27.296875 
Q 48.6875 37.203125 44.609375 42.84375 
Q 40.53125 48.484375 33.40625 48.484375 
Q 26.265625 48.484375 22.1875 42.84375 
Q 18.109375 37.203125 18.109375 27.296875 
Q 18.109375 17.390625 22.1875 11.75 
Q 26.265625 6.109375 33.40625 6.109375 
Q 40.53125 6.109375 44.609375 11.75 
Q 48.6875 17.390625 48.6875 27.296875 
z
M 18.109375 46.390625 
Q 20.953125 51.265625 25.265625 53.625 
Q 29.59375 56 35.59375 56 
Q 45.5625 56 51.78125 48.09375 
Q 58.015625 40.1875 58.015625 27.296875 
Q 58.015625 14.40625 51.78125 6.484375 
Q 45.5625 -1.421875 35.59375 -1.421875 
Q 29.59375 -1.421875 25.265625 0.953125 
Q 20.953125 3.328125 18.109375 8.203125 
L 18.109375 0 
L 9.078125 0 
L 9.078125 75.984375 
L 18.109375 75.984375 
z
" id="DejaVuSans-62"/>
     <path d="M 40.578125 39.3125 
Q 47.65625 37.796875 51.625 33 
Q 55.609375 28.21875 55.609375 21.1875 
Q 55.609375 10.40625 48.1875 4.484375 
Q 40.765625 -1.421875 27.09375 -1.421875 
Q 22.515625 -1.421875 17.65625 -0.515625 
Q 12.796875 0.390625 7.625 2.203125 
L 7.625 11.71875 
Q 11.71875 9.328125 16.59375 8.109375 
Q 21.484375 6.890625 26.8125 6.890625 
Q 36.078125 6.890625 40.9375 10.546875 
Q 45.796875 14.203125 45.796875 21.1875 
Q 45.796875 27.640625 41.28125 31.265625 
Q 36.765625 34.90625 28.71875 34.90625 
L 20.21875 34.90625 
L 20.21875 43.015625 
L 29.109375 43.015625 
Q 36.375 43.015625 40.234375 45.921875 
Q 44.09375 48.828125 44.09375 54.296875 
Q 44.09375 59.90625 40.109375 62.90625 
Q 36.140625 65.921875 28.71875 65.921875 
Q 24.65625 65.921875 20.015625 65.03125 
Q 15.375 64.15625 9.8125 62.3125 
L 9.8125 71.09375 
Q 15.4375 72.65625 20.34375 73.4375 
Q 25.25 74.21875 29.59375 74.21875 
Q 40.828125 74.21875 47.359375 69.109375 
Q 53.90625 64.015625 53.90625 55.328125 
Q 53.90625 49.265625 50.4375 45.09375 
Q 46.96875 40.921875 40.578125 39.3125 
z
" id="DejaVuSans-33"/>
     <path d="M 10.984375 1.515625 
L 10.984375 10.5 
Q 14.703125 8.734375 18.5 7.8125 
Q 22.3125 6.890625 25.984375 6.890625 
Q 35.75 6.890625 40.890625 13.453125 
Q 46.046875 20.015625 46.78125 33.40625 
Q 43.953125 29.203125 39.59375 26.953125 
Q 35.25 24.703125 29.984375 24.703125 
Q 19.046875 24.703125 12.671875 31.3125 
Q 6.296875 37.9375 6.296875 49.421875 
Q 6.296875 60.640625 12.9375 67.421875 
Q 19.578125 74.21875 30.609375 74.21875 
Q 43.265625 74.21875 49.921875 64.515625 
Q 56.59375 54.828125 56.59375 36.375 
Q 56.59375 19.140625 48.40625 8.859375 
Q 40.234375 -1.421875 26.421875 -1.421875 
Q 22.703125 -1.421875 18.890625 -0.6875 
Q 15.09375 0.046875 10.984375 1.515625 
z
M 30.609375 32.421875 
Q 37.25 32.421875 41.125 36.953125 
Q 45.015625 41.5 45.015625 49.421875 
Q 45.015625 57.28125 41.125 61.84375 
Q 37.25 66.40625 30.609375 66.40625 
Q 23.96875 66.40625 20.09375 61.84375 
Q 16.21875 57.28125 16.21875 49.421875 
Q 16.21875 41.5 20.09375 36.953125 
Q 23.96875 32.421875 30.609375 32.421875 
z
" id="DejaVuSans-39"/>
    </defs>
    <g transform="translate(80.445375 35.472)scale(0.144 -0.144)">
     <use xlink:href="#DejaVuSans-6b"/>
     <use x="57.863281" xlink:href="#DejaVuSans-65"/>
     <use x="119.386719" xlink:href="#DejaVuSans-72"/>
     <use x="160.484375" xlink:href="#DejaVuSans-6e"/>
     <use x="223.863281" xlink:href="#DejaVuSans-65"/>
     <use x="285.386719" xlink:href="#DejaVuSans-6c"/>
     <use x="313.169922" xlink:href="#DejaVuSans-20"/>
     <use x="344.957031" xlink:href="#DejaVuSans-64"/>
     <use x="408.433594" xlink:href="#DejaVuSans-65"/>
     <use x="469.957031" xlink:href="#DejaVuSans-6e"/>
     <use x="533.335938" xlink:href="#DejaVuSans-73"/>
     <use x="585.435547" xlink:href="#DejaVuSans-69"/>
     <use x="613.21875" xlink:href="#DejaVuSans-74"/>
     <use x="652.427734" xlink:href="#DejaVuSans-79"/>
     <use x="711.607422" xlink:href="#DejaVuSans-20"/>
     <use x="743.394531" xlink:href="#DejaVuSans-65"/>
     <use x="804.917969" xlink:href="#DejaVuSans-73"/>
     <use x="857.017578" xlink:href="#DejaVuSans-74"/>
     <use x="896.226562" xlink:href="#DejaVuSans-69"/>
     <use x="924.009766" xlink:href="#DejaVuSans-6d"/>
     <use x="1021.421875" xlink:href="#DejaVuSans-61"/>
     <use x="1082.701172" xlink:href="#DejaVuSans-74"/>
     <use x="1121.910156" xlink:href="#DejaVuSans-69"/>
     <use x="1149.693359" xlink:href="#DejaVuSans-6f"/>
     <use x="1210.875" xlink:href="#DejaVuSans-6e"/>
     <use x="1274.253906" xlink:href="#DejaVuSans-28"/>
     <use x="1313.267578" xlink:href="#DejaVuSans-47"/>
     <use x="1390.757812" xlink:href="#DejaVuSans-61"/>
     <use x="1452.037109" xlink:href="#DejaVuSans-75"/>
     <use x="1515.416016" xlink:href="#DejaVuSans-73"/>
     <use x="1567.515625" xlink:href="#DejaVuSans-73"/>
     <use x="1619.615234" xlink:href="#DejaVuSans-69"/>
     <use x="1647.398438" xlink:href="#DejaVuSans-61"/>
     <use x="1708.677734" xlink:href="#DejaVuSans-6e"/>
     <use x="1772.056641" xlink:href="#DejaVuSans-29"/>
     <use x="1811.070312" xlink:href="#DejaVuSans-3a"/>
     <use x="1844.761719" xlink:href="#DejaVuSans-62"/>
     <use x="1908.238281" xlink:href="#DejaVuSans-32"/>
     <use x="1971.861328" xlink:href="#DejaVuSans-33"/>
     <use x="2035.484375" xlink:href="#DejaVuSans-30"/>
     <use x="2099.107422" xlink:href="#DejaVuSans-39"/>
    </g>
   </g>
   <g id="legend_1">
    <g id="patch_7">
     <path d="M 326.566875 78.82825 
L 407.72 78.82825 
Q 409.72 78.82825 409.72 76.82825 
L 409.72 48.472 
Q 409.72 46.472 407.72 46.472 
L 326.566875 46.472 
Q 324.566875 46.472 324.566875 48.472 
L 324.566875 76.82825 
Q 324.566875 78.82825 326.566875 78.82825 
z
" style="fill:#e5e5e5;opacity:0.8;stroke:#cccccc;stroke-linejoin:miter;stroke-width:0.5;"/>
    </g>
    <g id="line2d_25">
     <path d="M 328.566875 54.570437 
L 348.566875 54.570437 
" style="fill:none;stroke:#e24a33;stroke-linecap:square;stroke-width:0.3;"/>
    </g>
    <g id="line2d_26"/>
    <g id="text_15">
     <!-- scott -->
     <g transform="translate(356.566875 58.070437)scale(0.1 -0.1)">
      <use xlink:href="#DejaVuSans-73"/>
      <use x="52.099609" xlink:href="#DejaVuSans-63"/>
      <use x="107.080078" xlink:href="#DejaVuSans-6f"/>
      <use x="168.261719" xlink:href="#DejaVuSans-74"/>
      <use x="207.470703" xlink:href="#DejaVuSans-74"/>
     </g>
    </g>
    <g id="line2d_27">
     <path d="M 328.566875 69.248562 
L 348.566875 69.248562 
" style="fill:none;stroke:#348abd;stroke-linecap:square;stroke-width:0.3;"/>
    </g>
    <g id="line2d_28"/>
    <g id="text_16">
     <!-- silverman -->
     <defs>
      <path d="M 2.984375 54.6875 
L 12.5 54.6875 
L 29.59375 8.796875 
L 46.6875 54.6875 
L 56.203125 54.6875 
L 35.6875 0 
L 23.484375 0 
z
" id="DejaVuSans-76"/>
     </defs>
     <g transform="translate(356.566875 72.748562)scale(0.1 -0.1)">
      <use xlink:href="#DejaVuSans-73"/>
      <use x="52.099609" xlink:href="#DejaVuSans-69"/>
      <use x="79.882812" xlink:href="#DejaVuSans-6c"/>
      <use x="107.666016" xlink:href="#DejaVuSans-76"/>
      <use x="166.845703" xlink:href="#DejaVuSans-65"/>
      <use x="228.369141" xlink:href="#DejaVuSans-72"/>
      <use x="269.466797" xlink:href="#DejaVuSans-6d"/>
      <use x="366.878906" xlink:href="#DejaVuSans-61"/>
      <use x="428.158203" xlink:href="#DejaVuSans-6e"/>
     </g>
    </g>
   </g>
  </g>
 </g>
 <defs>
  <clipPath id="p2265828a2c">
   <rect height="266.112" width="357.12" x="57.6" y="41.472"/>
  </clipPath>
 </defs>
</svg>
