<?xml version="1.0" encoding="utf-8" standalone="no"?>
<!DOCTYPE svg PUBLIC "-//W3C//DTD SVG 1.1//EN"
  "http://www.w3.org/Graphics/SVG/1.1/DTD/svg11.dtd">
<!-- Created with matplotlib (http://matplotlib.org/) -->
<svg height="345pt" version="1.1" viewBox="0 0 460 345" width="460pt" xmlns="http://www.w3.org/2000/svg" xmlns:xlink="http://www.w3.org/1999/xlink">
 <defs>
  <style type="text/css">
*{stroke-linecap:butt;stroke-linejoin:round;}
  </style>
 </defs>
 <g id="figure_1">
  <g id="patch_1">
   <path d="M 0 345.6 
L 460.8 345.6 
L 460.8 0 
L 0 0 
z
" style="fill:#ffffff;"/>
  </g>
  <g id="axes_1">
   <g id="patch_2">
    <path d="M 57.6 307.584 
L 414.72 307.584 
L 414.72 41.472 
L 57.6 41.472 
z
" style="fill:#e5e5e5;"/>
   </g>
   <g id="matplotlib.axis_1">
    <g id="xtick_1">
     <g id="line2d_1">
      <path clip-path="url(#p28e9888eaf)" d="M 63.512617 307.584 
L 63.512617 41.472 
" style="fill:none;stroke:#ffffff;stroke-linecap:square;stroke-width:0.8;"/>
     </g>
     <g id="line2d_2">
      <defs>
       <path d="M 0 0 
L 0 3.5 
" id="me30e909b2a" style="stroke:#555555;stroke-width:0.8;"/>
      </defs>
      <g>
       <use style="fill:#555555;stroke:#555555;stroke-width:0.8;" x="63.512617" xlink:href="#me30e909b2a" y="307.584"/>
      </g>
     </g>
     <g id="text_1">
      <!-- −25 -->
      <defs>
       <path d="M 10.59375 35.5 
L 73.1875 35.5 
L 73.1875 27.203125 
L 10.59375 27.203125 
z
" id="DejaVuSans-2212"/>
       <path d="M 19.1875 8.296875 
L 53.609375 8.296875 
L 53.609375 0 
L 7.328125 0 
L 7.328125 8.296875 
Q 12.9375 14.109375 22.625 23.890625 
Q 32.328125 33.6875 34.8125 36.53125 
Q 39.546875 41.84375 41.421875 45.53125 
Q 43.3125 49.21875 43.3125 52.78125 
Q 43.3125 58.59375 39.234375 62.25 
Q 35.15625 65.921875 28.609375 65.921875 
Q 23.96875 65.921875 18.8125 64.3125 
Q 13.671875 62.703125 7.8125 59.421875 
L 7.8125 69.390625 
Q 13.765625 71.78125 18.9375 73 
Q 24.125 74.21875 28.421875 74.21875 
Q 39.75 74.21875 46.484375 68.546875 
Q 53.21875 62.890625 53.21875 53.421875 
Q 53.21875 48.921875 51.53125 44.890625 
Q 49.859375 40.875 45.40625 35.40625 
Q 44.1875 33.984375 37.640625 27.21875 
Q 31.109375 20.453125 19.1875 8.296875 
z
" id="DejaVuSans-32"/>
       <path d="M 10.796875 72.90625 
L 49.515625 72.90625 
L 49.515625 64.59375 
L 19.828125 64.59375 
L 19.828125 46.734375 
Q 21.96875 47.46875 24.109375 47.828125 
Q 26.265625 48.1875 28.421875 48.1875 
Q 40.625 48.1875 47.75 41.5 
Q 54.890625 34.8125 54.890625 23.390625 
Q 54.890625 11.625 47.5625 5.09375 
Q 40.234375 -1.421875 26.90625 -1.421875 
Q 22.3125 -1.421875 17.546875 -0.640625 
Q 12.796875 0.140625 7.71875 1.703125 
L 7.71875 11.625 
Q 12.109375 9.234375 16.796875 8.0625 
Q 21.484375 6.890625 26.703125 6.890625 
Q 35.15625 6.890625 40.078125 11.328125 
Q 45.015625 15.765625 45.015625 23.390625 
Q 45.015625 31 40.078125 35.4375 
Q 35.15625 39.890625 26.703125 39.890625 
Q 22.75 39.890625 18.8125 39.015625 
Q 14.890625 38.140625 10.796875 36.28125 
z
" id="DejaVuSans-35"/>
      </defs>
      <g style="fill:#555555;" transform="translate(52.960273 322.182437)scale(0.1 -0.1)">
       <use xlink:href="#DejaVuSans-2212"/>
       <use x="83.789062" xlink:href="#DejaVuSans-32"/>
       <use x="147.412109" xlink:href="#DejaVuSans-35"/>
      </g>
     </g>
    </g>
    <g id="xtick_2">
     <g id="line2d_3">
      <path clip-path="url(#p28e9888eaf)" d="M 104.040172 307.584 
L 104.040172 41.472 
" style="fill:none;stroke:#ffffff;stroke-linecap:square;stroke-width:0.8;"/>
     </g>
     <g id="line2d_4">
      <g>
       <use style="fill:#555555;stroke:#555555;stroke-width:0.8;" x="104.040172" xlink:href="#me30e909b2a" y="307.584"/>
      </g>
     </g>
     <g id="text_2">
      <!-- 0 -->
      <defs>
       <path d="M 31.78125 66.40625 
Q 24.171875 66.40625 20.328125 58.90625 
Q 16.5 51.421875 16.5 36.375 
Q 16.5 21.390625 20.328125 13.890625 
Q 24.171875 6.390625 31.78125 6.390625 
Q 39.453125 6.390625 43.28125 13.890625 
Q 47.125 21.390625 47.125 36.375 
Q 47.125 51.421875 43.28125 58.90625 
Q 39.453125 66.40625 31.78125 66.40625 
z
M 31.78125 74.21875 
Q 44.046875 74.21875 50.515625 64.515625 
Q 56.984375 54.828125 56.984375 36.375 
Q 56.984375 17.96875 50.515625 8.265625 
Q 44.046875 -1.421875 31.78125 -1.421875 
Q 19.53125 -1.421875 13.0625 8.265625 
Q 6.59375 17.96875 6.59375 36.375 
Q 6.59375 54.828125 13.0625 64.515625 
Q 19.53125 74.21875 31.78125 74.21875 
z
" id="DejaVuSans-30"/>
      </defs>
      <g style="fill:#555555;" transform="translate(100.858922 322.182437)scale(0.1 -0.1)">
       <use xlink:href="#DejaVuSans-30"/>
      </g>
     </g>
    </g>
    <g id="xtick_3">
     <g id="line2d_5">
      <path clip-path="url(#p28e9888eaf)" d="M 144.567726 307.584 
L 144.567726 41.472 
" style="fill:none;stroke:#ffffff;stroke-linecap:square;stroke-width:0.8;"/>
     </g>
     <g id="line2d_6">
      <g>
       <use style="fill:#555555;stroke:#555555;stroke-width:0.8;" x="144.567726" xlink:href="#me30e909b2a" y="307.584"/>
      </g>
     </g>
     <g id="text_3">
      <!-- 25 -->
      <g style="fill:#555555;" transform="translate(138.205226 322.182437)scale(0.1 -0.1)">
       <use xlink:href="#DejaVuSans-32"/>
       <use x="63.623047" xlink:href="#DejaVuSans-35"/>
      </g>
     </g>
    </g>
    <g id="xtick_4">
     <g id="line2d_7">
      <path clip-path="url(#p28e9888eaf)" d="M 185.095281 307.584 
L 185.095281 41.472 
" style="fill:none;stroke:#ffffff;stroke-linecap:square;stroke-width:0.8;"/>
     </g>
     <g id="line2d_8">
      <g>
       <use style="fill:#555555;stroke:#555555;stroke-width:0.8;" x="185.095281" xlink:href="#me30e909b2a" y="307.584"/>
      </g>
     </g>
     <g id="text_4">
      <!-- 50 -->
      <g style="fill:#555555;" transform="translate(178.732781 322.182437)scale(0.1 -0.1)">
       <use xlink:href="#DejaVuSans-35"/>
       <use x="63.623047" xlink:href="#DejaVuSans-30"/>
      </g>
     </g>
    </g>
    <g id="xtick_5">
     <g id="line2d_9">
      <path clip-path="url(#p28e9888eaf)" d="M 225.622836 307.584 
L 225.622836 41.472 
" style="fill:none;stroke:#ffffff;stroke-linecap:square;stroke-width:0.8;"/>
     </g>
     <g id="line2d_10">
      <g>
       <use style="fill:#555555;stroke:#555555;stroke-width:0.8;" x="225.622836" xlink:href="#me30e909b2a" y="307.584"/>
      </g>
     </g>
     <g id="text_5">
      <!-- 75 -->
      <defs>
       <path d="M 8.203125 72.90625 
L 55.078125 72.90625 
L 55.078125 68.703125 
L 28.609375 0 
L 18.3125 0 
L 43.21875 64.59375 
L 8.203125 64.59375 
z
" id="DejaVuSans-37"/>
      </defs>
      <g style="fill:#555555;" transform="translate(219.260336 322.182437)scale(0.1 -0.1)">
       <use xlink:href="#DejaVuSans-37"/>
       <use x="63.623047" xlink:href="#DejaVuSans-35"/>
      </g>
     </g>
    </g>
    <g id="xtick_6">
     <g id="line2d_11">
      <path clip-path="url(#p28e9888eaf)" d="M 266.150391 307.584 
L 266.150391 41.472 
" style="fill:none;stroke:#ffffff;stroke-linecap:square;stroke-width:0.8;"/>
     </g>
     <g id="line2d_12">
      <g>
       <use style="fill:#555555;stroke:#555555;stroke-width:0.8;" x="266.150391" xlink:href="#me30e909b2a" y="307.584"/>
      </g>
     </g>
     <g id="text_6">
      <!-- 100 -->
      <defs>
       <path d="M 12.40625 8.296875 
L 28.515625 8.296875 
L 28.515625 63.921875 
L 10.984375 60.40625 
L 10.984375 69.390625 
L 28.421875 72.90625 
L 38.28125 72.90625 
L 38.28125 8.296875 
L 54.390625 8.296875 
L 54.390625 0 
L 12.40625 0 
z
" id="DejaVuSans-31"/>
      </defs>
      <g style="fill:#555555;" transform="translate(256.606641 322.182437)scale(0.1 -0.1)">
       <use xlink:href="#DejaVuSans-31"/>
       <use x="63.623047" xlink:href="#DejaVuSans-30"/>
       <use x="127.246094" xlink:href="#DejaVuSans-30"/>
      </g>
     </g>
    </g>
    <g id="xtick_7">
     <g id="line2d_13">
      <path clip-path="url(#p28e9888eaf)" d="M 306.677945 307.584 
L 306.677945 41.472 
" style="fill:none;stroke:#ffffff;stroke-linecap:square;stroke-width:0.8;"/>
     </g>
     <g id="line2d_14">
      <g>
       <use style="fill:#555555;stroke:#555555;stroke-width:0.8;" x="306.677945" xlink:href="#me30e909b2a" y="307.584"/>
      </g>
     </g>
     <g id="text_7">
      <!-- 125 -->
      <g style="fill:#555555;" transform="translate(297.134195 322.182437)scale(0.1 -0.1)">
       <use xlink:href="#DejaVuSans-31"/>
       <use x="63.623047" xlink:href="#DejaVuSans-32"/>
       <use x="127.246094" xlink:href="#DejaVuSans-35"/>
      </g>
     </g>
    </g>
    <g id="xtick_8">
     <g id="line2d_15">
      <path clip-path="url(#p28e9888eaf)" d="M 347.2055 307.584 
L 347.2055 41.472 
" style="fill:none;stroke:#ffffff;stroke-linecap:square;stroke-width:0.8;"/>
     </g>
     <g id="line2d_16">
      <g>
       <use style="fill:#555555;stroke:#555555;stroke-width:0.8;" x="347.2055" xlink:href="#me30e909b2a" y="307.584"/>
      </g>
     </g>
     <g id="text_8">
      <!-- 150 -->
      <g style="fill:#555555;" transform="translate(337.66175 322.182437)scale(0.1 -0.1)">
       <use xlink:href="#DejaVuSans-31"/>
       <use x="63.623047" xlink:href="#DejaVuSans-35"/>
       <use x="127.246094" xlink:href="#DejaVuSans-30"/>
      </g>
     </g>
    </g>
    <g id="xtick_9">
     <g id="line2d_17">
      <path clip-path="url(#p28e9888eaf)" d="M 387.733055 307.584 
L 387.733055 41.472 
" style="fill:none;stroke:#ffffff;stroke-linecap:square;stroke-width:0.8;"/>
     </g>
     <g id="line2d_18">
      <g>
       <use style="fill:#555555;stroke:#555555;stroke-width:0.8;" x="387.733055" xlink:href="#me30e909b2a" y="307.584"/>
      </g>
     </g>
     <g id="text_9">
      <!-- 175 -->
      <g style="fill:#555555;" transform="translate(378.189305 322.182437)scale(0.1 -0.1)">
       <use xlink:href="#DejaVuSans-31"/>
       <use x="63.623047" xlink:href="#DejaVuSans-37"/>
       <use x="127.246094" xlink:href="#DejaVuSans-35"/>
      </g>
     </g>
    </g>
    <g id="text_10">
     <!-- count -->
     <defs>
      <path d="M 48.78125 52.59375 
L 48.78125 44.1875 
Q 44.96875 46.296875 41.140625 47.34375 
Q 37.3125 48.390625 33.40625 48.390625 
Q 24.65625 48.390625 19.8125 42.84375 
Q 14.984375 37.3125 14.984375 27.296875 
Q 14.984375 17.28125 19.8125 11.734375 
Q 24.65625 6.203125 33.40625 6.203125 
Q 37.3125 6.203125 41.140625 7.25 
Q 44.96875 8.296875 48.78125 10.40625 
L 48.78125 2.09375 
Q 45.015625 0.34375 40.984375 -0.53125 
Q 36.96875 -1.421875 32.421875 -1.421875 
Q 20.0625 -1.421875 12.78125 6.34375 
Q 5.515625 14.109375 5.515625 27.296875 
Q 5.515625 40.671875 12.859375 48.328125 
Q 20.21875 56 33.015625 56 
Q 37.15625 56 41.109375 55.140625 
Q 45.0625 54.296875 48.78125 52.59375 
z
" id="DejaVuSans-63"/>
      <path d="M 30.609375 48.390625 
Q 23.390625 48.390625 19.1875 42.75 
Q 14.984375 37.109375 14.984375 27.296875 
Q 14.984375 17.484375 19.15625 11.84375 
Q 23.34375 6.203125 30.609375 6.203125 
Q 37.796875 6.203125 41.984375 11.859375 
Q 46.1875 17.53125 46.1875 27.296875 
Q 46.1875 37.015625 41.984375 42.703125 
Q 37.796875 48.390625 30.609375 48.390625 
z
M 30.609375 56 
Q 42.328125 56 49.015625 48.375 
Q 55.71875 40.765625 55.71875 27.296875 
Q 55.71875 13.875 49.015625 6.21875 
Q 42.328125 -1.421875 30.609375 -1.421875 
Q 18.84375 -1.421875 12.171875 6.21875 
Q 5.515625 13.875 5.515625 27.296875 
Q 5.515625 40.765625 12.171875 48.375 
Q 18.84375 56 30.609375 56 
z
" id="DejaVuSans-6f"/>
      <path d="M 8.5 21.578125 
L 8.5 54.6875 
L 17.484375 54.6875 
L 17.484375 21.921875 
Q 17.484375 14.15625 20.5 10.265625 
Q 23.53125 6.390625 29.59375 6.390625 
Q 36.859375 6.390625 41.078125 11.03125 
Q 45.3125 15.671875 45.3125 23.6875 
L 45.3125 54.6875 
L 54.296875 54.6875 
L 54.296875 0 
L 45.3125 0 
L 45.3125 8.40625 
Q 42.046875 3.421875 37.71875 1 
Q 33.40625 -1.421875 27.6875 -1.421875 
Q 18.265625 -1.421875 13.375 4.4375 
Q 8.5 10.296875 8.5 21.578125 
z
M 31.109375 56 
z
" id="DejaVuSans-75"/>
      <path d="M 54.890625 33.015625 
L 54.890625 0 
L 45.90625 0 
L 45.90625 32.71875 
Q 45.90625 40.484375 42.875 44.328125 
Q 39.84375 48.1875 33.796875 48.1875 
Q 26.515625 48.1875 22.3125 43.546875 
Q 18.109375 38.921875 18.109375 30.90625 
L 18.109375 0 
L 9.078125 0 
L 9.078125 54.6875 
L 18.109375 54.6875 
L 18.109375 46.1875 
Q 21.34375 51.125 25.703125 53.5625 
Q 30.078125 56 35.796875 56 
Q 45.21875 56 50.046875 50.171875 
Q 54.890625 44.34375 54.890625 33.015625 
z
" id="DejaVuSans-6e"/>
      <path d="M 18.3125 70.21875 
L 18.3125 54.6875 
L 36.8125 54.6875 
L 36.8125 47.703125 
L 18.3125 47.703125 
L 18.3125 18.015625 
Q 18.3125 11.328125 20.140625 9.421875 
Q 21.96875 7.515625 27.59375 7.515625 
L 36.8125 7.515625 
L 36.8125 0 
L 27.59375 0 
Q 17.1875 0 13.234375 3.875 
Q 9.28125 7.765625 9.28125 18.015625 
L 9.28125 47.703125 
L 2.6875 47.703125 
L 2.6875 54.6875 
L 9.28125 54.6875 
L 9.28125 70.21875 
z
" id="DejaVuSans-74"/>
     </defs>
     <g style="fill:#555555;" transform="translate(219.2325 337.38025)scale(0.12 -0.12)">
      <use xlink:href="#DejaVuSans-63"/>
      <use x="54.980469" xlink:href="#DejaVuSans-6f"/>
      <use x="116.162109" xlink:href="#DejaVuSans-75"/>
      <use x="179.541016" xlink:href="#DejaVuSans-6e"/>
      <use x="242.919922" xlink:href="#DejaVuSans-74"/>
     </g>
    </g>
   </g>
   <g id="matplotlib.axis_2">
    <g id="ytick_1">
     <g id="line2d_19">
      <path clip-path="url(#p28e9888eaf)" d="M 57.6 307.584 
L 414.72 307.584 
" style="fill:none;stroke:#ffffff;stroke-linecap:square;stroke-width:0.8;"/>
     </g>
     <g id="line2d_20">
      <defs>
       <path d="M 0 0 
L -3.5 0 
" id="mde414c4ff2" style="stroke:#555555;stroke-width:0.8;"/>
      </defs>
      <g>
       <use style="fill:#555555;stroke:#555555;stroke-width:0.8;" x="57.6" xlink:href="#mde414c4ff2" y="307.584"/>
      </g>
     </g>
     <g id="text_11">
      <!-- 0.000 -->
      <defs>
       <path d="M 10.6875 12.40625 
L 21 12.40625 
L 21 0 
L 10.6875 0 
z
" id="DejaVuSans-2e"/>
      </defs>
      <g style="fill:#555555;" transform="translate(21.971875 311.383219)scale(0.1 -0.1)">
       <use xlink:href="#DejaVuSans-30"/>
       <use x="63.623047" xlink:href="#DejaVuSans-2e"/>
       <use x="95.410156" xlink:href="#DejaVuSans-30"/>
       <use x="159.033203" xlink:href="#DejaVuSans-30"/>
       <use x="222.65625" xlink:href="#DejaVuSans-30"/>
      </g>
     </g>
    </g>
    <g id="ytick_2">
     <g id="line2d_21">
      <path clip-path="url(#p28e9888eaf)" d="M 57.6 259.535513 
L 414.72 259.535513 
" style="fill:none;stroke:#ffffff;stroke-linecap:square;stroke-width:0.8;"/>
     </g>
     <g id="line2d_22">
      <g>
       <use style="fill:#555555;stroke:#555555;stroke-width:0.8;" x="57.6" xlink:href="#mde414c4ff2" y="259.535513"/>
      </g>
     </g>
     <g id="text_12">
      <!-- 0.005 -->
      <g style="fill:#555555;" transform="translate(21.971875 263.334732)scale(0.1 -0.1)">
       <use xlink:href="#DejaVuSans-30"/>
       <use x="63.623047" xlink:href="#DejaVuSans-2e"/>
       <use x="95.410156" xlink:href="#DejaVuSans-30"/>
       <use x="159.033203" xlink:href="#DejaVuSans-30"/>
       <use x="222.65625" xlink:href="#DejaVuSans-35"/>
      </g>
     </g>
    </g>
    <g id="ytick_3">
     <g id="line2d_23">
      <path clip-path="url(#p28e9888eaf)" d="M 57.6 211.487026 
L 414.72 211.487026 
" style="fill:none;stroke:#ffffff;stroke-linecap:square;stroke-width:0.8;"/>
     </g>
     <g id="line2d_24">
      <g>
       <use style="fill:#555555;stroke:#555555;stroke-width:0.8;" x="57.6" xlink:href="#mde414c4ff2" y="211.487026"/>
      </g>
     </g>
     <g id="text_13">
      <!-- 0.010 -->
      <g style="fill:#555555;" transform="translate(21.971875 215.286245)scale(0.1 -0.1)">
       <use xlink:href="#DejaVuSans-30"/>
       <use x="63.623047" xlink:href="#DejaVuSans-2e"/>
       <use x="95.410156" xlink:href="#DejaVuSans-30"/>
       <use x="159.033203" xlink:href="#DejaVuSans-31"/>
       <use x="222.65625" xlink:href="#DejaVuSans-30"/>
      </g>
     </g>
    </g>
    <g id="ytick_4">
     <g id="line2d_25">
      <path clip-path="url(#p28e9888eaf)" d="M 57.6 163.43854 
L 414.72 163.43854 
" style="fill:none;stroke:#ffffff;stroke-linecap:square;stroke-width:0.8;"/>
     </g>
     <g id="line2d_26">
      <g>
       <use style="fill:#555555;stroke:#555555;stroke-width:0.8;" x="57.6" xlink:href="#mde414c4ff2" y="163.43854"/>
      </g>
     </g>
     <g id="text_14">
      <!-- 0.015 -->
      <g style="fill:#555555;" transform="translate(21.971875 167.237758)scale(0.1 -0.1)">
       <use xlink:href="#DejaVuSans-30"/>
       <use x="63.623047" xlink:href="#DejaVuSans-2e"/>
       <use x="95.410156" xlink:href="#DejaVuSans-30"/>
       <use x="159.033203" xlink:href="#DejaVuSans-31"/>
       <use x="222.65625" xlink:href="#DejaVuSans-35"/>
      </g>
     </g>
    </g>
    <g id="ytick_5">
     <g id="line2d_27">
      <path clip-path="url(#p28e9888eaf)" d="M 57.6 115.390053 
L 414.72 115.390053 
" style="fill:none;stroke:#ffffff;stroke-linecap:square;stroke-width:0.8;"/>
     </g>
     <g id="line2d_28">
      <g>
       <use style="fill:#555555;stroke:#555555;stroke-width:0.8;" x="57.6" xlink:href="#mde414c4ff2" y="115.390053"/>
      </g>
     </g>
     <g id="text_15">
      <!-- 0.020 -->
      <g style="fill:#555555;" transform="translate(21.971875 119.189271)scale(0.1 -0.1)">
       <use xlink:href="#DejaVuSans-30"/>
       <use x="63.623047" xlink:href="#DejaVuSans-2e"/>
       <use x="95.410156" xlink:href="#DejaVuSans-30"/>
       <use x="159.033203" xlink:href="#DejaVuSans-32"/>
       <use x="222.65625" xlink:href="#DejaVuSans-30"/>
      </g>
     </g>
    </g>
    <g id="ytick_6">
     <g id="line2d_29">
      <path clip-path="url(#p28e9888eaf)" d="M 57.6 67.341566 
L 414.72 67.341566 
" style="fill:none;stroke:#ffffff;stroke-linecap:square;stroke-width:0.8;"/>
     </g>
     <g id="line2d_30">
      <g>
       <use style="fill:#555555;stroke:#555555;stroke-width:0.8;" x="57.6" xlink:href="#mde414c4ff2" y="67.341566"/>
      </g>
     </g>
     <g id="text_16">
      <!-- 0.025 -->
      <g style="fill:#555555;" transform="translate(21.971875 71.140785)scale(0.1 -0.1)">
       <use xlink:href="#DejaVuSans-30"/>
       <use x="63.623047" xlink:href="#DejaVuSans-2e"/>
       <use x="95.410156" xlink:href="#DejaVuSans-30"/>
       <use x="159.033203" xlink:href="#DejaVuSans-32"/>
       <use x="222.65625" xlink:href="#DejaVuSans-35"/>
      </g>
     </g>
    </g>
    <g id="text_17">
     <!-- f(count) -->
     <defs>
      <path d="M 37.109375 75.984375 
L 37.109375 68.5 
L 28.515625 68.5 
Q 23.6875 68.5 21.796875 66.546875 
Q 19.921875 64.59375 19.921875 59.515625 
L 19.921875 54.6875 
L 34.71875 54.6875 
L 34.71875 47.703125 
L 19.921875 47.703125 
L 19.921875 0 
L 10.890625 0 
L 10.890625 47.703125 
L 2.296875 47.703125 
L 2.296875 54.6875 
L 10.890625 54.6875 
L 10.890625 58.5 
Q 10.890625 67.625 15.140625 71.796875 
Q 19.390625 75.984375 28.609375 75.984375 
z
" id="DejaVuSans-66"/>
      <path d="M 31 75.875 
Q 24.46875 64.65625 21.28125 53.65625 
Q 18.109375 42.671875 18.109375 31.390625 
Q 18.109375 20.125 21.3125 9.0625 
Q 24.515625 -2 31 -13.1875 
L 23.1875 -13.1875 
Q 15.875 -1.703125 12.234375 9.375 
Q 8.59375 20.453125 8.59375 31.390625 
Q 8.59375 42.28125 12.203125 53.3125 
Q 15.828125 64.359375 23.1875 75.875 
z
" id="DejaVuSans-28"/>
      <path d="M 8.015625 75.875 
L 15.828125 75.875 
Q 23.140625 64.359375 26.78125 53.3125 
Q 30.421875 42.28125 30.421875 31.390625 
Q 30.421875 20.453125 26.78125 9.375 
Q 23.140625 -1.703125 15.828125 -13.1875 
L 8.015625 -13.1875 
Q 14.5 -2 17.703125 9.0625 
Q 20.90625 20.125 20.90625 31.390625 
Q 20.90625 42.671875 17.703125 53.65625 
Q 14.5 64.65625 8.015625 75.875 
z
" id="DejaVuSans-29"/>
     </defs>
     <g style="fill:#555555;" transform="translate(15.47625 198.249562)rotate(-90)scale(0.12 -0.12)">
      <use xlink:href="#DejaVuSans-66"/>
      <use x="35.205078" xlink:href="#DejaVuSans-28"/>
      <use x="74.21875" xlink:href="#DejaVuSans-63"/>
      <use x="129.199219" xlink:href="#DejaVuSans-6f"/>
      <use x="190.380859" xlink:href="#DejaVuSans-75"/>
      <use x="253.759766" xlink:href="#DejaVuSans-6e"/>
      <use x="317.138672" xlink:href="#DejaVuSans-74"/>
      <use x="356.347656" xlink:href="#DejaVuSans-29"/>
     </g>
    </g>
   </g>
   <g id="PolyCollection_1">
    <path clip-path="url(#p28e9888eaf)" d="M 75.9749 307.366886 
L 75.9749 307.584 
L 79.210963 307.584 
L 82.447025 307.584 
L 85.683088 307.584 
L 88.91915 307.584 
L 92.155213 307.584 
L 95.391276 307.584 
L 98.627338 307.584 
L 101.863401 307.584 
L 105.099464 307.584 
L 108.335526 307.584 
L 111.571589 307.584 
L 114.807651 307.584 
L 118.043714 307.584 
L 121.279777 307.584 
L 124.515839 307.584 
L 127.751902 307.584 
L 130.987965 307.584 
L 134.224027 307.584 
L 137.46009 307.584 
L 140.696152 307.584 
L 143.932215 307.584 
L 147.168278 307.584 
L 150.40434 307.584 
L 153.640403 307.584 
L 156.876466 307.584 
L 160.112528 307.584 
L 163.348591 307.584 
L 166.584654 307.584 
L 169.820716 307.584 
L 173.056779 307.584 
L 176.292841 307.584 
L 179.528904 307.584 
L 182.764967 307.584 
L 186.001029 307.584 
L 189.237092 307.584 
L 192.473155 307.584 
L 195.709217 307.584 
L 198.94528 307.584 
L 202.181342 307.584 
L 205.417405 307.584 
L 208.653468 307.584 
L 211.88953 307.584 
L 215.125593 307.584 
L 218.361656 307.584 
L 221.597718 307.584 
L 224.833781 307.584 
L 228.069843 307.584 
L 231.305906 307.584 
L 234.541969 307.584 
L 237.778031 307.584 
L 241.014094 307.584 
L 244.250157 307.584 
L 247.486219 307.584 
L 250.722282 307.584 
L 253.958344 307.584 
L 257.194407 307.584 
L 260.43047 307.584 
L 263.666532 307.584 
L 266.902595 307.584 
L 270.138658 307.584 
L 273.37472 307.584 
L 276.610783 307.584 
L 279.846845 307.584 
L 283.082908 307.584 
L 286.318971 307.584 
L 289.555033 307.584 
L 292.791096 307.584 
L 296.027159 307.584 
L 299.263221 307.584 
L 302.499284 307.584 
L 305.735346 307.584 
L 308.971409 307.584 
L 312.207472 307.584 
L 315.443534 307.584 
L 318.679597 307.584 
L 321.91566 307.584 
L 325.151722 307.584 
L 328.387785 307.584 
L 331.623848 307.584 
L 334.85991 307.584 
L 338.095973 307.584 
L 341.332035 307.584 
L 344.568098 307.584 
L 347.804161 307.584 
L 351.040223 307.584 
L 354.276286 307.584 
L 357.512349 307.584 
L 360.748411 307.584 
L 363.984474 307.584 
L 367.220536 307.584 
L 370.456599 307.584 
L 373.692662 307.584 
L 376.928724 307.584 
L 380.164787 307.584 
L 383.40085 307.584 
L 386.636912 307.584 
L 389.872975 307.584 
L 393.109037 307.584 
L 396.3451 307.584 
L 396.3451 307.534587 
L 396.3451 307.534587 
L 393.109037 307.472101 
L 389.872975 307.346363 
L 386.636912 307.11023 
L 383.40085 306.696336 
L 380.164787 306.019414 
L 376.928724 304.987333 
L 373.692662 303.523087 
L 370.456599 301.596405 
L 367.220536 299.25818 
L 363.984474 296.665434 
L 360.748411 294.082145 
L 357.512349 291.845199 
L 354.276286 290.296174 
L 351.040223 289.69537 
L 347.804161 290.146909 
L 344.568098 291.564607 
L 341.332035 293.694426 
L 338.095973 296.186198 
L 334.85991 298.686998 
L 331.623848 300.921797 
L 328.387785 302.736555 
L 325.151722 304.097772 
L 321.91566 305.059908 
L 318.679597 305.720335 
L 315.443534 306.17958 
L 312.207472 306.516753 
L 308.971409 306.781494 
L 305.735346 306.997981 
L 302.499284 307.174492 
L 299.263221 307.31293 
L 296.027159 307.415143 
L 292.791096 307.48542 
L 289.555033 307.5302 
L 286.318971 307.556596 
L 283.082908 307.570985 
L 279.846845 307.57824 
L 276.610783 307.581626 
L 273.37472 307.583089 
L 270.138658 307.583674 
L 266.902595 307.583891 
L 263.666532 307.583965 
L 260.43047 307.583982 
L 257.194407 307.583964 
L 253.958344 307.583872 
L 250.722282 307.583543 
L 247.486219 307.582473 
L 244.250157 307.579237 
L 241.014094 307.570126 
L 237.778031 307.546264 
L 234.541969 307.48809 
L 231.305906 307.356034 
L 228.069843 307.076738 
L 224.833781 306.525862 
L 221.597718 305.511129 
L 218.361656 303.76179 
L 215.125593 300.930875 
L 211.88953 296.612696 
L 208.653468 290.370878 
L 205.417405 281.766568 
L 202.181342 270.379463 
L 198.94528 255.828766 
L 195.709217 237.819654 
L 192.473155 216.24622 
L 189.237092 191.358594 
L 186.001029 163.952715 
L 182.764967 135.493153 
L 179.528904 108.070215 
L 176.292841 84.142375 
L 173.056779 66.104746 
L 169.820716 55.804053 
L 166.584654 54.144 
L 163.348591 60.883725 
L 160.112528 74.659989 
L 156.876466 93.2068 
L 153.640403 113.725401 
L 150.40434 133.357041 
L 147.168278 149.700264 
L 143.932215 161.282211 
L 140.696152 167.861702 
L 137.46009 170.449814 
L 134.224027 171.003568 
L 130.987965 171.862249 
L 127.751902 175.100259 
L 124.515839 182.007372 
L 121.279777 192.852615 
L 118.043714 206.968716 
L 114.807651 223.072461 
L 111.571589 239.670738 
L 108.335526 255.412153 
L 105.099464 269.305706 
L 101.863401 280.797079 
L 98.627338 289.736902 
L 95.391276 296.287518 
L 92.155213 300.807454 
L 88.91915 303.740747 
L 85.683088 305.528145 
L 82.447025 306.548972 
L 79.210963 307.0945 
L 75.9749 307.366886 
z
" style="fill:#e24a33;fill-opacity:0.25;"/>
   </g>
   <g id="PolyCollection_2">
    <path clip-path="url(#p28e9888eaf)" d="M 73.832727 307.371818 
L 73.832727 307.584 
L 77.112066 307.584 
L 80.391405 307.584 
L 83.670744 307.584 
L 86.950083 307.584 
L 90.229421 307.584 
L 93.50876 307.584 
L 96.788099 307.584 
L 100.067438 307.584 
L 103.346777 307.584 
L 106.626116 307.584 
L 109.905455 307.584 
L 113.184793 307.584 
L 116.464132 307.584 
L 119.743471 307.584 
L 123.02281 307.584 
L 126.302149 307.584 
L 129.581488 307.584 
L 132.860826 307.584 
L 136.140165 307.584 
L 139.419504 307.584 
L 142.698843 307.584 
L 145.978182 307.584 
L 149.257521 307.584 
L 152.53686 307.584 
L 155.816198 307.584 
L 159.095537 307.584 
L 162.374876 307.584 
L 165.654215 307.584 
L 168.933554 307.584 
L 172.212893 307.584 
L 175.492231 307.584 
L 178.77157 307.584 
L 182.050909 307.584 
L 185.330248 307.584 
L 188.609587 307.584 
L 191.888926 307.584 
L 195.168264 307.584 
L 198.447603 307.584 
L 201.726942 307.584 
L 205.006281 307.584 
L 208.28562 307.584 
L 211.564959 307.584 
L 214.844298 307.584 
L 218.123636 307.584 
L 221.402975 307.584 
L 224.682314 307.584 
L 227.961653 307.584 
L 231.240992 307.584 
L 234.520331 307.584 
L 237.799669 307.584 
L 241.079008 307.584 
L 244.358347 307.584 
L 247.637686 307.584 
L 250.917025 307.584 
L 254.196364 307.584 
L 257.475702 307.584 
L 260.755041 307.584 
L 264.03438 307.584 
L 267.313719 307.584 
L 270.593058 307.584 
L 273.872397 307.584 
L 277.151736 307.584 
L 280.431074 307.584 
L 283.710413 307.584 
L 286.989752 307.584 
L 290.269091 307.584 
L 293.54843 307.584 
L 296.827769 307.584 
L 300.107107 307.584 
L 303.386446 307.584 
L 306.665785 307.584 
L 309.945124 307.584 
L 313.224463 307.584 
L 316.503802 307.584 
L 319.78314 307.584 
L 323.062479 307.584 
L 326.341818 307.584 
L 329.621157 307.584 
L 332.900496 307.584 
L 336.179835 307.584 
L 339.459174 307.584 
L 342.738512 307.584 
L 346.017851 307.584 
L 349.29719 307.584 
L 352.576529 307.584 
L 355.855868 307.584 
L 359.135207 307.584 
L 362.414545 307.584 
L 365.693884 307.584 
L 368.973223 307.584 
L 372.252562 307.584 
L 375.531901 307.584 
L 378.81124 307.584 
L 382.090579 307.584 
L 385.369917 307.584 
L 388.649256 307.584 
L 391.928595 307.584 
L 395.207934 307.584 
L 398.487273 307.584 
L 398.487273 307.535561 
L 398.487273 307.535561 
L 395.207934 307.477692 
L 391.928595 307.364041 
L 388.649256 307.154589 
L 385.369917 306.792419 
L 382.090579 306.205129 
L 378.81124 305.312901 
L 375.531901 304.045186 
L 372.252562 302.365454 
L 368.973223 300.299462 
L 365.693884 297.958198 
L 362.414545 295.544281 
L 359.135207 293.332467 
L 355.855868 291.622248 
L 352.576529 290.671561 
L 349.29719 290.630945 
L 346.017851 291.501157 
L 342.738512 293.130997 
L 339.459174 295.257413 
L 336.179835 297.573671 
L 332.900496 299.80139 
L 329.621157 301.743217 
L 326.341818 303.303387 
L 323.062479 304.477177 
L 319.78314 305.320653 
L 316.503802 305.915504 
L 313.224463 306.34076 
L 309.945124 306.656951 
L 306.665785 306.90228 
L 303.386446 307.096788 
L 300.107107 307.249598 
L 296.827769 307.365466 
L 293.54843 307.448812 
L 290.269091 307.505136 
L 286.989752 307.540722 
L 283.710413 307.561693 
L 280.431074 307.573212 
L 277.151736 307.579108 
L 273.872397 307.581921 
L 270.593058 307.583172 
L 267.313719 307.583689 
L 264.03438 307.583884 
L 260.755041 307.583932 
L 257.475702 307.58387 
L 254.196364 307.58359 
L 250.917025 307.582698 
L 247.637686 307.580095 
L 244.358347 307.572999 
L 241.079008 307.554889 
L 237.799669 307.511596 
L 234.520331 307.414615 
L 231.240992 307.210921 
L 227.961653 306.80944 
L 224.682314 306.065916 
L 221.402975 304.769843 
L 218.123636 302.638232 
L 214.844298 299.320053 
L 211.564959 294.411896 
L 208.28562 287.481382 
L 205.006281 278.093847 
L 201.726942 265.842765 
L 198.447603 250.39396 
L 195.168264 231.560466 
L 191.888926 209.418582 
L 188.609587 184.45157 
L 185.330248 157.674045 
L 182.050909 130.667959 
L 178.77157 105.470808 
L 175.492231 84.30255 
L 172.212893 69.180927 
L 168.933554 61.523182 
L 165.654215 61.841382 
L 162.374876 69.608225 
L 159.095537 83.321194 
L 155.816198 100.749471 
L 152.53686 119.320291 
L 149.257521 136.58267 
L 145.978182 150.667103 
L 142.698843 160.642186 
L 139.419504 166.670139 
L 136.140165 169.900463 
L 132.860826 172.114651 
L 129.581488 175.219477 
L 126.302149 180.742589 
L 123.02281 189.481504 
L 119.743471 201.394554 
L 116.464132 215.730061 
L 113.184793 231.311639 
L 109.905455 246.864672 
L 106.626116 261.285844 
L 103.346777 273.803827 
L 100.067438 284.026988 
L 96.788099 291.904833 
L 93.50876 297.640227 
L 90.229421 301.585846 
L 86.950083 304.149128 
L 83.670744 305.720044 
L 80.391405 306.627143 
L 77.112066 307.120052 
L 73.832727 307.371818 
z
" style="fill:#348abd;fill-opacity:0.25;"/>
   </g>
   <g id="line2d_31">
    <path clip-path="url(#p28e9888eaf)" d="M 75.9749 307.366886 
L 79.210963 307.0945 
L 82.447025 306.548972 
L 85.683088 305.528145 
L 88.91915 303.740747 
L 92.155213 300.807454 
L 95.391276 296.287518 
L 98.627338 289.736902 
L 101.863401 280.797079 
L 105.099464 269.305706 
L 108.335526 255.412153 
L 111.571589 239.670738 
L 114.807651 223.072461 
L 118.043714 206.968716 
L 121.279777 192.852615 
L 124.515839 182.007372 
L 127.751902 175.100259 
L 130.987965 171.862249 
L 134.224027 171.003568 
L 137.46009 170.449814 
L 140.696152 167.861702 
L 143.932215 161.282211 
L 147.168278 149.700264 
L 150.40434 133.357041 
L 153.640403 113.725401 
L 156.876466 93.2068 
L 160.112528 74.659989 
L 163.348591 60.883725 
L 166.584654 54.144 
L 169.820716 55.804053 
L 173.056779 66.104746 
L 176.292841 84.142375 
L 179.528904 108.070215 
L 182.764967 135.493153 
L 186.001029 163.952715 
L 189.237092 191.358594 
L 192.473155 216.24622 
L 195.709217 237.819654 
L 198.94528 255.828766 
L 202.181342 270.379463 
L 205.417405 281.766568 
L 208.653468 290.370878 
L 211.88953 296.612696 
L 215.125593 300.930875 
L 218.361656 303.76179 
L 221.597718 305.511129 
L 224.833781 306.525862 
L 228.069843 307.076738 
L 231.305906 307.356034 
L 234.541969 307.48809 
L 237.778031 307.546264 
L 241.014094 307.570126 
L 244.250157 307.579237 
L 247.486219 307.582473 
L 250.722282 307.583543 
L 253.958344 307.583872 
L 257.194407 307.583964 
L 260.43047 307.583982 
L 263.666532 307.583965 
L 266.902595 307.583891 
L 270.138658 307.583674 
L 273.37472 307.583089 
L 276.610783 307.581626 
L 279.846845 307.57824 
L 283.082908 307.570985 
L 286.318971 307.556596 
L 289.555033 307.5302 
L 292.791096 307.48542 
L 296.027159 307.415143 
L 299.263221 307.31293 
L 302.499284 307.174492 
L 305.735346 306.997981 
L 308.971409 306.781494 
L 312.207472 306.516753 
L 315.443534 306.17958 
L 318.679597 305.720335 
L 321.91566 305.059908 
L 325.151722 304.097772 
L 328.387785 302.736555 
L 331.623848 300.921797 
L 334.85991 298.686998 
L 338.095973 296.186198 
L 341.332035 293.694426 
L 344.568098 291.564607 
L 347.804161 290.146909 
L 351.040223 289.69537 
L 354.276286 290.296174 
L 357.512349 291.845199 
L 360.748411 294.082145 
L 363.984474 296.665434 
L 367.220536 299.25818 
L 370.456599 301.596405 
L 373.692662 303.523087 
L 376.928724 304.987333 
L 380.164787 306.019414 
L 383.40085 306.696336 
L 386.636912 307.11023 
L 389.872975 307.346363 
L 393.109037 307.472101 
L 396.3451 307.534587 
" style="fill:none;stroke:#e24a33;stroke-linecap:square;stroke-width:0.3;"/>
   </g>
   <g id="line2d_32">
    <path clip-path="url(#p28e9888eaf)" d="M 73.832727 307.371818 
L 77.112066 307.120052 
L 80.391405 306.627143 
L 83.670744 305.720044 
L 86.950083 304.149128 
L 90.229421 301.585846 
L 93.50876 297.640227 
L 96.788099 291.904833 
L 100.067438 284.026988 
L 103.346777 273.803827 
L 106.626116 261.285844 
L 109.905455 246.864672 
L 113.184793 231.311639 
L 116.464132 215.730061 
L 119.743471 201.394554 
L 123.02281 189.481504 
L 126.302149 180.742589 
L 129.581488 175.219477 
L 132.860826 172.114651 
L 136.140165 169.900463 
L 139.419504 166.670139 
L 142.698843 160.642186 
L 145.978182 150.667103 
L 149.257521 136.58267 
L 152.53686 119.320291 
L 155.816198 100.749471 
L 159.095537 83.321194 
L 162.374876 69.608225 
L 165.654215 61.841382 
L 168.933554 61.523182 
L 172.212893 69.180927 
L 175.492231 84.30255 
L 178.77157 105.470808 
L 182.050909 130.667959 
L 185.330248 157.674045 
L 188.609587 184.45157 
L 191.888926 209.418582 
L 195.168264 231.560466 
L 198.447603 250.39396 
L 201.726942 265.842765 
L 205.006281 278.093847 
L 208.28562 287.481382 
L 211.564959 294.411896 
L 214.844298 299.320053 
L 218.123636 302.638232 
L 221.402975 304.769843 
L 224.682314 306.065916 
L 227.961653 306.80944 
L 231.240992 307.210921 
L 234.520331 307.414615 
L 237.799669 307.511596 
L 241.079008 307.554889 
L 244.358347 307.572999 
L 247.637686 307.580095 
L 250.917025 307.582698 
L 254.196364 307.58359 
L 257.475702 307.58387 
L 260.755041 307.583932 
L 264.03438 307.583884 
L 267.313719 307.583689 
L 270.593058 307.583172 
L 273.872397 307.581921 
L 277.151736 307.579108 
L 280.431074 307.573212 
L 283.710413 307.561693 
L 286.989752 307.540722 
L 290.269091 307.505136 
L 293.54843 307.448812 
L 296.827769 307.365466 
L 300.107107 307.249598 
L 303.386446 307.096788 
L 306.665785 306.90228 
L 309.945124 306.656951 
L 313.224463 306.34076 
L 316.503802 305.915504 
L 319.78314 305.320653 
L 323.062479 304.477177 
L 326.341818 303.303387 
L 329.621157 301.743217 
L 332.900496 299.80139 
L 336.179835 297.573671 
L 339.459174 295.257413 
L 342.738512 293.130997 
L 346.017851 291.501157 
L 349.29719 290.630945 
L 352.576529 290.671561 
L 355.855868 291.622248 
L 359.135207 293.332467 
L 362.414545 295.544281 
L 365.693884 297.958198 
L 368.973223 300.299462 
L 372.252562 302.365454 
L 375.531901 304.045186 
L 378.81124 305.312901 
L 382.090579 306.205129 
L 385.369917 306.792419 
L 388.649256 307.154589 
L 391.928595 307.364041 
L 395.207934 307.477692 
L 398.487273 307.535561 
" style="fill:none;stroke:#348abd;stroke-linecap:square;stroke-width:0.3;"/>
   </g>
   <g id="patch_3">
    <path d="M 57.6 307.584 
L 57.6 41.472 
" style="fill:none;stroke:#ffffff;stroke-linecap:square;stroke-linejoin:miter;"/>
   </g>
   <g id="patch_4">
    <path d="M 414.72 307.584 
L 414.72 41.472 
" style="fill:none;stroke:#ffffff;stroke-linecap:square;stroke-linejoin:miter;"/>
   </g>
   <g id="patch_5">
    <path d="M 57.6 307.584 
L 414.72 307.584 
" style="fill:none;stroke:#ffffff;stroke-linecap:square;stroke-linejoin:miter;"/>
   </g>
   <g id="patch_6">
    <path d="M 57.6 41.472 
L 414.72 41.472 
" style="fill:none;stroke:#ffffff;stroke-linecap:square;stroke-linejoin:miter;"/>
   </g>
   <g id="text_18">
    <!-- kernel density estimation(Gaussian):b2252 -->
    <defs>
     <path d="M 9.078125 75.984375 
L 18.109375 75.984375 
L 18.109375 31.109375 
L 44.921875 54.6875 
L 56.390625 54.6875 
L 27.390625 29.109375 
L 57.625 0 
L 45.90625 0 
L 18.109375 26.703125 
L 18.109375 0 
L 9.078125 0 
z
" id="DejaVuSans-6b"/>
     <path d="M 56.203125 29.59375 
L 56.203125 25.203125 
L 14.890625 25.203125 
Q 15.484375 15.921875 20.484375 11.0625 
Q 25.484375 6.203125 34.421875 6.203125 
Q 39.59375 6.203125 44.453125 7.46875 
Q 49.3125 8.734375 54.109375 11.28125 
L 54.109375 2.78125 
Q 49.265625 0.734375 44.1875 -0.34375 
Q 39.109375 -1.421875 33.890625 -1.421875 
Q 20.796875 -1.421875 13.15625 6.1875 
Q 5.515625 13.8125 5.515625 26.8125 
Q 5.515625 40.234375 12.765625 48.109375 
Q 20.015625 56 32.328125 56 
Q 43.359375 56 49.78125 48.890625 
Q 56.203125 41.796875 56.203125 29.59375 
z
M 47.21875 32.234375 
Q 47.125 39.59375 43.09375 43.984375 
Q 39.0625 48.390625 32.421875 48.390625 
Q 24.90625 48.390625 20.390625 44.140625 
Q 15.875 39.890625 15.1875 32.171875 
z
" id="DejaVuSans-65"/>
     <path d="M 41.109375 46.296875 
Q 39.59375 47.171875 37.8125 47.578125 
Q 36.03125 48 33.890625 48 
Q 26.265625 48 22.1875 43.046875 
Q 18.109375 38.09375 18.109375 28.8125 
L 18.109375 0 
L 9.078125 0 
L 9.078125 54.6875 
L 18.109375 54.6875 
L 18.109375 46.1875 
Q 20.953125 51.171875 25.484375 53.578125 
Q 30.03125 56 36.53125 56 
Q 37.453125 56 38.578125 55.875 
Q 39.703125 55.765625 41.0625 55.515625 
z
" id="DejaVuSans-72"/>
     <path d="M 9.421875 75.984375 
L 18.40625 75.984375 
L 18.40625 0 
L 9.421875 0 
z
" id="DejaVuSans-6c"/>
     <path id="DejaVuSans-20"/>
     <path d="M 45.40625 46.390625 
L 45.40625 75.984375 
L 54.390625 75.984375 
L 54.390625 0 
L 45.40625 0 
L 45.40625 8.203125 
Q 42.578125 3.328125 38.25 0.953125 
Q 33.9375 -1.421875 27.875 -1.421875 
Q 17.96875 -1.421875 11.734375 6.484375 
Q 5.515625 14.40625 5.515625 27.296875 
Q 5.515625 40.1875 11.734375 48.09375 
Q 17.96875 56 27.875 56 
Q 33.9375 56 38.25 53.625 
Q 42.578125 51.265625 45.40625 46.390625 
z
M 14.796875 27.296875 
Q 14.796875 17.390625 18.875 11.75 
Q 22.953125 6.109375 30.078125 6.109375 
Q 37.203125 6.109375 41.296875 11.75 
Q 45.40625 17.390625 45.40625 27.296875 
Q 45.40625 37.203125 41.296875 42.84375 
Q 37.203125 48.484375 30.078125 48.484375 
Q 22.953125 48.484375 18.875 42.84375 
Q 14.796875 37.203125 14.796875 27.296875 
z
" id="DejaVuSans-64"/>
     <path d="M 44.28125 53.078125 
L 44.28125 44.578125 
Q 40.484375 46.53125 36.375 47.5 
Q 32.28125 48.484375 27.875 48.484375 
Q 21.1875 48.484375 17.84375 46.4375 
Q 14.5 44.390625 14.5 40.28125 
Q 14.5 37.15625 16.890625 35.375 
Q 19.28125 33.59375 26.515625 31.984375 
L 29.59375 31.296875 
Q 39.15625 29.25 43.1875 25.515625 
Q 47.21875 21.78125 47.21875 15.09375 
Q 47.21875 7.46875 41.1875 3.015625 
Q 35.15625 -1.421875 24.609375 -1.421875 
Q 20.21875 -1.421875 15.453125 -0.5625 
Q 10.6875 0.296875 5.421875 2 
L 5.421875 11.28125 
Q 10.40625 8.6875 15.234375 7.390625 
Q 20.0625 6.109375 24.8125 6.109375 
Q 31.15625 6.109375 34.5625 8.28125 
Q 37.984375 10.453125 37.984375 14.40625 
Q 37.984375 18.0625 35.515625 20.015625 
Q 33.0625 21.96875 24.703125 23.78125 
L 21.578125 24.515625 
Q 13.234375 26.265625 9.515625 29.90625 
Q 5.8125 33.546875 5.8125 39.890625 
Q 5.8125 47.609375 11.28125 51.796875 
Q 16.75 56 26.8125 56 
Q 31.78125 56 36.171875 55.265625 
Q 40.578125 54.546875 44.28125 53.078125 
z
" id="DejaVuSans-73"/>
     <path d="M 9.421875 54.6875 
L 18.40625 54.6875 
L 18.40625 0 
L 9.421875 0 
z
M 9.421875 75.984375 
L 18.40625 75.984375 
L 18.40625 64.59375 
L 9.421875 64.59375 
z
" id="DejaVuSans-69"/>
     <path d="M 32.171875 -5.078125 
Q 28.375 -14.84375 24.75 -17.8125 
Q 21.140625 -20.796875 15.09375 -20.796875 
L 7.90625 -20.796875 
L 7.90625 -13.28125 
L 13.1875 -13.28125 
Q 16.890625 -13.28125 18.9375 -11.515625 
Q 21 -9.765625 23.484375 -3.21875 
L 25.09375 0.875 
L 2.984375 54.6875 
L 12.5 54.6875 
L 29.59375 11.921875 
L 46.6875 54.6875 
L 56.203125 54.6875 
z
" id="DejaVuSans-79"/>
     <path d="M 52 44.1875 
Q 55.375 50.25 60.0625 53.125 
Q 64.75 56 71.09375 56 
Q 79.640625 56 84.28125 50.015625 
Q 88.921875 44.046875 88.921875 33.015625 
L 88.921875 0 
L 79.890625 0 
L 79.890625 32.71875 
Q 79.890625 40.578125 77.09375 44.375 
Q 74.3125 48.1875 68.609375 48.1875 
Q 61.625 48.1875 57.5625 43.546875 
Q 53.515625 38.921875 53.515625 30.90625 
L 53.515625 0 
L 44.484375 0 
L 44.484375 32.71875 
Q 44.484375 40.625 41.703125 44.40625 
Q 38.921875 48.1875 33.109375 48.1875 
Q 26.21875 48.1875 22.15625 43.53125 
Q 18.109375 38.875 18.109375 30.90625 
L 18.109375 0 
L 9.078125 0 
L 9.078125 54.6875 
L 18.109375 54.6875 
L 18.109375 46.1875 
Q 21.1875 51.21875 25.484375 53.609375 
Q 29.78125 56 35.6875 56 
Q 41.65625 56 45.828125 52.96875 
Q 50 49.953125 52 44.1875 
z
" id="DejaVuSans-6d"/>
     <path d="M 34.28125 27.484375 
Q 23.390625 27.484375 19.1875 25 
Q 14.984375 22.515625 14.984375 16.5 
Q 14.984375 11.71875 18.140625 8.90625 
Q 21.296875 6.109375 26.703125 6.109375 
Q 34.1875 6.109375 38.703125 11.40625 
Q 43.21875 16.703125 43.21875 25.484375 
L 43.21875 27.484375 
z
M 52.203125 31.203125 
L 52.203125 0 
L 43.21875 0 
L 43.21875 8.296875 
Q 40.140625 3.328125 35.546875 0.953125 
Q 30.953125 -1.421875 24.3125 -1.421875 
Q 15.921875 -1.421875 10.953125 3.296875 
Q 6 8.015625 6 15.921875 
Q 6 25.140625 12.171875 29.828125 
Q 18.359375 34.515625 30.609375 34.515625 
L 43.21875 34.515625 
L 43.21875 35.40625 
Q 43.21875 41.609375 39.140625 45 
Q 35.0625 48.390625 27.6875 48.390625 
Q 23 48.390625 18.546875 47.265625 
Q 14.109375 46.140625 10.015625 43.890625 
L 10.015625 52.203125 
Q 14.9375 54.109375 19.578125 55.046875 
Q 24.21875 56 28.609375 56 
Q 40.484375 56 46.34375 49.84375 
Q 52.203125 43.703125 52.203125 31.203125 
z
" id="DejaVuSans-61"/>
     <path d="M 59.515625 10.40625 
L 59.515625 29.984375 
L 43.40625 29.984375 
L 43.40625 38.09375 
L 69.28125 38.09375 
L 69.28125 6.78125 
Q 63.578125 2.734375 56.6875 0.65625 
Q 49.8125 -1.421875 42 -1.421875 
Q 24.90625 -1.421875 15.25 8.5625 
Q 5.609375 18.5625 5.609375 36.375 
Q 5.609375 54.25 15.25 64.234375 
Q 24.90625 74.21875 42 74.21875 
Q 49.125 74.21875 55.546875 72.453125 
Q 61.96875 70.703125 67.390625 67.28125 
L 67.390625 56.78125 
Q 61.921875 61.421875 55.765625 63.765625 
Q 49.609375 66.109375 42.828125 66.109375 
Q 29.4375 66.109375 22.71875 58.640625 
Q 16.015625 51.171875 16.015625 36.375 
Q 16.015625 21.625 22.71875 14.15625 
Q 29.4375 6.6875 42.828125 6.6875 
Q 48.046875 6.6875 52.140625 7.59375 
Q 56.25 8.5 59.515625 10.40625 
z
" id="DejaVuSans-47"/>
     <path d="M 11.71875 12.40625 
L 22.015625 12.40625 
L 22.015625 0 
L 11.71875 0 
z
M 11.71875 51.703125 
L 22.015625 51.703125 
L 22.015625 39.3125 
L 11.71875 39.3125 
z
" id="DejaVuSans-3a"/>
     <path d="M 48.6875 27.296875 
Q 48.6875 37.203125 44.609375 42.84375 
Q 40.53125 48.484375 33.40625 48.484375 
Q 26.265625 48.484375 22.1875 42.84375 
Q 18.109375 37.203125 18.109375 27.296875 
Q 18.109375 17.390625 22.1875 11.75 
Q 26.265625 6.109375 33.40625 6.109375 
Q 40.53125 6.109375 44.609375 11.75 
Q 48.6875 17.390625 48.6875 27.296875 
z
M 18.109375 46.390625 
Q 20.953125 51.265625 25.265625 53.625 
Q 29.59375 56 35.59375 56 
Q 45.5625 56 51.78125 48.09375 
Q 58.015625 40.1875 58.015625 27.296875 
Q 58.015625 14.40625 51.78125 6.484375 
Q 45.5625 -1.421875 35.59375 -1.421875 
Q 29.59375 -1.421875 25.265625 0.953125 
Q 20.953125 3.328125 18.109375 8.203125 
L 18.109375 0 
L 9.078125 0 
L 9.078125 75.984375 
L 18.109375 75.984375 
z
" id="DejaVuSans-62"/>
    </defs>
    <g transform="translate(80.445375 35.472)scale(0.144 -0.144)">
     <use xlink:href="#DejaVuSans-6b"/>
     <use x="57.863281" xlink:href="#DejaVuSans-65"/>
     <use x="119.386719" xlink:href="#DejaVuSans-72"/>
     <use x="160.484375" xlink:href="#DejaVuSans-6e"/>
     <use x="223.863281" xlink:href="#DejaVuSans-65"/>
     <use x="285.386719" xlink:href="#DejaVuSans-6c"/>
     <use x="313.169922" xlink:href="#DejaVuSans-20"/>
     <use x="344.957031" xlink:href="#DejaVuSans-64"/>
     <use x="408.433594" xlink:href="#DejaVuSans-65"/>
     <use x="469.957031" xlink:href="#DejaVuSans-6e"/>
     <use x="533.335938" xlink:href="#DejaVuSans-73"/>
     <use x="585.435547" xlink:href="#DejaVuSans-69"/>
     <use x="613.21875" xlink:href="#DejaVuSans-74"/>
     <use x="652.427734" xlink:href="#DejaVuSans-79"/>
     <use x="711.607422" xlink:href="#DejaVuSans-20"/>
     <use x="743.394531" xlink:href="#DejaVuSans-65"/>
     <use x="804.917969" xlink:href="#DejaVuSans-73"/>
     <use x="857.017578" xlink:href="#DejaVuSans-74"/>
     <use x="896.226562" xlink:href="#DejaVuSans-69"/>
     <use x="924.009766" xlink:href="#DejaVuSans-6d"/>
     <use x="1021.421875" xlink:href="#DejaVuSans-61"/>
     <use x="1082.701172" xlink:href="#DejaVuSans-74"/>
     <use x="1121.910156" xlink:href="#DejaVuSans-69"/>
     <use x="1149.693359" xlink:href="#DejaVuSans-6f"/>
     <use x="1210.875" xlink:href="#DejaVuSans-6e"/>
     <use x="1274.253906" xlink:href="#DejaVuSans-28"/>
     <use x="1313.267578" xlink:href="#DejaVuSans-47"/>
     <use x="1390.757812" xlink:href="#DejaVuSans-61"/>
     <use x="1452.037109" xlink:href="#DejaVuSans-75"/>
     <use x="1515.416016" xlink:href="#DejaVuSans-73"/>
     <use x="1567.515625" xlink:href="#DejaVuSans-73"/>
     <use x="1619.615234" xlink:href="#DejaVuSans-69"/>
     <use x="1647.398438" xlink:href="#DejaVuSans-61"/>
     <use x="1708.677734" xlink:href="#DejaVuSans-6e"/>
     <use x="1772.056641" xlink:href="#DejaVuSans-29"/>
     <use x="1811.070312" xlink:href="#DejaVuSans-3a"/>
     <use x="1844.761719" xlink:href="#DejaVuSans-62"/>
     <use x="1908.238281" xlink:href="#DejaVuSans-32"/>
     <use x="1971.861328" xlink:href="#DejaVuSans-32"/>
     <use x="2035.484375" xlink:href="#DejaVuSans-35"/>
     <use x="2099.107422" xlink:href="#DejaVuSans-32"/>
    </g>
   </g>
   <g id="legend_1">
    <g id="patch_7">
     <path d="M 326.566875 78.82825 
L 407.72 78.82825 
Q 409.72 78.82825 409.72 76.82825 
L 409.72 48.472 
Q 409.72 46.472 407.72 46.472 
L 326.566875 46.472 
Q 324.566875 46.472 324.566875 48.472 
L 324.566875 76.82825 
Q 324.566875 78.82825 326.566875 78.82825 
z
" style="fill:#e5e5e5;opacity:0.8;stroke:#cccccc;stroke-linejoin:miter;stroke-width:0.5;"/>
    </g>
    <g id="line2d_33">
     <path d="M 328.566875 54.570437 
L 348.566875 54.570437 
" style="fill:none;stroke:#e24a33;stroke-linecap:square;stroke-width:0.3;"/>
    </g>
    <g id="line2d_34"/>
    <g id="text_19">
     <!-- scott -->
     <g transform="translate(356.566875 58.070437)scale(0.1 -0.1)">
      <use xlink:href="#DejaVuSans-73"/>
      <use x="52.099609" xlink:href="#DejaVuSans-63"/>
      <use x="107.080078" xlink:href="#DejaVuSans-6f"/>
      <use x="168.261719" xlink:href="#DejaVuSans-74"/>
      <use x="207.470703" xlink:href="#DejaVuSans-74"/>
     </g>
    </g>
    <g id="line2d_35">
     <path d="M 328.566875 69.248562 
L 348.566875 69.248562 
" style="fill:none;stroke:#348abd;stroke-linecap:square;stroke-width:0.3;"/>
    </g>
    <g id="line2d_36"/>
    <g id="text_20">
     <!-- silverman -->
     <defs>
      <path d="M 2.984375 54.6875 
L 12.5 54.6875 
L 29.59375 8.796875 
L 46.6875 54.6875 
L 56.203125 54.6875 
L 35.6875 0 
L 23.484375 0 
z
" id="DejaVuSans-76"/>
     </defs>
     <g transform="translate(356.566875 72.748562)scale(0.1 -0.1)">
      <use xlink:href="#DejaVuSans-73"/>
      <use x="52.099609" xlink:href="#DejaVuSans-69"/>
      <use x="79.882812" xlink:href="#DejaVuSans-6c"/>
      <use x="107.666016" xlink:href="#DejaVuSans-76"/>
      <use x="166.845703" xlink:href="#DejaVuSans-65"/>
      <use x="228.369141" xlink:href="#DejaVuSans-72"/>
      <use x="269.466797" xlink:href="#DejaVuSans-6d"/>
      <use x="366.878906" xlink:href="#DejaVuSans-61"/>
      <use x="428.158203" xlink:href="#DejaVuSans-6e"/>
     </g>
    </g>
   </g>
  </g>
 </g>
 <defs>
  <clipPath id="p28e9888eaf">
   <rect height="266.112" width="357.12" x="57.6" y="41.472"/>
  </clipPath>
 </defs>
</svg>
