<?xml version="1.0" encoding="utf-8" standalone="no"?>
<!DOCTYPE svg PUBLIC "-//W3C//DTD SVG 1.1//EN"
  "http://www.w3.org/Graphics/SVG/1.1/DTD/svg11.dtd">
<!-- Created with matplotlib (http://matplotlib.org/) -->
<svg height="345pt" version="1.1" viewBox="0 0 460 345" width="460pt" xmlns="http://www.w3.org/2000/svg" xmlns:xlink="http://www.w3.org/1999/xlink">
 <defs>
  <style type="text/css">
*{stroke-linecap:butt;stroke-linejoin:round;}
  </style>
 </defs>
 <g id="figure_1">
  <g id="patch_1">
   <path d="M 0 345.6 
L 460.8 345.6 
L 460.8 0 
L 0 0 
z
" style="fill:#ffffff;"/>
  </g>
  <g id="axes_1">
   <g id="patch_2">
    <path d="M 57.6 307.584 
L 414.72 307.584 
L 414.72 41.472 
L 57.6 41.472 
z
" style="fill:#e5e5e5;"/>
   </g>
   <g id="matplotlib.axis_1">
    <g id="xtick_1">
     <g id="line2d_1">
      <path clip-path="url(#p01e655fbdc)" d="M 76.78444 307.584 
L 76.78444 41.472 
" style="fill:none;stroke:#ffffff;stroke-linecap:square;stroke-width:0.8;"/>
     </g>
     <g id="line2d_2">
      <defs>
       <path d="M 0 0 
L 0 3.5 
" id="medab93a0b5" style="stroke:#555555;stroke-width:0.8;"/>
      </defs>
      <g>
       <use style="fill:#555555;stroke:#555555;stroke-width:0.8;" x="76.78444" xlink:href="#medab93a0b5" y="307.584"/>
      </g>
     </g>
     <g id="text_1">
      <!-- −500 -->
      <defs>
       <path d="M 10.59375 35.5 
L 73.1875 35.5 
L 73.1875 27.203125 
L 10.59375 27.203125 
z
" id="DejaVuSans-2212"/>
       <path d="M 10.796875 72.90625 
L 49.515625 72.90625 
L 49.515625 64.59375 
L 19.828125 64.59375 
L 19.828125 46.734375 
Q 21.96875 47.46875 24.109375 47.828125 
Q 26.265625 48.1875 28.421875 48.1875 
Q 40.625 48.1875 47.75 41.5 
Q 54.890625 34.8125 54.890625 23.390625 
Q 54.890625 11.625 47.5625 5.09375 
Q 40.234375 -1.421875 26.90625 -1.421875 
Q 22.3125 -1.421875 17.546875 -0.640625 
Q 12.796875 0.140625 7.71875 1.703125 
L 7.71875 11.625 
Q 12.109375 9.234375 16.796875 8.0625 
Q 21.484375 6.890625 26.703125 6.890625 
Q 35.15625 6.890625 40.078125 11.328125 
Q 45.015625 15.765625 45.015625 23.390625 
Q 45.015625 31 40.078125 35.4375 
Q 35.15625 39.890625 26.703125 39.890625 
Q 22.75 39.890625 18.8125 39.015625 
Q 14.890625 38.140625 10.796875 36.28125 
z
" id="DejaVuSans-35"/>
       <path d="M 31.78125 66.40625 
Q 24.171875 66.40625 20.328125 58.90625 
Q 16.5 51.421875 16.5 36.375 
Q 16.5 21.390625 20.328125 13.890625 
Q 24.171875 6.390625 31.78125 6.390625 
Q 39.453125 6.390625 43.28125 13.890625 
Q 47.125 21.390625 47.125 36.375 
Q 47.125 51.421875 43.28125 58.90625 
Q 39.453125 66.40625 31.78125 66.40625 
z
M 31.78125 74.21875 
Q 44.046875 74.21875 50.515625 64.515625 
Q 56.984375 54.828125 56.984375 36.375 
Q 56.984375 17.96875 50.515625 8.265625 
Q 44.046875 -1.421875 31.78125 -1.421875 
Q 19.53125 -1.421875 13.0625 8.265625 
Q 6.59375 17.96875 6.59375 36.375 
Q 6.59375 54.828125 13.0625 64.515625 
Q 19.53125 74.21875 31.78125 74.21875 
z
" id="DejaVuSans-30"/>
      </defs>
      <g style="fill:#555555;" transform="translate(63.050846 322.182437)scale(0.1 -0.1)">
       <use xlink:href="#DejaVuSans-2212"/>
       <use x="83.789062" xlink:href="#DejaVuSans-35"/>
       <use x="147.412109" xlink:href="#DejaVuSans-30"/>
       <use x="211.035156" xlink:href="#DejaVuSans-30"/>
      </g>
     </g>
    </g>
    <g id="xtick_2">
     <g id="line2d_3">
      <path clip-path="url(#p01e655fbdc)" d="M 118.958444 307.584 
L 118.958444 41.472 
" style="fill:none;stroke:#ffffff;stroke-linecap:square;stroke-width:0.8;"/>
     </g>
     <g id="line2d_4">
      <g>
       <use style="fill:#555555;stroke:#555555;stroke-width:0.8;" x="118.958444" xlink:href="#medab93a0b5" y="307.584"/>
      </g>
     </g>
     <g id="text_2">
      <!-- 0 -->
      <g style="fill:#555555;" transform="translate(115.777194 322.182437)scale(0.1 -0.1)">
       <use xlink:href="#DejaVuSans-30"/>
      </g>
     </g>
    </g>
    <g id="xtick_3">
     <g id="line2d_5">
      <path clip-path="url(#p01e655fbdc)" d="M 161.132447 307.584 
L 161.132447 41.472 
" style="fill:none;stroke:#ffffff;stroke-linecap:square;stroke-width:0.8;"/>
     </g>
     <g id="line2d_6">
      <g>
       <use style="fill:#555555;stroke:#555555;stroke-width:0.8;" x="161.132447" xlink:href="#medab93a0b5" y="307.584"/>
      </g>
     </g>
     <g id="text_3">
      <!-- 500 -->
      <g style="fill:#555555;" transform="translate(151.588697 322.182437)scale(0.1 -0.1)">
       <use xlink:href="#DejaVuSans-35"/>
       <use x="63.623047" xlink:href="#DejaVuSans-30"/>
       <use x="127.246094" xlink:href="#DejaVuSans-30"/>
      </g>
     </g>
    </g>
    <g id="xtick_4">
     <g id="line2d_7">
      <path clip-path="url(#p01e655fbdc)" d="M 203.306451 307.584 
L 203.306451 41.472 
" style="fill:none;stroke:#ffffff;stroke-linecap:square;stroke-width:0.8;"/>
     </g>
     <g id="line2d_8">
      <g>
       <use style="fill:#555555;stroke:#555555;stroke-width:0.8;" x="203.306451" xlink:href="#medab93a0b5" y="307.584"/>
      </g>
     </g>
     <g id="text_4">
      <!-- 1000 -->
      <defs>
       <path d="M 12.40625 8.296875 
L 28.515625 8.296875 
L 28.515625 63.921875 
L 10.984375 60.40625 
L 10.984375 69.390625 
L 28.421875 72.90625 
L 38.28125 72.90625 
L 38.28125 8.296875 
L 54.390625 8.296875 
L 54.390625 0 
L 12.40625 0 
z
" id="DejaVuSans-31"/>
      </defs>
      <g style="fill:#555555;" transform="translate(190.581451 322.182437)scale(0.1 -0.1)">
       <use xlink:href="#DejaVuSans-31"/>
       <use x="63.623047" xlink:href="#DejaVuSans-30"/>
       <use x="127.246094" xlink:href="#DejaVuSans-30"/>
       <use x="190.869141" xlink:href="#DejaVuSans-30"/>
      </g>
     </g>
    </g>
    <g id="xtick_5">
     <g id="line2d_9">
      <path clip-path="url(#p01e655fbdc)" d="M 245.480455 307.584 
L 245.480455 41.472 
" style="fill:none;stroke:#ffffff;stroke-linecap:square;stroke-width:0.8;"/>
     </g>
     <g id="line2d_10">
      <g>
       <use style="fill:#555555;stroke:#555555;stroke-width:0.8;" x="245.480455" xlink:href="#medab93a0b5" y="307.584"/>
      </g>
     </g>
     <g id="text_5">
      <!-- 1500 -->
      <g style="fill:#555555;" transform="translate(232.755455 322.182437)scale(0.1 -0.1)">
       <use xlink:href="#DejaVuSans-31"/>
       <use x="63.623047" xlink:href="#DejaVuSans-35"/>
       <use x="127.246094" xlink:href="#DejaVuSans-30"/>
       <use x="190.869141" xlink:href="#DejaVuSans-30"/>
      </g>
     </g>
    </g>
    <g id="xtick_6">
     <g id="line2d_11">
      <path clip-path="url(#p01e655fbdc)" d="M 287.654459 307.584 
L 287.654459 41.472 
" style="fill:none;stroke:#ffffff;stroke-linecap:square;stroke-width:0.8;"/>
     </g>
     <g id="line2d_12">
      <g>
       <use style="fill:#555555;stroke:#555555;stroke-width:0.8;" x="287.654459" xlink:href="#medab93a0b5" y="307.584"/>
      </g>
     </g>
     <g id="text_6">
      <!-- 2000 -->
      <defs>
       <path d="M 19.1875 8.296875 
L 53.609375 8.296875 
L 53.609375 0 
L 7.328125 0 
L 7.328125 8.296875 
Q 12.9375 14.109375 22.625 23.890625 
Q 32.328125 33.6875 34.8125 36.53125 
Q 39.546875 41.84375 41.421875 45.53125 
Q 43.3125 49.21875 43.3125 52.78125 
Q 43.3125 58.59375 39.234375 62.25 
Q 35.15625 65.921875 28.609375 65.921875 
Q 23.96875 65.921875 18.8125 64.3125 
Q 13.671875 62.703125 7.8125 59.421875 
L 7.8125 69.390625 
Q 13.765625 71.78125 18.9375 73 
Q 24.125 74.21875 28.421875 74.21875 
Q 39.75 74.21875 46.484375 68.546875 
Q 53.21875 62.890625 53.21875 53.421875 
Q 53.21875 48.921875 51.53125 44.890625 
Q 49.859375 40.875 45.40625 35.40625 
Q 44.1875 33.984375 37.640625 27.21875 
Q 31.109375 20.453125 19.1875 8.296875 
z
" id="DejaVuSans-32"/>
      </defs>
      <g style="fill:#555555;" transform="translate(274.929459 322.182437)scale(0.1 -0.1)">
       <use xlink:href="#DejaVuSans-32"/>
       <use x="63.623047" xlink:href="#DejaVuSans-30"/>
       <use x="127.246094" xlink:href="#DejaVuSans-30"/>
       <use x="190.869141" xlink:href="#DejaVuSans-30"/>
      </g>
     </g>
    </g>
    <g id="xtick_7">
     <g id="line2d_13">
      <path clip-path="url(#p01e655fbdc)" d="M 329.828462 307.584 
L 329.828462 41.472 
" style="fill:none;stroke:#ffffff;stroke-linecap:square;stroke-width:0.8;"/>
     </g>
     <g id="line2d_14">
      <g>
       <use style="fill:#555555;stroke:#555555;stroke-width:0.8;" x="329.828462" xlink:href="#medab93a0b5" y="307.584"/>
      </g>
     </g>
     <g id="text_7">
      <!-- 2500 -->
      <g style="fill:#555555;" transform="translate(317.103462 322.182437)scale(0.1 -0.1)">
       <use xlink:href="#DejaVuSans-32"/>
       <use x="63.623047" xlink:href="#DejaVuSans-35"/>
       <use x="127.246094" xlink:href="#DejaVuSans-30"/>
       <use x="190.869141" xlink:href="#DejaVuSans-30"/>
      </g>
     </g>
    </g>
    <g id="xtick_8">
     <g id="line2d_15">
      <path clip-path="url(#p01e655fbdc)" d="M 372.002466 307.584 
L 372.002466 41.472 
" style="fill:none;stroke:#ffffff;stroke-linecap:square;stroke-width:0.8;"/>
     </g>
     <g id="line2d_16">
      <g>
       <use style="fill:#555555;stroke:#555555;stroke-width:0.8;" x="372.002466" xlink:href="#medab93a0b5" y="307.584"/>
      </g>
     </g>
     <g id="text_8">
      <!-- 3000 -->
      <defs>
       <path d="M 40.578125 39.3125 
Q 47.65625 37.796875 51.625 33 
Q 55.609375 28.21875 55.609375 21.1875 
Q 55.609375 10.40625 48.1875 4.484375 
Q 40.765625 -1.421875 27.09375 -1.421875 
Q 22.515625 -1.421875 17.65625 -0.515625 
Q 12.796875 0.390625 7.625 2.203125 
L 7.625 11.71875 
Q 11.71875 9.328125 16.59375 8.109375 
Q 21.484375 6.890625 26.8125 6.890625 
Q 36.078125 6.890625 40.9375 10.546875 
Q 45.796875 14.203125 45.796875 21.1875 
Q 45.796875 27.640625 41.28125 31.265625 
Q 36.765625 34.90625 28.71875 34.90625 
L 20.21875 34.90625 
L 20.21875 43.015625 
L 29.109375 43.015625 
Q 36.375 43.015625 40.234375 45.921875 
Q 44.09375 48.828125 44.09375 54.296875 
Q 44.09375 59.90625 40.109375 62.90625 
Q 36.140625 65.921875 28.71875 65.921875 
Q 24.65625 65.921875 20.015625 65.03125 
Q 15.375 64.15625 9.8125 62.3125 
L 9.8125 71.09375 
Q 15.4375 72.65625 20.34375 73.4375 
Q 25.25 74.21875 29.59375 74.21875 
Q 40.828125 74.21875 47.359375 69.109375 
Q 53.90625 64.015625 53.90625 55.328125 
Q 53.90625 49.265625 50.4375 45.09375 
Q 46.96875 40.921875 40.578125 39.3125 
z
" id="DejaVuSans-33"/>
      </defs>
      <g style="fill:#555555;" transform="translate(359.277466 322.182437)scale(0.1 -0.1)">
       <use xlink:href="#DejaVuSans-33"/>
       <use x="63.623047" xlink:href="#DejaVuSans-30"/>
       <use x="127.246094" xlink:href="#DejaVuSans-30"/>
       <use x="190.869141" xlink:href="#DejaVuSans-30"/>
      </g>
     </g>
    </g>
    <g id="xtick_9">
     <g id="line2d_17">
      <path clip-path="url(#p01e655fbdc)" d="M 414.17647 307.584 
L 414.17647 41.472 
" style="fill:none;stroke:#ffffff;stroke-linecap:square;stroke-width:0.8;"/>
     </g>
     <g id="line2d_18">
      <g>
       <use style="fill:#555555;stroke:#555555;stroke-width:0.8;" x="414.17647" xlink:href="#medab93a0b5" y="307.584"/>
      </g>
     </g>
     <g id="text_9">
      <!-- 3500 -->
      <g style="fill:#555555;" transform="translate(401.45147 322.182437)scale(0.1 -0.1)">
       <use xlink:href="#DejaVuSans-33"/>
       <use x="63.623047" xlink:href="#DejaVuSans-35"/>
       <use x="127.246094" xlink:href="#DejaVuSans-30"/>
       <use x="190.869141" xlink:href="#DejaVuSans-30"/>
      </g>
     </g>
    </g>
    <g id="text_10">
     <!-- count -->
     <defs>
      <path d="M 48.78125 52.59375 
L 48.78125 44.1875 
Q 44.96875 46.296875 41.140625 47.34375 
Q 37.3125 48.390625 33.40625 48.390625 
Q 24.65625 48.390625 19.8125 42.84375 
Q 14.984375 37.3125 14.984375 27.296875 
Q 14.984375 17.28125 19.8125 11.734375 
Q 24.65625 6.203125 33.40625 6.203125 
Q 37.3125 6.203125 41.140625 7.25 
Q 44.96875 8.296875 48.78125 10.40625 
L 48.78125 2.09375 
Q 45.015625 0.34375 40.984375 -0.53125 
Q 36.96875 -1.421875 32.421875 -1.421875 
Q 20.0625 -1.421875 12.78125 6.34375 
Q 5.515625 14.109375 5.515625 27.296875 
Q 5.515625 40.671875 12.859375 48.328125 
Q 20.21875 56 33.015625 56 
Q 37.15625 56 41.109375 55.140625 
Q 45.0625 54.296875 48.78125 52.59375 
z
" id="DejaVuSans-63"/>
      <path d="M 30.609375 48.390625 
Q 23.390625 48.390625 19.1875 42.75 
Q 14.984375 37.109375 14.984375 27.296875 
Q 14.984375 17.484375 19.15625 11.84375 
Q 23.34375 6.203125 30.609375 6.203125 
Q 37.796875 6.203125 41.984375 11.859375 
Q 46.1875 17.53125 46.1875 27.296875 
Q 46.1875 37.015625 41.984375 42.703125 
Q 37.796875 48.390625 30.609375 48.390625 
z
M 30.609375 56 
Q 42.328125 56 49.015625 48.375 
Q 55.71875 40.765625 55.71875 27.296875 
Q 55.71875 13.875 49.015625 6.21875 
Q 42.328125 -1.421875 30.609375 -1.421875 
Q 18.84375 -1.421875 12.171875 6.21875 
Q 5.515625 13.875 5.515625 27.296875 
Q 5.515625 40.765625 12.171875 48.375 
Q 18.84375 56 30.609375 56 
z
" id="DejaVuSans-6f"/>
      <path d="M 8.5 21.578125 
L 8.5 54.6875 
L 17.484375 54.6875 
L 17.484375 21.921875 
Q 17.484375 14.15625 20.5 10.265625 
Q 23.53125 6.390625 29.59375 6.390625 
Q 36.859375 6.390625 41.078125 11.03125 
Q 45.3125 15.671875 45.3125 23.6875 
L 45.3125 54.6875 
L 54.296875 54.6875 
L 54.296875 0 
L 45.3125 0 
L 45.3125 8.40625 
Q 42.046875 3.421875 37.71875 1 
Q 33.40625 -1.421875 27.6875 -1.421875 
Q 18.265625 -1.421875 13.375 4.4375 
Q 8.5 10.296875 8.5 21.578125 
z
M 31.109375 56 
z
" id="DejaVuSans-75"/>
      <path d="M 54.890625 33.015625 
L 54.890625 0 
L 45.90625 0 
L 45.90625 32.71875 
Q 45.90625 40.484375 42.875 44.328125 
Q 39.84375 48.1875 33.796875 48.1875 
Q 26.515625 48.1875 22.3125 43.546875 
Q 18.109375 38.921875 18.109375 30.90625 
L 18.109375 0 
L 9.078125 0 
L 9.078125 54.6875 
L 18.109375 54.6875 
L 18.109375 46.1875 
Q 21.34375 51.125 25.703125 53.5625 
Q 30.078125 56 35.796875 56 
Q 45.21875 56 50.046875 50.171875 
Q 54.890625 44.34375 54.890625 33.015625 
z
" id="DejaVuSans-6e"/>
      <path d="M 18.3125 70.21875 
L 18.3125 54.6875 
L 36.8125 54.6875 
L 36.8125 47.703125 
L 18.3125 47.703125 
L 18.3125 18.015625 
Q 18.3125 11.328125 20.140625 9.421875 
Q 21.96875 7.515625 27.59375 7.515625 
L 36.8125 7.515625 
L 36.8125 0 
L 27.59375 0 
Q 17.1875 0 13.234375 3.875 
Q 9.28125 7.765625 9.28125 18.015625 
L 9.28125 47.703125 
L 2.6875 47.703125 
L 2.6875 54.6875 
L 9.28125 54.6875 
L 9.28125 70.21875 
z
" id="DejaVuSans-74"/>
     </defs>
     <g style="fill:#555555;" transform="translate(219.2325 337.38025)scale(0.12 -0.12)">
      <use xlink:href="#DejaVuSans-63"/>
      <use x="54.980469" xlink:href="#DejaVuSans-6f"/>
      <use x="116.162109" xlink:href="#DejaVuSans-75"/>
      <use x="179.541016" xlink:href="#DejaVuSans-6e"/>
      <use x="242.919922" xlink:href="#DejaVuSans-74"/>
     </g>
    </g>
   </g>
   <g id="matplotlib.axis_2">
    <g id="ytick_1">
     <g id="line2d_19">
      <path clip-path="url(#p01e655fbdc)" d="M 57.6 307.584 
L 414.72 307.584 
" style="fill:none;stroke:#ffffff;stroke-linecap:square;stroke-width:0.8;"/>
     </g>
     <g id="line2d_20">
      <defs>
       <path d="M 0 0 
L -3.5 0 
" id="mf4f1e1e127" style="stroke:#555555;stroke-width:0.8;"/>
      </defs>
      <g>
       <use style="fill:#555555;stroke:#555555;stroke-width:0.8;" x="57.6" xlink:href="#mf4f1e1e127" y="307.584"/>
      </g>
     </g>
     <g id="text_11">
      <!-- 0.0000 -->
      <defs>
       <path d="M 10.6875 12.40625 
L 21 12.40625 
L 21 0 
L 10.6875 0 
z
" id="DejaVuSans-2e"/>
      </defs>
      <g style="fill:#555555;" transform="translate(15.609375 311.383219)scale(0.1 -0.1)">
       <use xlink:href="#DejaVuSans-30"/>
       <use x="63.623047" xlink:href="#DejaVuSans-2e"/>
       <use x="95.410156" xlink:href="#DejaVuSans-30"/>
       <use x="159.033203" xlink:href="#DejaVuSans-30"/>
       <use x="222.65625" xlink:href="#DejaVuSans-30"/>
       <use x="286.279297" xlink:href="#DejaVuSans-30"/>
      </g>
     </g>
    </g>
    <g id="ytick_2">
     <g id="line2d_21">
      <path clip-path="url(#p01e655fbdc)" d="M 57.6 265.259689 
L 414.72 265.259689 
" style="fill:none;stroke:#ffffff;stroke-linecap:square;stroke-width:0.8;"/>
     </g>
     <g id="line2d_22">
      <g>
       <use style="fill:#555555;stroke:#555555;stroke-width:0.8;" x="57.6" xlink:href="#mf4f1e1e127" y="265.259689"/>
      </g>
     </g>
     <g id="text_12">
      <!-- 0.0001 -->
      <g style="fill:#555555;" transform="translate(15.609375 269.058908)scale(0.1 -0.1)">
       <use xlink:href="#DejaVuSans-30"/>
       <use x="63.623047" xlink:href="#DejaVuSans-2e"/>
       <use x="95.410156" xlink:href="#DejaVuSans-30"/>
       <use x="159.033203" xlink:href="#DejaVuSans-30"/>
       <use x="222.65625" xlink:href="#DejaVuSans-30"/>
       <use x="286.279297" xlink:href="#DejaVuSans-31"/>
      </g>
     </g>
    </g>
    <g id="ytick_3">
     <g id="line2d_23">
      <path clip-path="url(#p01e655fbdc)" d="M 57.6 222.935378 
L 414.72 222.935378 
" style="fill:none;stroke:#ffffff;stroke-linecap:square;stroke-width:0.8;"/>
     </g>
     <g id="line2d_24">
      <g>
       <use style="fill:#555555;stroke:#555555;stroke-width:0.8;" x="57.6" xlink:href="#mf4f1e1e127" y="222.935378"/>
      </g>
     </g>
     <g id="text_13">
      <!-- 0.0002 -->
      <g style="fill:#555555;" transform="translate(15.609375 226.734596)scale(0.1 -0.1)">
       <use xlink:href="#DejaVuSans-30"/>
       <use x="63.623047" xlink:href="#DejaVuSans-2e"/>
       <use x="95.410156" xlink:href="#DejaVuSans-30"/>
       <use x="159.033203" xlink:href="#DejaVuSans-30"/>
       <use x="222.65625" xlink:href="#DejaVuSans-30"/>
       <use x="286.279297" xlink:href="#DejaVuSans-32"/>
      </g>
     </g>
    </g>
    <g id="ytick_4">
     <g id="line2d_25">
      <path clip-path="url(#p01e655fbdc)" d="M 57.6 180.611067 
L 414.72 180.611067 
" style="fill:none;stroke:#ffffff;stroke-linecap:square;stroke-width:0.8;"/>
     </g>
     <g id="line2d_26">
      <g>
       <use style="fill:#555555;stroke:#555555;stroke-width:0.8;" x="57.6" xlink:href="#mf4f1e1e127" y="180.611067"/>
      </g>
     </g>
     <g id="text_14">
      <!-- 0.0003 -->
      <g style="fill:#555555;" transform="translate(15.609375 184.410285)scale(0.1 -0.1)">
       <use xlink:href="#DejaVuSans-30"/>
       <use x="63.623047" xlink:href="#DejaVuSans-2e"/>
       <use x="95.410156" xlink:href="#DejaVuSans-30"/>
       <use x="159.033203" xlink:href="#DejaVuSans-30"/>
       <use x="222.65625" xlink:href="#DejaVuSans-30"/>
       <use x="286.279297" xlink:href="#DejaVuSans-33"/>
      </g>
     </g>
    </g>
    <g id="ytick_5">
     <g id="line2d_27">
      <path clip-path="url(#p01e655fbdc)" d="M 57.6 138.286755 
L 414.72 138.286755 
" style="fill:none;stroke:#ffffff;stroke-linecap:square;stroke-width:0.8;"/>
     </g>
     <g id="line2d_28">
      <g>
       <use style="fill:#555555;stroke:#555555;stroke-width:0.8;" x="57.6" xlink:href="#mf4f1e1e127" y="138.286755"/>
      </g>
     </g>
     <g id="text_15">
      <!-- 0.0004 -->
      <defs>
       <path d="M 37.796875 64.3125 
L 12.890625 25.390625 
L 37.796875 25.390625 
z
M 35.203125 72.90625 
L 47.609375 72.90625 
L 47.609375 25.390625 
L 58.015625 25.390625 
L 58.015625 17.1875 
L 47.609375 17.1875 
L 47.609375 0 
L 37.796875 0 
L 37.796875 17.1875 
L 4.890625 17.1875 
L 4.890625 26.703125 
z
" id="DejaVuSans-34"/>
      </defs>
      <g style="fill:#555555;" transform="translate(15.609375 142.085974)scale(0.1 -0.1)">
       <use xlink:href="#DejaVuSans-30"/>
       <use x="63.623047" xlink:href="#DejaVuSans-2e"/>
       <use x="95.410156" xlink:href="#DejaVuSans-30"/>
       <use x="159.033203" xlink:href="#DejaVuSans-30"/>
       <use x="222.65625" xlink:href="#DejaVuSans-30"/>
       <use x="286.279297" xlink:href="#DejaVuSans-34"/>
      </g>
     </g>
    </g>
    <g id="ytick_6">
     <g id="line2d_29">
      <path clip-path="url(#p01e655fbdc)" d="M 57.6 95.962444 
L 414.72 95.962444 
" style="fill:none;stroke:#ffffff;stroke-linecap:square;stroke-width:0.8;"/>
     </g>
     <g id="line2d_30">
      <g>
       <use style="fill:#555555;stroke:#555555;stroke-width:0.8;" x="57.6" xlink:href="#mf4f1e1e127" y="95.962444"/>
      </g>
     </g>
     <g id="text_16">
      <!-- 0.0005 -->
      <g style="fill:#555555;" transform="translate(15.609375 99.761663)scale(0.1 -0.1)">
       <use xlink:href="#DejaVuSans-30"/>
       <use x="63.623047" xlink:href="#DejaVuSans-2e"/>
       <use x="95.410156" xlink:href="#DejaVuSans-30"/>
       <use x="159.033203" xlink:href="#DejaVuSans-30"/>
       <use x="222.65625" xlink:href="#DejaVuSans-30"/>
       <use x="286.279297" xlink:href="#DejaVuSans-35"/>
      </g>
     </g>
    </g>
    <g id="ytick_7">
     <g id="line2d_31">
      <path clip-path="url(#p01e655fbdc)" d="M 57.6 53.638133 
L 414.72 53.638133 
" style="fill:none;stroke:#ffffff;stroke-linecap:square;stroke-width:0.8;"/>
     </g>
     <g id="line2d_32">
      <g>
       <use style="fill:#555555;stroke:#555555;stroke-width:0.8;" x="57.6" xlink:href="#mf4f1e1e127" y="53.638133"/>
      </g>
     </g>
     <g id="text_17">
      <!-- 0.0006 -->
      <defs>
       <path d="M 33.015625 40.375 
Q 26.375 40.375 22.484375 35.828125 
Q 18.609375 31.296875 18.609375 23.390625 
Q 18.609375 15.53125 22.484375 10.953125 
Q 26.375 6.390625 33.015625 6.390625 
Q 39.65625 6.390625 43.53125 10.953125 
Q 47.40625 15.53125 47.40625 23.390625 
Q 47.40625 31.296875 43.53125 35.828125 
Q 39.65625 40.375 33.015625 40.375 
z
M 52.59375 71.296875 
L 52.59375 62.3125 
Q 48.875 64.0625 45.09375 64.984375 
Q 41.3125 65.921875 37.59375 65.921875 
Q 27.828125 65.921875 22.671875 59.328125 
Q 17.53125 52.734375 16.796875 39.40625 
Q 19.671875 43.65625 24.015625 45.921875 
Q 28.375 48.1875 33.59375 48.1875 
Q 44.578125 48.1875 50.953125 41.515625 
Q 57.328125 34.859375 57.328125 23.390625 
Q 57.328125 12.15625 50.6875 5.359375 
Q 44.046875 -1.421875 33.015625 -1.421875 
Q 20.359375 -1.421875 13.671875 8.265625 
Q 6.984375 17.96875 6.984375 36.375 
Q 6.984375 53.65625 15.1875 63.9375 
Q 23.390625 74.21875 37.203125 74.21875 
Q 40.921875 74.21875 44.703125 73.484375 
Q 48.484375 72.75 52.59375 71.296875 
z
" id="DejaVuSans-36"/>
      </defs>
      <g style="fill:#555555;" transform="translate(15.609375 57.437352)scale(0.1 -0.1)">
       <use xlink:href="#DejaVuSans-30"/>
       <use x="63.623047" xlink:href="#DejaVuSans-2e"/>
       <use x="95.410156" xlink:href="#DejaVuSans-30"/>
       <use x="159.033203" xlink:href="#DejaVuSans-30"/>
       <use x="222.65625" xlink:href="#DejaVuSans-30"/>
       <use x="286.279297" xlink:href="#DejaVuSans-36"/>
      </g>
     </g>
    </g>
    <g id="text_18">
     <!-- f(count) -->
     <defs>
      <path d="M 37.109375 75.984375 
L 37.109375 68.5 
L 28.515625 68.5 
Q 23.6875 68.5 21.796875 66.546875 
Q 19.921875 64.59375 19.921875 59.515625 
L 19.921875 54.6875 
L 34.71875 54.6875 
L 34.71875 47.703125 
L 19.921875 47.703125 
L 19.921875 0 
L 10.890625 0 
L 10.890625 47.703125 
L 2.296875 47.703125 
L 2.296875 54.6875 
L 10.890625 54.6875 
L 10.890625 58.5 
Q 10.890625 67.625 15.140625 71.796875 
Q 19.390625 75.984375 28.609375 75.984375 
z
" id="DejaVuSans-66"/>
      <path d="M 31 75.875 
Q 24.46875 64.65625 21.28125 53.65625 
Q 18.109375 42.671875 18.109375 31.390625 
Q 18.109375 20.125 21.3125 9.0625 
Q 24.515625 -2 31 -13.1875 
L 23.1875 -13.1875 
Q 15.875 -1.703125 12.234375 9.375 
Q 8.59375 20.453125 8.59375 31.390625 
Q 8.59375 42.28125 12.203125 53.3125 
Q 15.828125 64.359375 23.1875 75.875 
z
" id="DejaVuSans-28"/>
      <path d="M 8.015625 75.875 
L 15.828125 75.875 
Q 23.140625 64.359375 26.78125 53.3125 
Q 30.421875 42.28125 30.421875 31.390625 
Q 30.421875 20.453125 26.78125 9.375 
Q 23.140625 -1.703125 15.828125 -13.1875 
L 8.015625 -13.1875 
Q 14.5 -2 17.703125 9.0625 
Q 20.90625 20.125 20.90625 31.390625 
Q 20.90625 42.671875 17.703125 53.65625 
Q 14.5 64.65625 8.015625 75.875 
z
" id="DejaVuSans-29"/>
     </defs>
     <g style="fill:#555555;" transform="translate(9.11375 198.249562)rotate(-90)scale(0.12 -0.12)">
      <use xlink:href="#DejaVuSans-66"/>
      <use x="35.205078" xlink:href="#DejaVuSans-28"/>
      <use x="74.21875" xlink:href="#DejaVuSans-63"/>
      <use x="129.199219" xlink:href="#DejaVuSans-6f"/>
      <use x="190.380859" xlink:href="#DejaVuSans-75"/>
      <use x="253.759766" xlink:href="#DejaVuSans-6e"/>
      <use x="317.138672" xlink:href="#DejaVuSans-74"/>
      <use x="356.347656" xlink:href="#DejaVuSans-29"/>
     </g>
    </g>
   </g>
   <g id="PolyCollection_1">
    <path clip-path="url(#p01e655fbdc)" d="M 76.506734 307.02642 
L 76.506734 307.584 
L 79.732052 307.584 
L 82.957371 307.584 
L 86.182689 307.584 
L 89.408008 307.584 
L 92.633326 307.584 
L 95.858645 307.584 
L 99.083963 307.584 
L 102.309282 307.584 
L 105.5346 307.584 
L 108.759919 307.584 
L 111.985237 307.584 
L 115.210556 307.584 
L 118.435874 307.584 
L 121.661193 307.584 
L 124.886511 307.584 
L 128.11183 307.584 
L 131.337148 307.584 
L 134.562467 307.584 
L 137.787785 307.584 
L 141.013104 307.584 
L 144.238422 307.584 
L 147.463741 307.584 
L 150.68906 307.584 
L 153.914378 307.584 
L 157.139697 307.584 
L 160.365015 307.584 
L 163.590334 307.584 
L 166.815652 307.584 
L 170.040971 307.584 
L 173.266289 307.584 
L 176.491608 307.584 
L 179.716926 307.584 
L 182.942245 307.584 
L 186.167563 307.584 
L 189.392882 307.584 
L 192.6182 307.584 
L 195.843519 307.584 
L 199.068837 307.584 
L 202.294156 307.584 
L 205.519474 307.584 
L 208.744793 307.584 
L 211.970111 307.584 
L 215.19543 307.584 
L 218.420748 307.584 
L 221.646067 307.584 
L 224.871385 307.584 
L 228.096704 307.584 
L 231.322022 307.584 
L 234.547341 307.584 
L 237.772659 307.584 
L 240.997978 307.584 
L 244.223296 307.584 
L 247.448615 307.584 
L 250.673933 307.584 
L 253.899252 307.584 
L 257.12457 307.584 
L 260.349889 307.584 
L 263.575207 307.584 
L 266.800526 307.584 
L 270.025844 307.584 
L 273.251163 307.584 
L 276.476481 307.584 
L 279.7018 307.584 
L 282.927118 307.584 
L 286.152437 307.584 
L 289.377755 307.584 
L 292.603074 307.584 
L 295.828392 307.584 
L 299.053711 307.584 
L 302.279029 307.584 
L 305.504348 307.584 
L 308.729666 307.584 
L 311.954985 307.584 
L 315.180303 307.584 
L 318.405622 307.584 
L 321.63094 307.584 
L 324.856259 307.584 
L 328.081578 307.584 
L 331.306896 307.584 
L 334.532215 307.584 
L 337.757533 307.584 
L 340.982852 307.584 
L 344.20817 307.584 
L 347.433489 307.584 
L 350.658807 307.584 
L 353.884126 307.584 
L 357.109444 307.584 
L 360.334763 307.584 
L 363.560081 307.584 
L 366.7854 307.584 
L 370.010718 307.584 
L 373.236037 307.584 
L 376.461355 307.584 
L 379.686674 307.584 
L 382.911992 307.584 
L 386.137311 307.584 
L 389.362629 307.584 
L 392.587948 307.584 
L 395.813266 307.584 
L 395.813266 307.542847 
L 395.813266 307.542847 
L 392.587948 307.506347 
L 389.362629 307.443855 
L 386.137311 307.341986 
L 382.911992 307.183879 
L 379.686674 306.950195 
L 376.461355 306.621112 
L 373.236037 306.179105 
L 370.010718 305.611834 
L 366.7854 304.914101 
L 363.560081 304.087839 
L 360.334763 303.139611 
L 357.109444 302.076119 
L 353.884126 300.899408 
L 350.658807 299.604148 
L 347.433489 298.178997 
L 344.20817 296.612321 
L 340.982852 294.899808 
L 337.757533 293.048903 
L 334.532215 291.073854 
L 331.306896 288.97671 
L 328.081578 286.714238 
L 324.856259 284.157303 
L 321.63094 281.055844 
L 318.405622 277.026248 
L 315.180303 271.57641 
L 311.954985 264.175939 
L 308.729666 254.365939 
L 305.504348 241.887905 
L 302.279029 226.799639 
L 299.053711 209.542825 
L 295.828392 190.935093 
L 292.603074 172.078225 
L 289.377755 154.198095 
L 286.152437 138.452543 
L 282.927118 125.752714 
L 279.7018 116.63763 
L 276.476481 111.223669 
L 273.251163 109.22809 
L 270.025844 110.048064 
L 266.800526 112.869755 
L 263.575207 116.785771 
L 260.349889 120.908415 
L 257.12457 124.473737 
L 253.899252 126.9329 
L 250.673933 128.023155 
L 247.448615 127.805103 
L 244.223296 126.651388 
L 240.997978 125.178022 
L 237.772659 124.122624 
L 234.547341 124.189606 
L 231.322022 125.894444 
L 228.096704 129.44226 
L 224.871385 134.668167 
L 221.646067 141.050698 
L 218.420748 147.791161 
L 215.19543 153.937521 
L 211.970111 158.525485 
L 208.744793 160.711915 
L 205.519474 159.883074 
L 202.294156 155.728139 
L 199.068837 148.274166 
L 195.843519 137.882485 
L 192.6182 125.209753 
L 189.392882 111.140882 
L 186.167563 96.70468 
L 182.942245 82.984143 
L 179.716926 71.030237 
L 176.491608 61.781968 
L 173.266289 55.990374 
L 170.040971 54.144 
L 166.815652 56.400094 
L 163.590334 62.536085 
L 160.365015 71.943492 
L 157.139697 83.684878 
L 153.914378 96.621392 
L 150.68906 109.597177 
L 147.463741 121.645432 
L 144.238422 132.167847 
L 141.013104 141.040426 
L 137.787785 148.614835 
L 134.562467 155.610926 
L 131.337148 162.924991 
L 128.11183 171.401181 
L 124.886511 181.623321 
L 121.661193 193.778125 
L 118.435874 207.620116 
L 115.210556 222.539769 
L 111.985237 237.708615 
L 108.759919 252.256952 
L 105.5346 265.436588 
L 102.309282 276.732116 
L 99.083963 285.904314 
L 95.858645 292.970288 
L 92.633326 298.140162 
L 89.408008 301.735933 
L 86.182689 304.115148 
L 82.957371 305.613701 
L 79.732052 306.512634 
L 76.506734 307.02642 
z
" style="fill:#e24a33;fill-opacity:0.25;"/>
   </g>
   <g id="PolyCollection_2">
    <path clip-path="url(#p01e655fbdc)" d="M 73.832727 307.041383 
L 73.832727 307.584 
L 77.112066 307.584 
L 80.391405 307.584 
L 83.670744 307.584 
L 86.950083 307.584 
L 90.229421 307.584 
L 93.50876 307.584 
L 96.788099 307.584 
L 100.067438 307.584 
L 103.346777 307.584 
L 106.626116 307.584 
L 109.905455 307.584 
L 113.184793 307.584 
L 116.464132 307.584 
L 119.743471 307.584 
L 123.02281 307.584 
L 126.302149 307.584 
L 129.581488 307.584 
L 132.860826 307.584 
L 136.140165 307.584 
L 139.419504 307.584 
L 142.698843 307.584 
L 145.978182 307.584 
L 149.257521 307.584 
L 152.53686 307.584 
L 155.816198 307.584 
L 159.095537 307.584 
L 162.374876 307.584 
L 165.654215 307.584 
L 168.933554 307.584 
L 172.212893 307.584 
L 175.492231 307.584 
L 178.77157 307.584 
L 182.050909 307.584 
L 185.330248 307.584 
L 188.609587 307.584 
L 191.888926 307.584 
L 195.168264 307.584 
L 198.447603 307.584 
L 201.726942 307.584 
L 205.006281 307.584 
L 208.28562 307.584 
L 211.564959 307.584 
L 214.844298 307.584 
L 218.123636 307.584 
L 221.402975 307.584 
L 224.682314 307.584 
L 227.961653 307.584 
L 231.240992 307.584 
L 234.520331 307.584 
L 237.799669 307.584 
L 241.079008 307.584 
L 244.358347 307.584 
L 247.637686 307.584 
L 250.917025 307.584 
L 254.196364 307.584 
L 257.475702 307.584 
L 260.755041 307.584 
L 264.03438 307.584 
L 267.313719 307.584 
L 270.593058 307.584 
L 273.872397 307.584 
L 277.151736 307.584 
L 280.431074 307.584 
L 283.710413 307.584 
L 286.989752 307.584 
L 290.269091 307.584 
L 293.54843 307.584 
L 296.827769 307.584 
L 300.107107 307.584 
L 303.386446 307.584 
L 306.665785 307.584 
L 309.945124 307.584 
L 313.224463 307.584 
L 316.503802 307.584 
L 319.78314 307.584 
L 323.062479 307.584 
L 326.341818 307.584 
L 329.621157 307.584 
L 332.900496 307.584 
L 336.179835 307.584 
L 339.459174 307.584 
L 342.738512 307.584 
L 346.017851 307.584 
L 349.29719 307.584 
L 352.576529 307.584 
L 355.855868 307.584 
L 359.135207 307.584 
L 362.414545 307.584 
L 365.693884 307.584 
L 368.973223 307.584 
L 372.252562 307.584 
L 375.531901 307.584 
L 378.81124 307.584 
L 382.090579 307.584 
L 385.369917 307.584 
L 388.649256 307.584 
L 391.928595 307.584 
L 395.207934 307.584 
L 398.487273 307.584 
L 398.487273 307.544589 
L 398.487273 307.544589 
L 395.207934 307.511405 
L 391.928595 307.455622 
L 388.649256 307.365952 
L 385.369917 307.228095 
L 382.090579 307.025327 
L 378.81124 306.739804 
L 375.531901 306.354474 
L 372.252562 305.855223 
L 368.973223 305.232588 
L 365.693884 304.48239 
L 362.414545 303.604811 
L 359.135207 302.602076 
L 355.855868 301.475556 
L 352.576529 300.223623 
L 349.29719 298.841458 
L 346.017851 297.323066 
L 342.738512 295.664163 
L 339.459174 293.862923 
L 336.179835 291.914722 
L 332.900496 289.79789 
L 329.621157 287.450359 
L 326.341818 284.741539 
L 323.062479 281.448444 
L 319.78314 277.247953 
L 316.503802 271.736472 
L 313.224463 264.483008 
L 309.945124 255.112505 
L 306.665785 243.405402 
L 303.386446 229.390427 
L 300.107107 213.404255 
L 296.827769 196.09632 
L 293.54843 178.369429 
L 290.269091 161.263569 
L 286.989752 145.806067 
L 283.710413 132.860458 
L 280.431074 123.005934 
L 277.151736 116.469638 
L 273.872397 113.119455 
L 270.593058 112.510874 
L 267.313719 113.972609 
L 264.03438 116.713202 
L 260.755041 119.933178 
L 257.475702 122.930974 
L 254.196364 125.192946 
L 250.917025 126.457729 
L 247.637686 126.744642 
L 244.358347 126.337508 
L 241.079008 125.721028 
L 237.799669 125.476378 
L 234.520331 126.1533 
L 231.240992 128.143715 
L 227.961653 131.583456 
L 224.682314 136.302974 
L 221.402975 141.836436 
L 218.123636 147.485311 
L 214.844298 152.421515 
L 211.564959 155.809215 
L 208.28562 156.924139 
L 205.006281 155.253176 
L 201.726942 150.562851 
L 198.447603 142.931202 
L 195.168264 132.742763 
L 191.888926 120.650645 
L 188.609587 107.51307 
L 185.330248 94.313436 
L 182.050909 82.072728 
L 178.77157 71.760938 
L 175.492231 64.211501 
L 172.212893 60.041779 
L 168.933554 59.584504 
L 165.654215 62.839522 
L 162.374876 69.459208 
L 159.095537 78.781063 
L 155.816198 89.914548 
L 152.53686 101.876548 
L 149.257521 113.754591 
L 145.978182 124.86474 
L 142.698843 134.86706 
L 139.419504 143.808595 
L 136.140165 152.08044 
L 132.860826 160.29741 
L 129.581488 169.129282 
L 126.302149 179.125389 
L 123.02281 190.575571 
L 119.743471 203.43956 
L 116.464132 217.357454 
L 113.184793 231.731942 
L 109.905455 245.855229 
L 106.626116 259.045249 
L 103.346777 270.758265 
L 100.067438 280.656261 
L 96.788099 288.62284 
L 93.50876 294.735354 
L 90.229421 299.209705 
L 86.950083 302.336486 
L 83.670744 304.423731 
L 80.391405 305.755325 
L 77.112066 306.567545 
L 73.832727 307.041383 
z
" style="fill:#348abd;fill-opacity:0.25;"/>
   </g>
   <g id="line2d_33">
    <path clip-path="url(#p01e655fbdc)" d="M 76.506734 307.02642 
L 79.732052 306.512634 
L 82.957371 305.613701 
L 86.182689 304.115148 
L 89.408008 301.735933 
L 92.633326 298.140162 
L 95.858645 292.970288 
L 99.083963 285.904314 
L 102.309282 276.732116 
L 105.5346 265.436588 
L 108.759919 252.256952 
L 111.985237 237.708615 
L 115.210556 222.539769 
L 118.435874 207.620116 
L 121.661193 193.778125 
L 124.886511 181.623321 
L 128.11183 171.401181 
L 131.337148 162.924991 
L 134.562467 155.610926 
L 137.787785 148.614835 
L 141.013104 141.040426 
L 144.238422 132.167847 
L 147.463741 121.645432 
L 150.68906 109.597177 
L 153.914378 96.621392 
L 157.139697 83.684878 
L 160.365015 71.943492 
L 163.590334 62.536085 
L 166.815652 56.400094 
L 170.040971 54.144 
L 173.266289 55.990374 
L 176.491608 61.781968 
L 179.716926 71.030237 
L 182.942245 82.984143 
L 186.167563 96.70468 
L 189.392882 111.140882 
L 192.6182 125.209753 
L 195.843519 137.882485 
L 199.068837 148.274166 
L 202.294156 155.728139 
L 205.519474 159.883074 
L 208.744793 160.711915 
L 211.970111 158.525485 
L 215.19543 153.937521 
L 218.420748 147.791161 
L 221.646067 141.050698 
L 224.871385 134.668167 
L 228.096704 129.44226 
L 231.322022 125.894444 
L 234.547341 124.189606 
L 237.772659 124.122624 
L 240.997978 125.178022 
L 244.223296 126.651388 
L 247.448615 127.805103 
L 250.673933 128.023155 
L 253.899252 126.9329 
L 257.12457 124.473737 
L 260.349889 120.908415 
L 263.575207 116.785771 
L 266.800526 112.869755 
L 270.025844 110.048064 
L 273.251163 109.22809 
L 276.476481 111.223669 
L 279.7018 116.63763 
L 282.927118 125.752714 
L 286.152437 138.452543 
L 289.377755 154.198095 
L 292.603074 172.078225 
L 295.828392 190.935093 
L 299.053711 209.542825 
L 302.279029 226.799639 
L 305.504348 241.887905 
L 308.729666 254.365939 
L 311.954985 264.175939 
L 315.180303 271.57641 
L 318.405622 277.026248 
L 321.63094 281.055844 
L 324.856259 284.157303 
L 328.081578 286.714238 
L 331.306896 288.97671 
L 334.532215 291.073854 
L 337.757533 293.048903 
L 340.982852 294.899808 
L 344.20817 296.612321 
L 347.433489 298.178997 
L 350.658807 299.604148 
L 353.884126 300.899408 
L 357.109444 302.076119 
L 360.334763 303.139611 
L 363.560081 304.087839 
L 366.7854 304.914101 
L 370.010718 305.611834 
L 373.236037 306.179105 
L 376.461355 306.621112 
L 379.686674 306.950195 
L 382.911992 307.183879 
L 386.137311 307.341986 
L 389.362629 307.443855 
L 392.587948 307.506347 
L 395.813266 307.542847 
" style="fill:none;stroke:#e24a33;stroke-linecap:square;stroke-width:0.3;"/>
   </g>
   <g id="line2d_34">
    <path clip-path="url(#p01e655fbdc)" d="M 73.832727 307.041383 
L 77.112066 306.567545 
L 80.391405 305.755325 
L 83.670744 304.423731 
L 86.950083 302.336486 
L 90.229421 299.209705 
L 93.50876 294.735354 
L 96.788099 288.62284 
L 100.067438 280.656261 
L 103.346777 270.758265 
L 106.626116 259.045249 
L 109.905455 245.855229 
L 113.184793 231.731942 
L 116.464132 217.357454 
L 119.743471 203.43956 
L 123.02281 190.575571 
L 126.302149 179.125389 
L 129.581488 169.129282 
L 132.860826 160.29741 
L 136.140165 152.08044 
L 139.419504 143.808595 
L 142.698843 134.86706 
L 145.978182 124.86474 
L 149.257521 113.754591 
L 152.53686 101.876548 
L 155.816198 89.914548 
L 159.095537 78.781063 
L 162.374876 69.459208 
L 165.654215 62.839522 
L 168.933554 59.584504 
L 172.212893 60.041779 
L 175.492231 64.211501 
L 178.77157 71.760938 
L 182.050909 82.072728 
L 185.330248 94.313436 
L 188.609587 107.51307 
L 191.888926 120.650645 
L 195.168264 132.742763 
L 198.447603 142.931202 
L 201.726942 150.562851 
L 205.006281 155.253176 
L 208.28562 156.924139 
L 211.564959 155.809215 
L 214.844298 152.421515 
L 218.123636 147.485311 
L 221.402975 141.836436 
L 224.682314 136.302974 
L 227.961653 131.583456 
L 231.240992 128.143715 
L 234.520331 126.1533 
L 237.799669 125.476378 
L 241.079008 125.721028 
L 244.358347 126.337508 
L 247.637686 126.744642 
L 250.917025 126.457729 
L 254.196364 125.192946 
L 257.475702 122.930974 
L 260.755041 119.933178 
L 264.03438 116.713202 
L 267.313719 113.972609 
L 270.593058 112.510874 
L 273.872397 113.119455 
L 277.151736 116.469638 
L 280.431074 123.005934 
L 283.710413 132.860458 
L 286.989752 145.806067 
L 290.269091 161.263569 
L 293.54843 178.369429 
L 296.827769 196.09632 
L 300.107107 213.404255 
L 303.386446 229.390427 
L 306.665785 243.405402 
L 309.945124 255.112505 
L 313.224463 264.483008 
L 316.503802 271.736472 
L 319.78314 277.247953 
L 323.062479 281.448444 
L 326.341818 284.741539 
L 329.621157 287.450359 
L 332.900496 289.79789 
L 336.179835 291.914722 
L 339.459174 293.862923 
L 342.738512 295.664163 
L 346.017851 297.323066 
L 349.29719 298.841458 
L 352.576529 300.223623 
L 355.855868 301.475556 
L 359.135207 302.602076 
L 362.414545 303.604811 
L 365.693884 304.48239 
L 368.973223 305.232588 
L 372.252562 305.855223 
L 375.531901 306.354474 
L 378.81124 306.739804 
L 382.090579 307.025327 
L 385.369917 307.228095 
L 388.649256 307.365952 
L 391.928595 307.455622 
L 395.207934 307.511405 
L 398.487273 307.544589 
" style="fill:none;stroke:#348abd;stroke-linecap:square;stroke-width:0.3;"/>
   </g>
   <g id="patch_3">
    <path d="M 57.6 307.584 
L 57.6 41.472 
" style="fill:none;stroke:#ffffff;stroke-linecap:square;stroke-linejoin:miter;"/>
   </g>
   <g id="patch_4">
    <path d="M 414.72 307.584 
L 414.72 41.472 
" style="fill:none;stroke:#ffffff;stroke-linecap:square;stroke-linejoin:miter;"/>
   </g>
   <g id="patch_5">
    <path d="M 57.6 307.584 
L 414.72 307.584 
" style="fill:none;stroke:#ffffff;stroke-linecap:square;stroke-linejoin:miter;"/>
   </g>
   <g id="patch_6">
    <path d="M 57.6 41.472 
L 414.72 41.472 
" style="fill:none;stroke:#ffffff;stroke-linecap:square;stroke-linejoin:miter;"/>
   </g>
   <g id="text_19">
    <!-- kernel density estimation(Gaussian):b1135 -->
    <defs>
     <path d="M 9.078125 75.984375 
L 18.109375 75.984375 
L 18.109375 31.109375 
L 44.921875 54.6875 
L 56.390625 54.6875 
L 27.390625 29.109375 
L 57.625 0 
L 45.90625 0 
L 18.109375 26.703125 
L 18.109375 0 
L 9.078125 0 
z
" id="DejaVuSans-6b"/>
     <path d="M 56.203125 29.59375 
L 56.203125 25.203125 
L 14.890625 25.203125 
Q 15.484375 15.921875 20.484375 11.0625 
Q 25.484375 6.203125 34.421875 6.203125 
Q 39.59375 6.203125 44.453125 7.46875 
Q 49.3125 8.734375 54.109375 11.28125 
L 54.109375 2.78125 
Q 49.265625 0.734375 44.1875 -0.34375 
Q 39.109375 -1.421875 33.890625 -1.421875 
Q 20.796875 -1.421875 13.15625 6.1875 
Q 5.515625 13.8125 5.515625 26.8125 
Q 5.515625 40.234375 12.765625 48.109375 
Q 20.015625 56 32.328125 56 
Q 43.359375 56 49.78125 48.890625 
Q 56.203125 41.796875 56.203125 29.59375 
z
M 47.21875 32.234375 
Q 47.125 39.59375 43.09375 43.984375 
Q 39.0625 48.390625 32.421875 48.390625 
Q 24.90625 48.390625 20.390625 44.140625 
Q 15.875 39.890625 15.1875 32.171875 
z
" id="DejaVuSans-65"/>
     <path d="M 41.109375 46.296875 
Q 39.59375 47.171875 37.8125 47.578125 
Q 36.03125 48 33.890625 48 
Q 26.265625 48 22.1875 43.046875 
Q 18.109375 38.09375 18.109375 28.8125 
L 18.109375 0 
L 9.078125 0 
L 9.078125 54.6875 
L 18.109375 54.6875 
L 18.109375 46.1875 
Q 20.953125 51.171875 25.484375 53.578125 
Q 30.03125 56 36.53125 56 
Q 37.453125 56 38.578125 55.875 
Q 39.703125 55.765625 41.0625 55.515625 
z
" id="DejaVuSans-72"/>
     <path d="M 9.421875 75.984375 
L 18.40625 75.984375 
L 18.40625 0 
L 9.421875 0 
z
" id="DejaVuSans-6c"/>
     <path id="DejaVuSans-20"/>
     <path d="M 45.40625 46.390625 
L 45.40625 75.984375 
L 54.390625 75.984375 
L 54.390625 0 
L 45.40625 0 
L 45.40625 8.203125 
Q 42.578125 3.328125 38.25 0.953125 
Q 33.9375 -1.421875 27.875 -1.421875 
Q 17.96875 -1.421875 11.734375 6.484375 
Q 5.515625 14.40625 5.515625 27.296875 
Q 5.515625 40.1875 11.734375 48.09375 
Q 17.96875 56 27.875 56 
Q 33.9375 56 38.25 53.625 
Q 42.578125 51.265625 45.40625 46.390625 
z
M 14.796875 27.296875 
Q 14.796875 17.390625 18.875 11.75 
Q 22.953125 6.109375 30.078125 6.109375 
Q 37.203125 6.109375 41.296875 11.75 
Q 45.40625 17.390625 45.40625 27.296875 
Q 45.40625 37.203125 41.296875 42.84375 
Q 37.203125 48.484375 30.078125 48.484375 
Q 22.953125 48.484375 18.875 42.84375 
Q 14.796875 37.203125 14.796875 27.296875 
z
" id="DejaVuSans-64"/>
     <path d="M 44.28125 53.078125 
L 44.28125 44.578125 
Q 40.484375 46.53125 36.375 47.5 
Q 32.28125 48.484375 27.875 48.484375 
Q 21.1875 48.484375 17.84375 46.4375 
Q 14.5 44.390625 14.5 40.28125 
Q 14.5 37.15625 16.890625 35.375 
Q 19.28125 33.59375 26.515625 31.984375 
L 29.59375 31.296875 
Q 39.15625 29.25 43.1875 25.515625 
Q 47.21875 21.78125 47.21875 15.09375 
Q 47.21875 7.46875 41.1875 3.015625 
Q 35.15625 -1.421875 24.609375 -1.421875 
Q 20.21875 -1.421875 15.453125 -0.5625 
Q 10.6875 0.296875 5.421875 2 
L 5.421875 11.28125 
Q 10.40625 8.6875 15.234375 7.390625 
Q 20.0625 6.109375 24.8125 6.109375 
Q 31.15625 6.109375 34.5625 8.28125 
Q 37.984375 10.453125 37.984375 14.40625 
Q 37.984375 18.0625 35.515625 20.015625 
Q 33.0625 21.96875 24.703125 23.78125 
L 21.578125 24.515625 
Q 13.234375 26.265625 9.515625 29.90625 
Q 5.8125 33.546875 5.8125 39.890625 
Q 5.8125 47.609375 11.28125 51.796875 
Q 16.75 56 26.8125 56 
Q 31.78125 56 36.171875 55.265625 
Q 40.578125 54.546875 44.28125 53.078125 
z
" id="DejaVuSans-73"/>
     <path d="M 9.421875 54.6875 
L 18.40625 54.6875 
L 18.40625 0 
L 9.421875 0 
z
M 9.421875 75.984375 
L 18.40625 75.984375 
L 18.40625 64.59375 
L 9.421875 64.59375 
z
" id="DejaVuSans-69"/>
     <path d="M 32.171875 -5.078125 
Q 28.375 -14.84375 24.75 -17.8125 
Q 21.140625 -20.796875 15.09375 -20.796875 
L 7.90625 -20.796875 
L 7.90625 -13.28125 
L 13.1875 -13.28125 
Q 16.890625 -13.28125 18.9375 -11.515625 
Q 21 -9.765625 23.484375 -3.21875 
L 25.09375 0.875 
L 2.984375 54.6875 
L 12.5 54.6875 
L 29.59375 11.921875 
L 46.6875 54.6875 
L 56.203125 54.6875 
z
" id="DejaVuSans-79"/>
     <path d="M 52 44.1875 
Q 55.375 50.25 60.0625 53.125 
Q 64.75 56 71.09375 56 
Q 79.640625 56 84.28125 50.015625 
Q 88.921875 44.046875 88.921875 33.015625 
L 88.921875 0 
L 79.890625 0 
L 79.890625 32.71875 
Q 79.890625 40.578125 77.09375 44.375 
Q 74.3125 48.1875 68.609375 48.1875 
Q 61.625 48.1875 57.5625 43.546875 
Q 53.515625 38.921875 53.515625 30.90625 
L 53.515625 0 
L 44.484375 0 
L 44.484375 32.71875 
Q 44.484375 40.625 41.703125 44.40625 
Q 38.921875 48.1875 33.109375 48.1875 
Q 26.21875 48.1875 22.15625 43.53125 
Q 18.109375 38.875 18.109375 30.90625 
L 18.109375 0 
L 9.078125 0 
L 9.078125 54.6875 
L 18.109375 54.6875 
L 18.109375 46.1875 
Q 21.1875 51.21875 25.484375 53.609375 
Q 29.78125 56 35.6875 56 
Q 41.65625 56 45.828125 52.96875 
Q 50 49.953125 52 44.1875 
z
" id="DejaVuSans-6d"/>
     <path d="M 34.28125 27.484375 
Q 23.390625 27.484375 19.1875 25 
Q 14.984375 22.515625 14.984375 16.5 
Q 14.984375 11.71875 18.140625 8.90625 
Q 21.296875 6.109375 26.703125 6.109375 
Q 34.1875 6.109375 38.703125 11.40625 
Q 43.21875 16.703125 43.21875 25.484375 
L 43.21875 27.484375 
z
M 52.203125 31.203125 
L 52.203125 0 
L 43.21875 0 
L 43.21875 8.296875 
Q 40.140625 3.328125 35.546875 0.953125 
Q 30.953125 -1.421875 24.3125 -1.421875 
Q 15.921875 -1.421875 10.953125 3.296875 
Q 6 8.015625 6 15.921875 
Q 6 25.140625 12.171875 29.828125 
Q 18.359375 34.515625 30.609375 34.515625 
L 43.21875 34.515625 
L 43.21875 35.40625 
Q 43.21875 41.609375 39.140625 45 
Q 35.0625 48.390625 27.6875 48.390625 
Q 23 48.390625 18.546875 47.265625 
Q 14.109375 46.140625 10.015625 43.890625 
L 10.015625 52.203125 
Q 14.9375 54.109375 19.578125 55.046875 
Q 24.21875 56 28.609375 56 
Q 40.484375 56 46.34375 49.84375 
Q 52.203125 43.703125 52.203125 31.203125 
z
" id="DejaVuSans-61"/>
     <path d="M 59.515625 10.40625 
L 59.515625 29.984375 
L 43.40625 29.984375 
L 43.40625 38.09375 
L 69.28125 38.09375 
L 69.28125 6.78125 
Q 63.578125 2.734375 56.6875 0.65625 
Q 49.8125 -1.421875 42 -1.421875 
Q 24.90625 -1.421875 15.25 8.5625 
Q 5.609375 18.5625 5.609375 36.375 
Q 5.609375 54.25 15.25 64.234375 
Q 24.90625 74.21875 42 74.21875 
Q 49.125 74.21875 55.546875 72.453125 
Q 61.96875 70.703125 67.390625 67.28125 
L 67.390625 56.78125 
Q 61.921875 61.421875 55.765625 63.765625 
Q 49.609375 66.109375 42.828125 66.109375 
Q 29.4375 66.109375 22.71875 58.640625 
Q 16.015625 51.171875 16.015625 36.375 
Q 16.015625 21.625 22.71875 14.15625 
Q 29.4375 6.6875 42.828125 6.6875 
Q 48.046875 6.6875 52.140625 7.59375 
Q 56.25 8.5 59.515625 10.40625 
z
" id="DejaVuSans-47"/>
     <path d="M 11.71875 12.40625 
L 22.015625 12.40625 
L 22.015625 0 
L 11.71875 0 
z
M 11.71875 51.703125 
L 22.015625 51.703125 
L 22.015625 39.3125 
L 11.71875 39.3125 
z
" id="DejaVuSans-3a"/>
     <path d="M 48.6875 27.296875 
Q 48.6875 37.203125 44.609375 42.84375 
Q 40.53125 48.484375 33.40625 48.484375 
Q 26.265625 48.484375 22.1875 42.84375 
Q 18.109375 37.203125 18.109375 27.296875 
Q 18.109375 17.390625 22.1875 11.75 
Q 26.265625 6.109375 33.40625 6.109375 
Q 40.53125 6.109375 44.609375 11.75 
Q 48.6875 17.390625 48.6875 27.296875 
z
M 18.109375 46.390625 
Q 20.953125 51.265625 25.265625 53.625 
Q 29.59375 56 35.59375 56 
Q 45.5625 56 51.78125 48.09375 
Q 58.015625 40.1875 58.015625 27.296875 
Q 58.015625 14.40625 51.78125 6.484375 
Q 45.5625 -1.421875 35.59375 -1.421875 
Q 29.59375 -1.421875 25.265625 0.953125 
Q 20.953125 3.328125 18.109375 8.203125 
L 18.109375 0 
L 9.078125 0 
L 9.078125 75.984375 
L 18.109375 75.984375 
z
" id="DejaVuSans-62"/>
    </defs>
    <g transform="translate(80.445375 35.472)scale(0.144 -0.144)">
     <use xlink:href="#DejaVuSans-6b"/>
     <use x="57.863281" xlink:href="#DejaVuSans-65"/>
     <use x="119.386719" xlink:href="#DejaVuSans-72"/>
     <use x="160.484375" xlink:href="#DejaVuSans-6e"/>
     <use x="223.863281" xlink:href="#DejaVuSans-65"/>
     <use x="285.386719" xlink:href="#DejaVuSans-6c"/>
     <use x="313.169922" xlink:href="#DejaVuSans-20"/>
     <use x="344.957031" xlink:href="#DejaVuSans-64"/>
     <use x="408.433594" xlink:href="#DejaVuSans-65"/>
     <use x="469.957031" xlink:href="#DejaVuSans-6e"/>
     <use x="533.335938" xlink:href="#DejaVuSans-73"/>
     <use x="585.435547" xlink:href="#DejaVuSans-69"/>
     <use x="613.21875" xlink:href="#DejaVuSans-74"/>
     <use x="652.427734" xlink:href="#DejaVuSans-79"/>
     <use x="711.607422" xlink:href="#DejaVuSans-20"/>
     <use x="743.394531" xlink:href="#DejaVuSans-65"/>
     <use x="804.917969" xlink:href="#DejaVuSans-73"/>
     <use x="857.017578" xlink:href="#DejaVuSans-74"/>
     <use x="896.226562" xlink:href="#DejaVuSans-69"/>
     <use x="924.009766" xlink:href="#DejaVuSans-6d"/>
     <use x="1021.421875" xlink:href="#DejaVuSans-61"/>
     <use x="1082.701172" xlink:href="#DejaVuSans-74"/>
     <use x="1121.910156" xlink:href="#DejaVuSans-69"/>
     <use x="1149.693359" xlink:href="#DejaVuSans-6f"/>
     <use x="1210.875" xlink:href="#DejaVuSans-6e"/>
     <use x="1274.253906" xlink:href="#DejaVuSans-28"/>
     <use x="1313.267578" xlink:href="#DejaVuSans-47"/>
     <use x="1390.757812" xlink:href="#DejaVuSans-61"/>
     <use x="1452.037109" xlink:href="#DejaVuSans-75"/>
     <use x="1515.416016" xlink:href="#DejaVuSans-73"/>
     <use x="1567.515625" xlink:href="#DejaVuSans-73"/>
     <use x="1619.615234" xlink:href="#DejaVuSans-69"/>
     <use x="1647.398438" xlink:href="#DejaVuSans-61"/>
     <use x="1708.677734" xlink:href="#DejaVuSans-6e"/>
     <use x="1772.056641" xlink:href="#DejaVuSans-29"/>
     <use x="1811.070312" xlink:href="#DejaVuSans-3a"/>
     <use x="1844.761719" xlink:href="#DejaVuSans-62"/>
     <use x="1908.238281" xlink:href="#DejaVuSans-31"/>
     <use x="1971.861328" xlink:href="#DejaVuSans-31"/>
     <use x="2035.484375" xlink:href="#DejaVuSans-33"/>
     <use x="2099.107422" xlink:href="#DejaVuSans-35"/>
    </g>
   </g>
   <g id="legend_1">
    <g id="patch_7">
     <path d="M 326.566875 78.82825 
L 407.72 78.82825 
Q 409.72 78.82825 409.72 76.82825 
L 409.72 48.472 
Q 409.72 46.472 407.72 46.472 
L 326.566875 46.472 
Q 324.566875 46.472 324.566875 48.472 
L 324.566875 76.82825 
Q 324.566875 78.82825 326.566875 78.82825 
z
" style="fill:#e5e5e5;opacity:0.8;stroke:#cccccc;stroke-linejoin:miter;stroke-width:0.5;"/>
    </g>
    <g id="line2d_35">
     <path d="M 328.566875 54.570437 
L 348.566875 54.570437 
" style="fill:none;stroke:#e24a33;stroke-linecap:square;stroke-width:0.3;"/>
    </g>
    <g id="line2d_36"/>
    <g id="text_20">
     <!-- scott -->
     <g transform="translate(356.566875 58.070437)scale(0.1 -0.1)">
      <use xlink:href="#DejaVuSans-73"/>
      <use x="52.099609" xlink:href="#DejaVuSans-63"/>
      <use x="107.080078" xlink:href="#DejaVuSans-6f"/>
      <use x="168.261719" xlink:href="#DejaVuSans-74"/>
      <use x="207.470703" xlink:href="#DejaVuSans-74"/>
     </g>
    </g>
    <g id="line2d_37">
     <path d="M 328.566875 69.248562 
L 348.566875 69.248562 
" style="fill:none;stroke:#348abd;stroke-linecap:square;stroke-width:0.3;"/>
    </g>
    <g id="line2d_38"/>
    <g id="text_21">
     <!-- silverman -->
     <defs>
      <path d="M 2.984375 54.6875 
L 12.5 54.6875 
L 29.59375 8.796875 
L 46.6875 54.6875 
L 56.203125 54.6875 
L 35.6875 0 
L 23.484375 0 
z
" id="DejaVuSans-76"/>
     </defs>
     <g transform="translate(356.566875 72.748562)scale(0.1 -0.1)">
      <use xlink:href="#DejaVuSans-73"/>
      <use x="52.099609" xlink:href="#DejaVuSans-69"/>
      <use x="79.882812" xlink:href="#DejaVuSans-6c"/>
      <use x="107.666016" xlink:href="#DejaVuSans-76"/>
      <use x="166.845703" xlink:href="#DejaVuSans-65"/>
      <use x="228.369141" xlink:href="#DejaVuSans-72"/>
      <use x="269.466797" xlink:href="#DejaVuSans-6d"/>
      <use x="366.878906" xlink:href="#DejaVuSans-61"/>
      <use x="428.158203" xlink:href="#DejaVuSans-6e"/>
     </g>
    </g>
   </g>
  </g>
 </g>
 <defs>
  <clipPath id="p01e655fbdc">
   <rect height="266.112" width="357.12" x="57.6" y="41.472"/>
  </clipPath>
 </defs>
</svg>
