<?xml version="1.0" encoding="utf-8" standalone="no"?>
<!DOCTYPE svg PUBLIC "-//W3C//DTD SVG 1.1//EN"
  "http://www.w3.org/Graphics/SVG/1.1/DTD/svg11.dtd">
<!-- Created with matplotlib (http://matplotlib.org/) -->
<svg height="345pt" version="1.1" viewBox="0 0 460 345" width="460pt" xmlns="http://www.w3.org/2000/svg" xmlns:xlink="http://www.w3.org/1999/xlink">
 <defs>
  <style type="text/css">
*{stroke-linecap:butt;stroke-linejoin:round;}
  </style>
 </defs>
 <g id="figure_1">
  <g id="patch_1">
   <path d="M 0 345.6 
L 460.8 345.6 
L 460.8 0 
L 0 0 
z
" style="fill:#ffffff;"/>
  </g>
  <g id="axes_1">
   <g id="patch_2">
    <path d="M 57.6 307.584 
L 414.72 307.584 
L 414.72 41.472 
L 57.6 41.472 
z
" style="fill:#e5e5e5;"/>
   </g>
   <g id="matplotlib.axis_1">
    <g id="xtick_1">
     <g id="line2d_1">
      <path clip-path="url(#p1b19e0477e)" d="M 57.444585 307.584 
L 57.444585 41.472 
" style="fill:none;stroke:#ffffff;stroke-linecap:square;stroke-width:0.8;"/>
     </g>
     <g id="line2d_2">
      <defs>
       <path d="M 0 0 
L 0 3.5 
" id="m762af60994" style="stroke:#555555;stroke-width:0.8;"/>
      </defs>
      <g>
       <use style="fill:#555555;stroke:#555555;stroke-width:0.8;" x="57.444585" xlink:href="#m762af60994" y="307.584"/>
      </g>
     </g>
     <g id="text_1">
      <!-- −100 -->
      <defs>
       <path d="M 10.59375 35.5 
L 73.1875 35.5 
L 73.1875 27.203125 
L 10.59375 27.203125 
z
" id="DejaVuSans-2212"/>
       <path d="M 12.40625 8.296875 
L 28.515625 8.296875 
L 28.515625 63.921875 
L 10.984375 60.40625 
L 10.984375 69.390625 
L 28.421875 72.90625 
L 38.28125 72.90625 
L 38.28125 8.296875 
L 54.390625 8.296875 
L 54.390625 0 
L 12.40625 0 
z
" id="DejaVuSans-31"/>
       <path d="M 31.78125 66.40625 
Q 24.171875 66.40625 20.328125 58.90625 
Q 16.5 51.421875 16.5 36.375 
Q 16.5 21.390625 20.328125 13.890625 
Q 24.171875 6.390625 31.78125 6.390625 
Q 39.453125 6.390625 43.28125 13.890625 
Q 47.125 21.390625 47.125 36.375 
Q 47.125 51.421875 43.28125 58.90625 
Q 39.453125 66.40625 31.78125 66.40625 
z
M 31.78125 74.21875 
Q 44.046875 74.21875 50.515625 64.515625 
Q 56.984375 54.828125 56.984375 36.375 
Q 56.984375 17.96875 50.515625 8.265625 
Q 44.046875 -1.421875 31.78125 -1.421875 
Q 19.53125 -1.421875 13.0625 8.265625 
Q 6.59375 17.96875 6.59375 36.375 
Q 6.59375 54.828125 13.0625 64.515625 
Q 19.53125 74.21875 31.78125 74.21875 
z
" id="DejaVuSans-30"/>
      </defs>
      <g style="fill:#555555;" transform="translate(43.710991 322.182437)scale(0.1 -0.1)">
       <use xlink:href="#DejaVuSans-2212"/>
       <use x="83.789062" xlink:href="#DejaVuSans-31"/>
       <use x="147.412109" xlink:href="#DejaVuSans-30"/>
       <use x="211.035156" xlink:href="#DejaVuSans-30"/>
      </g>
     </g>
    </g>
    <g id="xtick_2">
     <g id="line2d_3">
      <path clip-path="url(#p1b19e0477e)" d="M 103.924537 307.584 
L 103.924537 41.472 
" style="fill:none;stroke:#ffffff;stroke-linecap:square;stroke-width:0.8;"/>
     </g>
     <g id="line2d_4">
      <g>
       <use style="fill:#555555;stroke:#555555;stroke-width:0.8;" x="103.924537" xlink:href="#m762af60994" y="307.584"/>
      </g>
     </g>
     <g id="text_2">
      <!-- 0 -->
      <g style="fill:#555555;" transform="translate(100.743287 322.182437)scale(0.1 -0.1)">
       <use xlink:href="#DejaVuSans-30"/>
      </g>
     </g>
    </g>
    <g id="xtick_3">
     <g id="line2d_5">
      <path clip-path="url(#p1b19e0477e)" d="M 150.404489 307.584 
L 150.404489 41.472 
" style="fill:none;stroke:#ffffff;stroke-linecap:square;stroke-width:0.8;"/>
     </g>
     <g id="line2d_6">
      <g>
       <use style="fill:#555555;stroke:#555555;stroke-width:0.8;" x="150.404489" xlink:href="#m762af60994" y="307.584"/>
      </g>
     </g>
     <g id="text_3">
      <!-- 100 -->
      <g style="fill:#555555;" transform="translate(140.860739 322.182437)scale(0.1 -0.1)">
       <use xlink:href="#DejaVuSans-31"/>
       <use x="63.623047" xlink:href="#DejaVuSans-30"/>
       <use x="127.246094" xlink:href="#DejaVuSans-30"/>
      </g>
     </g>
    </g>
    <g id="xtick_4">
     <g id="line2d_7">
      <path clip-path="url(#p1b19e0477e)" d="M 196.884441 307.584 
L 196.884441 41.472 
" style="fill:none;stroke:#ffffff;stroke-linecap:square;stroke-width:0.8;"/>
     </g>
     <g id="line2d_8">
      <g>
       <use style="fill:#555555;stroke:#555555;stroke-width:0.8;" x="196.884441" xlink:href="#m762af60994" y="307.584"/>
      </g>
     </g>
     <g id="text_4">
      <!-- 200 -->
      <defs>
       <path d="M 19.1875 8.296875 
L 53.609375 8.296875 
L 53.609375 0 
L 7.328125 0 
L 7.328125 8.296875 
Q 12.9375 14.109375 22.625 23.890625 
Q 32.328125 33.6875 34.8125 36.53125 
Q 39.546875 41.84375 41.421875 45.53125 
Q 43.3125 49.21875 43.3125 52.78125 
Q 43.3125 58.59375 39.234375 62.25 
Q 35.15625 65.921875 28.609375 65.921875 
Q 23.96875 65.921875 18.8125 64.3125 
Q 13.671875 62.703125 7.8125 59.421875 
L 7.8125 69.390625 
Q 13.765625 71.78125 18.9375 73 
Q 24.125 74.21875 28.421875 74.21875 
Q 39.75 74.21875 46.484375 68.546875 
Q 53.21875 62.890625 53.21875 53.421875 
Q 53.21875 48.921875 51.53125 44.890625 
Q 49.859375 40.875 45.40625 35.40625 
Q 44.1875 33.984375 37.640625 27.21875 
Q 31.109375 20.453125 19.1875 8.296875 
z
" id="DejaVuSans-32"/>
      </defs>
      <g style="fill:#555555;" transform="translate(187.340691 322.182437)scale(0.1 -0.1)">
       <use xlink:href="#DejaVuSans-32"/>
       <use x="63.623047" xlink:href="#DejaVuSans-30"/>
       <use x="127.246094" xlink:href="#DejaVuSans-30"/>
      </g>
     </g>
    </g>
    <g id="xtick_5">
     <g id="line2d_9">
      <path clip-path="url(#p1b19e0477e)" d="M 243.364393 307.584 
L 243.364393 41.472 
" style="fill:none;stroke:#ffffff;stroke-linecap:square;stroke-width:0.8;"/>
     </g>
     <g id="line2d_10">
      <g>
       <use style="fill:#555555;stroke:#555555;stroke-width:0.8;" x="243.364393" xlink:href="#m762af60994" y="307.584"/>
      </g>
     </g>
     <g id="text_5">
      <!-- 300 -->
      <defs>
       <path d="M 40.578125 39.3125 
Q 47.65625 37.796875 51.625 33 
Q 55.609375 28.21875 55.609375 21.1875 
Q 55.609375 10.40625 48.1875 4.484375 
Q 40.765625 -1.421875 27.09375 -1.421875 
Q 22.515625 -1.421875 17.65625 -0.515625 
Q 12.796875 0.390625 7.625 2.203125 
L 7.625 11.71875 
Q 11.71875 9.328125 16.59375 8.109375 
Q 21.484375 6.890625 26.8125 6.890625 
Q 36.078125 6.890625 40.9375 10.546875 
Q 45.796875 14.203125 45.796875 21.1875 
Q 45.796875 27.640625 41.28125 31.265625 
Q 36.765625 34.90625 28.71875 34.90625 
L 20.21875 34.90625 
L 20.21875 43.015625 
L 29.109375 43.015625 
Q 36.375 43.015625 40.234375 45.921875 
Q 44.09375 48.828125 44.09375 54.296875 
Q 44.09375 59.90625 40.109375 62.90625 
Q 36.140625 65.921875 28.71875 65.921875 
Q 24.65625 65.921875 20.015625 65.03125 
Q 15.375 64.15625 9.8125 62.3125 
L 9.8125 71.09375 
Q 15.4375 72.65625 20.34375 73.4375 
Q 25.25 74.21875 29.59375 74.21875 
Q 40.828125 74.21875 47.359375 69.109375 
Q 53.90625 64.015625 53.90625 55.328125 
Q 53.90625 49.265625 50.4375 45.09375 
Q 46.96875 40.921875 40.578125 39.3125 
z
" id="DejaVuSans-33"/>
      </defs>
      <g style="fill:#555555;" transform="translate(233.820643 322.182437)scale(0.1 -0.1)">
       <use xlink:href="#DejaVuSans-33"/>
       <use x="63.623047" xlink:href="#DejaVuSans-30"/>
       <use x="127.246094" xlink:href="#DejaVuSans-30"/>
      </g>
     </g>
    </g>
    <g id="xtick_6">
     <g id="line2d_11">
      <path clip-path="url(#p1b19e0477e)" d="M 289.844345 307.584 
L 289.844345 41.472 
" style="fill:none;stroke:#ffffff;stroke-linecap:square;stroke-width:0.8;"/>
     </g>
     <g id="line2d_12">
      <g>
       <use style="fill:#555555;stroke:#555555;stroke-width:0.8;" x="289.844345" xlink:href="#m762af60994" y="307.584"/>
      </g>
     </g>
     <g id="text_6">
      <!-- 400 -->
      <defs>
       <path d="M 37.796875 64.3125 
L 12.890625 25.390625 
L 37.796875 25.390625 
z
M 35.203125 72.90625 
L 47.609375 72.90625 
L 47.609375 25.390625 
L 58.015625 25.390625 
L 58.015625 17.1875 
L 47.609375 17.1875 
L 47.609375 0 
L 37.796875 0 
L 37.796875 17.1875 
L 4.890625 17.1875 
L 4.890625 26.703125 
z
" id="DejaVuSans-34"/>
      </defs>
      <g style="fill:#555555;" transform="translate(280.300595 322.182437)scale(0.1 -0.1)">
       <use xlink:href="#DejaVuSans-34"/>
       <use x="63.623047" xlink:href="#DejaVuSans-30"/>
       <use x="127.246094" xlink:href="#DejaVuSans-30"/>
      </g>
     </g>
    </g>
    <g id="xtick_7">
     <g id="line2d_13">
      <path clip-path="url(#p1b19e0477e)" d="M 336.324296 307.584 
L 336.324296 41.472 
" style="fill:none;stroke:#ffffff;stroke-linecap:square;stroke-width:0.8;"/>
     </g>
     <g id="line2d_14">
      <g>
       <use style="fill:#555555;stroke:#555555;stroke-width:0.8;" x="336.324296" xlink:href="#m762af60994" y="307.584"/>
      </g>
     </g>
     <g id="text_7">
      <!-- 500 -->
      <defs>
       <path d="M 10.796875 72.90625 
L 49.515625 72.90625 
L 49.515625 64.59375 
L 19.828125 64.59375 
L 19.828125 46.734375 
Q 21.96875 47.46875 24.109375 47.828125 
Q 26.265625 48.1875 28.421875 48.1875 
Q 40.625 48.1875 47.75 41.5 
Q 54.890625 34.8125 54.890625 23.390625 
Q 54.890625 11.625 47.5625 5.09375 
Q 40.234375 -1.421875 26.90625 -1.421875 
Q 22.3125 -1.421875 17.546875 -0.640625 
Q 12.796875 0.140625 7.71875 1.703125 
L 7.71875 11.625 
Q 12.109375 9.234375 16.796875 8.0625 
Q 21.484375 6.890625 26.703125 6.890625 
Q 35.15625 6.890625 40.078125 11.328125 
Q 45.015625 15.765625 45.015625 23.390625 
Q 45.015625 31 40.078125 35.4375 
Q 35.15625 39.890625 26.703125 39.890625 
Q 22.75 39.890625 18.8125 39.015625 
Q 14.890625 38.140625 10.796875 36.28125 
z
" id="DejaVuSans-35"/>
      </defs>
      <g style="fill:#555555;" transform="translate(326.780546 322.182437)scale(0.1 -0.1)">
       <use xlink:href="#DejaVuSans-35"/>
       <use x="63.623047" xlink:href="#DejaVuSans-30"/>
       <use x="127.246094" xlink:href="#DejaVuSans-30"/>
      </g>
     </g>
    </g>
    <g id="xtick_8">
     <g id="line2d_15">
      <path clip-path="url(#p1b19e0477e)" d="M 382.804248 307.584 
L 382.804248 41.472 
" style="fill:none;stroke:#ffffff;stroke-linecap:square;stroke-width:0.8;"/>
     </g>
     <g id="line2d_16">
      <g>
       <use style="fill:#555555;stroke:#555555;stroke-width:0.8;" x="382.804248" xlink:href="#m762af60994" y="307.584"/>
      </g>
     </g>
     <g id="text_8">
      <!-- 600 -->
      <defs>
       <path d="M 33.015625 40.375 
Q 26.375 40.375 22.484375 35.828125 
Q 18.609375 31.296875 18.609375 23.390625 
Q 18.609375 15.53125 22.484375 10.953125 
Q 26.375 6.390625 33.015625 6.390625 
Q 39.65625 6.390625 43.53125 10.953125 
Q 47.40625 15.53125 47.40625 23.390625 
Q 47.40625 31.296875 43.53125 35.828125 
Q 39.65625 40.375 33.015625 40.375 
z
M 52.59375 71.296875 
L 52.59375 62.3125 
Q 48.875 64.0625 45.09375 64.984375 
Q 41.3125 65.921875 37.59375 65.921875 
Q 27.828125 65.921875 22.671875 59.328125 
Q 17.53125 52.734375 16.796875 39.40625 
Q 19.671875 43.65625 24.015625 45.921875 
Q 28.375 48.1875 33.59375 48.1875 
Q 44.578125 48.1875 50.953125 41.515625 
Q 57.328125 34.859375 57.328125 23.390625 
Q 57.328125 12.15625 50.6875 5.359375 
Q 44.046875 -1.421875 33.015625 -1.421875 
Q 20.359375 -1.421875 13.671875 8.265625 
Q 6.984375 17.96875 6.984375 36.375 
Q 6.984375 53.65625 15.1875 63.9375 
Q 23.390625 74.21875 37.203125 74.21875 
Q 40.921875 74.21875 44.703125 73.484375 
Q 48.484375 72.75 52.59375 71.296875 
z
" id="DejaVuSans-36"/>
      </defs>
      <g style="fill:#555555;" transform="translate(373.260498 322.182437)scale(0.1 -0.1)">
       <use xlink:href="#DejaVuSans-36"/>
       <use x="63.623047" xlink:href="#DejaVuSans-30"/>
       <use x="127.246094" xlink:href="#DejaVuSans-30"/>
      </g>
     </g>
    </g>
    <g id="text_9">
     <!-- count -->
     <defs>
      <path d="M 48.78125 52.59375 
L 48.78125 44.1875 
Q 44.96875 46.296875 41.140625 47.34375 
Q 37.3125 48.390625 33.40625 48.390625 
Q 24.65625 48.390625 19.8125 42.84375 
Q 14.984375 37.3125 14.984375 27.296875 
Q 14.984375 17.28125 19.8125 11.734375 
Q 24.65625 6.203125 33.40625 6.203125 
Q 37.3125 6.203125 41.140625 7.25 
Q 44.96875 8.296875 48.78125 10.40625 
L 48.78125 2.09375 
Q 45.015625 0.34375 40.984375 -0.53125 
Q 36.96875 -1.421875 32.421875 -1.421875 
Q 20.0625 -1.421875 12.78125 6.34375 
Q 5.515625 14.109375 5.515625 27.296875 
Q 5.515625 40.671875 12.859375 48.328125 
Q 20.21875 56 33.015625 56 
Q 37.15625 56 41.109375 55.140625 
Q 45.0625 54.296875 48.78125 52.59375 
z
" id="DejaVuSans-63"/>
      <path d="M 30.609375 48.390625 
Q 23.390625 48.390625 19.1875 42.75 
Q 14.984375 37.109375 14.984375 27.296875 
Q 14.984375 17.484375 19.15625 11.84375 
Q 23.34375 6.203125 30.609375 6.203125 
Q 37.796875 6.203125 41.984375 11.859375 
Q 46.1875 17.53125 46.1875 27.296875 
Q 46.1875 37.015625 41.984375 42.703125 
Q 37.796875 48.390625 30.609375 48.390625 
z
M 30.609375 56 
Q 42.328125 56 49.015625 48.375 
Q 55.71875 40.765625 55.71875 27.296875 
Q 55.71875 13.875 49.015625 6.21875 
Q 42.328125 -1.421875 30.609375 -1.421875 
Q 18.84375 -1.421875 12.171875 6.21875 
Q 5.515625 13.875 5.515625 27.296875 
Q 5.515625 40.765625 12.171875 48.375 
Q 18.84375 56 30.609375 56 
z
" id="DejaVuSans-6f"/>
      <path d="M 8.5 21.578125 
L 8.5 54.6875 
L 17.484375 54.6875 
L 17.484375 21.921875 
Q 17.484375 14.15625 20.5 10.265625 
Q 23.53125 6.390625 29.59375 6.390625 
Q 36.859375 6.390625 41.078125 11.03125 
Q 45.3125 15.671875 45.3125 23.6875 
L 45.3125 54.6875 
L 54.296875 54.6875 
L 54.296875 0 
L 45.3125 0 
L 45.3125 8.40625 
Q 42.046875 3.421875 37.71875 1 
Q 33.40625 -1.421875 27.6875 -1.421875 
Q 18.265625 -1.421875 13.375 4.4375 
Q 8.5 10.296875 8.5 21.578125 
z
M 31.109375 56 
z
" id="DejaVuSans-75"/>
      <path d="M 54.890625 33.015625 
L 54.890625 0 
L 45.90625 0 
L 45.90625 32.71875 
Q 45.90625 40.484375 42.875 44.328125 
Q 39.84375 48.1875 33.796875 48.1875 
Q 26.515625 48.1875 22.3125 43.546875 
Q 18.109375 38.921875 18.109375 30.90625 
L 18.109375 0 
L 9.078125 0 
L 9.078125 54.6875 
L 18.109375 54.6875 
L 18.109375 46.1875 
Q 21.34375 51.125 25.703125 53.5625 
Q 30.078125 56 35.796875 56 
Q 45.21875 56 50.046875 50.171875 
Q 54.890625 44.34375 54.890625 33.015625 
z
" id="DejaVuSans-6e"/>
      <path d="M 18.3125 70.21875 
L 18.3125 54.6875 
L 36.8125 54.6875 
L 36.8125 47.703125 
L 18.3125 47.703125 
L 18.3125 18.015625 
Q 18.3125 11.328125 20.140625 9.421875 
Q 21.96875 7.515625 27.59375 7.515625 
L 36.8125 7.515625 
L 36.8125 0 
L 27.59375 0 
Q 17.1875 0 13.234375 3.875 
Q 9.28125 7.765625 9.28125 18.015625 
L 9.28125 47.703125 
L 2.6875 47.703125 
L 2.6875 54.6875 
L 9.28125 54.6875 
L 9.28125 70.21875 
z
" id="DejaVuSans-74"/>
     </defs>
     <g style="fill:#555555;" transform="translate(219.2325 337.38025)scale(0.12 -0.12)">
      <use xlink:href="#DejaVuSans-63"/>
      <use x="54.980469" xlink:href="#DejaVuSans-6f"/>
      <use x="116.162109" xlink:href="#DejaVuSans-75"/>
      <use x="179.541016" xlink:href="#DejaVuSans-6e"/>
      <use x="242.919922" xlink:href="#DejaVuSans-74"/>
     </g>
    </g>
   </g>
   <g id="matplotlib.axis_2">
    <g id="ytick_1">
     <g id="line2d_17">
      <path clip-path="url(#p1b19e0477e)" d="M 57.6 307.584 
L 414.72 307.584 
" style="fill:none;stroke:#ffffff;stroke-linecap:square;stroke-width:0.8;"/>
     </g>
     <g id="line2d_18">
      <defs>
       <path d="M 0 0 
L -3.5 0 
" id="m75db0e9136" style="stroke:#555555;stroke-width:0.8;"/>
      </defs>
      <g>
       <use style="fill:#555555;stroke:#555555;stroke-width:0.8;" x="57.6" xlink:href="#m75db0e9136" y="307.584"/>
      </g>
     </g>
     <g id="text_10">
      <!-- 0.000 -->
      <defs>
       <path d="M 10.6875 12.40625 
L 21 12.40625 
L 21 0 
L 10.6875 0 
z
" id="DejaVuSans-2e"/>
      </defs>
      <g style="fill:#555555;" transform="translate(21.971875 311.383219)scale(0.1 -0.1)">
       <use xlink:href="#DejaVuSans-30"/>
       <use x="63.623047" xlink:href="#DejaVuSans-2e"/>
       <use x="95.410156" xlink:href="#DejaVuSans-30"/>
       <use x="159.033203" xlink:href="#DejaVuSans-30"/>
       <use x="222.65625" xlink:href="#DejaVuSans-30"/>
      </g>
     </g>
    </g>
    <g id="ytick_2">
     <g id="line2d_19">
      <path clip-path="url(#p1b19e0477e)" d="M 57.6 263.274367 
L 414.72 263.274367 
" style="fill:none;stroke:#ffffff;stroke-linecap:square;stroke-width:0.8;"/>
     </g>
     <g id="line2d_20">
      <g>
       <use style="fill:#555555;stroke:#555555;stroke-width:0.8;" x="57.6" xlink:href="#m75db0e9136" y="263.274367"/>
      </g>
     </g>
     <g id="text_11">
      <!-- 0.001 -->
      <g style="fill:#555555;" transform="translate(21.971875 267.073586)scale(0.1 -0.1)">
       <use xlink:href="#DejaVuSans-30"/>
       <use x="63.623047" xlink:href="#DejaVuSans-2e"/>
       <use x="95.410156" xlink:href="#DejaVuSans-30"/>
       <use x="159.033203" xlink:href="#DejaVuSans-30"/>
       <use x="222.65625" xlink:href="#DejaVuSans-31"/>
      </g>
     </g>
    </g>
    <g id="ytick_3">
     <g id="line2d_21">
      <path clip-path="url(#p1b19e0477e)" d="M 57.6 218.964735 
L 414.72 218.964735 
" style="fill:none;stroke:#ffffff;stroke-linecap:square;stroke-width:0.8;"/>
     </g>
     <g id="line2d_22">
      <g>
       <use style="fill:#555555;stroke:#555555;stroke-width:0.8;" x="57.6" xlink:href="#m75db0e9136" y="218.964735"/>
      </g>
     </g>
     <g id="text_12">
      <!-- 0.002 -->
      <g style="fill:#555555;" transform="translate(21.971875 222.763954)scale(0.1 -0.1)">
       <use xlink:href="#DejaVuSans-30"/>
       <use x="63.623047" xlink:href="#DejaVuSans-2e"/>
       <use x="95.410156" xlink:href="#DejaVuSans-30"/>
       <use x="159.033203" xlink:href="#DejaVuSans-30"/>
       <use x="222.65625" xlink:href="#DejaVuSans-32"/>
      </g>
     </g>
    </g>
    <g id="ytick_4">
     <g id="line2d_23">
      <path clip-path="url(#p1b19e0477e)" d="M 57.6 174.655102 
L 414.72 174.655102 
" style="fill:none;stroke:#ffffff;stroke-linecap:square;stroke-width:0.8;"/>
     </g>
     <g id="line2d_24">
      <g>
       <use style="fill:#555555;stroke:#555555;stroke-width:0.8;" x="57.6" xlink:href="#m75db0e9136" y="174.655102"/>
      </g>
     </g>
     <g id="text_13">
      <!-- 0.003 -->
      <g style="fill:#555555;" transform="translate(21.971875 178.454321)scale(0.1 -0.1)">
       <use xlink:href="#DejaVuSans-30"/>
       <use x="63.623047" xlink:href="#DejaVuSans-2e"/>
       <use x="95.410156" xlink:href="#DejaVuSans-30"/>
       <use x="159.033203" xlink:href="#DejaVuSans-30"/>
       <use x="222.65625" xlink:href="#DejaVuSans-33"/>
      </g>
     </g>
    </g>
    <g id="ytick_5">
     <g id="line2d_25">
      <path clip-path="url(#p1b19e0477e)" d="M 57.6 130.34547 
L 414.72 130.34547 
" style="fill:none;stroke:#ffffff;stroke-linecap:square;stroke-width:0.8;"/>
     </g>
     <g id="line2d_26">
      <g>
       <use style="fill:#555555;stroke:#555555;stroke-width:0.8;" x="57.6" xlink:href="#m75db0e9136" y="130.34547"/>
      </g>
     </g>
     <g id="text_14">
      <!-- 0.004 -->
      <g style="fill:#555555;" transform="translate(21.971875 134.144688)scale(0.1 -0.1)">
       <use xlink:href="#DejaVuSans-30"/>
       <use x="63.623047" xlink:href="#DejaVuSans-2e"/>
       <use x="95.410156" xlink:href="#DejaVuSans-30"/>
       <use x="159.033203" xlink:href="#DejaVuSans-30"/>
       <use x="222.65625" xlink:href="#DejaVuSans-34"/>
      </g>
     </g>
    </g>
    <g id="ytick_6">
     <g id="line2d_27">
      <path clip-path="url(#p1b19e0477e)" d="M 57.6 86.035837 
L 414.72 86.035837 
" style="fill:none;stroke:#ffffff;stroke-linecap:square;stroke-width:0.8;"/>
     </g>
     <g id="line2d_28">
      <g>
       <use style="fill:#555555;stroke:#555555;stroke-width:0.8;" x="57.6" xlink:href="#m75db0e9136" y="86.035837"/>
      </g>
     </g>
     <g id="text_15">
      <!-- 0.005 -->
      <g style="fill:#555555;" transform="translate(21.971875 89.835056)scale(0.1 -0.1)">
       <use xlink:href="#DejaVuSans-30"/>
       <use x="63.623047" xlink:href="#DejaVuSans-2e"/>
       <use x="95.410156" xlink:href="#DejaVuSans-30"/>
       <use x="159.033203" xlink:href="#DejaVuSans-30"/>
       <use x="222.65625" xlink:href="#DejaVuSans-35"/>
      </g>
     </g>
    </g>
    <g id="ytick_7">
     <g id="line2d_29">
      <path clip-path="url(#p1b19e0477e)" d="M 57.6 41.726204 
L 414.72 41.726204 
" style="fill:none;stroke:#ffffff;stroke-linecap:square;stroke-width:0.8;"/>
     </g>
     <g id="line2d_30">
      <g>
       <use style="fill:#555555;stroke:#555555;stroke-width:0.8;" x="57.6" xlink:href="#m75db0e9136" y="41.726204"/>
      </g>
     </g>
     <g id="text_16">
      <!-- 0.006 -->
      <g style="fill:#555555;" transform="translate(21.971875 45.525423)scale(0.1 -0.1)">
       <use xlink:href="#DejaVuSans-30"/>
       <use x="63.623047" xlink:href="#DejaVuSans-2e"/>
       <use x="95.410156" xlink:href="#DejaVuSans-30"/>
       <use x="159.033203" xlink:href="#DejaVuSans-30"/>
       <use x="222.65625" xlink:href="#DejaVuSans-36"/>
      </g>
     </g>
    </g>
    <g id="text_17">
     <!-- f(count) -->
     <defs>
      <path d="M 37.109375 75.984375 
L 37.109375 68.5 
L 28.515625 68.5 
Q 23.6875 68.5 21.796875 66.546875 
Q 19.921875 64.59375 19.921875 59.515625 
L 19.921875 54.6875 
L 34.71875 54.6875 
L 34.71875 47.703125 
L 19.921875 47.703125 
L 19.921875 0 
L 10.890625 0 
L 10.890625 47.703125 
L 2.296875 47.703125 
L 2.296875 54.6875 
L 10.890625 54.6875 
L 10.890625 58.5 
Q 10.890625 67.625 15.140625 71.796875 
Q 19.390625 75.984375 28.609375 75.984375 
z
" id="DejaVuSans-66"/>
      <path d="M 31 75.875 
Q 24.46875 64.65625 21.28125 53.65625 
Q 18.109375 42.671875 18.109375 31.390625 
Q 18.109375 20.125 21.3125 9.0625 
Q 24.515625 -2 31 -13.1875 
L 23.1875 -13.1875 
Q 15.875 -1.703125 12.234375 9.375 
Q 8.59375 20.453125 8.59375 31.390625 
Q 8.59375 42.28125 12.203125 53.3125 
Q 15.828125 64.359375 23.1875 75.875 
z
" id="DejaVuSans-28"/>
      <path d="M 8.015625 75.875 
L 15.828125 75.875 
Q 23.140625 64.359375 26.78125 53.3125 
Q 30.421875 42.28125 30.421875 31.390625 
Q 30.421875 20.453125 26.78125 9.375 
Q 23.140625 -1.703125 15.828125 -13.1875 
L 8.015625 -13.1875 
Q 14.5 -2 17.703125 9.0625 
Q 20.90625 20.125 20.90625 31.390625 
Q 20.90625 42.671875 17.703125 53.65625 
Q 14.5 64.65625 8.015625 75.875 
z
" id="DejaVuSans-29"/>
     </defs>
     <g style="fill:#555555;" transform="translate(15.47625 198.249562)rotate(-90)scale(0.12 -0.12)">
      <use xlink:href="#DejaVuSans-66"/>
      <use x="35.205078" xlink:href="#DejaVuSans-28"/>
      <use x="74.21875" xlink:href="#DejaVuSans-63"/>
      <use x="129.199219" xlink:href="#DejaVuSans-6f"/>
      <use x="190.380859" xlink:href="#DejaVuSans-75"/>
      <use x="253.759766" xlink:href="#DejaVuSans-6e"/>
      <use x="317.138672" xlink:href="#DejaVuSans-74"/>
      <use x="356.347656" xlink:href="#DejaVuSans-29"/>
     </g>
    </g>
   </g>
   <g id="PolyCollection_1">
    <path clip-path="url(#p1b19e0477e)" d="M 76.294878 307.266189 
L 76.294878 307.584 
L 79.524477 307.584 
L 82.754075 307.584 
L 85.983673 307.584 
L 89.213272 307.584 
L 92.44287 307.584 
L 95.672469 307.584 
L 98.902067 307.584 
L 102.131666 307.584 
L 105.361264 307.584 
L 108.590862 307.584 
L 111.820461 307.584 
L 115.050059 307.584 
L 118.279658 307.584 
L 121.509256 307.584 
L 124.738854 307.584 
L 127.968453 307.584 
L 131.198051 307.584 
L 134.42765 307.584 
L 137.657248 307.584 
L 140.886847 307.584 
L 144.116445 307.584 
L 147.346043 307.584 
L 150.575642 307.584 
L 153.80524 307.584 
L 157.034839 307.584 
L 160.264437 307.584 
L 163.494036 307.584 
L 166.723634 307.584 
L 169.953232 307.584 
L 173.182831 307.584 
L 176.412429 307.584 
L 179.642028 307.584 
L 182.871626 307.584 
L 186.101224 307.584 
L 189.330823 307.584 
L 192.560421 307.584 
L 195.79002 307.584 
L 199.019618 307.584 
L 202.249217 307.584 
L 205.478815 307.584 
L 208.708413 307.584 
L 211.938012 307.584 
L 215.16761 307.584 
L 218.397209 307.584 
L 221.626807 307.584 
L 224.856406 307.584 
L 228.086004 307.584 
L 231.315602 307.584 
L 234.545201 307.584 
L 237.774799 307.584 
L 241.004398 307.584 
L 244.233996 307.584 
L 247.463594 307.584 
L 250.693193 307.584 
L 253.922791 307.584 
L 257.15239 307.584 
L 260.381988 307.584 
L 263.611587 307.584 
L 266.841185 307.584 
L 270.070783 307.584 
L 273.300382 307.584 
L 276.52998 307.584 
L 279.759579 307.584 
L 282.989177 307.584 
L 286.218776 307.584 
L 289.448374 307.584 
L 292.677972 307.584 
L 295.907571 307.584 
L 299.137169 307.584 
L 302.366768 307.584 
L 305.596366 307.584 
L 308.825964 307.584 
L 312.055563 307.584 
L 315.285161 307.584 
L 318.51476 307.584 
L 321.744358 307.584 
L 324.973957 307.584 
L 328.203555 307.584 
L 331.433153 307.584 
L 334.662752 307.584 
L 337.89235 307.584 
L 341.121949 307.584 
L 344.351547 307.584 
L 347.581146 307.584 
L 350.810744 307.584 
L 354.040342 307.584 
L 357.269941 307.584 
L 360.499539 307.584 
L 363.729138 307.584 
L 366.958736 307.584 
L 370.188334 307.584 
L 373.417933 307.584 
L 376.647531 307.584 
L 379.87713 307.584 
L 383.106728 307.584 
L 386.336327 307.584 
L 389.565925 307.584 
L 392.795523 307.584 
L 396.025122 307.584 
L 396.025122 307.55923 
L 396.025122 307.55923 
L 392.795523 307.532924 
L 389.565925 307.483647 
L 386.336327 307.39596 
L 383.106728 307.247627 
L 379.87713 307.008894 
L 376.647531 306.642987 
L 373.417933 306.108319 
L 370.188334 305.362611 
L 366.958736 304.368609 
L 363.729138 303.100567 
L 360.499539 301.550255 
L 357.269941 299.731128 
L 354.040342 297.679601 
L 350.810744 295.452917 
L 347.581146 293.123928 
L 344.351547 290.773882 
L 341.121949 288.484857 
L 337.89235 286.333594 
L 334.662752 284.387966 
L 331.433153 282.706362 
L 328.203555 281.339198 
L 324.973957 280.331074 
L 321.744358 279.722156 
L 318.51476 279.547912 
L 315.285161 279.837017 
L 312.055563 280.607515 
L 308.825964 281.86134 
L 305.596366 283.577389 
L 302.366768 285.704152 
L 299.137169 288.154066 
L 295.907571 290.802574 
L 292.677972 293.494257 
L 289.448374 296.056093 
L 286.218776 298.314852 
L 282.989177 300.113485 
L 279.759579 301.32158 
L 276.52998 301.837625 
L 273.300382 301.584739 
L 270.070783 300.504681 
L 266.841185 298.555695 
L 263.611587 295.71771 
L 260.381988 292.004708 
L 257.15239 287.480445 
L 253.922791 282.271986 
L 250.693193 276.576042 
L 247.463594 270.655195 
L 244.233996 264.823231 
L 241.004398 259.420088 
L 237.774799 254.777384 
L 234.545201 251.176488 
L 231.315602 248.803338 
L 228.086004 247.707272 
L 224.856406 247.773028 
L 221.626807 248.713631 
L 218.397209 250.086703 
L 215.16761 251.330133 
L 211.938012 251.809084 
L 208.708413 250.868208 
L 205.478815 247.890113 
L 202.249217 242.368464 
L 199.019618 234.004087 
L 195.79002 222.819895 
L 192.560421 209.267803 
L 189.330823 194.279108 
L 186.101224 179.204903 
L 182.871626 165.615973 
L 179.642028 154.980112 
L 176.412429 148.290602 
L 173.182831 145.756283 
L 169.953232 146.660231 
L 166.723634 149.448142 
L 163.494036 152.037146 
L 160.264437 152.270256 
L 157.034839 148.405032 
L 153.80524 139.525168 
L 150.575642 125.791172 
L 147.346043 108.484861 
L 144.116445 89.839796 
L 140.886847 72.683409 
L 137.657248 59.948783 
L 134.42765 54.144 
L 131.198051 56.886442 
L 127.968453 68.605921 
L 124.738854 88.486739 
L 121.509256 114.660074 
L 118.279658 144.592532 
L 115.050059 175.567498 
L 111.820461 205.140089 
L 108.590862 231.46752 
L 105.361264 253.4636 
L 102.131666 270.780002 
L 98.902067 283.659348 
L 95.672469 292.725334 
L 92.44287 298.772147 
L 89.213272 302.596508 
L 85.983673 304.891192 
L 82.754075 306.1978 
L 79.524477 306.903946 
L 76.294878 307.266189 
z
" style="fill:#e24a33;fill-opacity:0.25;"/>
   </g>
   <g id="PolyCollection_2">
    <path clip-path="url(#p1b19e0477e)" d="M 73.832727 307.259675 
L 73.832727 307.584 
L 77.112066 307.584 
L 80.391405 307.584 
L 83.670744 307.584 
L 86.950083 307.584 
L 90.229421 307.584 
L 93.50876 307.584 
L 96.788099 307.584 
L 100.067438 307.584 
L 103.346777 307.584 
L 106.626116 307.584 
L 109.905455 307.584 
L 113.184793 307.584 
L 116.464132 307.584 
L 119.743471 307.584 
L 123.02281 307.584 
L 126.302149 307.584 
L 129.581488 307.584 
L 132.860826 307.584 
L 136.140165 307.584 
L 139.419504 307.584 
L 142.698843 307.584 
L 145.978182 307.584 
L 149.257521 307.584 
L 152.53686 307.584 
L 155.816198 307.584 
L 159.095537 307.584 
L 162.374876 307.584 
L 165.654215 307.584 
L 168.933554 307.584 
L 172.212893 307.584 
L 175.492231 307.584 
L 178.77157 307.584 
L 182.050909 307.584 
L 185.330248 307.584 
L 188.609587 307.584 
L 191.888926 307.584 
L 195.168264 307.584 
L 198.447603 307.584 
L 201.726942 307.584 
L 205.006281 307.584 
L 208.28562 307.584 
L 211.564959 307.584 
L 214.844298 307.584 
L 218.123636 307.584 
L 221.402975 307.584 
L 224.682314 307.584 
L 227.961653 307.584 
L 231.240992 307.584 
L 234.520331 307.584 
L 237.799669 307.584 
L 241.079008 307.584 
L 244.358347 307.584 
L 247.637686 307.584 
L 250.917025 307.584 
L 254.196364 307.584 
L 257.475702 307.584 
L 260.755041 307.584 
L 264.03438 307.584 
L 267.313719 307.584 
L 270.593058 307.584 
L 273.872397 307.584 
L 277.151736 307.584 
L 280.431074 307.584 
L 283.710413 307.584 
L 286.989752 307.584 
L 290.269091 307.584 
L 293.54843 307.584 
L 296.827769 307.584 
L 300.107107 307.584 
L 303.386446 307.584 
L 306.665785 307.584 
L 309.945124 307.584 
L 313.224463 307.584 
L 316.503802 307.584 
L 319.78314 307.584 
L 323.062479 307.584 
L 326.341818 307.584 
L 329.621157 307.584 
L 332.900496 307.584 
L 336.179835 307.584 
L 339.459174 307.584 
L 342.738512 307.584 
L 346.017851 307.584 
L 349.29719 307.584 
L 352.576529 307.584 
L 355.855868 307.584 
L 359.135207 307.584 
L 362.414545 307.584 
L 365.693884 307.584 
L 368.973223 307.584 
L 372.252562 307.584 
L 375.531901 307.584 
L 378.81124 307.584 
L 382.090579 307.584 
L 385.369917 307.584 
L 388.649256 307.584 
L 391.928595 307.584 
L 395.207934 307.584 
L 398.487273 307.584 
L 398.487273 307.559516 
L 398.487273 307.559516 
L 395.207934 307.534842 
L 391.928595 307.48958 
L 388.649256 307.410363 
L 385.369917 307.278013 
L 382.090579 307.066785 
L 378.81124 306.74451 
L 375.531901 306.274057 
L 372.252562 305.616365 
L 368.973223 304.734951 
L 365.693884 303.601391 
L 362.414545 302.200865 
L 359.135207 300.536674 
L 355.855868 298.632685 
L 352.576529 296.533053 
L 349.29719 294.299138 
L 346.017851 292.004214 
L 342.738512 289.727125 
L 339.459174 287.546252 
L 336.179835 285.534971 
L 332.900496 283.759218 
L 329.621157 282.277 
L 326.341818 281.139076 
L 323.062479 280.389732 
L 319.78314 280.066688 
L 316.503802 280.199527 
L 313.224463 280.806405 
L 309.945124 281.889167 
L 306.665785 283.427397 
L 303.386446 285.372483 
L 300.107107 287.64341 
L 296.827769 290.12626 
L 293.54843 292.678902 
L 290.269091 295.140904 
L 286.989752 297.346834 
L 283.710413 299.139727 
L 280.431074 300.38137 
L 277.151736 300.957543 
L 273.872397 300.778716 
L 270.593058 299.778897 
L 267.313719 297.91609 
L 264.03438 295.176935 
L 260.755041 291.585785 
L 257.475702 287.216053 
L 254.196364 282.199989 
L 250.917025 276.732867 
L 247.637686 271.068492 
L 244.358347 265.50446 
L 241.079008 260.357129 
L 237.799669 255.927707 
L 234.520331 252.462512 
L 231.240992 250.112328 
L 227.961653 248.897433 
L 224.682314 248.685219 
L 221.402975 249.18559 
L 218.123636 249.965896 
L 214.844298 250.483511 
L 211.564959 250.132507 
L 208.28562 248.30213 
L 205.006281 244.447582 
L 201.726942 238.174518 
L 198.447603 229.333826 
L 195.168264 218.111935 
L 191.888926 205.088207 
L 188.609587 191.223356 
L 185.330248 177.74999 
L 182.050909 165.961537 
L 178.77157 156.932892 
L 175.492231 151.240648 
L 172.212893 148.766239 
L 168.933554 148.651958 
L 165.654215 149.440038 
L 162.374876 149.372989 
L 159.095537 146.788005 
L 155.816198 140.513891 
L 152.53686 130.180254 
L 149.257521 116.370805 
L 145.978182 100.586492 
L 142.698843 85.02168 
L 139.419504 72.192671 
L 136.140165 64.488318 
L 132.860826 63.732331 
L 129.581488 70.849183 
L 126.302149 85.705958 
L 123.02281 107.162368 
L 119.743471 133.310621 
L 116.464132 161.840852 
L 113.184793 190.441388 
L 109.905455 217.143758 
L 106.626116 240.547803 
L 103.346777 259.901827 
L 100.067438 275.052086 
L 96.788099 286.303421 
L 93.50876 294.242813 
L 90.229421 299.571595 
L 86.950083 302.976 
L 83.670744 305.047286 
L 80.391405 306.247792 
L 77.112066 306.910774 
L 73.832727 307.259675 
z
" style="fill:#348abd;fill-opacity:0.25;"/>
   </g>
   <g id="line2d_31">
    <path clip-path="url(#p1b19e0477e)" d="M 76.294878 307.266189 
L 79.524477 306.903946 
L 82.754075 306.1978 
L 85.983673 304.891192 
L 89.213272 302.596508 
L 92.44287 298.772147 
L 95.672469 292.725334 
L 98.902067 283.659348 
L 102.131666 270.780002 
L 105.361264 253.4636 
L 108.590862 231.46752 
L 111.820461 205.140089 
L 115.050059 175.567498 
L 118.279658 144.592532 
L 121.509256 114.660074 
L 124.738854 88.486739 
L 127.968453 68.605921 
L 131.198051 56.886442 
L 134.42765 54.144 
L 137.657248 59.948783 
L 140.886847 72.683409 
L 144.116445 89.839796 
L 147.346043 108.484861 
L 150.575642 125.791172 
L 153.80524 139.525168 
L 157.034839 148.405032 
L 160.264437 152.270256 
L 163.494036 152.037146 
L 166.723634 149.448142 
L 169.953232 146.660231 
L 173.182831 145.756283 
L 176.412429 148.290602 
L 179.642028 154.980112 
L 182.871626 165.615973 
L 186.101224 179.204903 
L 189.330823 194.279108 
L 192.560421 209.267803 
L 195.79002 222.819895 
L 199.019618 234.004087 
L 202.249217 242.368464 
L 205.478815 247.890113 
L 208.708413 250.868208 
L 211.938012 251.809084 
L 215.16761 251.330133 
L 218.397209 250.086703 
L 221.626807 248.713631 
L 224.856406 247.773028 
L 228.086004 247.707272 
L 231.315602 248.803338 
L 234.545201 251.176488 
L 237.774799 254.777384 
L 241.004398 259.420088 
L 244.233996 264.823231 
L 247.463594 270.655195 
L 250.693193 276.576042 
L 253.922791 282.271986 
L 257.15239 287.480445 
L 260.381988 292.004708 
L 263.611587 295.71771 
L 266.841185 298.555695 
L 270.070783 300.504681 
L 273.300382 301.584739 
L 276.52998 301.837625 
L 279.759579 301.32158 
L 282.989177 300.113485 
L 286.218776 298.314852 
L 289.448374 296.056093 
L 292.677972 293.494257 
L 295.907571 290.802574 
L 299.137169 288.154066 
L 302.366768 285.704152 
L 305.596366 283.577389 
L 308.825964 281.86134 
L 312.055563 280.607515 
L 315.285161 279.837017 
L 318.51476 279.547912 
L 321.744358 279.722156 
L 324.973957 280.331074 
L 328.203555 281.339198 
L 331.433153 282.706362 
L 334.662752 284.387966 
L 337.89235 286.333594 
L 341.121949 288.484857 
L 344.351547 290.773882 
L 347.581146 293.123928 
L 350.810744 295.452917 
L 354.040342 297.679601 
L 357.269941 299.731128 
L 360.499539 301.550255 
L 363.729138 303.100567 
L 366.958736 304.368609 
L 370.188334 305.362611 
L 373.417933 306.108319 
L 376.647531 306.642987 
L 379.87713 307.008894 
L 383.106728 307.247627 
L 386.336327 307.39596 
L 389.565925 307.483647 
L 392.795523 307.532924 
L 396.025122 307.55923 
" style="fill:none;stroke:#e24a33;stroke-linecap:square;stroke-width:0.3;"/>
   </g>
   <g id="line2d_32">
    <path clip-path="url(#p1b19e0477e)" d="M 73.832727 307.259675 
L 77.112066 306.910774 
L 80.391405 306.247792 
L 83.670744 305.047286 
L 86.950083 302.976 
L 90.229421 299.571595 
L 93.50876 294.242813 
L 96.788099 286.303421 
L 100.067438 275.052086 
L 103.346777 259.901827 
L 106.626116 240.547803 
L 109.905455 217.143758 
L 113.184793 190.441388 
L 116.464132 161.840852 
L 119.743471 133.310621 
L 123.02281 107.162368 
L 126.302149 85.705958 
L 129.581488 70.849183 
L 132.860826 63.732331 
L 136.140165 64.488318 
L 139.419504 72.192671 
L 142.698843 85.02168 
L 145.978182 100.586492 
L 149.257521 116.370805 
L 152.53686 130.180254 
L 155.816198 140.513891 
L 159.095537 146.788005 
L 162.374876 149.372989 
L 165.654215 149.440038 
L 168.933554 148.651958 
L 172.212893 148.766239 
L 175.492231 151.240648 
L 178.77157 156.932892 
L 182.050909 165.961537 
L 185.330248 177.74999 
L 188.609587 191.223356 
L 191.888926 205.088207 
L 195.168264 218.111935 
L 198.447603 229.333826 
L 201.726942 238.174518 
L 205.006281 244.447582 
L 208.28562 248.30213 
L 211.564959 250.132507 
L 214.844298 250.483511 
L 218.123636 249.965896 
L 221.402975 249.18559 
L 224.682314 248.685219 
L 227.961653 248.897433 
L 231.240992 250.112328 
L 234.520331 252.462512 
L 237.799669 255.927707 
L 241.079008 260.357129 
L 244.358347 265.50446 
L 247.637686 271.068492 
L 250.917025 276.732867 
L 254.196364 282.199989 
L 257.475702 287.216053 
L 260.755041 291.585785 
L 264.03438 295.176935 
L 267.313719 297.91609 
L 270.593058 299.778897 
L 273.872397 300.778716 
L 277.151736 300.957543 
L 280.431074 300.38137 
L 283.710413 299.139727 
L 286.989752 297.346834 
L 290.269091 295.140904 
L 293.54843 292.678902 
L 296.827769 290.12626 
L 300.107107 287.64341 
L 303.386446 285.372483 
L 306.665785 283.427397 
L 309.945124 281.889167 
L 313.224463 280.806405 
L 316.503802 280.199527 
L 319.78314 280.066688 
L 323.062479 280.389732 
L 326.341818 281.139076 
L 329.621157 282.277 
L 332.900496 283.759218 
L 336.179835 285.534971 
L 339.459174 287.546252 
L 342.738512 289.727125 
L 346.017851 292.004214 
L 349.29719 294.299138 
L 352.576529 296.533053 
L 355.855868 298.632685 
L 359.135207 300.536674 
L 362.414545 302.200865 
L 365.693884 303.601391 
L 368.973223 304.734951 
L 372.252562 305.616365 
L 375.531901 306.274057 
L 378.81124 306.74451 
L 382.090579 307.066785 
L 385.369917 307.278013 
L 388.649256 307.410363 
L 391.928595 307.48958 
L 395.207934 307.534842 
L 398.487273 307.559516 
" style="fill:none;stroke:#348abd;stroke-linecap:square;stroke-width:0.3;"/>
   </g>
   <g id="patch_3">
    <path d="M 57.6 307.584 
L 57.6 41.472 
" style="fill:none;stroke:#ffffff;stroke-linecap:square;stroke-linejoin:miter;"/>
   </g>
   <g id="patch_4">
    <path d="M 414.72 307.584 
L 414.72 41.472 
" style="fill:none;stroke:#ffffff;stroke-linecap:square;stroke-linejoin:miter;"/>
   </g>
   <g id="patch_5">
    <path d="M 57.6 307.584 
L 414.72 307.584 
" style="fill:none;stroke:#ffffff;stroke-linecap:square;stroke-linejoin:miter;"/>
   </g>
   <g id="patch_6">
    <path d="M 57.6 41.472 
L 414.72 41.472 
" style="fill:none;stroke:#ffffff;stroke-linecap:square;stroke-linejoin:miter;"/>
   </g>
   <g id="text_18">
    <!-- kernel density estimation(Gaussian):b0788 -->
    <defs>
     <path d="M 9.078125 75.984375 
L 18.109375 75.984375 
L 18.109375 31.109375 
L 44.921875 54.6875 
L 56.390625 54.6875 
L 27.390625 29.109375 
L 57.625 0 
L 45.90625 0 
L 18.109375 26.703125 
L 18.109375 0 
L 9.078125 0 
z
" id="DejaVuSans-6b"/>
     <path d="M 56.203125 29.59375 
L 56.203125 25.203125 
L 14.890625 25.203125 
Q 15.484375 15.921875 20.484375 11.0625 
Q 25.484375 6.203125 34.421875 6.203125 
Q 39.59375 6.203125 44.453125 7.46875 
Q 49.3125 8.734375 54.109375 11.28125 
L 54.109375 2.78125 
Q 49.265625 0.734375 44.1875 -0.34375 
Q 39.109375 -1.421875 33.890625 -1.421875 
Q 20.796875 -1.421875 13.15625 6.1875 
Q 5.515625 13.8125 5.515625 26.8125 
Q 5.515625 40.234375 12.765625 48.109375 
Q 20.015625 56 32.328125 56 
Q 43.359375 56 49.78125 48.890625 
Q 56.203125 41.796875 56.203125 29.59375 
z
M 47.21875 32.234375 
Q 47.125 39.59375 43.09375 43.984375 
Q 39.0625 48.390625 32.421875 48.390625 
Q 24.90625 48.390625 20.390625 44.140625 
Q 15.875 39.890625 15.1875 32.171875 
z
" id="DejaVuSans-65"/>
     <path d="M 41.109375 46.296875 
Q 39.59375 47.171875 37.8125 47.578125 
Q 36.03125 48 33.890625 48 
Q 26.265625 48 22.1875 43.046875 
Q 18.109375 38.09375 18.109375 28.8125 
L 18.109375 0 
L 9.078125 0 
L 9.078125 54.6875 
L 18.109375 54.6875 
L 18.109375 46.1875 
Q 20.953125 51.171875 25.484375 53.578125 
Q 30.03125 56 36.53125 56 
Q 37.453125 56 38.578125 55.875 
Q 39.703125 55.765625 41.0625 55.515625 
z
" id="DejaVuSans-72"/>
     <path d="M 9.421875 75.984375 
L 18.40625 75.984375 
L 18.40625 0 
L 9.421875 0 
z
" id="DejaVuSans-6c"/>
     <path id="DejaVuSans-20"/>
     <path d="M 45.40625 46.390625 
L 45.40625 75.984375 
L 54.390625 75.984375 
L 54.390625 0 
L 45.40625 0 
L 45.40625 8.203125 
Q 42.578125 3.328125 38.25 0.953125 
Q 33.9375 -1.421875 27.875 -1.421875 
Q 17.96875 -1.421875 11.734375 6.484375 
Q 5.515625 14.40625 5.515625 27.296875 
Q 5.515625 40.1875 11.734375 48.09375 
Q 17.96875 56 27.875 56 
Q 33.9375 56 38.25 53.625 
Q 42.578125 51.265625 45.40625 46.390625 
z
M 14.796875 27.296875 
Q 14.796875 17.390625 18.875 11.75 
Q 22.953125 6.109375 30.078125 6.109375 
Q 37.203125 6.109375 41.296875 11.75 
Q 45.40625 17.390625 45.40625 27.296875 
Q 45.40625 37.203125 41.296875 42.84375 
Q 37.203125 48.484375 30.078125 48.484375 
Q 22.953125 48.484375 18.875 42.84375 
Q 14.796875 37.203125 14.796875 27.296875 
z
" id="DejaVuSans-64"/>
     <path d="M 44.28125 53.078125 
L 44.28125 44.578125 
Q 40.484375 46.53125 36.375 47.5 
Q 32.28125 48.484375 27.875 48.484375 
Q 21.1875 48.484375 17.84375 46.4375 
Q 14.5 44.390625 14.5 40.28125 
Q 14.5 37.15625 16.890625 35.375 
Q 19.28125 33.59375 26.515625 31.984375 
L 29.59375 31.296875 
Q 39.15625 29.25 43.1875 25.515625 
Q 47.21875 21.78125 47.21875 15.09375 
Q 47.21875 7.46875 41.1875 3.015625 
Q 35.15625 -1.421875 24.609375 -1.421875 
Q 20.21875 -1.421875 15.453125 -0.5625 
Q 10.6875 0.296875 5.421875 2 
L 5.421875 11.28125 
Q 10.40625 8.6875 15.234375 7.390625 
Q 20.0625 6.109375 24.8125 6.109375 
Q 31.15625 6.109375 34.5625 8.28125 
Q 37.984375 10.453125 37.984375 14.40625 
Q 37.984375 18.0625 35.515625 20.015625 
Q 33.0625 21.96875 24.703125 23.78125 
L 21.578125 24.515625 
Q 13.234375 26.265625 9.515625 29.90625 
Q 5.8125 33.546875 5.8125 39.890625 
Q 5.8125 47.609375 11.28125 51.796875 
Q 16.75 56 26.8125 56 
Q 31.78125 56 36.171875 55.265625 
Q 40.578125 54.546875 44.28125 53.078125 
z
" id="DejaVuSans-73"/>
     <path d="M 9.421875 54.6875 
L 18.40625 54.6875 
L 18.40625 0 
L 9.421875 0 
z
M 9.421875 75.984375 
L 18.40625 75.984375 
L 18.40625 64.59375 
L 9.421875 64.59375 
z
" id="DejaVuSans-69"/>
     <path d="M 32.171875 -5.078125 
Q 28.375 -14.84375 24.75 -17.8125 
Q 21.140625 -20.796875 15.09375 -20.796875 
L 7.90625 -20.796875 
L 7.90625 -13.28125 
L 13.1875 -13.28125 
Q 16.890625 -13.28125 18.9375 -11.515625 
Q 21 -9.765625 23.484375 -3.21875 
L 25.09375 0.875 
L 2.984375 54.6875 
L 12.5 54.6875 
L 29.59375 11.921875 
L 46.6875 54.6875 
L 56.203125 54.6875 
z
" id="DejaVuSans-79"/>
     <path d="M 52 44.1875 
Q 55.375 50.25 60.0625 53.125 
Q 64.75 56 71.09375 56 
Q 79.640625 56 84.28125 50.015625 
Q 88.921875 44.046875 88.921875 33.015625 
L 88.921875 0 
L 79.890625 0 
L 79.890625 32.71875 
Q 79.890625 40.578125 77.09375 44.375 
Q 74.3125 48.1875 68.609375 48.1875 
Q 61.625 48.1875 57.5625 43.546875 
Q 53.515625 38.921875 53.515625 30.90625 
L 53.515625 0 
L 44.484375 0 
L 44.484375 32.71875 
Q 44.484375 40.625 41.703125 44.40625 
Q 38.921875 48.1875 33.109375 48.1875 
Q 26.21875 48.1875 22.15625 43.53125 
Q 18.109375 38.875 18.109375 30.90625 
L 18.109375 0 
L 9.078125 0 
L 9.078125 54.6875 
L 18.109375 54.6875 
L 18.109375 46.1875 
Q 21.1875 51.21875 25.484375 53.609375 
Q 29.78125 56 35.6875 56 
Q 41.65625 56 45.828125 52.96875 
Q 50 49.953125 52 44.1875 
z
" id="DejaVuSans-6d"/>
     <path d="M 34.28125 27.484375 
Q 23.390625 27.484375 19.1875 25 
Q 14.984375 22.515625 14.984375 16.5 
Q 14.984375 11.71875 18.140625 8.90625 
Q 21.296875 6.109375 26.703125 6.109375 
Q 34.1875 6.109375 38.703125 11.40625 
Q 43.21875 16.703125 43.21875 25.484375 
L 43.21875 27.484375 
z
M 52.203125 31.203125 
L 52.203125 0 
L 43.21875 0 
L 43.21875 8.296875 
Q 40.140625 3.328125 35.546875 0.953125 
Q 30.953125 -1.421875 24.3125 -1.421875 
Q 15.921875 -1.421875 10.953125 3.296875 
Q 6 8.015625 6 15.921875 
Q 6 25.140625 12.171875 29.828125 
Q 18.359375 34.515625 30.609375 34.515625 
L 43.21875 34.515625 
L 43.21875 35.40625 
Q 43.21875 41.609375 39.140625 45 
Q 35.0625 48.390625 27.6875 48.390625 
Q 23 48.390625 18.546875 47.265625 
Q 14.109375 46.140625 10.015625 43.890625 
L 10.015625 52.203125 
Q 14.9375 54.109375 19.578125 55.046875 
Q 24.21875 56 28.609375 56 
Q 40.484375 56 46.34375 49.84375 
Q 52.203125 43.703125 52.203125 31.203125 
z
" id="DejaVuSans-61"/>
     <path d="M 59.515625 10.40625 
L 59.515625 29.984375 
L 43.40625 29.984375 
L 43.40625 38.09375 
L 69.28125 38.09375 
L 69.28125 6.78125 
Q 63.578125 2.734375 56.6875 0.65625 
Q 49.8125 -1.421875 42 -1.421875 
Q 24.90625 -1.421875 15.25 8.5625 
Q 5.609375 18.5625 5.609375 36.375 
Q 5.609375 54.25 15.25 64.234375 
Q 24.90625 74.21875 42 74.21875 
Q 49.125 74.21875 55.546875 72.453125 
Q 61.96875 70.703125 67.390625 67.28125 
L 67.390625 56.78125 
Q 61.921875 61.421875 55.765625 63.765625 
Q 49.609375 66.109375 42.828125 66.109375 
Q 29.4375 66.109375 22.71875 58.640625 
Q 16.015625 51.171875 16.015625 36.375 
Q 16.015625 21.625 22.71875 14.15625 
Q 29.4375 6.6875 42.828125 6.6875 
Q 48.046875 6.6875 52.140625 7.59375 
Q 56.25 8.5 59.515625 10.40625 
z
" id="DejaVuSans-47"/>
     <path d="M 11.71875 12.40625 
L 22.015625 12.40625 
L 22.015625 0 
L 11.71875 0 
z
M 11.71875 51.703125 
L 22.015625 51.703125 
L 22.015625 39.3125 
L 11.71875 39.3125 
z
" id="DejaVuSans-3a"/>
     <path d="M 48.6875 27.296875 
Q 48.6875 37.203125 44.609375 42.84375 
Q 40.53125 48.484375 33.40625 48.484375 
Q 26.265625 48.484375 22.1875 42.84375 
Q 18.109375 37.203125 18.109375 27.296875 
Q 18.109375 17.390625 22.1875 11.75 
Q 26.265625 6.109375 33.40625 6.109375 
Q 40.53125 6.109375 44.609375 11.75 
Q 48.6875 17.390625 48.6875 27.296875 
z
M 18.109375 46.390625 
Q 20.953125 51.265625 25.265625 53.625 
Q 29.59375 56 35.59375 56 
Q 45.5625 56 51.78125 48.09375 
Q 58.015625 40.1875 58.015625 27.296875 
Q 58.015625 14.40625 51.78125 6.484375 
Q 45.5625 -1.421875 35.59375 -1.421875 
Q 29.59375 -1.421875 25.265625 0.953125 
Q 20.953125 3.328125 18.109375 8.203125 
L 18.109375 0 
L 9.078125 0 
L 9.078125 75.984375 
L 18.109375 75.984375 
z
" id="DejaVuSans-62"/>
     <path d="M 8.203125 72.90625 
L 55.078125 72.90625 
L 55.078125 68.703125 
L 28.609375 0 
L 18.3125 0 
L 43.21875 64.59375 
L 8.203125 64.59375 
z
" id="DejaVuSans-37"/>
     <path d="M 31.78125 34.625 
Q 24.75 34.625 20.71875 30.859375 
Q 16.703125 27.09375 16.703125 20.515625 
Q 16.703125 13.921875 20.71875 10.15625 
Q 24.75 6.390625 31.78125 6.390625 
Q 38.8125 6.390625 42.859375 10.171875 
Q 46.921875 13.96875 46.921875 20.515625 
Q 46.921875 27.09375 42.890625 30.859375 
Q 38.875 34.625 31.78125 34.625 
z
M 21.921875 38.8125 
Q 15.578125 40.375 12.03125 44.71875 
Q 8.5 49.078125 8.5 55.328125 
Q 8.5 64.0625 14.71875 69.140625 
Q 20.953125 74.21875 31.78125 74.21875 
Q 42.671875 74.21875 48.875 69.140625 
Q 55.078125 64.0625 55.078125 55.328125 
Q 55.078125 49.078125 51.53125 44.71875 
Q 48 40.375 41.703125 38.8125 
Q 48.828125 37.15625 52.796875 32.3125 
Q 56.78125 27.484375 56.78125 20.515625 
Q 56.78125 9.90625 50.3125 4.234375 
Q 43.84375 -1.421875 31.78125 -1.421875 
Q 19.734375 -1.421875 13.25 4.234375 
Q 6.78125 9.90625 6.78125 20.515625 
Q 6.78125 27.484375 10.78125 32.3125 
Q 14.796875 37.15625 21.921875 38.8125 
z
M 18.3125 54.390625 
Q 18.3125 48.734375 21.84375 45.5625 
Q 25.390625 42.390625 31.78125 42.390625 
Q 38.140625 42.390625 41.71875 45.5625 
Q 45.3125 48.734375 45.3125 54.390625 
Q 45.3125 60.0625 41.71875 63.234375 
Q 38.140625 66.40625 31.78125 66.40625 
Q 25.390625 66.40625 21.84375 63.234375 
Q 18.3125 60.0625 18.3125 54.390625 
z
" id="DejaVuSans-38"/>
    </defs>
    <g transform="translate(80.445375 35.472)scale(0.144 -0.144)">
     <use xlink:href="#DejaVuSans-6b"/>
     <use x="57.863281" xlink:href="#DejaVuSans-65"/>
     <use x="119.386719" xlink:href="#DejaVuSans-72"/>
     <use x="160.484375" xlink:href="#DejaVuSans-6e"/>
     <use x="223.863281" xlink:href="#DejaVuSans-65"/>
     <use x="285.386719" xlink:href="#DejaVuSans-6c"/>
     <use x="313.169922" xlink:href="#DejaVuSans-20"/>
     <use x="344.957031" xlink:href="#DejaVuSans-64"/>
     <use x="408.433594" xlink:href="#DejaVuSans-65"/>
     <use x="469.957031" xlink:href="#DejaVuSans-6e"/>
     <use x="533.335938" xlink:href="#DejaVuSans-73"/>
     <use x="585.435547" xlink:href="#DejaVuSans-69"/>
     <use x="613.21875" xlink:href="#DejaVuSans-74"/>
     <use x="652.427734" xlink:href="#DejaVuSans-79"/>
     <use x="711.607422" xlink:href="#DejaVuSans-20"/>
     <use x="743.394531" xlink:href="#DejaVuSans-65"/>
     <use x="804.917969" xlink:href="#DejaVuSans-73"/>
     <use x="857.017578" xlink:href="#DejaVuSans-74"/>
     <use x="896.226562" xlink:href="#DejaVuSans-69"/>
     <use x="924.009766" xlink:href="#DejaVuSans-6d"/>
     <use x="1021.421875" xlink:href="#DejaVuSans-61"/>
     <use x="1082.701172" xlink:href="#DejaVuSans-74"/>
     <use x="1121.910156" xlink:href="#DejaVuSans-69"/>
     <use x="1149.693359" xlink:href="#DejaVuSans-6f"/>
     <use x="1210.875" xlink:href="#DejaVuSans-6e"/>
     <use x="1274.253906" xlink:href="#DejaVuSans-28"/>
     <use x="1313.267578" xlink:href="#DejaVuSans-47"/>
     <use x="1390.757812" xlink:href="#DejaVuSans-61"/>
     <use x="1452.037109" xlink:href="#DejaVuSans-75"/>
     <use x="1515.416016" xlink:href="#DejaVuSans-73"/>
     <use x="1567.515625" xlink:href="#DejaVuSans-73"/>
     <use x="1619.615234" xlink:href="#DejaVuSans-69"/>
     <use x="1647.398438" xlink:href="#DejaVuSans-61"/>
     <use x="1708.677734" xlink:href="#DejaVuSans-6e"/>
     <use x="1772.056641" xlink:href="#DejaVuSans-29"/>
     <use x="1811.070312" xlink:href="#DejaVuSans-3a"/>
     <use x="1844.761719" xlink:href="#DejaVuSans-62"/>
     <use x="1908.238281" xlink:href="#DejaVuSans-30"/>
     <use x="1971.861328" xlink:href="#DejaVuSans-37"/>
     <use x="2035.484375" xlink:href="#DejaVuSans-38"/>
     <use x="2099.107422" xlink:href="#DejaVuSans-38"/>
    </g>
   </g>
   <g id="legend_1">
    <g id="patch_7">
     <path d="M 326.566875 78.82825 
L 407.72 78.82825 
Q 409.72 78.82825 409.72 76.82825 
L 409.72 48.472 
Q 409.72 46.472 407.72 46.472 
L 326.566875 46.472 
Q 324.566875 46.472 324.566875 48.472 
L 324.566875 76.82825 
Q 324.566875 78.82825 326.566875 78.82825 
z
" style="fill:#e5e5e5;opacity:0.8;stroke:#cccccc;stroke-linejoin:miter;stroke-width:0.5;"/>
    </g>
    <g id="line2d_33">
     <path d="M 328.566875 54.570437 
L 348.566875 54.570437 
" style="fill:none;stroke:#e24a33;stroke-linecap:square;stroke-width:0.3;"/>
    </g>
    <g id="line2d_34"/>
    <g id="text_19">
     <!-- scott -->
     <g transform="translate(356.566875 58.070437)scale(0.1 -0.1)">
      <use xlink:href="#DejaVuSans-73"/>
      <use x="52.099609" xlink:href="#DejaVuSans-63"/>
      <use x="107.080078" xlink:href="#DejaVuSans-6f"/>
      <use x="168.261719" xlink:href="#DejaVuSans-74"/>
      <use x="207.470703" xlink:href="#DejaVuSans-74"/>
     </g>
    </g>
    <g id="line2d_35">
     <path d="M 328.566875 69.248562 
L 348.566875 69.248562 
" style="fill:none;stroke:#348abd;stroke-linecap:square;stroke-width:0.3;"/>
    </g>
    <g id="line2d_36"/>
    <g id="text_20">
     <!-- silverman -->
     <defs>
      <path d="M 2.984375 54.6875 
L 12.5 54.6875 
L 29.59375 8.796875 
L 46.6875 54.6875 
L 56.203125 54.6875 
L 35.6875 0 
L 23.484375 0 
z
" id="DejaVuSans-76"/>
     </defs>
     <g transform="translate(356.566875 72.748562)scale(0.1 -0.1)">
      <use xlink:href="#DejaVuSans-73"/>
      <use x="52.099609" xlink:href="#DejaVuSans-69"/>
      <use x="79.882812" xlink:href="#DejaVuSans-6c"/>
      <use x="107.666016" xlink:href="#DejaVuSans-76"/>
      <use x="166.845703" xlink:href="#DejaVuSans-65"/>
      <use x="228.369141" xlink:href="#DejaVuSans-72"/>
      <use x="269.466797" xlink:href="#DejaVuSans-6d"/>
      <use x="366.878906" xlink:href="#DejaVuSans-61"/>
      <use x="428.158203" xlink:href="#DejaVuSans-6e"/>
     </g>
    </g>
   </g>
  </g>
 </g>
 <defs>
  <clipPath id="p1b19e0477e">
   <rect height="266.112" width="357.12" x="57.6" y="41.472"/>
  </clipPath>
 </defs>
</svg>
